G04 Layer_Color=8388736*
%FSLAX25Y25*%
%MOIN*%
G70*
G01*
G75*
%ADD41R,0.06312X0.09068*%
%ADD42R,0.06706X0.06706*%
%ADD43R,0.06706X0.06706*%
%ADD44R,0.03359X0.06804*%
%ADD45R,0.05524X0.03162*%
%ADD46R,0.03162X0.06509*%
%ADD47R,0.03162X0.05524*%
%ADD48R,0.03162X0.08674*%
%ADD49R,0.11036X0.06706*%
%ADD50R,0.09855X0.09855*%
%ADD51C,0.06706*%
%ADD52C,0.21745*%
%ADD53C,0.07296*%
%ADD54C,0.09068*%
%ADD55C,0.06800*%
%ADD56C,0.05367*%
%ADD57R,0.05367X0.05367*%
%ADD58C,0.14383*%
%ADD59C,0.06434*%
%ADD60R,0.06434X0.06434*%
%ADD61C,0.05800*%
D41*
X295039Y55413D02*
D03*
Y19587D02*
D03*
X276142Y55413D02*
D03*
Y19587D02*
D03*
X266358Y55413D02*
D03*
Y19587D02*
D03*
X247461Y55413D02*
D03*
Y19587D02*
D03*
D42*
X163500Y280890D02*
D03*
Y267110D02*
D03*
Y250890D02*
D03*
Y237110D02*
D03*
X115000Y15610D02*
D03*
Y29390D02*
D03*
X100000Y15610D02*
D03*
Y29390D02*
D03*
X85000Y15610D02*
D03*
Y29390D02*
D03*
X115000Y51890D02*
D03*
Y38110D02*
D03*
X100000Y51890D02*
D03*
Y38110D02*
D03*
X85000Y51890D02*
D03*
Y38110D02*
D03*
X250000Y204390D02*
D03*
Y190610D02*
D03*
X237500Y204390D02*
D03*
Y190610D02*
D03*
X310000Y204390D02*
D03*
Y190610D02*
D03*
X227500Y204390D02*
D03*
Y190610D02*
D03*
X300000Y204390D02*
D03*
Y190610D02*
D03*
X217500Y204390D02*
D03*
Y190610D02*
D03*
X290000Y204390D02*
D03*
Y190610D02*
D03*
X207500Y204390D02*
D03*
Y190610D02*
D03*
X280000Y204390D02*
D03*
Y190610D02*
D03*
X197500Y204390D02*
D03*
Y190610D02*
D03*
X270000Y204390D02*
D03*
Y190610D02*
D03*
X177500Y204390D02*
D03*
Y190610D02*
D03*
X187500Y204390D02*
D03*
Y190610D02*
D03*
X260000Y204390D02*
D03*
Y190610D02*
D03*
X77500Y204390D02*
D03*
Y190610D02*
D03*
X150000Y204390D02*
D03*
Y190610D02*
D03*
X67500Y204390D02*
D03*
Y190610D02*
D03*
X140000Y204390D02*
D03*
Y190610D02*
D03*
X57500Y204390D02*
D03*
Y190610D02*
D03*
X130000Y204390D02*
D03*
Y190610D02*
D03*
X47500Y204390D02*
D03*
Y190610D02*
D03*
X120000Y204390D02*
D03*
Y190610D02*
D03*
X37500Y204390D02*
D03*
Y190610D02*
D03*
X110000Y204390D02*
D03*
Y190610D02*
D03*
X17500Y204390D02*
D03*
Y190610D02*
D03*
X90000Y204390D02*
D03*
Y190610D02*
D03*
X27500Y204390D02*
D03*
Y190610D02*
D03*
X100000Y204390D02*
D03*
Y190610D02*
D03*
X163500Y204890D02*
D03*
Y191110D02*
D03*
X10000Y140000D02*
D03*
D43*
X261890Y7500D02*
D03*
X248110D02*
D03*
X218110Y75000D02*
D03*
X231890D02*
D03*
X151890Y57500D02*
D03*
X138110D02*
D03*
Y47500D02*
D03*
X151890D02*
D03*
Y27500D02*
D03*
X138110D02*
D03*
X291890Y7500D02*
D03*
X278110D02*
D03*
X113110Y75000D02*
D03*
X126890D02*
D03*
Y85000D02*
D03*
X113110D02*
D03*
X138110Y37500D02*
D03*
X151890D02*
D03*
X273110Y75000D02*
D03*
X286890D02*
D03*
Y85000D02*
D03*
X273110D02*
D03*
X195000Y77500D02*
D03*
X172500Y167500D02*
D03*
Y155000D02*
D03*
D44*
X260000Y96823D02*
D03*
X265000D02*
D03*
X270000D02*
D03*
X275000D02*
D03*
X280000D02*
D03*
X285000D02*
D03*
X290000D02*
D03*
X295000D02*
D03*
Y118177D02*
D03*
X290000D02*
D03*
X285000D02*
D03*
X280000D02*
D03*
X275000D02*
D03*
X270000D02*
D03*
X265000D02*
D03*
X260000D02*
D03*
X100000Y96823D02*
D03*
X105000D02*
D03*
X110000D02*
D03*
X115000D02*
D03*
X120000D02*
D03*
X125000D02*
D03*
X130000D02*
D03*
X135000D02*
D03*
Y118177D02*
D03*
X130000D02*
D03*
X125000D02*
D03*
X120000D02*
D03*
X115000D02*
D03*
X110000D02*
D03*
X105000D02*
D03*
X100000D02*
D03*
X27500Y96823D02*
D03*
X32500D02*
D03*
X37500D02*
D03*
X42500D02*
D03*
X47500D02*
D03*
X52500D02*
D03*
X57500D02*
D03*
X62500D02*
D03*
Y118177D02*
D03*
X57500D02*
D03*
X52500D02*
D03*
X47500D02*
D03*
X42500D02*
D03*
X37500D02*
D03*
X32500D02*
D03*
X27500D02*
D03*
X187500Y96823D02*
D03*
X192500D02*
D03*
X197500D02*
D03*
X202500D02*
D03*
X207500D02*
D03*
X212500D02*
D03*
X217500D02*
D03*
X222500D02*
D03*
Y118177D02*
D03*
X217500D02*
D03*
X212500D02*
D03*
X207500D02*
D03*
X202500D02*
D03*
X197500D02*
D03*
X192500D02*
D03*
X187500D02*
D03*
D45*
X77579Y108740D02*
D03*
Y105000D02*
D03*
Y101260D02*
D03*
X87421D02*
D03*
Y108740D02*
D03*
X164921Y116260D02*
D03*
Y120000D02*
D03*
Y123740D02*
D03*
X155079D02*
D03*
Y116260D02*
D03*
X237579Y108740D02*
D03*
Y105000D02*
D03*
Y101260D02*
D03*
X247421D02*
D03*
Y108740D02*
D03*
D46*
X95000Y70374D02*
D03*
X91260Y79626D02*
D03*
X98740D02*
D03*
X255000Y70374D02*
D03*
X251260Y79626D02*
D03*
X258740D02*
D03*
D47*
X301260Y75079D02*
D03*
X305000D02*
D03*
X308740D02*
D03*
Y84921D02*
D03*
X301260D02*
D03*
D48*
X187500Y142500D02*
D03*
X192500D02*
D03*
X197500D02*
D03*
X202500D02*
D03*
X207500D02*
D03*
X212500D02*
D03*
X217500D02*
D03*
X222500D02*
D03*
X187500Y166957D02*
D03*
X192500D02*
D03*
X197500D02*
D03*
X202500D02*
D03*
X207500D02*
D03*
X212500D02*
D03*
X217500D02*
D03*
X222500D02*
D03*
X260000Y142500D02*
D03*
X265000D02*
D03*
X270000D02*
D03*
X275000D02*
D03*
X280000D02*
D03*
X285000D02*
D03*
X290000D02*
D03*
X295000D02*
D03*
X260000Y166957D02*
D03*
X265000D02*
D03*
X270000D02*
D03*
X275000D02*
D03*
X280000D02*
D03*
X285000D02*
D03*
X290000D02*
D03*
X295000D02*
D03*
X100000Y142500D02*
D03*
X105000D02*
D03*
X110000D02*
D03*
X115000D02*
D03*
X120000D02*
D03*
X125000D02*
D03*
X130000D02*
D03*
X135000D02*
D03*
X100000Y166957D02*
D03*
X105000D02*
D03*
X110000D02*
D03*
X115000D02*
D03*
X120000D02*
D03*
X125000D02*
D03*
X130000D02*
D03*
X135000D02*
D03*
X27500Y142500D02*
D03*
X32500D02*
D03*
X37500D02*
D03*
X42500D02*
D03*
X47500D02*
D03*
X52500D02*
D03*
X57500D02*
D03*
X62500D02*
D03*
X27500Y166957D02*
D03*
X32500D02*
D03*
X37500D02*
D03*
X42500D02*
D03*
X47500D02*
D03*
X52500D02*
D03*
X57500D02*
D03*
X62500D02*
D03*
D49*
X60000Y14095D02*
D03*
Y25905D02*
D03*
D50*
X60000Y61358D02*
D03*
Y43642D02*
D03*
D51*
X10000Y130000D02*
D03*
X185000Y77500D02*
D03*
X175000D02*
D03*
X162500Y167500D02*
D03*
X152500D02*
D03*
X162500Y155000D02*
D03*
X152500D02*
D03*
D52*
X311024Y11811D02*
D03*
X11811D02*
D03*
Y299213D02*
D03*
X311024D02*
D03*
D53*
X225000Y45158D02*
D03*
Y64842D02*
D03*
D54*
X213189Y55000D02*
D03*
D55*
X127500Y260000D02*
D03*
Y290000D02*
D03*
Y280000D02*
D03*
Y250000D02*
D03*
Y240000D02*
D03*
Y230000D02*
D03*
X97500D02*
D03*
Y240000D02*
D03*
Y270000D02*
D03*
Y280000D02*
D03*
Y290000D02*
D03*
X37500D02*
D03*
Y280000D02*
D03*
Y270000D02*
D03*
Y240000D02*
D03*
Y230000D02*
D03*
X67500D02*
D03*
Y240000D02*
D03*
Y250000D02*
D03*
Y280000D02*
D03*
Y290000D02*
D03*
Y260000D02*
D03*
X197500Y290000D02*
D03*
Y280000D02*
D03*
Y270000D02*
D03*
Y240000D02*
D03*
Y230000D02*
D03*
X227500D02*
D03*
Y240000D02*
D03*
Y250000D02*
D03*
Y280000D02*
D03*
Y290000D02*
D03*
Y260000D02*
D03*
X287500D02*
D03*
Y290000D02*
D03*
Y280000D02*
D03*
Y250000D02*
D03*
Y240000D02*
D03*
Y230000D02*
D03*
X257500D02*
D03*
Y240000D02*
D03*
Y270000D02*
D03*
Y280000D02*
D03*
Y290000D02*
D03*
D56*
X170000Y27500D02*
D03*
Y37500D02*
D03*
Y47500D02*
D03*
Y57500D02*
D03*
X200000D02*
D03*
Y47500D02*
D03*
Y37500D02*
D03*
D57*
Y27500D02*
D03*
D58*
X11457Y86122D02*
D03*
Y38721D02*
D03*
D59*
X22126Y57500D02*
D03*
Y67343D02*
D03*
X30000D02*
D03*
D60*
Y57500D02*
D03*
D61*
X162500Y295000D02*
D03*
X310000Y277500D02*
D03*
X12500Y275000D02*
D03*
X127500Y15000D02*
D03*
X45000Y42500D02*
D03*
X307500Y125000D02*
D03*
X155000Y97500D02*
D03*
X242500Y167500D02*
D03*
X82500Y170000D02*
D03*
X146240Y116260D02*
D03*
X250000Y115000D02*
D03*
X57500Y132500D02*
D03*
X85000Y140000D02*
D03*
X117500Y125000D02*
D03*
X277500D02*
D03*
X282500Y135000D02*
D03*
X275000D02*
D03*
X205000Y125000D02*
D03*
X210000Y135000D02*
D03*
X202500D02*
D03*
X192500Y127500D02*
D03*
X122500Y135000D02*
D03*
X115000D02*
D03*
X45000Y125000D02*
D03*
X50000Y135000D02*
D03*
X27500Y132500D02*
D03*
X42500Y135000D02*
D03*
X230000Y115000D02*
D03*
Y92500D02*
D03*
X202500Y87500D02*
D03*
X85000Y120000D02*
D03*
X62500Y87500D02*
D03*
X82500Y95000D02*
D03*
X77500Y75000D02*
D03*
Y130339D02*
D03*
X250000Y127500D02*
D03*
Y160000D02*
D03*
X290000Y125000D02*
D03*
X288858Y65000D02*
D03*
X300000Y67500D02*
D03*
X270000Y65000D02*
D03*
X180000Y122500D02*
D03*
X265000Y70374D02*
D03*
X105000Y127500D02*
D03*
X100000Y90000D02*
D03*
X105000Y102500D02*
D03*
X125000D02*
D03*
X32500D02*
D03*
X52500D02*
D03*
X265000D02*
D03*
X285000D02*
D03*
X212500D02*
D03*
X192500D02*
D03*
X100000Y65000D02*
D03*
X295000Y85000D02*
D03*
M02*
