G04 Layer_Physical_Order=1*
G04 Layer_Color=255*
%FSLAX25Y25*%
%MOIN*%
G70*
G01*
G75*
%ADD10R,0.05512X0.08268*%
%ADD11R,0.05906X0.05906*%
%ADD12R,0.05906X0.05906*%
%ADD13R,0.02559X0.06004*%
%ADD14R,0.04724X0.02362*%
%ADD15R,0.02362X0.05709*%
%ADD16R,0.02362X0.04724*%
%ADD17R,0.02362X0.07874*%
%ADD18R,0.10236X0.05906*%
%ADD19R,0.09055X0.09055*%
%ADD20C,0.01969*%
%ADD21C,0.05906*%
%ADD22C,0.20945*%
%ADD23C,0.06496*%
%ADD24C,0.08268*%
%ADD25C,0.06000*%
%ADD26C,0.04567*%
%ADD27R,0.04567X0.04567*%
%ADD28C,0.13583*%
%ADD29C,0.05634*%
%ADD30R,0.05634X0.05634*%
%ADD31C,0.05000*%
G36*
X308993Y310524D02*
X307468Y310157D01*
X305799Y309466D01*
X304259Y308523D01*
X302886Y307350D01*
X301713Y305977D01*
X300770Y304437D01*
X300079Y302769D01*
X299657Y301013D01*
X299516Y299213D01*
X299657Y297412D01*
X300079Y295656D01*
X300770Y293988D01*
X301713Y292448D01*
X302886Y291075D01*
X304259Y289902D01*
X305799Y288959D01*
X307468Y288268D01*
X309223Y287846D01*
X311024Y287705D01*
X312824Y287846D01*
X314580Y288268D01*
X316248Y288959D01*
X317788Y289902D01*
X319161Y291075D01*
X320334Y292448D01*
X321277Y293988D01*
X321953Y295618D01*
X322194Y295718D01*
X322462Y295773D01*
X322835Y295276D01*
X322503Y15281D01*
X322003Y15222D01*
X321968Y15367D01*
X321277Y17036D01*
X320334Y18575D01*
X319161Y19948D01*
X317788Y21121D01*
X316248Y22065D01*
X314580Y22756D01*
X312824Y23177D01*
X311024Y23319D01*
X309223Y23177D01*
X307468Y22756D01*
X305799Y22065D01*
X304259Y21121D01*
X302886Y19948D01*
X301713Y18575D01*
X300770Y17036D01*
X300079Y15367D01*
X299657Y13611D01*
X299516Y11811D01*
X299657Y10011D01*
X300079Y8255D01*
X300770Y6587D01*
X301713Y5047D01*
X302886Y3674D01*
X304259Y2501D01*
X305799Y1557D01*
X307468Y866D01*
X308993Y500D01*
X308934Y0D01*
X13901D01*
X13841Y500D01*
X15367Y866D01*
X17036Y1557D01*
X18575Y2501D01*
X19948Y3674D01*
X21121Y5047D01*
X22065Y6587D01*
X22756Y8255D01*
X23177Y10011D01*
X23319Y11811D01*
X23177Y13611D01*
X22756Y15367D01*
X22065Y17036D01*
X21121Y18575D01*
X19948Y19948D01*
X18575Y21121D01*
X17036Y22065D01*
X15367Y22756D01*
X13611Y23177D01*
X11811Y23319D01*
X10011Y23177D01*
X8255Y22756D01*
X6587Y22065D01*
X5047Y21121D01*
X3674Y19948D01*
X2501Y18575D01*
X1557Y17036D01*
X866Y15367D01*
X500Y13841D01*
X0Y13901D01*
Y297123D01*
X500Y297182D01*
X866Y295656D01*
X1557Y293988D01*
X2501Y292448D01*
X3674Y291075D01*
X5047Y289902D01*
X6587Y288959D01*
X8255Y288268D01*
X10011Y287846D01*
X11811Y287705D01*
X13611Y287846D01*
X15367Y288268D01*
X17036Y288959D01*
X18575Y289902D01*
X19948Y291075D01*
X21121Y292448D01*
X22065Y293988D01*
X22756Y295656D01*
X23177Y297412D01*
X23319Y299213D01*
X23177Y301013D01*
X22756Y302769D01*
X22065Y304437D01*
X21121Y305977D01*
X19948Y307350D01*
X18575Y308523D01*
X17036Y309466D01*
X15367Y310157D01*
X13841Y310524D01*
X13901Y311024D01*
X308934Y311024D01*
X308993Y310524D01*
D02*
G37*
%LPC*%
G36*
X163000Y298464D02*
Y295500D01*
X165964D01*
X165910Y295914D01*
X165557Y296765D01*
X164996Y297496D01*
X164265Y298057D01*
X163414Y298410D01*
X163000Y298464D01*
D02*
G37*
G36*
X162000D02*
X161586Y298410D01*
X160735Y298057D01*
X160004Y297496D01*
X159443Y296765D01*
X159090Y295914D01*
X159036Y295500D01*
X162000D01*
Y298464D01*
D02*
G37*
G36*
X222049Y297023D02*
X202500D01*
X201726Y296869D01*
X201069Y296431D01*
X198537Y293898D01*
X197500Y294035D01*
X196456Y293897D01*
X195483Y293494D01*
X194647Y292853D01*
X194006Y292017D01*
X193603Y291044D01*
X193465Y290000D01*
X193603Y288956D01*
X194006Y287983D01*
X194647Y287147D01*
X195483Y286506D01*
X196456Y286103D01*
X197500Y285965D01*
X198544Y286103D01*
X199517Y286506D01*
X200353Y287147D01*
X200994Y287983D01*
X201397Y288956D01*
X201535Y290000D01*
X201398Y291037D01*
X203338Y292977D01*
X221985D01*
X222064Y292961D01*
X224100D01*
X224347Y292461D01*
X224006Y292017D01*
X223603Y291044D01*
X223465Y290000D01*
X223602Y288963D01*
X206662Y272023D01*
X200990D01*
X200353Y272853D01*
X199517Y273494D01*
X198544Y273897D01*
X197500Y274035D01*
X196456Y273897D01*
X195483Y273494D01*
X194647Y272853D01*
X194006Y272017D01*
X193603Y271044D01*
X193465Y270000D01*
X193603Y268956D01*
X194006Y267983D01*
X194647Y267147D01*
X195483Y266506D01*
X196456Y266103D01*
X197500Y265966D01*
X198544Y266103D01*
X199517Y266506D01*
X200353Y267147D01*
X200990Y267977D01*
X207500D01*
X208274Y268131D01*
X208931Y268569D01*
X226463Y286102D01*
X227500Y285965D01*
X228544Y286103D01*
X229517Y286506D01*
X230353Y287147D01*
X230994Y287983D01*
X231397Y288956D01*
X231523Y289909D01*
X231967Y290172D01*
X241414Y280725D01*
Y269601D01*
X240952Y269409D01*
X231398Y278963D01*
X231535Y280000D01*
X231397Y281044D01*
X230994Y282017D01*
X230353Y282853D01*
X229517Y283494D01*
X228544Y283897D01*
X227500Y284034D01*
X226456Y283897D01*
X225483Y283494D01*
X224647Y282853D01*
X224006Y282017D01*
X223603Y281044D01*
X223465Y280000D01*
X223603Y278956D01*
X224006Y277983D01*
X224647Y277147D01*
X225483Y276506D01*
X226456Y276103D01*
X227500Y275965D01*
X228537Y276102D01*
X238445Y266194D01*
Y247569D01*
X237983Y247378D01*
X233931Y251431D01*
X233274Y251869D01*
X232500Y252023D01*
X230990D01*
X230353Y252853D01*
X229517Y253494D01*
X228544Y253897D01*
X227500Y254034D01*
X226456Y253897D01*
X225483Y253494D01*
X224647Y252853D01*
X224006Y252017D01*
X223603Y251044D01*
X223465Y250000D01*
X223603Y248956D01*
X224006Y247983D01*
X224647Y247147D01*
X225483Y246506D01*
X226456Y246103D01*
X227500Y245966D01*
X228544Y246103D01*
X229517Y246506D01*
X230353Y247147D01*
X230990Y247977D01*
X231662D01*
X235477Y244162D01*
Y228338D01*
X216069Y208931D01*
X215676Y208343D01*
X213547D01*
Y200437D01*
X221453D01*
Y208343D01*
X221453Y208343D01*
X221453D01*
X221634Y208773D01*
X224977Y212116D01*
X225477Y211909D01*
Y208343D01*
X223547D01*
Y200437D01*
X231453D01*
Y208343D01*
X229523D01*
Y211662D01*
X235015Y217154D01*
X235477Y216963D01*
Y208343D01*
X233547D01*
Y200437D01*
X241453D01*
Y208343D01*
X239523D01*
Y217464D01*
X244868Y222808D01*
X245306Y223465D01*
X245460Y224239D01*
Y281563D01*
X245306Y282337D01*
X244868Y282994D01*
X231446Y296415D01*
X230790Y296853D01*
X230016Y297007D01*
X222128D01*
X222049Y297023D01*
D02*
G37*
G36*
X290000D02*
X262500D01*
X261726Y296869D01*
X261069Y296431D01*
X258569Y293931D01*
X258546Y293896D01*
X258544Y293897D01*
X257500Y294035D01*
X256456Y293897D01*
X255483Y293494D01*
X254647Y292853D01*
X254006Y292017D01*
X253603Y291044D01*
X253466Y290000D01*
X253603Y288956D01*
X254006Y287983D01*
X254647Y287147D01*
X255483Y286506D01*
X256456Y286103D01*
X257500Y285965D01*
X258544Y286103D01*
X259517Y286506D01*
X260353Y287147D01*
X260994Y287983D01*
X261397Y288956D01*
X261535Y290000D01*
X261397Y291044D01*
X261396Y291046D01*
X261431Y291069D01*
X263338Y292977D01*
X284112D01*
X284359Y292477D01*
X284006Y292017D01*
X283603Y291044D01*
X283466Y290000D01*
X283602Y288963D01*
X266662Y272023D01*
X260989D01*
X260353Y272853D01*
X259517Y273494D01*
X258544Y273897D01*
X257500Y274035D01*
X256456Y273897D01*
X255483Y273494D01*
X254647Y272853D01*
X254006Y272017D01*
X253603Y271044D01*
X253466Y270000D01*
X253603Y268956D01*
X254006Y267983D01*
X254647Y267147D01*
X255483Y266506D01*
X256456Y266103D01*
X257500Y265966D01*
X258544Y266103D01*
X259517Y266506D01*
X260353Y267147D01*
X260989Y267977D01*
X267500D01*
X268274Y268131D01*
X268931Y268569D01*
X286463Y286102D01*
X287500Y285965D01*
X288544Y286103D01*
X289517Y286506D01*
X289977Y286859D01*
X290477Y286612D01*
Y283388D01*
X289977Y283141D01*
X289517Y283494D01*
X288544Y283897D01*
X287500Y284034D01*
X286456Y283897D01*
X285483Y283494D01*
X284647Y282853D01*
X284006Y282017D01*
X283603Y281044D01*
X283466Y280000D01*
X283603Y278956D01*
X284006Y277983D01*
X284647Y277147D01*
X285483Y276506D01*
X286456Y276103D01*
X287500Y275965D01*
X288537Y276102D01*
X295008Y269631D01*
Y247623D01*
X294508Y247574D01*
X294369Y248274D01*
X293931Y248931D01*
X291431Y251431D01*
X291163Y251609D01*
X290994Y252017D01*
X290353Y252853D01*
X289517Y253494D01*
X288544Y253897D01*
X287500Y254034D01*
X286456Y253897D01*
X285483Y253494D01*
X284647Y252853D01*
X284006Y252017D01*
X283603Y251044D01*
X283466Y250000D01*
X283603Y248956D01*
X284006Y247983D01*
X284647Y247147D01*
X285483Y246506D01*
X286456Y246103D01*
X287500Y245966D01*
X288544Y246103D01*
X289517Y246506D01*
X290096Y246950D01*
X290477Y246635D01*
Y243388D01*
X289977Y243141D01*
X289517Y243494D01*
X288544Y243897D01*
X287500Y244035D01*
X286456Y243897D01*
X285483Y243494D01*
X284647Y242853D01*
X284006Y242017D01*
X283603Y241044D01*
X283466Y240000D01*
X283603Y238956D01*
X284006Y237983D01*
X284647Y237147D01*
X285483Y236506D01*
X286456Y236103D01*
X287500Y235965D01*
X288544Y236103D01*
X289517Y236506D01*
X289977Y236859D01*
X290477Y236612D01*
Y233388D01*
X289977Y233141D01*
X289517Y233494D01*
X288544Y233897D01*
X287500Y234034D01*
X286456Y233897D01*
X285483Y233494D01*
X284647Y232853D01*
X284006Y232017D01*
X283603Y231044D01*
X283466Y230000D01*
X283603Y228956D01*
X284006Y227983D01*
X284647Y227147D01*
X285477Y226511D01*
Y225838D01*
X278569Y218931D01*
X278131Y218274D01*
X277977Y217500D01*
Y208343D01*
X276047D01*
Y200437D01*
X283953D01*
Y208343D01*
X282023D01*
Y216662D01*
X288931Y223569D01*
X289369Y224226D01*
X289523Y225000D01*
Y226511D01*
X289977Y226859D01*
X290477Y226612D01*
Y220838D01*
X288569Y218931D01*
X288131Y218274D01*
X287977Y217500D01*
Y208343D01*
X286047D01*
Y200437D01*
X293953D01*
Y208343D01*
X292023D01*
Y216662D01*
X293931Y218569D01*
X294369Y219226D01*
X294508Y219926D01*
X295008Y219877D01*
Y218770D01*
X295162Y217996D01*
X295601Y217340D01*
X297977Y214964D01*
Y208343D01*
X296047D01*
Y200437D01*
X303953D01*
Y208343D01*
X302023D01*
Y214462D01*
X302485Y214654D01*
X307977Y209162D01*
Y208343D01*
X306047D01*
Y200437D01*
X313953D01*
Y208343D01*
X312023D01*
Y210000D01*
X311869Y210774D01*
X311431Y211431D01*
X302023Y220838D01*
Y272500D01*
X301869Y273274D01*
X301431Y273931D01*
X294523Y280838D01*
Y292500D01*
X294369Y293274D01*
X293931Y293931D01*
X291431Y296431D01*
X290774Y296869D01*
X290000Y297023D01*
D02*
G37*
G36*
X130016Y297007D02*
X103094D01*
X102320Y296853D01*
X101664Y296415D01*
X98970Y293721D01*
X98544Y293897D01*
X97500Y294035D01*
X96456Y293897D01*
X95483Y293494D01*
X94647Y292853D01*
X94006Y292017D01*
X93603Y291044D01*
X93466Y290000D01*
X93603Y288956D01*
X94006Y287983D01*
X94647Y287147D01*
X95483Y286506D01*
X96456Y286103D01*
X97500Y285965D01*
X98544Y286103D01*
X99517Y286506D01*
X100353Y287147D01*
X100994Y287983D01*
X101397Y288956D01*
X101534Y290000D01*
X101469Y290498D01*
X103932Y292961D01*
X124100D01*
X124347Y292461D01*
X124006Y292017D01*
X123603Y291044D01*
X123466Y290000D01*
X123602Y288963D01*
X106662Y272023D01*
X100989D01*
X100353Y272853D01*
X99517Y273494D01*
X98544Y273897D01*
X97500Y274035D01*
X96456Y273897D01*
X95483Y273494D01*
X94647Y272853D01*
X94006Y272017D01*
X93603Y271044D01*
X93466Y270000D01*
X93603Y268956D01*
X94006Y267983D01*
X94647Y267147D01*
X95483Y266506D01*
X96456Y266103D01*
X97500Y265966D01*
X98544Y266103D01*
X99517Y266506D01*
X100353Y267147D01*
X100989Y267977D01*
X107500D01*
X108274Y268131D01*
X108931Y268569D01*
X126463Y286102D01*
X127500Y285965D01*
X128544Y286103D01*
X129517Y286506D01*
X129977Y286859D01*
X130477Y286612D01*
Y283388D01*
X129977Y283141D01*
X129517Y283494D01*
X128544Y283897D01*
X127500Y284034D01*
X126456Y283897D01*
X125483Y283494D01*
X124647Y282853D01*
X124006Y282017D01*
X123603Y281044D01*
X123466Y280000D01*
X123603Y278956D01*
X124006Y277983D01*
X124647Y277147D01*
X125483Y276506D01*
X126456Y276103D01*
X127500Y275965D01*
X127998Y276031D01*
X135008Y269020D01*
Y247013D01*
X134508Y246964D01*
X134369Y247664D01*
X133931Y248320D01*
X131431Y250820D01*
X131426Y250823D01*
X131397Y251044D01*
X130994Y252017D01*
X130353Y252853D01*
X129517Y253494D01*
X128544Y253897D01*
X127500Y254034D01*
X126456Y253897D01*
X125483Y253494D01*
X124647Y252853D01*
X124006Y252017D01*
X123603Y251044D01*
X123466Y250000D01*
X123603Y248956D01*
X124006Y247983D01*
X124647Y247147D01*
X125483Y246506D01*
X126456Y246103D01*
X127500Y245966D01*
X128544Y246103D01*
X129517Y246506D01*
X129803Y246725D01*
X130477Y246052D01*
Y243388D01*
X129977Y243141D01*
X129517Y243494D01*
X128544Y243897D01*
X127500Y244035D01*
X126456Y243897D01*
X125483Y243494D01*
X124647Y242853D01*
X124006Y242017D01*
X123603Y241044D01*
X123466Y240000D01*
X123603Y238956D01*
X124006Y237983D01*
X124647Y237147D01*
X125483Y236506D01*
X126456Y236103D01*
X127500Y235965D01*
X128544Y236103D01*
X129517Y236506D01*
X129977Y236859D01*
X130477Y236612D01*
Y233388D01*
X129977Y233141D01*
X129517Y233494D01*
X128544Y233897D01*
X127500Y234034D01*
X126456Y233897D01*
X125483Y233494D01*
X124647Y232853D01*
X124006Y232017D01*
X123603Y231044D01*
X123466Y230000D01*
X123603Y228956D01*
X124006Y227983D01*
X124647Y227147D01*
X125477Y226511D01*
Y225228D01*
X118569Y218320D01*
X118131Y217664D01*
X117977Y216890D01*
Y208343D01*
X116047D01*
Y200437D01*
X123953D01*
Y208343D01*
X122023D01*
Y216052D01*
X128931Y222959D01*
X129369Y223616D01*
X129523Y224390D01*
Y226511D01*
X129977Y226859D01*
X130477Y226612D01*
Y220228D01*
X128569Y218320D01*
X128131Y217664D01*
X127977Y216890D01*
Y208343D01*
X126047D01*
Y200437D01*
X133953D01*
Y208343D01*
X132023D01*
Y216052D01*
X133931Y217959D01*
X134369Y218616D01*
X134508Y219316D01*
X135008Y219266D01*
Y218160D01*
X135162Y217386D01*
X135601Y216730D01*
X137977Y214354D01*
Y208343D01*
X136047D01*
Y200437D01*
X143953D01*
Y208343D01*
X142023D01*
Y213852D01*
X142485Y214044D01*
X147686Y208842D01*
X147479Y208343D01*
X146047D01*
Y200437D01*
X153953D01*
Y208343D01*
X152023D01*
Y209390D01*
X151869Y210164D01*
X151431Y210820D01*
X142023Y220228D01*
Y271890D01*
X141869Y272664D01*
X141431Y273320D01*
X134523Y280228D01*
Y292500D01*
X134369Y293274D01*
X133931Y293931D01*
X131446Y296415D01*
X130790Y296853D01*
X130016Y297007D01*
D02*
G37*
G36*
X61439Y297023D02*
X43110D01*
X42336Y296869D01*
X41680Y296431D01*
X38970Y293721D01*
X38544Y293897D01*
X37500Y294035D01*
X36456Y293897D01*
X35483Y293494D01*
X34647Y292853D01*
X34006Y292017D01*
X33603Y291044D01*
X33465Y290000D01*
X33603Y288956D01*
X34006Y287983D01*
X34647Y287147D01*
X35483Y286506D01*
X36456Y286103D01*
X37500Y285965D01*
X38544Y286103D01*
X39517Y286506D01*
X40353Y287147D01*
X40994Y287983D01*
X41397Y288956D01*
X41535Y290000D01*
X41469Y290498D01*
X43948Y292977D01*
X61375D01*
X61454Y292961D01*
X64100D01*
X64347Y292461D01*
X64006Y292017D01*
X63603Y291044D01*
X63465Y290000D01*
X63602Y288963D01*
X46662Y272023D01*
X40990D01*
X40353Y272853D01*
X39517Y273494D01*
X38544Y273897D01*
X37500Y274035D01*
X36456Y273897D01*
X35483Y273494D01*
X34647Y272853D01*
X34006Y272017D01*
X33603Y271044D01*
X33465Y270000D01*
X33603Y268956D01*
X34006Y267983D01*
X34647Y267147D01*
X35483Y266506D01*
X36456Y266103D01*
X37500Y265966D01*
X38544Y266103D01*
X39517Y266506D01*
X40353Y267147D01*
X40990Y267977D01*
X47500D01*
X48274Y268131D01*
X48931Y268569D01*
X66463Y286102D01*
X67500Y285965D01*
X68544Y286103D01*
X69517Y286506D01*
X70353Y287147D01*
X70994Y287983D01*
X71397Y288956D01*
X71523Y289909D01*
X71967Y290172D01*
X81414Y280725D01*
Y268990D01*
X80952Y268799D01*
X71221Y278530D01*
X71397Y278956D01*
X71535Y280000D01*
X71397Y281044D01*
X70994Y282017D01*
X70353Y282853D01*
X69517Y283494D01*
X68544Y283897D01*
X67500Y284034D01*
X66456Y283897D01*
X65483Y283494D01*
X64647Y282853D01*
X64006Y282017D01*
X63603Y281044D01*
X63465Y280000D01*
X63603Y278956D01*
X64006Y277983D01*
X64647Y277147D01*
X65483Y276506D01*
X66456Y276103D01*
X67500Y275965D01*
X67998Y276031D01*
X78445Y265583D01*
Y246959D01*
X77983Y246767D01*
X73931Y250820D01*
X73274Y251259D01*
X72500Y251413D01*
X71244D01*
X70994Y252017D01*
X70353Y252853D01*
X69517Y253494D01*
X68544Y253897D01*
X67500Y254034D01*
X66456Y253897D01*
X65483Y253494D01*
X64647Y252853D01*
X64006Y252017D01*
X63603Y251044D01*
X63465Y250000D01*
X63603Y248956D01*
X64006Y247983D01*
X64647Y247147D01*
X65483Y246506D01*
X66456Y246103D01*
X67500Y245966D01*
X68544Y246103D01*
X69517Y246506D01*
X70353Y247147D01*
X70521Y247367D01*
X71662D01*
X75477Y243552D01*
Y227728D01*
X56092Y208343D01*
X53547D01*
Y200437D01*
X61453D01*
Y207981D01*
X64977Y211506D01*
X65477Y211298D01*
Y208343D01*
X63547D01*
Y200437D01*
X71453D01*
Y208343D01*
X69523D01*
Y211052D01*
X75015Y216544D01*
X75477Y216352D01*
Y208343D01*
X73547D01*
Y200437D01*
X81453D01*
Y208343D01*
X79523D01*
Y216854D01*
X84868Y222198D01*
X85306Y222854D01*
X85460Y223629D01*
Y281563D01*
X85306Y282337D01*
X84868Y282994D01*
X71446Y296415D01*
X70790Y296853D01*
X70016Y297007D01*
X61518D01*
X61439Y297023D01*
D02*
G37*
G36*
X165964Y294500D02*
X163000D01*
Y291536D01*
X163414Y291590D01*
X164265Y291943D01*
X164996Y292504D01*
X165557Y293235D01*
X165910Y294086D01*
X165964Y294500D01*
D02*
G37*
G36*
X162000D02*
X159036D01*
X159090Y294086D01*
X159443Y293235D01*
X160004Y292504D01*
X160735Y291943D01*
X161586Y291590D01*
X162000Y291536D01*
Y294500D01*
D02*
G37*
G36*
X167453Y284842D02*
X164000D01*
Y281390D01*
X167453D01*
Y284842D01*
D02*
G37*
G36*
X163000D02*
X159547D01*
Y281390D01*
X163000D01*
Y284842D01*
D02*
G37*
G36*
X310500Y280964D02*
Y278000D01*
X313464D01*
X313410Y278414D01*
X313057Y279265D01*
X312496Y279996D01*
X311765Y280557D01*
X310914Y280910D01*
X310500Y280964D01*
D02*
G37*
G36*
X309500D02*
X309086Y280910D01*
X308235Y280557D01*
X307504Y279996D01*
X306943Y279265D01*
X306590Y278414D01*
X306536Y278000D01*
X309500D01*
Y280964D01*
D02*
G37*
G36*
X167453Y280390D02*
X164000D01*
Y276937D01*
X167453D01*
Y280390D01*
D02*
G37*
G36*
X163000D02*
X159547D01*
Y276937D01*
X163000D01*
Y280390D01*
D02*
G37*
G36*
X257500Y284034D02*
X256456Y283897D01*
X255483Y283494D01*
X254647Y282853D01*
X254011Y282023D01*
X252500D01*
X251726Y281869D01*
X251069Y281431D01*
X248101Y278462D01*
X247662Y277806D01*
X247508Y277031D01*
Y208343D01*
X246047D01*
Y200437D01*
X253953D01*
Y208343D01*
X251555D01*
Y219931D01*
X252017Y220122D01*
X257977Y214162D01*
Y208343D01*
X256047D01*
Y200437D01*
X263953D01*
Y208343D01*
X262023D01*
Y215000D01*
X261869Y215774D01*
X261431Y216431D01*
X254523Y223338D01*
Y226612D01*
X255023Y226859D01*
X255483Y226506D01*
X256456Y226103D01*
X257500Y225965D01*
X258544Y226103D01*
X259517Y226506D01*
X260353Y227147D01*
X260989Y227977D01*
X261662D01*
X267977Y221662D01*
Y208343D01*
X266047D01*
Y200437D01*
X273953D01*
Y208343D01*
X272023D01*
Y222500D01*
X271869Y223274D01*
X271431Y223931D01*
X263931Y231431D01*
X263274Y231869D01*
X262500Y232023D01*
X260989D01*
X260353Y232853D01*
X259517Y233494D01*
X258544Y233897D01*
X257500Y234034D01*
X256456Y233897D01*
X255483Y233494D01*
X255023Y233141D01*
X254523Y233388D01*
Y236612D01*
X255023Y236859D01*
X255483Y236506D01*
X256456Y236103D01*
X257500Y235965D01*
X258544Y236103D01*
X259517Y236506D01*
X260353Y237147D01*
X260994Y237983D01*
X261397Y238956D01*
X261535Y240000D01*
X261397Y241044D01*
X260994Y242017D01*
X260353Y242853D01*
X259517Y243494D01*
X258544Y243897D01*
X257500Y244035D01*
X256456Y243897D01*
X255483Y243494D01*
X255023Y243141D01*
X254523Y243388D01*
Y254162D01*
X258338Y257977D01*
X284011D01*
X284647Y257147D01*
X285483Y256506D01*
X286456Y256103D01*
X287500Y255965D01*
X288544Y256103D01*
X289517Y256506D01*
X290353Y257147D01*
X290994Y257983D01*
X291397Y258956D01*
X291534Y260000D01*
X291397Y261044D01*
X290994Y262017D01*
X290353Y262853D01*
X289517Y263494D01*
X288544Y263897D01*
X287500Y264035D01*
X286456Y263897D01*
X285483Y263494D01*
X284647Y262853D01*
X284011Y262023D01*
X257500D01*
X256726Y261869D01*
X256069Y261431D01*
X252017Y257378D01*
X251555Y257569D01*
Y276193D01*
X253338Y277977D01*
X254011D01*
X254647Y277147D01*
X255483Y276506D01*
X256456Y276103D01*
X257500Y275965D01*
X258544Y276103D01*
X259517Y276506D01*
X260353Y277147D01*
X260994Y277983D01*
X261397Y278956D01*
X261535Y280000D01*
X261397Y281044D01*
X260994Y282017D01*
X260353Y282853D01*
X259517Y283494D01*
X258544Y283897D01*
X257500Y284034D01*
D02*
G37*
G36*
X197500D02*
X196456Y283897D01*
X195483Y283494D01*
X194647Y282853D01*
X194006Y282017D01*
X193603Y281044D01*
X193465Y280000D01*
X193602Y278963D01*
X186069Y271431D01*
X185631Y270774D01*
X185477Y270000D01*
Y226005D01*
X176069Y216598D01*
X175631Y215942D01*
X175477Y215167D01*
Y208343D01*
X173547D01*
Y200437D01*
X181453D01*
Y208343D01*
X179523D01*
Y214329D01*
X188931Y223737D01*
X189369Y224393D01*
X189523Y225167D01*
Y269162D01*
X196463Y276102D01*
X197500Y275965D01*
X198544Y276103D01*
X199517Y276506D01*
X200353Y277147D01*
X200994Y277983D01*
X201397Y278956D01*
X201535Y280000D01*
X201397Y281044D01*
X200994Y282017D01*
X200353Y282853D01*
X199517Y283494D01*
X198544Y283897D01*
X197500Y284034D01*
D02*
G37*
G36*
X97500D02*
X96456Y283897D01*
X95483Y283494D01*
X94647Y282853D01*
X94006Y282017D01*
X93756Y281413D01*
X92500D01*
X91726Y281259D01*
X91069Y280820D01*
X88101Y277852D01*
X87662Y277196D01*
X87508Y276421D01*
Y208343D01*
X86047D01*
Y200437D01*
X93953D01*
Y208343D01*
X91555D01*
Y219321D01*
X92017Y219512D01*
X97977Y213552D01*
Y208343D01*
X96047D01*
Y200437D01*
X103953D01*
Y208343D01*
X102023D01*
Y214390D01*
X101869Y215164D01*
X101431Y215820D01*
X94523Y222728D01*
Y226612D01*
X95023Y226859D01*
X95483Y226506D01*
X96456Y226103D01*
X97500Y225965D01*
X98544Y226103D01*
X99517Y226506D01*
X100353Y227147D01*
X100521Y227367D01*
X101662D01*
X107977Y221052D01*
Y208343D01*
X106047D01*
Y200437D01*
X113953D01*
Y208343D01*
X112023D01*
Y221890D01*
X111869Y222664D01*
X111431Y223320D01*
X103931Y230820D01*
X103274Y231259D01*
X102500Y231413D01*
X101244D01*
X100994Y232017D01*
X100353Y232853D01*
X99517Y233494D01*
X98544Y233897D01*
X97500Y234034D01*
X96456Y233897D01*
X95483Y233494D01*
X95023Y233141D01*
X94523Y233388D01*
Y236612D01*
X95023Y236859D01*
X95483Y236506D01*
X96456Y236103D01*
X97500Y235965D01*
X98544Y236103D01*
X99517Y236506D01*
X100353Y237147D01*
X100994Y237983D01*
X101397Y238956D01*
X101534Y240000D01*
X101397Y241044D01*
X100994Y242017D01*
X100353Y242853D01*
X99517Y243494D01*
X98544Y243897D01*
X97500Y244035D01*
X96456Y243897D01*
X95483Y243494D01*
X95023Y243141D01*
X94523Y243388D01*
Y253552D01*
X98338Y257367D01*
X124479D01*
X124647Y257147D01*
X125483Y256506D01*
X126456Y256103D01*
X127500Y255965D01*
X128544Y256103D01*
X129517Y256506D01*
X130353Y257147D01*
X130994Y257983D01*
X131397Y258956D01*
X131535Y260000D01*
X131397Y261044D01*
X130994Y262017D01*
X130353Y262853D01*
X129517Y263494D01*
X128544Y263897D01*
X127500Y264035D01*
X126456Y263897D01*
X125483Y263494D01*
X124647Y262853D01*
X124006Y262017D01*
X123756Y261413D01*
X97500D01*
X96726Y261259D01*
X96069Y260820D01*
X92017Y256767D01*
X91555Y256959D01*
Y275583D01*
X93338Y277367D01*
X94479D01*
X94647Y277147D01*
X95483Y276506D01*
X96456Y276103D01*
X97500Y275965D01*
X98544Y276103D01*
X99517Y276506D01*
X100353Y277147D01*
X100994Y277983D01*
X101397Y278956D01*
X101534Y280000D01*
X101397Y281044D01*
X100994Y282017D01*
X100353Y282853D01*
X99517Y283494D01*
X98544Y283897D01*
X97500Y284034D01*
D02*
G37*
G36*
X37500D02*
X36456Y283897D01*
X35483Y283494D01*
X34647Y282853D01*
X34006Y282017D01*
X33603Y281044D01*
X33465Y280000D01*
X33603Y278956D01*
X33779Y278530D01*
X26069Y270820D01*
X25631Y270164D01*
X25477Y269390D01*
Y225395D01*
X16069Y215988D01*
X15631Y215331D01*
X15477Y214557D01*
Y208343D01*
X13547D01*
Y200437D01*
X21453D01*
Y208343D01*
X19523D01*
Y213719D01*
X28931Y223127D01*
X29369Y223783D01*
X29523Y224557D01*
Y268552D01*
X37002Y276031D01*
X37500Y275965D01*
X38544Y276103D01*
X39517Y276506D01*
X40353Y277147D01*
X40994Y277983D01*
X41397Y278956D01*
X41535Y280000D01*
X41397Y281044D01*
X40994Y282017D01*
X40353Y282853D01*
X39517Y283494D01*
X38544Y283897D01*
X37500Y284034D01*
D02*
G37*
G36*
X13000Y278464D02*
Y275500D01*
X15964D01*
X15910Y275914D01*
X15557Y276765D01*
X14996Y277496D01*
X14265Y278057D01*
X13414Y278410D01*
X13000Y278464D01*
D02*
G37*
G36*
X12000D02*
X11586Y278410D01*
X10735Y278057D01*
X10004Y277496D01*
X9443Y276765D01*
X9090Y275914D01*
X9036Y275500D01*
X12000D01*
Y278464D01*
D02*
G37*
G36*
X313464Y277000D02*
X310500D01*
Y274036D01*
X310914Y274090D01*
X311765Y274443D01*
X312496Y275004D01*
X313057Y275735D01*
X313410Y276586D01*
X313464Y277000D01*
D02*
G37*
G36*
X309500D02*
X306536D01*
X306590Y276586D01*
X306943Y275735D01*
X307504Y275004D01*
X308235Y274443D01*
X309086Y274090D01*
X309500Y274036D01*
Y277000D01*
D02*
G37*
G36*
X15964Y274500D02*
X13000D01*
Y271536D01*
X13414Y271590D01*
X14265Y271943D01*
X14996Y272504D01*
X15557Y273235D01*
X15910Y274086D01*
X15964Y274500D01*
D02*
G37*
G36*
X12000D02*
X9036D01*
X9090Y274086D01*
X9443Y273235D01*
X10004Y272504D01*
X10735Y271943D01*
X11586Y271590D01*
X12000Y271536D01*
Y274500D01*
D02*
G37*
G36*
X227500Y264035D02*
X226456Y263897D01*
X225483Y263494D01*
X224647Y262853D01*
X224010Y262023D01*
X210000D01*
X209226Y261869D01*
X208569Y261431D01*
X191069Y243931D01*
X190631Y243274D01*
X190477Y242500D01*
Y223505D01*
X186069Y219098D01*
X185631Y218442D01*
X185477Y217667D01*
Y208343D01*
X183547D01*
Y200437D01*
X191453D01*
Y208343D01*
X189523D01*
Y216829D01*
X193931Y221237D01*
X194369Y221893D01*
X194523Y222667D01*
Y226612D01*
X195023Y226859D01*
X195477Y226511D01*
Y208343D01*
X193547D01*
Y200437D01*
X201453D01*
Y208343D01*
X199523D01*
Y226511D01*
X200353Y227147D01*
X200994Y227983D01*
X201397Y228956D01*
X201535Y230000D01*
X201397Y231044D01*
X200994Y232017D01*
X200353Y232853D01*
X199517Y233494D01*
X198544Y233897D01*
X197500Y234034D01*
X196456Y233897D01*
X195483Y233494D01*
X195023Y233141D01*
X194523Y233388D01*
Y236612D01*
X195023Y236859D01*
X195483Y236506D01*
X196456Y236103D01*
X197500Y235965D01*
X198544Y236103D01*
X199517Y236506D01*
X200353Y237147D01*
X200994Y237983D01*
X201397Y238956D01*
X201535Y240000D01*
X201397Y241044D01*
X200994Y242017D01*
X200353Y242853D01*
X199517Y243494D01*
X198544Y243897D01*
X197591Y244023D01*
X197328Y244467D01*
X210838Y257977D01*
X224010D01*
X224647Y257147D01*
X225483Y256506D01*
X226456Y256103D01*
X227500Y255965D01*
X228544Y256103D01*
X229517Y256506D01*
X230353Y257147D01*
X230994Y257983D01*
X231397Y258956D01*
X231535Y260000D01*
X231397Y261044D01*
X230994Y262017D01*
X230353Y262853D01*
X229517Y263494D01*
X228544Y263897D01*
X227500Y264035D01*
D02*
G37*
G36*
X67500D02*
X66456Y263897D01*
X65483Y263494D01*
X64647Y262853D01*
X64006Y262017D01*
X63756Y261413D01*
X46890D01*
X46115Y261259D01*
X45459Y260820D01*
X31069Y246431D01*
X30631Y245774D01*
X30477Y245000D01*
Y222895D01*
X26069Y218488D01*
X25631Y217831D01*
X25477Y217057D01*
Y208343D01*
X23547D01*
Y200437D01*
X31453D01*
Y208343D01*
X29523D01*
Y216219D01*
X33931Y220626D01*
X34369Y221283D01*
X34523Y222057D01*
Y226612D01*
X35023Y226859D01*
X35477Y226511D01*
Y208343D01*
X33547D01*
Y200437D01*
X41453D01*
Y208343D01*
X39523D01*
Y226511D01*
X40353Y227147D01*
X40994Y227983D01*
X41397Y228956D01*
X41535Y230000D01*
X41397Y231044D01*
X40994Y232017D01*
X40353Y232853D01*
X39517Y233494D01*
X38544Y233897D01*
X37500Y234034D01*
X36456Y233897D01*
X35483Y233494D01*
X35023Y233141D01*
X34523Y233388D01*
Y236612D01*
X35023Y236859D01*
X35483Y236506D01*
X36456Y236103D01*
X37500Y235965D01*
X38544Y236103D01*
X39517Y236506D01*
X40353Y237147D01*
X40994Y237983D01*
X41397Y238956D01*
X41535Y240000D01*
X41397Y241044D01*
X40994Y242017D01*
X40353Y242853D01*
X39517Y243494D01*
X38544Y243897D01*
X37500Y244035D01*
X36456Y243897D01*
X35483Y243494D01*
X35023Y243141D01*
X34523Y243388D01*
Y244162D01*
X47728Y257367D01*
X64479D01*
X64647Y257147D01*
X65483Y256506D01*
X66456Y256103D01*
X67500Y255965D01*
X68544Y256103D01*
X69517Y256506D01*
X70353Y257147D01*
X70994Y257983D01*
X71397Y258956D01*
X71535Y260000D01*
X71397Y261044D01*
X70994Y262017D01*
X70353Y262853D01*
X69517Y263494D01*
X68544Y263897D01*
X67500Y264035D01*
D02*
G37*
G36*
X167453Y271063D02*
X159547D01*
Y263158D01*
X161477D01*
Y254842D01*
X159547D01*
Y246937D01*
X167453D01*
Y254842D01*
X165523D01*
Y263158D01*
X167453D01*
Y271063D01*
D02*
G37*
G36*
X227500Y244035D02*
X226456Y243897D01*
X225483Y243494D01*
X224647Y242853D01*
X224006Y242017D01*
X223603Y241044D01*
X223465Y240000D01*
X223603Y238956D01*
X224006Y237983D01*
X224647Y237147D01*
X225483Y236506D01*
X226456Y236103D01*
X227500Y235965D01*
X228544Y236103D01*
X229517Y236506D01*
X230353Y237147D01*
X230994Y237983D01*
X231397Y238956D01*
X231535Y240000D01*
X231397Y241044D01*
X230994Y242017D01*
X230353Y242853D01*
X229517Y243494D01*
X228544Y243897D01*
X227500Y244035D01*
D02*
G37*
G36*
X67500D02*
X66456Y243897D01*
X65483Y243494D01*
X64647Y242853D01*
X64006Y242017D01*
X63603Y241044D01*
X63465Y240000D01*
X63603Y238956D01*
X64006Y237983D01*
X64647Y237147D01*
X65483Y236506D01*
X66456Y236103D01*
X67500Y235965D01*
X68544Y236103D01*
X69517Y236506D01*
X70353Y237147D01*
X70994Y237983D01*
X71397Y238956D01*
X71535Y240000D01*
X71397Y241044D01*
X70994Y242017D01*
X70353Y242853D01*
X69517Y243494D01*
X68544Y243897D01*
X67500Y244035D01*
D02*
G37*
G36*
X227500Y234034D02*
X226456Y233897D01*
X225483Y233494D01*
X224647Y232853D01*
X224010Y232023D01*
X212500D01*
X211726Y231869D01*
X211069Y231431D01*
X206069Y226431D01*
X205631Y225774D01*
X205477Y225000D01*
Y208343D01*
X203547D01*
Y200437D01*
X211453D01*
Y208343D01*
X209523D01*
Y224162D01*
X213338Y227977D01*
X224010D01*
X224647Y227147D01*
X225483Y226506D01*
X226456Y226103D01*
X227500Y225965D01*
X228544Y226103D01*
X229517Y226506D01*
X230353Y227147D01*
X230994Y227983D01*
X231397Y228956D01*
X231535Y230000D01*
X231397Y231044D01*
X230994Y232017D01*
X230353Y232853D01*
X229517Y233494D01*
X228544Y233897D01*
X227500Y234034D01*
D02*
G37*
G36*
X67500D02*
X66456Y233897D01*
X65483Y233494D01*
X64647Y232853D01*
X64006Y232017D01*
X63756Y231413D01*
X52500D01*
X51726Y231259D01*
X51069Y230820D01*
X46069Y225820D01*
X45631Y225164D01*
X45477Y224390D01*
Y208343D01*
X43547D01*
Y200437D01*
X51453D01*
Y208343D01*
X49523D01*
Y223552D01*
X53338Y227367D01*
X64479D01*
X64647Y227147D01*
X65483Y226506D01*
X66456Y226103D01*
X67500Y225965D01*
X68544Y226103D01*
X69517Y226506D01*
X70353Y227147D01*
X70994Y227983D01*
X71397Y228956D01*
X71535Y230000D01*
X71397Y231044D01*
X70994Y232017D01*
X70353Y232853D01*
X69517Y233494D01*
X68544Y233897D01*
X67500Y234034D01*
D02*
G37*
G36*
X167453Y241063D02*
X159547D01*
Y233157D01*
X161477D01*
Y208842D01*
X159547D01*
Y200937D01*
X167453D01*
Y208842D01*
X165523D01*
Y233157D01*
X167453D01*
Y241063D01*
D02*
G37*
G36*
X83000Y173464D02*
Y170500D01*
X85964D01*
X85910Y170914D01*
X85557Y171765D01*
X84996Y172496D01*
X84265Y173057D01*
X83414Y173410D01*
X83000Y173464D01*
D02*
G37*
G36*
X82000D02*
X81586Y173410D01*
X80735Y173057D01*
X80004Y172496D01*
X79443Y171765D01*
X79090Y170914D01*
X79036Y170500D01*
X82000D01*
Y173464D01*
D02*
G37*
G36*
X153000Y171421D02*
Y168000D01*
X156421D01*
X156351Y168532D01*
X155953Y169493D01*
X155319Y170319D01*
X154493Y170953D01*
X153532Y171351D01*
X153000Y171421D01*
D02*
G37*
G36*
X243000Y170964D02*
Y168000D01*
X245964D01*
X245910Y168414D01*
X245557Y169265D01*
X244996Y169996D01*
X244265Y170557D01*
X243414Y170910D01*
X243000Y170964D01*
D02*
G37*
G36*
X242000D02*
X241586Y170910D01*
X240735Y170557D01*
X240004Y169996D01*
X239443Y169265D01*
X239090Y168414D01*
X239036Y168000D01*
X242000D01*
Y170964D01*
D02*
G37*
G36*
X152000Y171421D02*
X151468Y171351D01*
X150507Y170953D01*
X149681Y170319D01*
X149047Y169493D01*
X148649Y168532D01*
X148579Y168000D01*
X152000D01*
Y171421D01*
D02*
G37*
G36*
X85964Y169500D02*
X83000D01*
Y166536D01*
X83414Y166590D01*
X84265Y166943D01*
X84996Y167504D01*
X85557Y168235D01*
X85910Y169086D01*
X85964Y169500D01*
D02*
G37*
G36*
X82000D02*
X79036D01*
X79090Y169086D01*
X79443Y168235D01*
X80004Y167504D01*
X80735Y166943D01*
X81586Y166590D01*
X82000Y166536D01*
Y169500D01*
D02*
G37*
G36*
X245964Y167000D02*
X243000D01*
Y164036D01*
X243414Y164090D01*
X244265Y164443D01*
X244996Y165004D01*
X245557Y165735D01*
X245910Y166586D01*
X245964Y167000D01*
D02*
G37*
G36*
X242000D02*
X239036D01*
X239090Y166586D01*
X239443Y165735D01*
X240004Y165004D01*
X240735Y164443D01*
X241586Y164090D01*
X242000Y164036D01*
Y167000D01*
D02*
G37*
G36*
X156421D02*
X153000D01*
Y163579D01*
X153532Y163649D01*
X154493Y164047D01*
X155319Y164681D01*
X155953Y165507D01*
X156351Y166468D01*
X156421Y167000D01*
D02*
G37*
G36*
X152000D02*
X148579D01*
X148649Y166468D01*
X149047Y165507D01*
X149681Y164681D01*
X150507Y164047D01*
X151468Y163649D01*
X152000Y163579D01*
Y167000D01*
D02*
G37*
G36*
X162500Y171487D02*
X161468Y171351D01*
X160507Y170953D01*
X159681Y170319D01*
X159047Y169493D01*
X158649Y168532D01*
X158513Y167500D01*
X158649Y166468D01*
X159047Y165507D01*
X159681Y164681D01*
X160507Y164047D01*
X161468Y163649D01*
X162500Y163513D01*
X163532Y163649D01*
X164493Y164047D01*
X165319Y164681D01*
X165953Y165507D01*
X166351Y166468D01*
X166487Y167500D01*
X166351Y168532D01*
X165953Y169493D01*
X165319Y170319D01*
X164493Y170953D01*
X163532Y171351D01*
X162500Y171487D01*
D02*
G37*
G36*
X167453Y195063D02*
X159547D01*
Y187157D01*
X162481D01*
X170477Y179162D01*
Y171453D01*
X168547D01*
Y163547D01*
X176453D01*
Y165477D01*
X185319D01*
Y162023D01*
X137181D01*
Y171820D01*
X138338Y172977D01*
X147500D01*
X148274Y173131D01*
X148931Y173569D01*
X151431Y176069D01*
X151869Y176726D01*
X152023Y177500D01*
Y186658D01*
X153953D01*
Y194563D01*
X146047D01*
Y186658D01*
X147977D01*
Y178338D01*
X146662Y177023D01*
X137500D01*
X136726Y176869D01*
X136069Y176431D01*
X133569Y173931D01*
X133131Y173274D01*
X132977Y172500D01*
Y171894D01*
X132819D01*
Y162023D01*
X132181D01*
Y171894D01*
X132023D01*
Y176662D01*
X133338Y177977D01*
X137500D01*
X138274Y178131D01*
X138931Y178569D01*
X141431Y181069D01*
X141869Y181726D01*
X142023Y182500D01*
Y186658D01*
X143953D01*
Y194563D01*
X136047D01*
Y186658D01*
X137977D01*
Y183338D01*
X136662Y182023D01*
X132500D01*
X131726Y181869D01*
X131069Y181431D01*
X128569Y178931D01*
X128131Y178274D01*
X127977Y177500D01*
Y171894D01*
X127819D01*
Y162023D01*
X127181D01*
Y171894D01*
X127023D01*
Y179162D01*
X131431Y183569D01*
X131869Y184226D01*
X132023Y185000D01*
Y186658D01*
X133953D01*
Y194563D01*
X126047D01*
Y186658D01*
X127977D01*
Y185838D01*
X123569Y181431D01*
X123131Y180774D01*
X122977Y180000D01*
Y171894D01*
X122819D01*
Y162023D01*
X122181D01*
Y171894D01*
X122023D01*
Y186658D01*
X123953D01*
Y194563D01*
X116047D01*
Y186658D01*
X117977D01*
Y171894D01*
X117819D01*
Y162023D01*
X117181D01*
Y171894D01*
X117023D01*
Y180000D01*
X116869Y180774D01*
X116431Y181431D01*
X112023Y185838D01*
Y186658D01*
X113953D01*
Y194563D01*
X106047D01*
Y186658D01*
X107977D01*
Y185000D01*
X108131Y184226D01*
X108569Y183569D01*
X112977Y179162D01*
Y171894D01*
X112819D01*
Y162023D01*
X112181D01*
Y171894D01*
X112023D01*
Y177500D01*
X111869Y178274D01*
X111431Y178931D01*
X108931Y181431D01*
X108274Y181869D01*
X107500Y182023D01*
X103338D01*
X102023Y183338D01*
Y186658D01*
X103953D01*
Y194563D01*
X96047D01*
Y186658D01*
X97977D01*
Y182500D01*
X98131Y181726D01*
X98569Y181069D01*
X101069Y178569D01*
X101726Y178131D01*
X102500Y177977D01*
X106662D01*
X107977Y176662D01*
Y171894D01*
X107819D01*
Y162023D01*
X107181D01*
Y171894D01*
X107023D01*
Y172500D01*
X106869Y173274D01*
X106431Y173931D01*
X103931Y176431D01*
X103274Y176869D01*
X102500Y177023D01*
X93338D01*
X92023Y178338D01*
Y186658D01*
X93953D01*
Y194563D01*
X86047D01*
Y186658D01*
X87977D01*
Y177500D01*
X88131Y176726D01*
X88569Y176069D01*
X91069Y173569D01*
X91726Y173131D01*
X92500Y172977D01*
X101662D01*
X102268Y172371D01*
X102287Y172343D01*
X102038Y171894D01*
X101740Y171894D01*
X97819D01*
Y162023D01*
X64681D01*
Y171820D01*
X65838Y172977D01*
X75000D01*
X75774Y173131D01*
X76431Y173569D01*
X78931Y176069D01*
X79369Y176726D01*
X79523Y177500D01*
Y186658D01*
X81453D01*
Y194563D01*
X73547D01*
Y186658D01*
X75477D01*
Y178338D01*
X74162Y177023D01*
X65000D01*
X64226Y176869D01*
X63569Y176431D01*
X61069Y173931D01*
X60631Y173274D01*
X60477Y172500D01*
Y171894D01*
X60319D01*
Y162023D01*
X59681D01*
Y171894D01*
X59523D01*
Y176662D01*
X60838Y177977D01*
X65000D01*
X65774Y178131D01*
X66431Y178569D01*
X68931Y181069D01*
X69369Y181726D01*
X69523Y182500D01*
Y186658D01*
X71453D01*
Y194563D01*
X63547D01*
Y186658D01*
X65477D01*
Y183338D01*
X64162Y182023D01*
X60000D01*
X59226Y181869D01*
X58569Y181431D01*
X56069Y178931D01*
X55631Y178274D01*
X55477Y177500D01*
Y171894D01*
X55319D01*
Y162023D01*
X54681D01*
Y171894D01*
X54523D01*
Y179162D01*
X58931Y183569D01*
X59369Y184226D01*
X59523Y185000D01*
Y186658D01*
X61453D01*
Y194563D01*
X53547D01*
Y186658D01*
X55477D01*
Y185838D01*
X51069Y181431D01*
X50631Y180774D01*
X50477Y180000D01*
Y171894D01*
X50319D01*
Y162023D01*
X49681D01*
Y171894D01*
X49523D01*
Y186658D01*
X51453D01*
Y194563D01*
X43547D01*
Y186658D01*
X45477D01*
Y171894D01*
X45319D01*
Y162023D01*
X44681D01*
Y171894D01*
X44523D01*
Y180000D01*
X44369Y180774D01*
X43931Y181431D01*
X39523Y185838D01*
Y186658D01*
X41453D01*
Y194563D01*
X33547D01*
Y186658D01*
X35477D01*
Y185000D01*
X35631Y184226D01*
X36069Y183569D01*
X40477Y179162D01*
Y171894D01*
X40319D01*
Y162023D01*
X39681D01*
Y171894D01*
X39523D01*
Y177500D01*
X39369Y178274D01*
X38931Y178931D01*
X36431Y181431D01*
X35774Y181869D01*
X35000Y182023D01*
X30838D01*
X29523Y183338D01*
Y186658D01*
X31453D01*
Y194563D01*
X23547D01*
Y186658D01*
X25477D01*
Y182500D01*
X25631Y181726D01*
X26069Y181069D01*
X28569Y178569D01*
X29226Y178131D01*
X30000Y177977D01*
X34162D01*
X35477Y176662D01*
Y171894D01*
X35319D01*
Y162023D01*
X34681D01*
Y171894D01*
X34523D01*
Y172500D01*
X34369Y173274D01*
X33931Y173931D01*
X31431Y176431D01*
X30774Y176869D01*
X30000Y177023D01*
X20838D01*
X19523Y178338D01*
Y186658D01*
X21453D01*
Y194563D01*
X13547D01*
Y186658D01*
X15477D01*
Y177500D01*
X15631Y176726D01*
X16069Y176069D01*
X18569Y173569D01*
X19226Y173131D01*
X20000Y172977D01*
X29162D01*
X29768Y172371D01*
X29787Y172343D01*
X29538Y171894D01*
X29240Y171894D01*
X25319D01*
Y162020D01*
X25477D01*
Y160000D01*
Y147437D01*
X25319D01*
Y137563D01*
X25477D01*
Y135359D01*
X25004Y134996D01*
X24443Y134265D01*
X24090Y133414D01*
X23970Y132500D01*
X24090Y131586D01*
X24443Y130735D01*
X25004Y130004D01*
X25477Y129641D01*
Y122179D01*
X25221D01*
Y115582D01*
X18569Y108931D01*
X18131Y108274D01*
X17977Y107500D01*
Y98037D01*
X17515Y97846D01*
X12023Y103338D01*
Y126570D01*
X12819Y127181D01*
X13453Y128007D01*
X13851Y128968D01*
X13987Y130000D01*
X13851Y131032D01*
X13453Y131993D01*
X12819Y132819D01*
X11993Y133453D01*
X11032Y133851D01*
X10000Y133987D01*
X8968Y133851D01*
X8007Y133453D01*
X7181Y132819D01*
X6547Y131993D01*
X6149Y131032D01*
X6013Y130000D01*
X6149Y128968D01*
X6547Y128007D01*
X7181Y127181D01*
X7977Y126570D01*
Y102500D01*
X8131Y101726D01*
X8569Y101069D01*
X37977Y71662D01*
Y68338D01*
X30956Y61317D01*
X26183D01*
Y58986D01*
X25683Y58887D01*
X25460Y59425D01*
X24848Y60222D01*
X24051Y60834D01*
X23122Y61219D01*
X22626Y61284D01*
Y57500D01*
Y53716D01*
X23122Y53781D01*
X24051Y54166D01*
X24848Y54778D01*
X25460Y55575D01*
X25683Y56113D01*
X26183Y56014D01*
Y53683D01*
X27977D01*
Y25000D01*
X28131Y24226D01*
X28569Y23569D01*
X39475Y12664D01*
X40131Y12225D01*
X40905Y12071D01*
X53882D01*
Y10142D01*
X66118D01*
Y18047D01*
X53882D01*
Y16118D01*
X41743D01*
X32023Y25838D01*
Y53683D01*
X33817D01*
Y58456D01*
X41431Y66069D01*
X41869Y66726D01*
X42023Y67500D01*
Y71698D01*
X42485Y71889D01*
X54446Y59928D01*
X54472Y59910D01*
Y55831D01*
X65528D01*
Y58458D01*
X65990Y58649D01*
X74180Y50459D01*
X74836Y50021D01*
X75610Y49867D01*
X81047D01*
Y47937D01*
X82977D01*
Y47500D01*
X83131Y46726D01*
X83569Y46069D01*
X86069Y43569D01*
X86726Y43131D01*
X87500Y42977D01*
X121662D01*
X125477Y39162D01*
Y32500D01*
X125631Y31726D01*
X126069Y31069D01*
X131069Y26069D01*
X131726Y25631D01*
X132500Y25477D01*
X134158D01*
Y23547D01*
X139202D01*
X144180Y18569D01*
X144836Y18131D01*
X145610Y17977D01*
X162500D01*
X163274Y18131D01*
X163931Y18569D01*
X169602Y24241D01*
X170000Y24188D01*
X170857Y24301D01*
X171656Y24632D01*
X172342Y25158D01*
X172868Y25844D01*
X173199Y26643D01*
X173312Y27500D01*
X173199Y28357D01*
X172868Y29156D01*
X172342Y29842D01*
X171656Y30368D01*
X170857Y30699D01*
X170000Y30812D01*
X169143Y30699D01*
X168344Y30368D01*
X167658Y29842D01*
X167132Y29156D01*
X166801Y28357D01*
X166688Y27500D01*
X166741Y27102D01*
X161662Y22023D01*
X146448D01*
X142063Y26408D01*
Y30033D01*
X142525Y30224D01*
X146680Y26069D01*
X147336Y25631D01*
X147937Y25511D01*
Y23547D01*
X155842D01*
Y25477D01*
X157500D01*
X158274Y25631D01*
X158931Y26069D01*
X167862Y35001D01*
X168344Y34632D01*
X169143Y34301D01*
X170000Y34188D01*
X170857Y34301D01*
X171656Y34632D01*
X172342Y35158D01*
X172868Y35844D01*
X173199Y36643D01*
X173312Y37500D01*
X173199Y38357D01*
X172868Y39156D01*
X172342Y39842D01*
X171656Y40368D01*
X170857Y40699D01*
X170000Y40812D01*
X169143Y40699D01*
X168344Y40368D01*
X167658Y39842D01*
X167398Y39503D01*
X166726Y39369D01*
X166069Y38931D01*
X156662Y29523D01*
X155842D01*
Y31453D01*
X147937D01*
Y31188D01*
X147475Y30996D01*
X142063Y36408D01*
Y41453D01*
X134158D01*
Y33547D01*
X139202D01*
X140834Y31915D01*
X140643Y31453D01*
X134158D01*
Y29523D01*
X133338D01*
X129523Y33338D01*
Y40000D01*
X129369Y40774D01*
X128931Y41431D01*
X123931Y46431D01*
X123274Y46869D01*
X122500Y47023D01*
X109523D01*
Y56662D01*
X118338Y65477D01*
X122500D01*
X123274Y65631D01*
X123931Y66069D01*
X128320Y70459D01*
X128713Y71047D01*
X130842D01*
Y72977D01*
X157500D01*
X158274Y73131D01*
X158931Y73569D01*
X167869Y82508D01*
X187130D01*
X191047Y78592D01*
Y73547D01*
X198953D01*
Y80477D01*
X240000D01*
X240774Y80631D01*
X241431Y81069D01*
X248931Y88569D01*
X249369Y89226D01*
X249523Y90000D01*
Y99079D01*
X250783D01*
Y103441D01*
X244523D01*
Y104162D01*
X246920Y106559D01*
X250783D01*
Y106717D01*
X256240D01*
X257014Y106871D01*
X257671Y107310D01*
X261431Y111069D01*
X261869Y111726D01*
X262023Y112500D01*
Y113781D01*
X262101Y113901D01*
X262715Y113988D01*
X262977Y113781D01*
Y112500D01*
X263131Y111726D01*
X263569Y111069D01*
X269085Y105554D01*
X269742Y105115D01*
X270516Y104961D01*
X281912D01*
X282133Y104513D01*
X281943Y104265D01*
X281590Y103414D01*
X281470Y102500D01*
X281590Y101586D01*
X281733Y101241D01*
X281455Y100825D01*
X277780D01*
X277720Y100825D01*
X277279D01*
X277221Y100825D01*
X275500D01*
Y96823D01*
Y92821D01*
X277221D01*
X277279Y92821D01*
X277720D01*
X277977Y92403D01*
Y77500D01*
X278131Y76726D01*
X278569Y76069D01*
X281069Y73569D01*
X281726Y73131D01*
X282500Y72977D01*
X282937D01*
Y71047D01*
X286835D01*
Y67859D01*
X286362Y67496D01*
X285801Y66765D01*
X285448Y65914D01*
X285328Y65000D01*
X285406Y64409D01*
X280360Y59362D01*
X279898Y59554D01*
Y60547D01*
X272386D01*
Y57437D01*
X270114D01*
Y60547D01*
X262602D01*
Y50279D01*
X270114D01*
Y53390D01*
X272386D01*
Y50279D01*
X279898D01*
Y53515D01*
X280046Y53544D01*
X280702Y53983D01*
X288267Y61548D01*
X288858Y61470D01*
X289772Y61590D01*
X290623Y61943D01*
X291354Y62504D01*
X291915Y63235D01*
X292268Y64086D01*
X292389Y65000D01*
X292268Y65914D01*
X291915Y66765D01*
X291354Y67496D01*
X290881Y67859D01*
Y70520D01*
X298338Y77977D01*
X299079D01*
Y71716D01*
X299237D01*
Y70930D01*
X299086Y70910D01*
X298235Y70557D01*
X297504Y69996D01*
X296943Y69265D01*
X296590Y68414D01*
X296470Y67500D01*
X296590Y66586D01*
X296943Y65735D01*
X297504Y65004D01*
X298235Y64443D01*
X299086Y64090D01*
X300000Y63970D01*
X300914Y64090D01*
X301765Y64443D01*
X302477Y64989D01*
X302655Y64962D01*
X302977Y64852D01*
Y60838D01*
X299575Y57437D01*
X298795D01*
Y60547D01*
X291283D01*
Y50279D01*
X298795D01*
Y53390D01*
X300413D01*
X301188Y53544D01*
X301844Y53983D01*
X306431Y58569D01*
X306869Y59226D01*
X307023Y60000D01*
Y71716D01*
X308240D01*
Y75079D01*
X308740D01*
Y75579D01*
X310921D01*
Y78441D01*
X309509D01*
X309302Y78941D01*
X310171Y79810D01*
X310609Y80466D01*
X310763Y81240D01*
Y81559D01*
X310921D01*
Y88283D01*
X310763D01*
Y106260D01*
X310609Y107034D01*
X310171Y107690D01*
X306431Y111431D01*
X305774Y111869D01*
X305000Y112023D01*
X293338D01*
X292023Y113338D01*
Y113757D01*
X292280Y114175D01*
X292721D01*
X292779Y114175D01*
X294500D01*
Y118177D01*
Y122179D01*
X292858D01*
X292589Y122625D01*
X293057Y123235D01*
X293410Y124086D01*
X293530Y125000D01*
X293410Y125914D01*
X293057Y126765D01*
X292496Y127496D01*
X291765Y128057D01*
X290914Y128410D01*
X290000Y128530D01*
X289086Y128410D01*
X288235Y128057D01*
X287504Y127496D01*
X287490Y127478D01*
X286993Y127652D01*
X286869Y128274D01*
X286431Y128931D01*
X283985Y131377D01*
X284082Y131867D01*
X284265Y131943D01*
X284996Y132504D01*
X285557Y133235D01*
X285910Y134086D01*
X286030Y135000D01*
X285910Y135914D01*
X285689Y136446D01*
X285769Y136941D01*
X285942Y137085D01*
X286431Y137411D01*
X286532Y137563D01*
X287181D01*
Y147437D01*
X287023D01*
Y147500D01*
X286869Y148274D01*
X286431Y148931D01*
X283931Y151431D01*
X283274Y151869D01*
X282500Y152023D01*
X176453D01*
Y157977D01*
X247141D01*
X247504Y157504D01*
X248235Y156943D01*
X249086Y156590D01*
X250000Y156470D01*
X250914Y156590D01*
X251765Y156943D01*
X252496Y157504D01*
X252859Y157977D01*
X260000D01*
X260774Y158131D01*
X261431Y158569D01*
X261869Y159226D01*
X262023Y160000D01*
Y162020D01*
X262181D01*
Y171332D01*
X262354Y171486D01*
X262681Y171615D01*
X262819Y171533D01*
Y162020D01*
X267181D01*
Y171894D01*
X267023D01*
Y172500D01*
X266869Y173274D01*
X266431Y173931D01*
X263931Y176431D01*
X263274Y176869D01*
X262500Y177023D01*
X253338D01*
X252023Y178338D01*
Y186658D01*
X253953D01*
Y194563D01*
X246047D01*
Y186658D01*
X247977D01*
Y177500D01*
X248131Y176726D01*
X248569Y176069D01*
X251069Y173569D01*
X251726Y173131D01*
X252500Y172977D01*
X261662D01*
X262291Y172348D01*
X262038Y171894D01*
X261740Y171894D01*
X257819D01*
Y162023D01*
X252859D01*
X252496Y162496D01*
X251765Y163057D01*
X250914Y163410D01*
X250000Y163530D01*
X249086Y163410D01*
X248235Y163057D01*
X247504Y162496D01*
X247141Y162023D01*
X224681D01*
Y171820D01*
X225838Y172977D01*
X235000D01*
X235774Y173131D01*
X236431Y173569D01*
X238931Y176069D01*
X239369Y176726D01*
X239523Y177500D01*
Y186658D01*
X241453D01*
Y194563D01*
X233547D01*
Y186658D01*
X235477D01*
Y178338D01*
X234162Y177023D01*
X225000D01*
X224226Y176869D01*
X223569Y176431D01*
X221069Y173931D01*
X220631Y173274D01*
X220477Y172500D01*
Y171894D01*
X220319D01*
Y162023D01*
X219681D01*
Y171894D01*
X219523D01*
Y176662D01*
X220838Y177977D01*
X225000D01*
X225774Y178131D01*
X226431Y178569D01*
X228931Y181069D01*
X229369Y181726D01*
X229523Y182500D01*
Y186658D01*
X231453D01*
Y194563D01*
X223547D01*
Y186658D01*
X225477D01*
Y183338D01*
X224162Y182023D01*
X220000D01*
X219226Y181869D01*
X218569Y181431D01*
X216069Y178931D01*
X215631Y178274D01*
X215477Y177500D01*
Y171894D01*
X215319D01*
Y162023D01*
X214681D01*
Y171894D01*
X214523D01*
Y179162D01*
X218931Y183569D01*
X219369Y184226D01*
X219523Y185000D01*
Y186658D01*
X221453D01*
Y194563D01*
X213547D01*
Y186658D01*
X215477D01*
Y185838D01*
X211069Y181431D01*
X210631Y180774D01*
X210477Y180000D01*
Y171894D01*
X210319D01*
Y162023D01*
X209681D01*
Y171894D01*
X209523D01*
Y186658D01*
X211453D01*
Y194563D01*
X203547D01*
Y186658D01*
X205477D01*
Y171894D01*
X205319D01*
Y162023D01*
X204681D01*
Y171894D01*
X204523D01*
Y180000D01*
X204369Y180774D01*
X203931Y181431D01*
X199523Y185838D01*
Y186658D01*
X201453D01*
Y194563D01*
X193547D01*
Y186658D01*
X195477D01*
Y185000D01*
X195631Y184226D01*
X196069Y183569D01*
X200477Y179162D01*
Y171894D01*
X200319D01*
Y162023D01*
X199681D01*
Y171894D01*
X199523D01*
Y177500D01*
X199369Y178274D01*
X198931Y178931D01*
X196431Y181431D01*
X195774Y181869D01*
X195000Y182023D01*
X190838D01*
X189523Y183338D01*
Y186658D01*
X191453D01*
Y194563D01*
X183547D01*
Y186658D01*
X185477D01*
Y182500D01*
X185631Y181726D01*
X186069Y181069D01*
X188569Y178569D01*
X189226Y178131D01*
X190000Y177977D01*
X194162D01*
X195477Y176662D01*
Y171894D01*
X195319D01*
Y162023D01*
X194681D01*
Y171894D01*
X194523D01*
Y172500D01*
X194369Y173274D01*
X193931Y173931D01*
X191431Y176431D01*
X190774Y176869D01*
X190000Y177023D01*
X182536D01*
X179523Y180036D01*
Y186658D01*
X181453D01*
Y194563D01*
X173547D01*
Y186658D01*
X175477D01*
Y179198D01*
X175631Y178424D01*
X176069Y177768D01*
X180268Y173569D01*
X180924Y173131D01*
X181698Y172977D01*
X189162D01*
X189768Y172371D01*
X189787Y172343D01*
X189538Y171894D01*
X189240Y171894D01*
X185319D01*
Y169523D01*
X176453D01*
Y171453D01*
X174523D01*
Y180000D01*
X174369Y180774D01*
X173931Y181431D01*
X167453Y187908D01*
Y195063D01*
D02*
G37*
G36*
X313953Y194563D02*
X306047D01*
Y186658D01*
X307977D01*
Y178338D01*
X306662Y177023D01*
X297500D01*
X296726Y176869D01*
X296069Y176431D01*
X293569Y173931D01*
X293131Y173274D01*
X292977Y172500D01*
Y171894D01*
X292819D01*
Y162020D01*
X297181D01*
Y171820D01*
X298338Y172977D01*
X307500D01*
X308274Y173131D01*
X308931Y173569D01*
X311431Y176069D01*
X311869Y176726D01*
X312023Y177500D01*
Y186658D01*
X313953D01*
Y194563D01*
D02*
G37*
G36*
X303953D02*
X296047D01*
Y186658D01*
X297977D01*
Y183338D01*
X296662Y182023D01*
X292500D01*
X291726Y181869D01*
X291069Y181431D01*
X288569Y178931D01*
X288131Y178274D01*
X287977Y177500D01*
Y171894D01*
X287819D01*
Y162020D01*
X292181D01*
Y171894D01*
X292023D01*
Y176662D01*
X293338Y177977D01*
X297500D01*
X298274Y178131D01*
X298931Y178569D01*
X301431Y181069D01*
X301869Y181726D01*
X302023Y182500D01*
Y186658D01*
X303953D01*
Y194563D01*
D02*
G37*
G36*
X293953D02*
X286047D01*
Y186658D01*
X287977D01*
Y185838D01*
X283569Y181431D01*
X283131Y180774D01*
X282977Y180000D01*
Y171894D01*
X282819D01*
Y162020D01*
X287181D01*
Y171894D01*
X287023D01*
Y179162D01*
X291431Y183569D01*
X291869Y184226D01*
X292023Y185000D01*
Y186658D01*
X293953D01*
Y194563D01*
D02*
G37*
G36*
X283953D02*
X276047D01*
Y186658D01*
X277977D01*
Y171894D01*
X277819D01*
Y162020D01*
X282181D01*
Y171894D01*
X282023D01*
Y186658D01*
X283953D01*
Y194563D01*
D02*
G37*
G36*
X273953D02*
X266047D01*
Y186658D01*
X267977D01*
Y185000D01*
X268131Y184226D01*
X268569Y183569D01*
X272977Y179162D01*
Y171894D01*
X272819D01*
Y162020D01*
X277181D01*
Y171894D01*
X277023D01*
Y180000D01*
X276869Y180774D01*
X276431Y181431D01*
X272023Y185838D01*
Y186658D01*
X273953D01*
Y194563D01*
D02*
G37*
G36*
X263953D02*
X256047D01*
Y186658D01*
X257977D01*
Y182500D01*
X258131Y181726D01*
X258569Y181069D01*
X261069Y178569D01*
X261726Y178131D01*
X262500Y177977D01*
X266662D01*
X267977Y176662D01*
Y171894D01*
X267819D01*
Y162020D01*
X272181D01*
Y171894D01*
X272023D01*
Y177500D01*
X271869Y178274D01*
X271431Y178931D01*
X268931Y181431D01*
X268274Y181869D01*
X267500Y182023D01*
X263338D01*
X262023Y183338D01*
Y186658D01*
X263953D01*
Y194563D01*
D02*
G37*
G36*
X297181Y147437D02*
X295500D01*
Y143000D01*
X297181D01*
Y147437D01*
D02*
G37*
G36*
X292181D02*
X290500D01*
Y143000D01*
X292181D01*
Y147437D01*
D02*
G37*
G36*
X294500D02*
X292819D01*
Y143000D01*
X294500D01*
Y147437D01*
D02*
G37*
G36*
X289500D02*
X287819D01*
Y143000D01*
X289500D01*
Y147437D01*
D02*
G37*
G36*
X13953Y143953D02*
X10500D01*
Y140500D01*
X13953D01*
Y143953D01*
D02*
G37*
G36*
X9500D02*
X6047D01*
Y140500D01*
X9500D01*
Y143953D01*
D02*
G37*
G36*
X297181Y142000D02*
X295500D01*
Y137563D01*
X297181D01*
Y142000D01*
D02*
G37*
G36*
X294500D02*
X292819D01*
Y137563D01*
X294500D01*
Y142000D01*
D02*
G37*
G36*
X292181D02*
X290500D01*
Y137563D01*
X292181D01*
Y142000D01*
D02*
G37*
G36*
X289500D02*
X287819D01*
Y137563D01*
X289500D01*
Y142000D01*
D02*
G37*
G36*
X13953Y139500D02*
X10500D01*
Y136047D01*
X13953D01*
Y139500D01*
D02*
G37*
G36*
X9500D02*
X6047D01*
Y136047D01*
X9500D01*
Y139500D01*
D02*
G37*
G36*
X308000Y128464D02*
Y125500D01*
X310964D01*
X310910Y125914D01*
X310557Y126765D01*
X309996Y127496D01*
X309265Y128057D01*
X308414Y128410D01*
X308000Y128464D01*
D02*
G37*
G36*
X307000D02*
X306586Y128410D01*
X305735Y128057D01*
X305004Y127496D01*
X304443Y126765D01*
X304090Y125914D01*
X304036Y125500D01*
X307000D01*
Y128464D01*
D02*
G37*
G36*
X310964Y124500D02*
X308000D01*
Y121536D01*
X308414Y121590D01*
X309265Y121943D01*
X309996Y122504D01*
X310557Y123235D01*
X310910Y124086D01*
X310964Y124500D01*
D02*
G37*
G36*
X307000D02*
X304036D01*
X304090Y124086D01*
X304443Y123235D01*
X305004Y122504D01*
X305735Y121943D01*
X306586Y121590D01*
X307000Y121536D01*
Y124500D01*
D02*
G37*
G36*
X297280Y122179D02*
X295500D01*
Y118677D01*
X297280D01*
Y122179D01*
D02*
G37*
G36*
Y117677D02*
X295500D01*
Y114175D01*
X297280D01*
Y117677D01*
D02*
G37*
G36*
X259500Y100825D02*
X257720D01*
Y97323D01*
X259500D01*
Y100825D01*
D02*
G37*
G36*
Y96323D02*
X257720D01*
Y92821D01*
X259500D01*
Y96323D01*
D02*
G37*
G36*
X272721Y100825D02*
X272280D01*
X272220Y100825D01*
X270500D01*
Y96823D01*
Y92821D01*
X272220D01*
X272280Y92821D01*
X272721D01*
X272779Y92821D01*
X274500D01*
Y96823D01*
Y100825D01*
X272779D01*
X272721Y100825D01*
D02*
G37*
G36*
X265000Y106030D02*
X264086Y105910D01*
X263235Y105557D01*
X262504Y104996D01*
X261943Y104265D01*
X261590Y103414D01*
X261470Y102500D01*
X261590Y101586D01*
X261733Y101241D01*
X261455Y100825D01*
X260500D01*
Y96823D01*
Y92821D01*
X262280D01*
X262280Y92821D01*
X262720D01*
Y92821D01*
X262779Y92821D01*
X267220D01*
X267280Y92821D01*
Y92821D01*
X267721D01*
Y92821D01*
X269500D01*
Y96823D01*
Y100825D01*
X268545D01*
X268267Y101241D01*
X268410Y101586D01*
X268530Y102500D01*
X268410Y103414D01*
X268057Y104265D01*
X267496Y104996D01*
X266765Y105557D01*
X265914Y105910D01*
X265000Y106030D01*
D02*
G37*
G36*
X277063Y88953D02*
X269158D01*
Y87023D01*
X260000D01*
X259226Y86869D01*
X258569Y86431D01*
X257310Y85171D01*
X256871Y84514D01*
X256717Y83740D01*
Y83480D01*
X256559D01*
Y75772D01*
X260921D01*
Y82977D01*
X269158D01*
Y81047D01*
X277063D01*
Y88953D01*
D02*
G37*
G36*
X253441Y83480D02*
X251760D01*
Y80126D01*
X253441D01*
Y83480D01*
D02*
G37*
G36*
X250760D02*
X249079D01*
Y80126D01*
X250760D01*
Y83480D01*
D02*
G37*
G36*
X11457Y93951D02*
X9929Y93801D01*
X8461Y93355D01*
X7107Y92632D01*
X5921Y91658D01*
X4947Y90472D01*
X4224Y89118D01*
X3778Y87649D01*
X3628Y86122D01*
X3778Y84595D01*
X4224Y83126D01*
X4947Y81773D01*
X5921Y80586D01*
X7107Y79612D01*
X8461Y78889D01*
X9929Y78443D01*
X11457Y78293D01*
X12984Y78443D01*
X14453Y78889D01*
X15806Y79612D01*
X16993Y80586D01*
X17966Y81773D01*
X18690Y83126D01*
X19135Y84595D01*
X19286Y86122D01*
X19135Y87649D01*
X18690Y89118D01*
X17966Y90472D01*
X16993Y91658D01*
X15806Y92632D01*
X14453Y93355D01*
X12984Y93801D01*
X11457Y93951D01*
D02*
G37*
G36*
X175500Y81421D02*
Y78000D01*
X178921D01*
X178851Y78532D01*
X178453Y79493D01*
X177819Y80319D01*
X176993Y80953D01*
X176032Y81351D01*
X175500Y81421D01*
D02*
G37*
G36*
X174500D02*
X173968Y81351D01*
X173007Y80953D01*
X172181Y80319D01*
X171547Y79493D01*
X171149Y78532D01*
X171079Y78000D01*
X174500D01*
Y81421D01*
D02*
G37*
G36*
X253441Y79126D02*
X251760D01*
Y75772D01*
X253441D01*
Y79126D01*
D02*
G37*
G36*
X250760D02*
X249079D01*
Y75772D01*
X250760D01*
Y79126D01*
D02*
G37*
G36*
X178921Y77000D02*
X175500D01*
Y73579D01*
X176032Y73649D01*
X176993Y74047D01*
X177819Y74681D01*
X178453Y75507D01*
X178851Y76468D01*
X178921Y77000D01*
D02*
G37*
G36*
X174500D02*
X171079D01*
X171149Y76468D01*
X171547Y75507D01*
X172181Y74681D01*
X173007Y74047D01*
X173968Y73649D01*
X174500Y73579D01*
Y77000D01*
D02*
G37*
G36*
X277063Y78953D02*
X269158D01*
Y73908D01*
X268035Y72786D01*
X267536Y72818D01*
X267496Y72870D01*
X266765Y73431D01*
X265914Y73784D01*
X265000Y73904D01*
X264086Y73784D01*
X263235Y73431D01*
X262504Y72870D01*
X262141Y72397D01*
X257181D01*
Y74228D01*
X252819D01*
Y66520D01*
X257181D01*
Y68351D01*
X262141D01*
X262504Y67878D01*
X262966Y67523D01*
X262796Y67023D01*
X262500D01*
X261726Y66869D01*
X261069Y66431D01*
X252075Y57437D01*
X251217D01*
Y60547D01*
X243705D01*
Y50279D01*
X251217D01*
Y53390D01*
X252913D01*
X253688Y53544D01*
X254344Y53983D01*
X263338Y62977D01*
X267141D01*
X267504Y62504D01*
X268235Y61943D01*
X269086Y61590D01*
X270000Y61470D01*
X270914Y61590D01*
X271765Y61943D01*
X272496Y62504D01*
X273057Y63235D01*
X273410Y64086D01*
X273530Y65000D01*
X273410Y65914D01*
X273057Y66765D01*
X272496Y67496D01*
X271765Y68057D01*
X270914Y68410D01*
X270164Y68509D01*
X270044Y68719D01*
X269986Y68946D01*
X269984Y69013D01*
X272019Y71047D01*
X277063D01*
Y78953D01*
D02*
G37*
G36*
X310921Y74579D02*
X309240D01*
Y71716D01*
X310921D01*
Y74579D01*
D02*
G37*
G36*
X30000Y71192D02*
X29004Y71061D01*
X28075Y70677D01*
X27278Y70065D01*
X26666Y69267D01*
X26322Y68436D01*
X26143Y68400D01*
X25983D01*
X25804Y68436D01*
X25460Y69267D01*
X24848Y70065D01*
X24051Y70677D01*
X23122Y71061D01*
X22126Y71192D01*
X21130Y71061D01*
X20201Y70677D01*
X19404Y70065D01*
X18792Y69267D01*
X18407Y68339D01*
X18276Y67343D01*
X18407Y66346D01*
X18792Y65418D01*
X19404Y64620D01*
X20201Y64008D01*
X21130Y63624D01*
X22126Y63493D01*
X23122Y63624D01*
X24051Y64008D01*
X24848Y64620D01*
X25460Y65418D01*
X25804Y66249D01*
X25983Y66285D01*
X26143D01*
X26322Y66249D01*
X26666Y65418D01*
X27278Y64620D01*
X28075Y64008D01*
X29004Y63624D01*
X30000Y63493D01*
X30996Y63624D01*
X31925Y64008D01*
X32722Y64620D01*
X33334Y65418D01*
X33719Y66346D01*
X33850Y67343D01*
X33719Y68339D01*
X33334Y69267D01*
X32722Y70065D01*
X31925Y70677D01*
X30996Y71061D01*
X30000Y71192D01*
D02*
G37*
G36*
X235842Y78953D02*
X227937D01*
Y71047D01*
X229867D01*
Y70070D01*
X227825Y68029D01*
X227142Y68553D01*
X226109Y68981D01*
X225000Y69127D01*
X223891Y68981D01*
X222858Y68553D01*
X221970Y67872D01*
X221289Y66985D01*
X220861Y65952D01*
X220715Y64842D01*
X220861Y63734D01*
X221289Y62700D01*
X221970Y61813D01*
X222858Y61132D01*
X223891Y60704D01*
X225000Y60558D01*
X226109Y60704D01*
X227142Y61132D01*
X228030Y61813D01*
X228711Y62700D01*
X229058Y63540D01*
X233320Y67802D01*
X233759Y68458D01*
X233913Y69232D01*
Y71047D01*
X235842D01*
Y78953D01*
D02*
G37*
G36*
X21626Y61284D02*
X21130Y61219D01*
X20201Y60834D01*
X19404Y60222D01*
X18792Y59425D01*
X18407Y58496D01*
X18342Y58000D01*
X21626D01*
Y61284D01*
D02*
G37*
G36*
Y57000D02*
X18342D01*
X18407Y56504D01*
X18792Y55575D01*
X19404Y54778D01*
X20201Y54166D01*
X21130Y53781D01*
X21626Y53716D01*
Y57000D01*
D02*
G37*
G36*
X142063D02*
X138610D01*
Y53547D01*
X142063D01*
Y57000D01*
D02*
G37*
G36*
X137610D02*
X134158D01*
Y53547D01*
X137610D01*
Y57000D01*
D02*
G37*
G36*
X213189Y60178D02*
X211849Y60002D01*
X210600Y59484D01*
X209527Y58662D01*
X208705Y57589D01*
X208187Y56340D01*
X208011Y55000D01*
X208187Y53660D01*
X208705Y52411D01*
X209527Y51338D01*
X210600Y50516D01*
X211849Y49998D01*
X213189Y49822D01*
X214529Y49998D01*
X215778Y50516D01*
X216850Y51338D01*
X217673Y52411D01*
X218191Y53660D01*
X218367Y55000D01*
X218191Y56340D01*
X217673Y57589D01*
X216850Y58662D01*
X215778Y59484D01*
X214529Y60002D01*
X213189Y60178D01*
D02*
G37*
G36*
X142063Y51453D02*
X138610D01*
Y48000D01*
X142063D01*
Y51453D01*
D02*
G37*
G36*
X137610D02*
X134158D01*
Y48000D01*
X137610D01*
Y51453D01*
D02*
G37*
G36*
X142063Y47000D02*
X138610D01*
Y43547D01*
X142063D01*
Y47000D01*
D02*
G37*
G36*
X137610D02*
X134158D01*
Y43547D01*
X137610D01*
Y47000D01*
D02*
G37*
G36*
X45500Y45964D02*
Y43000D01*
X48464D01*
X48410Y43414D01*
X48057Y44265D01*
X47496Y44996D01*
X46765Y45557D01*
X45914Y45910D01*
X45500Y45964D01*
D02*
G37*
G36*
X44500D02*
X44086Y45910D01*
X43235Y45557D01*
X42504Y44996D01*
X41943Y44265D01*
X41590Y43414D01*
X41536Y43000D01*
X44500D01*
Y45964D01*
D02*
G37*
G36*
X225000Y49442D02*
X223891Y49296D01*
X222858Y48868D01*
X221970Y48187D01*
X221289Y47300D01*
X220861Y46266D01*
X220715Y45158D01*
X220861Y44049D01*
X221289Y43015D01*
X221970Y42128D01*
X222858Y41447D01*
X223891Y41019D01*
X225000Y40873D01*
X226109Y41019D01*
X227142Y41447D01*
X228030Y42128D01*
X228711Y43015D01*
X229139Y44049D01*
X229285Y45158D01*
X229139Y46266D01*
X228711Y47300D01*
X228030Y48187D01*
X227142Y48868D01*
X226109Y49296D01*
X225000Y49442D01*
D02*
G37*
G36*
X185000Y81487D02*
X183968Y81351D01*
X183007Y80953D01*
X182181Y80319D01*
X181547Y79493D01*
X181149Y78532D01*
X181013Y77500D01*
X181149Y76468D01*
X181547Y75507D01*
X182181Y74681D01*
X182977Y74070D01*
Y64523D01*
X120000D01*
X119226Y64369D01*
X118569Y63931D01*
X113569Y58931D01*
X113131Y58274D01*
X112977Y57500D01*
Y55843D01*
X111047D01*
Y47937D01*
X118953D01*
Y55843D01*
X117023D01*
Y56662D01*
X120838Y60477D01*
X134158D01*
Y58000D01*
X142063D01*
Y60477D01*
X147937D01*
Y53547D01*
X155842D01*
Y55477D01*
X167414D01*
X167658Y55158D01*
X168344Y54632D01*
X169143Y54301D01*
X170000Y54188D01*
X170857Y54301D01*
X171656Y54632D01*
X172342Y55158D01*
X172868Y55844D01*
X173199Y56643D01*
X173312Y57500D01*
X173199Y58357D01*
X172868Y59156D01*
X172342Y59842D01*
X172166Y59977D01*
X172336Y60477D01*
X184162D01*
X196741Y47898D01*
X196688Y47500D01*
X196801Y46643D01*
X197132Y45844D01*
X197658Y45158D01*
X198344Y44632D01*
X199143Y44301D01*
X200000Y44188D01*
X200857Y44301D01*
X201656Y44632D01*
X202004Y44899D01*
X202504Y44653D01*
Y42866D01*
X200398Y40759D01*
X200000Y40812D01*
X199602Y40759D01*
X191431Y48931D01*
X190774Y49369D01*
X190000Y49523D01*
X172586D01*
X172342Y49842D01*
X171656Y50368D01*
X170857Y50699D01*
X170000Y50812D01*
X169143Y50699D01*
X168344Y50368D01*
X167658Y49842D01*
X167414Y49523D01*
X155842D01*
Y51453D01*
X147937D01*
Y43547D01*
X149867D01*
Y41453D01*
X147937D01*
Y33547D01*
X155842D01*
Y41453D01*
X153913D01*
Y43547D01*
X155842D01*
Y45477D01*
X167414D01*
X167658Y45158D01*
X168344Y44632D01*
X169143Y44301D01*
X170000Y44188D01*
X170857Y44301D01*
X171656Y44632D01*
X172342Y45158D01*
X172586Y45477D01*
X189162D01*
X196741Y37898D01*
X196688Y37500D01*
X196801Y36643D01*
X197132Y35844D01*
X197658Y35158D01*
X198344Y34632D01*
X199143Y34301D01*
X200000Y34188D01*
X200857Y34301D01*
X201656Y34632D01*
X202342Y35158D01*
X202868Y35844D01*
X203199Y36643D01*
X203312Y37500D01*
X203259Y37898D01*
X205958Y40597D01*
X206397Y41253D01*
X206551Y42028D01*
Y58690D01*
X218908Y71047D01*
X222063D01*
Y78953D01*
X214158D01*
Y72019D01*
X203097Y60958D01*
X202658Y60302D01*
X202646Y60239D01*
X202095Y60031D01*
X201656Y60368D01*
X200857Y60699D01*
X200000Y60812D01*
X199143Y60699D01*
X198344Y60368D01*
X197658Y59842D01*
X197132Y59156D01*
X196801Y58357D01*
X196688Y57500D01*
X196801Y56643D01*
X197132Y55844D01*
X197658Y55158D01*
X198344Y54632D01*
X199143Y54301D01*
X200000Y54188D01*
X200857Y54301D01*
X201656Y54632D01*
X202004Y54899D01*
X202504Y54653D01*
Y50347D01*
X202004Y50101D01*
X201656Y50368D01*
X200857Y50699D01*
X200000Y50812D01*
X199602Y50759D01*
X187023Y63338D01*
Y74070D01*
X187819Y74681D01*
X188453Y75507D01*
X188851Y76468D01*
X188987Y77500D01*
X188851Y78532D01*
X188453Y79493D01*
X187819Y80319D01*
X186993Y80953D01*
X186032Y81351D01*
X185000Y81487D01*
D02*
G37*
G36*
X48464Y42000D02*
X45500D01*
Y39036D01*
X45914Y39090D01*
X46765Y39443D01*
X47496Y40004D01*
X48057Y40735D01*
X48410Y41586D01*
X48464Y42000D01*
D02*
G37*
G36*
X44500D02*
X41536D01*
X41590Y41586D01*
X41943Y40735D01*
X42504Y40004D01*
X43235Y39443D01*
X44086Y39090D01*
X44500Y39036D01*
Y42000D01*
D02*
G37*
G36*
X11457Y46549D02*
X9929Y46399D01*
X8461Y45954D01*
X7107Y45230D01*
X5921Y44256D01*
X4947Y43070D01*
X4224Y41717D01*
X3778Y40248D01*
X3628Y38721D01*
X3778Y37193D01*
X4224Y35724D01*
X4947Y34371D01*
X5921Y33184D01*
X7107Y32211D01*
X8461Y31487D01*
X9929Y31042D01*
X11457Y30891D01*
X12984Y31042D01*
X14453Y31487D01*
X15806Y32211D01*
X16993Y33184D01*
X17966Y34371D01*
X18690Y35724D01*
X19135Y37193D01*
X19286Y38721D01*
X19135Y40248D01*
X18690Y41717D01*
X17966Y43070D01*
X16993Y44256D01*
X15806Y45230D01*
X14453Y45954D01*
X12984Y46399D01*
X11457Y46549D01*
D02*
G37*
G36*
X203284Y30784D02*
X200500D01*
Y28000D01*
X203284D01*
Y30784D01*
D02*
G37*
G36*
X199500D02*
X196716D01*
Y28000D01*
X199500D01*
Y30784D01*
D02*
G37*
G36*
X118953Y42063D02*
X111047D01*
Y34157D01*
X112977D01*
Y33342D01*
X111047D01*
Y25437D01*
X118953D01*
Y33342D01*
X117023D01*
Y34157D01*
X118953D01*
Y42063D01*
D02*
G37*
G36*
X103953D02*
X96047D01*
Y34157D01*
X97977D01*
Y33342D01*
X96047D01*
Y25437D01*
X103953D01*
Y33342D01*
X102023D01*
Y34157D01*
X103953D01*
Y42063D01*
D02*
G37*
G36*
X88953D02*
X81047D01*
Y34157D01*
X82977D01*
Y33342D01*
X81047D01*
Y25437D01*
X88953D01*
Y33342D01*
X87023D01*
Y34157D01*
X88953D01*
Y42063D01*
D02*
G37*
G36*
X203284Y27000D02*
X200500D01*
Y24216D01*
X203284D01*
Y27000D01*
D02*
G37*
G36*
X199500D02*
X196716D01*
Y24216D01*
X199500D01*
Y27000D01*
D02*
G37*
G36*
X65528Y49169D02*
X54472D01*
Y38114D01*
X57977D01*
Y29858D01*
X53882D01*
Y21953D01*
X66118D01*
Y29858D01*
X62023D01*
Y38114D01*
X65528D01*
Y49169D01*
D02*
G37*
G36*
X118953Y19563D02*
X115500D01*
Y16110D01*
X118953D01*
Y19563D01*
D02*
G37*
G36*
X103953D02*
X100500D01*
Y16110D01*
X103953D01*
Y19563D01*
D02*
G37*
G36*
X88953D02*
X85500D01*
Y16110D01*
X88953D01*
Y19563D01*
D02*
G37*
G36*
X114500D02*
X111047D01*
Y16110D01*
X114500D01*
Y19563D01*
D02*
G37*
G36*
X99500D02*
X96047D01*
Y16110D01*
X99500D01*
Y19563D01*
D02*
G37*
G36*
X84500D02*
X81047D01*
Y16110D01*
X84500D01*
Y19563D01*
D02*
G37*
G36*
X128000Y18464D02*
Y15500D01*
X130964D01*
X130910Y15914D01*
X130557Y16765D01*
X129996Y17496D01*
X129265Y18057D01*
X128414Y18410D01*
X128000Y18464D01*
D02*
G37*
G36*
X127000D02*
X126586Y18410D01*
X125735Y18057D01*
X125004Y17496D01*
X124443Y16765D01*
X124090Y15914D01*
X124036Y15500D01*
X127000D01*
Y18464D01*
D02*
G37*
G36*
X279898Y24721D02*
X272386D01*
Y14453D01*
X279898D01*
Y24721D01*
D02*
G37*
G36*
X270114D02*
X262602D01*
Y14453D01*
X270114D01*
Y24721D01*
D02*
G37*
G36*
X118953Y15110D02*
X115500D01*
Y11658D01*
X118953D01*
Y15110D01*
D02*
G37*
G36*
X114500D02*
X111047D01*
Y11658D01*
X114500D01*
Y15110D01*
D02*
G37*
G36*
X103953D02*
X100500D01*
Y11658D01*
X103953D01*
Y15110D01*
D02*
G37*
G36*
X99500D02*
X96047D01*
Y11658D01*
X99500D01*
Y15110D01*
D02*
G37*
G36*
X88953D02*
X85500D01*
Y11658D01*
X88953D01*
Y15110D01*
D02*
G37*
G36*
X84500D02*
X81047D01*
Y11658D01*
X84500D01*
Y15110D01*
D02*
G37*
G36*
X130964Y14500D02*
X128000D01*
Y11536D01*
X128414Y11590D01*
X129265Y11943D01*
X129996Y12504D01*
X130557Y13235D01*
X130910Y14086D01*
X130964Y14500D01*
D02*
G37*
G36*
X127000D02*
X124036D01*
X124090Y14086D01*
X124443Y13235D01*
X125004Y12504D01*
X125735Y11943D01*
X126586Y11590D01*
X127000Y11536D01*
Y14500D01*
D02*
G37*
G36*
X282063Y11453D02*
X278610D01*
Y8000D01*
X282063D01*
Y11453D01*
D02*
G37*
G36*
X277610D02*
X274158D01*
Y8000D01*
X277610D01*
Y11453D01*
D02*
G37*
G36*
X265843D02*
X262390D01*
Y8000D01*
X265843D01*
Y11453D01*
D02*
G37*
G36*
X261390D02*
X257937D01*
Y8000D01*
X261390D01*
Y11453D01*
D02*
G37*
G36*
X298795Y24721D02*
X291283D01*
Y14453D01*
X293016D01*
Y11488D01*
X292981Y11453D01*
X287937D01*
Y3547D01*
X295843D01*
Y8592D01*
X296470Y9219D01*
X296908Y9875D01*
X297062Y10650D01*
Y14453D01*
X298795D01*
Y24721D01*
D02*
G37*
G36*
X282063Y7000D02*
X278610D01*
Y3547D01*
X282063D01*
Y7000D01*
D02*
G37*
G36*
X277610D02*
X274158D01*
Y3547D01*
X277610D01*
Y7000D01*
D02*
G37*
G36*
X265843D02*
X262390D01*
Y3547D01*
X265843D01*
Y7000D01*
D02*
G37*
G36*
X261390D02*
X257937D01*
Y3547D01*
X261390D01*
Y7000D01*
D02*
G37*
G36*
X251217Y24721D02*
X243705D01*
Y14453D01*
X245438D01*
Y11453D01*
X244158D01*
Y3547D01*
X252063D01*
Y11453D01*
X249484D01*
Y14453D01*
X251217D01*
Y24721D01*
D02*
G37*
%LPD*%
G36*
X210477Y147437D02*
X210319D01*
Y139051D01*
X210000Y138856D01*
X209681Y139051D01*
Y147437D01*
X205319D01*
Y138304D01*
X204819Y138031D01*
X204681Y138119D01*
Y147437D01*
X200319D01*
Y138119D01*
X200181Y138031D01*
X199681Y138304D01*
Y147437D01*
X195319D01*
Y137563D01*
X195477D01*
Y134998D01*
X195015Y134806D01*
X194523Y135298D01*
Y137563D01*
X194681D01*
Y147437D01*
X190319D01*
Y137563D01*
X190477D01*
Y134460D01*
X190631Y133686D01*
X191069Y133030D01*
X192624Y131475D01*
X192378Y131014D01*
X191586Y130910D01*
X190735Y130557D01*
X190023Y130011D01*
X189845Y130038D01*
X189523Y130148D01*
Y137563D01*
X189681D01*
Y147437D01*
X185319D01*
Y137563D01*
X185477D01*
Y122179D01*
X185221D01*
Y115794D01*
X184758Y115603D01*
X182671Y117690D01*
X182014Y118129D01*
X181240Y118283D01*
X179544D01*
X179332Y118775D01*
X179551Y119029D01*
X180000Y118970D01*
X180914Y119090D01*
X181765Y119443D01*
X182496Y120004D01*
X183057Y120735D01*
X183410Y121586D01*
X183530Y122500D01*
X183410Y123414D01*
X183057Y124265D01*
X182496Y124996D01*
X181765Y125557D01*
X180914Y125910D01*
X180000Y126030D01*
X179086Y125910D01*
X178235Y125557D01*
X177504Y124996D01*
X176943Y124265D01*
X176590Y123414D01*
X176470Y122500D01*
X176483Y122399D01*
X176153Y122023D01*
X168283D01*
Y123240D01*
X164921D01*
X161559D01*
Y121559D01*
Y117819D01*
Y114079D01*
X168283D01*
Y114237D01*
X180402D01*
X185477Y109162D01*
Y100825D01*
X185221D01*
Y92821D01*
X185477D01*
Y90000D01*
X185631Y89226D01*
X186069Y88569D01*
X187584Y87055D01*
X187377Y86555D01*
X167032D01*
X166257Y86401D01*
X165601Y85962D01*
X156662Y77023D01*
X130842D01*
Y78953D01*
X122937D01*
Y78077D01*
X122475Y77886D01*
X122023Y78338D01*
Y92427D01*
X122280Y92821D01*
X122721D01*
Y92821D01*
X122780Y92821D01*
X127220D01*
X127279Y92821D01*
Y92821D01*
X127477D01*
X127977Y92427D01*
Y88953D01*
X122937D01*
Y81047D01*
X130842D01*
Y86092D01*
X131431Y86680D01*
X131869Y87336D01*
X132023Y88110D01*
Y92403D01*
X132280Y92821D01*
X132720D01*
X132780Y92821D01*
X134500D01*
Y96823D01*
Y100825D01*
X132780D01*
X132720Y100825D01*
X132280D01*
X132220Y100825D01*
X128544D01*
X128267Y101241D01*
X128410Y101586D01*
X128530Y102500D01*
X128410Y103414D01*
X128057Y104265D01*
X127496Y104996D01*
X127478Y105010D01*
X127652Y105507D01*
X128274Y105631D01*
X128931Y106069D01*
X131431Y108569D01*
X131869Y109226D01*
X132023Y110000D01*
Y113781D01*
X132280Y114175D01*
X132720D01*
Y114175D01*
X134500D01*
Y118177D01*
X135000D01*
Y118677D01*
X137279D01*
Y121717D01*
X151716D01*
Y121559D01*
X158441D01*
Y125921D01*
X151716D01*
Y125763D01*
X133475D01*
X132701Y125609D01*
X132045Y125171D01*
X129053Y122179D01*
X127720D01*
Y122179D01*
X127523D01*
X127023Y122573D01*
Y127500D01*
X126869Y128274D01*
X126431Y128931D01*
X123985Y131377D01*
X124082Y131867D01*
X124265Y131943D01*
X124996Y132504D01*
X125557Y133235D01*
X125910Y134086D01*
X126030Y135000D01*
X125910Y135914D01*
X125557Y136765D01*
X125329Y137063D01*
X125575Y137563D01*
X127181D01*
Y147437D01*
X127023D01*
Y147977D01*
X210477D01*
Y147437D01*
D02*
G37*
G36*
X122977D02*
X122819D01*
Y139051D01*
X122500Y138856D01*
X122181Y139051D01*
Y147437D01*
X117819D01*
Y138304D01*
X117319Y138031D01*
X117181Y138119D01*
Y147437D01*
X112819D01*
Y138119D01*
X112681Y138031D01*
X112181Y138304D01*
Y147437D01*
X107819D01*
Y137563D01*
X107977D01*
Y134998D01*
X107515Y134806D01*
X107023Y135298D01*
Y137563D01*
X107181D01*
Y147437D01*
X102819D01*
Y137563D01*
X102977D01*
Y134460D01*
X103131Y133686D01*
X103569Y133030D01*
X105124Y131475D01*
X104878Y131014D01*
X104086Y130910D01*
X103235Y130557D01*
X102523Y130011D01*
X102345Y130038D01*
X102023Y130148D01*
Y137563D01*
X102181D01*
Y147437D01*
X97819D01*
Y137563D01*
X97977D01*
Y132362D01*
X80359D01*
X79996Y132835D01*
X79265Y133396D01*
X78414Y133748D01*
X77500Y133869D01*
X76586Y133748D01*
X75735Y133396D01*
X75004Y132835D01*
X74641Y132362D01*
X62839D01*
X62064Y132208D01*
X61441Y131791D01*
X61318Y131824D01*
X61031Y132000D01*
X58000D01*
Y128955D01*
X58196Y128557D01*
X56069Y126431D01*
X55631Y125774D01*
X55477Y125000D01*
Y122573D01*
X55399Y122453D01*
X54786Y122366D01*
X54523Y122573D01*
Y127500D01*
X54369Y128274D01*
X53931Y128931D01*
X51485Y131377D01*
X51582Y131867D01*
X51765Y131943D01*
X52496Y132504D01*
X53057Y133235D01*
X53410Y134086D01*
X53530Y135000D01*
X53410Y135914D01*
X53057Y136765D01*
X52829Y137063D01*
X53075Y137563D01*
X54681D01*
Y146474D01*
X54819Y146566D01*
X55319Y146299D01*
Y143000D01*
X57000D01*
Y147437D01*
X56563D01*
X56296Y147937D01*
X56323Y147977D01*
X122977D01*
Y147437D01*
D02*
G37*
G36*
X149418Y157477D02*
X149047Y156993D01*
X148649Y156032D01*
X148579Y155500D01*
X152500D01*
Y154500D01*
X148579D01*
X148649Y153968D01*
X149047Y153007D01*
X149418Y152523D01*
X149172Y152023D01*
X55000D01*
X54226Y151869D01*
X53569Y151431D01*
X51069Y148931D01*
X50631Y148274D01*
X50477Y147500D01*
Y147437D01*
X50319D01*
Y139051D01*
X50000Y138856D01*
X49681Y139051D01*
Y147437D01*
X45319D01*
Y138304D01*
X44819Y138031D01*
X44681Y138119D01*
Y147437D01*
X40319D01*
Y138119D01*
X40181Y138031D01*
X39681Y138304D01*
Y147437D01*
X35319D01*
Y137563D01*
X35477D01*
Y133658D01*
X35631Y132884D01*
X36069Y132228D01*
X39212Y129085D01*
X39868Y128647D01*
X40643Y128493D01*
X43017D01*
X43100Y128326D01*
X43151Y127993D01*
X42504Y127496D01*
X41943Y126765D01*
X41590Y125914D01*
X41536Y125500D01*
X45000D01*
Y124500D01*
X41536D01*
X41590Y124086D01*
X41943Y123235D01*
X42369Y122679D01*
X42142Y122179D01*
X40220D01*
Y122179D01*
X40023D01*
X39523Y122573D01*
Y125000D01*
X39369Y125774D01*
X38931Y126431D01*
X34523Y130838D01*
Y137563D01*
X34681D01*
Y147437D01*
X30319D01*
Y137563D01*
X30477D01*
Y135148D01*
X30155Y135038D01*
X29977Y135011D01*
X29523Y135359D01*
Y137563D01*
X29681D01*
Y147437D01*
X29523D01*
Y157977D01*
X149172D01*
X149418Y157477D01*
D02*
G37*
G36*
X281204Y147937D02*
X280937Y147437D01*
X277819D01*
Y138304D01*
X277319Y138031D01*
X277181Y138119D01*
Y147437D01*
X272819D01*
Y138119D01*
X272681Y138031D01*
X272181Y138304D01*
Y147437D01*
X267819D01*
Y137563D01*
X267977D01*
Y133658D01*
X268131Y132884D01*
X268569Y132228D01*
X271712Y129085D01*
X272368Y128647D01*
X273143Y128493D01*
X275517D01*
X275600Y128326D01*
X275651Y127993D01*
X275004Y127496D01*
X274443Y126765D01*
X274090Y125914D01*
X274036Y125500D01*
X277500D01*
Y124500D01*
X274036D01*
X274090Y124086D01*
X274443Y123235D01*
X274869Y122679D01*
X274642Y122179D01*
X272779D01*
X272721Y122179D01*
X272280D01*
X272023Y122500D01*
X271869Y123274D01*
X271431Y123931D01*
X267023Y128338D01*
Y137563D01*
X267181D01*
Y147437D01*
X262819D01*
Y137563D01*
X262977D01*
Y127500D01*
X263131Y126726D01*
X263569Y126069D01*
X266960Y122679D01*
X266753Y122179D01*
X262720D01*
Y122179D01*
X262523D01*
X262023Y122573D01*
Y127500D01*
Y137563D01*
X262181D01*
Y147437D01*
X257819D01*
Y137563D01*
X257977D01*
Y129523D01*
X252859D01*
X252496Y129996D01*
X251765Y130557D01*
X250914Y130910D01*
X250000Y131030D01*
X249086Y130910D01*
X248235Y130557D01*
X247504Y129996D01*
X247141Y129523D01*
X220000D01*
X219226Y129369D01*
X218569Y128931D01*
X216069Y126431D01*
X215631Y125774D01*
X215477Y125000D01*
Y122573D01*
X215399Y122453D01*
X214786Y122366D01*
X214523Y122573D01*
Y127500D01*
X214369Y128274D01*
X213931Y128931D01*
X211485Y131377D01*
X211582Y131867D01*
X211765Y131943D01*
X212496Y132504D01*
X213057Y133235D01*
X213410Y134086D01*
X213530Y135000D01*
X213410Y135914D01*
X213057Y136765D01*
X212829Y137063D01*
X213075Y137563D01*
X214681D01*
Y147437D01*
X214523D01*
Y147977D01*
X281177D01*
X281204Y147937D01*
D02*
G37*
G36*
X97977Y122179D02*
X97720D01*
Y114175D01*
X97977D01*
Y113338D01*
X95402Y110763D01*
X90784D01*
Y110921D01*
X84059D01*
Y107023D01*
X80941D01*
Y110921D01*
X74217D01*
Y110763D01*
X59598D01*
X56648Y113713D01*
X56839Y114175D01*
X59720D01*
X59780Y114175D01*
X60220D01*
X60280Y114175D01*
X62000D01*
Y118177D01*
Y122179D01*
X60280D01*
X60220Y122179D01*
X59780D01*
X59523Y122597D01*
Y124162D01*
X63677Y128315D01*
X74641D01*
X75004Y127842D01*
X75735Y127281D01*
X76586Y126929D01*
X77500Y126808D01*
X78414Y126929D01*
X79265Y127281D01*
X79996Y127842D01*
X80359Y128315D01*
X97977D01*
Y122179D01*
D02*
G37*
G36*
X257977D02*
X257720D01*
Y114175D01*
X257977D01*
Y113338D01*
X255402Y110763D01*
X250783D01*
Y110921D01*
X244059D01*
Y109420D01*
X241441Y106802D01*
X240941Y107009D01*
Y110921D01*
X234216D01*
Y110763D01*
X219598D01*
X216648Y113713D01*
X216839Y114175D01*
X219721D01*
X219779Y114175D01*
X220220D01*
X220280Y114175D01*
X222000D01*
Y118177D01*
Y122179D01*
X220280D01*
X220220Y122179D01*
X219779D01*
X219523Y122597D01*
Y124162D01*
X220838Y125477D01*
X247141D01*
X247504Y125004D01*
X248235Y124443D01*
X249086Y124090D01*
X250000Y123970D01*
X250914Y124090D01*
X251765Y124443D01*
X252496Y125004D01*
X252859Y125477D01*
X257977D01*
Y122179D01*
D02*
G37*
G36*
X30507Y129848D02*
X30631Y129226D01*
X31069Y128569D01*
X35477Y124162D01*
Y122573D01*
X35221Y122179D01*
X34780D01*
Y122179D01*
X34721Y122179D01*
X30220D01*
Y122179D01*
X30023D01*
X29523Y122573D01*
Y129641D01*
X29996Y130004D01*
X30010Y130022D01*
X30507Y129848D01*
D02*
G37*
G36*
X107280Y114175D02*
X107477D01*
X107977Y113781D01*
Y110838D01*
X106662Y109523D01*
X102500D01*
X101726Y109369D01*
X101069Y108931D01*
X99162Y107023D01*
X98091D01*
X97884Y107523D01*
X101431Y111069D01*
X101869Y111726D01*
X102023Y112500D01*
Y113781D01*
X102279Y114175D01*
X102720D01*
Y114175D01*
X107280D01*
Y114175D01*
D02*
G37*
G36*
X280500Y114175D02*
X282279D01*
Y114175D01*
X282720D01*
Y114175D01*
X287280D01*
Y114175D01*
X287477D01*
X287977Y113781D01*
Y112500D01*
X288131Y111726D01*
X288569Y111069D01*
X290170Y109469D01*
X289978Y109007D01*
X271354D01*
X267023Y113338D01*
Y113757D01*
X267280Y114175D01*
X267721D01*
X267779Y114175D01*
X272220D01*
X272280Y114175D01*
X272721D01*
X272779Y114175D01*
X274500D01*
Y118177D01*
X275500D01*
Y114175D01*
X277279D01*
Y114175D01*
X277720D01*
Y114175D01*
X279500D01*
Y118177D01*
X280500D01*
Y114175D01*
D02*
G37*
G36*
X120500D02*
X122280D01*
Y114175D01*
X122721D01*
Y114175D01*
X127279D01*
Y114175D01*
X127477D01*
X127977Y113781D01*
Y110838D01*
X126662Y109523D01*
X122500D01*
X121726Y109369D01*
X121069Y108931D01*
X118569Y106431D01*
X118131Y105774D01*
X117977Y105000D01*
Y101243D01*
X117720Y100825D01*
X117280D01*
X117220Y100825D01*
X115500D01*
Y96823D01*
Y92821D01*
X117220D01*
X117280Y92821D01*
X117720D01*
X117977Y92403D01*
Y77500D01*
X118131Y76726D01*
X118569Y76069D01*
X121069Y73569D01*
X121726Y73131D01*
X122500Y72977D01*
X122937D01*
Y71047D01*
X122937Y71047D01*
X122937D01*
X122756Y70617D01*
X121662Y69523D01*
X117500D01*
X116726Y69369D01*
X116069Y68931D01*
X106069Y58931D01*
X105631Y58274D01*
X105477Y57500D01*
Y47023D01*
X88338D01*
X87886Y47475D01*
X88077Y47937D01*
X88953D01*
Y55843D01*
X81047D01*
Y53913D01*
X76448D01*
X67572Y62789D01*
X66916Y63227D01*
X66142Y63381D01*
X65528D01*
Y66886D01*
X54472D01*
Y66277D01*
X54010Y66086D01*
X47581Y72515D01*
X47773Y72977D01*
X74641D01*
X75004Y72504D01*
X75735Y71943D01*
X76586Y71590D01*
X77500Y71470D01*
X78414Y71590D01*
X79265Y71943D01*
X79996Y72504D01*
X80557Y73235D01*
X80910Y74086D01*
X81030Y75000D01*
X80910Y75914D01*
X80557Y76765D01*
X79996Y77496D01*
X79265Y78057D01*
X78414Y78410D01*
X77500Y78530D01*
X76586Y78410D01*
X75735Y78057D01*
X75004Y77496D01*
X74641Y77023D01*
X47536D01*
X32200Y92359D01*
X32392Y92821D01*
X34721D01*
X34780Y92821D01*
Y92821D01*
X35221D01*
Y92821D01*
X37000D01*
Y96823D01*
X38000D01*
Y92821D01*
X39720D01*
X39779Y92821D01*
X40220D01*
X40279Y92821D01*
X42000D01*
Y96823D01*
X43000D01*
Y92821D01*
X44721D01*
X44780Y92821D01*
X45221D01*
X45279Y92821D01*
X49779D01*
X49779Y92821D01*
X50221D01*
Y92821D01*
X50279Y92821D01*
X54720D01*
X54779Y92821D01*
Y92821D01*
X55221D01*
Y92821D01*
X59780D01*
Y92821D01*
X60220D01*
Y92821D01*
X62000D01*
Y96823D01*
X62500D01*
Y97323D01*
X64780D01*
Y99206D01*
X65241Y99397D01*
X76069Y88569D01*
X76726Y88131D01*
X77500Y87977D01*
X91662D01*
X92977Y86662D01*
Y83480D01*
X91760D01*
Y79626D01*
Y75772D01*
X92977D01*
Y74228D01*
X92819D01*
Y66520D01*
X96391D01*
X96669Y66104D01*
X96590Y65914D01*
X96470Y65000D01*
X96590Y64086D01*
X96943Y63235D01*
X97504Y62504D01*
X97977Y62141D01*
Y55843D01*
X96047D01*
Y47937D01*
X103953D01*
Y55843D01*
X102023D01*
Y62141D01*
X102496Y62504D01*
X103057Y63235D01*
X103410Y64086D01*
X103530Y65000D01*
X103410Y65914D01*
X103057Y66765D01*
X102496Y67496D01*
X102034Y67851D01*
X102204Y68351D01*
X108484D01*
X109258Y68505D01*
X109915Y68943D01*
X112019Y71047D01*
X117063D01*
Y78953D01*
X109158D01*
Y73908D01*
X107646Y72397D01*
X97181D01*
Y74228D01*
X97023D01*
Y75772D01*
X100921D01*
Y82977D01*
X109158D01*
Y81047D01*
X117063D01*
Y88953D01*
X109158D01*
Y87023D01*
X102648D01*
X102538Y87345D01*
X102511Y87523D01*
X103057Y88235D01*
X103410Y89086D01*
X103530Y90000D01*
X103410Y90914D01*
X103057Y91765D01*
X102589Y92375D01*
X102858Y92821D01*
X107220D01*
X107280Y92821D01*
Y92821D01*
X107720D01*
Y92821D01*
X109500D01*
Y96823D01*
Y100825D01*
X108545D01*
X108267Y101241D01*
X108410Y101586D01*
X108530Y102500D01*
X108410Y103414D01*
X108057Y104265D01*
X107496Y104996D01*
X107478Y105010D01*
X107652Y105507D01*
X108274Y105631D01*
X108931Y106069D01*
X111431Y108569D01*
X111869Y109226D01*
X112023Y110000D01*
Y113781D01*
X112279Y114175D01*
X112721D01*
Y114175D01*
X114500D01*
Y118177D01*
X115500D01*
Y114175D01*
X117280D01*
Y114175D01*
X117720D01*
Y114175D01*
X119500D01*
Y118177D01*
X120500D01*
Y114175D01*
D02*
G37*
G36*
X48000D02*
X49779D01*
Y114175D01*
X50221D01*
X50699Y114124D01*
X51069Y113569D01*
X55170Y109469D01*
X54978Y109007D01*
X41354D01*
X36648Y113713D01*
X36839Y114175D01*
X39779D01*
Y114175D01*
X40220D01*
Y114175D01*
X42000D01*
Y118177D01*
X43000D01*
Y114175D01*
X44780D01*
Y114175D01*
X45221D01*
Y114175D01*
X47000D01*
Y118177D01*
X48000D01*
Y114175D01*
D02*
G37*
G36*
X205477Y104162D02*
Y101243D01*
X205221Y100825D01*
X204780D01*
X204720Y100825D01*
X203000D01*
Y96823D01*
Y92821D01*
X204720D01*
X204780Y92821D01*
X205221D01*
X205279Y92821D01*
X205506D01*
X205631Y92194D01*
X206069Y91538D01*
X211538Y86069D01*
X212194Y85631D01*
X212968Y85477D01*
X237500D01*
X238274Y85631D01*
X238931Y86069D01*
X243931Y91069D01*
X244369Y91726D01*
X244523Y92500D01*
Y99079D01*
X245477D01*
Y90838D01*
X239162Y84523D01*
X205148D01*
X205038Y84845D01*
X205011Y85023D01*
X205557Y85735D01*
X205910Y86586D01*
X205964Y87000D01*
X199036D01*
X199090Y86586D01*
X199443Y85735D01*
X199989Y85023D01*
X199962Y84845D01*
X199852Y84523D01*
X195838D01*
X189523Y90838D01*
Y92427D01*
X189779Y92821D01*
X190220D01*
Y92821D01*
X190279Y92821D01*
X194720D01*
X194780Y92821D01*
Y92821D01*
X195220D01*
Y92821D01*
X197000D01*
Y96823D01*
Y100825D01*
X196045D01*
X195767Y101241D01*
X195910Y101586D01*
X196030Y102500D01*
X195910Y103414D01*
X195557Y104265D01*
X195362Y104520D01*
X195396Y104674D01*
X195617Y105008D01*
X204630D01*
X205477Y104162D01*
D02*
G37*
G36*
X32056Y106424D02*
X31896Y105951D01*
X31586Y105910D01*
X30735Y105557D01*
X30004Y104996D01*
X29443Y104265D01*
X29090Y103414D01*
X28970Y102500D01*
X29090Y101586D01*
X29233Y101241D01*
X28956Y100825D01*
X25221D01*
Y95529D01*
X24758Y95338D01*
X22023Y98073D01*
Y106662D01*
X26921Y111560D01*
X32056Y106424D01*
D02*
G37*
G36*
X216726Y103131D02*
X217500Y102977D01*
X234216D01*
Y101760D01*
X237579D01*
Y101260D01*
X238079D01*
Y99079D01*
X240477D01*
Y93338D01*
X236662Y89523D01*
X232648D01*
X232538Y89845D01*
X232511Y90023D01*
X233057Y90735D01*
X233410Y91586D01*
X233464Y92000D01*
X226536D01*
X226590Y91586D01*
X226943Y90735D01*
X227489Y90023D01*
X227462Y89845D01*
X227352Y89523D01*
X213807D01*
X210971Y92359D01*
X211162Y92821D01*
X214721D01*
X214779Y92821D01*
Y92821D01*
X215220D01*
Y92821D01*
X219721D01*
X219779Y92821D01*
X220220D01*
X220280Y92821D01*
X222000D01*
Y96823D01*
Y100825D01*
X220280D01*
X220220Y100825D01*
X219779D01*
X219721Y100825D01*
X216044D01*
X215767Y101241D01*
X215910Y101586D01*
X216030Y102500D01*
X215959Y103042D01*
X216425Y103332D01*
X216726Y103131D01*
D02*
G37*
G36*
X74217Y102819D02*
Y101760D01*
X80941D01*
Y102977D01*
X84059D01*
Y99079D01*
X90784D01*
Y99237D01*
X94725D01*
X97720Y96241D01*
Y92821D01*
X97454Y92431D01*
X96943Y91765D01*
X96590Y90914D01*
X96470Y90000D01*
X96531Y89538D01*
X96057Y89304D01*
X93931Y91431D01*
X93274Y91869D01*
X92500Y92023D01*
X85148D01*
X85038Y92345D01*
X85011Y92523D01*
X85557Y93235D01*
X85910Y94086D01*
X85964Y94500D01*
X79036D01*
X79090Y94086D01*
X79443Y93235D01*
X79989Y92523D01*
X79962Y92345D01*
X79852Y92023D01*
X78338D01*
X64106Y106255D01*
X64297Y106717D01*
X74217D01*
Y102819D01*
D02*
G37*
G36*
X299237Y102902D02*
Y88283D01*
X299079D01*
Y82023D01*
X297691D01*
X297525Y82433D01*
X297511Y82523D01*
X298057Y83235D01*
X298410Y84086D01*
X298464Y84500D01*
X295500D01*
Y81454D01*
X295696Y81057D01*
X291304Y76666D01*
X290843Y76857D01*
Y78953D01*
X282937D01*
Y78077D01*
X282475Y77886D01*
X282023Y78338D01*
Y92427D01*
X282279Y92821D01*
X282720D01*
Y92821D01*
X282780Y92821D01*
X287221D01*
X287280Y92821D01*
Y92821D01*
X287477D01*
X287977Y92427D01*
Y88953D01*
X282937D01*
Y81047D01*
X290843D01*
Y86092D01*
X291321Y86570D01*
X291744Y86287D01*
X291590Y85914D01*
X291536Y85500D01*
X294500D01*
Y88464D01*
X294086Y88410D01*
X293235Y88057D01*
X292504Y87496D01*
X292378Y87333D01*
X291911Y87545D01*
X292023Y88110D01*
Y92403D01*
X292280Y92821D01*
X292721D01*
X292779Y92821D01*
X294500D01*
Y96823D01*
Y100825D01*
X292779D01*
X292721Y100825D01*
X292280D01*
X292220Y100825D01*
X288545D01*
X288267Y101241D01*
X288410Y101586D01*
X288530Y102500D01*
X288410Y103414D01*
X288057Y104265D01*
X287867Y104513D01*
X288088Y104961D01*
X297178D01*
X299237Y102902D01*
D02*
G37*
G36*
X306717Y105422D02*
Y88283D01*
X306559D01*
Y82023D01*
X303441D01*
Y88283D01*
X303283D01*
Y103740D01*
X303129Y104514D01*
X302690Y105171D01*
X300346Y107515D01*
X300537Y107977D01*
X304162D01*
X306717Y105422D01*
D02*
G37*
%LPC*%
G36*
X132181Y147437D02*
X130500D01*
Y143000D01*
X132181D01*
Y147437D01*
D02*
G37*
G36*
X137181D02*
X135500D01*
Y143000D01*
X137181D01*
Y147437D01*
D02*
G37*
G36*
X129500D02*
X127819D01*
Y143000D01*
X129500D01*
Y147437D01*
D02*
G37*
G36*
X134500D02*
X132819D01*
Y143000D01*
X134500D01*
Y147437D01*
D02*
G37*
G36*
X137181Y142000D02*
X135500D01*
Y137563D01*
X137181D01*
Y142000D01*
D02*
G37*
G36*
X134500D02*
X132819D01*
Y137563D01*
X134500D01*
Y142000D01*
D02*
G37*
G36*
X132181D02*
X130500D01*
Y137563D01*
X132181D01*
Y142000D01*
D02*
G37*
G36*
X129500D02*
X127819D01*
Y137563D01*
X129500D01*
Y142000D01*
D02*
G37*
G36*
X168283Y125921D02*
X165421D01*
Y124240D01*
X168283D01*
Y125921D01*
D02*
G37*
G36*
X164421D02*
X161559D01*
Y124240D01*
X164421D01*
Y125921D01*
D02*
G37*
G36*
X137279Y117677D02*
X135500D01*
Y114175D01*
X137279D01*
Y117677D01*
D02*
G37*
G36*
X146240Y119790D02*
X145326Y119670D01*
X144475Y119317D01*
X143744Y118756D01*
X143183Y118025D01*
X142830Y117174D01*
X142710Y116260D01*
X142830Y115346D01*
X143183Y114495D01*
X143744Y113764D01*
X144475Y113203D01*
X145326Y112850D01*
X146240Y112730D01*
X147154Y112850D01*
X148005Y113203D01*
X148736Y113764D01*
X149099Y114237D01*
X151716D01*
Y114079D01*
X158441D01*
Y118441D01*
X151716D01*
Y118283D01*
X149099D01*
X148736Y118756D01*
X148005Y119317D01*
X147154Y119670D01*
X146240Y119790D01*
D02*
G37*
G36*
X155500Y100964D02*
Y98000D01*
X158464D01*
X158410Y98414D01*
X158057Y99265D01*
X157496Y99996D01*
X156765Y100557D01*
X155914Y100910D01*
X155500Y100964D01*
D02*
G37*
G36*
X154500D02*
X154086Y100910D01*
X153235Y100557D01*
X152504Y99996D01*
X151943Y99265D01*
X151590Y98414D01*
X151536Y98000D01*
X154500D01*
Y100964D01*
D02*
G37*
G36*
X135500Y100825D02*
Y97323D01*
X137279D01*
Y100825D01*
X135500D01*
D02*
G37*
G36*
X158464Y97000D02*
X155500D01*
Y94036D01*
X155914Y94090D01*
X156765Y94443D01*
X157496Y95004D01*
X158057Y95735D01*
X158410Y96586D01*
X158464Y97000D01*
D02*
G37*
G36*
X154500D02*
X151536D01*
X151590Y96586D01*
X151943Y95735D01*
X152504Y95004D01*
X153235Y94443D01*
X154086Y94090D01*
X154500Y94036D01*
Y97000D01*
D02*
G37*
G36*
X137279Y96323D02*
X135500D01*
Y92821D01*
X137279D01*
Y96323D01*
D02*
G37*
G36*
X64681Y147437D02*
X63000D01*
Y143000D01*
X64681D01*
Y147437D01*
D02*
G37*
G36*
X59681D02*
X58000D01*
Y143000D01*
X59681D01*
Y147437D01*
D02*
G37*
G36*
X62000D02*
X60319D01*
Y143000D01*
X62000D01*
Y147437D01*
D02*
G37*
G36*
X85500Y143464D02*
Y140500D01*
X88464D01*
X88410Y140914D01*
X88057Y141765D01*
X87496Y142496D01*
X86765Y143057D01*
X85914Y143410D01*
X85500Y143464D01*
D02*
G37*
G36*
X84500D02*
X84086Y143410D01*
X83235Y143057D01*
X82504Y142496D01*
X81943Y141765D01*
X81590Y140914D01*
X81536Y140500D01*
X84500D01*
Y143464D01*
D02*
G37*
G36*
X64681Y142000D02*
X63000D01*
Y137563D01*
X64681D01*
Y142000D01*
D02*
G37*
G36*
X62000D02*
X60319D01*
Y137563D01*
X62000D01*
Y142000D01*
D02*
G37*
G36*
X59681D02*
X58000D01*
Y137563D01*
X59681D01*
Y142000D01*
D02*
G37*
G36*
X57000D02*
X55319D01*
Y137563D01*
X57000D01*
Y142000D01*
D02*
G37*
G36*
X88464Y139500D02*
X85500D01*
Y136536D01*
X85914Y136590D01*
X86765Y136943D01*
X87496Y137504D01*
X88057Y138235D01*
X88410Y139086D01*
X88464Y139500D01*
D02*
G37*
G36*
X84500D02*
X81536D01*
X81590Y139086D01*
X81943Y138235D01*
X82504Y137504D01*
X83235Y136943D01*
X84086Y136590D01*
X84500Y136536D01*
Y139500D01*
D02*
G37*
G36*
X58000Y135964D02*
Y133000D01*
X60964D01*
X60910Y133414D01*
X60557Y134265D01*
X59996Y134996D01*
X59265Y135557D01*
X58414Y135910D01*
X58000Y135964D01*
D02*
G37*
G36*
X57000D02*
X56586Y135910D01*
X55735Y135557D01*
X55004Y134996D01*
X54443Y134265D01*
X54090Y133414D01*
X54036Y133000D01*
X57000D01*
Y135964D01*
D02*
G37*
G36*
Y132000D02*
X54036D01*
X54090Y131586D01*
X54443Y130735D01*
X55004Y130004D01*
X55735Y129443D01*
X56586Y129090D01*
X57000Y129036D01*
Y132000D01*
D02*
G37*
G36*
X224681Y147437D02*
X223000D01*
Y143000D01*
X224681D01*
Y147437D01*
D02*
G37*
G36*
X219681D02*
X218000D01*
Y143000D01*
X219681D01*
Y147437D01*
D02*
G37*
G36*
X217000D02*
X215319D01*
Y143000D01*
X217000D01*
Y147437D01*
D02*
G37*
G36*
X222000D02*
X220319D01*
Y143000D01*
X222000D01*
Y147437D01*
D02*
G37*
G36*
X224681Y142000D02*
X223000D01*
Y137563D01*
X224681D01*
Y142000D01*
D02*
G37*
G36*
X222000D02*
X220319D01*
Y137563D01*
X222000D01*
Y142000D01*
D02*
G37*
G36*
X219681D02*
X218000D01*
Y137563D01*
X219681D01*
Y142000D01*
D02*
G37*
G36*
X217000D02*
X215319D01*
Y137563D01*
X217000D01*
Y142000D01*
D02*
G37*
G36*
X85500Y123464D02*
Y120500D01*
X88464D01*
X88410Y120914D01*
X88057Y121765D01*
X87496Y122496D01*
X86765Y123057D01*
X85914Y123410D01*
X85500Y123464D01*
D02*
G37*
G36*
X84500D02*
X84086Y123410D01*
X83235Y123057D01*
X82504Y122496D01*
X81943Y121765D01*
X81590Y120914D01*
X81536Y120500D01*
X84500D01*
Y123464D01*
D02*
G37*
G36*
X63000Y122179D02*
Y118677D01*
X64780D01*
Y122179D01*
X63000D01*
D02*
G37*
G36*
X88464Y119500D02*
X85500D01*
Y116536D01*
X85914Y116590D01*
X86765Y116943D01*
X87496Y117504D01*
X88057Y118235D01*
X88410Y119086D01*
X88464Y119500D01*
D02*
G37*
G36*
X84500D02*
X81536D01*
X81590Y119086D01*
X81943Y118235D01*
X82504Y117504D01*
X83235Y116943D01*
X84086Y116590D01*
X84500Y116536D01*
Y119500D01*
D02*
G37*
G36*
X64780Y117677D02*
X63000D01*
Y114175D01*
X64780D01*
Y117677D01*
D02*
G37*
G36*
X223000Y122179D02*
Y118677D01*
X224780D01*
Y122179D01*
X223000D01*
D02*
G37*
G36*
X250500Y118464D02*
Y115500D01*
X253464D01*
X253410Y115914D01*
X253057Y116765D01*
X252496Y117496D01*
X251765Y118057D01*
X250914Y118410D01*
X250500Y118464D01*
D02*
G37*
G36*
X249500D02*
X249086Y118410D01*
X248235Y118057D01*
X247504Y117496D01*
X246943Y116765D01*
X246590Y115914D01*
X246536Y115500D01*
X249500D01*
Y118464D01*
D02*
G37*
G36*
X230500D02*
Y115500D01*
X233464D01*
X233410Y115914D01*
X233057Y116765D01*
X232496Y117496D01*
X231765Y118057D01*
X230914Y118410D01*
X230500Y118464D01*
D02*
G37*
G36*
X229500D02*
X229086Y118410D01*
X228235Y118057D01*
X227504Y117496D01*
X226943Y116765D01*
X226590Y115914D01*
X226536Y115500D01*
X229500D01*
Y118464D01*
D02*
G37*
G36*
X224780Y117677D02*
X223000D01*
Y114175D01*
X224780D01*
Y117677D01*
D02*
G37*
G36*
X253464Y114500D02*
X250500D01*
Y111536D01*
X250914Y111590D01*
X251765Y111943D01*
X252496Y112504D01*
X253057Y113235D01*
X253410Y114086D01*
X253464Y114500D01*
D02*
G37*
G36*
X249500D02*
X246536D01*
X246590Y114086D01*
X246943Y113235D01*
X247504Y112504D01*
X248235Y111943D01*
X249086Y111590D01*
X249500Y111536D01*
Y114500D01*
D02*
G37*
G36*
X233464D02*
X230500D01*
Y111536D01*
X230914Y111590D01*
X231765Y111943D01*
X232496Y112504D01*
X233057Y113235D01*
X233410Y114086D01*
X233464Y114500D01*
D02*
G37*
G36*
X229500D02*
X226536D01*
X226590Y114086D01*
X226943Y113235D01*
X227504Y112504D01*
X228235Y111943D01*
X229086Y111590D01*
X229500Y111536D01*
Y114500D01*
D02*
G37*
G36*
X64780Y96323D02*
X63000D01*
Y92821D01*
X64780D01*
Y96323D01*
D02*
G37*
G36*
X112721Y100825D02*
X112279D01*
X112221Y100825D01*
X110500D01*
Y96823D01*
Y92821D01*
X112221D01*
X112279Y92821D01*
X112721D01*
X112779Y92821D01*
X114500D01*
Y96823D01*
Y100825D01*
X112779D01*
X112721Y100825D01*
D02*
G37*
G36*
X63000Y90964D02*
Y88000D01*
X65964D01*
X65910Y88414D01*
X65557Y89265D01*
X64996Y89996D01*
X64265Y90557D01*
X63414Y90910D01*
X63000Y90964D01*
D02*
G37*
G36*
X62000D02*
X61586Y90910D01*
X60735Y90557D01*
X60004Y89996D01*
X59443Y89265D01*
X59090Y88414D01*
X59036Y88000D01*
X62000D01*
Y90964D01*
D02*
G37*
G36*
X65964Y87000D02*
X63000D01*
Y84036D01*
X63414Y84090D01*
X64265Y84443D01*
X64996Y85004D01*
X65557Y85735D01*
X65910Y86586D01*
X65964Y87000D01*
D02*
G37*
G36*
X62000D02*
X59036D01*
X59090Y86586D01*
X59443Y85735D01*
X60004Y85004D01*
X60735Y84443D01*
X61586Y84090D01*
X62000Y84036D01*
Y87000D01*
D02*
G37*
G36*
X90760Y83480D02*
X89079D01*
Y80126D01*
X90760D01*
Y83480D01*
D02*
G37*
G36*
Y79126D02*
X89079D01*
Y75772D01*
X90760D01*
Y79126D01*
D02*
G37*
G36*
X200220Y100825D02*
X199779D01*
X199721Y100825D01*
X198000D01*
Y96823D01*
Y92821D01*
X199721D01*
X199779Y92821D01*
X200220D01*
X200279Y92821D01*
X202000D01*
Y96823D01*
Y100825D01*
X200279D01*
X200220Y100825D01*
D02*
G37*
G36*
X203000Y90964D02*
Y88000D01*
X205964D01*
X205910Y88414D01*
X205557Y89265D01*
X204996Y89996D01*
X204265Y90557D01*
X203414Y90910D01*
X203000Y90964D01*
D02*
G37*
G36*
X202000D02*
X201586Y90910D01*
X200735Y90557D01*
X200004Y89996D01*
X199443Y89265D01*
X199090Y88414D01*
X199036Y88000D01*
X202000D01*
Y90964D01*
D02*
G37*
G36*
X237079Y100760D02*
X234216D01*
Y99079D01*
X237079D01*
Y100760D01*
D02*
G37*
G36*
X223000Y100825D02*
Y97323D01*
X224780D01*
Y100825D01*
X223000D01*
D02*
G37*
G36*
X230500Y95964D02*
Y93000D01*
X233464D01*
X233410Y93414D01*
X233057Y94265D01*
X232496Y94996D01*
X231765Y95557D01*
X230914Y95910D01*
X230500Y95964D01*
D02*
G37*
G36*
X229500D02*
X229086Y95910D01*
X228235Y95557D01*
X227504Y94996D01*
X226943Y94265D01*
X226590Y93414D01*
X226536Y93000D01*
X229500D01*
Y95964D01*
D02*
G37*
G36*
X224780Y96323D02*
X223000D01*
Y92821D01*
X224780D01*
Y96323D01*
D02*
G37*
G36*
X80941Y100760D02*
X78079D01*
Y99079D01*
X80941D01*
Y100760D01*
D02*
G37*
G36*
X77079D02*
X74217D01*
Y99079D01*
X77079D01*
Y100760D01*
D02*
G37*
G36*
X83000Y98464D02*
Y95500D01*
X85964D01*
X85910Y95914D01*
X85557Y96765D01*
X84996Y97496D01*
X84265Y98057D01*
X83414Y98410D01*
X83000Y98464D01*
D02*
G37*
G36*
X82000D02*
X81586Y98410D01*
X80735Y98057D01*
X80004Y97496D01*
X79443Y96765D01*
X79090Y95914D01*
X79036Y95500D01*
X82000D01*
Y98464D01*
D02*
G37*
G36*
X295500Y100825D02*
Y97323D01*
X297280D01*
Y100825D01*
X295500D01*
D02*
G37*
G36*
X297280Y96323D02*
X295500D01*
Y92821D01*
X297280D01*
Y96323D01*
D02*
G37*
G36*
X295500Y88464D02*
Y85500D01*
X298464D01*
X298410Y85914D01*
X298057Y86765D01*
X297496Y87496D01*
X296765Y88057D01*
X295914Y88410D01*
X295500Y88464D01*
D02*
G37*
G36*
X294500Y84500D02*
X291536D01*
X291590Y84086D01*
X291943Y83235D01*
X292504Y82504D01*
X293235Y81943D01*
X294086Y81590D01*
X294500Y81536D01*
Y84500D01*
D02*
G37*
%LPD*%
D10*
X295039Y55413D02*
D03*
Y19587D02*
D03*
X276142Y55413D02*
D03*
Y19587D02*
D03*
X266358Y55413D02*
D03*
Y19587D02*
D03*
X247461Y55413D02*
D03*
Y19587D02*
D03*
D11*
X163500Y280890D02*
D03*
Y267110D02*
D03*
Y250890D02*
D03*
Y237110D02*
D03*
X115000Y15610D02*
D03*
Y29390D02*
D03*
X100000Y15610D02*
D03*
Y29390D02*
D03*
X85000Y15610D02*
D03*
Y29390D02*
D03*
X115000Y51890D02*
D03*
Y38110D02*
D03*
X100000Y51890D02*
D03*
Y38110D02*
D03*
X85000Y51890D02*
D03*
Y38110D02*
D03*
X250000Y204390D02*
D03*
Y190610D02*
D03*
X237500Y204390D02*
D03*
Y190610D02*
D03*
X310000Y204390D02*
D03*
Y190610D02*
D03*
X227500Y204390D02*
D03*
Y190610D02*
D03*
X300000Y204390D02*
D03*
Y190610D02*
D03*
X217500Y204390D02*
D03*
Y190610D02*
D03*
X290000Y204390D02*
D03*
Y190610D02*
D03*
X207500Y204390D02*
D03*
Y190610D02*
D03*
X280000Y204390D02*
D03*
Y190610D02*
D03*
X197500Y204390D02*
D03*
Y190610D02*
D03*
X270000Y204390D02*
D03*
Y190610D02*
D03*
X177500Y204390D02*
D03*
Y190610D02*
D03*
X187500Y204390D02*
D03*
Y190610D02*
D03*
X260000Y204390D02*
D03*
Y190610D02*
D03*
X77500Y204390D02*
D03*
Y190610D02*
D03*
X150000Y204390D02*
D03*
Y190610D02*
D03*
X67500Y204390D02*
D03*
Y190610D02*
D03*
X140000Y204390D02*
D03*
Y190610D02*
D03*
X57500Y204390D02*
D03*
Y190610D02*
D03*
X130000Y204390D02*
D03*
Y190610D02*
D03*
X47500Y204390D02*
D03*
Y190610D02*
D03*
X120000Y204390D02*
D03*
Y190610D02*
D03*
X37500Y204390D02*
D03*
Y190610D02*
D03*
X110000Y204390D02*
D03*
Y190610D02*
D03*
X17500Y204390D02*
D03*
Y190610D02*
D03*
X90000Y204390D02*
D03*
Y190610D02*
D03*
X27500Y204390D02*
D03*
Y190610D02*
D03*
X100000Y204390D02*
D03*
Y190610D02*
D03*
X163500Y204890D02*
D03*
Y191110D02*
D03*
X10000Y140000D02*
D03*
D12*
X261890Y7500D02*
D03*
X248110D02*
D03*
X218110Y75000D02*
D03*
X231890D02*
D03*
X151890Y57500D02*
D03*
X138110D02*
D03*
Y47500D02*
D03*
X151890D02*
D03*
Y27500D02*
D03*
X138110D02*
D03*
X291890Y7500D02*
D03*
X278110D02*
D03*
X113110Y75000D02*
D03*
X126890D02*
D03*
Y85000D02*
D03*
X113110D02*
D03*
X138110Y37500D02*
D03*
X151890D02*
D03*
X273110Y75000D02*
D03*
X286890D02*
D03*
Y85000D02*
D03*
X273110D02*
D03*
X195000Y77500D02*
D03*
X172500Y167500D02*
D03*
Y155000D02*
D03*
D13*
X260000Y96823D02*
D03*
X265000D02*
D03*
X270000D02*
D03*
X275000D02*
D03*
X280000D02*
D03*
X285000D02*
D03*
X290000D02*
D03*
X295000D02*
D03*
Y118177D02*
D03*
X290000D02*
D03*
X285000D02*
D03*
X280000D02*
D03*
X275000D02*
D03*
X270000D02*
D03*
X265000D02*
D03*
X260000D02*
D03*
X100000Y96823D02*
D03*
X105000D02*
D03*
X110000D02*
D03*
X115000D02*
D03*
X120000D02*
D03*
X125000D02*
D03*
X130000D02*
D03*
X135000D02*
D03*
Y118177D02*
D03*
X130000D02*
D03*
X125000D02*
D03*
X120000D02*
D03*
X115000D02*
D03*
X110000D02*
D03*
X105000D02*
D03*
X100000D02*
D03*
X27500Y96823D02*
D03*
X32500D02*
D03*
X37500D02*
D03*
X42500D02*
D03*
X47500D02*
D03*
X52500D02*
D03*
X57500D02*
D03*
X62500D02*
D03*
Y118177D02*
D03*
X57500D02*
D03*
X52500D02*
D03*
X47500D02*
D03*
X42500D02*
D03*
X37500D02*
D03*
X32500D02*
D03*
X27500D02*
D03*
X187500Y96823D02*
D03*
X192500D02*
D03*
X197500D02*
D03*
X202500D02*
D03*
X207500D02*
D03*
X212500D02*
D03*
X217500D02*
D03*
X222500D02*
D03*
Y118177D02*
D03*
X217500D02*
D03*
X212500D02*
D03*
X207500D02*
D03*
X202500D02*
D03*
X197500D02*
D03*
X192500D02*
D03*
X187500D02*
D03*
D14*
X77579Y108740D02*
D03*
Y105000D02*
D03*
Y101260D02*
D03*
X87421D02*
D03*
Y108740D02*
D03*
X164921Y116260D02*
D03*
Y120000D02*
D03*
Y123740D02*
D03*
X155079D02*
D03*
Y116260D02*
D03*
X237579Y108740D02*
D03*
Y105000D02*
D03*
Y101260D02*
D03*
X247421D02*
D03*
Y108740D02*
D03*
D15*
X95000Y70374D02*
D03*
X91260Y79626D02*
D03*
X98740D02*
D03*
X255000Y70374D02*
D03*
X251260Y79626D02*
D03*
X258740D02*
D03*
D16*
X301260Y75079D02*
D03*
X305000D02*
D03*
X308740D02*
D03*
Y84921D02*
D03*
X301260D02*
D03*
D17*
X187500Y142500D02*
D03*
X192500D02*
D03*
X197500D02*
D03*
X202500D02*
D03*
X207500D02*
D03*
X212500D02*
D03*
X217500D02*
D03*
X222500D02*
D03*
X187500Y166957D02*
D03*
X192500D02*
D03*
X197500D02*
D03*
X202500D02*
D03*
X207500D02*
D03*
X212500D02*
D03*
X217500D02*
D03*
X222500D02*
D03*
X260000Y142500D02*
D03*
X265000D02*
D03*
X270000D02*
D03*
X275000D02*
D03*
X280000D02*
D03*
X285000D02*
D03*
X290000D02*
D03*
X295000D02*
D03*
X260000Y166957D02*
D03*
X265000D02*
D03*
X270000D02*
D03*
X275000D02*
D03*
X280000D02*
D03*
X285000D02*
D03*
X290000D02*
D03*
X295000D02*
D03*
X100000Y142500D02*
D03*
X105000D02*
D03*
X110000D02*
D03*
X115000D02*
D03*
X120000D02*
D03*
X125000D02*
D03*
X130000D02*
D03*
X135000D02*
D03*
X100000Y166957D02*
D03*
X105000D02*
D03*
X110000D02*
D03*
X115000D02*
D03*
X120000D02*
D03*
X125000D02*
D03*
X130000D02*
D03*
X135000D02*
D03*
X27500Y142500D02*
D03*
X32500D02*
D03*
X37500D02*
D03*
X42500D02*
D03*
X47500D02*
D03*
X52500D02*
D03*
X57500D02*
D03*
X62500D02*
D03*
X27500Y166957D02*
D03*
X32500D02*
D03*
X37500D02*
D03*
X42500D02*
D03*
X47500D02*
D03*
X52500D02*
D03*
X57500D02*
D03*
X62500D02*
D03*
D18*
X60000Y14095D02*
D03*
Y25905D02*
D03*
D19*
X60000Y61358D02*
D03*
Y43642D02*
D03*
D20*
X32500Y96823D02*
Y102500D01*
X285000Y96823D02*
Y102500D01*
X265000Y96823D02*
Y102500D01*
X105000Y96823D02*
Y102500D01*
X125000Y96823D02*
Y102500D01*
X52500Y96823D02*
Y102500D01*
X162500Y20000D02*
X170000Y27500D01*
X145610Y20000D02*
X162500D01*
X138110Y27500D02*
X145610Y20000D01*
X45000Y120677D02*
X47500Y118177D01*
X45000Y120677D02*
Y125000D01*
X42500Y118177D02*
X45000Y120677D01*
X52500Y118177D02*
Y127500D01*
X49484Y130516D02*
X52500Y127500D01*
X40643Y130516D02*
X49484D01*
X117500Y120677D02*
X120000Y118177D01*
X117500Y120677D02*
Y125000D01*
X115000Y118177D02*
X117500Y120677D01*
X205000D02*
X207500Y118177D01*
X205000Y120677D02*
Y125000D01*
X202500Y118177D02*
X205000Y120677D01*
X275677Y118177D02*
X277500Y120000D01*
X275000Y118177D02*
X275677D01*
X277500Y120000D02*
X279323Y118177D01*
X277500Y120000D02*
Y125000D01*
X285000Y118177D02*
Y127500D01*
X281984Y130516D02*
X285000Y127500D01*
X273143Y130516D02*
X281984D01*
X270000Y133658D02*
Y142500D01*
Y133658D02*
X273143Y130516D01*
X212500Y118177D02*
Y127500D01*
X209484Y130516D02*
X212500Y127500D01*
X200643Y130516D02*
X209484D01*
X207500Y137500D02*
X210000Y135000D01*
X207500Y137500D02*
Y142500D01*
X202500Y135000D02*
Y142500D01*
X192500Y134460D02*
Y142500D01*
X197500Y133658D02*
Y142500D01*
Y133658D02*
X200643Y130516D01*
X192500Y134460D02*
X197500Y129460D01*
Y118177D02*
Y129460D01*
X192500Y118177D02*
Y127500D01*
X187500Y118177D02*
Y142500D01*
X113143Y130516D02*
X121984D01*
X125000Y127500D01*
Y118177D02*
Y127500D01*
X110000Y133658D02*
X113143Y130516D01*
X105000Y134460D02*
Y142500D01*
X110000Y133658D02*
Y142500D01*
X105000Y134460D02*
X110000Y129460D01*
Y118177D02*
Y129460D01*
X47500Y137500D02*
X50000Y135000D01*
X47500Y137500D02*
Y142500D01*
X37500Y133658D02*
X40643Y130516D01*
X37500Y133658D02*
Y142500D01*
X32500Y130000D02*
Y142500D01*
X27500Y132500D02*
Y142500D01*
Y118177D02*
Y132500D01*
X42500Y135000D02*
Y142500D01*
X77500Y90000D02*
X92500D01*
X57530Y105772D02*
X61728D01*
X77500Y90000D01*
X92500D02*
X95000Y87500D01*
X237500D02*
X242500Y92500D01*
X212968Y87500D02*
X237500D01*
X207500Y92968D02*
X212968Y87500D01*
X195000Y82500D02*
X240000D01*
X247500Y90000D01*
X187500D02*
X195000Y82500D01*
X27500Y94198D02*
X46698Y75000D01*
X77500D01*
X107500Y45000D02*
X122500D01*
X87500D02*
X107500D01*
X126890Y71890D02*
Y75000D01*
X122500Y67500D02*
X126890Y71890D01*
X117500Y67500D02*
X122500D01*
X107500Y57500D02*
X117500Y67500D01*
X107500Y45000D02*
Y57500D01*
X85000Y47500D02*
X87500Y45000D01*
X85000Y47500D02*
Y51890D01*
X122500Y45000D02*
X127500Y40000D01*
Y32500D02*
Y40000D01*
Y32500D02*
X132500Y27500D01*
X138110D01*
X77500Y130339D02*
X100000D01*
X62839D02*
X77500D01*
X27500Y142500D02*
Y160000D01*
X100000D01*
X27500D02*
Y166957D01*
X250000Y160000D02*
X260000D01*
X187500D02*
X250000D01*
Y127500D02*
X260000D01*
X220000D02*
X250000D01*
X187500Y160000D02*
Y166957D01*
X100000Y160000D02*
Y166957D01*
X260000Y160000D02*
Y166957D01*
X290000Y118177D02*
Y125000D01*
X286890Y75000D02*
X288858Y73032D01*
X120000Y62500D02*
X185000D01*
X115000Y57500D02*
X120000Y62500D01*
X115000Y51890D02*
Y57500D01*
X190000Y47500D02*
X200000Y37500D01*
X170000Y47500D02*
X190000D01*
X27500Y115000D02*
Y118177D01*
Y113842D02*
Y115000D01*
X20000Y107500D02*
X27500Y115000D01*
X187969Y84531D02*
X195000Y77500D01*
X167032Y84531D02*
X187969D01*
X157500Y75000D02*
X167032Y84531D01*
X126890Y75000D02*
X157500D01*
X185000Y62500D02*
X200000Y47500D01*
X185000Y62500D02*
Y77500D01*
X285000Y138842D02*
Y142500D01*
X290000Y112500D02*
X292500Y110000D01*
X290000Y112500D02*
Y118177D01*
X163500Y204890D02*
Y237110D01*
Y250890D02*
Y267110D01*
X270516Y106984D02*
X298016D01*
X151890Y37500D02*
Y47500D01*
X138110Y37500D02*
X148110Y27500D01*
X151890D01*
X157500D01*
X167500Y37500D01*
X170000D01*
X151890Y47500D02*
X170000D01*
X151890Y57500D02*
X170000D01*
X115000Y29390D02*
Y38110D01*
X100000Y29390D02*
Y38110D01*
X85000Y29390D02*
Y38110D01*
X75610Y51890D02*
X85000D01*
X66142Y61358D02*
X75610Y51890D01*
X60000Y61358D02*
X66142D01*
X60000Y43642D02*
X60000Y43642D01*
Y25905D02*
Y43642D01*
X40905Y14095D02*
X60000D01*
X30000Y25000D02*
X40905Y14095D01*
X177500Y120000D02*
X180000Y122500D01*
X164921Y120000D02*
X177500D01*
X265000Y112500D02*
X270516Y106984D01*
X265000Y112500D02*
Y118177D01*
Y70374D02*
X268484D01*
X255000D02*
X265000D01*
X268484D02*
X273110Y75000D01*
X260000Y85000D02*
X273110D01*
X258740Y83740D02*
X260000Y85000D01*
X258740Y79626D02*
Y83740D01*
X286890Y85000D02*
X290000Y88110D01*
Y96823D01*
X280000Y77500D02*
X282500Y75000D01*
X286890D01*
X280000Y77500D02*
Y96823D01*
X187500D02*
Y110000D01*
X181240Y116260D02*
X187500Y110000D01*
X164921Y116260D02*
X181240D01*
X133475Y123740D02*
X155079D01*
X130000Y120265D02*
X133475Y123740D01*
X130000Y118177D02*
Y120265D01*
X146240Y116260D02*
X155079D01*
X105000Y118177D02*
Y127500D01*
X130000Y110000D02*
Y118177D01*
X127500Y107500D02*
X130000Y110000D01*
X122500Y107500D02*
X127500D01*
X120000Y105000D02*
X122500Y107500D01*
X120000Y96823D02*
Y105000D01*
X47500Y96823D02*
Y102500D01*
X45984Y104016D02*
X47500Y102500D01*
X37326Y104016D02*
X45984D01*
X27500Y113842D02*
X37326Y104016D01*
X40516Y106984D02*
X56318D01*
X32500Y115000D02*
X40516Y106984D01*
X32500Y115000D02*
Y118177D01*
X100000Y90000D02*
Y96823D01*
X95000Y70374D02*
Y87500D01*
X56318Y106984D02*
X57530Y105772D01*
X58760Y108740D02*
X77579D01*
X52500Y115000D02*
X58760Y108740D01*
X52500Y115000D02*
Y118177D01*
X37500D02*
Y125000D01*
X32500Y130000D02*
X37500Y125000D01*
X122500Y75000D02*
X126890D01*
X120000Y77500D02*
X122500Y75000D01*
X120000Y77500D02*
Y96823D01*
X126890Y85000D02*
X130000Y88110D01*
Y96823D01*
X108484Y70374D02*
X113110Y75000D01*
X95000Y70374D02*
X108484D01*
X100000Y85000D02*
X113110D01*
X98740Y83740D02*
X100000Y85000D01*
X98740Y79626D02*
Y83740D01*
X100000Y130339D02*
Y142500D01*
Y118177D02*
Y130339D01*
X57500Y125000D02*
X62839Y130339D01*
X57500Y118177D02*
Y125000D01*
X260000Y127500D02*
Y142500D01*
Y118177D02*
Y127500D01*
X217500Y125000D02*
X220000Y127500D01*
X217500Y118177D02*
Y125000D01*
X207500Y96823D02*
Y105000D01*
X205469Y107032D02*
X207500Y105000D01*
X195468Y107032D02*
X205469D01*
X187500Y115000D02*
X195468Y107032D01*
X187500Y115000D02*
Y118177D01*
X246240Y108740D02*
X247421D01*
X242500Y105000D02*
X246240Y108740D01*
X242500Y92500D02*
Y105000D01*
X207500Y92968D02*
Y96823D01*
X247500Y90000D02*
Y101181D01*
X187500Y90000D02*
Y96823D01*
X197500Y112500D02*
Y118177D01*
Y112500D02*
X200000Y110000D01*
X212500D01*
X217500Y105000D01*
X237579D01*
X218760Y108740D02*
X237579D01*
X212500Y115000D02*
X218760Y108740D01*
X212500Y115000D02*
Y118177D01*
X260000Y112500D02*
Y118177D01*
X256240Y108740D02*
X260000Y112500D01*
X247421Y108740D02*
X256240D01*
X95563Y101260D02*
X100000Y96823D01*
X87421Y101260D02*
X95563D01*
X100000Y112500D02*
Y118177D01*
X96240Y108740D02*
X100000Y112500D01*
X87421Y108740D02*
X96240D01*
X110000Y110000D02*
Y118177D01*
X107500Y107500D02*
X110000Y110000D01*
X102500Y107500D02*
X107500D01*
X100000Y105000D02*
X102500Y107500D01*
X77579Y105000D02*
X100000D01*
X47500Y270000D02*
X67500Y290000D01*
X37500Y270000D02*
X47500D01*
X107500D02*
X127500Y290000D01*
X97500Y270000D02*
X107500D01*
X267500D02*
X287500Y290000D01*
X257500Y270000D02*
X267500D01*
X207500D02*
X227500Y290000D01*
X197500Y270000D02*
X207500D01*
X285000Y142500D02*
Y147500D01*
X282500Y150000D02*
X285000Y147500D01*
X212500Y150000D02*
X282500D01*
X212500Y142500D02*
Y150000D01*
X125000Y142500D02*
Y150000D01*
X55000D02*
X125000D01*
X52500Y147500D02*
X55000Y150000D01*
X52500Y142500D02*
Y147500D01*
X130016Y294984D02*
X132500Y292500D01*
X103094Y294984D02*
X130016D01*
X100000Y291890D02*
X103094Y294984D01*
X132500Y279390D02*
Y292500D01*
X61439Y295000D02*
X61454Y294984D01*
X43110Y295000D02*
X61439D01*
X37500Y289390D02*
X43110Y295000D01*
X70016Y294984D02*
X83437Y281563D01*
X61454Y294984D02*
X70016D01*
X83437Y223629D02*
Y281563D01*
X46890Y259390D02*
X67500D01*
X32500Y245000D02*
X46890Y259390D01*
X32500Y222057D02*
Y245000D01*
X17500Y203780D02*
Y214557D01*
X150000Y203780D02*
Y209390D01*
X130000Y203780D02*
Y216890D01*
X100000Y203780D02*
Y214390D01*
X110000Y203780D02*
Y221890D01*
X102500Y229390D02*
X110000Y221890D01*
X120000Y216890D02*
X127500Y224390D01*
X120000Y203780D02*
Y216890D01*
X67500Y204390D02*
Y211890D01*
X92500Y279390D02*
X97500D01*
X92500Y221890D02*
X100000Y214390D01*
X89531Y204248D02*
X90000Y203780D01*
X89531Y204248D02*
Y276421D01*
X92500Y279390D01*
Y221890D02*
Y254390D01*
X97500Y259390D01*
X127500D01*
X97500Y229390D02*
X102500D01*
X127500Y224390D02*
Y229390D01*
Y249390D02*
X130000D01*
Y216890D02*
X132500Y219390D01*
Y246890D01*
X130000Y249390D02*
X132500Y246890D01*
X140000Y219390D02*
X150000Y209390D01*
X137031Y218160D02*
X140000Y215192D01*
Y204390D02*
Y215192D01*
X127500Y279390D02*
X137031Y269858D01*
Y218160D02*
Y269858D01*
X132500Y279390D02*
X140000Y271890D01*
Y219390D02*
Y271890D01*
X77500Y203780D02*
Y217692D01*
X67500Y249390D02*
X72500D01*
X57500Y203780D02*
Y206890D01*
X77500Y226890D01*
Y244390D01*
X72500Y249390D02*
X77500Y244390D01*
X67500Y211890D02*
X80468Y224858D01*
X77500Y217692D02*
X83437Y223629D01*
X67500Y279390D02*
X80468Y266421D01*
Y224858D02*
Y266421D01*
X47500Y203780D02*
Y224390D01*
X52500Y229390D01*
X65000D01*
X66250Y230640D01*
X37500Y203780D02*
Y229390D01*
X27500Y203780D02*
Y217057D01*
X32500Y222057D01*
X17500Y214557D02*
X27500Y224557D01*
Y269390D01*
X37500Y279390D01*
X187500Y270000D02*
X197500Y280000D01*
X187500Y225167D02*
Y270000D01*
X177500Y215167D02*
X187500Y225167D01*
X192500Y242500D02*
X210000Y260000D01*
X192500Y222667D02*
Y242500D01*
X187500Y217667D02*
X192500Y222667D01*
X202500Y295000D02*
X222049D01*
X197500Y290000D02*
X202500Y295000D01*
X187500Y204390D02*
Y217667D01*
X210000Y260000D02*
X227500D01*
X197500Y204390D02*
Y230000D01*
X225000D02*
X226250Y231250D01*
X212500Y230000D02*
X225000D01*
X207500Y225000D02*
X212500Y230000D01*
X207500Y204390D02*
Y225000D01*
X240469Y225468D02*
Y267032D01*
X227500Y280000D02*
X240469Y267032D01*
X230016Y294984D02*
X243437Y281563D01*
X237500Y218302D02*
X243437Y224239D01*
X227500Y212500D02*
X240469Y225468D01*
X243437Y224239D02*
Y281563D01*
X232500Y250000D02*
X237500Y245000D01*
Y227500D02*
Y245000D01*
X217500Y207500D02*
X237500Y227500D01*
X217500Y204390D02*
Y207500D01*
X227500Y250000D02*
X232500D01*
X237500Y204390D02*
Y218302D01*
X300000Y220000D02*
Y272500D01*
X292500Y280000D02*
X300000Y272500D01*
X292500Y280000D02*
Y292500D01*
X297031Y218770D02*
Y270468D01*
X287500Y280000D02*
X297031Y270468D01*
X290000Y295000D02*
X292500Y292500D01*
X262500Y295000D02*
X290000D01*
X300000Y205000D02*
Y215802D01*
X297031Y218770D02*
X300000Y215802D01*
Y220000D02*
X310000Y210000D01*
X290000Y250000D02*
X292500Y247500D01*
Y220000D02*
Y247500D01*
X290000Y217500D02*
X292500Y220000D01*
X287500Y250000D02*
X290000D01*
X287500Y225000D02*
Y230000D01*
X260000Y292500D02*
X262500Y295000D01*
X257500Y230000D02*
X262500D01*
X257500Y260000D02*
X287500D01*
X252500Y255000D02*
X257500Y260000D01*
X252500Y222500D02*
Y255000D01*
X249532Y277031D02*
X252500Y280000D01*
X249532Y204858D02*
Y277031D01*
Y204858D02*
X250000Y204390D01*
X252500Y222500D02*
X260000Y215000D01*
X252500Y280000D02*
X257500D01*
X227500Y205000D02*
Y212500D01*
X222064Y294984D02*
X230016D01*
X222049Y295000D02*
X222064Y294984D01*
X265000Y127500D02*
Y142500D01*
Y127500D02*
X270000Y122500D01*
Y118177D02*
Y122500D01*
X212500Y96823D02*
Y102500D01*
X192500Y96823D02*
Y102500D01*
X280000Y204390D02*
Y217500D01*
X287500Y225000D01*
X262500Y230000D02*
X270000Y222500D01*
Y204390D02*
Y222500D01*
X260000Y204390D02*
Y215000D01*
X290000Y204390D02*
Y217500D01*
X310000Y204390D02*
Y210000D01*
X177500Y204390D02*
Y215167D01*
X105000Y166957D02*
Y172500D01*
X102500Y175000D02*
X105000Y172500D01*
X92500Y175000D02*
X102500D01*
X90000Y177500D02*
X92500Y175000D01*
X90000Y177500D02*
Y190610D01*
X100000Y182500D02*
Y190610D01*
Y182500D02*
X102500Y180000D01*
X120000Y166957D02*
Y190610D01*
X125000Y166957D02*
Y180000D01*
X130000Y185000D01*
Y166957D02*
Y177500D01*
X132500Y180000D01*
X137500D01*
X140000Y182500D01*
Y190610D01*
X102500Y180000D02*
X107500D01*
X110000Y177500D01*
Y166957D02*
Y177500D01*
Y185000D02*
Y190610D01*
Y185000D02*
X115000Y180000D01*
Y166957D02*
Y180000D01*
X130000Y185000D02*
Y190000D01*
X135000Y166957D02*
Y172500D01*
X137500Y175000D01*
X147500D01*
X150000Y177500D01*
Y190610D01*
X32500Y166957D02*
Y172500D01*
X30000Y175000D02*
X32500Y172500D01*
X20000Y175000D02*
X30000D01*
X17500Y177500D02*
X20000Y175000D01*
X17500Y177500D02*
Y190610D01*
X27500Y182500D02*
Y190610D01*
Y182500D02*
X30000Y180000D01*
X47500Y166957D02*
Y190610D01*
X52500Y166957D02*
Y180000D01*
X57500Y185000D01*
Y166957D02*
Y177500D01*
X60000Y180000D01*
X65000D01*
X67500Y182500D01*
Y190610D01*
X30000Y180000D02*
X35000D01*
X37500Y177500D01*
Y166957D02*
Y177500D01*
Y185000D02*
Y190610D01*
Y185000D02*
X42500Y180000D01*
Y166957D02*
Y180000D01*
X57500Y185000D02*
Y190000D01*
X62500Y166957D02*
Y172500D01*
X65000Y175000D01*
X75000D01*
X77500Y177500D01*
Y190610D01*
X265000Y166957D02*
Y172500D01*
X262500Y175000D02*
X265000Y172500D01*
X252500Y175000D02*
X262500D01*
X250000Y177500D02*
X252500Y175000D01*
X250000Y177500D02*
Y190610D01*
X260000Y182500D02*
Y190610D01*
Y182500D02*
X262500Y180000D01*
X280000Y166957D02*
Y190610D01*
X285000Y166957D02*
Y180000D01*
X290000Y185000D01*
Y166957D02*
Y177500D01*
X292500Y180000D01*
X297500D01*
X300000Y182500D01*
Y190610D01*
X262500Y180000D02*
X267500D01*
X270000Y177500D01*
Y166957D02*
Y177500D01*
Y185000D02*
Y190610D01*
Y185000D02*
X275000Y180000D01*
Y166957D02*
Y180000D01*
X290000Y185000D02*
Y190000D01*
X295000Y166957D02*
Y172500D01*
X297500Y175000D01*
X307500D01*
X310000Y177500D01*
Y190610D01*
X237500Y177500D02*
Y190610D01*
X235000Y175000D02*
X237500Y177500D01*
X225000Y175000D02*
X235000D01*
X222500Y172500D02*
X225000Y175000D01*
X222500Y166957D02*
Y172500D01*
X217500Y185000D02*
Y190000D01*
X202500Y166957D02*
Y180000D01*
X197500Y185000D02*
X202500Y180000D01*
X197500Y185000D02*
Y190610D01*
Y166957D02*
Y177500D01*
X195000Y180000D02*
X197500Y177500D01*
X190000Y180000D02*
X195000D01*
X227500Y182500D02*
Y190610D01*
X225000Y180000D02*
X227500Y182500D01*
X220000Y180000D02*
X225000D01*
X217500Y177500D02*
X220000Y180000D01*
X217500Y166957D02*
Y177500D01*
X212500Y180000D02*
X217500Y185000D01*
X212500Y166957D02*
Y180000D01*
X207500Y166957D02*
Y190610D01*
X187500Y182500D02*
X190000Y180000D01*
X187500Y182500D02*
Y190610D01*
X190000Y175000D02*
X192500Y172500D01*
Y166957D02*
Y172500D01*
X27500Y94198D02*
Y96823D01*
X20000Y97235D02*
X55877Y61358D01*
X20000Y97235D02*
Y107500D01*
X55877Y61358D02*
X60000D01*
X10000Y102500D02*
Y130000D01*
Y102500D02*
X40000Y72500D01*
X30000Y25000D02*
Y57500D01*
X40000Y67500D02*
Y72500D01*
X30000Y57500D02*
X40000Y67500D01*
X163500Y189000D02*
Y191110D01*
X177500Y179198D02*
Y190610D01*
Y179198D02*
X181698Y175000D01*
X190000D01*
X162500Y150000D02*
Y155000D01*
X125000Y150000D02*
X162500D01*
X212500D01*
X172500Y155000D02*
Y160000D01*
X100000D02*
X172500D01*
X187500D01*
X172500Y167500D02*
Y180000D01*
X163500Y189000D02*
X172500Y180000D01*
X186957Y167500D02*
X187500Y166957D01*
X172500Y167500D02*
X186957D01*
X298016Y106984D02*
X301260Y103740D01*
Y84921D02*
Y103740D01*
X288858Y71358D02*
X297500Y80000D01*
X308740Y81240D02*
Y84921D01*
X307500Y80000D02*
X308740Y81240D01*
X297500Y80000D02*
X307500D01*
X308740Y84921D02*
Y106260D01*
X305000Y110000D02*
X308740Y106260D01*
X292500Y110000D02*
X305000D01*
X301260Y68760D02*
Y75079D01*
X300000Y67500D02*
X301260Y68760D01*
X200000Y37500D02*
X204528Y42028D01*
Y59528D01*
X218110Y73110D01*
Y75000D01*
X227500Y64842D02*
X231890Y69232D01*
Y75000D01*
X100000Y51890D02*
Y65000D01*
X275000Y135000D02*
Y142500D01*
X280000Y137500D02*
Y142500D01*
Y137500D02*
X282500Y135000D01*
X115000D02*
Y142500D01*
X120000Y137500D02*
Y142500D01*
Y137500D02*
X122500Y135000D01*
X225000Y64842D02*
X227500D01*
X247461Y8150D02*
X248110Y7500D01*
X247461Y8150D02*
Y19587D01*
X291890Y7500D02*
X295039Y10650D01*
Y19587D01*
X247461Y55413D02*
X252913D01*
X262500Y65000D01*
X270000D01*
X295039Y55413D02*
X300413D01*
X305000Y60000D01*
Y75079D01*
X279272Y55413D02*
X288858Y65000D01*
X266358Y55413D02*
X276142D01*
X279272D01*
X288858Y65000D02*
Y71358D01*
Y73032D01*
D21*
X10000Y130000D02*
D03*
X185000Y77500D02*
D03*
X175000D02*
D03*
X162500Y167500D02*
D03*
X152500D02*
D03*
X162500Y155000D02*
D03*
X152500D02*
D03*
D22*
X311024Y11811D02*
D03*
X11811D02*
D03*
Y299213D02*
D03*
X311024D02*
D03*
D23*
X225000Y45158D02*
D03*
Y64842D02*
D03*
D24*
X213189Y55000D02*
D03*
D25*
X127500Y260000D02*
D03*
Y290000D02*
D03*
Y280000D02*
D03*
Y250000D02*
D03*
Y240000D02*
D03*
Y230000D02*
D03*
X97500D02*
D03*
Y240000D02*
D03*
Y270000D02*
D03*
Y280000D02*
D03*
Y290000D02*
D03*
X37500D02*
D03*
Y280000D02*
D03*
Y270000D02*
D03*
Y240000D02*
D03*
Y230000D02*
D03*
X67500D02*
D03*
Y240000D02*
D03*
Y250000D02*
D03*
Y280000D02*
D03*
Y290000D02*
D03*
Y260000D02*
D03*
X197500Y290000D02*
D03*
Y280000D02*
D03*
Y270000D02*
D03*
Y240000D02*
D03*
Y230000D02*
D03*
X227500D02*
D03*
Y240000D02*
D03*
Y250000D02*
D03*
Y280000D02*
D03*
Y290000D02*
D03*
Y260000D02*
D03*
X287500D02*
D03*
Y290000D02*
D03*
Y280000D02*
D03*
Y250000D02*
D03*
Y240000D02*
D03*
Y230000D02*
D03*
X257500D02*
D03*
Y240000D02*
D03*
Y270000D02*
D03*
Y280000D02*
D03*
Y290000D02*
D03*
D26*
X170000Y27500D02*
D03*
Y37500D02*
D03*
Y47500D02*
D03*
Y57500D02*
D03*
X200000D02*
D03*
Y47500D02*
D03*
Y37500D02*
D03*
D27*
Y27500D02*
D03*
D28*
X11457Y86122D02*
D03*
Y38721D02*
D03*
D29*
X22126Y57500D02*
D03*
Y67343D02*
D03*
X30000D02*
D03*
D30*
Y57500D02*
D03*
D31*
X162500Y295000D02*
D03*
X310000Y277500D02*
D03*
X12500Y275000D02*
D03*
X127500Y15000D02*
D03*
X45000Y42500D02*
D03*
X307500Y125000D02*
D03*
X155000Y97500D02*
D03*
X242500Y167500D02*
D03*
X82500Y170000D02*
D03*
X146240Y116260D02*
D03*
X250000Y115000D02*
D03*
X57500Y132500D02*
D03*
X85000Y140000D02*
D03*
X117500Y125000D02*
D03*
X277500D02*
D03*
X282500Y135000D02*
D03*
X275000D02*
D03*
X205000Y125000D02*
D03*
X210000Y135000D02*
D03*
X202500D02*
D03*
X192500Y127500D02*
D03*
X122500Y135000D02*
D03*
X115000D02*
D03*
X45000Y125000D02*
D03*
X50000Y135000D02*
D03*
X27500Y132500D02*
D03*
X42500Y135000D02*
D03*
X230000Y115000D02*
D03*
Y92500D02*
D03*
X202500Y87500D02*
D03*
X85000Y120000D02*
D03*
X62500Y87500D02*
D03*
X82500Y95000D02*
D03*
X77500Y75000D02*
D03*
Y130339D02*
D03*
X250000Y127500D02*
D03*
Y160000D02*
D03*
X290000Y125000D02*
D03*
X288858Y65000D02*
D03*
X300000Y67500D02*
D03*
X270000Y65000D02*
D03*
X180000Y122500D02*
D03*
X265000Y70374D02*
D03*
X105000Y127500D02*
D03*
X100000Y90000D02*
D03*
X105000Y102500D02*
D03*
X125000D02*
D03*
X32500D02*
D03*
X52500D02*
D03*
X265000D02*
D03*
X285000D02*
D03*
X212500D02*
D03*
X192500D02*
D03*
X100000Y65000D02*
D03*
X295000Y85000D02*
D03*
M02*
