G04 Layer_Color=32896*
%FSLAX25Y25*%
%MOIN*%
G70*
G01*
G75*
%ADD62C,0.00100*%
D62*
X160617Y142784D02*
X162017D01*
X160317Y142684D02*
X162217D01*
X160217Y142584D02*
X162317D01*
X160117Y142484D02*
X162517D01*
X161617Y142384D02*
X162617D01*
X160017D02*
X160917D01*
X161917Y142284D02*
X162617D01*
X159917D02*
X160617D01*
X162117Y142184D02*
X162717D01*
X159817D02*
X160517D01*
X162217Y142084D02*
X162717D01*
X159817D02*
X160417D01*
X162217Y141984D02*
X162817D01*
X159817D02*
X160317D01*
X162317Y141884D02*
X162817D01*
X160317D02*
X160417D01*
X159717D02*
X160217D01*
X162317Y141784D02*
X162817D01*
X159717D02*
X160417D01*
X162317Y141684D02*
X162817D01*
X159717D02*
X160417D01*
X162317Y141584D02*
X162817D01*
X159717D02*
X160517D01*
X134117D02*
X134517D01*
X162317Y141484D02*
X162817D01*
X161317D02*
X161617D01*
X160817D02*
X161117D01*
X159717D02*
X160517D01*
X133917D02*
X134717D01*
X162317Y141384D02*
X162817D01*
X160617D02*
X161917D01*
X159717D02*
X160517D01*
X133817D02*
X134817D01*
X164217Y141284D02*
X164417D01*
X162317D02*
X162817D01*
X161717D02*
X161817D01*
X160617D02*
X160817D01*
X159717D02*
X160517D01*
X157917D02*
X158117D01*
X133817D02*
X134817D01*
X164217Y141184D02*
X164717D01*
X162317D02*
X162817D01*
X161617D02*
X161817D01*
X160717D02*
X160917D01*
X159717D02*
X160517D01*
X157617D02*
X158217D01*
X134417D02*
X134817D01*
X133817D02*
X134217D01*
X164117Y141084D02*
X165017D01*
X162217D02*
X162717D01*
X160717D02*
X161817D01*
X159817D02*
X160417D01*
X157317D02*
X158317D01*
X134417D02*
X134817D01*
X133717D02*
X134217D01*
X164017Y140984D02*
X165017D01*
X162217D02*
X162717D01*
X159817D02*
X161717D01*
X157317D02*
X158317D01*
X134417D02*
X134817D01*
X133717D02*
X134217D01*
X163917Y140884D02*
X165017D01*
X162117D02*
X162717D01*
X160817D02*
X161717D01*
X159917D02*
X160717D01*
X157317D02*
X158417D01*
X133817D02*
X134917D01*
X163917Y140784D02*
X164917D01*
X162017D02*
X162617D01*
X161317D02*
X161717D01*
X160817D02*
X161217D01*
X159917D02*
X160517D01*
X157517D02*
X158517D01*
X133817D02*
X135017D01*
X166217Y140684D02*
X166517D01*
X163817D02*
X164717D01*
X162017D02*
X162617D01*
X161317D02*
X161617D01*
X160917D02*
X161217D01*
X160017D02*
X160517D01*
X157617D02*
X158517D01*
X155817D02*
X156117D01*
X133917D02*
X135117D01*
X166017Y140584D02*
X166617D01*
X163717D02*
X164717D01*
X161917D02*
X162517D01*
X161317D02*
X161617D01*
X160917D02*
X161217D01*
X160017D02*
X160617D01*
X157717D02*
X158617D01*
X155717D02*
X156317D01*
X133917D02*
X135317D01*
X165817Y140484D02*
X166717D01*
X163617D02*
X164517D01*
X161917D02*
X162417D01*
X161317D02*
X161617D01*
X160917D02*
X161217D01*
X160117D02*
X160717D01*
X157817D02*
X158717D01*
X155617D02*
X156517D01*
X134717D02*
X135417D01*
X134217D02*
X134417D01*
X165617Y140384D02*
X166817D01*
X163517D02*
X164517D01*
X161817D02*
X162417D01*
X161317D02*
X161617D01*
X160917D02*
X161217D01*
X160117D02*
X160717D01*
X157917D02*
X158817D01*
X155617D02*
X156717D01*
X134917D02*
X135517D01*
X165417Y140284D02*
X166817D01*
X163517D02*
X164317D01*
X161817D02*
X162317D01*
X161317D02*
X161717D01*
X160217D02*
X161217D01*
X158017D02*
X158817D01*
X155517D02*
X156917D01*
X135017D02*
X135617D01*
X165217Y140184D02*
X166917D01*
X163417D02*
X164217D01*
X161317D02*
X162317D01*
X160317D02*
X161217D01*
X158117D02*
X158917D01*
X155517D02*
X157117D01*
X135117D02*
X135817D01*
X165017Y140084D02*
X166917D01*
X163317D02*
X164117D01*
X161317D02*
X162217D01*
X160317D02*
X161217D01*
X158217D02*
X159017D01*
X155517D02*
X157317D01*
X135317D02*
X135917D01*
X164817Y139984D02*
X166617D01*
X163317D02*
X164017D01*
X160417D02*
X162117D01*
X158317D02*
X159117D01*
X155717D02*
X157517D01*
X135417D02*
X136117D01*
X164617Y139884D02*
X166417D01*
X163217D02*
X163917D01*
X160417D02*
X162117D01*
X158417D02*
X159117D01*
X156017D02*
X157717D01*
X135517D02*
X136217D01*
X164417Y139784D02*
X166117D01*
X163117D02*
X163817D01*
X160417D02*
X162117D01*
X158517D02*
X159217D01*
X156217D02*
X157917D01*
X135717D02*
X136317D01*
X164317Y139684D02*
X165917D01*
X163017D02*
X163717D01*
X160517D02*
X162117D01*
X158617D02*
X159317D01*
X156517D02*
X158117D01*
X135817D02*
X136517D01*
X164017Y139584D02*
X165617D01*
X162917D02*
X163617D01*
X160417D02*
X162217D01*
X158717D02*
X159417D01*
X156717D02*
X158317D01*
X136017D02*
X136617D01*
X163917Y139484D02*
X165417D01*
X162917D02*
X163517D01*
X160417D02*
X162117D01*
X158817D02*
X159417D01*
X156917D02*
X158517D01*
X136117D02*
X136817D01*
X188817Y139384D02*
X188917D01*
X163717D02*
X165117D01*
X163017D02*
X163417D01*
X161817D02*
X162117D01*
X160417D02*
X160917D01*
X158917D02*
X159317D01*
X157217D02*
X158717D01*
X136217D02*
X136917D01*
X132717D02*
X132917D01*
X188617Y139284D02*
X189017D01*
X163417D02*
X164917D01*
X163117D02*
X163317D01*
X161817D02*
X162217D01*
X160417D02*
X161717D01*
X159117D02*
X159217D01*
X157417D02*
X158917D01*
X136417D02*
X137117D01*
X132517D02*
X133117D01*
X188517Y139184D02*
X189017D01*
X163317D02*
X164617D01*
X161817D02*
X162217D01*
X160417D02*
X161717D01*
X157717D02*
X159017D01*
X136517D02*
X137217D01*
X132417D02*
X133217D01*
X188417Y139084D02*
X189017D01*
X163117D02*
X164417D01*
X161417D02*
X162117D01*
X160417D02*
X161317D01*
X157917D02*
X159317D01*
X136617D02*
X137317D01*
X132317D02*
X133317D01*
X188317Y138984D02*
X189017D01*
X162917D02*
X164117D01*
X160517D02*
X162117D01*
X158217D02*
X159417D01*
X136817D02*
X137417D01*
X132317D02*
X133317D01*
X188217Y138884D02*
X188917D01*
X166317D02*
X166617D01*
X162717D02*
X163917D01*
X161817D02*
X162117D01*
X160417D02*
X161717D01*
X158517D02*
X159617D01*
X156017D02*
X156417D01*
X136917D02*
X137617D01*
X132917D02*
X133317D01*
X132317D02*
X132717D01*
X188117Y138784D02*
X188817D01*
X166017D02*
X166717D01*
X162517D02*
X163717D01*
X161717D02*
X162117D01*
X160417D02*
X160817D01*
X158717D02*
X159817D01*
X155917D02*
X156617D01*
X137017D02*
X137717D01*
X132917D02*
X133717D01*
X132317D02*
X132717D01*
X188017Y138684D02*
X188717D01*
X165817D02*
X166817D01*
X162617D02*
X163417D01*
X161417D02*
X162117D01*
X160517D02*
X161217D01*
X158917D02*
X159817D01*
X155817D02*
X156817D01*
X137217D02*
X137917D01*
X132917D02*
X134117D01*
X132317D02*
X132717D01*
X187917Y138584D02*
X188617D01*
X186917D02*
X187417D01*
X165617D02*
X166917D01*
X162617D02*
X163117D01*
X160617D02*
X162017D01*
X159217D02*
X159717D01*
X155817D02*
X157017D01*
X137317D02*
X138017D01*
X132317D02*
X134617D01*
X187917Y138484D02*
X188517D01*
X186817D02*
X187517D01*
X165417D02*
X166917D01*
X163917D02*
X164017D01*
X162717D02*
X162917D01*
X160817D02*
X161717D01*
X159417D02*
X159717D01*
X155717D02*
X157217D01*
X137517D02*
X138117D01*
X132317D02*
X135117D01*
X187817Y138384D02*
X188417D01*
X186717D02*
X187517D01*
X185817D02*
X186317D01*
X165317D02*
X167017D01*
X163517D02*
X164717D01*
X160917D02*
X161617D01*
X157917D02*
X158917D01*
X155617D02*
X157417D01*
X137617D02*
X138317D01*
X133717D02*
X135517D01*
X132417D02*
X133217D01*
X187717Y138284D02*
X188317D01*
X186617D02*
X187417D01*
X185717D02*
X186517D01*
X165117D02*
X167017D01*
X163217D02*
X164917D01*
X161017D02*
X161517D01*
X157617D02*
X159217D01*
X155717D02*
X157517D01*
X137717D02*
X138417D01*
X134217D02*
X136017D01*
X132517D02*
X133117D01*
X187617Y138184D02*
X188217D01*
X185517D02*
X187417D01*
X163017D02*
X166917D01*
X155717D02*
X159417D01*
X137917D02*
X138517D01*
X134717D02*
X136417D01*
X186317Y138084D02*
X188117D01*
X185417D02*
X185917D01*
X164317D02*
X166817D01*
X162917D02*
X163817D01*
X158517D02*
X159617D01*
X155817D02*
X158317D01*
X138017D02*
X138717D01*
X135117D02*
X136817D01*
X186317Y137984D02*
X188017D01*
X185317D02*
X185817D01*
X165417D02*
X166817D01*
X164617D02*
X165317D01*
X162817D02*
X163417D01*
X159017D02*
X159717D01*
X155917D02*
X157917D01*
X138217D02*
X138817D01*
X135617D02*
X137317D01*
X186217Y137884D02*
X187917D01*
X185217D02*
X185617D01*
X184517D02*
X184817D01*
X165517D02*
X166717D01*
X164817D02*
X165417D01*
X162717D02*
X163217D01*
X159217D02*
X159817D01*
X156017D02*
X157717D01*
X138317D02*
X138917D01*
X136117D02*
X137617D01*
X186117Y137784D02*
X187917D01*
X185117D02*
X185617D01*
X184517D02*
X185017D01*
X165617D02*
X166617D01*
X165017D02*
X165517D01*
X162617D02*
X163117D01*
X159317D02*
X159917D01*
X156017D02*
X157517D01*
X138417D02*
X139117D01*
X136417D02*
X137917D01*
X186117Y137684D02*
X188017D01*
X184617D02*
X185417D01*
X165717D02*
X166617D01*
X165117D02*
X165617D01*
X162517D02*
X163017D01*
X160417D02*
X162217D01*
X159417D02*
X160017D01*
X156017D02*
X157417D01*
X138617D02*
X139217D01*
X136917D02*
X138217D01*
X186117Y137584D02*
X188117D01*
X184817D02*
X185317D01*
X184317D02*
X184517D01*
X165217D02*
X166717D01*
X163817D02*
X164317D01*
X162417D02*
X162917D01*
X160417D02*
X162217D01*
X159617D02*
X160017D01*
X156017D02*
X157317D01*
X138717D02*
X139417D01*
X137317D02*
X138617D01*
X186017Y137484D02*
X188217D01*
X184817D02*
X185317D01*
X184317D02*
X184717D01*
X165817D02*
X166717D01*
X165317D02*
X165717D01*
X163817D02*
X164317D01*
X162417D02*
X162817D01*
X160417D02*
X162217D01*
X159617D02*
X160117D01*
X158217D02*
X158717D01*
X155917D02*
X157217D01*
X137617D02*
X139517D01*
X186017Y137384D02*
X188317D01*
X184417D02*
X185117D01*
X165317D02*
X167117D01*
X163817D02*
X164317D01*
X162317D02*
X162717D01*
X161417D02*
X162217D01*
X160417D02*
X161117D01*
X159717D02*
X160117D01*
X158217D02*
X158717D01*
X155617D02*
X157217D01*
X137917D02*
X139617D01*
X186017Y137284D02*
X188417D01*
X184517D02*
X185017D01*
X165917D02*
X167417D01*
X165417D02*
X165817D01*
X163817D02*
X164317D01*
X162317D02*
X162717D01*
X161517D02*
X162217D01*
X160417D02*
X161117D01*
X159817D02*
X160217D01*
X158217D02*
X158717D01*
X155217D02*
X157117D01*
X138217D02*
X139817D01*
X186517Y137184D02*
X188317D01*
X165917D02*
X167517D01*
X165417D02*
X165817D01*
X163817D02*
X164317D01*
X162317D02*
X162717D01*
X161517D02*
X162217D01*
X160417D02*
X161117D01*
X159817D02*
X160217D01*
X158217D02*
X158717D01*
X155217D02*
X157017D01*
X138517D02*
X139917D01*
X186517Y137084D02*
X188217D01*
X166017D02*
X167517D01*
X165517D02*
X165917D01*
X163717D02*
X164417D01*
X161417D02*
X162617D01*
X160417D02*
X161217D01*
X159917D02*
X160217D01*
X158117D02*
X158817D01*
X155117D02*
X157017D01*
X138817D02*
X140017D01*
X186417Y136984D02*
X188117D01*
X166017D02*
X167517D01*
X165517D02*
X165917D01*
X163617D02*
X164517D01*
X160417D02*
X162617D01*
X159917D02*
X160317D01*
X158017D02*
X158917D01*
X155117D02*
X157017D01*
X136517D02*
X140217D01*
X186317Y136884D02*
X188217D01*
X166017D02*
X167517D01*
X165517D02*
X165917D01*
X163517D02*
X164617D01*
X160417D02*
X162617D01*
X159917D02*
X160317D01*
X157917D02*
X158917D01*
X155117D02*
X156917D01*
X135917D02*
X140317D01*
X187017Y136784D02*
X188717D01*
X186217D02*
X186917D01*
X166017D02*
X167517D01*
X165517D02*
X165917D01*
X163517D02*
X164617D01*
X160417D02*
X162517D01*
X159917D02*
X160317D01*
X157917D02*
X159017D01*
X155117D02*
X156917D01*
X135317D02*
X140517D01*
X133917D02*
X134017D01*
X187017Y136684D02*
X188717D01*
X186117D02*
X186817D01*
X166017D02*
X167517D01*
X165517D02*
X165917D01*
X163517D02*
X164617D01*
X160417D02*
X162517D01*
X159917D02*
X160317D01*
X157817D02*
X159017D01*
X155117D02*
X156917D01*
X138317D02*
X140617D01*
X134917D02*
X137417D01*
X133617D02*
X134317D01*
X187217Y136584D02*
X188717D01*
X186017D02*
X186717D01*
X166017D02*
X167517D01*
X165617D02*
X165917D01*
X163517D02*
X164617D01*
X160417D02*
X162517D01*
X159917D02*
X160317D01*
X157817D02*
X159017D01*
X155117D02*
X156917D01*
X141017D02*
X141217D01*
X138117D02*
X140717D01*
X134617D02*
X136217D01*
X133517D02*
X134317D01*
X187817Y136484D02*
X188717D01*
X187217D02*
X187717D01*
X185917D02*
X186617D01*
X166017D02*
X167417D01*
X165517D02*
X165917D01*
X163517D02*
X164617D01*
X160417D02*
X162517D01*
X159917D02*
X160317D01*
X157817D02*
X159017D01*
X155217D02*
X156917D01*
X140917D02*
X141317D01*
X140217D02*
X140817D01*
X139017D02*
X139617D01*
X138017D02*
X138917D01*
X133417D02*
X135717D01*
X188217Y136384D02*
X188617D01*
X187417D02*
X187617D01*
X185917D02*
X186517D01*
X166017D02*
X167117D01*
X165517D02*
X165917D01*
X163517D02*
X164617D01*
X160417D02*
X162617D01*
X159917D02*
X160317D01*
X157917D02*
X159017D01*
X155517D02*
X156917D01*
X140317D02*
X141417D01*
X138917D02*
X139417D01*
X137817D02*
X138617D01*
X133417D02*
X135217D01*
X188717Y136284D02*
X188917D01*
X188117D02*
X188417D01*
X185717D02*
X186417D01*
X166017D02*
X166817D01*
X165517D02*
X165917D01*
X163517D02*
X164617D01*
X160417D02*
X162617D01*
X159917D02*
X160317D01*
X157917D02*
X158917D01*
X155817D02*
X157017D01*
X140417D02*
X141517D01*
X138817D02*
X139317D01*
X137717D02*
X138417D01*
X134017D02*
X134817D01*
X133417D02*
X133817D01*
X188517Y136184D02*
X189017D01*
X188017D02*
X188417D01*
X185617D02*
X186317D01*
X166017D02*
X166817D01*
X165517D02*
X165917D01*
X163617D02*
X164517D01*
X160417D02*
X162617D01*
X159917D02*
X160317D01*
X158017D02*
X158917D01*
X155817D02*
X157017D01*
X140517D02*
X141617D01*
X138717D02*
X139217D01*
X137617D02*
X138217D01*
X134117D02*
X134617D01*
X133417D02*
X133817D01*
X188417Y136084D02*
X188917D01*
X187917D02*
X188217D01*
X185617D02*
X186217D01*
X166017D02*
X166817D01*
X165417D02*
X165917D01*
X163717D02*
X164417D01*
X160417D02*
X162617D01*
X159817D02*
X160317D01*
X158117D02*
X158717D01*
X155817D02*
X157017D01*
X140617D02*
X141717D01*
X138617D02*
X139117D01*
X137517D02*
X138117D01*
X134017D02*
X134517D01*
X133417D02*
X133817D01*
X187817Y135984D02*
X188617D01*
X187117D02*
X187317D01*
X185517D02*
X186117D01*
X182417D02*
X183117D01*
X165917D02*
X166817D01*
X165417D02*
X165817D01*
X162317D02*
X162717D01*
X160417D02*
X162217D01*
X159817D02*
X160217D01*
X155917D02*
X157117D01*
X140517D02*
X141917D01*
X138617D02*
X139017D01*
X137417D02*
X138017D01*
X133417D02*
X134417D01*
X187817Y135884D02*
X188517D01*
X187017D02*
X187417D01*
X185417D02*
X186017D01*
X185217D02*
X185317D01*
X182317D02*
X183317D01*
X165917D02*
X166817D01*
X165317D02*
X165817D01*
X162317D02*
X162717D01*
X160417D02*
X162217D01*
X159717D02*
X160217D01*
X155817D02*
X157117D01*
X142117D02*
X142517D01*
X140517D02*
X142017D01*
X138517D02*
X139017D01*
X137217D02*
X137917D01*
X133417D02*
X134417D01*
X187917Y135784D02*
X188417D01*
X187017D02*
X187617D01*
X185417D02*
X185917D01*
X184917D02*
X185317D01*
X182117D02*
X183317D01*
X165917D02*
X166917D01*
X165317D02*
X165817D01*
X162317D02*
X162817D01*
X160417D02*
X162217D01*
X159717D02*
X160117D01*
X155717D02*
X157217D01*
X140517D02*
X142617D01*
X138517D02*
X138917D01*
X137117D02*
X137717D01*
X133517D02*
X134317D01*
X187917Y135684D02*
X188317D01*
X186917D02*
X187817D01*
X185417D02*
X185817D01*
X184617D02*
X185217D01*
X182117D02*
X183417D01*
X165817D02*
X167017D01*
X165217D02*
X165717D01*
X162417D02*
X162917D01*
X160417D02*
X162217D01*
X159617D02*
X160117D01*
X155617D02*
X157217D01*
X140617D02*
X142817D01*
X138417D02*
X138917D01*
X137017D02*
X137617D01*
X133617D02*
X134217D01*
X186917Y135584D02*
X187817D01*
X185517D02*
X185717D01*
X184417D02*
X184917D01*
X182117D02*
X183517D01*
X165817D02*
X167117D01*
X165117D02*
X165717D01*
X162417D02*
X162917D01*
X160417D02*
X162217D01*
X159617D02*
X160017D01*
X155517D02*
X157317D01*
X142417D02*
X142917D01*
X140717D02*
X142317D01*
X138417D02*
X138817D01*
X136917D02*
X137517D01*
X187517Y135484D02*
X187817D01*
X186817D02*
X187417D01*
X184117D02*
X184717D01*
X182017D02*
X183517D01*
X165717D02*
X167317D01*
X165017D02*
X165617D01*
X162517D02*
X163117D01*
X160417D02*
X162217D01*
X159417D02*
X160017D01*
X155417D02*
X157417D01*
X142517D02*
X143017D01*
X140417D02*
X142417D01*
X138417D02*
X138817D01*
X136817D02*
X137417D01*
X187417Y135384D02*
X187717D01*
X186717D02*
X187217D01*
X185517D02*
X186117D01*
X183817D02*
X184417D01*
X182917D02*
X183517D01*
X182017D02*
X182617D01*
X165617D02*
X167317D01*
X164917D02*
X165517D01*
X162617D02*
X163217D01*
X160417D02*
X162217D01*
X159317D02*
X159917D01*
X155317D02*
X157517D01*
X142617D02*
X143117D01*
X140217D02*
X142517D01*
X138417D02*
X138717D01*
X136717D02*
X137217D01*
X187317Y135284D02*
X187717D01*
X186717D02*
X187117D01*
X185617D02*
X186417D01*
X183617D02*
X184117D01*
X182917D02*
X183517D01*
X182017D02*
X182617D01*
X165517D02*
X167317D01*
X164717D02*
X165417D01*
X162717D02*
X163417D01*
X160417D02*
X162217D01*
X159217D02*
X159817D01*
X155417D02*
X157717D01*
X142717D02*
X143117D01*
X141117D02*
X142617D01*
X140117D02*
X141017D01*
X138417D02*
X138717D01*
X136517D02*
X137117D01*
X187317Y135184D02*
X187617D01*
X186117D02*
X187217D01*
X185617D02*
X185917D01*
X184817D02*
X185317D01*
X182017D02*
X183917D01*
X165417D02*
X167217D01*
X164517D02*
X165317D01*
X162817D02*
X163617D01*
X160417D02*
X162217D01*
X158917D02*
X159717D01*
X155417D02*
X157917D01*
X142617D02*
X143017D01*
X141217D02*
X142517D01*
X140017D02*
X140817D01*
X138417D02*
X138717D01*
X136417D02*
X137017D01*
X187217Y135084D02*
X187617D01*
X186117D02*
X187117D01*
X185717D02*
X185917D01*
X184717D02*
X185317D01*
X182117D02*
X183717D01*
X165317D02*
X167217D01*
X162917D02*
X165217D01*
X161517D02*
X161817D01*
X161117D02*
X161417D01*
X160717D02*
X161017D01*
X158617D02*
X159617D01*
X155517D02*
X158317D01*
X141317D02*
X142917D01*
X140117D02*
X140817D01*
X138417D02*
X138717D01*
X136317D02*
X136917D01*
X187217Y134984D02*
X187517D01*
X185817D02*
X186917D01*
X184617D02*
X185217D01*
X182117D02*
X183617D01*
X165117D02*
X167117D01*
X163117D02*
X165017D01*
X161517D02*
X161917D01*
X161117D02*
X161417D01*
X160717D02*
X161017D01*
X155517D02*
X159517D01*
X143217D02*
X143717D01*
X141417D02*
X142817D01*
X138417D02*
X138717D01*
X136217D02*
X136817D01*
X185917Y134884D02*
X187417D01*
X184617D02*
X185417D01*
X182117D02*
X184117D01*
X163217D02*
X167117D01*
X161517D02*
X162717D01*
X161117D02*
X161417D01*
X159917D02*
X161017D01*
X155617D02*
X159317D01*
X143117D02*
X143817D01*
X141517D02*
X142817D01*
X138417D02*
X138717D01*
X136117D02*
X136717D01*
X185917Y134784D02*
X187417D01*
X184617D02*
X185517D01*
X181817D02*
X184117D01*
X166717D02*
X167017D01*
X164717D02*
X166117D01*
X163517D02*
X164617D01*
X161517D02*
X162717D01*
X161117D02*
X161417D01*
X159917D02*
X161017D01*
X156517D02*
X159117D01*
X155617D02*
X156017D01*
X143017D02*
X143817D01*
X141617D02*
X142717D01*
X138417D02*
X138717D01*
X135917D02*
X136617D01*
X186117Y134684D02*
X187417D01*
X184617D02*
X185617D01*
X181517D02*
X184317D01*
X163617D02*
X166117D01*
X161517D02*
X162717D01*
X161117D02*
X161417D01*
X159917D02*
X161017D01*
X156617D02*
X159117D01*
X142917D02*
X144317D01*
X141817D02*
X142817D01*
X138417D02*
X138717D01*
X135817D02*
X136417D01*
X186217Y134584D02*
X187617D01*
X184617D02*
X185617D01*
X182017D02*
X184317D01*
X181317D02*
X181817D01*
X163517D02*
X166017D01*
X162417D02*
X162717D01*
X161117D02*
X161417D01*
X159917D02*
X160217D01*
X156717D02*
X159117D01*
X143517D02*
X144417D01*
X142317D02*
X143317D01*
X141917D02*
X142117D01*
X138417D02*
X138717D01*
X135717D02*
X136317D01*
X186217Y134484D02*
X187717D01*
X184917D02*
X185817D01*
X182917D02*
X184417D01*
X181917D02*
X182417D01*
X181017D02*
X181617D01*
X163517D02*
X166017D01*
X162417D02*
X162717D01*
X161117D02*
X161417D01*
X159917D02*
X160217D01*
X156617D02*
X159217D01*
X143517D02*
X144917D01*
X142517D02*
X143217D01*
X138417D02*
X138817D01*
X135617D02*
X136217D01*
X186117Y134384D02*
X187917D01*
X185017D02*
X185917D01*
X183017D02*
X184417D01*
X181917D02*
X182417D01*
X180917D02*
X181317D01*
X163417D02*
X166017D01*
X162417D02*
X162717D01*
X161117D02*
X161417D01*
X159917D02*
X160217D01*
X156617D02*
X159217D01*
X144117D02*
X145017D01*
X143517D02*
X144017D01*
X142517D02*
X143217D01*
X138417D02*
X138817D01*
X135517D02*
X136117D01*
X134917D02*
X135417D01*
X186717Y134284D02*
X188017D01*
X186017D02*
X186617D01*
X185117D02*
X185817D01*
X183817D02*
X184417D01*
X183017D02*
X183717D01*
X182017D02*
X182317D01*
X181417D02*
X181817D01*
X180917D02*
X181017D01*
X163417D02*
X166017D01*
X162417D02*
X162717D01*
X161117D02*
X161417D01*
X159917D02*
X160217D01*
X156617D02*
X159217D01*
X144117D02*
X145117D01*
X143517D02*
X143917D01*
X142617D02*
X143117D01*
X138417D02*
X138817D01*
X134817D02*
X135917D01*
X187717Y134184D02*
X187917D01*
X186717D02*
X187617D01*
X186017D02*
X186517D01*
X185217D02*
X185817D01*
X183817D02*
X184517D01*
X183017D02*
X183617D01*
X180917D02*
X181817D01*
X163417D02*
X166117D01*
X162417D02*
X162717D01*
X160817D02*
X161717D01*
X159917D02*
X160217D01*
X156617D02*
X159217D01*
X144117D02*
X145517D01*
X143417D02*
X143817D01*
X142617D02*
X142817D01*
X140017D02*
X142217D01*
X138417D02*
X138817D01*
X134717D02*
X135817D01*
X187017Y134084D02*
X187917D01*
X186617D02*
X186917D01*
X185917D02*
X186517D01*
X185317D02*
X185717D01*
X183817D02*
X184517D01*
X183017D02*
X183617D01*
X182017D02*
X182117D01*
X180817D02*
X181917D01*
X163417D02*
X166117D01*
X162217D02*
X162917D01*
X160817D02*
X161717D01*
X159717D02*
X160417D01*
X156517D02*
X159217D01*
X144717D02*
X145717D01*
X144117D02*
X144617D01*
X143417D02*
X143817D01*
X142617D02*
X142817D01*
X140017D02*
X142217D01*
X138517D02*
X138917D01*
X134617D02*
X135717D01*
X187217Y133984D02*
X187817D01*
X186617D02*
X186917D01*
X185917D02*
X186417D01*
X183017D02*
X184417D01*
X180817D02*
X182217D01*
X165017D02*
X166117D01*
X163417D02*
X164717D01*
X162217D02*
X162917D01*
X161017D02*
X161517D01*
X159717D02*
X160417D01*
X158017D02*
X159217D01*
X156517D02*
X157717D01*
X144817D02*
X145717D01*
X144117D02*
X144517D01*
X143517D02*
X143817D01*
X142617D02*
X142817D01*
X140017D02*
X142217D01*
X138517D02*
X138917D01*
X134617D02*
X135717D01*
X187417Y133884D02*
X187817D01*
X186517D02*
X186817D01*
X185817D02*
X186317D01*
X183017D02*
X184517D01*
X180817D02*
X182317D01*
X165117D02*
X166117D01*
X163417D02*
X164617D01*
X162317D02*
X162817D01*
X160917D02*
X161617D01*
X159717D02*
X160317D01*
X158117D02*
X159217D01*
X156517D02*
X157617D01*
X144817D02*
X146217D01*
X144117D02*
X144517D01*
X139817D02*
X142817D01*
X138517D02*
X138917D01*
X135217D02*
X135717D01*
X134617D02*
X135017D01*
X187517Y133784D02*
X187717D01*
X186417D02*
X186817D01*
X185717D02*
X186317D01*
X183117D02*
X184517D01*
X181617D02*
X182317D01*
X180617D02*
X181317D01*
X180017D02*
X180317D01*
X165217D02*
X166017D01*
X163517D02*
X164517D01*
X162417D02*
X162717D01*
X160817D02*
X161717D01*
X159917D02*
X160117D01*
X158117D02*
X159217D01*
X156617D02*
X157517D01*
X145417D02*
X146317D01*
X144717D02*
X145217D01*
X144017D02*
X144417D01*
X139817D02*
X142817D01*
X138617D02*
X139017D01*
X135217D02*
X135717D01*
X134617D02*
X135017D01*
X186417Y133684D02*
X186717D01*
X185717D02*
X186217D01*
X183117D02*
X184317D01*
X181717D02*
X182217D01*
X180517D02*
X181217D01*
X179717D02*
X180317D01*
X176817D02*
X177317D01*
X165317D02*
X165817D01*
X163517D02*
X164517D01*
X160917D02*
X161717D01*
X158117D02*
X159117D01*
X156817D02*
X157317D01*
X145417D02*
X146317D01*
X144717D02*
X145117D01*
X144017D02*
X144417D01*
X140717D02*
X142817D01*
X139817D02*
X140517D01*
X138617D02*
X139017D01*
X134617D02*
X135717D01*
X186317Y133584D02*
X186617D01*
X185717D02*
X186117D01*
X183217D02*
X184717D01*
X181817D02*
X182217D01*
X179717D02*
X181117D01*
X177617D02*
X177717D01*
X176817D02*
X177317D01*
X176317D02*
X176417D01*
X165417D02*
X165717D01*
X163517D02*
X164517D01*
X161117D02*
X161417D01*
X158217D02*
X159117D01*
X157017D02*
X157317D01*
X145417D02*
X146417D01*
X144717D02*
X145117D01*
X144017D02*
X144417D01*
X140717D02*
X142217D01*
X140017D02*
X140517D01*
X138617D02*
X139017D01*
X134617D02*
X135617D01*
X185717Y133484D02*
X186617D01*
X183317D02*
X184817D01*
X181817D02*
X182317D01*
X179517D02*
X181117D01*
X177517D02*
X177917D01*
X176817D02*
X177317D01*
X176217D02*
X176517D01*
X163517D02*
X164417D01*
X161117D02*
X161417D01*
X158217D02*
X159117D01*
X146017D02*
X146417D01*
X145317D02*
X145817D01*
X144717D02*
X145017D01*
X144017D02*
X144417D01*
X140617D02*
X142217D01*
X140017D02*
X140517D01*
X138717D02*
X139117D01*
X134717D02*
X135617D01*
X185917Y133384D02*
X186517D01*
X183617D02*
X184917D01*
X183317D02*
X183417D01*
X181817D02*
X182417D01*
X180217D02*
X181117D01*
X179517D02*
X180017D01*
X177517D02*
X178017D01*
X176717D02*
X177317D01*
X176017D02*
X176617D01*
X172417D02*
X172917D01*
X163517D02*
X164417D01*
X159917D02*
X162517D01*
X158217D02*
X159117D01*
X146017D02*
X146417D01*
X145317D02*
X145717D01*
X144017D02*
X144417D01*
X139817D02*
X142817D01*
X138717D02*
X139217D01*
X134817D02*
X135517D01*
X186017Y133284D02*
X186417D01*
X183417D02*
X184917D01*
X181817D02*
X182417D01*
X180717D02*
X181117D01*
X180217D02*
X180617D01*
X179517D02*
X179917D01*
X176017D02*
X178017D01*
X172417D02*
X172917D01*
X163717D02*
X164317D01*
X159917D02*
X162517D01*
X158317D02*
X159017D01*
X146017D02*
X146417D01*
X145317D02*
X145717D01*
X144017D02*
X144417D01*
X139817D02*
X142817D01*
X138817D02*
X139217D01*
X134917D02*
X135317D01*
X186217Y133184D02*
X186417D01*
X184417D02*
X185017D01*
X183217D02*
X184317D01*
X181717D02*
X182317D01*
X180217D02*
X181217D01*
X179617D02*
X179917D01*
X179017D02*
X179417D01*
X176117D02*
X178017D01*
X172517D02*
X172917D01*
X159917D02*
X162517D01*
X146017D02*
X146417D01*
X145317D02*
X145617D01*
X143617D02*
X144417D01*
X139817D02*
X142817D01*
X138817D02*
X139317D01*
X184517Y133084D02*
X185017D01*
X183117D02*
X184117D01*
X180117D02*
X182317D01*
X179517D02*
X180017D01*
X178917D02*
X179417D01*
X178217D02*
X178417D01*
X176117D02*
X177917D01*
X175717D02*
X175817D01*
X172517D02*
X172817D01*
X145917D02*
X146517D01*
X143617D02*
X144817D01*
X142617D02*
X142817D01*
X140017D02*
X142217D01*
X138917D02*
X139417D01*
X184517Y132984D02*
X185017D01*
X183017D02*
X183817D01*
X180617D02*
X182017D01*
X179517D02*
X180517D01*
X178917D02*
X179417D01*
X178117D02*
X178417D01*
X175617D02*
X178017D01*
X172517D02*
X172817D01*
X145917D02*
X146617D01*
X143617D02*
X144817D01*
X142617D02*
X142817D01*
X140017D02*
X142217D01*
X138917D02*
X139417D01*
X138317D02*
X138517D01*
X185317Y132884D02*
X185617D01*
X184617D02*
X185117D01*
X183017D02*
X183617D01*
X178817D02*
X182117D01*
X177117D02*
X178517D01*
X175617D02*
X177017D01*
X172517D02*
X172817D01*
X162317D02*
X162517D01*
X159917D02*
X160217D01*
X146917D02*
X147317D01*
X146017D02*
X146817D01*
X143617D02*
X144717D01*
X139817D02*
X142817D01*
X139017D02*
X139717D01*
X138217D02*
X138617D01*
X185817Y132784D02*
X186017D01*
X185217D02*
X185717D01*
X184617D02*
X185117D01*
X182917D02*
X183517D01*
X182217D02*
X182817D01*
X181117D02*
X182117D01*
X179817D02*
X180917D01*
X178817D02*
X179617D01*
X177417D02*
X178517D01*
X175517D02*
X176817D01*
X172517D02*
X172817D01*
X162217D02*
X162617D01*
X159817D02*
X160317D01*
X146217D02*
X147417D01*
X139817D02*
X142817D01*
X138917D02*
X139717D01*
X138217D02*
X138617D01*
X185217Y132684D02*
X186117D01*
X184517D02*
X185117D01*
X181717D02*
X183717D01*
X181117D02*
X181517D01*
X180317D02*
X180917D01*
X178917D02*
X179617D01*
X177617D02*
X178617D01*
X175517D02*
X177017D01*
X172517D02*
X172817D01*
X162117D02*
X162617D01*
X159817D02*
X160417D01*
X146217D02*
X147617D01*
X143517D02*
X144717D01*
X139817D02*
X142817D01*
X138317D02*
X139717D01*
X137917D02*
X138217D01*
X184317Y132584D02*
X186117D01*
X181717D02*
X183817D01*
X181117D02*
X181517D01*
X180717D02*
X181017D01*
X180317D02*
X180517D01*
X178917D02*
X179717D01*
X177717D02*
X178517D01*
X177517D02*
X177617D01*
X175617D02*
X177117D01*
X172517D02*
X172817D01*
X162017D02*
X162617D01*
X159917D02*
X160517D01*
X147217D02*
X147817D01*
X146717D02*
X147117D01*
X146217D02*
X146617D01*
X143517D02*
X144717D01*
X140017D02*
X142217D01*
X138317D02*
X139317D01*
X137817D02*
X138217D01*
X184117Y132484D02*
X186117D01*
X181517D02*
X183817D01*
X180317D02*
X181017D01*
X179017D02*
X179717D01*
X177417D02*
X178317D01*
X175717D02*
X177217D01*
X172517D02*
X172817D01*
X161917D02*
X162517D01*
X160017D02*
X160517D01*
X147317D02*
X148017D01*
X146717D02*
X147017D01*
X146117D02*
X146517D01*
X143517D02*
X144717D01*
X140017D02*
X142217D01*
X138417D02*
X139117D01*
X137917D02*
X138317D01*
X183817Y132384D02*
X186117D01*
X181317D02*
X183717D01*
X180317D02*
X180917D01*
X179017D02*
X179717D01*
X177317D02*
X178317D01*
X175717D02*
X177217D01*
X172517D02*
X172817D01*
X161817D02*
X162417D01*
X160117D02*
X160717D01*
X147517D02*
X148117D01*
X146717D02*
X147217D01*
X146117D02*
X146417D01*
X143717D02*
X144717D01*
X143417D02*
X143617D01*
X140017D02*
X142217D01*
X137917D02*
X138917D01*
X184917Y132284D02*
X186217D01*
X182417D02*
X184817D01*
X181217D02*
X182217D01*
X180517D02*
X180817D01*
X179017D02*
X179717D01*
X176417D02*
X178717D01*
X175417D02*
X176217D01*
X172517D02*
X172817D01*
X161717D02*
X162317D01*
X160217D02*
X160817D01*
X148917D02*
X149617D01*
X147717D02*
X148117D01*
X146817D02*
X147417D01*
X146017D02*
X146417D01*
X143917D02*
X144317D01*
X143417D02*
X143617D01*
X139817D02*
X142717D01*
X138517D02*
X138917D01*
X138017D02*
X138417D01*
X184917Y132184D02*
X186317D01*
X182417D02*
X184617D01*
X181117D02*
X182017D01*
X179217D02*
X179817D01*
X177917D02*
X178717D01*
X176717D02*
X177817D01*
X175417D02*
X176217D01*
X172517D02*
X172817D01*
X161617D02*
X162217D01*
X160317D02*
X160917D01*
X148717D02*
X149817D01*
X147817D02*
X148117D01*
X147017D02*
X147617D01*
X145917D02*
X146317D01*
X143917D02*
X144317D01*
X143317D02*
X143717D01*
X139817D02*
X142717D01*
X137917D02*
X139017D01*
X184917Y132084D02*
X186217D01*
X182417D02*
X184317D01*
X181117D02*
X181817D01*
X179217D02*
X180017D01*
X177917D02*
X178717D01*
X176617D02*
X177817D01*
X175417D02*
X176217D01*
X172517D02*
X172817D01*
X160417D02*
X162117D01*
X148617D02*
X149917D01*
X147117D02*
X148317D01*
X145917D02*
X146217D01*
X143917D02*
X144317D01*
X143317D02*
X143617D01*
X139817D02*
X142717D01*
X138617D02*
X139017D01*
X137817D02*
X138517D01*
X184717Y131984D02*
X186217D01*
X183317D02*
X184117D01*
X182517D02*
X183217D01*
X181117D02*
X181617D01*
X180317D02*
X180917D01*
X179117D02*
X180017D01*
X177917D02*
X178717D01*
X176617D02*
X177817D01*
X175417D02*
X176217D01*
X174317D02*
X174517D01*
X172517D02*
X172817D01*
X160517D02*
X162017D01*
X149517D02*
X150017D01*
X148517D02*
X149017D01*
X147317D02*
X148417D01*
X145817D02*
X146217D01*
X143917D02*
X144317D01*
X143417D02*
X143617D01*
X142417D02*
X142717D01*
X140017D02*
X142217D01*
X137617D02*
X139017D01*
X136917D02*
X137217D01*
X184617Y131884D02*
X186017D01*
X183517D02*
X183817D01*
X182717D02*
X183217D01*
X181117D02*
X181917D01*
X180117D02*
X181017D01*
X179117D02*
X180017D01*
X177817D02*
X178717D01*
X176517D02*
X177617D01*
X175417D02*
X176217D01*
X174117D02*
X174617D01*
X172517D02*
X172817D01*
X170417D02*
X170917D01*
X169717D02*
X170117D01*
X162317D02*
X162617D01*
X160617D02*
X162017D01*
X159917D02*
X160217D01*
X149617D02*
X150017D01*
X147517D02*
X148817D01*
X145817D02*
X146117D01*
X143917D02*
X144317D01*
X142417D02*
X142717D01*
X140017D02*
X142217D01*
X138717D02*
X138917D01*
X137517D02*
X138617D01*
X136717D02*
X137417D01*
X184217Y131784D02*
X185917D01*
X182417D02*
X183217D01*
X179917D02*
X181917D01*
X179017D02*
X179717D01*
X177817D02*
X178317D01*
X177217D02*
X177417D01*
X176517D02*
X177117D01*
X175717D02*
X176217D01*
X174117D02*
X174617D01*
X172517D02*
X172817D01*
X170417D02*
X171317D01*
X169417D02*
X170117D01*
X162217D02*
X162717D01*
X160417D02*
X162117D01*
X159817D02*
X160317D01*
X149717D02*
X150117D01*
X148117D02*
X148817D01*
X147717D02*
X147917D01*
X145717D02*
X146117D01*
X143917D02*
X144317D01*
X142417D02*
X142717D01*
X138217D02*
X138717D01*
X136617D02*
X138017D01*
X184117Y131684D02*
X185917D01*
X182217D02*
X183117D01*
X179717D02*
X181917D01*
X179017D02*
X179417D01*
X177717D02*
X178317D01*
X176517D02*
X177117D01*
X175717D02*
X176317D01*
X174017D02*
X174617D01*
X172517D02*
X172817D01*
X170417D02*
X171517D01*
X169317D02*
X170117D01*
X159817D02*
X162717D01*
X149817D02*
X150117D01*
X149317D02*
X149617D01*
X148817D02*
X149017D01*
X148317D02*
X148717D01*
X145617D02*
X146017D01*
X143317D02*
X144417D01*
X142417D02*
X142717D01*
X138317D02*
X138617D01*
X136517D02*
X137917D01*
X183817Y131584D02*
X185817D01*
X182017D02*
X183117D01*
X179417D02*
X181817D01*
X177717D02*
X178417D01*
X176517D02*
X177117D01*
X175617D02*
X176417D01*
X174017D02*
X174617D01*
X172517D02*
X172817D01*
X170417D02*
X171617D01*
X169217D02*
X170117D01*
X159817D02*
X162617D01*
X149817D02*
X150117D01*
X149217D02*
X149717D01*
X148817D02*
X149017D01*
X148417D02*
X148717D01*
X145617D02*
X145917D01*
X142017D02*
X145117D01*
X136517D02*
X137717D01*
X183717Y131484D02*
X185817D01*
X180617D02*
X183017D01*
X179317D02*
X180417D01*
X177617D02*
X178617D01*
X176517D02*
X177117D01*
X175517D02*
X176417D01*
X173917D02*
X174517D01*
X172517D02*
X172817D01*
X170417D02*
X171717D01*
X169117D02*
X170117D01*
X159917D02*
X162517D01*
X149817D02*
X150117D01*
X148817D02*
X149717D01*
X148417D02*
X148717D01*
X141617D02*
X145917D01*
X137217D02*
X137617D01*
X136517D02*
X136917D01*
X183517Y131384D02*
X185617D01*
X180517D02*
X182717D01*
X179317D02*
X180117D01*
X177517D02*
X178617D01*
X175117D02*
X177117D01*
X173917D02*
X174517D01*
X172517D02*
X172817D01*
X170417D02*
X171817D01*
X169017D02*
X170117D01*
X163917D02*
X164017D01*
X162917D02*
X163117D01*
X160017D02*
X162517D01*
X159417D02*
X159617D01*
X154917D02*
X156417D01*
X149817D02*
X150117D01*
X148817D02*
X149717D01*
X148417D02*
X148717D01*
X144517D02*
X145817D01*
X143517D02*
X143817D01*
X141417D02*
X142817D01*
X137217D02*
X137617D01*
X136517D02*
X136917D01*
X183317Y131284D02*
X185617D01*
X180517D02*
X182517D01*
X179217D02*
X179917D01*
X177317D02*
X178517D01*
X175617D02*
X177017D01*
X175017D02*
X175517D01*
X173817D02*
X174517D01*
X172517D02*
X172817D01*
X170417D02*
X171817D01*
X169017D02*
X170117D01*
X163817D02*
X164217D01*
X162817D02*
X163217D01*
X159917D02*
X162617D01*
X159317D02*
X159717D01*
X154817D02*
X156417D01*
X149817D02*
X150117D01*
X149417D02*
X149717D01*
X148817D02*
X149317D01*
X148417D02*
X148717D01*
X145017D02*
X145717D01*
X143517D02*
X143817D01*
X142517D02*
X142817D01*
X141117D02*
X142017D01*
X136517D02*
X137617D01*
X185217Y131184D02*
X185617D01*
X183117D02*
X184917D01*
X181417D02*
X182217D01*
X180617D02*
X181317D01*
X179217D02*
X179717D01*
X175617D02*
X178417D01*
X174917D02*
X175517D01*
X173817D02*
X174417D01*
X172517D02*
X172817D01*
X170417D02*
X171817D01*
X168917D02*
X170117D01*
X163717D02*
X164217D01*
X159917D02*
X163217D01*
X159317D02*
X159817D01*
X154817D02*
X156417D01*
X149817D02*
X150117D01*
X149417D02*
X149717D01*
X148917D02*
X149217D01*
X148417D02*
X148717D01*
X145517D02*
X145717D01*
X143517D02*
X143817D01*
X142517D02*
X142817D01*
X140917D02*
X141817D01*
X136517D02*
X137617D01*
X185317Y131084D02*
X185417D01*
X182917D02*
X185017D01*
X181617D02*
X182017D01*
X180817D02*
X181317D01*
X179217D02*
X179717D01*
X178217D02*
X178417D01*
X176117D02*
X177917D01*
X175717D02*
X175917D01*
X174817D02*
X175517D01*
X173817D02*
X174417D01*
X172517D02*
X172817D01*
X170617D02*
X171817D01*
X168917D02*
X169917D01*
X163617D02*
X164217D01*
X159317D02*
X163217D01*
X153417D02*
X158817D01*
X152817D02*
X153117D01*
X152217D02*
X152617D01*
X151717D02*
X152017D01*
X151117D02*
X151417D01*
X149717D02*
X150817D01*
X148417D02*
X148817D01*
X145517D02*
X145717D01*
X143517D02*
X143817D01*
X142517D02*
X142817D01*
X141617D02*
X141817D01*
X140617D02*
X141517D01*
X136617D02*
X137517D01*
X182717Y130984D02*
X185117D01*
X180517D02*
X181317D01*
X179217D02*
X179717D01*
X176117D02*
X178017D01*
X174717D02*
X175517D01*
X173717D02*
X174417D01*
X172517D02*
X172817D01*
X170717D02*
X171917D01*
X168817D02*
X169917D01*
X163517D02*
X164117D01*
X161417D02*
X163117D01*
X159417D02*
X161117D01*
X153317D02*
X158917D01*
X152817D02*
X153117D01*
X152217D02*
X152617D01*
X151617D02*
X152017D01*
X151117D02*
X151417D01*
X149617D02*
X150917D01*
X148517D02*
X148817D01*
X145517D02*
X145717D01*
X143517D02*
X143817D01*
X142517D02*
X142817D01*
X141617D02*
X141817D01*
X140417D02*
X141217D01*
X136717D02*
X137417D01*
X182517Y130884D02*
X185117D01*
X180317D02*
X181317D01*
X179317D02*
X179817D01*
X176017D02*
X178017D01*
X174617D02*
X175417D01*
X173717D02*
X174317D01*
X172517D02*
X172817D01*
X170817D02*
X171917D01*
X166117D02*
X169817D01*
X164517D02*
X164617D01*
X163417D02*
X164017D01*
X161417D02*
X163017D01*
X159517D02*
X161017D01*
X153417D02*
X159117D01*
X152817D02*
X153117D01*
X152217D02*
X152617D01*
X151617D02*
X152017D01*
X151117D02*
X151517D01*
X150117D02*
X150917D01*
X149517D02*
X150017D01*
X148517D02*
X149017D01*
X145517D02*
X145717D01*
X143517D02*
X143817D01*
X142517D02*
X142817D01*
X141617D02*
X141817D01*
X140317D02*
X141017D01*
X136817D02*
X137217D01*
X182317Y130784D02*
X185217D01*
X180117D02*
X181217D01*
X179317D02*
X179817D01*
X176017D02*
X178017D01*
X174517D02*
X175317D01*
X173717D02*
X174317D01*
X172517D02*
X172817D01*
X170917D02*
X171917D01*
X166117D02*
X169717D01*
X164317D02*
X164717D01*
X163317D02*
X163917D01*
X161517D02*
X163117D01*
X159517D02*
X161017D01*
X158617D02*
X159217D01*
X157917D02*
X158117D01*
X154817D02*
X156417D01*
X153317D02*
X154017D01*
X152817D02*
X153217D01*
X152217D02*
X152617D01*
X151617D02*
X152017D01*
X151117D02*
X151517D01*
X150217D02*
X150917D01*
X148617D02*
X149917D01*
X145517D02*
X145717D01*
X143517D02*
X143817D01*
X142517D02*
X142817D01*
X141617D02*
X141817D01*
X140117D02*
X140817D01*
X182217Y130684D02*
X185217D01*
X179317D02*
X181117D01*
X177517D02*
X177917D01*
X176817D02*
X177317D01*
X176117D02*
X176517D01*
X174417D02*
X175317D01*
X173717D02*
X174317D01*
X172517D02*
X172817D01*
X170917D02*
X171917D01*
X166017D02*
X169717D01*
X164317D02*
X164717D01*
X161417D02*
X163817D01*
X159417D02*
X161017D01*
X158717D02*
X159317D01*
X157817D02*
X158217D01*
X154817D02*
X156417D01*
X153317D02*
X153717D01*
X152717D02*
X153217D01*
X152217D02*
X152617D01*
X151617D02*
X152117D01*
X151017D02*
X151517D01*
X150517D02*
X150917D01*
X148717D02*
X149817D01*
X145517D02*
X145717D01*
X143517D02*
X143817D01*
X142517D02*
X142817D01*
X141517D02*
X141817D01*
X140017D02*
X140617D01*
X182017Y130584D02*
X185117D01*
X179417D02*
X180817D01*
X177617D02*
X177817D01*
X176817D02*
X177317D01*
X176317D02*
X176517D01*
X173417D02*
X175217D01*
X172517D02*
X172817D01*
X170917D02*
X171917D01*
X166017D02*
X169717D01*
X164117D02*
X164717D01*
X161317D02*
X163717D01*
X158817D02*
X161117D01*
X157817D02*
X158317D01*
X154817D02*
X156417D01*
X150617D02*
X153717D01*
X148917D02*
X149617D01*
X144717D02*
X146517D01*
X143417D02*
X143817D01*
X142517D02*
X142817D01*
X141517D02*
X141817D01*
X139817D02*
X140417D01*
X181817Y130484D02*
X184917D01*
X179417D02*
X180617D01*
X176817D02*
X177317D01*
X173517D02*
X175117D01*
X172517D02*
X172817D01*
X170917D02*
X172217D01*
X166017D02*
X169617D01*
X164017D02*
X164717D01*
X158917D02*
X163717D01*
X157817D02*
X158417D01*
X150617D02*
X153617D01*
X144717D02*
X146517D01*
X143417D02*
X143717D01*
X142417D02*
X142817D01*
X141417D02*
X141817D01*
X139217D02*
X140217D01*
X181617Y130384D02*
X184917D01*
X179517D02*
X180417D01*
X173617D02*
X175017D01*
X172517D02*
X172817D01*
X170917D02*
X172217D01*
X166017D02*
X169717D01*
X164017D02*
X164617D01*
X158917D02*
X163517D01*
X157917D02*
X158517D01*
X150717D02*
X153617D01*
X144717D02*
X146517D01*
X143417D02*
X143717D01*
X142417D02*
X142717D01*
X141417D02*
X141717D01*
X139117D02*
X140117D01*
X181417Y130284D02*
X184717D01*
X179717D02*
X180217D01*
X173517D02*
X174917D01*
X172517D02*
X172817D01*
X165917D02*
X172217D01*
X164917D02*
X165217D01*
X163817D02*
X164417D01*
X159017D02*
X163617D01*
X158017D02*
X158617D01*
X157417D02*
X157617D01*
X153117D02*
X153517D01*
X152517D02*
X152917D01*
X151917D02*
X152317D01*
X151317D02*
X151717D01*
X150817D02*
X151217D01*
X146217D02*
X146517D01*
X144417D02*
X145017D01*
X144017D02*
X144317D01*
X143017D02*
X143817D01*
X142017D02*
X142817D01*
X141417D02*
X141917D01*
X139017D02*
X140017D01*
X181217Y130184D02*
X184617D01*
X176517D02*
X179717D01*
X173517D02*
X174817D01*
X165917D02*
X173117D01*
X164817D02*
X165317D01*
X163817D02*
X164417D01*
X158917D02*
X163717D01*
X158117D02*
X158717D01*
X157317D02*
X157717D01*
X146217D02*
X146517D01*
X144417D02*
X145017D01*
X144017D02*
X144317D01*
X143017D02*
X143817D01*
X142017D02*
X142817D01*
X141317D02*
X141917D01*
X139017D02*
X140017D01*
X181017Y130084D02*
X184417D01*
X180617D02*
X180817D01*
X175717D02*
X179717D01*
X173417D02*
X174617D01*
X165917D02*
X173117D01*
X164717D02*
X165317D01*
X158217D02*
X164317D01*
X157217D02*
X157817D01*
X150517D02*
X153517D01*
X146217D02*
X146517D01*
X144417D02*
X145017D01*
X144017D02*
X144317D01*
X143017D02*
X143817D01*
X142017D02*
X142917D01*
X141317D02*
X141917D01*
X139617D02*
X140017D01*
X139017D02*
X139417D01*
X180417Y129984D02*
X184417D01*
X175617D02*
X179717D01*
X173317D02*
X174617D01*
X165917D02*
X173117D01*
X164617D02*
X165217D01*
X158317D02*
X164217D01*
X157317D02*
X157917D01*
X150517D02*
X153517D01*
X144717D02*
X146517D01*
X143217D02*
X143817D01*
X142217D02*
X142817D01*
X141317D02*
X141917D01*
X139617D02*
X140017D01*
X138917D02*
X139417D01*
X180217Y129884D02*
X184217D01*
X178717D02*
X179717D01*
X175617D02*
X178217D01*
X173317D02*
X174617D01*
X165917D02*
X173117D01*
X164617D02*
X165117D01*
X158417D02*
X164117D01*
X157417D02*
X158017D01*
X150517D02*
X153517D01*
X144717D02*
X146517D01*
X143217D02*
X143917D01*
X142217D02*
X142917D01*
X141217D02*
X142017D01*
X139617D02*
X140017D01*
X138917D02*
X139417D01*
X180017Y129784D02*
X184117D01*
X173317D02*
X179617D01*
X165817D02*
X173117D01*
X165517D02*
X165717D01*
X164417D02*
X165017D01*
X158517D02*
X164117D01*
X157517D02*
X158117D01*
X156917D02*
X157017D01*
X153217D02*
X153617D01*
X152517D02*
X152917D01*
X151817D02*
X152317D01*
X151117D02*
X151617D01*
X150517D02*
X150917D01*
X147117D02*
X149017D01*
X144817D02*
X146417D01*
X143117D02*
X144017D01*
X142117D02*
X143017D01*
X141217D02*
X142017D01*
X139017D02*
X140017D01*
X179817Y129684D02*
X183917D01*
X173217D02*
X179417D01*
X170317D02*
X173117D01*
X165317D02*
X170217D01*
X164317D02*
X164917D01*
X158417D02*
X164217D01*
X157617D02*
X158217D01*
X156817D02*
X157117D01*
X150317D02*
X153717D01*
X147117D02*
X149017D01*
X145517D02*
X145717D01*
X143717D02*
X144017D01*
X143117D02*
X143617D01*
X142117D02*
X143017D01*
X141117D02*
X142017D01*
X139017D02*
X140017D01*
X179717Y129584D02*
X183817D01*
X178717D02*
X179417D01*
X174317D02*
X178217D01*
X173717D02*
X174217D01*
X173217D02*
X173617D01*
X172517D02*
X172917D01*
X170917D02*
X172217D01*
X165317D02*
X169617D01*
X157717D02*
X164817D01*
X156717D02*
X157217D01*
X150317D02*
X153817D01*
X147017D02*
X149317D01*
X145517D02*
X145717D01*
X143317D02*
X144017D01*
X142417D02*
X143017D01*
X141417D02*
X142017D01*
X139117D02*
X139917D01*
X179517Y129484D02*
X183717D01*
X175617D02*
X179417D01*
X174417D02*
X175517D01*
X173117D02*
X174217D01*
X172417D02*
X172917D01*
X170917D02*
X172217D01*
X165117D02*
X169617D01*
X157817D02*
X164717D01*
X156717D02*
X157317D01*
X150217D02*
X153817D01*
X148817D02*
X149317D01*
X147017D02*
X147817D01*
X145517D02*
X145717D01*
X143417D02*
X143917D01*
X142417D02*
X143017D01*
X141417D02*
X142017D01*
X139217D02*
X139817D01*
X175617Y129384D02*
X183417D01*
X174517D02*
X174917D01*
X173617D02*
X174117D01*
X173117D02*
X173517D01*
X172417D02*
X172917D01*
X170917D02*
X172217D01*
X165817D02*
X169617D01*
X165117D02*
X165717D01*
X157917D02*
X164617D01*
X156817D02*
X157417D01*
X154617D02*
X156117D01*
X153417D02*
X153817D01*
X152817D02*
X153317D01*
X152117D02*
X152617D01*
X151417D02*
X152017D01*
X150717D02*
X151317D01*
X150217D02*
X150617D01*
X148817D02*
X149317D01*
X147017D02*
X147817D01*
X145517D02*
X145717D01*
X143417D02*
X143917D01*
X142417D02*
X142917D01*
X141517D02*
X141917D01*
X179617Y129284D02*
X183417D01*
X175717D02*
X179517D01*
X174517D02*
X175517D01*
X173117D02*
X174017D01*
X166717D02*
X171917D01*
X166017D02*
X166217D01*
X165017D02*
X165517D01*
X157917D02*
X164617D01*
X156917D02*
X157617D01*
X154617D02*
X156117D01*
X153517D02*
X153917D01*
X152817D02*
X153317D01*
X152117D02*
X152617D01*
X151517D02*
X151917D01*
X150817D02*
X151217D01*
X150217D02*
X150617D01*
X148817D02*
X149017D01*
X147117D02*
X147817D01*
X145517D02*
X145717D01*
X143517D02*
X143817D01*
X142517D02*
X142817D01*
X141517D02*
X141917D01*
X179617Y129184D02*
X183217D01*
X174517D02*
X179517D01*
X173117D02*
X173917D01*
X166717D02*
X171917D01*
X165917D02*
X166317D01*
X164817D02*
X165417D01*
X157917D02*
X164717D01*
X157017D02*
X157717D01*
X153517D02*
X156617D01*
X152817D02*
X153217D01*
X152217D02*
X152617D01*
X151517D02*
X151917D01*
X150817D02*
X151217D01*
X149617D02*
X150517D01*
X148817D02*
X149217D01*
X147517D02*
X147717D01*
X147117D02*
X147417D01*
X145517D02*
X147017D01*
X143517D02*
X143817D01*
X142517D02*
X142817D01*
X141417D02*
X142117D01*
X180617Y129084D02*
X183217D01*
X179717D02*
X180517D01*
X176517D02*
X179617D01*
X174517D02*
X175917D01*
X173117D02*
X173817D01*
X166717D02*
X171917D01*
X165817D02*
X166317D01*
X157117D02*
X165317D01*
X153517D02*
X156717D01*
X152917D02*
X153217D01*
X152217D02*
X152617D01*
X151517D02*
X151917D01*
X150817D02*
X151217D01*
X149617D02*
X150517D01*
X148817D02*
X149317D01*
X145517D02*
X147417D01*
X143517D02*
X143817D01*
X142517D02*
X142817D01*
X141317D02*
X142217D01*
X180617Y128984D02*
X182917D01*
X179717D02*
X180417D01*
X176617D02*
X179617D01*
X174417D02*
X175917D01*
X173117D02*
X173717D01*
X166717D02*
X171917D01*
X165717D02*
X166317D01*
X157217D02*
X165317D01*
X153517D02*
X156817D01*
X152917D02*
X153217D01*
X152217D02*
X152517D01*
X151517D02*
X151917D01*
X150817D02*
X151217D01*
X149617D02*
X150517D01*
X148817D02*
X149317D01*
X145517D02*
X147417D01*
X143517D02*
X143817D01*
X142517D02*
X142817D01*
X141217D02*
X142217D01*
X180717Y128884D02*
X182917D01*
X179717D02*
X180417D01*
X176617D02*
X179617D01*
X174417D02*
X175917D01*
X173117D02*
X173617D01*
X166717D02*
X171917D01*
X165617D02*
X166217D01*
X157317D02*
X165217D01*
X153517D02*
X156917D01*
X152917D02*
X153217D01*
X152217D02*
X152517D01*
X151517D02*
X151817D01*
X150917D02*
X151217D01*
X149617D02*
X150517D01*
X148817D02*
X149017D01*
X147117D02*
X147417D01*
X143517D02*
X143817D01*
X142417D02*
X142817D01*
X141217D02*
X142317D01*
X180717Y128784D02*
X182717D01*
X179817D02*
X180517D01*
X178117D02*
X179617D01*
X174417D02*
X175917D01*
X165517D02*
X166117D01*
X157417D02*
X165117D01*
X156417D02*
X157017D01*
X154617D02*
X156117D01*
X153717D02*
X154017D01*
X149617D02*
X150017D01*
X148817D02*
X149017D01*
X147117D02*
X147417D01*
X143517D02*
X143917D01*
X141817D02*
X142817D01*
X141217D02*
X141617D01*
X180817Y128684D02*
X182717D01*
X179817D02*
X180517D01*
X178117D02*
X179717D01*
X175117D02*
X175917D01*
X174417D02*
X175017D01*
X165417D02*
X166017D01*
X157417D02*
X165217D01*
X156517D02*
X157117D01*
X154617D02*
X156117D01*
X153717D02*
X154017D01*
X150117D02*
X150317D01*
X149617D02*
X150017D01*
X148817D02*
X149317D01*
X147017D02*
X147417D01*
X143617D02*
X144017D01*
X141817D02*
X142717D01*
X141217D02*
X141617D01*
X180817Y128584D02*
X182417D01*
X179817D02*
X180617D01*
X178117D02*
X179717D01*
X174517D02*
X174917D01*
X167917D02*
X169117D01*
X157317D02*
X165817D01*
X156617D02*
X157217D01*
X153717D02*
X154017D01*
X150117D02*
X150417D01*
X149617D02*
X150017D01*
X148817D02*
X149317D01*
X147017D02*
X147417D01*
X145517D02*
X145617D01*
X143717D02*
X144117D01*
X141817D02*
X142417D01*
X141217D02*
X141717D01*
X180917Y128484D02*
X182417D01*
X179917D02*
X180717D01*
X178217D02*
X179717D01*
X167617D02*
X173217D01*
X156717D02*
X165817D01*
X155617D02*
X156017D01*
X154817D02*
X155217D01*
X153717D02*
X154017D01*
X150117D02*
X150617D01*
X149617D02*
X150017D01*
X148817D02*
X149317D01*
X147017D02*
X147417D01*
X145417D02*
X145617D01*
X144917D02*
X145317D01*
X143717D02*
X144217D01*
X141217D02*
X142217D01*
X180917Y128384D02*
X182217D01*
X180017D02*
X180717D01*
X178217D02*
X179717D01*
X167417D02*
X177217D01*
X156817D02*
X165717D01*
X155617D02*
X156017D01*
X154817D02*
X155217D01*
X153717D02*
X154017D01*
X150117D02*
X150817D01*
X149617D02*
X150017D01*
X148817D02*
X149117D01*
X147117D02*
X147417D01*
X144917D02*
X145617D01*
X143817D02*
X144317D01*
X141317D02*
X142217D01*
X181917Y128284D02*
X182217D01*
X180017D02*
X181817D01*
X167217D02*
X179717D01*
X164817D02*
X165617D01*
X163017D02*
X164117D01*
X162717D02*
X162917D01*
X160517D02*
X162017D01*
X159617D02*
X159817D01*
X158217D02*
X158917D01*
X156917D02*
X157817D01*
X155617D02*
X156017D01*
X154817D02*
X155217D01*
X153217D02*
X154417D01*
X150117D02*
X151017D01*
X149617D02*
X150017D01*
X148817D02*
X149317D01*
X144917D02*
X147417D01*
X143917D02*
X144517D01*
X141317D02*
X142117D01*
X180117Y128184D02*
X181817D01*
X170617D02*
X179817D01*
X169517D02*
X169717D01*
X167117D02*
X169317D01*
X163017D02*
X165517D01*
X162017D02*
X162917D01*
X161417D02*
X161917D01*
X159617D02*
X161217D01*
X157017D02*
X159517D01*
X155617D02*
X156017D01*
X154817D02*
X155217D01*
X153217D02*
X154417D01*
X150517D02*
X151217D01*
X150117D02*
X150417D01*
X149617D02*
X150017D01*
X148817D02*
X149317D01*
X144017D02*
X147417D01*
X141517D02*
X142017D01*
X180117Y128084D02*
X181917D01*
X178717D02*
X179817D01*
X174617D02*
X178517D01*
X169417D02*
X169817D01*
X167017D02*
X169317D01*
X165017D02*
X165517D01*
X163017D02*
X164917D01*
X161917D02*
X162917D01*
X161217D02*
X161817D01*
X159617D02*
X161117D01*
X158417D02*
X159517D01*
X157617D02*
X158317D01*
X157017D02*
X157517D01*
X155617D02*
X156017D01*
X154817D02*
X155217D01*
X153217D02*
X154417D01*
X150717D02*
X151317D01*
X150117D02*
X150417D01*
X149617D02*
X150017D01*
X148817D02*
X149317D01*
X144217D02*
X147417D01*
X180217Y127984D02*
X181917D01*
X178817D02*
X179817D01*
X177217D02*
X178617D01*
X166917D02*
X169817D01*
X163017D02*
X165517D01*
X161917D02*
X162917D01*
X161517D02*
X161817D01*
X159617D02*
X161417D01*
X157017D02*
X159517D01*
X154817D02*
X156317D01*
X153317D02*
X154317D01*
X150917D02*
X151517D01*
X149617D02*
X150817D01*
X148817D02*
X149117D01*
X147117D02*
X147417D01*
X144717D02*
X145617D01*
X143317D02*
X144517D01*
X180117Y127884D02*
X181817D01*
X178817D02*
X179917D01*
X177717D02*
X178717D01*
X177117D02*
X177617D01*
X168717D02*
X169917D01*
X168217D02*
X168617D01*
X166817D02*
X168117D01*
X164817D02*
X165517D01*
X163017D02*
X164217D01*
X161117D02*
X162917D01*
X160217D02*
X161017D01*
X159617D02*
X159817D01*
X158817D02*
X159517D01*
X158517D02*
X158717D01*
X157017D02*
X158417D01*
X154517D02*
X156417D01*
X153317D02*
X154417D01*
X151117D02*
X151717D01*
X149617D02*
X150817D01*
X148817D02*
X149117D01*
X147117D02*
X147417D01*
X144917D02*
X145617D01*
X143317D02*
X144417D01*
X180117Y127784D02*
X181617D01*
X178817D02*
X179917D01*
X177117D02*
X178717D01*
X169017D02*
X169817D01*
X168217D02*
X168617D01*
X166717D02*
X167817D01*
X163017D02*
X165517D01*
X162517D02*
X162917D01*
X161617D02*
X161917D01*
X161017D02*
X161517D01*
X159617D02*
X160917D01*
X158917D02*
X159517D01*
X157017D02*
X158817D01*
X153217D02*
X156417D01*
X151217D02*
X151917D01*
X149617D02*
X150417D01*
X148817D02*
X149317D01*
X147017D02*
X147417D01*
X145417D02*
X145617D01*
X144917D02*
X145317D01*
X143317D02*
X144417D01*
X180117Y127684D02*
X181517D01*
X178817D02*
X179917D01*
X177117D02*
X178717D01*
X169117D02*
X169717D01*
X168217D02*
X168617D01*
X166717D02*
X167717D01*
X163817D02*
X165517D01*
X161717D02*
X163717D01*
X159617D02*
X161617D01*
X158917D02*
X159517D01*
X158417D02*
X158817D01*
X157617D02*
X158317D01*
X157017D02*
X157517D01*
X154917D02*
X156417D01*
X153217D02*
X154817D01*
X151417D02*
X152117D01*
X150117D02*
X150417D01*
X148817D02*
X149317D01*
X147017D02*
X147417D01*
X143317D02*
X144417D01*
X180217Y127584D02*
X181317D01*
X178917D02*
X180117D01*
X178417D02*
X178717D01*
X178017D02*
X178317D01*
X177517D02*
X177817D01*
X177117D02*
X177417D01*
X171017D02*
X171417D01*
X170517D02*
X170817D01*
X169217D02*
X170117D01*
X168017D02*
X168817D01*
X166617D02*
X167617D01*
X164217D02*
X165617D01*
X163817D02*
X164117D01*
X163117D02*
X163717D01*
X160917D02*
X163017D01*
X159617D02*
X160817D01*
X157017D02*
X159517D01*
X156117D02*
X156417D01*
X155217D02*
X155517D01*
X153217D02*
X154817D01*
X151617D02*
X152617D01*
X150117D02*
X150417D01*
X148817D02*
X149317D01*
X147017D02*
X147417D01*
X144017D02*
X144417D01*
X143317D02*
X143717D01*
X180217Y127484D02*
X181117D01*
X178917D02*
X180117D01*
X178417D02*
X178717D01*
X178017D02*
X178317D01*
X177517D02*
X177817D01*
X177117D02*
X177417D01*
X170417D02*
X171417D01*
X169317D02*
X170217D01*
X167817D02*
X168917D01*
X166617D02*
X167517D01*
X164917D02*
X165717D01*
X163617D02*
X164217D01*
X161817D02*
X163217D01*
X160517D02*
X161717D01*
X159617D02*
X159817D01*
X158817D02*
X159517D01*
X158117D02*
X158717D01*
X156917D02*
X157817D01*
X156117D02*
X156417D01*
X155117D02*
X155617D01*
X154417D02*
X154717D01*
X153717D02*
X154017D01*
X151817D02*
X152717D01*
X150117D02*
X150417D01*
X148817D02*
X149117D01*
X147117D02*
X147417D01*
X144017D02*
X144417D01*
X143317D02*
X143717D01*
X180317Y127384D02*
X180917D01*
X178917D02*
X180117D01*
X177117D02*
X178717D01*
X172017D02*
X172717D01*
X170417D02*
X171417D01*
X166517D02*
X170217D01*
X156817D02*
X165817D01*
X156117D02*
X156417D01*
X155217D02*
X155617D01*
X154417D02*
X154717D01*
X153717D02*
X154017D01*
X151617D02*
X152817D01*
X150117D02*
X150417D01*
X148817D02*
X149317D01*
X147017D02*
X147417D01*
X144017D02*
X144417D01*
X143317D02*
X143717D01*
X180317Y127284D02*
X180717D01*
X177117D02*
X180117D01*
X172017D02*
X172717D01*
X170417D02*
X171717D01*
X166517D02*
X170217D01*
X156717D02*
X165917D01*
X156117D02*
X156417D01*
X155117D02*
X155717D01*
X154417D02*
X154717D01*
X153717D02*
X154017D01*
X152417D02*
X152817D01*
X151417D02*
X152117D01*
X150517D02*
X150717D01*
X150117D02*
X150417D01*
X148817D02*
X149317D01*
X147017D02*
X147417D01*
X145517D02*
X145917D01*
X143317D02*
X144417D01*
X177117Y127184D02*
X180117D01*
X166517D02*
X172917D01*
X165417D02*
X166017D01*
X156717D02*
X165217D01*
X156117D02*
X156417D01*
X155117D02*
X155717D01*
X154417D02*
X154717D01*
X153717D02*
X154017D01*
X152517D02*
X152817D01*
X151217D02*
X151917D01*
X150517D02*
X150817D01*
X149717D02*
X150417D01*
X148817D02*
X149317D01*
X147017D02*
X147417D01*
X145317D02*
X146117D01*
X143317D02*
X144417D01*
X178717Y127084D02*
X180117D01*
X178117D02*
X178617D01*
X177817D02*
X178017D01*
X177317D02*
X177717D01*
X172417D02*
X172917D01*
X171117D02*
X172317D01*
X170117D02*
X170817D01*
X169517D02*
X170017D01*
X168517D02*
X169417D01*
X167317D02*
X168317D01*
X166417D02*
X167217D01*
X165517D02*
X166117D01*
X157317D02*
X165217D01*
X156617D02*
X157217D01*
X156117D02*
X156417D01*
X155217D02*
X155617D01*
X154417D02*
X154817D01*
X153717D02*
X154017D01*
X152517D02*
X152817D01*
X151017D02*
X151717D01*
X149617D02*
X150817D01*
X148817D02*
X149117D01*
X147117D02*
X147417D01*
X145217D02*
X146217D01*
X143317D02*
X144417D01*
X177217Y126984D02*
X178617D01*
X172517D02*
X172917D01*
X171217D02*
X172217D01*
X170117D02*
X170717D01*
X169617D02*
X170017D01*
X168717D02*
X169317D01*
X167517D02*
X168117D01*
X166417D02*
X167217D01*
X165617D02*
X166217D01*
X157417D02*
X165117D01*
X156517D02*
X157017D01*
X156017D02*
X156417D01*
X155317D02*
X155617D01*
X154517D02*
X154817D01*
X153717D02*
X154017D01*
X152517D02*
X152817D01*
X150917D02*
X151517D01*
X150517D02*
X150717D01*
X149517D02*
X150417D01*
X148817D02*
X149117D01*
X147117D02*
X147417D01*
X145217D02*
X146217D01*
X143317D02*
X144417D01*
X177117Y126884D02*
X178517D01*
X172517D02*
X172917D01*
X171917D02*
X172217D01*
X171317D02*
X171817D01*
X169617D02*
X170617D01*
X168717D02*
X169317D01*
X167517D02*
X168017D01*
X166417D02*
X167217D01*
X165717D02*
X166317D01*
X157417D02*
X165217D01*
X156017D02*
X156917D01*
X155417D02*
X155617D01*
X154517D02*
X154917D01*
X153717D02*
X154017D01*
X152517D02*
X152817D01*
X150517D02*
X151317D01*
X150117D02*
X150417D01*
X148817D02*
X149817D01*
X145717D02*
X147417D01*
X145217D02*
X145617D01*
X176717Y126784D02*
X178417D01*
X172517D02*
X172917D01*
X171817D02*
X172217D01*
X171317D02*
X171717D01*
X169617D02*
X170617D01*
X168817D02*
X169317D01*
X167517D02*
X168017D01*
X166417D02*
X167217D01*
X165817D02*
X166317D01*
X157317D02*
X165317D01*
X155917D02*
X156917D01*
X155517D02*
X155717D01*
X154517D02*
X154917D01*
X153717D02*
X154017D01*
X152517D02*
X152817D01*
X150517D02*
X151117D01*
X150117D02*
X150417D01*
X148817D02*
X149817D01*
X145817D02*
X147417D01*
X145217D02*
X145617D01*
X176117Y126684D02*
X178117D01*
X171317D02*
X172917D01*
X169617D02*
X170617D01*
X168817D02*
X169317D01*
X167517D02*
X168017D01*
X166417D02*
X167217D01*
X165917D02*
X166317D01*
X157217D02*
X165517D01*
X155817D02*
X156717D01*
X155517D02*
X155717D01*
X154617D02*
X155017D01*
X153717D02*
X154017D01*
X152417D02*
X152717D01*
X150117D02*
X150917D01*
X149517D02*
X149817D01*
X145817D02*
X149417D01*
X145217D02*
X145617D01*
X175617Y126584D02*
X177617D01*
X171317D02*
X172717D01*
X169617D02*
X170717D01*
X168717D02*
X169317D01*
X167517D02*
X168017D01*
X166417D02*
X167217D01*
X166017D02*
X166217D01*
X164917D02*
X165517D01*
X157817D02*
X164717D01*
X157117D02*
X157717D01*
X155617D02*
X156717D01*
X154617D02*
X155217D01*
X153717D02*
X154017D01*
X152417D02*
X152717D01*
X150117D02*
X150817D01*
X149617D02*
X149917D01*
X147117D02*
X149117D01*
X145217D02*
X146217D01*
X175117Y126484D02*
X177017D01*
X172117D02*
X172717D01*
X171217D02*
X171917D01*
X169617D02*
X170717D01*
X168717D02*
X169317D01*
X167417D02*
X168117D01*
X166417D02*
X167217D01*
X165017D02*
X165617D01*
X158017D02*
X164617D01*
X157017D02*
X157617D01*
X154717D02*
X156517D01*
X153717D02*
X154017D01*
X152417D02*
X152717D01*
X150117D02*
X150617D01*
X149617D02*
X149917D01*
X147217D02*
X149117D01*
X145217D02*
X146217D01*
X174617Y126384D02*
X176617D01*
X172517D02*
X172617D01*
X170117D02*
X172317D01*
X169517D02*
X170017D01*
X168617D02*
X169417D01*
X167417D02*
X168217D01*
X166417D02*
X167217D01*
X165117D02*
X165717D01*
X157917D02*
X164717D01*
X156917D02*
X157517D01*
X156117D02*
X156517D01*
X154817D02*
X156017D01*
X153717D02*
X154017D01*
X152317D02*
X152617D01*
X149617D02*
X150417D01*
X145317D02*
X146117D01*
X174117Y126284D02*
X176017D01*
X171717D02*
X172317D01*
X170217D02*
X171617D01*
X166517D02*
X170117D01*
X165217D02*
X165817D01*
X157817D02*
X164817D01*
X156817D02*
X157417D01*
X156017D02*
X156417D01*
X154917D02*
X155917D01*
X153717D02*
X154017D01*
X152317D02*
X152617D01*
X149717D02*
X150517D01*
X145317D02*
X146017D01*
X173617Y126184D02*
X175517D01*
X172117D02*
X172317D01*
X171717D02*
X172017D01*
X170517D02*
X171517D01*
X166517D02*
X170217D01*
X165317D02*
X165817D01*
X157717D02*
X164917D01*
X156717D02*
X157317D01*
X156017D02*
X156417D01*
X155217D02*
X155617D01*
X153717D02*
X154017D01*
X152317D02*
X152617D01*
X149817D02*
X150617D01*
X145517D02*
X145817D01*
X173017Y126084D02*
X175017D01*
X172117D02*
X172417D01*
X171717D02*
X172017D01*
X170517D02*
X171517D01*
X166517D02*
X170217D01*
X165417D02*
X165717D01*
X164417D02*
X165017D01*
X158417D02*
X164217D01*
X157617D02*
X158317D01*
X156817D02*
X157217D01*
X155917D02*
X156417D01*
X155217D02*
X155617D01*
X153717D02*
X154017D01*
X152217D02*
X152617D01*
X150217D02*
X150617D01*
X172617Y125984D02*
X174517D01*
X171717D02*
X172317D01*
X171117D02*
X171517D01*
X170517D02*
X171017D01*
X169217D02*
X170217D01*
X167817D02*
X169017D01*
X166617D02*
X167517D01*
X164517D02*
X165117D01*
X158517D02*
X164117D01*
X157617D02*
X158217D01*
X156917D02*
X157117D01*
X155817D02*
X156317D01*
X155217D02*
X155617D01*
X153717D02*
X154017D01*
X152217D02*
X152517D01*
X150317D02*
X150617D01*
X171817Y125884D02*
X174017D01*
X171217D02*
X171317D01*
X170617D02*
X170917D01*
X169217D02*
X170117D01*
X167917D02*
X168817D01*
X166617D02*
X167517D01*
X164617D02*
X165217D01*
X158517D02*
X164217D01*
X157517D02*
X158017D01*
X155717D02*
X156217D01*
X155217D02*
X155617D01*
X153717D02*
X154017D01*
X152217D02*
X152517D01*
X150317D02*
X150617D01*
X171517Y125784D02*
X173517D01*
X169117D02*
X169717D01*
X168117D02*
X168617D01*
X166617D02*
X167617D01*
X164717D02*
X165317D01*
X158417D02*
X164317D01*
X157417D02*
X158017D01*
X155217D02*
X156217D01*
X153617D02*
X154017D01*
X152217D02*
X152517D01*
X150317D02*
X150717D01*
X171017Y125684D02*
X172917D01*
X169017D02*
X169817D01*
X168217D02*
X168617D01*
X166717D02*
X167817D01*
X164817D02*
X165317D01*
X158317D02*
X164317D01*
X157317D02*
X157817D01*
X155317D02*
X156117D01*
X153517D02*
X154217D01*
X152017D02*
X152617D01*
X150217D02*
X150917D01*
X170517Y125584D02*
X172517D01*
X168717D02*
X169917D01*
X168217D02*
X168617D01*
X166817D02*
X168017D01*
X164917D02*
X165217D01*
X163817D02*
X164517D01*
X158917D02*
X163717D01*
X158217D02*
X158817D01*
X157317D02*
X157717D01*
X155317D02*
X155917D01*
X153417D02*
X154317D01*
X151917D02*
X152717D01*
X150117D02*
X151017D01*
X170017Y125484D02*
X171917D01*
X166817D02*
X169917D01*
X165017D02*
X165217D01*
X163917D02*
X164517D01*
X159017D02*
X163617D01*
X158117D02*
X158717D01*
X157417D02*
X157717D01*
X153317D02*
X154317D01*
X151817D02*
X152817D01*
X150017D02*
X151017D01*
X169417Y125384D02*
X171417D01*
X166917D02*
X169317D01*
X164117D02*
X164717D01*
X159017D02*
X163617D01*
X158017D02*
X158617D01*
X153317D02*
X154417D01*
X151817D02*
X152817D01*
X150017D02*
X151117D01*
X167017Y125284D02*
X170917D01*
X164217D02*
X164717D01*
X158917D02*
X163717D01*
X157917D02*
X158517D01*
X153917D02*
X154417D01*
X153317D02*
X153717D01*
X152417D02*
X152817D01*
X151817D02*
X152217D01*
X150617D02*
X151117D01*
X150017D02*
X150417D01*
X167117Y125184D02*
X170417D01*
X164317D02*
X164817D01*
X158817D02*
X163817D01*
X157817D02*
X158417D01*
X154017D02*
X154417D01*
X153317D02*
X153717D01*
X152417D02*
X152817D01*
X151717D02*
X152217D01*
X150717D02*
X151117D01*
X150017D02*
X150417D01*
X167317Y125084D02*
X169917D01*
X164317D02*
X164717D01*
X163317D02*
X163917D01*
X158717D02*
X163217D01*
X157817D02*
X158317D01*
X153317D02*
X154417D01*
X152417D02*
X152817D01*
X151717D02*
X152217D01*
X150017D02*
X151117D01*
X167517Y124984D02*
X169417D01*
X164417D02*
X164717D01*
X163417D02*
X164017D01*
X159517D02*
X163117D01*
X158617D02*
X159317D01*
X157917D02*
X158217D01*
X153317D02*
X154317D01*
X151817D02*
X152817D01*
X150017D02*
X151017D01*
X167717Y124884D02*
X168817D01*
X163617D02*
X164117D01*
X159617D02*
X163117D01*
X158517D02*
X159117D01*
X153417D02*
X154317D01*
X151817D02*
X152817D01*
X150117D02*
X151017D01*
X163617Y124784D02*
X164217D01*
X159417D02*
X163217D01*
X158417D02*
X159017D01*
X153417D02*
X154217D01*
X151917D02*
X152717D01*
X150217D02*
X150917D01*
X163717Y124684D02*
X164317D01*
X159417D02*
X163217D01*
X158317D02*
X159017D01*
X153617D02*
X154117D01*
X152017D02*
X152617D01*
X150317D02*
X150817D01*
X163817Y124584D02*
X164317D01*
X162817D02*
X163417D01*
X159317D02*
X162717D01*
X158317D02*
X158917D01*
X163917Y124484D02*
X164517D01*
X162817D02*
X163517D01*
X160017D02*
X162617D01*
X159217D02*
X159817D01*
X158417D02*
X158817D01*
X164117Y124384D02*
X164617D01*
X163017D02*
X163617D01*
X160117D02*
X162517D01*
X159117D02*
X159717D01*
X158517D02*
X158617D01*
X164317Y124284D02*
X164717D01*
X163017D02*
X163717D01*
X160017D02*
X162617D01*
X159017D02*
X159617D01*
X164417Y124184D02*
X164717D01*
X163217D02*
X163717D01*
X159917D02*
X162717D01*
X158917D02*
X159517D01*
X164417Y124084D02*
X164717D01*
X163317D02*
X163717D01*
X159817D02*
X162717D01*
X158817D02*
X159417D01*
X164517Y123984D02*
X164717D01*
X163317D02*
X163717D01*
X162317D02*
X162917D01*
X160517D02*
X162117D01*
X159717D02*
X160317D01*
X158917D02*
X159317D01*
X164517Y123884D02*
X164817D01*
X162417D02*
X163017D01*
X160617D02*
X162017D01*
X159617D02*
X160217D01*
X159017D02*
X159217D01*
X164517Y123784D02*
X164817D01*
X162517D02*
X163117D01*
X160617D02*
X162117D01*
X159517D02*
X160117D01*
X164517Y123684D02*
X164817D01*
X162617D02*
X163217D01*
X160517D02*
X162117D01*
X159417D02*
X160017D01*
X164617Y123584D02*
X164917D01*
X164017D02*
X164317D01*
X162717D02*
X163217D01*
X161717D02*
X162217D01*
X160417D02*
X161017D01*
X159417D02*
X159917D01*
X163817Y123484D02*
X164917D01*
X162817D02*
X163217D01*
X161717D02*
X162417D01*
X160317D02*
X160917D01*
X159417D02*
X159817D01*
X163717Y123384D02*
X164817D01*
X162917D02*
X163317D01*
X161917D02*
X162517D01*
X160217D02*
X160817D01*
X159517D02*
X159817D01*
X164317Y123284D02*
X164817D01*
X163717D02*
X164017D01*
X163017D02*
X163417D01*
X162017D02*
X162617D01*
X160117D02*
X160717D01*
X163717Y123184D02*
X164017D01*
X163017D02*
X163417D01*
X162117D02*
X162717D01*
X160017D02*
X160617D01*
X163817Y123084D02*
X164117D01*
X163117D02*
X163617D01*
X162217D02*
X162717D01*
X159917D02*
X160517D01*
X163217Y122984D02*
X165117D01*
X162317D02*
X163017D01*
X159917D02*
X160417D01*
X162417Y122884D02*
X165317D01*
X160017D02*
X160317D01*
X162717Y122784D02*
X165517D01*
X165017Y122684D02*
X165717D01*
X163217D02*
X163517D01*
X165217Y122584D02*
X165917D01*
X165417Y122484D02*
X166017D01*
X165717Y122384D02*
X166117D01*
X165817Y122284D02*
X166217D01*
X165917Y122184D02*
X166217D01*
X165917Y122084D02*
X166217D01*
X157717D02*
X164717D01*
X166017Y121984D02*
X166317D01*
X157417D02*
X165017D01*
X166017Y121884D02*
X166317D01*
X157317D02*
X165117D01*
X166117Y121784D02*
X166417D01*
X157317D02*
X165217D01*
X166117Y121684D02*
X166417D01*
X157217D02*
X165217D01*
X166117Y121584D02*
X166417D01*
X157217D02*
X165317D01*
X166217Y121484D02*
X166417D01*
X157217D02*
X165317D01*
X166217Y121384D02*
X166417D01*
X164817D02*
X165317D01*
X157217D02*
X157617D01*
X166117Y121284D02*
X166417D01*
X164817D02*
X165317D01*
X157717D02*
X164717D01*
X157217D02*
X157617D01*
X166117Y121184D02*
X166417D01*
X164817D02*
X165317D01*
X157717D02*
X164717D01*
X157217D02*
X157617D01*
X166017Y121084D02*
X166317D01*
X164817D02*
X165317D01*
X157717D02*
X164717D01*
X157217D02*
X157617D01*
X165917Y120984D02*
X166317D01*
X164817D02*
X165317D01*
X157717D02*
X164717D01*
X157217D02*
X157617D01*
X165817Y120884D02*
X166217D01*
X164817D02*
X165317D01*
X157717D02*
X164717D01*
X157217D02*
X157617D01*
X165717Y120784D02*
X166117D01*
X164817D02*
X165317D01*
X157717D02*
X164717D01*
X157217D02*
X157617D01*
X165617Y120684D02*
X166117D01*
X164817D02*
X165317D01*
X157717D02*
X164717D01*
X157217D02*
X157617D01*
X165517Y120584D02*
X166017D01*
X164817D02*
X165317D01*
X157717D02*
X164717D01*
X157217D02*
X157617D01*
X165417Y120484D02*
X165817D01*
X164817D02*
X165317D01*
X157717D02*
X164717D01*
X157217D02*
X157617D01*
X164817Y120384D02*
X165717D01*
X157717D02*
X164717D01*
X157217D02*
X157617D01*
X164817Y120284D02*
X165617D01*
X160217D02*
X164717D01*
X157717D02*
X159617D01*
X157217D02*
X157617D01*
X164817Y120184D02*
X165517D01*
X160817D02*
X164717D01*
X157717D02*
X159717D01*
X157217D02*
X157617D01*
X164817Y120084D02*
X165317D01*
X161417D02*
X164717D01*
X160817D02*
X161017D01*
X159917D02*
X160017D01*
X157717D02*
X159717D01*
X157217D02*
X157617D01*
X164817Y119984D02*
X165317D01*
X162217D02*
X164717D01*
X160817D02*
X161617D01*
X159917D02*
X160217D01*
X157717D02*
X159817D01*
X157217D02*
X157617D01*
X164817Y119884D02*
X165317D01*
X162717D02*
X164717D01*
X161017D02*
X162317D01*
X160017D02*
X160417D01*
X157717D02*
X159917D01*
X157217D02*
X157617D01*
X164817Y119784D02*
X165317D01*
X163117D02*
X164717D01*
X161417D02*
X162817D01*
X160817D02*
X161117D01*
X160117D02*
X160617D01*
X157717D02*
X160017D01*
X157217D02*
X157617D01*
X164817Y119684D02*
X165317D01*
X162917D02*
X164717D01*
X161717D02*
X162717D01*
X161017D02*
X161517D01*
X157717D02*
X160817D01*
X157217D02*
X157617D01*
X164817Y119584D02*
X165317D01*
X162717D02*
X164717D01*
X162017D02*
X162617D01*
X161117D02*
X161817D01*
X160217D02*
X161017D01*
X157717D02*
X160117D01*
X157217D02*
X157617D01*
X164817Y119484D02*
X165317D01*
X162517D02*
X164717D01*
X161417D02*
X162117D01*
X160317D02*
X161217D01*
X157717D02*
X160217D01*
X157217D02*
X157617D01*
X164817Y119384D02*
X165317D01*
X162417D02*
X164717D01*
X161517D02*
X162317D01*
X160417D02*
X161417D01*
X157717D02*
X160317D01*
X157217D02*
X157617D01*
X164817Y119284D02*
X165317D01*
X162417D02*
X164717D01*
X161717D02*
X162317D01*
X157717D02*
X161617D01*
X157217D02*
X157617D01*
X164817Y119184D02*
X165317D01*
X161917D02*
X164717D01*
X157717D02*
X161717D01*
X157217D02*
X157617D01*
X164817Y119084D02*
X165317D01*
X162017D02*
X164717D01*
X161817D02*
X161917D01*
X160617D02*
X161717D01*
X157717D02*
X160517D01*
X157217D02*
X157617D01*
X164817Y118984D02*
X165317D01*
X162317D02*
X164717D01*
X162017D02*
X162217D01*
X161717D02*
X161917D01*
X160717D02*
X161517D01*
X157717D02*
X160617D01*
X157217D02*
X157617D01*
X164817Y118884D02*
X165317D01*
X162317D02*
X164717D01*
X162117D02*
X162217D01*
X161717D02*
X162017D01*
X160817D02*
X161417D01*
X157717D02*
X160717D01*
X157217D02*
X157617D01*
X164817Y118784D02*
X165317D01*
X162317D02*
X164717D01*
X161817D02*
X162017D01*
X161317D02*
X161717D01*
X160917D02*
X161217D01*
X157717D02*
X160817D01*
X157217D02*
X157617D01*
X164817Y118684D02*
X165317D01*
X162317D02*
X164717D01*
X161217D02*
X161917D01*
X160917D02*
X161117D01*
X157717D02*
X160817D01*
X157217D02*
X157617D01*
X164817Y118584D02*
X165317D01*
X162217D02*
X164717D01*
X161017D02*
X162117D01*
X157717D02*
X160917D01*
X157217D02*
X157617D01*
X164817Y118484D02*
X165317D01*
X157717D02*
X164717D01*
X157217D02*
X157617D01*
X164817Y118384D02*
X165317D01*
X157717D02*
X164717D01*
X157217D02*
X157617D01*
X164817Y118284D02*
X165317D01*
X157717D02*
X164717D01*
X157017D02*
X157617D01*
X164817Y118184D02*
X165317D01*
X157717D02*
X164717D01*
X156917D02*
X157617D01*
X164817Y118084D02*
X165317D01*
X157717D02*
X164717D01*
X156917D02*
X157617D01*
X164817Y117984D02*
X165317D01*
X157717D02*
X164717D01*
X156917D02*
X157617D01*
X156217D02*
X156817D01*
X164817Y117884D02*
X165317D01*
X157717D02*
X164717D01*
X156017D02*
X157617D01*
X164817Y117784D02*
X165317D01*
X157717D02*
X164717D01*
X156617D02*
X157617D01*
X155817D02*
X156517D01*
X164817Y117684D02*
X165317D01*
X157717D02*
X164717D01*
X156717D02*
X157617D01*
X155817D02*
X156217D01*
X164817Y117584D02*
X165317D01*
X157717D02*
X164717D01*
X156717D02*
X157617D01*
X155717D02*
X156017D01*
X164817Y117484D02*
X165217D01*
X157217D02*
X157617D01*
X156817D02*
X157117D01*
X155717D02*
X156017D01*
X157217Y117384D02*
X165217D01*
X155717D02*
X156017D01*
X157317Y117284D02*
X165217D01*
X155717D02*
X155917D01*
X157317Y117184D02*
X165117D01*
X155617D02*
X155917D01*
X157517Y117084D02*
X164917D01*
X155617D02*
X155917D01*
X157317Y116984D02*
X165117D01*
X155617D02*
X155917D01*
X157217Y116884D02*
X165317D01*
X155617D02*
X155917D01*
X157117Y116784D02*
X165417D01*
X155617D02*
X155917D01*
X157017Y116684D02*
X165417D01*
X155617D02*
X155917D01*
X157017Y116584D02*
X165517D01*
X154917D02*
X155917D01*
X156917Y116484D02*
X165517D01*
X154917D02*
X155717D01*
X164917Y116384D02*
X165617D01*
X164117D02*
X164517D01*
X163417D02*
X163817D01*
X162617D02*
X163017D01*
X161817D02*
X162217D01*
X161017D02*
X161417D01*
X160317D02*
X160617D01*
X159517D02*
X159917D01*
X158717D02*
X159117D01*
X157917D02*
X158317D01*
X156917D02*
X157517D01*
X154817D02*
X155117D01*
X156817Y116284D02*
X165617D01*
X154417D02*
X155517D01*
X156817Y116184D02*
X165617D01*
X155217D02*
X155717D01*
X154317D02*
X155117D01*
X163417Y116084D02*
X165717D01*
X159417D02*
X163317D01*
X158617D02*
X159117D01*
X156817D02*
X158317D01*
X154217D02*
X155817D01*
X165117Y115984D02*
X165717D01*
X164317D02*
X164717D01*
X163517D02*
X163917D01*
X162717D02*
X163117D01*
X161817D02*
X162217D01*
X161017D02*
X161417D01*
X160217D02*
X160617D01*
X159417D02*
X159817D01*
X158617D02*
X159017D01*
X157817D02*
X158217D01*
X156717D02*
X157417D01*
X154117D02*
X155817D01*
X157817Y115884D02*
X165817D01*
X156717D02*
X157317D01*
X155217D02*
X155917D01*
X154117D02*
X155117D01*
X157717Y115784D02*
X165817D01*
X156617D02*
X157317D01*
X155217D02*
X155917D01*
X154917D02*
X155117D01*
X154117D02*
X154817D01*
X165217Y115684D02*
X165917D01*
X164417D02*
X164817D01*
X163517D02*
X163917D01*
X162717D02*
X163117D01*
X161917D02*
X162317D01*
X161017D02*
X161417D01*
X160217D02*
X160617D01*
X159417D02*
X159817D01*
X158517D02*
X159017D01*
X156617D02*
X157217D01*
X155117D02*
X155917D01*
X154117D02*
X154817D01*
X165317Y115584D02*
X165917D01*
X164417D02*
X164817D01*
X163617D02*
X164017D01*
X162717D02*
X163117D01*
X161917D02*
X162317D01*
X161017D02*
X161417D01*
X160217D02*
X160617D01*
X159317D02*
X159717D01*
X158417D02*
X158917D01*
X156517D02*
X157217D01*
X154117D02*
X155917D01*
X156517Y115484D02*
X166017D01*
X154117D02*
X155917D01*
X156517Y115384D02*
X166017D01*
X154117D02*
X155917D01*
X165417Y115284D02*
X166017D01*
X164517D02*
X164917D01*
X163617D02*
X164017D01*
X162817D02*
X163217D01*
X159317D02*
X159717D01*
X158417D02*
X158817D01*
X156417D02*
X157117D01*
X154117D02*
X155917D01*
X164217Y115184D02*
X166117D01*
X159217D02*
X164117D01*
X156317D02*
X158817D01*
X154117D02*
X155917D01*
X156317Y115084D02*
X166117D01*
X154117D02*
X155917D01*
X156317Y114984D02*
X166217D01*
X154117D02*
X155917D01*
X162517Y114884D02*
X166217D01*
X156217D02*
X160017D01*
X154117D02*
X155917D01*
X162517Y114784D02*
X166317D01*
X156217D02*
X160017D01*
X154217D02*
X155817D01*
X156117Y114684D02*
X166317D01*
X154217D02*
X155717D01*
X156117Y114584D02*
X166317D01*
X154317D02*
X155617D01*
X162517Y114484D02*
X166317D01*
X161017D02*
X161417D01*
X156117D02*
X160017D01*
X154517D02*
X155517D01*
X156117Y114384D02*
X166317D01*
X156117Y114284D02*
X166317D01*
X156117Y114184D02*
X166317D01*
X156117Y114084D02*
X166317D01*
X156317Y113984D02*
X166217D01*
X176017Y111384D02*
X178217D01*
X172617D02*
X173717D01*
X168917D02*
X171217D01*
X165617D02*
X166717D01*
X161717D02*
X164417D01*
X160917D02*
X161517D01*
X159917D02*
X160517D01*
X157517D02*
X158317D01*
X153317D02*
X155017D01*
X152417D02*
X153017D01*
X149817D02*
X150417D01*
X147317D02*
X147917D01*
X144717D02*
X147017D01*
X175617Y111284D02*
X178217D01*
X172217D02*
X174117D01*
X168517D02*
X171217D01*
X165217D02*
X167117D01*
X161717D02*
X164417D01*
X160917D02*
X161517D01*
X159917D02*
X160517D01*
X157517D02*
X158517D01*
X153317D02*
X155417D01*
X152417D02*
X153017D01*
X149817D02*
X150417D01*
X147317D02*
X147917D01*
X144417D02*
X147017D01*
X175517Y111184D02*
X178217D01*
X172017D02*
X174317D01*
X168417D02*
X171217D01*
X165017D02*
X167317D01*
X161717D02*
X164417D01*
X160917D02*
X161517D01*
X159917D02*
X160517D01*
X157617D02*
X158617D01*
X153317D02*
X155617D01*
X152417D02*
X153017D01*
X149817D02*
X150417D01*
X147317D02*
X147917D01*
X144217D02*
X147017D01*
X175417Y111084D02*
X178217D01*
X171917D02*
X174517D01*
X168317D02*
X171217D01*
X164917D02*
X167417D01*
X161717D02*
X164417D01*
X160917D02*
X161517D01*
X159917D02*
X160517D01*
X157717D02*
X158717D01*
X153317D02*
X155817D01*
X152417D02*
X153017D01*
X149817D02*
X150417D01*
X147317D02*
X147917D01*
X144117D02*
X147017D01*
X175317Y110984D02*
X178217D01*
X171817D02*
X174517D01*
X168217D02*
X171217D01*
X164817D02*
X167517D01*
X161717D02*
X164417D01*
X160917D02*
X161517D01*
X159917D02*
X160517D01*
X157917D02*
X158817D01*
X153317D02*
X155917D01*
X152417D02*
X153017D01*
X149817D02*
X150417D01*
X147317D02*
X147917D01*
X144117D02*
X147017D01*
X175217Y110884D02*
X178217D01*
X171717D02*
X174617D01*
X168217D02*
X171217D01*
X164717D02*
X167617D01*
X161717D02*
X164417D01*
X160917D02*
X161517D01*
X159917D02*
X160517D01*
X158017D02*
X159017D01*
X153317D02*
X155917D01*
X152417D02*
X153017D01*
X149817D02*
X150417D01*
X147317D02*
X147917D01*
X144017D02*
X147017D01*
X177617Y110784D02*
X178217D01*
X175217D02*
X176117D01*
X173617D02*
X174717D01*
X171617D02*
X172717D01*
X170617D02*
X171217D01*
X168217D02*
X169117D01*
X166617D02*
X167717D01*
X164617D02*
X165717D01*
X162817D02*
X163417D01*
X160917D02*
X161517D01*
X159917D02*
X160517D01*
X158117D02*
X159117D01*
X154917D02*
X156017D01*
X152417D02*
X153017D01*
X149817D02*
X150417D01*
X147317D02*
X147917D01*
X146417D02*
X147017D01*
X144017D02*
X144917D01*
X177617Y110684D02*
X178217D01*
X175217D02*
X175917D01*
X173917D02*
X174717D01*
X171617D02*
X172417D01*
X170617D02*
X171217D01*
X168217D02*
X168817D01*
X166917D02*
X167817D01*
X164617D02*
X165417D01*
X162817D02*
X163417D01*
X160917D02*
X161517D01*
X159917D02*
X160517D01*
X158317D02*
X159217D01*
X155217D02*
X156017D01*
X152417D02*
X153017D01*
X149817D02*
X150417D01*
X147317D02*
X147917D01*
X146417D02*
X147017D01*
X144017D02*
X144717D01*
X177617Y110584D02*
X178217D01*
X175217D02*
X175817D01*
X174017D02*
X174817D01*
X171517D02*
X172317D01*
X170617D02*
X171217D01*
X168217D02*
X168817D01*
X167017D02*
X167817D01*
X164517D02*
X165317D01*
X162817D02*
X163417D01*
X160917D02*
X161517D01*
X159917D02*
X160517D01*
X158417D02*
X159417D01*
X155317D02*
X156117D01*
X152417D02*
X153017D01*
X149817D02*
X150417D01*
X147317D02*
X147917D01*
X146417D02*
X147017D01*
X144017D02*
X144617D01*
X177617Y110484D02*
X178217D01*
X175117D02*
X175817D01*
X174117D02*
X174817D01*
X171517D02*
X172217D01*
X170617D02*
X171217D01*
X168217D02*
X168817D01*
X167117D02*
X167817D01*
X164517D02*
X165217D01*
X162817D02*
X163417D01*
X160917D02*
X161517D01*
X159917D02*
X160517D01*
X158617D02*
X159517D01*
X155417D02*
X156117D01*
X152417D02*
X153017D01*
X149817D02*
X150417D01*
X147317D02*
X147917D01*
X146417D02*
X147017D01*
X144017D02*
X144617D01*
X177617Y110384D02*
X178217D01*
X175117D02*
X175717D01*
X174217D02*
X174817D01*
X171517D02*
X172117D01*
X170617D02*
X171217D01*
X168217D02*
X168817D01*
X167217D02*
X167917D01*
X164517D02*
X165217D01*
X162817D02*
X163417D01*
X160917D02*
X161517D01*
X159917D02*
X160517D01*
X158717D02*
X159617D01*
X155517D02*
X156217D01*
X152417D02*
X153017D01*
X149817D02*
X150417D01*
X147317D02*
X147917D01*
X146417D02*
X147017D01*
X144017D02*
X144617D01*
X177617Y110284D02*
X178217D01*
X175117D02*
X175717D01*
X174217D02*
X174917D01*
X171517D02*
X172117D01*
X170617D02*
X171217D01*
X168217D02*
X168917D01*
X167217D02*
X167917D01*
X164517D02*
X165117D01*
X162817D02*
X163417D01*
X160917D02*
X161517D01*
X159917D02*
X160517D01*
X158817D02*
X159817D01*
X155517D02*
X156217D01*
X152417D02*
X153017D01*
X149817D02*
X150417D01*
X147317D02*
X147917D01*
X146417D02*
X147017D01*
X144117D02*
X144817D01*
X177617Y110184D02*
X178217D01*
X175117D02*
X175717D01*
X174317D02*
X174917D01*
X171517D02*
X172117D01*
X170617D02*
X171217D01*
X168317D02*
X170317D01*
X167317D02*
X167917D01*
X164517D02*
X165117D01*
X162817D02*
X163417D01*
X160917D02*
X161517D01*
X158917D02*
X160517D01*
X155617D02*
X156217D01*
X152417D02*
X153017D01*
X149817D02*
X150417D01*
X147317D02*
X147917D01*
X146417D02*
X147017D01*
X144117D02*
X146217D01*
X177617Y110084D02*
X178217D01*
X175217D02*
X175817D01*
X174317D02*
X174917D01*
X171417D02*
X172117D01*
X170617D02*
X171217D01*
X168417D02*
X170317D01*
X167317D02*
X167917D01*
X164517D02*
X165017D01*
X162817D02*
X163417D01*
X160917D02*
X161517D01*
X159117D02*
X160517D01*
X155617D02*
X156217D01*
X152417D02*
X153017D01*
X149817D02*
X150417D01*
X147317D02*
X147917D01*
X146417D02*
X147017D01*
X144217D02*
X146217D01*
X177617Y109984D02*
X178217D01*
X175217D02*
X175917D01*
X174317D02*
X174917D01*
X171417D02*
X172017D01*
X170617D02*
X171217D01*
X168317D02*
X170317D01*
X167317D02*
X167917D01*
X164517D02*
X165017D01*
X162817D02*
X163417D01*
X160917D02*
X161517D01*
X159217D02*
X160517D01*
X155617D02*
X156217D01*
X152417D02*
X153017D01*
X149817D02*
X150417D01*
X147317D02*
X147917D01*
X146417D02*
X147017D01*
X144217D02*
X146217D01*
X177617Y109884D02*
X178217D01*
X175217D02*
X176017D01*
X174317D02*
X174917D01*
X171417D02*
X172117D01*
X170617D02*
X171217D01*
X168317D02*
X170317D01*
X167317D02*
X167917D01*
X164517D02*
X165017D01*
X162817D02*
X163417D01*
X160917D02*
X161517D01*
X159117D02*
X160517D01*
X155617D02*
X156217D01*
X152417D02*
X153017D01*
X149817D02*
X150417D01*
X147317D02*
X147917D01*
X146417D02*
X147017D01*
X144117D02*
X146217D01*
X177617Y109784D02*
X178217D01*
X175217D02*
X177417D01*
X174317D02*
X174917D01*
X171517D02*
X172117D01*
X170617D02*
X171217D01*
X168217D02*
X170317D01*
X167317D02*
X167917D01*
X164517D02*
X165117D01*
X162817D02*
X163417D01*
X160917D02*
X161517D01*
X159917D02*
X160517D01*
X158917D02*
X159817D01*
X155617D02*
X156217D01*
X152417D02*
X153017D01*
X149817D02*
X150417D01*
X147317D02*
X147917D01*
X146417D02*
X147017D01*
X144017D02*
X146217D01*
X177617Y109684D02*
X178217D01*
X175317D02*
X177417D01*
X174317D02*
X174917D01*
X171517D02*
X172117D01*
X170617D02*
X171217D01*
X168217D02*
X168917D01*
X167317D02*
X167917D01*
X164517D02*
X165117D01*
X162817D02*
X163417D01*
X160917D02*
X161517D01*
X159917D02*
X160517D01*
X158817D02*
X159717D01*
X155617D02*
X156217D01*
X152417D02*
X153017D01*
X149817D02*
X150417D01*
X147317D02*
X147917D01*
X146417D02*
X147017D01*
X144017D02*
X144717D01*
X177617Y109584D02*
X178217D01*
X175417D02*
X177417D01*
X174217D02*
X174817D01*
X171517D02*
X172117D01*
X170617D02*
X171217D01*
X168117D02*
X168817D01*
X167217D02*
X167817D01*
X164517D02*
X165117D01*
X162817D02*
X163417D01*
X160917D02*
X161517D01*
X159917D02*
X160517D01*
X158717D02*
X159617D01*
X155517D02*
X156217D01*
X152417D02*
X153017D01*
X149717D02*
X150417D01*
X147317D02*
X147917D01*
X146417D02*
X147017D01*
X144017D02*
X144617D01*
X177617Y109484D02*
X178217D01*
X175517D02*
X177417D01*
X174117D02*
X174817D01*
X171517D02*
X172217D01*
X170617D02*
X171217D01*
X168117D02*
X168717D01*
X167117D02*
X167817D01*
X164517D02*
X165217D01*
X162817D02*
X163417D01*
X160917D02*
X161517D01*
X159917D02*
X160517D01*
X158517D02*
X159517D01*
X155517D02*
X156117D01*
X152417D02*
X153017D01*
X149717D02*
X150417D01*
X147317D02*
X148017D01*
X146417D02*
X147017D01*
X143917D02*
X144617D01*
X177617Y109384D02*
X178217D01*
X175617D02*
X177417D01*
X174117D02*
X174817D01*
X171517D02*
X172317D01*
X170617D02*
X171217D01*
X168117D02*
X168717D01*
X167117D02*
X167817D01*
X164517D02*
X165317D01*
X162817D02*
X163417D01*
X160917D02*
X161517D01*
X159917D02*
X160517D01*
X158417D02*
X159317D01*
X155417D02*
X156117D01*
X152417D02*
X153017D01*
X149717D02*
X150317D01*
X147317D02*
X148017D01*
X146417D02*
X147017D01*
X143917D02*
X144617D01*
X177617Y109284D02*
X178217D01*
X175517D02*
X176317D01*
X174017D02*
X174717D01*
X171617D02*
X172417D01*
X170617D02*
X171217D01*
X168117D02*
X168817D01*
X166917D02*
X167717D01*
X164617D02*
X165417D01*
X162817D02*
X163417D01*
X160917D02*
X161517D01*
X159917D02*
X160517D01*
X158317D02*
X159217D01*
X155217D02*
X156017D01*
X152417D02*
X153017D01*
X149617D02*
X150317D01*
X147417D02*
X148117D01*
X146417D02*
X147017D01*
X144017D02*
X144617D01*
X177617Y109184D02*
X178217D01*
X175417D02*
X176317D01*
X173717D02*
X174717D01*
X171717D02*
X172617D01*
X170617D02*
X171217D01*
X168117D02*
X168917D01*
X166817D02*
X167717D01*
X164617D02*
X165617D01*
X162817D02*
X163417D01*
X160917D02*
X161517D01*
X159917D02*
X160517D01*
X158117D02*
X159117D01*
X155117D02*
X156017D01*
X152417D02*
X153017D01*
X149417D02*
X150317D01*
X147417D02*
X148217D01*
X146417D02*
X147017D01*
X144017D02*
X144817D01*
X177617Y109084D02*
X178217D01*
X175317D02*
X176117D01*
X171717D02*
X174617D01*
X168217D02*
X171217D01*
X164717D02*
X167617D01*
X162817D02*
X163417D01*
X160917D02*
X161517D01*
X159917D02*
X160517D01*
X158017D02*
X158917D01*
X153317D02*
X155917D01*
X150617D02*
X153017D01*
X147517D02*
X150217D01*
X144017D02*
X147017D01*
X177617Y108984D02*
X178217D01*
X175217D02*
X176117D01*
X171817D02*
X174517D01*
X168217D02*
X171217D01*
X164817D02*
X167617D01*
X162817D02*
X163417D01*
X160917D02*
X161517D01*
X159917D02*
X160517D01*
X157817D02*
X158817D01*
X153317D02*
X155917D01*
X150617D02*
X153017D01*
X147517D02*
X150217D01*
X144017D02*
X147017D01*
X177617Y108884D02*
X178217D01*
X175117D02*
X176017D01*
X171917D02*
X174417D01*
X168317D02*
X171217D01*
X164917D02*
X167517D01*
X162817D02*
X163417D01*
X160917D02*
X161517D01*
X159917D02*
X160517D01*
X157817D02*
X158717D01*
X153317D02*
X155717D01*
X150617D02*
X153017D01*
X147617D02*
X150117D01*
X144117D02*
X147017D01*
X177617Y108784D02*
X178217D01*
X175017D02*
X175917D01*
X172017D02*
X174317D01*
X168417D02*
X171217D01*
X165017D02*
X167317D01*
X162817D02*
X163417D01*
X160917D02*
X161517D01*
X159917D02*
X160517D01*
X157617D02*
X158617D01*
X153317D02*
X155617D01*
X150617D02*
X153017D01*
X147717D02*
X150017D01*
X144217D02*
X147017D01*
X177617Y108684D02*
X178217D01*
X174917D02*
X175817D01*
X172217D02*
X174217D01*
X168517D02*
X171217D01*
X165217D02*
X167217D01*
X162817D02*
X163417D01*
X160917D02*
X161517D01*
X159917D02*
X160517D01*
X157517D02*
X158417D01*
X153317D02*
X155517D01*
X150617D02*
X153017D01*
X147917D02*
X149817D01*
X144317D02*
X147017D01*
X177617Y108584D02*
X178217D01*
X174917D02*
X175717D01*
X172517D02*
X173817D01*
X168717D02*
X171217D01*
X165517D02*
X166917D01*
X162817D02*
X163417D01*
X160917D02*
X161517D01*
X159917D02*
X160517D01*
X157417D02*
X158317D01*
X153317D02*
X155217D01*
X150617D02*
X153017D01*
X148117D02*
X149617D01*
X144617D02*
X147017D01*
M02*
