M48
;Layer_Color=9474304
;FILE_FORMAT=2:5
INCH,TZ
;TYPE=PLATED
T1F00S00C0.02800
T2F00S00C0.02992
T3F00S00C0.03150
T4F00S00C0.03543
T5F00S00C0.03622
T6F00S00C0.04331
T7F00S00C0.05512
T8F00S00C0.09055
;TYPE=NON_PLATED
T9F00S00C0.12598
%
T01
X45000Y42500
X127500Y15000
X230000Y92500
Y115000
X250000
Y127500
X277500Y125000
X275000Y135000
X282500
X290000Y125000
X307500
X285000Y102500
X265000
Y70374
X270000Y65000
X288858
X300000Y67500
X295000Y85000
X250000Y160000
X242500Y167500
X210000Y135000
X202500
X205000Y125000
X192500Y127500
X180000Y122500
X192500Y102500
X212500
X202500Y87500
X155000Y97500
X146240Y116260
X125000Y102500
X105000
X100000Y90000
X82500Y95000
X77500Y75000
X62500Y87500
X85000Y120000
X77500Y130339
X85000Y140000
X82500Y170000
X105000Y127500
X117500Y125000
X115000Y135000
X122500
X100000Y65000
X52500Y102500
X32500
X45000Y125000
X42500Y135000
X50000
X57500Y132500
X27500
X12500Y275000
X162500Y295000
X310000Y277500
T02
X170000Y27500
Y37500
Y47500
Y57500
X200000
Y47500
Y37500
Y27500
T03
X37500Y230000
Y240000
Y270000
Y280000
Y290000
X67500
Y280000
Y260000
Y250000
Y240000
Y230000
X97500
Y240000
X127500
Y250000
Y260000
Y280000
Y290000
X97500
Y280000
Y270000
X127500Y230000
X197500
Y240000
Y270000
Y280000
Y290000
X227500
Y280000
Y260000
Y250000
Y240000
Y230000
X257500
Y240000
X287500
Y250000
Y260000
Y280000
Y290000
X257500
Y280000
Y270000
X287500Y230000
T04
X175000Y77500
X185000
X195000
X172500Y155000
X162500
X152500
Y167500
X162500
X172500
X10000Y140000
Y130000
T05
X22126Y57500
X30000
Y67343
X22126
T06
X225000Y45158
Y64842
T07
X213189Y55000
T08
X11457Y38721
Y86122
T09
X11811Y11811
X311024
X11811Y299213
X311024
M30
