M48
;Layer_Color=9474304
;FILE_FORMAT=2:5
INCH,TZ
;TYPE=PLATED
T1F00S00C0.02800
T2F00S00C0.03543
;TYPE=NON_PLATED
T3F00S00C0.12598
%
T01
X223000Y68000
T02
X31800Y37500
X41958
X51800
X74458
X84300
X106957
X116800
X139300
X149458
X159300
X181957
X191800
X214458
X224300
X195563Y62500
X185406
X175563
X152433
X142591
X132748
X122906
X113063
X90091
X80248
X70406
X60563
T03
X11811Y11811
X244094
X216535Y86614
X39370
M30
