G04 Layer_Color=32896*
%FSLAX25Y25*%
%MOIN*%
G70*
G01*
G75*
%ADD16C,0.00500*%
%ADD19C,0.00787*%
D16*
X155348Y20097D02*
X155848Y20597D01*
X156848D01*
X157348Y20097D01*
Y19597D01*
X156848Y19097D01*
X155848D01*
X155348Y18597D01*
Y18098D01*
X155848Y17598D01*
X156848D01*
X157348Y18098D01*
X154349Y20597D02*
Y18098D01*
X153849Y17598D01*
X152849D01*
X152349Y18098D01*
Y20597D01*
X151349Y17598D02*
Y20597D01*
X149850D01*
X149350Y20097D01*
Y19097D01*
X149850Y18597D01*
X151349D01*
X148351Y17598D02*
Y19597D01*
X147351Y20597D01*
X146351Y19597D01*
Y17598D01*
Y19097D01*
X148351D01*
X143352Y20597D02*
X145351D01*
Y17598D01*
X143352D01*
X145351Y19097D02*
X144352D01*
X142352Y17598D02*
Y20597D01*
X140853D01*
X140353Y20097D01*
Y19097D01*
X140853Y18597D01*
X142352D01*
X141353D02*
X140353Y17598D01*
X137854Y20597D02*
X138854D01*
X139353Y20097D01*
Y18098D01*
X138854Y17598D01*
X137854D01*
X137354Y18098D01*
Y20097D01*
X137854Y20597D01*
X133355Y17598D02*
Y20597D01*
X131856D01*
X131356Y20097D01*
Y19097D01*
X131856Y18597D01*
X133355D01*
X132356D02*
X131356Y17598D01*
X128857Y20597D02*
X129856D01*
X130356Y20097D01*
Y18098D01*
X129856Y17598D01*
X128857D01*
X128357Y18098D01*
Y20097D01*
X128857Y20597D01*
X127357D02*
Y17598D01*
X125858D01*
X125358Y18098D01*
Y18597D01*
X125858Y19097D01*
X127357D01*
X125858D01*
X125358Y19597D01*
Y20097D01*
X125858Y20597D01*
X127357D01*
X122859D02*
X123858D01*
X124358Y20097D01*
Y18098D01*
X123858Y17598D01*
X122859D01*
X122359Y18098D01*
Y20097D01*
X122859Y20597D01*
X121359D02*
X119360D01*
X120360D01*
Y17598D01*
X118360Y20597D02*
X117360D01*
X117860D01*
Y17598D01*
X118360D01*
X117360D01*
X115861Y20597D02*
Y17598D01*
Y18597D01*
X113862Y20597D01*
X115361Y19097D01*
X113862Y17598D01*
X107864Y20097D02*
X108363Y20597D01*
X109363D01*
X109863Y20097D01*
Y18098D01*
X109363Y17598D01*
X108363D01*
X107864Y18098D01*
X106864Y20597D02*
Y17598D01*
X104865D01*
X103865Y20597D02*
Y18098D01*
X103365Y17598D01*
X102365D01*
X101865Y18098D01*
Y20597D01*
X100866D02*
Y17598D01*
X99366D01*
X98866Y18098D01*
Y18597D01*
X99366Y19097D01*
X100866D01*
X99366D01*
X98866Y19597D01*
Y20097D01*
X99366Y20597D01*
X100866D01*
X147351Y15298D02*
X147851Y15798D01*
X148850D01*
X149350Y15298D01*
Y13299D01*
X148850Y12799D01*
X147851D01*
X147351Y13299D01*
X146351Y12799D02*
Y14798D01*
X145351Y15798D01*
X144352Y14798D01*
Y12799D01*
Y14298D01*
X146351D01*
X143352Y12799D02*
Y15798D01*
X141853D01*
X141353Y15298D01*
Y14298D01*
X141853Y13799D01*
X143352D01*
X142352D02*
X141353Y12799D01*
X140353Y15798D02*
X138354D01*
X139353D01*
Y12799D01*
X135355Y15798D02*
X137354D01*
Y12799D01*
X135355D01*
X137354Y14298D02*
X136354D01*
X129357Y15298D02*
X129856Y15798D01*
X130856D01*
X131356Y15298D01*
Y14798D01*
X130856Y14298D01*
X129856D01*
X129357Y13799D01*
Y13299D01*
X129856Y12799D01*
X130856D01*
X131356Y13299D01*
X128357Y12799D02*
Y15798D01*
X126857D01*
X126358Y15298D01*
Y14298D01*
X126857Y13799D01*
X128357D01*
X125358Y15798D02*
Y12799D01*
X123359D01*
X122359Y15798D02*
X121359D01*
X121859D01*
Y12799D01*
X122359D01*
X121359D01*
X119860Y15798D02*
X117860D01*
X118860D01*
Y12799D01*
X113862D02*
Y15798D01*
X112362D01*
X111862Y15298D01*
Y14298D01*
X112362Y13799D01*
X113862D01*
X110863Y12799D02*
Y15798D01*
X109863Y14798D01*
X108863Y15798D01*
Y12799D01*
X107864Y15798D02*
X106864D01*
X107364D01*
Y12799D01*
X107864D01*
X106864D01*
X154099Y10499D02*
X153599Y10999D01*
X152599D01*
X152099Y10499D01*
Y8500D01*
X152599Y8000D01*
X153599D01*
X154099Y8500D01*
Y10499D01*
X151100Y10999D02*
X149100D01*
Y10499D01*
X151100Y8500D01*
Y8000D01*
X148100D02*
X146101Y9999D01*
X145101Y8000D02*
X144102D01*
X144602D01*
Y10999D01*
X145101Y10499D01*
X142602D02*
X142103Y10999D01*
X141103D01*
X140603Y10499D01*
Y8500D01*
X141103Y8000D01*
X142103D01*
X142602Y8500D01*
Y10499D01*
X139603Y8000D02*
X137604Y9999D01*
X134605Y8000D02*
X136604D01*
X134605Y9999D01*
Y10499D01*
X135105Y10999D01*
X136104D01*
X136604Y10499D01*
X133605D02*
X133105Y10999D01*
X132106D01*
X131606Y10499D01*
Y8500D01*
X132106Y8000D01*
X133105D01*
X133605Y8500D01*
Y10499D01*
X128607Y8000D02*
X130606D01*
X128607Y9999D01*
Y10499D01*
X129107Y10999D01*
X130106D01*
X130606Y10499D01*
X127607D02*
X127107Y10999D01*
X126108D01*
X125608Y10499D01*
Y8500D01*
X126108Y8000D01*
X127107D01*
X127607Y8500D01*
Y10499D01*
X121609Y9499D02*
X119610D01*
X115611Y10999D02*
Y9000D01*
X114611Y8000D01*
X113612Y9000D01*
Y10999D01*
X107614Y8000D02*
X109613D01*
X107614Y9999D01*
Y10499D01*
X108114Y10999D01*
X109113D01*
X109613Y10499D01*
X106614Y8000D02*
Y8500D01*
X106114D01*
Y8000D01*
X106614D01*
X104115Y10499D02*
X103615Y10999D01*
X102615D01*
X102115Y10499D01*
Y8500D01*
X102615Y8000D01*
X103615D01*
X104115Y8500D01*
Y10499D01*
X214000Y58000D02*
Y60999D01*
X212501D01*
X212001Y60499D01*
Y59500D01*
X212501Y59000D01*
X214000D01*
X213000D02*
X212001Y58000D01*
X211001Y60499D02*
X210501Y60999D01*
X209502D01*
X209002Y60499D01*
Y59999D01*
X209502Y59500D01*
X210001D01*
X209502D01*
X209002Y59000D01*
Y58500D01*
X209502Y58000D01*
X210501D01*
X211001Y58500D01*
D19*
X224500Y48610D02*
Y56110D01*
X215500Y48610D02*
X224500D01*
X215500D02*
Y56110D01*
X224500Y63890D02*
Y71390D01*
X215500D02*
X224500D01*
X215500Y63890D02*
Y71390D01*
M02*
