G04 Layer_Physical_Order=1*
G04 Layer_Color=255*
%FSLAX25Y25*%
%MOIN*%
G70*
G01*
G75*
%ADD10R,0.05906X0.05906*%
%ADD11R,0.05906X0.05906*%
%ADD12R,0.07874X0.06693*%
%ADD13C,0.01969*%
%ADD14C,0.02953*%
%ADD15C,0.05906*%
%ADD16C,0.03937*%
%ADD17O,0.12000X0.07000*%
%ADD18C,0.05906*%
%ADD19C,0.20945*%
%ADD20C,0.06000*%
%ADD21O,0.07874X0.11811*%
%ADD22C,0.05000*%
%ADD23C,0.03937*%
G36*
X192579Y219305D02*
Y211968D01*
X202421D01*
Y213529D01*
X213692D01*
X214742Y212723D01*
X216072Y212172D01*
X217500Y211984D01*
X222500D01*
X223928Y212172D01*
X224482Y212402D01*
X225845Y211039D01*
X225574Y209397D01*
X223809Y208443D01*
X223675Y208498D01*
X222500Y208653D01*
X220500D01*
Y204114D01*
Y199575D01*
X222500D01*
X223675Y199730D01*
X224769Y200183D01*
X225709Y200905D01*
X225732Y200935D01*
X225745Y200945D01*
X228018Y201218D01*
X228262Y201122D01*
X230065Y199319D01*
X229312Y197500D01*
X204104D01*
X202421Y198189D01*
Y208032D01*
X200016D01*
X199486Y208439D01*
X198528Y208836D01*
X197500Y208971D01*
X196472Y208836D01*
X195515Y208439D01*
X194983Y208032D01*
X192579D01*
Y204513D01*
X190760Y203760D01*
X188510Y206010D01*
X187482Y206799D01*
X186285Y207295D01*
X185000Y207464D01*
X183714D01*
X183260Y207921D01*
X182546Y209432D01*
X182870Y210215D01*
X183059Y211653D01*
Y212441D01*
X171941D01*
Y211653D01*
X172118Y210303D01*
X171994Y210152D01*
X170358Y209280D01*
X166899Y212739D01*
Y215591D01*
X166785Y216748D01*
X166447Y217861D01*
X165899Y218887D01*
X165756Y219060D01*
X166688Y221029D01*
X172339D01*
X172689Y220600D01*
X173215Y219060D01*
X172685Y218370D01*
X172130Y217029D01*
X171941Y215591D01*
Y214803D01*
X183059D01*
Y215591D01*
X182870Y217029D01*
X182315Y218370D01*
X181785Y219060D01*
X182311Y220600D01*
X182661Y221029D01*
X190855D01*
X192579Y219305D01*
D02*
G37*
G36*
X139947Y219438D02*
X139495Y218887D01*
X138947Y217861D01*
X138609Y216748D01*
X138495Y215591D01*
Y211653D01*
X138609Y210496D01*
X138947Y209383D01*
X137740Y207464D01*
X129921D01*
Y208032D01*
X120079D01*
Y207464D01*
X104806D01*
X103928Y207828D01*
X102500Y208016D01*
X97500D01*
X96072Y207828D01*
X95194Y207464D01*
X90342D01*
X89659Y208148D01*
X88896Y209432D01*
X88971Y210000D01*
Y218355D01*
X91645Y221029D01*
X93577D01*
X94242Y219228D01*
X94264Y219060D01*
X93569Y218155D01*
X93116Y217061D01*
X93027Y216386D01*
X100000D01*
X106973D01*
X106884Y217061D01*
X106431Y218155D01*
X105736Y219060D01*
X105758Y219228D01*
X106423Y221029D01*
X120079D01*
Y211968D01*
X122484D01*
X123014Y211561D01*
X123972Y211164D01*
X125000Y211029D01*
X126028Y211164D01*
X126986Y211561D01*
X127516Y211968D01*
X129921D01*
Y221029D01*
X138355D01*
X139947Y219438D01*
D02*
G37*
G36*
X156173Y219060D02*
X156030Y218887D01*
X155482Y217861D01*
X155145Y216748D01*
X155031Y215591D01*
Y212739D01*
X152097Y209806D01*
X150846Y210273D01*
X150276Y210769D01*
X150363Y211653D01*
Y215591D01*
X150249Y216748D01*
X149911Y217861D01*
X149363Y218887D01*
X149221Y219060D01*
X150152Y221029D01*
X155242D01*
X156173Y219060D01*
D02*
G37*
G36*
X85762Y226378D02*
X82192Y222808D01*
X81561Y221986D01*
X81164Y221028D01*
X81029Y220000D01*
Y211645D01*
X65855Y196471D01*
X41139D01*
X40570Y198216D01*
X40571Y198231D01*
X40731Y198619D01*
X41010Y198833D01*
X41799Y199861D01*
X42295Y201058D01*
X42464Y202343D01*
X42295Y203627D01*
X41799Y204824D01*
X41010Y205852D01*
X40104Y206547D01*
X39944Y207542D01*
X40045Y208746D01*
X40729Y209271D01*
X41455Y210217D01*
X41911Y211318D01*
X41911Y211319D01*
X37500D01*
X33089D01*
X33089Y211318D01*
X33545Y210217D01*
X34271Y209271D01*
X34955Y208746D01*
X35056Y207542D01*
X34896Y206547D01*
X33990Y205852D01*
X33201Y204824D01*
X32705Y203627D01*
X32536Y202343D01*
X32705Y201058D01*
X33201Y199861D01*
X33990Y198833D01*
X34269Y198619D01*
X34402Y198295D01*
Y196548D01*
X34269Y196224D01*
X33990Y196010D01*
X33201Y194982D01*
X32705Y193785D01*
X32536Y192500D01*
X32705Y191215D01*
X33201Y190018D01*
X33529Y189591D01*
Y172279D01*
X33201Y171852D01*
X32705Y170655D01*
X32536Y169370D01*
X32705Y168085D01*
X33201Y166888D01*
X33990Y165860D01*
X34269Y165647D01*
X34402Y165322D01*
Y163575D01*
X34269Y163251D01*
X33990Y163037D01*
X33201Y162009D01*
X32705Y160812D01*
X32536Y159528D01*
X32705Y158243D01*
X33201Y157046D01*
X33990Y156018D01*
X34269Y155804D01*
X34402Y155480D01*
Y153733D01*
X34269Y153409D01*
X33990Y153195D01*
X33201Y152167D01*
X32705Y150970D01*
X32536Y149685D01*
X32705Y148400D01*
X33201Y147203D01*
X33990Y146175D01*
X34269Y145961D01*
X34402Y145637D01*
Y143890D01*
X34269Y143566D01*
X33990Y143352D01*
X33201Y142324D01*
X32705Y141127D01*
X32536Y139842D01*
X32705Y138558D01*
X33201Y137361D01*
X33990Y136333D01*
X34629Y135842D01*
X34807Y135271D01*
X34844Y134490D01*
X34689Y133550D01*
X34271Y133229D01*
X33545Y132283D01*
X33089Y131182D01*
X33089Y131181D01*
X37500D01*
X41911D01*
X41911Y131182D01*
X41455Y132283D01*
X40729Y133229D01*
X40311Y133550D01*
X40156Y134490D01*
X40193Y135271D01*
X40371Y135842D01*
X41010Y136333D01*
X41799Y137361D01*
X42295Y138558D01*
X42464Y139842D01*
X42295Y141127D01*
X41799Y142324D01*
X41010Y143352D01*
X40731Y143566D01*
X40598Y143890D01*
Y145637D01*
X40731Y145961D01*
X41010Y146175D01*
X41799Y147203D01*
X42295Y148400D01*
X42464Y149685D01*
X42295Y150970D01*
X41799Y152167D01*
X41010Y153195D01*
X40731Y153409D01*
X40598Y153733D01*
Y155480D01*
X40731Y155804D01*
X41010Y156018D01*
X41799Y157046D01*
X42295Y158243D01*
X42464Y159528D01*
X42295Y160812D01*
X41799Y162009D01*
X41010Y163037D01*
X40731Y163251D01*
X40598Y163575D01*
Y165322D01*
X40731Y165647D01*
X41010Y165860D01*
X41799Y166888D01*
X42295Y168085D01*
X42464Y169370D01*
X42295Y170655D01*
X41799Y171852D01*
X41471Y172279D01*
Y188529D01*
X63937D01*
X64691Y186710D01*
X46490Y168510D01*
X45701Y167482D01*
X45205Y166285D01*
X45036Y165000D01*
Y121584D01*
X33990Y110537D01*
X33201Y109509D01*
X32705Y108312D01*
X32536Y107028D01*
X32705Y105743D01*
X33201Y104546D01*
X33990Y103518D01*
X34269Y103304D01*
X34402Y102980D01*
Y101233D01*
X34269Y100909D01*
X33990Y100695D01*
X33201Y99667D01*
X32705Y98470D01*
X32536Y97185D01*
X32705Y95900D01*
X33201Y94703D01*
X33990Y93675D01*
X34269Y93462D01*
X34402Y93137D01*
Y91390D01*
X34269Y91066D01*
X33990Y90852D01*
X33201Y89824D01*
X32705Y88627D01*
X32536Y87343D01*
X32705Y86058D01*
X33201Y84861D01*
X33990Y83833D01*
X34269Y83619D01*
X34402Y83295D01*
Y81548D01*
X34269Y81224D01*
X33990Y81010D01*
X33201Y79982D01*
X32705Y78785D01*
X32536Y77500D01*
X32705Y76215D01*
X33201Y75018D01*
X33613Y74481D01*
X34681Y72819D01*
X34047Y71993D01*
X33649Y71032D01*
X33579Y70500D01*
X37500D01*
Y69500D01*
X33579D01*
X33583Y69468D01*
X32772Y68122D01*
X32126Y67500D01*
X0D01*
Y218347D01*
X10000Y228346D01*
X54688D01*
X55190Y227458D01*
X55360Y226378D01*
X54168Y225360D01*
X52896Y223871D01*
X51873Y222201D01*
X51123Y220392D01*
X50666Y218488D01*
X50513Y216535D01*
X50666Y214583D01*
X51123Y212679D01*
X51873Y210870D01*
X52896Y209200D01*
X54168Y207711D01*
X55657Y206439D01*
X57327Y205416D01*
X59136Y204667D01*
X61040Y204210D01*
X62992Y204056D01*
X64944Y204210D01*
X66848Y204667D01*
X68658Y205416D01*
X70327Y206439D01*
X71816Y207711D01*
X73088Y209200D01*
X74111Y210870D01*
X74861Y212679D01*
X75318Y214583D01*
X75472Y216535D01*
X75318Y218488D01*
X74861Y220392D01*
X74111Y222201D01*
X73088Y223871D01*
X71816Y225360D01*
X70624Y226378D01*
X70794Y227458D01*
X71296Y228346D01*
X84947D01*
X85762Y226378D01*
D02*
G37*
G36*
X248103Y227458D02*
X248273Y226378D01*
X247081Y225360D01*
X245810Y223871D01*
X244786Y222201D01*
X244037Y220392D01*
X243580Y218488D01*
X243426Y216535D01*
X243580Y214583D01*
X244037Y212679D01*
X244786Y210870D01*
X245810Y209200D01*
X247081Y207711D01*
X248570Y206439D01*
X249386Y205940D01*
X248831Y203971D01*
X236645D01*
X233971Y206645D01*
Y212500D01*
X233836Y213528D01*
X233439Y214486D01*
X232808Y215308D01*
X227808Y220308D01*
X226986Y220939D01*
X226646Y221079D01*
X226400Y221400D01*
X225258Y222277D01*
X223928Y222828D01*
X222500Y223016D01*
X217500D01*
X216072Y222828D01*
X214742Y222277D01*
X213692Y221471D01*
X202421D01*
Y221811D01*
X201305D01*
X196738Y226378D01*
X197553Y228346D01*
X247601D01*
X248103Y227458D01*
D02*
G37*
G36*
X166130Y199469D02*
X165513Y197674D01*
X165368Y197500D01*
X156561Y197500D01*
X156416Y197674D01*
X155799Y199469D01*
X160965Y204634D01*
X166130Y199469D01*
D02*
G37*
G36*
X318898Y216535D02*
X318898Y67500D01*
X274212D01*
X269606Y72106D01*
X268989Y72579D01*
X268271Y72877D01*
X267500Y72978D01*
X235000D01*
X235000Y120000D01*
X244340Y129340D01*
X246472Y128997D01*
X246624Y128840D01*
X246579Y128500D01*
X250000D01*
Y131921D01*
X249660Y131876D01*
X249503Y132028D01*
X249160Y134160D01*
X252500Y137500D01*
X252500Y175196D01*
X254468Y176012D01*
X257536Y172944D01*
Y132500D01*
X257705Y131215D01*
X258201Y130018D01*
X258990Y128990D01*
X268990Y118990D01*
X270018Y118201D01*
X271215Y117705D01*
X272500Y117536D01*
X285444D01*
X290036Y112944D01*
Y85122D01*
X288427Y83688D01*
X288063Y83747D01*
X287619Y84304D01*
X287011Y85845D01*
X287295Y86530D01*
X287464Y87815D01*
X287295Y89100D01*
X286799Y90297D01*
X286010Y91325D01*
X285731Y91539D01*
X285598Y91863D01*
Y93610D01*
X285731Y93934D01*
X286010Y94148D01*
X286799Y95176D01*
X287295Y96373D01*
X287464Y97658D01*
X287295Y98942D01*
X286799Y100139D01*
X286010Y101167D01*
X285731Y101381D01*
X285598Y101705D01*
Y103452D01*
X285731Y103776D01*
X286010Y103990D01*
X286799Y105018D01*
X287295Y106215D01*
X287464Y107500D01*
X287295Y108785D01*
X286799Y109982D01*
X286010Y111010D01*
X284982Y111799D01*
X283785Y112295D01*
X282500Y112464D01*
X281215Y112295D01*
X280018Y111799D01*
X278990Y111010D01*
X278201Y109982D01*
X277705Y108785D01*
X277536Y107500D01*
X277705Y106215D01*
X278201Y105018D01*
X278990Y103990D01*
X279269Y103776D01*
X279402Y103452D01*
Y101705D01*
X279269Y101381D01*
X278990Y101167D01*
X278201Y100139D01*
X277705Y98942D01*
X277536Y97658D01*
X277705Y96373D01*
X278201Y95176D01*
X278990Y94148D01*
X279269Y93934D01*
X279402Y93610D01*
Y91863D01*
X279269Y91539D01*
X278990Y91325D01*
X278201Y90297D01*
X277705Y89100D01*
X277536Y87815D01*
X277705Y86530D01*
X278201Y85333D01*
X278990Y84305D01*
X279269Y84091D01*
X279402Y83767D01*
Y82020D01*
X279269Y81696D01*
X278990Y81482D01*
X278201Y80454D01*
X277705Y79257D01*
X277536Y77972D01*
X277705Y76688D01*
X278201Y75491D01*
X278990Y74463D01*
X280018Y73674D01*
X281215Y73178D01*
X282500Y73009D01*
X290472D01*
X291757Y73178D01*
X292954Y73674D01*
X293982Y74463D01*
X298510Y78990D01*
X299299Y80018D01*
X299795Y81215D01*
X299964Y82500D01*
Y115000D01*
X299795Y116285D01*
X299299Y117482D01*
X298510Y118510D01*
X291010Y126010D01*
X289982Y126799D01*
X288785Y127295D01*
X288548Y127326D01*
X287308Y129227D01*
X287305Y129246D01*
X287306Y129432D01*
X287464Y130630D01*
X287295Y131915D01*
X286799Y133112D01*
X286010Y134140D01*
X285731Y134353D01*
X285598Y134678D01*
Y136425D01*
X285731Y136749D01*
X286010Y136963D01*
X286799Y137991D01*
X287295Y139188D01*
X287464Y140472D01*
X287295Y141757D01*
X286799Y142954D01*
X286010Y143982D01*
X285731Y144196D01*
X285598Y144520D01*
Y146267D01*
X285731Y146591D01*
X286010Y146805D01*
X286799Y147833D01*
X287295Y149030D01*
X287464Y150315D01*
X287295Y151600D01*
X286799Y152797D01*
X286010Y153825D01*
X285731Y154039D01*
X285598Y154363D01*
Y156110D01*
X285731Y156434D01*
X286010Y156648D01*
X286799Y157676D01*
X287295Y158873D01*
X287464Y160158D01*
X287295Y161442D01*
X286799Y162639D01*
X286010Y163667D01*
X285371Y164158D01*
X285193Y164729D01*
X285156Y165510D01*
X285311Y166450D01*
X285729Y166771D01*
X286455Y167717D01*
X286911Y168818D01*
X286911Y168819D01*
X282500D01*
X278089D01*
X278089Y168818D01*
X278545Y167717D01*
X279271Y166771D01*
X279689Y166450D01*
X279844Y165510D01*
X279807Y164729D01*
X279629Y164158D01*
X278990Y163667D01*
X278201Y162639D01*
X277705Y161442D01*
X277536Y160158D01*
X277705Y158873D01*
X278201Y157676D01*
X278990Y156648D01*
X279269Y156434D01*
X279402Y156110D01*
Y154363D01*
X279269Y154039D01*
X278990Y153825D01*
X278201Y152797D01*
X277705Y151600D01*
X277536Y150315D01*
X277705Y149030D01*
X278201Y147833D01*
X278990Y146805D01*
X279269Y146591D01*
X279402Y146267D01*
Y144520D01*
X279269Y144196D01*
X278990Y143982D01*
X278201Y142954D01*
X277705Y141757D01*
X277536Y140472D01*
X277705Y139188D01*
X278157Y138098D01*
X278186Y137956D01*
X277309Y135920D01*
X277215Y135901D01*
X273971Y139145D01*
Y177500D01*
X273836Y178528D01*
X273439Y179485D01*
X272808Y180308D01*
X258905Y194210D01*
X259659Y196029D01*
X265000D01*
X266028Y196164D01*
X266986Y196561D01*
X267808Y197192D01*
X276294Y205678D01*
X277962Y204563D01*
X277705Y203942D01*
X277536Y202658D01*
X277705Y201373D01*
X278201Y200176D01*
X278990Y199148D01*
X279896Y198453D01*
X280056Y197458D01*
X279955Y196254D01*
X279271Y195729D01*
X278545Y194783D01*
X278089Y193682D01*
X278089Y193681D01*
X282500D01*
X286911D01*
X286911Y193682D01*
X286455Y194783D01*
X285729Y195729D01*
X285045Y196254D01*
X284944Y197458D01*
X285104Y198453D01*
X286010Y199148D01*
X286799Y200176D01*
X287295Y201373D01*
X287464Y202658D01*
X287295Y203942D01*
X286799Y205139D01*
X286010Y206167D01*
X285731Y206381D01*
X285598Y206705D01*
Y208452D01*
X285731Y208776D01*
X286010Y208990D01*
X286799Y210018D01*
X287295Y211215D01*
X287464Y212500D01*
X287295Y213785D01*
X286799Y214982D01*
X286010Y216010D01*
X284982Y216799D01*
X283785Y217295D01*
X282500Y217464D01*
X281215Y217295D01*
X280018Y216799D01*
X279591Y216471D01*
X277500D01*
X276472Y216336D01*
X275515Y215939D01*
X274692Y215308D01*
X267876Y208492D01*
X266320Y209719D01*
X267025Y210870D01*
X267774Y212679D01*
X268231Y214583D01*
X268385Y216535D01*
X268231Y218488D01*
X267774Y220392D01*
X267025Y222201D01*
X266002Y223871D01*
X264730Y225360D01*
X263538Y226378D01*
X263708Y227458D01*
X264210Y228346D01*
X307087D01*
X318898Y216535D01*
D02*
G37*
G36*
X192500Y187500D02*
X240000D01*
X250000Y177500D01*
X250000Y137838D01*
X247741Y135580D01*
X247652Y135446D01*
X247534Y135336D01*
X247436Y135123D01*
X247306Y134928D01*
X247276Y134776D01*
X243724Y131224D01*
X243572Y131194D01*
X243377Y131064D01*
X243164Y130966D01*
X243054Y130848D01*
X242920Y130759D01*
X233581Y121419D01*
X233146Y120768D01*
X233115Y120615D01*
X232500Y120000D01*
Y72023D01*
X200000D01*
X199226Y71869D01*
X198569Y71431D01*
X192648Y65510D01*
X192017Y65994D01*
X191044Y66397D01*
X190000Y66535D01*
X188956Y66397D01*
X187983Y65994D01*
X187147Y65353D01*
X186506Y64517D01*
X186103Y63544D01*
X186009Y62832D01*
X185025Y62896D01*
Y72104D01*
X186009Y72168D01*
X186047Y71884D01*
X186103Y71456D01*
X186506Y70483D01*
X187147Y69647D01*
X187983Y69006D01*
X188956Y68603D01*
X190000Y68466D01*
X191044Y68603D01*
X192017Y69006D01*
X192853Y69647D01*
X193490Y70477D01*
X195000D01*
X195774Y70631D01*
X196431Y71069D01*
X200902Y75541D01*
X201658Y76047D01*
Y76047D01*
X201658Y76047D01*
X209563D01*
Y83953D01*
X201658D01*
Y81823D01*
X201069Y81431D01*
X194374Y74735D01*
X193287Y74787D01*
X192853Y75353D01*
X192017Y75994D01*
X191044Y76397D01*
X190000Y76534D01*
X188956Y76397D01*
X187983Y75994D01*
X187147Y75353D01*
X186506Y74517D01*
X186103Y73544D01*
X186047Y73116D01*
X186009Y72832D01*
X185025Y72896D01*
Y82104D01*
X186009Y82168D01*
X186103Y81456D01*
X186506Y80483D01*
X187147Y79647D01*
X187983Y79006D01*
X188956Y78603D01*
X190000Y78465D01*
X191044Y78603D01*
X192017Y79006D01*
X192853Y79647D01*
X193490Y80477D01*
X195000D01*
X195774Y80631D01*
X196431Y81069D01*
X206431Y91069D01*
X206869Y91726D01*
X207023Y92500D01*
Y96047D01*
X209563D01*
Y103953D01*
X203100D01*
X202723Y104862D01*
X213931Y116069D01*
X214369Y116726D01*
X214523Y117500D01*
Y131047D01*
X217063D01*
Y138953D01*
X209523D01*
Y148552D01*
X212019Y151047D01*
X217063D01*
Y158953D01*
X209523D01*
Y171047D01*
X217063D01*
Y178953D01*
X209157D01*
Y176823D01*
X208569Y176431D01*
X206069Y173931D01*
X205631Y173274D01*
X205477Y172500D01*
Y158338D01*
X201069Y153931D01*
X200631Y153274D01*
X200477Y152500D01*
Y125838D01*
X191037Y116398D01*
X190000Y116534D01*
X188956Y116397D01*
X187983Y115994D01*
X187147Y115353D01*
X186506Y114517D01*
X186103Y113544D01*
X186009Y112832D01*
X185025Y112896D01*
Y122104D01*
X186009Y122168D01*
X186047Y121884D01*
X186103Y121456D01*
X186506Y120483D01*
X187147Y119647D01*
X187983Y119006D01*
X188956Y118603D01*
X190000Y118465D01*
X191044Y118603D01*
X192017Y119006D01*
X192853Y119647D01*
X193494Y120483D01*
X193897Y121456D01*
X194035Y122500D01*
X193897Y123544D01*
X193494Y124517D01*
X192853Y125353D01*
X192017Y125994D01*
X191044Y126397D01*
X190000Y126534D01*
X188956Y126397D01*
X187983Y125994D01*
X187147Y125353D01*
X186506Y124517D01*
X186103Y123544D01*
X186047Y123116D01*
X186009Y122832D01*
X185025Y122896D01*
Y132104D01*
X186009Y132168D01*
X186047Y131884D01*
X186103Y131456D01*
X186506Y130483D01*
X187147Y129647D01*
X187983Y129006D01*
X188956Y128603D01*
X190000Y128465D01*
X191044Y128603D01*
X192017Y129006D01*
X192853Y129647D01*
X193494Y130483D01*
X193897Y131456D01*
X194035Y132500D01*
X193897Y133544D01*
X193494Y134517D01*
X192853Y135353D01*
X192017Y135994D01*
X191044Y136397D01*
X190000Y136535D01*
X188956Y136397D01*
X187983Y135994D01*
X187147Y135353D01*
X186506Y134517D01*
X186103Y133544D01*
X186047Y133116D01*
X186009Y132832D01*
X185025Y132896D01*
Y142104D01*
X186009Y142168D01*
X186047Y141884D01*
X186103Y141456D01*
X186506Y140483D01*
X187147Y139647D01*
X187983Y139006D01*
X188956Y138603D01*
X190000Y138465D01*
X191044Y138603D01*
X192017Y139006D01*
X192853Y139647D01*
X193494Y140483D01*
X193897Y141456D01*
X194035Y142500D01*
X193897Y143544D01*
X193494Y144517D01*
X192853Y145353D01*
X192017Y145994D01*
X191044Y146397D01*
X190000Y146535D01*
X188956Y146397D01*
X187983Y145994D01*
X187147Y145353D01*
X186506Y144517D01*
X186103Y143544D01*
X186047Y143116D01*
X186009Y142832D01*
X185025Y142896D01*
Y152104D01*
X186009Y152168D01*
X186047Y151884D01*
X186103Y151456D01*
X186506Y150483D01*
X187147Y149647D01*
X187983Y149006D01*
X188956Y148603D01*
X190000Y148466D01*
X191044Y148603D01*
X192017Y149006D01*
X192853Y149647D01*
X193494Y150483D01*
X193897Y151456D01*
X194035Y152500D01*
X193897Y153544D01*
X193494Y154517D01*
X192853Y155353D01*
X192017Y155994D01*
X191044Y156397D01*
X190000Y156535D01*
X188956Y156397D01*
X187983Y155994D01*
X187147Y155353D01*
X186506Y154517D01*
X186103Y153544D01*
X186047Y153116D01*
X186009Y152832D01*
X185025Y152896D01*
Y161546D01*
X185025Y162104D01*
X186009Y162168D01*
X186103Y161456D01*
X186506Y160483D01*
X187147Y159647D01*
X187983Y159006D01*
X188956Y158603D01*
X190000Y158466D01*
X191044Y158603D01*
X192017Y159006D01*
X192853Y159647D01*
X193494Y160483D01*
X193897Y161456D01*
X194035Y162500D01*
X193897Y163544D01*
X193494Y164517D01*
X192853Y165353D01*
X192017Y165994D01*
X191044Y166397D01*
X190000Y166534D01*
X188956Y166397D01*
X187983Y165994D01*
X187147Y165353D01*
X186506Y164517D01*
X186103Y163544D01*
X185976Y162580D01*
X185025Y162500D01*
X184833Y163466D01*
X184285Y164285D01*
X165156Y183415D01*
X165277Y183573D01*
X165775Y184774D01*
X165944Y186063D01*
Y190000D01*
X165775Y191289D01*
X165277Y192490D01*
X164486Y193521D01*
X163841Y194016D01*
X164175Y195000D01*
X173345D01*
X173679Y194016D01*
X173569Y193931D01*
X172685Y192780D01*
X172130Y191439D01*
X171941Y190000D01*
Y189213D01*
X177500D01*
X183059D01*
Y190000D01*
X182870Y191439D01*
X182315Y192780D01*
X181431Y193931D01*
X181321Y194016D01*
X181655Y195000D01*
X185000D01*
X192500Y187500D01*
D02*
G37*
G36*
X158088Y194016D02*
X157443Y193521D01*
X156652Y192490D01*
X156155Y191289D01*
X155985Y190000D01*
Y186063D01*
X156155Y184774D01*
X156652Y183573D01*
X157443Y182542D01*
X158475Y181751D01*
X159579Y181293D01*
X159704Y181185D01*
X159777Y181009D01*
X159120Y180025D01*
X148546D01*
X147565Y181006D01*
X147651Y182312D01*
X147950Y182542D01*
X148742Y183573D01*
X149239Y184774D01*
X149409Y186063D01*
Y190000D01*
X149239Y191289D01*
X148742Y192490D01*
X147950Y193521D01*
X147306Y194016D01*
X147640Y195000D01*
X157754D01*
X158088Y194016D01*
D02*
G37*
G36*
X67500Y172908D02*
Y137500D01*
X76340Y128660D01*
X75997Y126528D01*
X75840Y126376D01*
X75500Y126421D01*
Y123000D01*
X78921D01*
X78876Y123340D01*
X79028Y123497D01*
X81160Y123840D01*
X85000Y120000D01*
Y77978D01*
X66334D01*
X65778Y78911D01*
X65523Y79947D01*
X65953Y80507D01*
X66351Y81468D01*
X66421Y82000D01*
X58579D01*
X58649Y81468D01*
X59047Y80507D01*
X59477Y79947D01*
X59222Y78911D01*
X58666Y77978D01*
X50000D01*
X50000Y77978D01*
X49229Y77877D01*
X48511Y77579D01*
X47894Y77106D01*
X43893Y73105D01*
X41521Y73516D01*
X41201Y74192D01*
X41387Y74481D01*
X41799Y75018D01*
X42295Y76215D01*
X42464Y77500D01*
X42295Y78785D01*
X41799Y79982D01*
X41010Y81010D01*
X40731Y81224D01*
X40598Y81548D01*
Y83295D01*
X40731Y83619D01*
X41010Y83833D01*
X41799Y84861D01*
X42295Y86058D01*
X42464Y87343D01*
X42295Y88627D01*
X41799Y89824D01*
X41010Y90852D01*
X40731Y91066D01*
X40598Y91390D01*
Y93137D01*
X40731Y93462D01*
X41010Y93675D01*
X41799Y94703D01*
X42295Y95900D01*
X42464Y97185D01*
X42295Y98470D01*
X41799Y99667D01*
X41010Y100695D01*
X40731Y100909D01*
X40598Y101233D01*
Y102980D01*
X40731Y103304D01*
X41010Y103518D01*
X53510Y116018D01*
X54299Y117046D01*
X54795Y118243D01*
X54964Y119528D01*
Y162944D01*
X65681Y173662D01*
X67500Y172908D01*
D02*
G37*
G36*
X205477Y124750D02*
Y120838D01*
X191037Y106398D01*
X190000Y106535D01*
X188956Y106397D01*
X187983Y105994D01*
X187147Y105353D01*
X186506Y104517D01*
X186103Y103544D01*
X186009Y102832D01*
X185025Y102896D01*
Y112104D01*
X186009Y112168D01*
X186103Y111456D01*
X186506Y110483D01*
X187147Y109647D01*
X187983Y109006D01*
X188956Y108603D01*
X190000Y108466D01*
X191044Y108603D01*
X192017Y109006D01*
X192853Y109647D01*
X193494Y110483D01*
X193897Y111456D01*
X194035Y112500D01*
X193898Y113537D01*
X203931Y123569D01*
X204369Y124226D01*
X204493Y124847D01*
X205477Y124750D01*
D02*
G37*
G36*
X210477Y119750D02*
Y118338D01*
X196069Y103931D01*
X195631Y103274D01*
X195477Y102500D01*
Y95838D01*
X194374Y94735D01*
X193287Y94787D01*
X192853Y95353D01*
X192017Y95994D01*
X191044Y96397D01*
X190000Y96535D01*
X188956Y96397D01*
X187983Y95994D01*
X187147Y95353D01*
X186506Y94517D01*
X186103Y93544D01*
X186009Y92832D01*
X185025Y92896D01*
Y102104D01*
X186009Y102168D01*
X186103Y101456D01*
X186506Y100483D01*
X187147Y99647D01*
X187983Y99006D01*
X188956Y98603D01*
X190000Y98466D01*
X191044Y98603D01*
X192017Y99006D01*
X192853Y99647D01*
X193494Y100483D01*
X193897Y101456D01*
X194035Y102500D01*
X193898Y103537D01*
X208931Y118569D01*
X209369Y119226D01*
X209493Y119847D01*
X210477Y119750D01*
D02*
G37*
G36*
X201658Y102510D02*
Y96047D01*
X202977D01*
Y93338D01*
X194374Y84735D01*
X193287Y84787D01*
X192853Y85353D01*
X192017Y85994D01*
X191044Y86397D01*
X190000Y86535D01*
X188956Y86397D01*
X187983Y85994D01*
X187147Y85353D01*
X186506Y84517D01*
X186103Y83544D01*
X186009Y82832D01*
X185025Y82896D01*
Y92104D01*
X186009Y92168D01*
X186103Y91456D01*
X186506Y90483D01*
X187147Y89647D01*
X187983Y89006D01*
X188956Y88603D01*
X190000Y88465D01*
X191044Y88603D01*
X192017Y89006D01*
X192853Y89647D01*
X193490Y90477D01*
X195000D01*
X195774Y90631D01*
X196431Y91069D01*
X198931Y93569D01*
X199369Y94226D01*
X199523Y95000D01*
Y101662D01*
X200748Y102887D01*
X201658Y102510D01*
D02*
G37*
G36*
X141553Y194016D02*
X140908Y193521D01*
X140117Y192490D01*
X139619Y191289D01*
X139450Y190000D01*
Y186063D01*
X139619Y184774D01*
X140117Y183573D01*
X140908Y182542D01*
X141904Y181778D01*
Y180571D01*
X142096Y179605D01*
X142644Y178786D01*
X145715Y175715D01*
X146534Y175167D01*
X147500Y174975D01*
X158954D01*
X174975Y158954D01*
Y46046D01*
X173954Y45025D01*
X146453D01*
Y47063D01*
X138547D01*
Y45025D01*
X133105D01*
X132853Y45353D01*
X132017Y45994D01*
X131044Y46397D01*
X130000Y46534D01*
X128956Y46397D01*
X127983Y45994D01*
X127147Y45353D01*
X126506Y44517D01*
X126385Y44225D01*
X125426Y44482D01*
X125494Y45000D01*
X125392Y45775D01*
X125093Y46497D01*
X124617Y47117D01*
X124523Y47189D01*
Y56662D01*
X127351Y59490D01*
X127983Y59006D01*
X128956Y58603D01*
X130000Y58465D01*
X131044Y58603D01*
X132017Y59006D01*
X132853Y59647D01*
X133494Y60483D01*
X133897Y61456D01*
X134035Y62500D01*
X133897Y63544D01*
X133494Y64517D01*
X132853Y65353D01*
X132017Y65994D01*
X131044Y66397D01*
X130000Y66535D01*
X128956Y66397D01*
X127983Y65994D01*
X127147Y65353D01*
X126506Y64517D01*
X126337Y64109D01*
X126069Y63931D01*
X121913Y59774D01*
X121497Y60093D01*
X120775Y60392D01*
X120000Y60494D01*
X119225Y60392D01*
X118503Y60093D01*
X117883Y59617D01*
X117407Y58997D01*
X117108Y58275D01*
X117006Y57500D01*
X117108Y56725D01*
X117407Y56003D01*
X117883Y55383D01*
X118503Y54907D01*
X119225Y54608D01*
X120000Y54506D01*
X120477Y54088D01*
Y47189D01*
X120383Y47117D01*
X119907Y46497D01*
X119608Y45775D01*
X119506Y45000D01*
X119608Y44225D01*
X119907Y43503D01*
X120383Y42883D01*
X120477Y42811D01*
Y35838D01*
X106662Y22023D01*
X99689D01*
X99617Y22117D01*
X98997Y22593D01*
X98275Y22892D01*
X97500Y22994D01*
X96725Y22892D01*
X96003Y22593D01*
X95383Y22117D01*
X94907Y21497D01*
X94608Y20775D01*
X94506Y20000D01*
X94608Y19225D01*
X94907Y18503D01*
X95383Y17883D01*
X96003Y17407D01*
X96725Y17108D01*
X97500Y17006D01*
X98275Y17108D01*
X98997Y17407D01*
X99617Y17883D01*
X99689Y17977D01*
X107500D01*
X108274Y18131D01*
X108931Y18569D01*
X109141Y18780D01*
X110111Y18461D01*
X110154Y18401D01*
X109975Y17500D01*
Y15025D01*
X78546D01*
X77525Y16046D01*
Y23414D01*
X77593Y23503D01*
X77892Y24225D01*
X77994Y25000D01*
X77892Y25775D01*
X77593Y26497D01*
X77117Y27117D01*
X76497Y27593D01*
X75775Y27892D01*
X75000Y27994D01*
X74225Y27892D01*
X73503Y27593D01*
X73414Y27525D01*
X66046D01*
X65812Y27758D01*
Y34455D01*
X66106Y34681D01*
X66740Y35507D01*
X67138Y36468D01*
X67274Y37500D01*
X67138Y38532D01*
X66740Y39493D01*
X66106Y40319D01*
X65311Y40930D01*
Y46047D01*
X67063D01*
Y53953D01*
X65311D01*
Y56047D01*
X67063D01*
Y58592D01*
X71448Y62977D01*
X72937D01*
Y56047D01*
X80481D01*
X80949Y55579D01*
Y54893D01*
X80843Y53953D01*
X79965Y53953D01*
X72937D01*
Y48908D01*
X71699Y47671D01*
X71261Y47014D01*
X71107Y46240D01*
Y40930D01*
X70311Y40319D01*
X69677Y39493D01*
X69279Y38532D01*
X69143Y37500D01*
X69279Y36468D01*
X69677Y35507D01*
X70311Y34681D01*
X71136Y34047D01*
X72098Y33649D01*
X73130Y33513D01*
X74162Y33649D01*
X75123Y34047D01*
X75949Y34681D01*
X76583Y35507D01*
X76981Y36468D01*
X77117Y37500D01*
X76981Y38532D01*
X76583Y39493D01*
X75949Y40319D01*
X75153Y40930D01*
Y45330D01*
X75870Y46047D01*
X80843Y46047D01*
X80949Y45107D01*
Y40930D01*
X80153Y40319D01*
X79520Y39493D01*
X79121Y38532D01*
X78986Y37500D01*
X79121Y36468D01*
X79520Y35507D01*
X80153Y34681D01*
X80979Y34047D01*
X81941Y33649D01*
X82972Y33513D01*
X84004Y33649D01*
X84966Y34047D01*
X85792Y34681D01*
X86425Y35507D01*
X86823Y36468D01*
X86959Y37500D01*
X86823Y38532D01*
X86425Y39493D01*
X85792Y40319D01*
X84996Y40930D01*
Y50199D01*
X85497Y50407D01*
X85832Y50664D01*
X86658Y51047D01*
X94563D01*
Y51047D01*
X95477Y50877D01*
Y44689D01*
X95383Y44617D01*
X94907Y43997D01*
X94608Y43275D01*
X94506Y42500D01*
X94555Y42123D01*
X94069Y41593D01*
X93863Y41435D01*
X93699Y41370D01*
X92815Y41487D01*
X91783Y41351D01*
X90821Y40953D01*
X89996Y40319D01*
X89362Y39493D01*
X88964Y38532D01*
X88828Y37500D01*
X88964Y36468D01*
X89362Y35507D01*
X89996Y34681D01*
X90821Y34047D01*
X91783Y33649D01*
X92815Y33513D01*
X93847Y33649D01*
X94808Y34047D01*
X95634Y34681D01*
X96268Y35507D01*
X96666Y36468D01*
X96802Y37500D01*
X96666Y38532D01*
X96626Y38628D01*
X97235Y39421D01*
X98261Y39534D01*
X98461Y39379D01*
X98922Y38811D01*
X98807Y38532D01*
X98671Y37500D01*
X98807Y36468D01*
X99205Y35507D01*
X99838Y34681D01*
X100664Y34047D01*
X101626Y33649D01*
X102657Y33513D01*
X103689Y33649D01*
X104651Y34047D01*
X105477Y34681D01*
X106110Y35507D01*
X106509Y36468D01*
X106644Y37500D01*
X106509Y38532D01*
X106110Y39493D01*
X105477Y40319D01*
X104681Y40930D01*
Y51047D01*
X108343D01*
Y52343D01*
X108497Y52407D01*
X109117Y52883D01*
X109593Y53503D01*
X109892Y54225D01*
X109994Y55000D01*
X109892Y55775D01*
X109593Y56497D01*
X109117Y57117D01*
X108497Y57593D01*
X108343Y57657D01*
Y58953D01*
X100437D01*
Y57665D01*
X100055Y57410D01*
X99453Y57243D01*
X98997Y57593D01*
X98275Y57892D01*
X97500Y57994D01*
X96725Y57892D01*
X96003Y57593D01*
X95547Y57243D01*
X94945Y57410D01*
X94563Y57665D01*
Y58953D01*
X92633D01*
Y61890D01*
X92479Y62664D01*
X92041Y63320D01*
X88931Y66431D01*
X88274Y66869D01*
X87653Y66993D01*
X87750Y67977D01*
X127500D01*
X128274Y68131D01*
X128931Y68569D01*
X128963Y68602D01*
X130000Y68466D01*
X131044Y68603D01*
X132017Y69006D01*
X132853Y69647D01*
X133494Y70483D01*
X133897Y71456D01*
X134035Y72500D01*
X133897Y73544D01*
X133494Y74517D01*
X132853Y75353D01*
X132017Y75994D01*
X131044Y76397D01*
X130000Y76534D01*
X128956Y76397D01*
X127983Y75994D01*
X127147Y75353D01*
X126506Y74517D01*
X126103Y73544D01*
X125965Y72500D01*
X125547Y72023D01*
X120250D01*
X120153Y73007D01*
X120774Y73131D01*
X121431Y73569D01*
X127351Y79490D01*
X127983Y79006D01*
X128956Y78603D01*
X130000Y78465D01*
X131044Y78603D01*
X132017Y79006D01*
X132853Y79647D01*
X133494Y80483D01*
X133897Y81456D01*
X134035Y82500D01*
X133897Y83544D01*
X133494Y84517D01*
X132853Y85353D01*
X132017Y85994D01*
X131044Y86397D01*
X130000Y86535D01*
X128956Y86397D01*
X127983Y85994D01*
X127147Y85353D01*
X126506Y84517D01*
X126337Y84109D01*
X126069Y83931D01*
X119162Y77023D01*
X87500D01*
Y120000D01*
X86885Y120615D01*
X86854Y120768D01*
X86419Y121419D01*
X82580Y125259D01*
X82446Y125348D01*
X82336Y125466D01*
X82123Y125564D01*
X81928Y125694D01*
X81776Y125724D01*
X78224Y129276D01*
X78194Y129429D01*
X78064Y129623D01*
X77966Y129836D01*
X77848Y129946D01*
X77759Y130080D01*
X70000Y137838D01*
Y175000D01*
X90000Y195000D01*
X141218Y195000D01*
X141553Y194016D01*
D02*
G37*
G36*
X202347Y66993D02*
X201726Y66869D01*
X201069Y66431D01*
X191037Y56398D01*
X190000Y56534D01*
X188956Y56397D01*
X187983Y55994D01*
X187147Y55353D01*
X186506Y54517D01*
X186103Y53544D01*
X186009Y52832D01*
X185025Y52896D01*
Y62104D01*
X186009Y62168D01*
X186103Y61456D01*
X186506Y60483D01*
X187147Y59647D01*
X187983Y59006D01*
X188956Y58603D01*
X190000Y58465D01*
X191044Y58603D01*
X192017Y59006D01*
X192853Y59647D01*
X193494Y60483D01*
X193663Y60891D01*
X193931Y61069D01*
X200838Y67977D01*
X202250D01*
X202347Y66993D01*
D02*
G37*
G36*
X88587Y61052D02*
Y58953D01*
X86658D01*
Y56041D01*
X85817Y55596D01*
X84996Y56064D01*
Y56417D01*
X84842Y57191D01*
X84403Y57848D01*
X80843Y61408D01*
Y62977D01*
X86662D01*
X88587Y61052D01*
D02*
G37*
G36*
X318898Y15848D02*
X317913Y15652D01*
X317340Y17036D01*
X316397Y18575D01*
X315224Y19948D01*
X313851Y21121D01*
X312311Y22065D01*
X310643Y22756D01*
X308887Y23177D01*
X307087Y23319D01*
X305286Y23177D01*
X303531Y22756D01*
X301862Y22065D01*
X300322Y21121D01*
X298949Y19948D01*
X297777Y18575D01*
X296833Y17036D01*
X296142Y15367D01*
X295720Y13611D01*
X295579Y11811D01*
X295720Y10011D01*
X295823Y9584D01*
X294868Y9347D01*
X290500D01*
Y5500D01*
X294937D01*
Y9058D01*
X295921Y9174D01*
X296142Y8255D01*
X296833Y6587D01*
X297777Y5047D01*
X298949Y3674D01*
X300322Y2501D01*
X301862Y1557D01*
X303241Y986D01*
X303045Y2D01*
X295653Y6D01*
X294937Y654D01*
X294937Y991D01*
Y4500D01*
X290000D01*
X285063D01*
Y997D01*
X284344Y13D01*
X274398Y18D01*
X273677Y654D01*
X273677Y1003D01*
Y9347D01*
X263803D01*
Y7023D01*
X203338D01*
X202023Y8338D01*
Y17500D01*
X201869Y18274D01*
X201431Y18931D01*
X199757Y20604D01*
X199101Y21042D01*
X198327Y21196D01*
X197437D01*
Y23520D01*
X187563D01*
Y16186D01*
X187184Y15887D01*
X186579Y15634D01*
X185914Y15910D01*
X185500Y15964D01*
Y13000D01*
X188464D01*
X188410Y13414D01*
X188232Y13842D01*
X188782Y14827D01*
X197437D01*
X197977Y14066D01*
Y10107D01*
X197437Y9347D01*
X196993Y9347D01*
X193000D01*
Y5500D01*
X197437D01*
Y5993D01*
X198421Y6291D01*
X198569Y6069D01*
X201069Y3569D01*
X201726Y3131D01*
X202500Y2977D01*
X263803D01*
Y1008D01*
X263079Y25D01*
X198176Y61D01*
X197437Y654D01*
X197437Y1046D01*
Y4500D01*
X192500D01*
Y5000D01*
D01*
Y4500D01*
X187563D01*
Y1051D01*
X186822Y67D01*
X176921Y73D01*
X176177Y654D01*
X176177Y1058D01*
Y2616D01*
X177161Y2950D01*
X177504Y2504D01*
X178235Y1943D01*
X179086Y1590D01*
X180000Y1470D01*
X180914Y1590D01*
X181765Y1943D01*
X182496Y2504D01*
X183057Y3235D01*
X183410Y4086D01*
X183530Y5000D01*
X183410Y5914D01*
X183057Y6765D01*
X182496Y7496D01*
X182023Y7859D01*
Y9132D01*
X183007Y9617D01*
X183235Y9443D01*
X184086Y9090D01*
X184500Y9036D01*
Y12500D01*
Y15964D01*
X184086Y15910D01*
X183235Y15557D01*
X182504Y14996D01*
X181943Y14265D01*
X181590Y13414D01*
X181551Y13116D01*
X180512Y12763D01*
X176177Y17097D01*
Y23520D01*
X166303D01*
Y14827D01*
X172725D01*
X177977Y9575D01*
Y7859D01*
X177504Y7496D01*
X177161Y7050D01*
X176177Y7384D01*
Y9347D01*
X166303D01*
X166303Y9347D01*
Y9347D01*
X165532Y9829D01*
X154937Y20424D01*
Y23520D01*
X145063D01*
Y14827D01*
X154812D01*
X166069Y3569D01*
X166303Y3413D01*
Y1063D01*
X165557Y79D01*
X155686Y85D01*
X154937Y654D01*
X154937Y1070D01*
Y4500D01*
X150000D01*
X145063D01*
Y1075D01*
X144312Y91D01*
X134431Y97D01*
X133677Y654D01*
X133677Y1081D01*
Y9347D01*
X123803D01*
Y7023D01*
X60838D01*
X59523Y8338D01*
Y17500D01*
X59369Y18274D01*
X58931Y18931D01*
X57257Y20604D01*
X56601Y21042D01*
X55827Y21196D01*
X54937D01*
Y23520D01*
X45063D01*
Y14827D01*
X54937D01*
X55477Y14066D01*
Y10107D01*
X54937Y9347D01*
X54493Y9347D01*
X52325D01*
X52117Y9617D01*
X51497Y10093D01*
X50775Y10392D01*
X50500Y10428D01*
Y7500D01*
X49500D01*
Y10428D01*
X49225Y10392D01*
X48503Y10093D01*
X47883Y9617D01*
X47675Y9347D01*
X45063D01*
Y5500D01*
X50000D01*
X54937D01*
Y5993D01*
X55921Y6291D01*
X56069Y6069D01*
X58569Y3569D01*
X59226Y3131D01*
X60000Y2977D01*
X123803D01*
Y1087D01*
X123047Y103D01*
X55709Y141D01*
X54937Y654D01*
X54937Y1125D01*
Y4500D01*
X50000D01*
X45063D01*
Y1131D01*
X44289Y147D01*
X34454Y153D01*
X33677Y654D01*
X33677Y1137D01*
Y9347D01*
X24030D01*
X23408Y9831D01*
X23182Y10074D01*
X23319Y11811D01*
X23177Y13611D01*
X22977Y14445D01*
X23898Y14827D01*
X33677D01*
Y23520D01*
X33091D01*
X32653Y24498D01*
X33030Y24975D01*
X61454D01*
X61502Y24927D01*
X61502Y24927D01*
X63215Y23215D01*
X64034Y22667D01*
X65000Y22475D01*
X72475D01*
Y15000D01*
X72667Y14034D01*
X73215Y13215D01*
X75715Y10715D01*
X76534Y10167D01*
X77500Y9975D01*
X110914D01*
X111003Y9907D01*
X111725Y9608D01*
X112500Y9506D01*
X113275Y9608D01*
X113997Y9907D01*
X114617Y10383D01*
X115093Y11003D01*
X115392Y11725D01*
X115494Y12500D01*
X115392Y13275D01*
X115093Y13997D01*
X115025Y14086D01*
Y16454D01*
X122068Y23497D01*
X122977Y23120D01*
Y22913D01*
X123131Y22139D01*
X123569Y21483D01*
X123803Y21249D01*
Y14827D01*
X133677D01*
Y23520D01*
X127255D01*
X127023Y23751D01*
Y28452D01*
X129105Y30534D01*
X131069Y28569D01*
X131726Y28131D01*
X132500Y27977D01*
X134158D01*
Y26047D01*
X142063D01*
Y33953D01*
X134158D01*
Y32421D01*
X133173Y32188D01*
X132023Y33338D01*
Y33570D01*
X132333Y34034D01*
X132525Y35000D01*
Y39395D01*
X132853Y39647D01*
X133105Y39975D01*
X138547D01*
Y39158D01*
X146453D01*
Y39975D01*
X175000D01*
X175966Y40167D01*
X176785Y40715D01*
X178991Y42920D01*
X179975Y42512D01*
Y37500D01*
X180167Y36534D01*
X180715Y35715D01*
X183215Y33215D01*
X184034Y32667D01*
X185000Y32475D01*
X237500D01*
X238466Y32667D01*
X239285Y33215D01*
X241785Y35715D01*
X242333Y36534D01*
X242525Y37500D01*
Y54396D01*
X242853Y54647D01*
X243494Y55483D01*
X243897Y56456D01*
X244035Y57500D01*
X243897Y58544D01*
X243494Y59517D01*
X242853Y60353D01*
X242017Y60994D01*
X241044Y61397D01*
X240000Y61535D01*
X238956Y61397D01*
X237983Y60994D01*
X237147Y60353D01*
X236506Y59517D01*
X236103Y58544D01*
X235965Y57500D01*
X236103Y56456D01*
X236506Y55483D01*
X237147Y54647D01*
X237475Y54396D01*
Y38546D01*
X236454Y37525D01*
X209890D01*
X209482Y38509D01*
X209833Y39034D01*
X210025Y40000D01*
Y54396D01*
X210353Y54647D01*
X210994Y55483D01*
X211397Y56456D01*
X211535Y57500D01*
X211397Y58544D01*
X210994Y59517D01*
X210353Y60353D01*
X209517Y60994D01*
X208544Y61397D01*
X207500Y61535D01*
X206456Y61397D01*
X205483Y60994D01*
X204647Y60353D01*
X204006Y59517D01*
X203603Y58544D01*
X203466Y57500D01*
X203603Y56456D01*
X204006Y55483D01*
X204647Y54647D01*
X204975Y54396D01*
Y41046D01*
X201454Y37525D01*
X190396D01*
X190332Y38509D01*
X191044Y38603D01*
X192017Y39006D01*
X192853Y39647D01*
X193494Y40483D01*
X193897Y41456D01*
X193969Y42000D01*
X190000D01*
Y42500D01*
X189500D01*
Y46469D01*
X188956Y46397D01*
X187983Y45994D01*
X187147Y45353D01*
X186506Y44517D01*
X186103Y43544D01*
X186009Y42832D01*
X185025Y42896D01*
Y52104D01*
X186009Y52168D01*
X186103Y51456D01*
X186506Y50483D01*
X187147Y49647D01*
X187983Y49006D01*
X188956Y48603D01*
X190000Y48465D01*
X191044Y48603D01*
X192017Y49006D01*
X192853Y49647D01*
X193494Y50483D01*
X193897Y51456D01*
X194035Y52500D01*
X193898Y53537D01*
X203338Y62977D01*
X264162D01*
X275477Y51662D01*
Y47500D01*
X275631Y46726D01*
X276069Y46069D01*
X278412Y43727D01*
X278968Y43355D01*
X279047Y43164D01*
X279681Y42338D01*
X280507Y41705D01*
X281468Y41306D01*
X282500Y41171D01*
X283532Y41306D01*
X284493Y41705D01*
X285319Y42338D01*
X285953Y43164D01*
X286351Y44126D01*
X286487Y45158D01*
X286351Y46189D01*
X285953Y47151D01*
X285319Y47977D01*
X284493Y48610D01*
X283532Y49009D01*
X282500Y49144D01*
X281468Y49009D01*
X280507Y48610D01*
X279523Y49096D01*
Y51061D01*
X280507Y51547D01*
X281468Y51149D01*
X282500Y51013D01*
X283532Y51149D01*
X284493Y51547D01*
X285319Y52181D01*
X285953Y53007D01*
X286351Y53968D01*
X286487Y55000D01*
X286351Y56032D01*
X285953Y56993D01*
X285319Y57819D01*
X284493Y58453D01*
X283532Y58851D01*
X282500Y58987D01*
X281505Y58856D01*
X276270Y64091D01*
X276647Y65000D01*
X318898D01*
Y15848D01*
D02*
G37*
G36*
X65874Y64016D02*
X65832Y63953D01*
X59158D01*
Y56047D01*
X61264D01*
Y53953D01*
X59158D01*
Y46047D01*
X61264D01*
Y40930D01*
X60468Y40319D01*
X59835Y39493D01*
X59436Y38532D01*
X59301Y37500D01*
X59436Y36468D01*
X59835Y35507D01*
X60468Y34681D01*
X60763Y34455D01*
Y30025D01*
X33546D01*
X30025Y33546D01*
Y51454D01*
X31046Y52475D01*
X34455D01*
X34681Y52181D01*
X35507Y51547D01*
X36468Y51149D01*
X37500Y51013D01*
X38532Y51149D01*
X39493Y51547D01*
X40319Y52181D01*
X40953Y53007D01*
X41351Y53968D01*
X41487Y55000D01*
X41351Y56032D01*
X40953Y56993D01*
X40319Y57819D01*
X39493Y58453D01*
X38532Y58851D01*
X37500Y58987D01*
X36468Y58851D01*
X35507Y58453D01*
X34681Y57819D01*
X34455Y57525D01*
X30000D01*
X29034Y57333D01*
X28215Y56785D01*
X25715Y54285D01*
X25167Y53466D01*
X24975Y52500D01*
Y32500D01*
X25167Y31534D01*
X25715Y30715D01*
X29284Y27145D01*
X27310Y25171D01*
X26871Y24514D01*
X26717Y23740D01*
Y23520D01*
X23803D01*
Y15220D01*
X22819Y15104D01*
X22756Y15367D01*
X22065Y17036D01*
X21121Y18575D01*
X19948Y19948D01*
X18575Y21121D01*
X17036Y22065D01*
X15367Y22756D01*
X13611Y23177D01*
X11811Y23319D01*
X10011Y23177D01*
X8255Y22756D01*
X6587Y22065D01*
X5047Y21121D01*
X3674Y19948D01*
X2501Y18575D01*
X1557Y17036D01*
X1386Y16622D01*
X202Y16336D01*
X0Y16508D01*
Y65000D01*
X42977D01*
Y48338D01*
X41794Y47155D01*
X40664Y47212D01*
X40319Y47662D01*
X39493Y48295D01*
X38532Y48693D01*
X37500Y48829D01*
X36468Y48693D01*
X35507Y48295D01*
X34681Y47662D01*
X34047Y46836D01*
X33649Y45874D01*
X33513Y44842D01*
X33649Y43811D01*
X34047Y42849D01*
X34681Y42023D01*
X35507Y41390D01*
X36468Y40992D01*
X37500Y40856D01*
X38532Y40992D01*
X39493Y41390D01*
X40319Y42023D01*
X40930Y42819D01*
X42342D01*
X43117Y42973D01*
X43773Y43412D01*
X46431Y46069D01*
X46869Y46726D01*
X46993Y47347D01*
X47977Y47250D01*
Y38338D01*
X46662Y37023D01*
X40930D01*
X40319Y37819D01*
X39493Y38453D01*
X38532Y38851D01*
X37500Y38987D01*
X36468Y38851D01*
X35507Y38453D01*
X34681Y37819D01*
X34047Y36993D01*
X33649Y36032D01*
X33513Y35000D01*
X33649Y33968D01*
X34047Y33007D01*
X34681Y32181D01*
X35507Y31547D01*
X36468Y31149D01*
X37500Y31013D01*
X38532Y31149D01*
X39493Y31547D01*
X40319Y32181D01*
X40930Y32977D01*
X47500D01*
X48274Y33131D01*
X48931Y33569D01*
X51431Y36069D01*
X51869Y36726D01*
X52023Y37500D01*
Y65000D01*
X65348D01*
X65874Y64016D01*
D02*
G37*
G36*
X23803Y8402D02*
Y1143D01*
X23024Y159D01*
X16241Y163D01*
X16045Y1147D01*
X17036Y1557D01*
X18575Y2501D01*
X19948Y3674D01*
X21121Y5047D01*
X22065Y6587D01*
X22756Y8255D01*
X22819Y8518D01*
X23803Y8402D01*
D02*
G37*
%LPC*%
G36*
X219500Y208653D02*
X217500D01*
X216325Y208498D01*
X215231Y208045D01*
X214291Y207324D01*
X213569Y206384D01*
X213116Y205289D01*
X213027Y204614D01*
X219500D01*
Y208653D01*
D02*
G37*
G36*
Y203614D02*
X213027D01*
X213116Y202939D01*
X213569Y201845D01*
X214291Y200905D01*
X215231Y200183D01*
X216325Y199730D01*
X217500Y199575D01*
X219500D01*
Y203614D01*
D02*
G37*
G36*
X106973Y215386D02*
X100500D01*
Y211347D01*
X102500D01*
X103675Y211502D01*
X104769Y211955D01*
X105709Y212676D01*
X106431Y213616D01*
X106884Y214711D01*
X106973Y215386D01*
D02*
G37*
G36*
X99500D02*
X93027D01*
X93116Y214711D01*
X93569Y213616D01*
X94291Y212676D01*
X95231Y211955D01*
X96325Y211502D01*
X97500Y211347D01*
X99500D01*
Y215386D01*
D02*
G37*
G36*
X38681Y216911D02*
Y213681D01*
X41911D01*
X41911Y213682D01*
X41455Y214783D01*
X40729Y215729D01*
X39783Y216455D01*
X38682Y216911D01*
X38681Y216911D01*
D02*
G37*
G36*
X36319D02*
X36318Y216911D01*
X35217Y216455D01*
X34271Y215729D01*
X33545Y214783D01*
X33089Y213682D01*
X33089Y213681D01*
X36319D01*
Y216911D01*
D02*
G37*
G36*
X15500Y178921D02*
Y175500D01*
X18921D01*
X18851Y176032D01*
X18453Y176993D01*
X17819Y177819D01*
X16993Y178453D01*
X16032Y178851D01*
X15500Y178921D01*
D02*
G37*
G36*
X14500D02*
X13968Y178851D01*
X13007Y178453D01*
X12181Y177819D01*
X11547Y176993D01*
X11149Y176032D01*
X11079Y175500D01*
X14500D01*
Y178921D01*
D02*
G37*
G36*
X18921Y174500D02*
X15500D01*
Y171079D01*
X16032Y171149D01*
X16993Y171547D01*
X17819Y172181D01*
X18453Y173007D01*
X18851Y173968D01*
X18921Y174500D01*
D02*
G37*
G36*
X14500D02*
X11079D01*
X11149Y173968D01*
X11547Y173007D01*
X12181Y172181D01*
X13007Y171547D01*
X13968Y171149D01*
X14500Y171079D01*
Y174500D01*
D02*
G37*
G36*
X41911Y128819D02*
X38681D01*
Y125589D01*
X38682Y125589D01*
X39783Y126045D01*
X40729Y126771D01*
X41455Y127717D01*
X41911Y128818D01*
X41911Y128819D01*
D02*
G37*
G36*
X36319D02*
X33089D01*
X33089Y128818D01*
X33545Y127717D01*
X34271Y126771D01*
X35217Y126045D01*
X36318Y125589D01*
X36319Y125589D01*
Y128819D01*
D02*
G37*
G36*
X15500Y126421D02*
Y123000D01*
X18921D01*
X18851Y123532D01*
X18453Y124493D01*
X17819Y125319D01*
X16993Y125953D01*
X16032Y126351D01*
X15500Y126421D01*
D02*
G37*
G36*
X14500D02*
X13968Y126351D01*
X13007Y125953D01*
X12181Y125319D01*
X11547Y124493D01*
X11149Y123532D01*
X11079Y123000D01*
X14500D01*
Y126421D01*
D02*
G37*
G36*
X18921Y122000D02*
X15500D01*
Y118579D01*
X16032Y118649D01*
X16993Y119047D01*
X17819Y119681D01*
X18453Y120507D01*
X18851Y121468D01*
X18921Y122000D01*
D02*
G37*
G36*
X14500D02*
X11079D01*
X11149Y121468D01*
X11547Y120507D01*
X12181Y119681D01*
X13007Y119047D01*
X13968Y118649D01*
X14500Y118579D01*
Y122000D01*
D02*
G37*
G36*
X286911Y191319D02*
X283681D01*
Y188089D01*
X283682Y188089D01*
X284783Y188545D01*
X285729Y189271D01*
X286455Y190217D01*
X286911Y191318D01*
X286911Y191319D01*
D02*
G37*
G36*
X281319D02*
X278089D01*
X278089Y191318D01*
X278545Y190217D01*
X279271Y189271D01*
X280217Y188545D01*
X281318Y188089D01*
X281319Y188089D01*
Y191319D01*
D02*
G37*
G36*
X305500Y181421D02*
Y178000D01*
X308921D01*
X308851Y178532D01*
X308453Y179493D01*
X307819Y180319D01*
X306993Y180953D01*
X306032Y181351D01*
X305500Y181421D01*
D02*
G37*
G36*
X304500D02*
X303968Y181351D01*
X303007Y180953D01*
X302181Y180319D01*
X301547Y179493D01*
X301149Y178532D01*
X301079Y178000D01*
X304500D01*
Y181421D01*
D02*
G37*
G36*
X308921Y177000D02*
X305500D01*
Y173579D01*
X306032Y173649D01*
X306993Y174047D01*
X307819Y174681D01*
X308453Y175507D01*
X308851Y176468D01*
X308921Y177000D01*
D02*
G37*
G36*
X304500D02*
X301079D01*
X301149Y176468D01*
X301547Y175507D01*
X302181Y174681D01*
X303007Y174047D01*
X303968Y173649D01*
X304500Y173579D01*
Y177000D01*
D02*
G37*
G36*
X283681Y174411D02*
Y171181D01*
X286911D01*
X286911Y171182D01*
X286455Y172283D01*
X285729Y173229D01*
X284783Y173955D01*
X283682Y174411D01*
X283681Y174411D01*
D02*
G37*
G36*
X281319D02*
X281318Y174411D01*
X280217Y173955D01*
X279271Y173229D01*
X278545Y172283D01*
X278089Y171182D01*
X278089Y171181D01*
X281319D01*
Y174411D01*
D02*
G37*
G36*
X305500Y133921D02*
Y130500D01*
X308921D01*
X308851Y131032D01*
X308453Y131993D01*
X307819Y132819D01*
X306993Y133453D01*
X306032Y133851D01*
X305500Y133921D01*
D02*
G37*
G36*
X304500D02*
X303968Y133851D01*
X303007Y133453D01*
X302181Y132819D01*
X301547Y131993D01*
X301149Y131032D01*
X301079Y130500D01*
X304500D01*
Y133921D01*
D02*
G37*
G36*
X251000Y131921D02*
Y128500D01*
X254421D01*
X254351Y129032D01*
X253953Y129993D01*
X253319Y130819D01*
X252493Y131453D01*
X251532Y131851D01*
X251000Y131921D01*
D02*
G37*
G36*
X308921Y129500D02*
X305500D01*
Y126079D01*
X306032Y126149D01*
X306993Y126547D01*
X307819Y127181D01*
X308453Y128007D01*
X308851Y128968D01*
X308921Y129500D01*
D02*
G37*
G36*
X304500D02*
X301079D01*
X301149Y128968D01*
X301547Y128007D01*
X302181Y127181D01*
X303007Y126547D01*
X303968Y126149D01*
X304500Y126079D01*
Y129500D01*
D02*
G37*
G36*
X254421Y127500D02*
X251000D01*
Y124079D01*
X251532Y124149D01*
X252493Y124547D01*
X253319Y125181D01*
X253953Y126007D01*
X254351Y126968D01*
X254421Y127500D01*
D02*
G37*
G36*
X250000D02*
X246579D01*
X246649Y126968D01*
X247047Y126007D01*
X247681Y125181D01*
X248507Y124547D01*
X249468Y124149D01*
X250000Y124079D01*
Y127500D01*
D02*
G37*
G36*
X268000Y108921D02*
Y105500D01*
X271421D01*
X271351Y106032D01*
X270953Y106993D01*
X270319Y107819D01*
X269493Y108453D01*
X268532Y108851D01*
X268000Y108921D01*
D02*
G37*
G36*
X267000D02*
X266468Y108851D01*
X265507Y108453D01*
X264681Y107819D01*
X264047Y106993D01*
X263649Y106032D01*
X263579Y105500D01*
X267000D01*
Y108921D01*
D02*
G37*
G36*
X271421Y104500D02*
X268000D01*
Y101079D01*
X268532Y101149D01*
X269493Y101547D01*
X270319Y102181D01*
X270953Y103007D01*
X271351Y103968D01*
X271421Y104500D01*
D02*
G37*
G36*
X267000D02*
X263579D01*
X263649Y103968D01*
X264047Y103007D01*
X264681Y102181D01*
X265507Y101547D01*
X266468Y101149D01*
X267000Y101079D01*
Y104500D01*
D02*
G37*
G36*
X268000Y83921D02*
Y80500D01*
X271421D01*
X271351Y81032D01*
X270953Y81993D01*
X270319Y82819D01*
X269493Y83453D01*
X268532Y83851D01*
X268000Y83921D01*
D02*
G37*
G36*
X267000D02*
X266468Y83851D01*
X265507Y83453D01*
X264681Y82819D01*
X264047Y81993D01*
X263649Y81032D01*
X263579Y80500D01*
X267000D01*
Y83921D01*
D02*
G37*
G36*
X271421Y79500D02*
X268000D01*
Y76079D01*
X268532Y76149D01*
X269493Y76547D01*
X270319Y77181D01*
X270953Y78007D01*
X271351Y78968D01*
X271421Y79500D01*
D02*
G37*
G36*
X267000D02*
X263579D01*
X263649Y78968D01*
X264047Y78007D01*
X264681Y77181D01*
X265507Y76547D01*
X266468Y76149D01*
X267000Y76079D01*
Y79500D01*
D02*
G37*
G36*
X183059Y186850D02*
X178681D01*
Y180659D01*
X178939Y180693D01*
X180280Y181248D01*
X181431Y182132D01*
X182315Y183283D01*
X182870Y184624D01*
X183059Y186063D01*
Y186850D01*
D02*
G37*
G36*
X176319D02*
X171941D01*
Y186063D01*
X172130Y184624D01*
X172685Y183283D01*
X173569Y182132D01*
X174720Y181248D01*
X176061Y180693D01*
X176319Y180659D01*
Y186850D01*
D02*
G37*
G36*
X230842Y178953D02*
X222937D01*
Y171047D01*
X230842D01*
Y172136D01*
X231497Y172407D01*
X232117Y172883D01*
X232593Y173503D01*
X232892Y174225D01*
X232994Y175000D01*
X232892Y175775D01*
X232593Y176497D01*
X232117Y177117D01*
X231497Y177593D01*
X230842Y177864D01*
Y178953D01*
D02*
G37*
G36*
X190000Y176534D02*
X188956Y176397D01*
X187983Y175994D01*
X187147Y175353D01*
X186506Y174517D01*
X186103Y173544D01*
X185966Y172500D01*
X186103Y171456D01*
X186506Y170483D01*
X187147Y169647D01*
X187983Y169006D01*
X188956Y168603D01*
X190000Y168465D01*
X191044Y168603D01*
X192017Y169006D01*
X192853Y169647D01*
X193494Y170483D01*
X193897Y171456D01*
X194035Y172500D01*
X193897Y173544D01*
X193494Y174517D01*
X192853Y175353D01*
X192017Y175994D01*
X191044Y176397D01*
X190000Y176534D01*
D02*
G37*
G36*
X230842Y158953D02*
X222937D01*
Y151047D01*
X230842D01*
Y152136D01*
X231497Y152407D01*
X232117Y152883D01*
X232593Y153503D01*
X232892Y154225D01*
X232994Y155000D01*
X232892Y155775D01*
X232593Y156497D01*
X232117Y157117D01*
X231497Y157593D01*
X230842Y157864D01*
Y158953D01*
D02*
G37*
G36*
Y138953D02*
X222937D01*
Y131047D01*
X230842D01*
Y132136D01*
X231497Y132407D01*
X232117Y132883D01*
X232593Y133503D01*
X232892Y134225D01*
X232994Y135000D01*
X232892Y135775D01*
X232593Y136497D01*
X232117Y137117D01*
X231497Y137593D01*
X230842Y137864D01*
Y138953D01*
D02*
G37*
G36*
X220000Y107994D02*
X219225Y107892D01*
X218503Y107593D01*
X217883Y107117D01*
X217407Y106497D01*
X217108Y105775D01*
X217006Y105000D01*
X217014Y104937D01*
X216215Y103953D01*
X215437D01*
Y96047D01*
X223342D01*
Y103953D01*
X223342D01*
X222986Y104937D01*
X222994Y105000D01*
X222892Y105775D01*
X222593Y106497D01*
X222117Y107117D01*
X221497Y107593D01*
X220775Y107892D01*
X220000Y107994D01*
D02*
G37*
G36*
Y87994D02*
X219225Y87892D01*
X218503Y87593D01*
X217883Y87117D01*
X217407Y86497D01*
X217108Y85775D01*
X217006Y85000D01*
X217014Y84937D01*
X216215Y83953D01*
X215437D01*
Y76047D01*
X223342D01*
Y83953D01*
X223342D01*
X222986Y84937D01*
X222994Y85000D01*
X222892Y85775D01*
X222593Y86497D01*
X222117Y87117D01*
X221497Y87593D01*
X220775Y87892D01*
X220000Y87994D01*
D02*
G37*
G36*
X74500Y126421D02*
X73968Y126351D01*
X73007Y125953D01*
X72181Y125319D01*
X71547Y124493D01*
X71149Y123532D01*
X71079Y123000D01*
X74500D01*
Y126421D01*
D02*
G37*
G36*
X78921Y122000D02*
X75500D01*
Y118579D01*
X76032Y118649D01*
X76993Y119047D01*
X77819Y119681D01*
X78453Y120507D01*
X78851Y121468D01*
X78921Y122000D01*
D02*
G37*
G36*
X74500D02*
X71079D01*
X71149Y121468D01*
X71547Y120507D01*
X72181Y119681D01*
X73007Y119047D01*
X73968Y118649D01*
X74500Y118579D01*
Y122000D01*
D02*
G37*
G36*
X55500Y108921D02*
Y105500D01*
X58921D01*
X58851Y106032D01*
X58453Y106993D01*
X57819Y107819D01*
X56993Y108453D01*
X56032Y108851D01*
X55500Y108921D01*
D02*
G37*
G36*
X54500D02*
X53968Y108851D01*
X53007Y108453D01*
X52181Y107819D01*
X51547Y106993D01*
X51149Y106032D01*
X51079Y105500D01*
X54500D01*
Y108921D01*
D02*
G37*
G36*
X58921Y104500D02*
X55500D01*
Y101079D01*
X56032Y101149D01*
X56993Y101547D01*
X57819Y102181D01*
X58453Y103007D01*
X58851Y103968D01*
X58921Y104500D01*
D02*
G37*
G36*
X54500D02*
X51079D01*
X51149Y103968D01*
X51547Y103007D01*
X52181Y102181D01*
X53007Y101547D01*
X53968Y101149D01*
X54500Y101079D01*
Y104500D01*
D02*
G37*
G36*
X63000Y86421D02*
Y83000D01*
X66421D01*
X66351Y83532D01*
X65953Y84493D01*
X65319Y85319D01*
X64493Y85953D01*
X63532Y86351D01*
X63000Y86421D01*
D02*
G37*
G36*
X62000D02*
X61468Y86351D01*
X60507Y85953D01*
X59681Y85319D01*
X59047Y84493D01*
X58649Y83532D01*
X58579Y83000D01*
X62000D01*
Y86421D01*
D02*
G37*
G36*
X120500Y190964D02*
Y188000D01*
X123464D01*
X123410Y188414D01*
X123057Y189265D01*
X122496Y189996D01*
X121765Y190557D01*
X120914Y190910D01*
X120500Y190964D01*
D02*
G37*
G36*
X119500D02*
X119086Y190910D01*
X118235Y190557D01*
X117504Y189996D01*
X116943Y189265D01*
X116590Y188414D01*
X116536Y188000D01*
X119500D01*
Y190964D01*
D02*
G37*
G36*
X123464Y187000D02*
X120500D01*
Y184036D01*
X120914Y184090D01*
X121765Y184443D01*
X122496Y185004D01*
X123057Y185735D01*
X123410Y186586D01*
X123464Y187000D01*
D02*
G37*
G36*
X119500D02*
X116536D01*
X116590Y186586D01*
X116943Y185735D01*
X117504Y185004D01*
X118235Y184443D01*
X119086Y184090D01*
X119500Y184036D01*
Y187000D01*
D02*
G37*
G36*
X90000Y187994D02*
X89225Y187892D01*
X88503Y187593D01*
X87883Y187117D01*
X87407Y186497D01*
X87108Y185775D01*
X87006Y185000D01*
X87108Y184225D01*
X87407Y183503D01*
X87883Y182883D01*
X88503Y182407D01*
X89157Y182136D01*
Y178547D01*
X97063D01*
Y186453D01*
X92611D01*
X92593Y186497D01*
X92117Y187117D01*
X91497Y187593D01*
X90775Y187892D01*
X90000Y187994D01*
D02*
G37*
G36*
X140500Y175964D02*
Y173000D01*
X143464D01*
X143410Y173414D01*
X143057Y174265D01*
X142496Y174996D01*
X141765Y175557D01*
X140914Y175910D01*
X140500Y175964D01*
D02*
G37*
G36*
X139500D02*
X139086Y175910D01*
X138235Y175557D01*
X137504Y174996D01*
X136943Y174265D01*
X136590Y173414D01*
X136536Y173000D01*
X139500D01*
Y175964D01*
D02*
G37*
G36*
X143464Y172000D02*
X140500D01*
Y169036D01*
X140914Y169090D01*
X141765Y169443D01*
X142496Y170004D01*
X143057Y170735D01*
X143410Y171586D01*
X143464Y172000D01*
D02*
G37*
G36*
X139500D02*
X136536D01*
X136590Y171586D01*
X136943Y170735D01*
X137504Y170004D01*
X138235Y169443D01*
X139086Y169090D01*
X139500Y169036D01*
Y172000D01*
D02*
G37*
G36*
X130000Y176534D02*
X128956Y176397D01*
X127983Y175994D01*
X127147Y175353D01*
X126506Y174517D01*
X126103Y173544D01*
X125965Y172500D01*
X126103Y171456D01*
X126506Y170483D01*
X127147Y169647D01*
X127983Y169006D01*
X128956Y168603D01*
X130000Y168465D01*
X131044Y168603D01*
X132017Y169006D01*
X132853Y169647D01*
X133494Y170483D01*
X133897Y171456D01*
X134035Y172500D01*
X133897Y173544D01*
X133494Y174517D01*
X132853Y175353D01*
X132017Y175994D01*
X131044Y176397D01*
X130000Y176534D01*
D02*
G37*
G36*
X140500Y165964D02*
Y163000D01*
X143464D01*
X143410Y163414D01*
X143057Y164265D01*
X142496Y164996D01*
X141765Y165557D01*
X140914Y165910D01*
X140500Y165964D01*
D02*
G37*
G36*
X139500D02*
X139086Y165910D01*
X138235Y165557D01*
X137504Y164996D01*
X136943Y164265D01*
X136590Y163414D01*
X136536Y163000D01*
X139500D01*
Y165964D01*
D02*
G37*
G36*
X97063Y168953D02*
X89157D01*
Y167864D01*
X88503Y167593D01*
X87883Y167117D01*
X87407Y166497D01*
X87108Y165775D01*
X87006Y165000D01*
X87108Y164225D01*
X87407Y163503D01*
X87883Y162883D01*
X88503Y162407D01*
X89157Y162136D01*
Y161047D01*
X97063D01*
Y168953D01*
D02*
G37*
G36*
X143464Y162000D02*
X140500D01*
Y159036D01*
X140914Y159090D01*
X141765Y159443D01*
X142496Y160004D01*
X143057Y160735D01*
X143410Y161586D01*
X143464Y162000D01*
D02*
G37*
G36*
X139500D02*
X136536D01*
X136590Y161586D01*
X136943Y160735D01*
X137504Y160004D01*
X138235Y159443D01*
X139086Y159090D01*
X139500Y159036D01*
Y162000D01*
D02*
G37*
G36*
X160000Y166534D02*
X158956Y166397D01*
X157983Y165994D01*
X157147Y165353D01*
X156506Y164517D01*
X156103Y163544D01*
X155965Y162500D01*
X156103Y161456D01*
X156506Y160483D01*
X157147Y159647D01*
X157983Y159006D01*
X158956Y158603D01*
X160000Y158466D01*
X161044Y158603D01*
X162017Y159006D01*
X162853Y159647D01*
X163494Y160483D01*
X163897Y161456D01*
X164034Y162500D01*
X163897Y163544D01*
X163494Y164517D01*
X162853Y165353D01*
X162017Y165994D01*
X161044Y166397D01*
X160000Y166534D01*
D02*
G37*
G36*
X150000D02*
X148956Y166397D01*
X147983Y165994D01*
X147147Y165353D01*
X146506Y164517D01*
X146103Y163544D01*
X145966Y162500D01*
X146103Y161456D01*
X146506Y160483D01*
X147147Y159647D01*
X147983Y159006D01*
X148956Y158603D01*
X150000Y158466D01*
X151044Y158603D01*
X152017Y159006D01*
X152853Y159647D01*
X153494Y160483D01*
X153897Y161456D01*
X154034Y162500D01*
X153897Y163544D01*
X153494Y164517D01*
X152853Y165353D01*
X152017Y165994D01*
X151044Y166397D01*
X150000Y166534D01*
D02*
G37*
G36*
X130000D02*
X128956Y166397D01*
X127983Y165994D01*
X127147Y165353D01*
X126506Y164517D01*
X126103Y163544D01*
X125965Y162500D01*
X126103Y161456D01*
X126506Y160483D01*
X127147Y159647D01*
X127983Y159006D01*
X128956Y158603D01*
X130000Y158466D01*
X131044Y158603D01*
X132017Y159006D01*
X132853Y159647D01*
X133494Y160483D01*
X133897Y161456D01*
X134035Y162500D01*
X133897Y163544D01*
X133494Y164517D01*
X132853Y165353D01*
X132017Y165994D01*
X131044Y166397D01*
X130000Y166534D01*
D02*
G37*
G36*
X160000Y156535D02*
X158956Y156397D01*
X157983Y155994D01*
X157147Y155353D01*
X156506Y154517D01*
X156103Y153544D01*
X155965Y152500D01*
X156103Y151456D01*
X156506Y150483D01*
X157147Y149647D01*
X157983Y149006D01*
X158956Y148603D01*
X160000Y148466D01*
X161044Y148603D01*
X162017Y149006D01*
X162853Y149647D01*
X163494Y150483D01*
X163897Y151456D01*
X164034Y152500D01*
X163897Y153544D01*
X163494Y154517D01*
X162853Y155353D01*
X162017Y155994D01*
X161044Y156397D01*
X160000Y156535D01*
D02*
G37*
G36*
X150000D02*
X148956Y156397D01*
X147983Y155994D01*
X147147Y155353D01*
X146506Y154517D01*
X146103Y153544D01*
X145966Y152500D01*
X146103Y151456D01*
X146506Y150483D01*
X147147Y149647D01*
X147983Y149006D01*
X148956Y148603D01*
X150000Y148466D01*
X151044Y148603D01*
X152017Y149006D01*
X152853Y149647D01*
X153494Y150483D01*
X153897Y151456D01*
X154034Y152500D01*
X153897Y153544D01*
X153494Y154517D01*
X152853Y155353D01*
X152017Y155994D01*
X151044Y156397D01*
X150000Y156535D01*
D02*
G37*
G36*
X130000D02*
X128956Y156397D01*
X127983Y155994D01*
X127147Y155353D01*
X126506Y154517D01*
X126103Y153544D01*
X125965Y152500D01*
X126103Y151456D01*
X126506Y150483D01*
X127147Y149647D01*
X127983Y149006D01*
X128956Y148603D01*
X130000Y148466D01*
X131044Y148603D01*
X132017Y149006D01*
X132853Y149647D01*
X133494Y150483D01*
X133897Y151456D01*
X134035Y152500D01*
X133897Y153544D01*
X133494Y154517D01*
X132853Y155353D01*
X132017Y155994D01*
X131044Y156397D01*
X130000Y156535D01*
D02*
G37*
G36*
X97063Y148953D02*
X89157D01*
Y147864D01*
X88503Y147593D01*
X87883Y147117D01*
X87407Y146497D01*
X87108Y145775D01*
X87006Y145000D01*
X87108Y144225D01*
X87407Y143503D01*
X87883Y142883D01*
X88503Y142407D01*
X89157Y142136D01*
Y141047D01*
X97063D01*
Y148953D01*
D02*
G37*
G36*
X160000Y146535D02*
X158956Y146397D01*
X157983Y145994D01*
X157147Y145353D01*
X156506Y144517D01*
X156103Y143544D01*
X155965Y142500D01*
X156103Y141456D01*
X156506Y140483D01*
X157147Y139647D01*
X157983Y139006D01*
X158956Y138603D01*
X160000Y138465D01*
X161044Y138603D01*
X162017Y139006D01*
X162853Y139647D01*
X163494Y140483D01*
X163897Y141456D01*
X164034Y142500D01*
X163897Y143544D01*
X163494Y144517D01*
X162853Y145353D01*
X162017Y145994D01*
X161044Y146397D01*
X160000Y146535D01*
D02*
G37*
G36*
X150000D02*
X148956Y146397D01*
X147983Y145994D01*
X147147Y145353D01*
X146506Y144517D01*
X146103Y143544D01*
X145966Y142500D01*
X146103Y141456D01*
X146506Y140483D01*
X147147Y139647D01*
X147983Y139006D01*
X148956Y138603D01*
X150000Y138465D01*
X151044Y138603D01*
X152017Y139006D01*
X152853Y139647D01*
X153494Y140483D01*
X153897Y141456D01*
X154034Y142500D01*
X153897Y143544D01*
X153494Y144517D01*
X152853Y145353D01*
X152017Y145994D01*
X151044Y146397D01*
X150000Y146535D01*
D02*
G37*
G36*
X130000D02*
X128956Y146397D01*
X127983Y145994D01*
X127147Y145353D01*
X126506Y144517D01*
X126103Y143544D01*
X125965Y142500D01*
X126103Y141456D01*
X126506Y140483D01*
X127147Y139647D01*
X127983Y139006D01*
X128956Y138603D01*
X130000Y138465D01*
X131044Y138603D01*
X132017Y139006D01*
X132853Y139647D01*
X133494Y140483D01*
X133897Y141456D01*
X134035Y142500D01*
X133897Y143544D01*
X133494Y144517D01*
X132853Y145353D01*
X132017Y145994D01*
X131044Y146397D01*
X130000Y146535D01*
D02*
G37*
G36*
X160000Y136535D02*
X158956Y136397D01*
X157983Y135994D01*
X157147Y135353D01*
X156506Y134517D01*
X156103Y133544D01*
X155965Y132500D01*
X156103Y131456D01*
X156506Y130483D01*
X157147Y129647D01*
X157983Y129006D01*
X158956Y128603D01*
X160000Y128465D01*
X161044Y128603D01*
X162017Y129006D01*
X162853Y129647D01*
X163494Y130483D01*
X163897Y131456D01*
X164034Y132500D01*
X163897Y133544D01*
X163494Y134517D01*
X162853Y135353D01*
X162017Y135994D01*
X161044Y136397D01*
X160000Y136535D01*
D02*
G37*
G36*
X150000D02*
X148956Y136397D01*
X147983Y135994D01*
X147147Y135353D01*
X146506Y134517D01*
X146103Y133544D01*
X145966Y132500D01*
X146103Y131456D01*
X146506Y130483D01*
X147147Y129647D01*
X147983Y129006D01*
X148956Y128603D01*
X150000Y128465D01*
X151044Y128603D01*
X152017Y129006D01*
X152853Y129647D01*
X153494Y130483D01*
X153897Y131456D01*
X154034Y132500D01*
X153897Y133544D01*
X153494Y134517D01*
X152853Y135353D01*
X152017Y135994D01*
X151044Y136397D01*
X150000Y136535D01*
D02*
G37*
G36*
X110843Y186453D02*
X102937D01*
Y178547D01*
X110477D01*
Y168953D01*
X102937D01*
Y161047D01*
X107981D01*
X110477Y158552D01*
Y148953D01*
X102937D01*
Y141047D01*
X104867D01*
Y115610D01*
X105021Y114836D01*
X105459Y114180D01*
X108569Y111069D01*
X109226Y110631D01*
X110000Y110477D01*
X126511D01*
X127147Y109647D01*
X127983Y109006D01*
X128956Y108603D01*
X130000Y108466D01*
X131044Y108603D01*
X132017Y109006D01*
X132853Y109647D01*
X133494Y110483D01*
X133897Y111456D01*
X134035Y112500D01*
X133897Y113544D01*
X133494Y114517D01*
X132853Y115353D01*
X132017Y115994D01*
X131044Y116397D01*
X130000Y116534D01*
X128956Y116397D01*
X127983Y115994D01*
X127147Y115353D01*
X126511Y114523D01*
X110838D01*
X108913Y116448D01*
Y141047D01*
X110477D01*
Y125000D01*
X110631Y124226D01*
X111069Y123569D01*
X113569Y121069D01*
X114226Y120631D01*
X115000Y120477D01*
X126511D01*
X127147Y119647D01*
X127983Y119006D01*
X128956Y118603D01*
X130000Y118465D01*
X131044Y118603D01*
X132017Y119006D01*
X132853Y119647D01*
X133494Y120483D01*
X133897Y121456D01*
X134035Y122500D01*
X133897Y123544D01*
X133494Y124517D01*
X132853Y125353D01*
X132017Y125994D01*
X131044Y126397D01*
X130000Y126534D01*
X128956Y126397D01*
X127983Y125994D01*
X127147Y125353D01*
X126511Y124523D01*
X115838D01*
X114523Y125838D01*
Y134750D01*
X115507Y134847D01*
X115631Y134226D01*
X116069Y133569D01*
X118569Y131069D01*
X119226Y130631D01*
X120000Y130477D01*
X126511D01*
X127147Y129647D01*
X127983Y129006D01*
X128956Y128603D01*
X130000Y128465D01*
X131044Y128603D01*
X132017Y129006D01*
X132853Y129647D01*
X133494Y130483D01*
X133897Y131456D01*
X134035Y132500D01*
X133897Y133544D01*
X133494Y134517D01*
X132853Y135353D01*
X132017Y135994D01*
X131044Y136397D01*
X130000Y136535D01*
X128956Y136397D01*
X127983Y135994D01*
X127147Y135353D01*
X126511Y134523D01*
X120838D01*
X119523Y135838D01*
Y162500D01*
X119369Y163274D01*
X118931Y163931D01*
X114523Y168338D01*
Y180500D01*
X114369Y181274D01*
X113931Y181931D01*
X111931Y183931D01*
X111274Y184369D01*
X110843Y184455D01*
Y186453D01*
D02*
G37*
G36*
X160000Y126534D02*
X158956Y126397D01*
X157983Y125994D01*
X157147Y125353D01*
X156506Y124517D01*
X156103Y123544D01*
X155965Y122500D01*
X156103Y121456D01*
X156506Y120483D01*
X157147Y119647D01*
X157983Y119006D01*
X158956Y118603D01*
X160000Y118465D01*
X161044Y118603D01*
X162017Y119006D01*
X162853Y119647D01*
X163494Y120483D01*
X163897Y121456D01*
X164034Y122500D01*
X163897Y123544D01*
X163494Y124517D01*
X162853Y125353D01*
X162017Y125994D01*
X161044Y126397D01*
X160000Y126534D01*
D02*
G37*
G36*
X150000D02*
X148956Y126397D01*
X147983Y125994D01*
X147147Y125353D01*
X146506Y124517D01*
X146103Y123544D01*
X145966Y122500D01*
X146103Y121456D01*
X146506Y120483D01*
X147147Y119647D01*
X147983Y119006D01*
X148956Y118603D01*
X150000Y118465D01*
X151044Y118603D01*
X152017Y119006D01*
X152853Y119647D01*
X153494Y120483D01*
X153897Y121456D01*
X154034Y122500D01*
X153897Y123544D01*
X153494Y124517D01*
X152853Y125353D01*
X152017Y125994D01*
X151044Y126397D01*
X150000Y126534D01*
D02*
G37*
G36*
X160500Y116469D02*
Y113000D01*
X163969D01*
X163897Y113544D01*
X163494Y114517D01*
X162853Y115353D01*
X162017Y115994D01*
X161044Y116397D01*
X160500Y116469D01*
D02*
G37*
G36*
X159500D02*
X158956Y116397D01*
X157983Y115994D01*
X157147Y115353D01*
X156506Y114517D01*
X156103Y113544D01*
X156031Y113000D01*
X159500D01*
Y116469D01*
D02*
G37*
G36*
X163969Y112000D02*
X160500D01*
Y108531D01*
X161044Y108603D01*
X162017Y109006D01*
X162853Y109647D01*
X163494Y110483D01*
X163897Y111456D01*
X163969Y112000D01*
D02*
G37*
G36*
X159500D02*
X156031D01*
X156103Y111456D01*
X156506Y110483D01*
X157147Y109647D01*
X157983Y109006D01*
X158956Y108603D01*
X159500Y108531D01*
Y112000D01*
D02*
G37*
G36*
X150000Y116534D02*
X148956Y116397D01*
X147983Y115994D01*
X147147Y115353D01*
X146506Y114517D01*
X146103Y113544D01*
X145966Y112500D01*
X146103Y111456D01*
X146506Y110483D01*
X147147Y109647D01*
X147983Y109006D01*
X148956Y108603D01*
X150000Y108466D01*
X151044Y108603D01*
X152017Y109006D01*
X152853Y109647D01*
X153494Y110483D01*
X153897Y111456D01*
X154034Y112500D01*
X153897Y113544D01*
X153494Y114517D01*
X152853Y115353D01*
X152017Y115994D01*
X151044Y116397D01*
X150000Y116534D01*
D02*
G37*
G36*
X130000Y106535D02*
X128956Y106397D01*
X127983Y105994D01*
X127147Y105353D01*
X126511Y104523D01*
X118342D01*
Y106453D01*
X110437D01*
Y98547D01*
X118342D01*
Y100477D01*
X126511D01*
X127147Y99647D01*
X127983Y99006D01*
X128956Y98603D01*
X130000Y98466D01*
X131044Y98603D01*
X132017Y99006D01*
X132853Y99647D01*
X133494Y100483D01*
X133897Y101456D01*
X134035Y102500D01*
X133897Y103544D01*
X133494Y104517D01*
X132853Y105353D01*
X132017Y105994D01*
X131044Y106397D01*
X130000Y106535D01*
D02*
G37*
G36*
X104563Y106453D02*
X96658D01*
Y98547D01*
X104563D01*
Y99123D01*
X105000Y99506D01*
X105775Y99608D01*
X106497Y99907D01*
X107117Y100383D01*
X107593Y101003D01*
X107892Y101725D01*
X107994Y102500D01*
X107892Y103275D01*
X107593Y103997D01*
X107117Y104617D01*
X106497Y105093D01*
X105775Y105392D01*
X105000Y105494D01*
X104563Y105877D01*
Y106453D01*
D02*
G37*
G36*
X160000Y106535D02*
X158956Y106397D01*
X157983Y105994D01*
X157147Y105353D01*
X156506Y104517D01*
X156103Y103544D01*
X155965Y102500D01*
X156103Y101456D01*
X156506Y100483D01*
X157147Y99647D01*
X157983Y99006D01*
X158956Y98603D01*
X160000Y98466D01*
X161044Y98603D01*
X162017Y99006D01*
X162853Y99647D01*
X163494Y100483D01*
X163897Y101456D01*
X164034Y102500D01*
X163897Y103544D01*
X163494Y104517D01*
X162853Y105353D01*
X162017Y105994D01*
X161044Y106397D01*
X160000Y106535D01*
D02*
G37*
G36*
X150000D02*
X148956Y106397D01*
X147983Y105994D01*
X147147Y105353D01*
X146506Y104517D01*
X146103Y103544D01*
X145966Y102500D01*
X146103Y101456D01*
X146506Y100483D01*
X147147Y99647D01*
X147983Y99006D01*
X148956Y98603D01*
X150000Y98466D01*
X151044Y98603D01*
X152017Y99006D01*
X152853Y99647D01*
X153494Y100483D01*
X153897Y101456D01*
X154034Y102500D01*
X153897Y103544D01*
X153494Y104517D01*
X152853Y105353D01*
X152017Y105994D01*
X151044Y106397D01*
X150000Y106535D01*
D02*
G37*
G36*
X130000Y96535D02*
X128956Y96397D01*
X127983Y95994D01*
X127147Y95353D01*
X126511Y94523D01*
X117500D01*
X116726Y94369D01*
X116069Y93931D01*
X112959Y90820D01*
X112521Y90164D01*
X112367Y89390D01*
Y86453D01*
X110437D01*
Y78547D01*
X118342D01*
Y86453D01*
X116413D01*
Y88552D01*
X118338Y90477D01*
X126511D01*
X127147Y89647D01*
X127983Y89006D01*
X128956Y88603D01*
X130000Y88465D01*
X131044Y88603D01*
X132017Y89006D01*
X132853Y89647D01*
X133494Y90483D01*
X133897Y91456D01*
X134035Y92500D01*
X133897Y93544D01*
X133494Y94517D01*
X132853Y95353D01*
X132017Y95994D01*
X131044Y96397D01*
X130000Y96535D01*
D02*
G37*
G36*
X145500Y83464D02*
Y80500D01*
X148464D01*
X148410Y80914D01*
X148057Y81765D01*
X147496Y82496D01*
X146765Y83057D01*
X145914Y83410D01*
X145500Y83464D01*
D02*
G37*
G36*
X144500D02*
X144086Y83410D01*
X143235Y83057D01*
X142504Y82496D01*
X141943Y81765D01*
X141590Y80914D01*
X141536Y80500D01*
X144500D01*
Y83464D01*
D02*
G37*
G36*
X104563Y86453D02*
X96658D01*
Y78547D01*
X104563D01*
Y79123D01*
X105000Y79506D01*
X105775Y79608D01*
X106497Y79907D01*
X107117Y80383D01*
X107593Y81003D01*
X107892Y81725D01*
X107994Y82500D01*
X107892Y83275D01*
X107593Y83997D01*
X107117Y84617D01*
X106497Y85093D01*
X105775Y85392D01*
X105000Y85494D01*
X104563Y85877D01*
Y86453D01*
D02*
G37*
G36*
X148464Y79500D02*
X145500D01*
Y76536D01*
X145914Y76590D01*
X146765Y76943D01*
X147496Y77504D01*
X148057Y78235D01*
X148410Y79086D01*
X148464Y79500D01*
D02*
G37*
G36*
X144500D02*
X141536D01*
X141590Y79086D01*
X141943Y78235D01*
X142504Y77504D01*
X143235Y76943D01*
X144086Y76590D01*
X144500Y76536D01*
Y79500D01*
D02*
G37*
G36*
X146453Y60843D02*
X143000D01*
Y57390D01*
X146453D01*
Y60843D01*
D02*
G37*
G36*
X142000D02*
X138547D01*
Y57390D01*
X142000D01*
Y60843D01*
D02*
G37*
G36*
X130500Y56469D02*
Y53000D01*
X133969D01*
X133897Y53544D01*
X133494Y54517D01*
X132853Y55353D01*
X132017Y55994D01*
X131044Y56397D01*
X130500Y56469D01*
D02*
G37*
G36*
X129500D02*
X128956Y56397D01*
X127983Y55994D01*
X127147Y55353D01*
X126506Y54517D01*
X126103Y53544D01*
X126031Y53000D01*
X129500D01*
Y56469D01*
D02*
G37*
G36*
X146453Y56390D02*
X143000D01*
Y52937D01*
X146453D01*
Y56390D01*
D02*
G37*
G36*
X142000D02*
X138547D01*
Y52937D01*
X142000D01*
Y56390D01*
D02*
G37*
G36*
X133969Y52000D02*
X130500D01*
Y48531D01*
X131044Y48603D01*
X132017Y49006D01*
X132853Y49647D01*
X133494Y50483D01*
X133897Y51456D01*
X133969Y52000D01*
D02*
G37*
G36*
X129500D02*
X126031D01*
X126103Y51456D01*
X126506Y50483D01*
X127147Y49647D01*
X127983Y49006D01*
X128956Y48603D01*
X129500Y48531D01*
Y52000D01*
D02*
G37*
G36*
X113000Y41421D02*
Y38000D01*
X116421D01*
X116351Y38532D01*
X115953Y39493D01*
X115319Y40319D01*
X114493Y40953D01*
X113532Y41351D01*
X113000Y41421D01*
D02*
G37*
G36*
X112000D02*
X111468Y41351D01*
X110507Y40953D01*
X109681Y40319D01*
X109047Y39493D01*
X108649Y38532D01*
X108579Y38000D01*
X112000D01*
Y41421D01*
D02*
G37*
G36*
X116421Y37000D02*
X113000D01*
Y33579D01*
X113532Y33649D01*
X114493Y34047D01*
X115319Y34681D01*
X115953Y35507D01*
X116351Y36468D01*
X116421Y37000D01*
D02*
G37*
G36*
X112000D02*
X108579D01*
X108649Y36468D01*
X109047Y35507D01*
X109681Y34681D01*
X110507Y34047D01*
X111468Y33649D01*
X112000Y33579D01*
Y37000D01*
D02*
G37*
G36*
X260500Y61469D02*
Y58000D01*
X263969D01*
X263897Y58544D01*
X263494Y59517D01*
X262853Y60353D01*
X262017Y60994D01*
X261044Y61397D01*
X260500Y61469D01*
D02*
G37*
G36*
X259500D02*
X258956Y61397D01*
X257983Y60994D01*
X257147Y60353D01*
X256506Y59517D01*
X256103Y58544D01*
X256031Y58000D01*
X259500D01*
Y61469D01*
D02*
G37*
G36*
X228000D02*
Y58000D01*
X231469D01*
X231397Y58544D01*
X230994Y59517D01*
X230353Y60353D01*
X229517Y60994D01*
X228544Y61397D01*
X228000Y61469D01*
D02*
G37*
G36*
X227000D02*
X226456Y61397D01*
X225483Y60994D01*
X224647Y60353D01*
X224006Y59517D01*
X223603Y58544D01*
X223531Y58000D01*
X227000D01*
Y61469D01*
D02*
G37*
G36*
X263969Y57000D02*
X260500D01*
Y53531D01*
X261044Y53603D01*
X262017Y54006D01*
X262853Y54647D01*
X263494Y55483D01*
X263897Y56456D01*
X263969Y57000D01*
D02*
G37*
G36*
X259500D02*
X256031D01*
X256103Y56456D01*
X256506Y55483D01*
X257147Y54647D01*
X257983Y54006D01*
X258956Y53603D01*
X259500Y53531D01*
Y57000D01*
D02*
G37*
G36*
X231469D02*
X228000D01*
Y53531D01*
X228544Y53603D01*
X229517Y54006D01*
X230353Y54647D01*
X230994Y55483D01*
X231397Y56456D01*
X231469Y57000D01*
D02*
G37*
G36*
X227000D02*
X223531D01*
X223603Y56456D01*
X224006Y55483D01*
X224647Y54647D01*
X225483Y54006D01*
X226456Y53603D01*
X227000Y53531D01*
Y57000D01*
D02*
G37*
G36*
X250000Y61535D02*
X248956Y61397D01*
X247983Y60994D01*
X247147Y60353D01*
X246506Y59517D01*
X246103Y58544D01*
X245966Y57500D01*
X246103Y56456D01*
X246506Y55483D01*
X247147Y54647D01*
X247983Y54006D01*
X248956Y53603D01*
X250000Y53465D01*
X251044Y53603D01*
X252017Y54006D01*
X252853Y54647D01*
X253494Y55483D01*
X253897Y56456D01*
X254034Y57500D01*
X253897Y58544D01*
X253494Y59517D01*
X252853Y60353D01*
X252017Y60994D01*
X251044Y61397D01*
X250000Y61535D01*
D02*
G37*
G36*
X217500D02*
X216456Y61397D01*
X215483Y60994D01*
X214647Y60353D01*
X214006Y59517D01*
X213603Y58544D01*
X213465Y57500D01*
X213603Y56456D01*
X214006Y55483D01*
X214647Y54647D01*
X215483Y54006D01*
X216456Y53603D01*
X217500Y53465D01*
X218544Y53603D01*
X219517Y54006D01*
X220353Y54647D01*
X220994Y55483D01*
X221397Y56456D01*
X221534Y57500D01*
X221397Y58544D01*
X220994Y59517D01*
X220353Y60353D01*
X219517Y60994D01*
X218544Y61397D01*
X217500Y61535D01*
D02*
G37*
G36*
X190500Y46469D02*
Y43000D01*
X193969D01*
X193897Y43544D01*
X193494Y44517D01*
X192853Y45353D01*
X192017Y45994D01*
X191044Y46397D01*
X190500Y46469D01*
D02*
G37*
G36*
X167063Y33953D02*
X159158D01*
Y32023D01*
X155842D01*
Y33953D01*
X147937D01*
Y26047D01*
X155842D01*
Y27977D01*
X159158D01*
Y26047D01*
X167063D01*
Y33953D01*
D02*
G37*
G36*
X282500Y38987D02*
X281468Y38851D01*
X280507Y38453D01*
X279681Y37819D01*
X279047Y36993D01*
X278649Y36032D01*
X278513Y35000D01*
X278649Y33968D01*
X279047Y33007D01*
X279681Y32181D01*
X280507Y31547D01*
X281468Y31149D01*
X282500Y31013D01*
X283532Y31149D01*
X284493Y31547D01*
X285319Y32181D01*
X285953Y33007D01*
X286351Y33968D01*
X286487Y35000D01*
X286351Y36032D01*
X285953Y36993D01*
X285319Y37819D01*
X284493Y38453D01*
X283532Y38851D01*
X282500Y38987D01*
D02*
G37*
G36*
X180842Y33953D02*
X177390D01*
Y30500D01*
X180842D01*
Y33953D01*
D02*
G37*
G36*
X176390D02*
X172937D01*
Y30500D01*
X176390D01*
Y33953D01*
D02*
G37*
G36*
X313000Y30964D02*
Y28000D01*
X315964D01*
X315910Y28414D01*
X315557Y29265D01*
X314996Y29996D01*
X314265Y30557D01*
X313414Y30910D01*
X313000Y30964D01*
D02*
G37*
G36*
X312000D02*
X311586Y30910D01*
X310735Y30557D01*
X310004Y29996D01*
X309443Y29265D01*
X309090Y28414D01*
X309036Y28000D01*
X312000D01*
Y30964D01*
D02*
G37*
G36*
X180842Y29500D02*
X177390D01*
Y26047D01*
X180842D01*
Y29500D01*
D02*
G37*
G36*
X176390D02*
X172937D01*
Y26047D01*
X176390D01*
Y29500D01*
D02*
G37*
G36*
X315964Y27000D02*
X313000D01*
Y24036D01*
X313414Y24090D01*
X314265Y24443D01*
X314996Y25004D01*
X315557Y25735D01*
X315910Y26586D01*
X315964Y27000D01*
D02*
G37*
G36*
X312000D02*
X309036D01*
X309090Y26586D01*
X309443Y25735D01*
X310004Y25004D01*
X310735Y24443D01*
X311586Y24090D01*
X312000Y24036D01*
Y27000D01*
D02*
G37*
G36*
X294937Y23520D02*
X285063D01*
Y21186D01*
X284684Y20887D01*
X284079Y20634D01*
X283414Y20910D01*
X282500Y21030D01*
X281764Y20933D01*
X281601Y21042D01*
X280827Y21196D01*
X273677D01*
Y23520D01*
X263803D01*
Y14827D01*
X273677D01*
Y17150D01*
X279016D01*
X279090Y16586D01*
X279443Y15735D01*
X280004Y15004D01*
X280735Y14443D01*
X281586Y14090D01*
X282500Y13970D01*
X283414Y14090D01*
X284265Y14443D01*
X285063Y14827D01*
X294937D01*
Y23520D01*
D02*
G37*
G36*
X220500Y18964D02*
Y16000D01*
X223464D01*
X223410Y16414D01*
X223057Y17265D01*
X222496Y17996D01*
X221765Y18557D01*
X220914Y18910D01*
X220500Y18964D01*
D02*
G37*
G36*
X219500D02*
X219086Y18910D01*
X218235Y18557D01*
X217504Y17996D01*
X216943Y17265D01*
X216590Y16414D01*
X216536Y16000D01*
X219500D01*
Y18964D01*
D02*
G37*
G36*
X250500Y18464D02*
Y15500D01*
X253464D01*
X253410Y15914D01*
X253057Y16765D01*
X252496Y17496D01*
X251765Y18057D01*
X250914Y18410D01*
X250500Y18464D01*
D02*
G37*
G36*
X249500D02*
X249086Y18410D01*
X248235Y18057D01*
X247504Y17496D01*
X246943Y16765D01*
X246590Y15914D01*
X246536Y15500D01*
X249500D01*
Y18464D01*
D02*
G37*
G36*
X138000Y15964D02*
Y13000D01*
X140964D01*
X140910Y13414D01*
X140557Y14265D01*
X139996Y14996D01*
X139265Y15557D01*
X138414Y15910D01*
X138000Y15964D01*
D02*
G37*
G36*
X137000D02*
X136586Y15910D01*
X135735Y15557D01*
X135004Y14996D01*
X134443Y14265D01*
X134090Y13414D01*
X134036Y13000D01*
X137000D01*
Y15964D01*
D02*
G37*
G36*
X223464Y15000D02*
X220500D01*
Y12036D01*
X220914Y12090D01*
X221765Y12443D01*
X222496Y13004D01*
X223057Y13735D01*
X223410Y14586D01*
X223464Y15000D01*
D02*
G37*
G36*
X219500D02*
X216536D01*
X216590Y14586D01*
X216943Y13735D01*
X217504Y13004D01*
X218235Y12443D01*
X219086Y12090D01*
X219500Y12036D01*
Y15000D01*
D02*
G37*
G36*
X253464Y14500D02*
X250500D01*
Y11536D01*
X250914Y11590D01*
X251765Y11943D01*
X252496Y12504D01*
X253057Y13235D01*
X253410Y14086D01*
X253464Y14500D01*
D02*
G37*
G36*
X249500D02*
X246536D01*
X246590Y14086D01*
X246943Y13235D01*
X247504Y12504D01*
X248235Y11943D01*
X249086Y11590D01*
X249500Y11536D01*
Y14500D01*
D02*
G37*
G36*
X140964Y12000D02*
X138000D01*
Y9036D01*
X138414Y9090D01*
X139265Y9443D01*
X139996Y10004D01*
X140557Y10735D01*
X140910Y11586D01*
X140964Y12000D01*
D02*
G37*
G36*
X137000D02*
X134036D01*
X134090Y11586D01*
X134443Y10735D01*
X135004Y10004D01*
X135735Y9443D01*
X136586Y9090D01*
X137000Y9036D01*
Y12000D01*
D02*
G37*
G36*
X154937Y9347D02*
X150500D01*
Y5500D01*
X154937D01*
Y9347D01*
D02*
G37*
G36*
X188464Y12000D02*
X185500D01*
Y9036D01*
X185914Y9090D01*
X186588Y9369D01*
X187175Y9120D01*
X187563Y8814D01*
Y5500D01*
X192000D01*
Y9347D01*
X188176D01*
X187747Y10331D01*
X188057Y10735D01*
X188410Y11586D01*
X188464Y12000D01*
D02*
G37*
G36*
X289500Y9347D02*
X285063D01*
Y5500D01*
X289500D01*
Y9347D01*
D02*
G37*
G36*
X149500D02*
X145063D01*
Y5500D01*
X149500D01*
Y9347D01*
D02*
G37*
%LPD*%
D10*
X90610Y55000D02*
D03*
X104390D02*
D03*
X63110Y60000D02*
D03*
X76890D02*
D03*
X63110Y50000D02*
D03*
X76890D02*
D03*
X163110Y30000D02*
D03*
X176890D02*
D03*
X138110D02*
D03*
X151890D02*
D03*
X93110Y182500D02*
D03*
X106890D02*
D03*
X226890Y175000D02*
D03*
X213110D02*
D03*
X100610Y82500D02*
D03*
X114390D02*
D03*
X100610Y102500D02*
D03*
X114390D02*
D03*
X219390Y100000D02*
D03*
X205610D02*
D03*
X219390Y80000D02*
D03*
X205610D02*
D03*
X93110Y145000D02*
D03*
X106890D02*
D03*
X93110Y165000D02*
D03*
X106890D02*
D03*
X226890Y155000D02*
D03*
X213110D02*
D03*
X226890Y135000D02*
D03*
X213110D02*
D03*
D11*
X125000Y203110D02*
D03*
Y216890D02*
D03*
X197500D02*
D03*
Y203110D02*
D03*
X142500Y43110D02*
D03*
Y56890D02*
D03*
D12*
X50000Y5000D02*
D03*
Y19173D02*
D03*
X28740D02*
D03*
Y5000D02*
D03*
X150000D02*
D03*
Y19173D02*
D03*
X128740D02*
D03*
Y5000D02*
D03*
X192500D02*
D03*
Y19173D02*
D03*
X171240D02*
D03*
Y5000D02*
D03*
X290000D02*
D03*
Y19173D02*
D03*
X268740D02*
D03*
Y5000D02*
D03*
D13*
X202500D02*
X268740D01*
X200000Y7500D02*
X202500Y5000D01*
X200000Y7500D02*
Y17500D01*
X198327Y19173D02*
X200000Y17500D01*
X192500Y19173D02*
X198327D01*
X280827D02*
X282500Y17500D01*
X268740Y19173D02*
X280827D01*
X167500Y5000D02*
X171240D01*
X153327Y19173D02*
X167500Y5000D01*
X150000Y19173D02*
X153327D01*
X171240D02*
X180000Y10413D01*
Y5000D02*
Y10413D01*
X125000Y22913D02*
Y30000D01*
Y22913D02*
X128740Y19173D01*
X28740Y23740D02*
X32500Y27500D01*
X28740Y19173D02*
Y23740D01*
X57500Y7500D02*
Y17500D01*
X55827Y19173D02*
X57500Y17500D01*
X50000Y19173D02*
X55827D01*
X57500Y7500D02*
X60000Y5000D01*
X112500Y167500D02*
Y180500D01*
X110500Y182500D02*
X112500Y180500D01*
X106890Y182500D02*
X110500D01*
X219390Y100000D02*
Y104390D01*
X220000Y105000D01*
X219390Y80000D02*
Y85610D01*
X97500Y20000D02*
X107500D01*
X122500Y35000D01*
X97500Y42500D02*
Y55000D01*
X122500Y35000D02*
Y57500D01*
X120000D02*
X122500D01*
X70610Y65000D02*
X87500D01*
X63287Y57677D02*
X70610Y65000D01*
X63287Y37500D02*
Y57677D01*
X90610Y55000D02*
Y61890D01*
X87500Y65000D02*
X90610Y61890D01*
X102657Y53268D02*
X104390Y55000D01*
X102657Y37500D02*
Y53268D01*
X82972Y37500D02*
Y56417D01*
X79390Y60000D02*
X82972Y56417D01*
X73130Y46240D02*
X76890Y50000D01*
X73130Y37500D02*
Y46240D01*
X130000Y32500D02*
X132500Y30000D01*
X130000Y32500D02*
Y35000D01*
X132500Y30000D02*
X138110D01*
X151890D02*
X163110D01*
X122500Y57500D02*
X127500Y62500D01*
X60000Y5000D02*
X128740D01*
X267500Y70000D02*
X282500Y55000D01*
X200000Y70000D02*
X267500D01*
X277500Y47500D02*
Y52500D01*
X265000Y65000D02*
X277500Y52500D01*
X202500Y65000D02*
X265000D01*
X114390Y82500D02*
Y89390D01*
X117500Y92500D01*
X130000D01*
X114390Y102500D02*
X130000D01*
X106890Y115610D02*
Y145000D01*
Y115610D02*
X110000Y112500D01*
X130000D01*
X106890Y165000D02*
X112500Y159390D01*
Y125000D02*
Y159390D01*
X115000Y122500D02*
X130000D01*
X112500Y167500D02*
X117500Y162500D01*
Y135000D02*
Y162500D01*
X120000Y132500D02*
X130000D01*
X37500Y44842D02*
X42342D01*
X45000Y47500D01*
X120000Y75000D02*
X127500Y82500D01*
X130000D01*
X50000Y67500D02*
X52500Y70000D01*
X127500D01*
X130000Y72500D01*
X45000Y47500D02*
Y70000D01*
X50000Y75000D01*
X120000D01*
X190000Y82500D02*
X195000D01*
X205000Y92500D01*
Y99390D01*
X190000Y72500D02*
X195000D01*
X202500Y80000D01*
X205610D01*
X212500Y134390D02*
X213110Y135000D01*
X207500Y149390D02*
X213110Y155000D01*
X210000Y175000D02*
X213110D01*
X207500Y172500D02*
X210000Y175000D01*
X207500Y157500D02*
Y172500D01*
X202500Y152500D02*
X207500Y157500D01*
X202500Y125000D02*
Y152500D01*
X190000Y112500D02*
X202500Y125000D01*
X190000Y102500D02*
X207500Y120000D01*
Y149390D01*
X212500Y117500D02*
Y134390D01*
X190000Y52500D02*
X202500Y65000D01*
X277500Y47500D02*
X279842Y45158D01*
X282500D01*
X190000Y62500D02*
X192500D01*
X200000Y70000D01*
X190000Y92500D02*
X195000D01*
X197500Y95000D01*
Y102500D01*
X212500Y117500D01*
X112500Y125000D02*
X115000Y122500D01*
X117500Y135000D02*
X120000Y132500D01*
X37500Y35000D02*
X47500D01*
X50000Y37500D01*
Y67500D01*
D14*
X125000Y30000D02*
X130000Y35000D01*
X112500Y17500D02*
X125000Y30000D01*
X63287Y26713D02*
Y37500D01*
X130000Y35000D02*
Y42500D01*
X160000Y177500D02*
X177500Y160000D01*
X147500Y177500D02*
X160000D01*
X144429Y180571D02*
X147500Y177500D01*
X177500Y45000D02*
Y160000D01*
X175000Y42500D02*
X177500Y45000D01*
X130000Y42500D02*
X175000D01*
X144429Y180571D02*
Y190000D01*
X240000Y37500D02*
Y57500D01*
X237500Y35000D02*
X240000Y37500D01*
X202500Y35000D02*
X237500D01*
X207500Y40000D02*
Y57500D01*
X182500Y37500D02*
Y162500D01*
X160965Y184035D02*
X182500Y162500D01*
X160965Y184035D02*
Y190000D01*
X202500Y35000D02*
X207500Y40000D01*
X185000Y35000D02*
X202500D01*
X182500Y37500D02*
X185000Y35000D01*
X112500Y12500D02*
Y17500D01*
X65000Y25000D02*
X75000D01*
X63287Y26713D02*
X65000Y25000D01*
X27500Y32500D02*
X32500Y27500D01*
X27500Y32500D02*
Y52500D01*
X30000Y55000D01*
X37500D01*
X75000Y15000D02*
Y25000D01*
Y15000D02*
X77500Y12500D01*
X112500D01*
X62500Y27500D02*
X63287Y26713D01*
X32500Y27500D02*
X62500D01*
D15*
X195000Y192500D02*
X245000D01*
X185000Y202500D02*
X195000Y192500D01*
X170118Y202500D02*
X185000D01*
X245000Y192500D02*
X262500Y175000D01*
X160965Y211653D02*
X170118Y202500D01*
X287500Y122500D02*
X295000Y115000D01*
X272500Y122500D02*
X287500D01*
X262500Y132500D02*
X272500Y122500D01*
X295000Y82500D02*
Y115000D01*
X290472Y77972D02*
X295000Y82500D01*
X282500Y77972D02*
X290472D01*
X262500Y132500D02*
Y175000D01*
X87500Y202500D02*
X151811D01*
X50000Y165000D02*
X87500Y202500D01*
X151811D02*
X160965Y211653D01*
X50000Y119528D02*
Y165000D01*
X37500Y107028D02*
X50000Y119528D01*
D16*
X200000Y217500D02*
X225000D01*
X192500Y225000D02*
X200000Y217500D01*
X147500Y225000D02*
X192500D01*
X90000D02*
X140000D01*
X85000Y220000D02*
X90000Y225000D01*
X85000Y210000D02*
Y220000D01*
X67500Y192500D02*
X85000Y210000D01*
X235000Y200000D02*
X265000D01*
X230000Y205000D02*
X235000Y200000D01*
X230000Y205000D02*
Y212500D01*
X225000Y217500D02*
X230000Y212500D01*
X247500Y200000D02*
X270000Y177500D01*
X265000Y200000D02*
X277500Y212500D01*
X144429Y211653D02*
Y220571D01*
X140000Y225000D02*
X144429Y220571D01*
Y221929D02*
X147500Y225000D01*
X144429Y211653D02*
Y221929D01*
X270000Y137500D02*
Y177500D01*
Y137500D02*
X276870Y130630D01*
X277500Y212500D02*
X282500D01*
X37500Y192500D02*
X67500D01*
X276870Y130630D02*
X282500D01*
X37500Y169370D02*
Y192500D01*
D17*
X100000Y202500D02*
D03*
Y215886D02*
D03*
X220000Y217500D02*
D03*
Y204114D02*
D03*
D18*
X282500Y45158D02*
D03*
Y55000D02*
D03*
Y35000D02*
D03*
X73130Y37500D02*
D03*
X82972D02*
D03*
X92815D02*
D03*
X112500D02*
D03*
X102657D02*
D03*
X63287D02*
D03*
X37500Y87343D02*
D03*
Y77500D02*
D03*
Y97185D02*
D03*
Y107028D02*
D03*
X282500Y97658D02*
D03*
Y107500D02*
D03*
Y87815D02*
D03*
Y77972D02*
D03*
X37500Y202343D02*
D03*
Y192500D02*
D03*
Y212500D02*
D03*
Y139842D02*
D03*
Y130000D02*
D03*
Y149685D02*
D03*
Y159528D02*
D03*
Y169370D02*
D03*
X282500Y202658D02*
D03*
Y212500D02*
D03*
Y192500D02*
D03*
Y160158D02*
D03*
Y170000D02*
D03*
Y150315D02*
D03*
Y140472D02*
D03*
Y130630D02*
D03*
X37500Y44842D02*
D03*
Y35000D02*
D03*
Y55000D02*
D03*
X62500Y82500D02*
D03*
X37500Y70000D02*
D03*
X267500Y105000D02*
D03*
X75000Y122500D02*
D03*
X250500Y128000D02*
D03*
X15000Y122500D02*
D03*
Y175000D02*
D03*
X305000Y130000D02*
D03*
Y177500D02*
D03*
X267500Y80000D02*
D03*
X55000Y105000D02*
D03*
D19*
X11811Y11811D02*
D03*
X307087D02*
D03*
X62992Y216535D02*
D03*
X255906D02*
D03*
D20*
X207500Y57500D02*
D03*
X217500D02*
D03*
X227500D02*
D03*
X240000D02*
D03*
X250000D02*
D03*
X260000D02*
D03*
X190000Y52500D02*
D03*
Y62500D02*
D03*
Y72500D02*
D03*
Y82500D02*
D03*
Y92500D02*
D03*
Y102500D02*
D03*
Y112500D02*
D03*
Y122500D02*
D03*
Y132500D02*
D03*
Y142500D02*
D03*
Y152500D02*
D03*
Y162500D02*
D03*
Y172500D02*
D03*
X130000D02*
D03*
Y162500D02*
D03*
Y152500D02*
D03*
Y142500D02*
D03*
Y132500D02*
D03*
Y122500D02*
D03*
Y112500D02*
D03*
Y102500D02*
D03*
Y92500D02*
D03*
Y82500D02*
D03*
Y72500D02*
D03*
X160000Y122500D02*
D03*
Y132500D02*
D03*
Y142500D02*
D03*
Y152500D02*
D03*
Y162500D02*
D03*
X150000D02*
D03*
Y152500D02*
D03*
Y142500D02*
D03*
Y132500D02*
D03*
Y122500D02*
D03*
X160000Y102500D02*
D03*
X150000D02*
D03*
Y112500D02*
D03*
X160000D02*
D03*
X130000Y62500D02*
D03*
Y52500D02*
D03*
Y42500D02*
D03*
X190000D02*
D03*
D21*
X144429Y213622D02*
D03*
X160965D02*
D03*
X177500D02*
D03*
X144429Y188031D02*
D03*
X160965D02*
D03*
X177500D02*
D03*
D22*
X282500Y17500D02*
D03*
X180000Y5000D02*
D03*
X250000Y15000D02*
D03*
X140000Y162500D02*
D03*
Y172500D02*
D03*
X120000Y187500D02*
D03*
X185000Y12500D02*
D03*
X220000Y15500D02*
D03*
X145000Y80000D02*
D03*
X312500Y27500D02*
D03*
X137500Y12500D02*
D03*
D23*
X50000Y7500D02*
D03*
X220000Y105000D02*
D03*
Y85000D02*
D03*
X97500Y20000D02*
D03*
Y55000D02*
D03*
Y42500D02*
D03*
X122500Y45000D02*
D03*
X120000Y57500D02*
D03*
X197500Y205000D02*
D03*
X125000Y215000D02*
D03*
X112500Y12500D02*
D03*
X75000Y25000D02*
D03*
X105000Y82500D02*
D03*
Y102500D02*
D03*
X90000Y145000D02*
D03*
Y165000D02*
D03*
Y185000D02*
D03*
X230000Y175000D02*
D03*
Y155000D02*
D03*
Y135000D02*
D03*
X107000Y55000D02*
D03*
X84000Y53000D02*
D03*
M02*
