G04 Layer_Color=32768*
%FSLAX25Y25*%
%MOIN*%
G70*
G01*
G75*
%ADD37C,0.01000*%
%ADD65C,0.00600*%
D37*
X11811Y-12811D02*
Y-61D01*
X0Y-12811D02*
Y-1000D01*
X-10000Y-11811D02*
X0D01*
X11811D02*
X21811D01*
X-6000Y-9811D02*
X0Y-11811D01*
X-6000Y-13811D02*
X0Y-11811D01*
X11811D02*
X17811Y-13811D01*
X11811Y-11811D02*
X17811Y-9811D01*
X-28559Y299213D02*
X-1000D01*
X-28559Y0D02*
X-1000D01*
X-27559Y149606D02*
Y299213D01*
Y0D02*
Y149606D01*
X-29559Y293213D02*
X-27559Y299213D01*
X-25559Y293213D01*
X-27559Y0D02*
X-25559Y6000D01*
X-29559D02*
X-27559Y0D01*
X259843Y-24622D02*
Y-1000D01*
X0Y-24622D02*
Y-1000D01*
X129921Y-23622D02*
X259843D01*
X0D02*
X129921D01*
X253843Y-21622D02*
X259843Y-23622D01*
X253843Y-25622D02*
X259843Y-23622D01*
X0D02*
X6000Y-25622D01*
X0Y-23622D02*
X6000Y-21622D01*
D65*
X-6691Y-25207D02*
X-5691Y-24208D01*
X-3692D01*
X-2692Y-25207D01*
Y-26207D01*
X-3692Y-27207D01*
X-4692D01*
X-3692D01*
X-2692Y-28207D01*
Y-29206D01*
X-3692Y-30206D01*
X-5691D01*
X-6691Y-29206D01*
X307Y-31205D02*
X1307Y-30206D01*
Y-29206D01*
X307D01*
Y-30206D01*
X1307D01*
X307Y-31205D01*
X-693Y-32205D01*
X5305Y-25207D02*
X6305Y-24208D01*
X8304D01*
X9304Y-25207D01*
Y-29206D01*
X8304Y-30206D01*
X6305D01*
X5305Y-29206D01*
Y-25207D01*
X11303D02*
X12303Y-24208D01*
X14302D01*
X15302Y-25207D01*
Y-29206D01*
X14302Y-30206D01*
X12303D01*
X11303Y-29206D01*
Y-25207D01*
X-37494Y149606D02*
Y153605D01*
X-36494D01*
X-32496Y149606D01*
X-31496D01*
X-37494Y159603D02*
X-36494Y157604D01*
X-34495Y155604D01*
X-32496D01*
X-31496Y156604D01*
Y158603D01*
X-32496Y159603D01*
X-33495D01*
X-34495Y158603D01*
Y155604D01*
X-30496Y162602D02*
X-31496Y163602D01*
X-32496D01*
Y162602D01*
X-31496D01*
Y163602D01*
X-30496Y162602D01*
X-29497Y161602D01*
X-36494Y167601D02*
X-37494Y168600D01*
Y170599D01*
X-36494Y171599D01*
X-32496D01*
X-31496Y170599D01*
Y168600D01*
X-32496Y167601D01*
X-36494D01*
Y173599D02*
X-37494Y174598D01*
Y176598D01*
X-36494Y177597D01*
X-32496D01*
X-31496Y176598D01*
Y174598D01*
X-32496Y173599D01*
X-36494D01*
X122109Y-25498D02*
X120110Y-26498D01*
X118110Y-28497D01*
Y-30496D01*
X119110Y-31496D01*
X121109D01*
X122109Y-30496D01*
Y-29497D01*
X121109Y-28497D01*
X118110D01*
X128107Y-25498D02*
X126108Y-26498D01*
X124108Y-28497D01*
Y-30496D01*
X125108Y-31496D01*
X127107D01*
X128107Y-30496D01*
Y-29497D01*
X127107Y-28497D01*
X124108D01*
X131106Y-32496D02*
X132106Y-31496D01*
Y-30496D01*
X131106D01*
Y-31496D01*
X132106D01*
X131106Y-32496D01*
X130106Y-33495D01*
X136104Y-26498D02*
X137104Y-25498D01*
X139103D01*
X140103Y-26498D01*
Y-30496D01*
X139103Y-31496D01*
X137104D01*
X136104Y-30496D01*
Y-26498D01*
X142103D02*
X143102Y-25498D01*
X145101D01*
X146101Y-26498D01*
Y-30496D01*
X145101Y-31496D01*
X143102D01*
X142103Y-30496D01*
Y-26498D01*
M02*
