G04 Layer_Color=32896*
%FSLAX25Y25*%
%MOIN*%
G70*
G01*
G75*
%ADD39C,0.01000*%
%ADD40C,0.00500*%
%ADD42C,0.00787*%
D39*
X0Y252500D02*
X35000D01*
X37500Y250000D01*
Y227500D02*
Y250000D01*
X35000Y225000D02*
X37500Y227500D01*
X0Y225000D02*
X35000D01*
X8000Y45000D02*
X43500D01*
X20500Y34000D02*
Y41000D01*
X17000Y52500D02*
X24000D01*
X20500Y49000D02*
Y56000D01*
D40*
X23303Y248497D02*
X25302D01*
X26302Y247497D01*
X25302Y246498D01*
X23303D01*
X26802Y245498D02*
Y243498D01*
X26302Y242499D02*
X23303D01*
Y240999D01*
X23803Y240499D01*
X24803D01*
X25302Y240999D01*
Y242499D01*
Y241499D02*
X26302Y240499D01*
Y238000D02*
Y239000D01*
X25802Y239500D01*
X24803D01*
X24303Y239000D01*
Y238000D01*
X24803Y237500D01*
X25302D01*
Y239500D01*
X26302Y236501D02*
Y235501D01*
Y236001D01*
X23303D01*
Y236501D01*
X24303Y233502D02*
Y232502D01*
X24803Y232002D01*
X26302D01*
Y233502D01*
X25802Y234001D01*
X25302Y233502D01*
Y232002D01*
X24303Y231002D02*
X25802D01*
X26302Y230503D01*
Y229003D01*
X26802D01*
X27302Y229503D01*
Y230003D01*
X26302Y229003D02*
X24303D01*
X32101Y245498D02*
Y244498D01*
Y244998D01*
X29101D01*
X29601Y245498D01*
Y242999D02*
X29101Y242499D01*
Y241499D01*
X29601Y240999D01*
X31601D01*
X32101Y241499D01*
Y242499D01*
X31601Y242999D01*
X29601D01*
Y240000D02*
X29101Y239500D01*
Y238500D01*
X29601Y238000D01*
X31601D01*
X32101Y238500D01*
Y239500D01*
X31601Y240000D01*
X29601D01*
X32101Y237001D02*
X30101D01*
Y236501D01*
X30601Y236001D01*
X32101D01*
X30601D01*
X30101Y235501D01*
X30601Y235001D01*
X32101D01*
Y234001D02*
X30101D01*
X29101Y233002D01*
X30101Y232002D01*
X32101D01*
X30601D01*
Y234001D01*
X231903Y186848D02*
X231403Y187348D01*
Y188348D01*
X231903Y188848D01*
X232403D01*
X232903Y188348D01*
Y187348D01*
X233403Y186848D01*
X233903D01*
X234402Y187348D01*
Y188348D01*
X233903Y188848D01*
X231403Y185848D02*
X233903D01*
X234402Y185349D01*
Y184349D01*
X233903Y183849D01*
X231403D01*
X234402Y182850D02*
X231403D01*
Y181350D01*
X231903Y180850D01*
X232903D01*
X233403Y181350D01*
Y182850D01*
X234402Y179850D02*
X232403D01*
X231403Y178851D01*
X232403Y177851D01*
X234402D01*
X232903D01*
Y179850D01*
X231403Y174852D02*
Y176851D01*
X234402D01*
Y174852D01*
X232903Y176851D02*
Y175852D01*
X234402Y173852D02*
X231403D01*
Y172353D01*
X231903Y171853D01*
X232903D01*
X233403Y172353D01*
Y173852D01*
Y172853D02*
X234402Y171853D01*
X231403Y169354D02*
Y170353D01*
X231903Y170853D01*
X233903D01*
X234402Y170353D01*
Y169354D01*
X233903Y168854D01*
X231903D01*
X231403Y169354D01*
X234402Y164855D02*
X231403D01*
Y163356D01*
X231903Y162856D01*
X232903D01*
X233403Y163356D01*
Y164855D01*
Y163856D02*
X234402Y162856D01*
X231403Y160357D02*
Y161356D01*
X231903Y161856D01*
X233903D01*
X234402Y161356D01*
Y160357D01*
X233903Y159857D01*
X231903D01*
X231403Y160357D01*
Y158857D02*
X234402D01*
Y157358D01*
X233903Y156858D01*
X233403D01*
X232903Y157358D01*
Y158857D01*
Y157358D01*
X232403Y156858D01*
X231903D01*
X231403Y157358D01*
Y158857D01*
Y154359D02*
Y155358D01*
X231903Y155858D01*
X233903D01*
X234402Y155358D01*
Y154359D01*
X233903Y153859D01*
X231903D01*
X231403Y154359D01*
Y152859D02*
Y150860D01*
Y151859D01*
X234402D01*
X231403Y149860D02*
Y148861D01*
Y149360D01*
X234402D01*
Y149860D01*
Y148861D01*
X231403Y147361D02*
X234402D01*
X233403D01*
X231403Y145362D01*
X232903Y146861D01*
X234402Y145362D01*
X231903Y139364D02*
X231403Y139863D01*
Y140863D01*
X231903Y141363D01*
X233903D01*
X234402Y140863D01*
Y139863D01*
X233903Y139364D01*
X231403Y138364D02*
X234402D01*
Y136364D01*
X231403Y135365D02*
X233903D01*
X234402Y134865D01*
Y133865D01*
X233903Y133365D01*
X231403D01*
Y132366D02*
X234402D01*
Y130866D01*
X233903Y130367D01*
X233403D01*
X232903Y130866D01*
Y132366D01*
Y130866D01*
X232403Y130367D01*
X231903D01*
X231403Y130866D01*
Y132366D01*
X236702Y183599D02*
X236202Y184099D01*
Y185099D01*
X236702Y185599D01*
X238701D01*
X239201Y185099D01*
Y184099D01*
X238701Y183599D01*
X239201Y182600D02*
X237202D01*
X236202Y181600D01*
X237202Y180600D01*
X239201D01*
X237702D01*
Y182600D01*
X239201Y179601D02*
X236202D01*
Y178101D01*
X236702Y177601D01*
X237702D01*
X238201Y178101D01*
Y179601D01*
Y178601D02*
X239201Y177601D01*
X236202Y176602D02*
Y174602D01*
Y175602D01*
X239201D01*
X236202Y171603D02*
Y173602D01*
X239201D01*
Y171603D01*
X237702Y173602D02*
Y172603D01*
X239201Y167604D02*
X237202D01*
X236202Y166605D01*
X237202Y165605D01*
X239201D01*
X237702D01*
Y167604D01*
X236202Y164605D02*
X239201D01*
Y162606D01*
X236202Y161606D02*
Y160607D01*
Y161107D01*
X239201D01*
Y161606D01*
Y160607D01*
Y159107D02*
X236202D01*
X237202Y158107D01*
X236202Y157108D01*
X239201D01*
X236202Y154109D02*
Y156108D01*
X239201D01*
Y154109D01*
X237702Y156108D02*
Y155108D01*
X239201Y153109D02*
X236202D01*
X239201Y151110D01*
X236202D01*
Y150110D02*
Y148111D01*
Y149110D01*
X239201D01*
Y147111D02*
X237202D01*
X236202Y146111D01*
X237202Y145112D01*
X239201D01*
X237702D01*
Y147111D01*
X236202Y144112D02*
Y142113D01*
Y143112D01*
X239201D01*
X236202Y141113D02*
Y140113D01*
Y140613D01*
X239201D01*
Y141113D01*
Y140113D01*
X236202Y137114D02*
Y138114D01*
X236702Y138614D01*
X238701D01*
X239201Y138114D01*
Y137114D01*
X238701Y136615D01*
X236702D01*
X236202Y137114D01*
X239201Y135615D02*
X236202D01*
X239201Y133615D01*
X236202D01*
X241501Y184849D02*
X241001Y184349D01*
Y183349D01*
X241501Y182850D01*
X243500D01*
X244000Y183349D01*
Y184349D01*
X243500Y184849D01*
X241501D01*
X244000Y181850D02*
Y180850D01*
Y181350D01*
X241001D01*
X241501Y181850D01*
X244000Y179351D02*
X242001Y177351D01*
X244000Y176352D02*
Y175352D01*
Y175852D01*
X241001D01*
X241501Y176352D01*
X244000Y171853D02*
Y173852D01*
X242001Y171853D01*
X241501D01*
X241001Y172353D01*
Y173353D01*
X241501Y173852D01*
X244000Y170853D02*
X242001Y168854D01*
X244000Y165855D02*
Y167854D01*
X242001Y165855D01*
X241501D01*
X241001Y166355D01*
Y167355D01*
X241501Y167854D01*
Y164855D02*
X241001Y164356D01*
Y163356D01*
X241501Y162856D01*
X243500D01*
X244000Y163356D01*
Y164356D01*
X243500Y164855D01*
X241501D01*
X244000Y159857D02*
Y161856D01*
X242001Y159857D01*
X241501D01*
X241001Y160357D01*
Y161356D01*
X241501Y161856D01*
Y158857D02*
X241001Y158357D01*
Y157358D01*
X241501Y156858D01*
X243500D01*
X244000Y157358D01*
Y158357D01*
X243500Y158857D01*
X241501D01*
X242500Y152859D02*
Y150860D01*
X241001Y146861D02*
X243000D01*
X244000Y145861D01*
X243000Y144862D01*
X241001D01*
X241501Y140863D02*
X241001Y140363D01*
Y139364D01*
X241501Y138864D01*
X242001D01*
X242500Y139364D01*
Y139863D01*
Y139364D01*
X243000Y138864D01*
X243500D01*
X244000Y139364D01*
Y140363D01*
X243500Y140863D01*
X244000Y137864D02*
X243500D01*
Y137364D01*
X244000D01*
Y137864D01*
Y135365D02*
Y134365D01*
Y134865D01*
X241001D01*
X241501Y135365D01*
X29500Y293000D02*
Y295999D01*
X28001D01*
X27501Y295499D01*
Y294499D01*
X28001Y294000D01*
X29500D01*
X28500D02*
X27501Y293000D01*
X26501D02*
X25501D01*
X26001D01*
Y295999D01*
X26501Y295499D01*
X24002D02*
X23502Y295999D01*
X22502D01*
X22002Y295499D01*
Y294999D01*
X22502Y294499D01*
X22002Y294000D01*
Y293500D01*
X22502Y293000D01*
X23502D01*
X24002Y293500D01*
Y294000D01*
X23502Y294499D01*
X24002Y294999D01*
Y295499D01*
X23502Y294499D02*
X22502D01*
X20500Y263500D02*
Y266499D01*
X19001D01*
X18501Y265999D01*
Y265000D01*
X19001Y264500D01*
X20500D01*
X19500D02*
X18501Y263500D01*
X17501D02*
X16501D01*
X17001D01*
Y266499D01*
X17501Y265999D01*
X15002Y266499D02*
X13002D01*
Y265999D01*
X15002Y264000D01*
Y263500D01*
X203500Y110500D02*
Y113499D01*
X202000D01*
X201501Y112999D01*
Y111999D01*
X202000Y111500D01*
X203500D01*
X202500D02*
X201501Y110500D01*
X200501D02*
X199501D01*
X200001D01*
Y113499D01*
X200501Y112999D01*
X196002Y113499D02*
X197002Y112999D01*
X198002Y111999D01*
Y111000D01*
X197502Y110500D01*
X196502D01*
X196002Y111000D01*
Y111500D01*
X196502Y111999D01*
X198002D01*
X17801Y237801D02*
Y239800D01*
X19300D01*
Y238800D01*
Y239800D01*
X20800D01*
X17801Y234802D02*
Y236801D01*
X19300D01*
X18801Y235801D01*
Y235301D01*
X19300Y234802D01*
X20300D01*
X20800Y235301D01*
Y236301D01*
X20300Y236801D01*
X110001Y236499D02*
X110501Y236999D01*
X111500D01*
X112000Y236499D01*
Y234500D01*
X111500Y234000D01*
X110501D01*
X110001Y234500D01*
X107501Y234000D02*
Y236999D01*
X109001Y235500D01*
X107002D01*
X126001Y269999D02*
X126500Y270499D01*
X127500D01*
X128000Y269999D01*
Y268000D01*
X127500Y267500D01*
X126500D01*
X126001Y268000D01*
X123002Y270499D02*
X125001D01*
Y269000D01*
X124001Y269499D01*
X123501D01*
X123002Y269000D01*
Y268000D01*
X123501Y267500D01*
X124501D01*
X125001Y268000D01*
X110501Y273999D02*
X111001Y274499D01*
X112000D01*
X112500Y273999D01*
Y272000D01*
X112000Y271500D01*
X111001D01*
X110501Y272000D01*
X107502Y274499D02*
X108501Y273999D01*
X109501Y273000D01*
Y272000D01*
X109001Y271500D01*
X108001D01*
X107502Y272000D01*
Y272500D01*
X108001Y273000D01*
X109501D01*
X125501Y308499D02*
X126000Y308999D01*
X127000D01*
X127500Y308499D01*
Y306500D01*
X127000Y306000D01*
X126000D01*
X125501Y306500D01*
X124501Y308999D02*
X122502D01*
Y308499D01*
X124501Y306500D01*
Y306000D01*
X110001Y199499D02*
X110501Y199999D01*
X111500D01*
X112000Y199499D01*
Y197500D01*
X111500Y197000D01*
X110501D01*
X110001Y197500D01*
X109001Y199499D02*
X108501Y199999D01*
X107501D01*
X107002Y199499D01*
Y198999D01*
X107501Y198500D01*
X107002Y198000D01*
Y197500D01*
X107501Y197000D01*
X108501D01*
X109001Y197500D01*
Y198000D01*
X108501Y198500D01*
X109001Y198999D01*
Y199499D01*
X108501Y198500D02*
X107501D01*
X125501Y230999D02*
X126000Y231499D01*
X127000D01*
X127500Y230999D01*
Y229000D01*
X127000Y228500D01*
X126000D01*
X125501Y229000D01*
X124501D02*
X124001Y228500D01*
X123001D01*
X122502Y229000D01*
Y230999D01*
X123001Y231499D01*
X124001D01*
X124501Y230999D01*
Y230499D01*
X124001Y229999D01*
X122502D01*
X199001Y174999D02*
X199501Y175499D01*
X200500D01*
X201000Y174999D01*
Y173000D01*
X200500Y172500D01*
X199501D01*
X199001Y173000D01*
X198001Y172500D02*
X197001D01*
X197501D01*
Y175499D01*
X198001Y174999D01*
X195502D02*
X195002Y175499D01*
X194002D01*
X193502Y174999D01*
Y173000D01*
X194002Y172500D01*
X195002D01*
X195502Y173000D01*
Y174999D01*
X265501Y152499D02*
X266001Y152999D01*
X267000D01*
X267500Y152499D01*
Y150500D01*
X267000Y150000D01*
X266001D01*
X265501Y150500D01*
X264501Y150000D02*
X263501D01*
X264001D01*
Y152999D01*
X264501Y152499D01*
X262002Y150000D02*
X261002D01*
X261502D01*
Y152999D01*
X262002Y152499D01*
X178500Y225500D02*
Y228499D01*
X177000D01*
X176501Y227999D01*
Y226999D01*
X177000Y226500D01*
X178500D01*
X177500D02*
X176501Y225500D01*
X175501D02*
X174501D01*
X175001D01*
Y228499D01*
X175501Y227999D01*
X173002D02*
X172502Y228499D01*
X171502D01*
X171002Y227999D01*
Y226000D01*
X171502Y225500D01*
X172502D01*
X173002Y226000D01*
Y227999D01*
X178000Y275500D02*
Y278499D01*
X176500D01*
X176001Y277999D01*
Y276999D01*
X176500Y276500D01*
X178000D01*
X177000D02*
X176001Y275500D01*
X175001D02*
X174001D01*
X174501D01*
Y278499D01*
X175001Y277999D01*
X172502Y275500D02*
X171502D01*
X172002D01*
Y278499D01*
X172502Y277999D01*
X179000Y300500D02*
Y303499D01*
X177500D01*
X177001Y302999D01*
Y301999D01*
X177500Y301500D01*
X179000D01*
X178000D02*
X177001Y300500D01*
X176001D02*
X175001D01*
X175501D01*
Y303499D01*
X176001Y302999D01*
X171502Y300500D02*
X173502D01*
X171502Y302499D01*
Y302999D01*
X172002Y303499D01*
X173002D01*
X173502Y302999D01*
X178500Y250500D02*
Y253499D01*
X177000D01*
X176501Y252999D01*
Y251999D01*
X177000Y251500D01*
X178500D01*
X177500D02*
X176501Y250500D01*
X175501D02*
X174501D01*
X175001D01*
Y253499D01*
X175501Y252999D01*
X173002D02*
X172502Y253499D01*
X171502D01*
X171002Y252999D01*
Y252499D01*
X171502Y251999D01*
X172002D01*
X171502D01*
X171002Y251500D01*
Y251000D01*
X171502Y250500D01*
X172502D01*
X173002Y251000D01*
X260500Y50000D02*
Y52999D01*
X259000D01*
X258501Y52499D01*
Y51499D01*
X259000Y51000D01*
X260500D01*
X259500D02*
X258501Y50000D01*
X257501D02*
X256501D01*
X257001D01*
Y52999D01*
X257501Y52499D01*
X253502Y50000D02*
Y52999D01*
X255002Y51499D01*
X253002D01*
X108000Y66000D02*
Y68999D01*
X106500D01*
X106001Y68499D01*
Y67500D01*
X106500Y67000D01*
X108000D01*
X107000D02*
X106001Y66000D01*
X105001D02*
X104001D01*
X104501D01*
Y68999D01*
X105001Y68499D01*
X100502Y68999D02*
X102502D01*
Y67500D01*
X101502Y67999D01*
X101002D01*
X100502Y67500D01*
Y66500D01*
X101002Y66000D01*
X102002D01*
X102502Y66500D01*
X101001Y135499D02*
X101500Y135999D01*
X102500D01*
X103000Y135499D01*
Y133500D01*
X102500Y133000D01*
X101500D01*
X101001Y133500D01*
X100001Y133000D02*
X99001D01*
X99501D01*
Y135999D01*
X100001Y135499D01*
X95502Y133000D02*
X97502D01*
X95502Y134999D01*
Y135499D01*
X96002Y135999D01*
X97002D01*
X97502Y135499D01*
X126001Y119999D02*
X126500Y120499D01*
X127500D01*
X128000Y119999D01*
Y118000D01*
X127500Y117500D01*
X126500D01*
X126001Y118000D01*
X125001Y117500D02*
X124001D01*
X124501D01*
Y120499D01*
X125001Y119999D01*
X122502D02*
X122002Y120499D01*
X121002D01*
X120502Y119999D01*
Y119499D01*
X121002Y119000D01*
X121502D01*
X121002D01*
X120502Y118500D01*
Y118000D01*
X121002Y117500D01*
X122002D01*
X122502Y118000D01*
X139001Y135499D02*
X139500Y135999D01*
X140500D01*
X141000Y135499D01*
Y133500D01*
X140500Y133000D01*
X139500D01*
X139001Y133500D01*
X138001Y133000D02*
X137001D01*
X137501D01*
Y135999D01*
X138001Y135499D01*
X134002Y133000D02*
Y135999D01*
X135502Y134500D01*
X133502D01*
X164001Y119999D02*
X164500Y120499D01*
X165500D01*
X166000Y119999D01*
Y118000D01*
X165500Y117500D01*
X164500D01*
X164001Y118000D01*
X163001Y117500D02*
X162001D01*
X162501D01*
Y120499D01*
X163001Y119999D01*
X158502Y120499D02*
X160502D01*
Y119000D01*
X159502Y119499D01*
X159002D01*
X158502Y119000D01*
Y118000D01*
X159002Y117500D01*
X160002D01*
X160502Y118000D01*
D42*
X2807Y227067D02*
Y234547D01*
X16193Y227067D02*
Y234547D01*
X2807Y227067D02*
X16193D01*
X4382Y249114D02*
X14618D01*
X2807Y240453D02*
Y247146D01*
X14618Y249114D02*
X16193Y247146D01*
X2807Y247146D02*
X4382Y249114D01*
X16193Y240453D02*
Y247146D01*
X98610Y238000D02*
X106110D01*
X98610D02*
Y247000D01*
X106110D01*
X113890Y238000D02*
X121390D01*
Y247000D01*
X113890D02*
X121390D01*
X128890Y267000D02*
X136390D01*
Y258000D02*
Y267000D01*
X128890Y258000D02*
X136390D01*
X113610Y267000D02*
X121110D01*
X113610Y258000D02*
Y267000D01*
Y258000D02*
X121110D01*
X98610Y275500D02*
X106110D01*
X98610D02*
Y284500D01*
X106110D01*
X113890Y275500D02*
X121390D01*
Y284500D01*
X113890D02*
X121390D01*
X129436Y304566D02*
X136936D01*
Y295566D02*
Y304566D01*
X129436Y295566D02*
X136936D01*
X114157Y304566D02*
X121657D01*
X114157Y295566D02*
Y304566D01*
Y295566D02*
X121657D01*
X98610Y200500D02*
X106110D01*
X98610D02*
Y209500D01*
X106110D01*
X113890Y200500D02*
X121390D01*
Y209500D01*
X113890D02*
X121390D01*
X128890Y227000D02*
X136390D01*
Y218000D02*
Y227000D01*
X128890Y218000D02*
X136390D01*
X113610Y227000D02*
X121110D01*
X113610Y218000D02*
Y227000D01*
Y218000D02*
X121110D01*
X202000Y148610D02*
Y156110D01*
X193000Y148610D02*
X202000D01*
X193000D02*
Y156110D01*
X202000Y163890D02*
Y171390D01*
X193000D02*
X202000D01*
X193000Y163890D02*
Y171390D01*
X269500Y126110D02*
Y133610D01*
X260500Y126110D02*
X269500D01*
X260500D02*
Y133610D01*
X269500Y141390D02*
Y148890D01*
X260500D02*
X269500D01*
X260500Y141390D02*
Y148890D01*
X158000Y108890D02*
Y116390D01*
X167000D01*
Y108890D02*
Y116390D01*
X158000Y93610D02*
Y101110D01*
Y93610D02*
X167000D01*
Y101110D01*
X142000Y108610D02*
Y116110D01*
X133000Y108610D02*
X142000D01*
X133000D02*
Y116110D01*
X142000Y123890D02*
Y131390D01*
X133000D02*
X142000D01*
X133000Y123890D02*
Y131390D01*
X120500Y108890D02*
Y116390D01*
X129500D01*
Y108890D02*
Y116390D01*
X120500Y93610D02*
Y101110D01*
Y93610D02*
X129500D01*
Y101110D01*
X104500Y108610D02*
Y116110D01*
X95500Y108610D02*
X104500D01*
X95500D02*
Y116110D01*
X104500Y123890D02*
Y131390D01*
X95500D02*
X104500D01*
X95500Y123890D02*
Y131390D01*
X262000Y26110D02*
Y33610D01*
X253000Y26110D02*
X262000D01*
X253000D02*
Y33610D01*
X262000Y41390D02*
Y48890D01*
X253000D02*
X262000D01*
X253000Y41390D02*
Y48890D01*
X204500Y86110D02*
Y93610D01*
X195500Y86110D02*
X204500D01*
X195500D02*
Y93610D01*
X204500Y101390D02*
Y108890D01*
X195500D02*
X204500D01*
X195500Y101390D02*
Y108890D01*
X12000Y268610D02*
Y276110D01*
X3000Y268610D02*
X12000D01*
X3000D02*
Y276110D01*
X12000Y283890D02*
Y291390D01*
X3000D02*
X12000D01*
X3000Y283890D02*
Y291390D01*
X13000Y283890D02*
Y291390D01*
X22000D01*
Y283890D02*
Y291390D01*
X13000Y268610D02*
Y276110D01*
Y268610D02*
X22000D01*
Y276110D01*
X163610Y240500D02*
X171110D01*
X163610D02*
Y249500D01*
X171110D01*
X178890Y240500D02*
X186390D01*
Y249500D01*
X178890D02*
X186390D01*
X100500Y56390D02*
Y63890D01*
X109500D01*
Y56390D02*
Y63890D01*
X100500Y41110D02*
Y48610D01*
Y41110D02*
X109500D01*
Y48610D01*
X178890Y224500D02*
X186390D01*
Y215500D02*
Y224500D01*
X178890Y215500D02*
X186390D01*
X163610Y224500D02*
X171110D01*
X163610Y215500D02*
Y224500D01*
Y215500D02*
X171110D01*
X178890Y274500D02*
X186390D01*
Y265500D02*
Y274500D01*
X178890Y265500D02*
X186390D01*
X163610Y274500D02*
X171110D01*
X163610Y265500D02*
Y274500D01*
Y265500D02*
X171110D01*
X178890Y299500D02*
X186390D01*
Y290500D02*
Y299500D01*
X178890Y290500D02*
X186390D01*
X163610Y299500D02*
X171110D01*
X163610Y290500D02*
Y299500D01*
Y290500D02*
X171110D01*
M02*
