G04 Layer_Physical_Order=2*
G04 Layer_Color=16711680*
%FSLAX25Y25*%
%MOIN*%
G70*
G01*
G75*
%ADD10R,0.05906X0.05906*%
%ADD11R,0.05906X0.05906*%
%ADD16R,0.10236X0.05906*%
%ADD17C,0.05906*%
%ADD18C,0.07874*%
%ADD19C,0.00984*%
%ADD21C,0.11811*%
%ADD23C,0.11811*%
%ADD24O,0.15748X0.11811*%
%ADD25R,0.15748X0.11811*%
%ADD26C,0.05906*%
%ADD27C,0.12000*%
%ADD28O,0.19685X0.23622*%
%ADD29C,0.13386*%
%ADD30O,0.07000X0.12000*%
%ADD31O,0.09843X0.07874*%
%ADD32C,0.07874*%
%ADD33C,0.08000*%
%ADD34C,0.06000*%
%ADD35C,0.09843*%
%ADD36C,0.20945*%
%ADD37C,0.05000*%
%ADD38C,0.03937*%
G36*
X257637Y313976D02*
X256444Y313246D01*
X254955Y311974D01*
X253683Y310485D01*
X252660Y308815D01*
X251911Y307006D01*
X251454Y305102D01*
X251300Y303150D01*
X251454Y301197D01*
X251911Y299293D01*
X252660Y297484D01*
X253683Y295814D01*
X254955Y294325D01*
X256444Y293054D01*
X258114Y292030D01*
X259923Y291281D01*
X261827Y290824D01*
X263779Y290670D01*
X265732Y290824D01*
X267636Y291281D01*
X269445Y292030D01*
X271115Y293054D01*
X272604Y294325D01*
X273876Y295814D01*
X274606Y297007D01*
X275590Y296729D01*
Y114173D01*
Y18231D01*
X274606Y17954D01*
X273876Y19146D01*
X272604Y20635D01*
X271115Y21907D01*
X269445Y22930D01*
X267636Y23680D01*
X265732Y24137D01*
X263779Y24290D01*
X261827Y24137D01*
X260910Y23917D01*
X260515Y24425D01*
X260395Y24805D01*
X260939Y25515D01*
X261011Y25689D01*
X262421D01*
Y35531D01*
X252579D01*
Y25689D01*
X253989D01*
X254061Y25515D01*
X254692Y24692D01*
X255515Y24061D01*
X256472Y23664D01*
X257259Y23561D01*
X257529Y22805D01*
X257538Y22577D01*
X256444Y21907D01*
X254955Y20635D01*
X253683Y19146D01*
X252660Y17477D01*
X251911Y15667D01*
X251454Y13763D01*
X251300Y11811D01*
X251454Y9859D01*
X251911Y7955D01*
X252660Y6146D01*
X253683Y4476D01*
X254955Y2987D01*
X256444Y1715D01*
X257637Y984D01*
X257359Y0D01*
X18231D01*
X17954Y984D01*
X19146Y1715D01*
X20635Y2987D01*
X21907Y4476D01*
X22930Y6146D01*
X23680Y7955D01*
X24137Y9859D01*
X24290Y11811D01*
X24137Y13763D01*
X23680Y15667D01*
X22930Y17477D01*
X21907Y19146D01*
X20635Y20635D01*
X19146Y21907D01*
X17477Y22930D01*
X15667Y23680D01*
X14489Y23963D01*
X14355Y25007D01*
X14835Y25264D01*
X16154Y26346D01*
X17236Y27665D01*
X18041Y29169D01*
X18536Y30802D01*
X18703Y32500D01*
X18536Y34198D01*
X18041Y35831D01*
X17236Y37335D01*
X16154Y38654D01*
X14835Y39737D01*
X13331Y40541D01*
X11698Y41036D01*
X10000Y41203D01*
X8302Y41036D01*
X6669Y40541D01*
X5165Y39737D01*
X3846Y38654D01*
X2763Y37335D01*
X1959Y35831D01*
X1464Y34198D01*
X1297Y32500D01*
X1464Y30802D01*
X1959Y29169D01*
X2763Y27665D01*
X3846Y26346D01*
X5165Y25264D01*
X6669Y24459D01*
X7013Y24355D01*
X7064Y23311D01*
X6146Y22930D01*
X4476Y21907D01*
X2987Y20635D01*
X1715Y19146D01*
X984Y17954D01*
X0Y18231D01*
Y188976D01*
Y296729D01*
X984Y297007D01*
X1715Y295814D01*
X2987Y294325D01*
X4476Y293054D01*
X4897Y292795D01*
X4620Y291811D01*
X2579D01*
Y281968D01*
X12421D01*
Y281968D01*
X12579D01*
Y281968D01*
X22421D01*
Y291811D01*
X19002D01*
X18725Y292795D01*
X19146Y293054D01*
X20635Y294325D01*
X21907Y295814D01*
X22930Y297484D01*
X23680Y299293D01*
X24137Y301197D01*
X24290Y303150D01*
X24137Y305102D01*
X23680Y307006D01*
X22930Y308815D01*
X21907Y310485D01*
X20635Y311974D01*
X19146Y313246D01*
X17954Y313976D01*
X18231Y314961D01*
X257359D01*
X257637Y313976D01*
D02*
G37*
%LPC*%
G36*
X122610Y304019D02*
X119157D01*
Y300566D01*
X122610D01*
Y304019D01*
D02*
G37*
G36*
X118157D02*
X114704D01*
Y300566D01*
X118157D01*
Y304019D01*
D02*
G37*
G36*
X122610Y299566D02*
X119157D01*
Y296114D01*
X122610D01*
Y299566D01*
D02*
G37*
G36*
X118157D02*
X114704D01*
Y296114D01*
X118157D01*
Y299566D01*
D02*
G37*
G36*
X185843Y298953D02*
X182390D01*
Y295500D01*
X185843D01*
Y298953D01*
D02*
G37*
G36*
X181390D02*
X177937D01*
Y295500D01*
X181390D01*
Y298953D01*
D02*
G37*
G36*
X137358Y304988D02*
X127515D01*
Y295957D01*
X127502Y295142D01*
X126634Y294897D01*
X126203Y294841D01*
X124994Y294340D01*
X123956Y293544D01*
X123160Y292506D01*
X122820Y291684D01*
X121754D01*
X121496Y292307D01*
X120763Y293263D01*
X119807Y293996D01*
X118976Y294340D01*
Y290000D01*
Y285660D01*
X119807Y286004D01*
X120763Y286737D01*
X121496Y287693D01*
X121754Y288316D01*
X122820D01*
X123160Y287494D01*
X123956Y286456D01*
X124994Y285660D01*
X126203Y285159D01*
X127500Y284989D01*
X128797Y285159D01*
X130006Y285660D01*
X131044Y286456D01*
X131840Y287494D01*
X132341Y288703D01*
X132511Y290000D01*
X132341Y291293D01*
X133664Y292616D01*
X134208Y293430D01*
X134399Y294390D01*
Y295145D01*
X137358D01*
Y304988D01*
D02*
G37*
G36*
X185843Y294500D02*
X182390D01*
Y291047D01*
X185843D01*
Y294500D01*
D02*
G37*
G36*
X181390D02*
X177937D01*
Y291047D01*
X181390D01*
Y294500D01*
D02*
G37*
G36*
X173031Y299921D02*
X163189D01*
Y298511D01*
X163014Y298439D01*
X162192Y297808D01*
X161561Y296986D01*
X161164Y296028D01*
X161029Y295000D01*
X161164Y293972D01*
X161561Y293015D01*
X162192Y292192D01*
X163014Y291561D01*
X163189Y291489D01*
Y290079D01*
X173031D01*
Y299921D01*
D02*
G37*
G36*
X107500Y295011D02*
X106203Y294841D01*
X104994Y294340D01*
X103956Y293544D01*
X103160Y292506D01*
X102659Y291297D01*
X102489Y290000D01*
X102588Y289246D01*
X100726Y287384D01*
X100182Y286570D01*
X99991Y285610D01*
Y284921D01*
X98189D01*
Y275079D01*
X108031D01*
Y284190D01*
X108031Y284921D01*
X108797Y285159D01*
X110006Y285660D01*
X111044Y286456D01*
X111840Y287494D01*
X112180Y288316D01*
X113246D01*
X113504Y287693D01*
X114237Y286737D01*
X115193Y286004D01*
X116024Y285660D01*
Y290000D01*
Y294340D01*
X115193Y293996D01*
X114237Y293263D01*
X113504Y292307D01*
X113246Y291684D01*
X112180D01*
X111840Y292506D01*
X111044Y293544D01*
X110006Y294340D01*
X108797Y294841D01*
X107500Y295011D01*
D02*
G37*
G36*
X78819Y284189D02*
Y281376D01*
X81632D01*
X81297Y282183D01*
X80572Y283129D01*
X79626Y283855D01*
X78819Y284189D01*
D02*
G37*
G36*
X46319D02*
Y281376D01*
X49132D01*
X48797Y282183D01*
X48072Y283129D01*
X47126Y283855D01*
X46319Y284189D01*
D02*
G37*
G36*
X120843Y283953D02*
X117390D01*
Y280500D01*
X120843D01*
Y283953D01*
D02*
G37*
G36*
X116390D02*
X112937D01*
Y280500D01*
X116390D01*
Y283953D01*
D02*
G37*
G36*
X120843Y279500D02*
X117390D01*
Y276047D01*
X120843D01*
Y279500D01*
D02*
G37*
G36*
X116390D02*
X112937D01*
Y276047D01*
X116390D01*
Y279500D01*
D02*
G37*
G36*
X81632Y278424D02*
X78819D01*
Y275611D01*
X79626Y275945D01*
X80572Y276671D01*
X81297Y277617D01*
X81632Y278424D01*
D02*
G37*
G36*
X67500Y284864D02*
X66215Y284695D01*
X65018Y284199D01*
X63990Y283410D01*
X63201Y282382D01*
X62705Y281185D01*
X62536Y279900D01*
X62705Y278615D01*
X63201Y277418D01*
X63990Y276390D01*
X65018Y275601D01*
X66215Y275105D01*
X67500Y274936D01*
X68785Y275105D01*
X69982Y275601D01*
X71010Y276390D01*
X71799Y277418D01*
X72102Y278150D01*
X73167D01*
X73388Y277617D01*
X74113Y276671D01*
X75059Y275945D01*
X75866Y275611D01*
Y279900D01*
Y284189D01*
X75059Y283855D01*
X74113Y283129D01*
X73388Y282183D01*
X73167Y281650D01*
X72102D01*
X71799Y282382D01*
X71010Y283410D01*
X69982Y284199D01*
X68785Y284695D01*
X67500Y284864D01*
D02*
G37*
G36*
X49132Y278424D02*
X46319D01*
Y275611D01*
X47126Y275945D01*
X48072Y276671D01*
X48797Y277617D01*
X49132Y278424D01*
D02*
G37*
G36*
X35000Y284864D02*
X33715Y284695D01*
X32518Y284199D01*
X31490Y283410D01*
X30701Y282382D01*
X30205Y281185D01*
X30036Y279900D01*
X30205Y278615D01*
X30701Y277418D01*
X31490Y276390D01*
X32518Y275601D01*
X33715Y275105D01*
X35000Y274936D01*
X36285Y275105D01*
X37482Y275601D01*
X38510Y276390D01*
X39299Y277418D01*
X39602Y278150D01*
X40667D01*
X40888Y277617D01*
X41613Y276671D01*
X42559Y275945D01*
X43366Y275611D01*
Y279900D01*
Y284189D01*
X42559Y283855D01*
X41613Y283129D01*
X40888Y282183D01*
X40667Y281650D01*
X39602D01*
X39299Y282382D01*
X38510Y283410D01*
X37482Y284199D01*
X36285Y284695D01*
X35000Y284864D01*
D02*
G37*
G36*
X185843Y273953D02*
X182390D01*
Y270500D01*
X185843D01*
Y273953D01*
D02*
G37*
G36*
X181390D02*
X177937D01*
Y270500D01*
X181390D01*
Y273953D01*
D02*
G37*
G36*
X238071Y282464D02*
X236786Y282295D01*
X235589Y281799D01*
X234561Y281010D01*
X233772Y279982D01*
X233276Y278785D01*
X233107Y277500D01*
X233276Y276215D01*
X233772Y275018D01*
X234561Y273990D01*
X235589Y273201D01*
X236320Y272898D01*
Y271833D01*
X235788Y271612D01*
X234842Y270887D01*
X234116Y269941D01*
X233782Y269134D01*
X238071D01*
X242360D01*
X242026Y269941D01*
X241300Y270887D01*
X240354Y271612D01*
X239821Y271833D01*
Y272898D01*
X240553Y273201D01*
X241581Y273990D01*
X242370Y275018D01*
X242865Y276215D01*
X243035Y277500D01*
X242865Y278785D01*
X242370Y279982D01*
X241581Y281010D01*
X240553Y281799D01*
X239356Y282295D01*
X238071Y282464D01*
D02*
G37*
G36*
X185843Y269500D02*
X182390D01*
Y266047D01*
X185843D01*
Y269500D01*
D02*
G37*
G36*
X181390D02*
X177937D01*
Y266047D01*
X181390D01*
Y269500D01*
D02*
G37*
G36*
X173031Y274921D02*
X163189D01*
Y273511D01*
X163014Y273439D01*
X162192Y272808D01*
X161561Y271986D01*
X161164Y271028D01*
X161029Y270000D01*
X161164Y268972D01*
X161561Y268015D01*
X162192Y267192D01*
X163014Y266561D01*
X163189Y266489D01*
Y265079D01*
X173031D01*
Y274921D01*
D02*
G37*
G36*
X242360Y266181D02*
X239547D01*
Y263368D01*
X240354Y263703D01*
X241300Y264428D01*
X242026Y265374D01*
X242360Y266181D01*
D02*
G37*
G36*
X236595D02*
X233782D01*
X234116Y265374D01*
X234842Y264428D01*
X235788Y263703D01*
X236595Y263368D01*
Y266181D01*
D02*
G37*
G36*
X122063Y266453D02*
X118610D01*
Y263000D01*
X122063D01*
Y266453D01*
D02*
G37*
G36*
X117610D02*
X114157D01*
Y263000D01*
X117610D01*
Y266453D01*
D02*
G37*
G36*
X122063Y262000D02*
X118610D01*
Y258547D01*
X122063D01*
Y262000D01*
D02*
G37*
G36*
X117610D02*
X114157D01*
Y258547D01*
X117610D01*
Y262000D01*
D02*
G37*
G36*
X136811Y267421D02*
X126969D01*
Y258310D01*
X126969Y257579D01*
X126203Y257341D01*
X124994Y256840D01*
X123956Y256044D01*
X123160Y255006D01*
X122820Y254184D01*
X121754D01*
X121496Y254807D01*
X120763Y255763D01*
X119807Y256496D01*
X118976Y256840D01*
Y252500D01*
Y248160D01*
X119807Y248504D01*
X120763Y249237D01*
X121496Y250193D01*
X121754Y250816D01*
X122820D01*
X123160Y249994D01*
X123956Y248956D01*
X124994Y248160D01*
X126203Y247659D01*
X127500Y247489D01*
X128797Y247659D01*
X130006Y248160D01*
X131044Y248956D01*
X131840Y249994D01*
X132341Y251203D01*
X132511Y252500D01*
X132341Y253793D01*
X133664Y255116D01*
X134208Y255930D01*
X134399Y256890D01*
Y257579D01*
X136811D01*
Y267421D01*
D02*
G37*
G36*
X107500Y257511D02*
X106203Y257341D01*
X104994Y256840D01*
X103956Y256044D01*
X103160Y255006D01*
X102659Y253797D01*
X102489Y252500D01*
X102659Y251207D01*
X101336Y249884D01*
X100792Y249070D01*
X100601Y248110D01*
Y247421D01*
X98189D01*
Y237579D01*
X108031D01*
Y246690D01*
X108031Y247421D01*
X108797Y247659D01*
X110006Y248160D01*
X111044Y248956D01*
X111840Y249994D01*
X112180Y250816D01*
X113246D01*
X113504Y250193D01*
X114237Y249237D01*
X115193Y248504D01*
X116024Y248160D01*
Y252500D01*
Y256840D01*
X115193Y256496D01*
X114237Y255763D01*
X113504Y254807D01*
X113246Y254184D01*
X112180D01*
X111840Y255006D01*
X111044Y256044D01*
X110006Y256840D01*
X108797Y257341D01*
X107500Y257511D01*
D02*
G37*
G36*
X185843Y248953D02*
X182390D01*
Y245500D01*
X185843D01*
Y248953D01*
D02*
G37*
G36*
X181390D02*
X177937D01*
Y245500D01*
X181390D01*
Y248953D01*
D02*
G37*
G36*
X120843Y246453D02*
X117390D01*
Y243000D01*
X120843D01*
Y246453D01*
D02*
G37*
G36*
X116390D02*
X112937D01*
Y243000D01*
X116390D01*
Y246453D01*
D02*
G37*
G36*
X185843Y244500D02*
X182390D01*
Y241047D01*
X185843D01*
Y244500D01*
D02*
G37*
G36*
X181390D02*
X177937D01*
Y241047D01*
X181390D01*
Y244500D01*
D02*
G37*
G36*
X173031Y249921D02*
X163189D01*
Y248511D01*
X163014Y248439D01*
X162192Y247808D01*
X161561Y246986D01*
X161164Y246028D01*
X161029Y245000D01*
X161164Y243972D01*
X161561Y243015D01*
X162192Y242192D01*
X163014Y241561D01*
X163189Y241489D01*
Y240079D01*
X173031D01*
Y249921D01*
D02*
G37*
G36*
X120843Y242000D02*
X117390D01*
Y238547D01*
X120843D01*
Y242000D01*
D02*
G37*
G36*
X116390D02*
X112937D01*
Y238547D01*
X116390D01*
Y242000D01*
D02*
G37*
G36*
X12579Y278031D02*
X11594Y278031D01*
X2579D01*
Y268189D01*
X3472D01*
X3824Y267205D01*
X3259Y266741D01*
X2513Y265832D01*
X1959Y264795D01*
X1618Y263670D01*
X1503Y262500D01*
X1618Y261330D01*
X1959Y260205D01*
X2513Y259168D01*
X3259Y258259D01*
X4168Y257513D01*
X5205Y256959D01*
X6330Y256618D01*
X7500Y256503D01*
X8670Y256618D01*
X9795Y256959D01*
X10832Y257513D01*
X11741Y258259D01*
X12487Y259168D01*
X13041Y260205D01*
X13382Y261330D01*
X13497Y262500D01*
X13382Y263670D01*
X13041Y264795D01*
X12487Y265832D01*
X11741Y266741D01*
X11175Y267205D01*
X11528Y268189D01*
X12421Y268189D01*
X13406Y268189D01*
X14991D01*
Y258539D01*
X13226Y256774D01*
X10726Y254274D01*
X10182Y253460D01*
X9991Y252500D01*
Y248327D01*
X2413D01*
Y238484D01*
X16587D01*
Y248327D01*
X15009D01*
Y251461D01*
X16039Y252491D01*
X77500D01*
X78460Y252682D01*
X79274Y253226D01*
X81774Y255726D01*
X82318Y256540D01*
X82414Y257023D01*
X83332Y257513D01*
X84241Y258259D01*
X84987Y259168D01*
X85541Y260205D01*
X85882Y261330D01*
X85997Y262500D01*
X85882Y263670D01*
X85541Y264795D01*
X84987Y265832D01*
X84241Y266741D01*
X83332Y267487D01*
X82295Y268041D01*
X81170Y268382D01*
X80000Y268497D01*
X78830Y268382D01*
X77705Y268041D01*
X76668Y267487D01*
X75759Y266741D01*
X75013Y265832D01*
X74459Y264795D01*
X74118Y263670D01*
X74003Y262500D01*
X74118Y261330D01*
X74459Y260205D01*
X75013Y259168D01*
X75567Y258493D01*
X75305Y257718D01*
X75129Y257509D01*
X54871D01*
X54695Y257718D01*
X54433Y258493D01*
X54987Y259168D01*
X55541Y260205D01*
X55882Y261330D01*
X55997Y262500D01*
X55882Y263670D01*
X55541Y264795D01*
X54987Y265832D01*
X54241Y266741D01*
X53332Y267487D01*
X52295Y268041D01*
X51170Y268382D01*
X50000Y268497D01*
X48830Y268382D01*
X47705Y268041D01*
X46668Y267487D01*
X45759Y266741D01*
X45013Y265832D01*
X44459Y264795D01*
X44264Y264153D01*
X43236D01*
X43041Y264795D01*
X42487Y265832D01*
X41741Y266741D01*
X40832Y267487D01*
X39795Y268041D01*
X38670Y268382D01*
X37500Y268497D01*
X36330Y268382D01*
X35205Y268041D01*
X34168Y267487D01*
X33259Y266741D01*
X32513Y265832D01*
X31959Y264795D01*
X31618Y263670D01*
X31503Y262500D01*
X31618Y261330D01*
X31959Y260205D01*
X32513Y259168D01*
X33067Y258493D01*
X32805Y257718D01*
X32629Y257509D01*
X20009D01*
Y268189D01*
X22421D01*
Y278031D01*
X13406D01*
X12579Y278031D01*
D02*
G37*
G36*
X238000Y247464D02*
X236715Y247295D01*
X235518Y246799D01*
X234490Y246010D01*
X233701Y244982D01*
X233205Y243785D01*
X233036Y242500D01*
X233205Y241215D01*
X233701Y240018D01*
X234490Y238990D01*
X235518Y238201D01*
X236249Y237898D01*
Y236833D01*
X235717Y236612D01*
X234771Y235887D01*
X234045Y234941D01*
X233711Y234134D01*
X238000D01*
X242289D01*
X241955Y234941D01*
X241229Y235887D01*
X240283Y236612D01*
X239751Y236833D01*
Y237898D01*
X240482Y238201D01*
X241510Y238990D01*
X242299Y240018D01*
X242795Y241215D01*
X242964Y242500D01*
X242795Y243785D01*
X242299Y244982D01*
X241510Y246010D01*
X240482Y246799D01*
X239285Y247295D01*
X238000Y247464D01*
D02*
G37*
G36*
X242289Y231181D02*
X239476D01*
Y228368D01*
X240283Y228703D01*
X241229Y229428D01*
X241955Y230374D01*
X242289Y231181D01*
D02*
G37*
G36*
X236524D02*
X233711D01*
X234045Y230374D01*
X234771Y229428D01*
X235717Y228703D01*
X236524Y228368D01*
Y231181D01*
D02*
G37*
G36*
X239476Y226789D02*
Y223976D01*
X242289D01*
X241955Y224783D01*
X241229Y225729D01*
X240283Y226455D01*
X239476Y226789D01*
D02*
G37*
G36*
X236524Y226789D02*
X235717Y226455D01*
X234771Y225729D01*
X234045Y224783D01*
X233711Y223976D01*
X236524D01*
Y226789D01*
D02*
G37*
G36*
X122063Y226453D02*
X118610D01*
Y223000D01*
X122063D01*
Y226453D01*
D02*
G37*
G36*
X117610D02*
X114157D01*
Y223000D01*
X117610D01*
Y226453D01*
D02*
G37*
G36*
X185843Y223953D02*
X182390D01*
Y220500D01*
X185843D01*
Y223953D01*
D02*
G37*
G36*
X181390D02*
X177937D01*
Y220500D01*
X181390D01*
Y223953D01*
D02*
G37*
G36*
X242289Y221024D02*
X239476D01*
Y218211D01*
X240283Y218545D01*
X241229Y219271D01*
X241955Y220217D01*
X242289Y221024D01*
D02*
G37*
G36*
X236524D02*
X233711D01*
X234045Y220217D01*
X234771Y219271D01*
X235717Y218545D01*
X236524Y218211D01*
Y221024D01*
D02*
G37*
G36*
X136811Y227421D02*
X126969D01*
Y219941D01*
X126203Y219841D01*
X124994Y219340D01*
X123956Y218544D01*
X123160Y217506D01*
X122820Y216684D01*
X121754D01*
X121496Y217307D01*
X121300Y217563D01*
X121785Y218547D01*
X122063D01*
Y222000D01*
X114157D01*
Y218547D01*
X114157Y218547D01*
X113811Y217707D01*
X113504Y217307D01*
X113246Y216684D01*
X112180D01*
X111840Y217506D01*
X111044Y218544D01*
X110006Y219340D01*
X108797Y219841D01*
X107500Y220011D01*
X106203Y219841D01*
X104994Y219340D01*
X103956Y218544D01*
X103160Y217506D01*
X102659Y216297D01*
X102646Y216194D01*
X101336Y214884D01*
X100792Y214070D01*
X100601Y213110D01*
Y209921D01*
X98189D01*
Y200079D01*
X108031D01*
Y209190D01*
X108031Y209921D01*
X108797Y210159D01*
X110006Y210660D01*
X111044Y211456D01*
X111840Y212494D01*
X112180Y213316D01*
X113246D01*
X113504Y212693D01*
X114237Y211737D01*
X115193Y211004D01*
X116024Y210660D01*
Y215000D01*
X118976D01*
Y210660D01*
X119807Y211004D01*
X120763Y211737D01*
X121496Y212693D01*
X121754Y213316D01*
X122820D01*
X123160Y212494D01*
X123956Y211456D01*
X124994Y210660D01*
X126203Y210159D01*
X127500Y209989D01*
X128797Y210159D01*
X130006Y210660D01*
X131044Y211456D01*
X131840Y212494D01*
X132341Y213703D01*
X132511Y215000D01*
X132341Y216297D01*
X132163Y216725D01*
X133017Y217579D01*
X136811D01*
Y227421D01*
D02*
G37*
G36*
X185843Y219500D02*
X182390D01*
Y216047D01*
X185843D01*
Y219500D01*
D02*
G37*
G36*
X181390D02*
X177937D01*
Y216047D01*
X181390D01*
Y219500D01*
D02*
G37*
G36*
X173031Y224921D02*
X163189D01*
Y223511D01*
X163014Y223439D01*
X162192Y222808D01*
X161561Y221986D01*
X161164Y221028D01*
X161029Y220000D01*
X161164Y218972D01*
X161561Y218015D01*
X162192Y217192D01*
X163014Y216561D01*
X163189Y216489D01*
Y215079D01*
X173031D01*
Y224921D01*
D02*
G37*
G36*
X172421Y212421D02*
X162579D01*
Y209642D01*
X161594Y209446D01*
X161455Y209783D01*
X160729Y210729D01*
X159783Y211455D01*
X158976Y211789D01*
Y207500D01*
Y203211D01*
X159783Y203545D01*
X160729Y204271D01*
X161455Y205217D01*
X161594Y205554D01*
X162579Y205358D01*
Y202579D01*
X172421D01*
Y212421D01*
D02*
G37*
G36*
X156024Y211789D02*
X155217Y211455D01*
X154271Y210729D01*
X153545Y209783D01*
X153211Y208976D01*
X156024D01*
Y211789D01*
D02*
G37*
G36*
X50000Y218434D02*
X48842Y218320D01*
X47729Y217982D01*
X46703Y217434D01*
X45804Y216696D01*
X45066Y215797D01*
X44518Y214771D01*
X44180Y213658D01*
X44066Y212500D01*
X44180Y211342D01*
X44518Y210229D01*
X45066Y209203D01*
X45804Y208304D01*
X46703Y207566D01*
X47729Y207018D01*
X48842Y206680D01*
X50000Y206566D01*
X51158Y206680D01*
X52271Y207018D01*
X53297Y207566D01*
X54196Y208304D01*
X54934Y209203D01*
X55482Y210229D01*
X55820Y211342D01*
X55934Y212500D01*
X55820Y213658D01*
X55482Y214771D01*
X54934Y215797D01*
X54196Y216696D01*
X53297Y217434D01*
X52271Y217982D01*
X51158Y218320D01*
X50000Y218434D01*
D02*
G37*
G36*
X120843Y208953D02*
X117390D01*
Y205500D01*
X120843D01*
Y208953D01*
D02*
G37*
G36*
X116390D02*
X112937D01*
Y205500D01*
X116390D01*
Y208953D01*
D02*
G37*
G36*
X156024Y206024D02*
X153211D01*
X153545Y205217D01*
X154271Y204271D01*
X155217Y203545D01*
X156024Y203211D01*
Y206024D01*
D02*
G37*
G36*
X266476Y206341D02*
Y201476D01*
X271340D01*
X271031Y202498D01*
X270427Y203626D01*
X269616Y204616D01*
X268626Y205427D01*
X267498Y206031D01*
X266476Y206341D01*
D02*
G37*
G36*
X263524Y206341D02*
X262502Y206031D01*
X261373Y205427D01*
X260384Y204616D01*
X259573Y203626D01*
X258969Y202498D01*
X258660Y201476D01*
X263524D01*
Y206341D01*
D02*
G37*
G36*
X120843Y204500D02*
X117390D01*
Y201047D01*
X120843D01*
Y204500D01*
D02*
G37*
G36*
X116390D02*
X112937D01*
Y201047D01*
X116390D01*
Y204500D01*
D02*
G37*
G36*
X80000Y208434D02*
X78842Y208320D01*
X77729Y207982D01*
X76703Y207434D01*
X75804Y206696D01*
X75066Y205797D01*
X74518Y204771D01*
X74180Y203658D01*
X74066Y202500D01*
X74180Y201342D01*
X74518Y200229D01*
X75066Y199203D01*
X75804Y198304D01*
X76703Y197566D01*
X77729Y197018D01*
X78842Y196680D01*
X80000Y196566D01*
X81158Y196680D01*
X82271Y197018D01*
X83297Y197566D01*
X84196Y198304D01*
X84934Y199203D01*
X85482Y200229D01*
X85820Y201342D01*
X85934Y202500D01*
X85820Y203658D01*
X85482Y204771D01*
X84934Y205797D01*
X84196Y206696D01*
X83297Y207434D01*
X82271Y207982D01*
X81158Y208320D01*
X80000Y208434D01*
D02*
G37*
G36*
X37500D02*
X36342Y208320D01*
X35229Y207982D01*
X34203Y207434D01*
X33304Y206696D01*
X32566Y205797D01*
X32018Y204771D01*
X31680Y203658D01*
X31566Y202500D01*
X31680Y201342D01*
X32018Y200229D01*
X32566Y199203D01*
X33304Y198304D01*
X34203Y197566D01*
X35229Y197018D01*
X36342Y196680D01*
X37500Y196566D01*
X38658Y196680D01*
X39771Y197018D01*
X40797Y197566D01*
X41696Y198304D01*
X42434Y199203D01*
X42982Y200229D01*
X43320Y201342D01*
X43434Y202500D01*
X43320Y203658D01*
X42982Y204771D01*
X42434Y205797D01*
X41696Y206696D01*
X40797Y207434D01*
X39771Y207982D01*
X38658Y208320D01*
X37500Y208434D01*
D02*
G37*
G36*
X271340Y198524D02*
X266476D01*
Y193659D01*
X267498Y193969D01*
X268626Y194573D01*
X269616Y195384D01*
X270427Y196373D01*
X271031Y197502D01*
X271340Y198524D01*
D02*
G37*
G36*
X263524D02*
X258660D01*
X258969Y197502D01*
X259573Y196373D01*
X260384Y195384D01*
X261373Y194573D01*
X262502Y193969D01*
X263524Y193659D01*
Y198524D01*
D02*
G37*
G36*
X185000Y206923D02*
X183649Y206790D01*
X182351Y206396D01*
X181154Y205756D01*
X180105Y204895D01*
X179244Y203846D01*
X178604Y202649D01*
X178210Y201351D01*
X178077Y200000D01*
X178210Y198649D01*
X178604Y197351D01*
X179244Y196154D01*
X180105Y195105D01*
X181154Y194244D01*
X182351Y193604D01*
X183649Y193210D01*
X185000Y193077D01*
X186351Y193210D01*
X187649Y193604D01*
X188846Y194244D01*
X189895Y195105D01*
X190756Y196154D01*
X191396Y197351D01*
X191790Y198649D01*
X191923Y200000D01*
X191790Y201351D01*
X191396Y202649D01*
X190756Y203846D01*
X189895Y204895D01*
X188846Y205756D01*
X187649Y206396D01*
X186351Y206790D01*
X185000Y206923D01*
D02*
G37*
G36*
X162362Y189881D02*
Y183976D01*
X166004D01*
Y185000D01*
X165830Y186325D01*
X165319Y187559D01*
X164505Y188619D01*
X163445Y189433D01*
X162362Y189881D01*
D02*
G37*
G36*
X159409D02*
X158326Y189433D01*
X157266Y188619D01*
X156453Y187559D01*
X155942Y186325D01*
X155767Y185000D01*
Y183976D01*
X159409D01*
Y189881D01*
D02*
G37*
G36*
X127362D02*
Y183976D01*
X131004D01*
Y185000D01*
X130830Y186325D01*
X130319Y187559D01*
X129505Y188619D01*
X128445Y189433D01*
X127362Y189881D01*
D02*
G37*
G36*
X124409D02*
X123327Y189433D01*
X122266Y188619D01*
X121453Y187559D01*
X120942Y186325D01*
X120767Y185000D01*
Y183976D01*
X124409D01*
Y189881D01*
D02*
G37*
G36*
X166004Y181024D02*
X162362D01*
Y175119D01*
X163445Y175567D01*
X164505Y176381D01*
X165319Y177441D01*
X165830Y178675D01*
X166004Y180000D01*
Y181024D01*
D02*
G37*
G36*
X159409D02*
X155767D01*
Y180000D01*
X155942Y178675D01*
X156453Y177441D01*
X157266Y176381D01*
X158326Y175567D01*
X159409Y175119D01*
Y181024D01*
D02*
G37*
G36*
X131004D02*
X127362D01*
Y175119D01*
X128445Y175567D01*
X129505Y176381D01*
X130319Y177441D01*
X130830Y178675D01*
X131004Y180000D01*
Y181024D01*
D02*
G37*
G36*
X124409D02*
X120767D01*
Y180000D01*
X120942Y178675D01*
X121453Y177441D01*
X122266Y176381D01*
X123327Y175567D01*
X124409Y175119D01*
Y181024D01*
D02*
G37*
G36*
X147500Y190516D02*
X146072Y190328D01*
X144742Y189777D01*
X143600Y188900D01*
X142723Y187758D01*
X142172Y186428D01*
X141984Y185000D01*
Y180000D01*
X142172Y178572D01*
X142723Y177242D01*
X143600Y176100D01*
X144742Y175223D01*
X146072Y174672D01*
X147500Y174484D01*
X148928Y174672D01*
X150258Y175223D01*
X151400Y176100D01*
X152277Y177242D01*
X152828Y178572D01*
X153016Y180000D01*
Y185000D01*
X152828Y186428D01*
X152277Y187758D01*
X151400Y188900D01*
X150258Y189777D01*
X148928Y190328D01*
X147500Y190516D01*
D02*
G37*
G36*
X112500D02*
X111072Y190328D01*
X109742Y189777D01*
X108600Y188900D01*
X107723Y187758D01*
X107172Y186428D01*
X106984Y185000D01*
Y180000D01*
X107172Y178572D01*
X107723Y177242D01*
X108600Y176100D01*
X109742Y175223D01*
X111072Y174672D01*
X112500Y174484D01*
X113928Y174672D01*
X115258Y175223D01*
X116400Y176100D01*
X117277Y177242D01*
X117828Y178572D01*
X118016Y180000D01*
Y185000D01*
X117828Y186428D01*
X117277Y187758D01*
X116400Y188900D01*
X115258Y189777D01*
X113928Y190328D01*
X112500Y190516D01*
D02*
G37*
G36*
X186476Y176340D02*
Y171476D01*
X191340D01*
X191031Y172498D01*
X190427Y173626D01*
X189616Y174616D01*
X188627Y175427D01*
X187498Y176031D01*
X186476Y176340D01*
D02*
G37*
G36*
X183524Y176340D02*
X182502Y176031D01*
X181374Y175427D01*
X180384Y174616D01*
X179573Y173626D01*
X178969Y172498D01*
X178659Y171476D01*
X183524D01*
Y176340D01*
D02*
G37*
G36*
X201453Y170843D02*
X198000D01*
Y167390D01*
X201453D01*
Y170843D01*
D02*
G37*
G36*
X197000D02*
X193547D01*
Y167390D01*
X197000D01*
Y170843D01*
D02*
G37*
G36*
X191340Y168524D02*
X186476D01*
Y163660D01*
X187498Y163969D01*
X188627Y164573D01*
X189616Y165384D01*
X190427Y166374D01*
X191031Y167502D01*
X191340Y168524D01*
D02*
G37*
G36*
X183524D02*
X178659D01*
X178969Y167502D01*
X179573Y166374D01*
X180384Y165384D01*
X181374Y164573D01*
X182502Y163969D01*
X183524Y163660D01*
Y168524D01*
D02*
G37*
G36*
X16587Y236516D02*
X2413D01*
Y226673D01*
X4991D01*
Y217855D01*
X4203Y217434D01*
X3304Y216696D01*
X2566Y215797D01*
X2018Y214771D01*
X1680Y213658D01*
X1566Y212500D01*
Y180000D01*
X1680Y178842D01*
X2018Y177729D01*
X2566Y176703D01*
X3304Y175804D01*
X14328Y164780D01*
X15227Y164042D01*
X16253Y163494D01*
X17366Y163156D01*
X18524Y163042D01*
X20984D01*
X22142Y163156D01*
X23255Y163494D01*
X24281Y164042D01*
X25180Y164780D01*
X25918Y165680D01*
X26467Y166706D01*
X26804Y167819D01*
X26918Y168976D01*
X26804Y170134D01*
X26467Y171247D01*
X25918Y172273D01*
X25180Y173172D01*
X24281Y173910D01*
X23255Y174459D01*
X22142Y174796D01*
X20984Y174910D01*
X20982D01*
X13434Y182458D01*
Y212500D01*
X13320Y213658D01*
X12982Y214771D01*
X12434Y215797D01*
X11696Y216696D01*
X10797Y217434D01*
X10009Y217855D01*
Y226673D01*
X16587D01*
Y236516D01*
D02*
G37*
G36*
X201453Y166390D02*
X198000D01*
Y162937D01*
X201453D01*
Y166390D01*
D02*
G37*
G36*
X197000D02*
X193547D01*
Y162937D01*
X197000D01*
Y166390D01*
D02*
G37*
G36*
X265000Y166923D02*
X263649Y166790D01*
X262351Y166396D01*
X261154Y165756D01*
X260105Y164895D01*
X259244Y163846D01*
X258604Y162649D01*
X258210Y161351D01*
X258077Y160000D01*
X258210Y158649D01*
X258604Y157351D01*
X259244Y156154D01*
X260105Y155105D01*
X261154Y154244D01*
X262351Y153604D01*
X263649Y153210D01*
X265000Y153077D01*
X266351Y153210D01*
X267649Y153604D01*
X268846Y154244D01*
X269895Y155105D01*
X270756Y156154D01*
X271396Y157351D01*
X271790Y158649D01*
X271923Y160000D01*
X271790Y161351D01*
X271396Y162649D01*
X270756Y163846D01*
X269895Y164895D01*
X268846Y165756D01*
X267649Y166396D01*
X266351Y166790D01*
X265000Y166923D01*
D02*
G37*
G36*
X202421Y158031D02*
X192579D01*
Y153551D01*
X192491Y153110D01*
Y152509D01*
X191439D01*
X191396Y152649D01*
X190756Y153846D01*
X189895Y154895D01*
X188846Y155756D01*
X187649Y156396D01*
X186351Y156790D01*
X185000Y156923D01*
X183649Y156790D01*
X182351Y156396D01*
X181154Y155756D01*
X180105Y154895D01*
X179244Y153846D01*
X178604Y152649D01*
X178210Y151351D01*
X178077Y150000D01*
X178210Y148649D01*
X178604Y147351D01*
X179244Y146154D01*
X180105Y145105D01*
X181154Y144244D01*
X182351Y143604D01*
X183649Y143210D01*
X185000Y143077D01*
X186351Y143210D01*
X187649Y143604D01*
X188846Y144244D01*
X189895Y145105D01*
X190756Y146154D01*
X191396Y147351D01*
X191439Y147491D01*
X195000D01*
X195960Y147682D01*
X196719Y148189D01*
X202421D01*
Y158031D01*
D02*
G37*
G36*
X268953Y148343D02*
X265500D01*
Y144890D01*
X268953D01*
Y148343D01*
D02*
G37*
G36*
X264500D02*
X261047D01*
Y144890D01*
X264500D01*
Y148343D01*
D02*
G37*
G36*
X268953Y143890D02*
X265500D01*
Y140437D01*
X268953D01*
Y143890D01*
D02*
G37*
G36*
X264500D02*
X261047D01*
Y140437D01*
X264500D01*
Y143890D01*
D02*
G37*
G36*
X20000Y132912D02*
X18456Y132760D01*
X16972Y132310D01*
X15604Y131579D01*
X14405Y130595D01*
X13421Y129396D01*
X12690Y128028D01*
X12240Y126544D01*
X12088Y125000D01*
X12240Y123456D01*
X12690Y121972D01*
X13421Y120604D01*
X14405Y119405D01*
X15604Y118421D01*
X16972Y117690D01*
X18456Y117240D01*
X20000Y117088D01*
X21544Y117240D01*
X23028Y117690D01*
X24396Y118421D01*
X25595Y119405D01*
X26579Y120604D01*
X27310Y121972D01*
X27760Y123456D01*
X27912Y125000D01*
X27760Y126544D01*
X27310Y128028D01*
X26579Y129396D01*
X25595Y130595D01*
X24396Y131579D01*
X23028Y132310D01*
X21544Y132760D01*
X20000Y132912D01*
D02*
G37*
G36*
X142421Y131811D02*
X132579D01*
Y121968D01*
X142421D01*
Y124381D01*
X144448D01*
X145138Y123631D01*
X144989Y122500D01*
X145159Y121203D01*
X145660Y119994D01*
X146456Y118956D01*
X147494Y118160D01*
X148316Y117820D01*
Y116754D01*
X147693Y116496D01*
X146737Y115763D01*
X146004Y114807D01*
X145660Y113976D01*
X150000D01*
X154340D01*
X153996Y114807D01*
X153263Y115763D01*
X152307Y116496D01*
X151684Y116754D01*
Y117820D01*
X152506Y118160D01*
X153544Y118956D01*
X154340Y119994D01*
X154841Y121203D01*
X155011Y122500D01*
X154841Y123797D01*
X154340Y125006D01*
X153544Y126044D01*
X152506Y126840D01*
X151297Y127341D01*
X150000Y127511D01*
X148707Y127341D01*
X147384Y128664D01*
X146570Y129208D01*
X145610Y129399D01*
X142421D01*
Y131811D01*
D02*
G37*
G36*
X90000Y144964D02*
X88715Y144795D01*
X87518Y144299D01*
X86490Y143510D01*
X85701Y142482D01*
X85205Y141285D01*
X85036Y140000D01*
Y107500D01*
X85205Y106215D01*
X85545Y105395D01*
X85493Y105000D01*
X85646Y103833D01*
X86097Y102746D01*
X86813Y101813D01*
X87747Y101097D01*
X88833Y100646D01*
X90000Y100493D01*
X91167Y100646D01*
X92254Y101097D01*
X93187Y101813D01*
X93903Y102746D01*
X94353Y103833D01*
X94507Y105000D01*
X94455Y105395D01*
X94795Y106215D01*
X94964Y107500D01*
Y121032D01*
X95079Y121968D01*
X95948Y121968D01*
X104921D01*
Y124381D01*
X106948D01*
X107638Y123631D01*
X107489Y122500D01*
X107659Y121203D01*
X108160Y119994D01*
X108956Y118956D01*
X109994Y118160D01*
X110816Y117820D01*
Y116754D01*
X110193Y116496D01*
X109237Y115763D01*
X108504Y114807D01*
X108160Y113976D01*
X112500D01*
X116840D01*
X116496Y114807D01*
X115763Y115763D01*
X114807Y116496D01*
X114184Y116754D01*
Y117820D01*
X115006Y118160D01*
X116044Y118956D01*
X116840Y119994D01*
X117341Y121203D01*
X117511Y122500D01*
X117341Y123797D01*
X116840Y125006D01*
X116044Y126044D01*
X115006Y126840D01*
X113797Y127341D01*
X112500Y127511D01*
X111207Y127341D01*
X109884Y128664D01*
X109070Y129208D01*
X108110Y129399D01*
X104921D01*
Y131811D01*
X95948D01*
X95079Y131811D01*
X94964Y132748D01*
Y140000D01*
X94795Y141285D01*
X94299Y142482D01*
X93510Y143510D01*
X92482Y144299D01*
X91285Y144795D01*
X90000Y144964D01*
D02*
G37*
G36*
X141453Y117063D02*
X138000D01*
Y113610D01*
X141453D01*
Y117063D01*
D02*
G37*
G36*
X103953D02*
X100500D01*
Y113610D01*
X103953D01*
Y117063D01*
D02*
G37*
G36*
X137000D02*
X133547D01*
Y113610D01*
X137000D01*
Y117063D01*
D02*
G37*
G36*
X99500D02*
X96047D01*
Y113610D01*
X99500D01*
Y117063D01*
D02*
G37*
G36*
X269921Y135531D02*
X260079D01*
Y125689D01*
X260079Y125689D01*
X259981Y124745D01*
X259244Y123846D01*
X258604Y122649D01*
X258210Y121351D01*
X258077Y120000D01*
X258210Y118649D01*
X258604Y117351D01*
X259244Y116154D01*
X260105Y115105D01*
X261154Y114244D01*
X262351Y113604D01*
X263649Y113210D01*
X265000Y113077D01*
X266351Y113210D01*
X267649Y113604D01*
X268846Y114244D01*
X269895Y115105D01*
X270756Y116154D01*
X271396Y117351D01*
X271790Y118649D01*
X271923Y120000D01*
X271790Y121351D01*
X271396Y122649D01*
X270756Y123846D01*
X270019Y124745D01*
X269921Y125689D01*
X269921Y125689D01*
X269921Y125689D01*
Y135531D01*
D02*
G37*
G36*
X166453Y115842D02*
X163000D01*
Y112390D01*
X166453D01*
Y115842D01*
D02*
G37*
G36*
X128953D02*
X125500D01*
Y112390D01*
X128953D01*
Y115842D01*
D02*
G37*
G36*
X162000D02*
X158547D01*
Y112390D01*
X162000D01*
Y115842D01*
D02*
G37*
G36*
X124500D02*
X121047D01*
Y112390D01*
X124500D01*
Y115842D01*
D02*
G37*
G36*
X141453Y112610D02*
X138000D01*
Y109158D01*
X141453D01*
Y112610D01*
D02*
G37*
G36*
X137000D02*
X133547D01*
Y109158D01*
X137000D01*
Y112610D01*
D02*
G37*
G36*
X103953D02*
X100500D01*
Y109158D01*
X103953D01*
Y112610D01*
D02*
G37*
G36*
X99500D02*
X96047D01*
Y109158D01*
X99500D01*
Y112610D01*
D02*
G37*
G36*
X166453Y111390D02*
X163000D01*
Y107937D01*
X166453D01*
Y111390D01*
D02*
G37*
G36*
X162000D02*
X158547D01*
Y107937D01*
X162000D01*
Y111390D01*
D02*
G37*
G36*
X128953D02*
X125500D01*
Y107937D01*
X128953D01*
Y111390D01*
D02*
G37*
G36*
X124500D02*
X121047D01*
Y107937D01*
X124500D01*
Y111390D01*
D02*
G37*
G36*
X78524Y106299D02*
X77945Y106059D01*
X77094Y105406D01*
X76856Y105096D01*
X75644D01*
X75406Y105406D01*
X74555Y106059D01*
X73976Y106299D01*
Y102500D01*
Y98701D01*
X74555Y98941D01*
X75406Y99594D01*
X75644Y99904D01*
X76856D01*
X77094Y99594D01*
X77945Y98941D01*
X78524Y98701D01*
Y102500D01*
Y106299D01*
D02*
G37*
G36*
X71024D02*
X70445Y106059D01*
X69594Y105406D01*
X69356Y105096D01*
X68144D01*
X67906Y105406D01*
X67055Y106059D01*
X66476Y106299D01*
Y102500D01*
Y98701D01*
X67055Y98941D01*
X67906Y99594D01*
X68144Y99904D01*
X69356D01*
X69594Y99594D01*
X70445Y98941D01*
X71024Y98701D01*
Y102500D01*
Y106299D01*
D02*
G37*
G36*
X81476D02*
Y103976D01*
X83799D01*
X83559Y104555D01*
X82906Y105406D01*
X82055Y106059D01*
X81476Y106299D01*
D02*
G37*
G36*
X63524D02*
X62945Y106059D01*
X62094Y105406D01*
X61441Y104555D01*
X61201Y103976D01*
X63524D01*
Y106299D01*
D02*
G37*
G36*
X200000Y111471D02*
X198972Y111336D01*
X198014Y110939D01*
X197192Y110308D01*
X196561Y109485D01*
X196489Y109311D01*
X195079D01*
Y99468D01*
X204921D01*
Y109311D01*
X203511D01*
X203439Y109485D01*
X202808Y110308D01*
X201986Y110939D01*
X201028Y111336D01*
X200000Y111471D01*
D02*
G37*
G36*
X83799Y101024D02*
X81476D01*
Y98701D01*
X82055Y98941D01*
X82906Y99594D01*
X83559Y100445D01*
X83799Y101024D01*
D02*
G37*
G36*
X63524D02*
X61201D01*
X61441Y100445D01*
X62094Y99594D01*
X62945Y98941D01*
X63524Y98701D01*
Y101024D01*
D02*
G37*
G36*
X154340Y111024D02*
X150000D01*
X145660D01*
X146004Y110193D01*
X146737Y109237D01*
X147693Y108504D01*
X148316Y108246D01*
Y107180D01*
X147494Y106840D01*
X146456Y106044D01*
X145660Y105006D01*
X145159Y103797D01*
X144989Y102500D01*
X145159Y101203D01*
X145660Y99994D01*
X146456Y98956D01*
X147494Y98160D01*
X148703Y97659D01*
X150000Y97489D01*
X151293Y97659D01*
X152616Y96336D01*
X153430Y95792D01*
X154390Y95601D01*
X157579D01*
Y93189D01*
X167421D01*
Y103032D01*
X157579D01*
Y100619D01*
X155552D01*
X154862Y101369D01*
X155011Y102500D01*
X154841Y103797D01*
X154340Y105006D01*
X153544Y106044D01*
X152506Y106840D01*
X151684Y107180D01*
Y108246D01*
X152307Y108504D01*
X153263Y109237D01*
X153996Y110193D01*
X154340Y111024D01*
D02*
G37*
G36*
X116840D02*
X112500D01*
X108160D01*
X108504Y110193D01*
X109237Y109237D01*
X110193Y108504D01*
X110816Y108246D01*
Y107180D01*
X109994Y106840D01*
X108956Y106044D01*
X108160Y105006D01*
X107659Y103797D01*
X107489Y102500D01*
X107659Y101203D01*
X108160Y99994D01*
X108956Y98956D01*
X109994Y98160D01*
X111203Y97659D01*
X112500Y97489D01*
X113793Y97659D01*
X115116Y96336D01*
X115930Y95792D01*
X116890Y95601D01*
X120079D01*
Y93189D01*
X129921D01*
Y103032D01*
X120079D01*
Y100619D01*
X118052D01*
X117362Y101369D01*
X117511Y102500D01*
X117341Y103797D01*
X116840Y105006D01*
X116044Y106044D01*
X115006Y106840D01*
X114184Y107180D01*
Y108246D01*
X114807Y108504D01*
X115763Y109237D01*
X116496Y110193D01*
X116840Y111024D01*
D02*
G37*
G36*
X203953Y94563D02*
X200500D01*
Y91110D01*
X203953D01*
Y94563D01*
D02*
G37*
G36*
X199500D02*
X196047D01*
Y91110D01*
X199500D01*
Y94563D01*
D02*
G37*
G36*
X203953Y90110D02*
X200500D01*
Y86658D01*
X203953D01*
Y90110D01*
D02*
G37*
G36*
X199500D02*
X196047D01*
Y86658D01*
X199500D01*
Y90110D01*
D02*
G37*
G36*
X152500Y84661D02*
X150938Y84507D01*
X149436Y84051D01*
X148052Y83311D01*
X146838Y82315D01*
X145842Y81102D01*
X145102Y79718D01*
X144747Y78544D01*
X143718D01*
X143362Y79718D01*
X142622Y81102D01*
X141626Y82315D01*
X140413Y83311D01*
X139029Y84051D01*
X137527Y84507D01*
X135965Y84661D01*
X134403Y84507D01*
X132900Y84051D01*
X131516Y83311D01*
X130303Y82315D01*
X129307Y81102D01*
X128567Y79718D01*
X128111Y78216D01*
X127957Y76653D01*
X128111Y75091D01*
X128567Y73589D01*
X129307Y72205D01*
X130303Y70992D01*
X131516Y69996D01*
X132900Y69256D01*
X134403Y68800D01*
X135965Y68647D01*
X137527Y68800D01*
X139029Y69256D01*
X140413Y69996D01*
X141626Y70992D01*
X142622Y72205D01*
X143362Y73589D01*
X143718Y74763D01*
X144747D01*
X145102Y73589D01*
X145842Y72205D01*
X146838Y70992D01*
X148052Y69996D01*
X149436Y69256D01*
X150938Y68800D01*
X152500Y68647D01*
X154062Y68800D01*
X155564Y69256D01*
X156948Y69996D01*
X158162Y70992D01*
X159158Y72205D01*
X159898Y73589D01*
X160353Y75091D01*
X160447Y76045D01*
X160471Y76288D01*
X161460D01*
X161484Y76045D01*
X161570Y75169D01*
X162003Y73741D01*
X162707Y72425D01*
X163653Y71271D01*
X164807Y70325D01*
X166123Y69621D01*
X167551Y69188D01*
X167559Y69187D01*
Y76653D01*
Y84120D01*
X167551Y84119D01*
X166123Y83686D01*
X164807Y82982D01*
X163653Y82036D01*
X162707Y80882D01*
X162003Y79566D01*
X161570Y78139D01*
X161484Y77262D01*
X161460Y77020D01*
X160471D01*
X160447Y77262D01*
X160353Y78216D01*
X159898Y79718D01*
X159158Y81102D01*
X158162Y82315D01*
X156948Y83311D01*
X155564Y84051D01*
X154062Y84507D01*
X152500Y84661D01*
D02*
G37*
G36*
X246949Y84134D02*
X238976D01*
Y78130D01*
X246949D01*
Y84134D01*
D02*
G37*
G36*
X236024D02*
X228051D01*
Y78130D01*
X236024D01*
Y84134D01*
D02*
G37*
G36*
X170512Y84120D02*
Y78130D01*
X176502D01*
X176501Y78139D01*
X176067Y79566D01*
X175364Y80882D01*
X174418Y82036D01*
X173264Y82982D01*
X171948Y83686D01*
X170520Y84119D01*
X170512Y84120D01*
D02*
G37*
G36*
X83976D02*
Y78130D01*
X89966D01*
X89965Y78139D01*
X89532Y79566D01*
X88829Y80882D01*
X87882Y82036D01*
X86729Y82982D01*
X85413Y83686D01*
X83985Y84119D01*
X83976Y84120D01*
D02*
G37*
G36*
X81024D02*
X81015Y84119D01*
X79587Y83686D01*
X78271Y82982D01*
X77118Y82036D01*
X76171Y80882D01*
X75468Y79566D01*
X75035Y78139D01*
X75034Y78130D01*
X81024D01*
Y84120D01*
D02*
G37*
G36*
X67441D02*
Y78130D01*
X73431D01*
X73430Y78139D01*
X72997Y79566D01*
X72293Y80882D01*
X71347Y82036D01*
X70193Y82982D01*
X68877Y83686D01*
X67449Y84119D01*
X67441Y84120D01*
D02*
G37*
G36*
X64488D02*
X64480Y84119D01*
X63052Y83686D01*
X61736Y82982D01*
X60583Y82036D01*
X59636Y80882D01*
X58933Y79566D01*
X58499Y78139D01*
X58499Y78130D01*
X64488D01*
Y84120D01*
D02*
G37*
G36*
X176502Y75177D02*
X170512D01*
Y69187D01*
X170520Y69188D01*
X171948Y69621D01*
X173264Y70325D01*
X174418Y71271D01*
X175364Y72425D01*
X176067Y73741D01*
X176501Y75169D01*
X176502Y75177D01*
D02*
G37*
G36*
X89966D02*
X83976D01*
Y69187D01*
X83985Y69188D01*
X85413Y69621D01*
X86729Y70325D01*
X87882Y71271D01*
X88829Y72425D01*
X89532Y73741D01*
X89965Y75169D01*
X89966Y75177D01*
D02*
G37*
G36*
X81024D02*
X75034D01*
X75035Y75169D01*
X75468Y73741D01*
X76171Y72425D01*
X77118Y71271D01*
X78271Y70325D01*
X79587Y69621D01*
X81015Y69188D01*
X81024Y69187D01*
Y75177D01*
D02*
G37*
G36*
X73431D02*
X67441D01*
Y69187D01*
X67449Y69188D01*
X68877Y69621D01*
X70193Y70325D01*
X71347Y71271D01*
X72293Y72425D01*
X72997Y73741D01*
X73430Y75169D01*
X73431Y75177D01*
D02*
G37*
G36*
X64488D02*
X58499D01*
X58499Y75169D01*
X58933Y73741D01*
X59636Y72425D01*
X60583Y71271D01*
X61736Y70325D01*
X63052Y69621D01*
X64480Y69188D01*
X64488Y69187D01*
Y75177D01*
D02*
G37*
G36*
X246949Y75177D02*
X238976D01*
Y69173D01*
X246949D01*
Y75177D01*
D02*
G37*
G36*
X236024D02*
X228051D01*
Y69173D01*
X236024D01*
Y75177D01*
D02*
G37*
G36*
X152500Y63007D02*
X150938Y62853D01*
X149436Y62398D01*
X148052Y61658D01*
X146838Y60662D01*
X145842Y59448D01*
X145102Y58064D01*
X144747Y56891D01*
X143718D01*
X143362Y58064D01*
X142622Y59448D01*
X141626Y60662D01*
X140413Y61658D01*
X139029Y62398D01*
X137527Y62853D01*
X135965Y63007D01*
X134403Y62853D01*
X132900Y62398D01*
X131516Y61658D01*
X130303Y60662D01*
X129307Y59448D01*
X128567Y58064D01*
X128111Y56562D01*
X127957Y55000D01*
X128111Y53438D01*
X128567Y51936D01*
X129307Y50551D01*
X130303Y49338D01*
X131516Y48342D01*
X132900Y47602D01*
X134403Y47147D01*
X135965Y46993D01*
X137527Y47147D01*
X139029Y47602D01*
X140413Y48342D01*
X141626Y49338D01*
X142622Y50551D01*
X143362Y51936D01*
X143718Y53109D01*
X144747D01*
X145102Y51936D01*
X145842Y50551D01*
X146838Y49338D01*
X148052Y48342D01*
X149436Y47602D01*
X150938Y47147D01*
X152500Y46993D01*
X154062Y47147D01*
X155564Y47602D01*
X156948Y48342D01*
X158162Y49338D01*
X159158Y50551D01*
X159898Y51936D01*
X160353Y53438D01*
X160447Y54392D01*
X160471Y54634D01*
X161460D01*
X161484Y54392D01*
X161570Y53515D01*
X162003Y52087D01*
X162707Y50771D01*
X163653Y49618D01*
X164807Y48671D01*
X166123Y47968D01*
X167551Y47535D01*
X167559Y47534D01*
Y55000D01*
Y62466D01*
X167551Y62465D01*
X166123Y62032D01*
X164807Y61329D01*
X163653Y60382D01*
X162707Y59229D01*
X162003Y57913D01*
X161570Y56485D01*
X161484Y55608D01*
X161460Y55366D01*
X160471D01*
X160447Y55608D01*
X160353Y56562D01*
X159898Y58064D01*
X159158Y59448D01*
X158162Y60662D01*
X156948Y61658D01*
X155564Y62398D01*
X154062Y62853D01*
X152500Y63007D01*
D02*
G37*
G36*
X82500D02*
X80938Y62853D01*
X79436Y62398D01*
X78052Y61658D01*
X76838Y60662D01*
X75842Y59448D01*
X75102Y58064D01*
X74747Y56891D01*
X73718D01*
X73362Y58064D01*
X72622Y59448D01*
X71626Y60662D01*
X70413Y61658D01*
X69029Y62398D01*
X67527Y62853D01*
X65965Y63007D01*
X64403Y62853D01*
X62900Y62398D01*
X61516Y61658D01*
X60303Y60662D01*
X59307Y59448D01*
X58567Y58064D01*
X58111Y56562D01*
X57958Y55000D01*
X58111Y53438D01*
X58567Y51936D01*
X59307Y50551D01*
X60303Y49338D01*
X61516Y48342D01*
X62900Y47602D01*
X64403Y47147D01*
X65965Y46993D01*
X67527Y47147D01*
X69029Y47602D01*
X70413Y48342D01*
X71626Y49338D01*
X72622Y50551D01*
X73362Y51936D01*
X73718Y53109D01*
X74747D01*
X75102Y51936D01*
X75842Y50551D01*
X76838Y49338D01*
X78052Y48342D01*
X79436Y47602D01*
X80938Y47147D01*
X82500Y46993D01*
X84062Y47147D01*
X85564Y47602D01*
X86949Y48342D01*
X88162Y49338D01*
X89158Y50551D01*
X89898Y51936D01*
X90353Y53438D01*
X90507Y55000D01*
X90353Y56562D01*
X89898Y58064D01*
X89158Y59448D01*
X88162Y60662D01*
X86949Y61658D01*
X85564Y62398D01*
X84062Y62853D01*
X82500Y63007D01*
D02*
G37*
G36*
X170512Y62466D02*
Y56476D01*
X176502D01*
X176501Y56485D01*
X176067Y57913D01*
X175364Y59229D01*
X174418Y60382D01*
X173264Y61329D01*
X171948Y62032D01*
X170520Y62465D01*
X170512Y62466D01*
D02*
G37*
G36*
X109921Y64311D02*
X100079D01*
Y63105D01*
X99692Y62808D01*
X99061Y61985D01*
X98664Y61028D01*
X98529Y60000D01*
X98664Y58972D01*
X99061Y58015D01*
X99692Y57192D01*
X100079Y56895D01*
Y54469D01*
X109921D01*
Y64311D01*
D02*
G37*
G36*
X10000Y66203D02*
X8302Y66036D01*
X6669Y65541D01*
X5165Y64736D01*
X3846Y63654D01*
X2763Y62335D01*
X1959Y60831D01*
X1464Y59198D01*
X1297Y57500D01*
X1464Y55802D01*
X1959Y54169D01*
X2763Y52665D01*
X3846Y51346D01*
X5165Y50264D01*
X6669Y49459D01*
X8302Y48964D01*
X10000Y48797D01*
X11698Y48964D01*
X13331Y49459D01*
X14835Y50264D01*
X16154Y51346D01*
X17236Y52665D01*
X18041Y54169D01*
X18536Y55802D01*
X18703Y57500D01*
X18536Y59198D01*
X18041Y60831D01*
X17236Y62335D01*
X16154Y63654D01*
X14835Y64736D01*
X13331Y65541D01*
X11698Y66036D01*
X10000Y66203D01*
D02*
G37*
G36*
X176502Y53524D02*
X170512D01*
Y47534D01*
X170520Y47535D01*
X171948Y47968D01*
X173264Y48671D01*
X174418Y49618D01*
X175364Y50771D01*
X176067Y52087D01*
X176501Y53515D01*
X176502Y53524D01*
D02*
G37*
G36*
X239469Y62912D02*
X235531D01*
X233988Y62760D01*
X232504Y62310D01*
X231136Y61579D01*
X229937Y60595D01*
X228953Y59396D01*
X228222Y58028D01*
X227771Y56544D01*
X227619Y55000D01*
X227771Y53456D01*
X228222Y51972D01*
X228953Y50604D01*
X229937Y49405D01*
X231136Y48421D01*
X232504Y47690D01*
X233988Y47240D01*
X235531Y47088D01*
X239469D01*
X241012Y47240D01*
X242496Y47690D01*
X243864Y48421D01*
X245063Y49405D01*
X246047Y50604D01*
X246778Y51972D01*
X247229Y53456D01*
X247381Y55000D01*
X247229Y56544D01*
X246778Y58028D01*
X246047Y59396D01*
X245063Y60595D01*
X243864Y61579D01*
X242496Y62310D01*
X241012Y62760D01*
X239469Y62912D01*
D02*
G37*
G36*
X108953Y49563D02*
X105500D01*
Y46110D01*
X108953D01*
Y49563D01*
D02*
G37*
G36*
X104500D02*
X101047D01*
Y46110D01*
X104500D01*
Y49563D01*
D02*
G37*
G36*
X20000Y87912D02*
X18456Y87760D01*
X16972Y87310D01*
X15604Y86579D01*
X14405Y85595D01*
X13421Y84396D01*
X12690Y83028D01*
X12240Y81544D01*
X12088Y80000D01*
X12240Y78456D01*
X12690Y76972D01*
X13421Y75604D01*
X14405Y74405D01*
X23729Y65082D01*
X23298Y63290D01*
X23153Y61437D01*
Y57500D01*
X23298Y55647D01*
X23732Y53839D01*
X24444Y52121D01*
X25415Y50536D01*
X26623Y49123D01*
X28036Y47915D01*
X29621Y46944D01*
X31339Y46232D01*
X33147Y45798D01*
X35000Y45652D01*
X36853Y45798D01*
X38661Y46232D01*
X40379Y46944D01*
X41964Y47915D01*
X43378Y49123D01*
X44585Y50536D01*
X45556Y52121D01*
X46268Y53839D01*
X46702Y55647D01*
X46848Y57500D01*
Y61437D01*
X46702Y63290D01*
X46268Y65098D01*
X45556Y66816D01*
X44585Y68401D01*
X43378Y69814D01*
X41964Y71022D01*
X40379Y71993D01*
X38661Y72705D01*
X38429Y72760D01*
X25595Y85595D01*
X24396Y86579D01*
X23028Y87310D01*
X21544Y87760D01*
X20000Y87912D01*
D02*
G37*
G36*
X261453Y48342D02*
X258000D01*
Y44890D01*
X261453D01*
Y48342D01*
D02*
G37*
G36*
X257000D02*
X253547D01*
Y44890D01*
X257000D01*
Y48342D01*
D02*
G37*
G36*
X108953Y45110D02*
X105500D01*
Y41658D01*
X108953D01*
Y45110D01*
D02*
G37*
G36*
X104500D02*
X101047D01*
Y41658D01*
X104500D01*
Y45110D01*
D02*
G37*
G36*
X261453Y43890D02*
X258000D01*
Y40437D01*
X261453D01*
Y43890D01*
D02*
G37*
G36*
X257000D02*
X253547D01*
Y40437D01*
X257000D01*
Y43890D01*
D02*
G37*
G36*
X36968Y44174D02*
Y32500D01*
X46848D01*
Y32500D01*
X46702Y34353D01*
X46268Y36161D01*
X45556Y37879D01*
X44585Y39464D01*
X43378Y40878D01*
X41964Y42085D01*
X40379Y43056D01*
X38661Y43768D01*
X36968Y44174D01*
D02*
G37*
G36*
X33031Y44174D02*
X31339Y43768D01*
X29621Y43056D01*
X28036Y42085D01*
X26623Y40878D01*
X25415Y39464D01*
X24444Y37879D01*
X23732Y36161D01*
X23298Y34353D01*
X23153Y32500D01*
Y32500D01*
X33031D01*
Y44174D01*
D02*
G37*
G36*
X237500Y34172D02*
X235956Y34020D01*
X234472Y33570D01*
X233104Y32838D01*
X231905Y31855D01*
X230921Y30656D01*
X230190Y29288D01*
X229740Y27803D01*
X229588Y26260D01*
X229740Y24716D01*
X230190Y23232D01*
X230921Y21864D01*
X231905Y20665D01*
X233104Y19681D01*
X234472Y18950D01*
X235956Y18500D01*
X237500Y18348D01*
X239044Y18500D01*
X240528Y18950D01*
X241896Y19681D01*
X243095Y20665D01*
X244079Y21864D01*
X244810Y23232D01*
X245260Y24716D01*
X245412Y26260D01*
X245260Y27803D01*
X244810Y29288D01*
X244079Y30656D01*
X243095Y31855D01*
X241896Y32838D01*
X240528Y33570D01*
X239044Y34020D01*
X237500Y34172D01*
D02*
G37*
G36*
X169035D02*
X167492Y34020D01*
X166008Y33570D01*
X164640Y32838D01*
X163441Y31855D01*
X162457Y30656D01*
X161726Y29288D01*
X161275Y27803D01*
X161123Y26260D01*
X161275Y24716D01*
X161726Y23232D01*
X162457Y21864D01*
X163441Y20665D01*
X164640Y19681D01*
X166008Y18950D01*
X167492Y18500D01*
X169035Y18348D01*
X170579Y18500D01*
X172063Y18950D01*
X173431Y19681D01*
X174630Y20665D01*
X175614Y21864D01*
X176345Y23232D01*
X176795Y24716D01*
X176948Y26260D01*
X176795Y27803D01*
X176345Y29288D01*
X175614Y30656D01*
X174630Y31855D01*
X173431Y32838D01*
X172063Y33570D01*
X170579Y34020D01*
X169035Y34172D01*
D02*
G37*
G36*
X135965D02*
X134421Y34020D01*
X132937Y33570D01*
X131569Y32838D01*
X130370Y31855D01*
X129386Y30656D01*
X128655Y29288D01*
X128205Y27803D01*
X128052Y26260D01*
X128205Y24716D01*
X128655Y23232D01*
X129386Y21864D01*
X130370Y20665D01*
X131569Y19681D01*
X132937Y18950D01*
X134421Y18500D01*
X135965Y18348D01*
X137508Y18500D01*
X138992Y18950D01*
X140360Y19681D01*
X141559Y20665D01*
X142543Y21864D01*
X143274Y23232D01*
X143725Y24716D01*
X143877Y26260D01*
X143725Y27803D01*
X143274Y29288D01*
X142543Y30656D01*
X141559Y31855D01*
X140360Y32838D01*
X138992Y33570D01*
X137508Y34020D01*
X135965Y34172D01*
D02*
G37*
G36*
X74232D02*
X72689Y34020D01*
X71205Y33570D01*
X69837Y32838D01*
X68638Y31855D01*
X67654Y30656D01*
X66922Y29288D01*
X66472Y27803D01*
X66320Y26260D01*
X66472Y24716D01*
X66922Y23232D01*
X67654Y21864D01*
X68638Y20665D01*
X69837Y19681D01*
X71205Y18950D01*
X72689Y18500D01*
X74232Y18348D01*
X75776Y18500D01*
X77260Y18950D01*
X78628Y19681D01*
X79827Y20665D01*
X80811Y21864D01*
X81542Y23232D01*
X81992Y24716D01*
X82144Y26260D01*
X81992Y27803D01*
X81542Y29288D01*
X80811Y30656D01*
X79827Y31855D01*
X78628Y32838D01*
X77260Y33570D01*
X75776Y34020D01*
X74232Y34172D01*
D02*
G37*
G36*
X46848Y28563D02*
X36968D01*
Y16889D01*
X38661Y17295D01*
X40379Y18007D01*
X41964Y18978D01*
X43378Y20186D01*
X44585Y21599D01*
X45556Y23184D01*
X46268Y24902D01*
X46702Y26710D01*
X46848Y28563D01*
D02*
G37*
G36*
X33031D02*
X23153D01*
X23298Y26710D01*
X23732Y24902D01*
X24444Y23184D01*
X25415Y21599D01*
X26623Y20186D01*
X28036Y18978D01*
X29621Y18007D01*
X31339Y17295D01*
X33031Y16889D01*
Y28563D01*
D02*
G37*
%LPD*%
D10*
X197500Y153110D02*
D03*
Y166890D02*
D03*
X265000Y130610D02*
D03*
Y144390D02*
D03*
X162500Y111890D02*
D03*
Y98110D02*
D03*
X137500Y113110D02*
D03*
Y126890D02*
D03*
X125000Y111890D02*
D03*
Y98110D02*
D03*
X100000Y113110D02*
D03*
Y126890D02*
D03*
X257500Y30610D02*
D03*
Y44390D02*
D03*
X200000Y90610D02*
D03*
Y104390D02*
D03*
X7500Y273110D02*
D03*
Y286890D02*
D03*
X17500D02*
D03*
Y273110D02*
D03*
X105000Y59390D02*
D03*
Y45610D02*
D03*
D11*
X103110Y242500D02*
D03*
X116890D02*
D03*
X131890Y262500D02*
D03*
X118110D02*
D03*
X103110Y280000D02*
D03*
X116890D02*
D03*
X132436Y300066D02*
D03*
X118657D02*
D03*
X103110Y205000D02*
D03*
X116890D02*
D03*
X131890Y222500D02*
D03*
X118110D02*
D03*
X168110Y245000D02*
D03*
X181890D02*
D03*
Y220000D02*
D03*
X168110D02*
D03*
X181890Y270000D02*
D03*
X168110D02*
D03*
X181890Y295000D02*
D03*
X168110D02*
D03*
X167500Y207500D02*
D03*
D16*
X9500Y243406D02*
D03*
Y231594D02*
D03*
D17*
X90000Y107500D02*
Y140000D01*
D18*
X18524Y168976D02*
X20000D01*
X7500Y180000D02*
X18524Y168976D01*
X7500Y180000D02*
Y212500D01*
D19*
X131890Y294390D02*
Y300000D01*
X127500Y290000D02*
X131890Y294390D01*
X102500Y285610D02*
X106890Y290000D01*
X102500Y282500D02*
Y285610D01*
X103110Y213110D02*
X105000Y215000D01*
X107500D01*
X80000Y257500D02*
Y262500D01*
X77500Y255000D02*
X80000Y257500D01*
X35000Y255000D02*
X77500D01*
X12500Y243406D02*
Y252500D01*
X9500Y243406D02*
X12500D01*
Y252500D02*
X15000Y255000D01*
X35000D01*
X37500Y257500D01*
Y262500D01*
X7500Y229594D02*
X9500Y231594D01*
X7500Y212500D02*
Y229594D01*
X103110Y205000D02*
Y213110D01*
Y245000D02*
Y248110D01*
X107500Y252500D01*
X265000Y120000D02*
Y130610D01*
X127500Y252500D02*
X131890Y256890D01*
Y262500D01*
X154390Y98110D02*
X162500D01*
X150000Y102500D02*
X154390Y98110D01*
X137500Y126890D02*
X145610D01*
X150000Y122500D01*
X116890Y98110D02*
X125000D01*
X112500Y102500D02*
X116890Y98110D01*
X100000Y126890D02*
X108110D01*
X112500Y122500D01*
X127195Y215305D02*
X131890Y220000D01*
X7500Y286890D02*
X17500D01*
Y257500D02*
Y273110D01*
X15000Y255000D02*
X17500Y257500D01*
X185000Y150000D02*
X195000D01*
Y153110D01*
D21*
X35000Y57500D02*
Y65000D01*
X20000Y80000D02*
X35000Y65000D01*
D23*
X237500Y26260D02*
D03*
X135965D02*
D03*
X169035D02*
D03*
X74232D02*
D03*
D24*
X237500Y55000D02*
D03*
D25*
Y76653D02*
D03*
D26*
X238071Y267657D02*
D03*
Y277500D02*
D03*
X157500Y207500D02*
D03*
X77342Y279900D02*
D03*
X67500D02*
D03*
X44842D02*
D03*
X35000D02*
D03*
X238000Y222500D02*
D03*
Y242500D02*
D03*
Y232658D02*
D03*
D27*
X152500Y76653D02*
D03*
X135965Y55000D02*
D03*
X152500D02*
D03*
X169035D02*
D03*
Y76653D02*
D03*
X135965D02*
D03*
X82500D02*
D03*
X65965Y55000D02*
D03*
X82500D02*
D03*
X65965Y76653D02*
D03*
D28*
X35000Y59469D02*
D03*
Y30531D02*
D03*
D29*
X10000Y32500D02*
D03*
Y57500D02*
D03*
D30*
X112500Y182500D02*
D03*
X125886D02*
D03*
X160886D02*
D03*
X147500D02*
D03*
D31*
X20000Y168976D02*
D03*
Y80000D02*
D03*
D32*
Y125000D02*
D03*
X7500Y212500D02*
D03*
X37500Y202500D02*
D03*
X50000Y212500D02*
D03*
X80000Y202500D02*
D03*
D33*
X37500Y262500D02*
D03*
X7500D02*
D03*
X80000D02*
D03*
X50000D02*
D03*
D34*
X127500Y252500D02*
D03*
X117500D02*
D03*
X107500D02*
D03*
X127500Y290000D02*
D03*
X117500D02*
D03*
X107500D02*
D03*
X127500Y215000D02*
D03*
X117500D02*
D03*
X107500D02*
D03*
X112500Y102500D02*
D03*
Y112500D02*
D03*
Y122500D02*
D03*
X150000Y102500D02*
D03*
Y112500D02*
D03*
Y122500D02*
D03*
D35*
X185000Y200000D02*
D03*
X265000D02*
D03*
Y160000D02*
D03*
Y120000D02*
D03*
X185000Y170000D02*
D03*
Y150000D02*
D03*
D36*
X11811Y303150D02*
D03*
Y11811D02*
D03*
X263779Y303150D02*
D03*
Y11811D02*
D03*
D37*
X90000Y140000D02*
D03*
Y132500D02*
D03*
Y105000D02*
D03*
Y112500D02*
D03*
X65000Y102500D02*
D03*
X72500D02*
D03*
X80000D02*
D03*
D38*
X7500Y270000D02*
D03*
X165000Y245000D02*
D03*
Y270000D02*
D03*
Y295000D02*
D03*
Y220000D02*
D03*
X200000Y107500D02*
D03*
X102500Y60000D02*
D03*
X257500Y27500D02*
D03*
M02*
