G04 Layer_Color=8388736*
%FSLAX25Y25*%
%MOIN*%
G70*
G01*
G75*
%ADD45R,0.06706X0.06706*%
%ADD46R,0.06706X0.06706*%
%ADD47R,0.09855X0.09855*%
%ADD48R,0.07099X0.12611*%
%ADD49R,0.27178X0.27178*%
%ADD50R,0.06706X0.11036*%
%ADD51R,0.11036X0.06706*%
%ADD52C,0.12611*%
%ADD53O,0.16548X0.12611*%
%ADD54R,0.16548X0.12611*%
%ADD55C,0.06706*%
%ADD56C,0.12800*%
%ADD57O,0.20485X0.24422*%
%ADD58C,0.14186*%
%ADD59O,0.07800X0.12800*%
%ADD60O,0.10642X0.08674*%
%ADD61C,0.08674*%
%ADD62C,0.08800*%
%ADD63C,0.06800*%
%ADD64C,0.10642*%
%ADD65C,0.21745*%
%ADD66C,0.05800*%
%ADD67C,0.04737*%
D45*
X7500Y273110D02*
D03*
Y286890D02*
D03*
X257500Y44390D02*
D03*
Y30610D02*
D03*
X200000Y104390D02*
D03*
Y90610D02*
D03*
D46*
X181890Y220000D02*
D03*
X168110D02*
D03*
Y270000D02*
D03*
X181890D02*
D03*
Y295000D02*
D03*
X168110D02*
D03*
Y245000D02*
D03*
X181890D02*
D03*
X105610Y60000D02*
D03*
X119390D02*
D03*
X167500Y207500D02*
D03*
D47*
X218858Y280000D02*
D03*
X201142D02*
D03*
Y257500D02*
D03*
X218858D02*
D03*
D48*
X99000Y185453D02*
D03*
X81000D02*
D03*
X64000D02*
D03*
X46000D02*
D03*
D49*
X90000Y154547D02*
D03*
X55000D02*
D03*
D50*
X106595Y72500D02*
D03*
X118405D02*
D03*
X169095Y257500D02*
D03*
X180905D02*
D03*
X169095Y282500D02*
D03*
X180905D02*
D03*
X169095Y307500D02*
D03*
X180905D02*
D03*
X169095Y232500D02*
D03*
X180905D02*
D03*
D51*
X187500Y103405D02*
D03*
Y91594D02*
D03*
D52*
X237500Y26260D02*
D03*
X135965D02*
D03*
X169035D02*
D03*
X74232D02*
D03*
D53*
X237500Y55000D02*
D03*
D54*
Y76653D02*
D03*
D55*
X238071Y267657D02*
D03*
Y277500D02*
D03*
X157500Y207500D02*
D03*
X77342Y279900D02*
D03*
X67500D02*
D03*
X44842D02*
D03*
X35000D02*
D03*
X238000Y222500D02*
D03*
Y242500D02*
D03*
Y232658D02*
D03*
D56*
X152500Y76653D02*
D03*
X135965Y55000D02*
D03*
X152500D02*
D03*
X169035D02*
D03*
Y76653D02*
D03*
X135965D02*
D03*
X82500D02*
D03*
X65965Y55000D02*
D03*
X82500D02*
D03*
X65965Y76653D02*
D03*
D57*
X35000Y59469D02*
D03*
Y30531D02*
D03*
D58*
X10000Y32500D02*
D03*
Y57500D02*
D03*
D59*
X112500Y182500D02*
D03*
X125886D02*
D03*
X160886D02*
D03*
X147500D02*
D03*
D60*
X20000Y168976D02*
D03*
Y80000D02*
D03*
D61*
Y125000D02*
D03*
X7500Y212500D02*
D03*
X37500Y202500D02*
D03*
X50000Y212500D02*
D03*
X80000Y202500D02*
D03*
D62*
X37500Y262500D02*
D03*
X7500D02*
D03*
X80000D02*
D03*
X50000D02*
D03*
D63*
X127500Y252500D02*
D03*
X117500D02*
D03*
X107500D02*
D03*
X127500Y290000D02*
D03*
X117500D02*
D03*
X107500D02*
D03*
X127500Y215000D02*
D03*
X117500D02*
D03*
X107500D02*
D03*
X112500Y102500D02*
D03*
Y112500D02*
D03*
Y122500D02*
D03*
X150000Y102500D02*
D03*
Y112500D02*
D03*
Y122500D02*
D03*
D64*
X185000Y200000D02*
D03*
X265000D02*
D03*
Y160000D02*
D03*
Y120000D02*
D03*
X185000Y170000D02*
D03*
Y150000D02*
D03*
D65*
X11811Y303150D02*
D03*
Y11811D02*
D03*
X263779Y303150D02*
D03*
Y11811D02*
D03*
D66*
X90000Y140000D02*
D03*
Y132500D02*
D03*
Y105000D02*
D03*
Y112500D02*
D03*
X65000Y102500D02*
D03*
X72500D02*
D03*
X80000D02*
D03*
D67*
X7500Y270000D02*
D03*
X165000Y245000D02*
D03*
Y270000D02*
D03*
Y295000D02*
D03*
Y220000D02*
D03*
X200000Y107500D02*
D03*
X102500Y60000D02*
D03*
X257500Y27500D02*
D03*
M02*
