M48
;Layer_Color=9474304
;FILE_FORMAT=2:5
INCH,TZ
;TYPE=PLATED
T1F00S00C0.01968
T2F00S00C0.02800
T3F00S00C0.03000
T4F00S00C0.03543
T5F00S00C0.04000
T6F00S00C0.04331
T7F00S00C0.05906
T8F00S00C0.05906
T9F00S00C0.07087
T10F00S00C0.11811
T11F00S00C0.12598
T12F00S00C0.13386
;TYPE=NON_PLATED
T13F00S00C0.11811
T14F00S00C0.12598
%
T01
X102500Y60000
X257500Y27500
X200000Y107500
X165000Y220000
X7500Y270000
X165000
Y245000
Y295000
T02
X65000Y102500
X72500
X80000
X90000Y105000
Y112500
Y132500
Y140000
T03
X150000Y102500
Y112500
Y122500
X112500
Y112500
Y102500
X117500Y215000
X127500
X107500
Y252500
X117500
X127500
Y290000
X117500
X107500
T04
X157500Y207500
X167500
X238000Y222500
Y232658
X77342Y279900
X67500
X44842
X35000
X238071Y277500
Y267657
X238000Y242500
T05
X147500Y182500
X160886
X125886
X112500
T06
X7500Y212500
X37500Y202500
X50000Y212500
X80000Y202500
Y262500
X50000
X37500
X7500
T07
X185000Y150000
Y170000
Y200000
X265000
Y160000
Y120000
T08
X20000Y80000
Y168976
T09
X65965Y55000
X82500
Y76653
X65965
X135965
Y55000
X152500
X169035
Y76653
X152500
X237500
Y55000
T10
X20000Y125000
T11
X35000Y32500
Y57500
T12
X10000Y32500
Y57500
T13
X74232Y26260
X135965
X169035
X237500
T14
X11811Y11811
X263779
X11811Y303150
X263779
M30
