G04 Layer_Color=65535*
%FSLAX25Y25*%
%MOIN*%
G70*
G01*
G75*
%ADD39C,0.01000*%
%ADD40C,0.00500*%
%ADD41C,0.00591*%
%ADD42C,0.00787*%
%ADD43C,0.00394*%
%ADD44C,0.00100*%
D39*
X135335Y182500D02*
X135303Y183503D01*
X135210Y184503D01*
X135054Y185495D01*
X134837Y186475D01*
X134560Y187440D01*
X134223Y188386D01*
X133828Y189309D01*
X133377Y190206D01*
X132870Y191073D01*
X132311Y191906D01*
X131700Y192704D01*
X131042Y193462D01*
X130338Y194177D01*
X129590Y194847D01*
X128802Y195470D01*
X127977Y196042D01*
X127118Y196562D01*
X126229Y197028D01*
X125312Y197437D01*
X124372Y197788D01*
X123411Y198081D01*
X122434Y198313D01*
X121445Y198484D01*
X120447Y198593D01*
X119444Y198640D01*
X118440Y198624D01*
X117439Y198546D01*
X116445Y198406D01*
X115461Y198205D01*
X114492Y197942D01*
X113541Y197620D01*
X112612Y197239D01*
X111709Y196802D01*
X110834Y196309D01*
X109992Y195762D01*
X109185Y195165D01*
X108417Y194518D01*
X107691Y193825D01*
X107009Y193088D01*
X106374Y192310D01*
X105789Y191494D01*
X105256Y190643D01*
X104777Y189761D01*
X104353Y188851D01*
X103987Y187916D01*
X103680Y186960D01*
X103432Y185987D01*
X103246Y185000D01*
X103121Y184004D01*
X103059Y183002D01*
Y181998D01*
X103121Y180996D01*
X103246Y180000D01*
X103432Y179013D01*
X103680Y178040D01*
X103987Y177084D01*
X104353Y176149D01*
X104777Y175239D01*
X105256Y174357D01*
X105789Y173506D01*
X106374Y172690D01*
X107009Y171912D01*
X107691Y171175D01*
X108417Y170482D01*
X109185Y169835D01*
X109992Y169238D01*
X110834Y168691D01*
X111709Y168198D01*
X112612Y167761D01*
X113541Y167380D01*
X114492Y167058D01*
X115461Y166796D01*
X116445Y166594D01*
X117439Y166454D01*
X118440Y166376D01*
X119444Y166360D01*
X120447Y166407D01*
X121445Y166516D01*
X122434Y166687D01*
X123411Y166919D01*
X124372Y167212D01*
X125312Y167563D01*
X126229Y167972D01*
X127119Y168438D01*
X127977Y168958D01*
X128802Y169530D01*
X129590Y170153D01*
X130338Y170823D01*
X131042Y171538D01*
X131701Y172296D01*
X132311Y173094D01*
X132870Y173927D01*
X133377Y174794D01*
X133828Y175691D01*
X134223Y176614D01*
X134560Y177560D01*
X134837Y178525D01*
X135054Y179505D01*
X135210Y180497D01*
X135303Y181497D01*
X135335Y182500D01*
X170335D02*
X170303Y183503D01*
X170210Y184503D01*
X170054Y185495D01*
X169837Y186475D01*
X169560Y187440D01*
X169223Y188386D01*
X168828Y189309D01*
X168377Y190206D01*
X167870Y191073D01*
X167311Y191906D01*
X166700Y192704D01*
X166042Y193462D01*
X165338Y194177D01*
X164590Y194847D01*
X163802Y195470D01*
X162977Y196042D01*
X162118Y196562D01*
X161229Y197028D01*
X160312Y197437D01*
X159372Y197788D01*
X158411Y198081D01*
X157434Y198313D01*
X156445Y198484D01*
X155447Y198593D01*
X154444Y198640D01*
X153440Y198624D01*
X152439Y198546D01*
X151445Y198406D01*
X150461Y198205D01*
X149492Y197942D01*
X148541Y197620D01*
X147612Y197239D01*
X146709Y196802D01*
X145834Y196309D01*
X144992Y195762D01*
X144185Y195165D01*
X143417Y194518D01*
X142691Y193825D01*
X142009Y193088D01*
X141374Y192310D01*
X140789Y191494D01*
X140256Y190643D01*
X139777Y189761D01*
X139353Y188851D01*
X138987Y187916D01*
X138680Y186960D01*
X138432Y185987D01*
X138246Y185000D01*
X138121Y184004D01*
X138059Y183002D01*
Y181998D01*
X138121Y180996D01*
X138246Y180000D01*
X138432Y179013D01*
X138680Y178040D01*
X138987Y177084D01*
X139353Y176149D01*
X139777Y175239D01*
X140256Y174357D01*
X140789Y173506D01*
X141374Y172690D01*
X142009Y171912D01*
X142691Y171175D01*
X143417Y170482D01*
X144185Y169835D01*
X144992Y169238D01*
X145834Y168691D01*
X146709Y168198D01*
X147612Y167761D01*
X148541Y167380D01*
X149492Y167058D01*
X150461Y166796D01*
X151445Y166594D01*
X152439Y166454D01*
X153440Y166376D01*
X154444Y166360D01*
X155447Y166407D01*
X156445Y166516D01*
X157434Y166687D01*
X158411Y166919D01*
X159372Y167212D01*
X160312Y167563D01*
X161229Y167972D01*
X162118Y168438D01*
X162977Y168958D01*
X163802Y169530D01*
X164590Y170153D01*
X165338Y170823D01*
X166042Y171538D01*
X166700Y172296D01*
X167311Y173094D01*
X167870Y173927D01*
X168377Y174794D01*
X168828Y175691D01*
X169223Y176614D01*
X169560Y177560D01*
X169837Y178525D01*
X170054Y179505D01*
X170210Y180497D01*
X170303Y181497D01*
X170335Y182500D01*
X108024Y247100D02*
X107388Y247467D01*
Y246733D01*
X108024Y247100D01*
Y284600D02*
X107388Y284967D01*
Y284233D01*
X108024Y284600D01*
Y209600D02*
X107388Y209967D01*
Y209233D01*
X108024Y209600D01*
X22284Y303150D02*
X22236Y304145D01*
X22094Y305132D01*
X21859Y306100D01*
X21533Y307042D01*
X21119Y307948D01*
X20621Y308811D01*
X20043Y309623D01*
X19390Y310376D01*
X18669Y311064D01*
X17886Y311680D01*
X17047Y312219D01*
X16161Y312676D01*
X15236Y313046D01*
X14280Y313327D01*
X13301Y313515D01*
X12309Y313610D01*
X11313D01*
X10321Y313515D01*
X9342Y313327D01*
X8386Y313046D01*
X7461Y312676D01*
X6575Y312219D01*
X5736Y311680D01*
X4953Y311064D01*
X4232Y310376D01*
X3579Y309623D01*
X3001Y308811D01*
X2503Y307948D01*
X2089Y307042D01*
X1763Y306100D01*
X1528Y305132D01*
X1386Y304145D01*
X1339Y303150D01*
X1386Y302154D01*
X1528Y301168D01*
X1763Y300199D01*
X2089Y299257D01*
X2503Y298351D01*
X3001Y297488D01*
X3579Y296676D01*
X4232Y295923D01*
X4953Y295235D01*
X5736Y294619D01*
X6575Y294080D01*
X7461Y293623D01*
X8386Y293253D01*
X9342Y292972D01*
X10321Y292784D01*
X11313Y292689D01*
X12309D01*
X13301Y292784D01*
X14280Y292972D01*
X15236Y293253D01*
X16161Y293623D01*
X17047Y294080D01*
X17886Y294619D01*
X18669Y295235D01*
X19390Y295923D01*
X20043Y296676D01*
X20621Y297488D01*
X21119Y298351D01*
X21533Y299257D01*
X21859Y300199D01*
X22094Y301168D01*
X22236Y302154D01*
X22284Y303150D01*
Y11811D02*
X22236Y12807D01*
X22094Y13793D01*
X21859Y14761D01*
X21533Y15703D01*
X21119Y16610D01*
X20621Y17473D01*
X20043Y18285D01*
X19390Y19038D01*
X18669Y19726D01*
X17886Y20342D01*
X17047Y20880D01*
X16161Y21337D01*
X15236Y21708D01*
X14280Y21988D01*
X13301Y22177D01*
X12309Y22272D01*
X11313D01*
X10321Y22177D01*
X9342Y21988D01*
X8386Y21708D01*
X7461Y21337D01*
X6575Y20880D01*
X5736Y20342D01*
X4953Y19726D01*
X4232Y19038D01*
X3579Y18285D01*
X3001Y17473D01*
X2503Y16610D01*
X2089Y15703D01*
X1763Y14761D01*
X1528Y13793D01*
X1386Y12807D01*
X1339Y11811D01*
X1386Y10816D01*
X1528Y9829D01*
X1763Y8861D01*
X2089Y7919D01*
X2503Y7012D01*
X3001Y6149D01*
X3579Y5337D01*
X4232Y4584D01*
X4953Y3897D01*
X5736Y3280D01*
X6575Y2742D01*
X7461Y2285D01*
X8386Y1915D01*
X9342Y1634D01*
X10321Y1445D01*
X11313Y1350D01*
X12309D01*
X13301Y1445D01*
X14280Y1634D01*
X15236Y1915D01*
X16161Y2285D01*
X17047Y2742D01*
X17886Y3280D01*
X18669Y3897D01*
X19390Y4584D01*
X20043Y5337D01*
X20621Y6149D01*
X21119Y7012D01*
X21533Y7919D01*
X21859Y8861D01*
X22094Y9829D01*
X22236Y10816D01*
X22284Y11811D01*
X107524Y122400D02*
X106888Y122767D01*
Y122033D01*
X107524Y122400D01*
X145024D02*
X144388Y122767D01*
Y122033D01*
X145024Y122400D01*
X274252Y303150D02*
X274205Y304145D01*
X274063Y305132D01*
X273828Y306100D01*
X273502Y307042D01*
X273088Y307948D01*
X272589Y308811D01*
X272011Y309623D01*
X271359Y310376D01*
X270637Y311064D01*
X269854Y311680D01*
X269016Y312219D01*
X268130Y312676D01*
X267205Y313046D01*
X266248Y313327D01*
X265270Y313515D01*
X264278Y313610D01*
X263281D01*
X262289Y313515D01*
X261311Y313327D01*
X260354Y313046D01*
X259429Y312676D01*
X258543Y312219D01*
X257705Y311680D01*
X256922Y311064D01*
X256200Y310376D01*
X255548Y309623D01*
X254970Y308811D01*
X254471Y307948D01*
X254057Y307042D01*
X253731Y306100D01*
X253496Y305132D01*
X253355Y304145D01*
X253307Y303150D01*
X253355Y302154D01*
X253496Y301168D01*
X253731Y300199D01*
X254057Y299257D01*
X254471Y298351D01*
X254970Y297488D01*
X255548Y296676D01*
X256200Y295923D01*
X256922Y295235D01*
X257705Y294619D01*
X258543Y294080D01*
X259429Y293623D01*
X260354Y293253D01*
X261311Y292972D01*
X262289Y292784D01*
X263281Y292689D01*
X264278D01*
X265270Y292784D01*
X266248Y292972D01*
X267205Y293253D01*
X268130Y293623D01*
X269016Y294080D01*
X269854Y294619D01*
X270637Y295235D01*
X271359Y295923D01*
X272011Y296676D01*
X272589Y297488D01*
X273088Y298351D01*
X273502Y299257D01*
X273828Y300199D01*
X274063Y301168D01*
X274205Y302154D01*
X274252Y303150D01*
Y11811D02*
X274205Y12807D01*
X274063Y13793D01*
X273828Y14761D01*
X273502Y15703D01*
X273088Y16610D01*
X272589Y17473D01*
X272011Y18285D01*
X271359Y19038D01*
X270637Y19726D01*
X269854Y20342D01*
X269016Y20880D01*
X268130Y21337D01*
X267205Y21708D01*
X266248Y21988D01*
X265270Y22177D01*
X264278Y22272D01*
X263281D01*
X262289Y22177D01*
X261311Y21988D01*
X260354Y21708D01*
X259429Y21337D01*
X258543Y20880D01*
X257705Y20342D01*
X256922Y19726D01*
X256200Y19038D01*
X255548Y18285D01*
X254970Y17473D01*
X254471Y16610D01*
X254057Y15703D01*
X253731Y14761D01*
X253496Y13793D01*
X253355Y12807D01*
X253307Y11811D01*
X253355Y10816D01*
X253496Y9829D01*
X253731Y8861D01*
X254057Y7919D01*
X254471Y7012D01*
X254970Y6149D01*
X255548Y5337D01*
X256200Y4584D01*
X256922Y3897D01*
X257705Y3280D01*
X258543Y2742D01*
X259429Y2285D01*
X260354Y1915D01*
X261311Y1634D01*
X262289Y1445D01*
X263281Y1350D01*
X264278D01*
X265270Y1445D01*
X266248Y1634D01*
X267205Y1915D01*
X268130Y2285D01*
X269016Y2742D01*
X269854Y3280D01*
X270637Y3897D01*
X271359Y4584D01*
X272011Y5337D01*
X272589Y6149D01*
X273088Y7012D01*
X273502Y7919D01*
X273828Y8861D01*
X274063Y9829D01*
X274205Y10816D01*
X274252Y11811D01*
X226870Y49095D02*
X248130D01*
Y276D02*
Y49095D01*
X226870Y21535D02*
Y49095D01*
Y276D02*
Y49095D01*
Y276D02*
X248130D01*
X125335Y50669D02*
X179665D01*
X125335Y276D02*
X179665D01*
X125335D02*
Y50669D01*
X179665Y276D02*
Y50669D01*
X20500Y49000D02*
Y56000D01*
X17000Y52500D02*
X24000D01*
X20500Y34000D02*
Y41000D01*
X8000Y45000D02*
X43500D01*
X119390Y166752D02*
Y198248D01*
Y191358D02*
X119390D01*
X154390D02*
X154390D01*
X154390Y166752D02*
Y198248D01*
X3268Y75000D02*
X35748D01*
Y175000D01*
X3268D02*
X35748D01*
X3268Y75000D02*
Y175000D01*
X2450Y196700D02*
X42550D01*
X2450D02*
Y268300D01*
X42550D01*
Y196700D02*
Y268300D01*
X44950Y196700D02*
X85050D01*
X44950D02*
Y268300D01*
X85050D01*
Y196700D02*
Y268300D01*
X89784Y274700D02*
X144902D01*
X89784Y238579D02*
Y274700D01*
Y238579D02*
X144902D01*
Y274700D01*
X95413Y274547D02*
X141476D01*
X89784Y312200D02*
X144902D01*
X89784Y276079D02*
Y312200D01*
Y276079D02*
X144902D01*
Y312200D01*
X95413Y312047D02*
X141476D01*
X89784Y237200D02*
X144902D01*
X89784Y201079D02*
Y237200D01*
Y201079D02*
X144902D01*
Y237200D01*
X95413Y237047D02*
X141476D01*
X175000Y210000D02*
X275000D01*
X175000Y110000D02*
Y210000D01*
Y110000D02*
X275000D01*
Y210000D01*
X55335Y49000D02*
X93917D01*
X55335Y276D02*
X93917D01*
X55335D02*
Y49000D01*
X93917Y276D02*
Y49000D01*
X134700Y85098D02*
Y140217D01*
X98579D02*
X134700D01*
X98579Y85098D02*
Y140217D01*
Y85098D02*
X134700D01*
X134547Y88524D02*
Y134587D01*
X172200Y85098D02*
Y140217D01*
X136079D02*
X172200D01*
X136079Y85098D02*
Y140217D01*
Y85098D02*
X172200D01*
X172047Y88524D02*
Y134587D01*
X46500Y107000D02*
X74500D01*
X46500Y122000D02*
X74500D01*
Y107000D02*
Y122000D01*
X46500Y107000D02*
Y122000D01*
X148000Y239900D02*
X162400D01*
X148000Y264900D02*
X162400D01*
X148000Y289900D02*
X162400D01*
X148000Y214900D02*
X162400D01*
X60500Y85200D02*
X88500D01*
Y95200D01*
X60500D02*
X88500D01*
X60500Y85200D02*
Y95200D01*
X74500Y85200D02*
Y95200D01*
X60500Y90200D02*
X88500D01*
X182400Y11200D02*
X207500D01*
X190800Y6200D02*
Y16200D01*
X182400Y6200D02*
Y16200D01*
X208100D01*
X182400Y6200D02*
X208100D01*
X199200D02*
Y16200D01*
X208100Y6200D02*
Y16200D01*
X224002Y123512D02*
Y127510D01*
Y125511D01*
X230000D01*
Y129510D02*
X224002D01*
Y132509D01*
X225002Y133509D01*
X227001D01*
X228001Y132509D01*
Y129510D01*
Y131509D02*
X230000Y133509D01*
Y135508D02*
X226001D01*
X224002Y137507D01*
X226001Y139507D01*
X230000D01*
X227001D01*
Y135508D01*
X225002Y145505D02*
X224002Y144505D01*
Y142506D01*
X225002Y141506D01*
X229000D01*
X230000Y142506D01*
Y144505D01*
X229000Y145505D01*
X224002Y150503D02*
Y148504D01*
X225002Y147504D01*
X229000D01*
X230000Y148504D01*
Y150503D01*
X229000Y151503D01*
X225002D01*
X224002Y150503D01*
Y159500D02*
Y163499D01*
Y161500D01*
X230000D01*
X224002Y169497D02*
Y165498D01*
X230000D01*
Y169497D01*
X227001Y165498D02*
Y167498D01*
X230000Y171496D02*
X224002D01*
X230000Y175495D01*
X224002D01*
X230000Y177494D02*
Y179494D01*
Y178494D01*
X224002D01*
X225002Y177494D01*
X224002Y186491D02*
Y182493D01*
X227001D01*
X226001Y184492D01*
Y185492D01*
X227001Y186491D01*
X229000D01*
X230000Y185492D01*
Y183492D01*
X229000Y182493D01*
X224002Y188491D02*
X230000D01*
X228001Y190490D01*
X230000Y192490D01*
X224002D01*
Y194489D02*
Y196488D01*
Y195489D01*
X230000D01*
Y194489D01*
Y196488D01*
X17002Y95999D02*
Y92000D01*
X20001D01*
Y93999D01*
Y92000D01*
X23000D01*
X17002Y97998D02*
X22000D01*
X23000Y98998D01*
Y100997D01*
X22000Y101997D01*
X17002D01*
X18002Y107995D02*
X17002Y106995D01*
Y104996D01*
X18002Y103996D01*
X19001D01*
X20001Y104996D01*
Y106995D01*
X21001Y107995D01*
X22000D01*
X23000Y106995D01*
Y104996D01*
X22000Y103996D01*
X17002Y113993D02*
Y109994D01*
X23000D01*
Y113993D01*
X20001Y109994D02*
Y111994D01*
D40*
X7450Y279350D02*
X9726Y277074D01*
X5147Y277047D02*
X7450Y279350D01*
X119390Y191358D02*
X125295Y197264D01*
X119390Y188406D02*
X127264Y196280D01*
X119390Y185453D02*
X129232Y195295D01*
X119390Y182500D02*
X130445Y193555D01*
X119390Y179547D02*
X131921Y192079D01*
X119390Y176594D02*
X133148Y190352D01*
X119390Y173642D02*
X134124Y188376D01*
X119390Y170689D02*
X134600Y185900D01*
X119390Y167736D02*
X135077Y183423D01*
X121053Y166447D02*
X135053Y180447D01*
X119390Y194311D02*
X122835Y197756D01*
X124500Y167000D02*
X134000Y176500D01*
X159500Y167000D02*
X169000Y176500D01*
X154390Y194311D02*
X157835Y197756D01*
X156053Y166447D02*
X170053Y180447D01*
X154390Y167736D02*
X170077Y183423D01*
X154390Y170689D02*
X169600Y185900D01*
X154390Y173642D02*
X169124Y188376D01*
X154390Y176594D02*
X168148Y190352D01*
X154390Y179547D02*
X166921Y192079D01*
X154390Y182500D02*
X165445Y193555D01*
X154390Y185453D02*
X164232Y195295D01*
X154390Y188406D02*
X162264Y196280D01*
X154390Y191358D02*
X160295Y197264D01*
X175650Y219950D02*
X177926Y222226D01*
X175650Y219950D02*
X177953Y217647D01*
X175650Y269950D02*
X177953Y267647D01*
X175650Y269950D02*
X177926Y272226D01*
X175650Y294950D02*
X177926Y297226D01*
X175650Y294950D02*
X177953Y292647D01*
X175650Y244950D02*
X177953Y242647D01*
X175650Y244950D02*
X177926Y247226D01*
X255274Y40426D02*
X257550Y38150D01*
X259853Y40453D01*
X113150Y59950D02*
X115453Y57647D01*
X113150Y59950D02*
X115426Y62226D01*
X197647Y94547D02*
X199950Y96850D01*
X202226Y94574D01*
X63124Y88949D02*
Y87283D01*
X63957Y86450D01*
X64790Y87283D01*
Y88949D01*
X65623Y86450D02*
X66457D01*
X66040D01*
Y88116D01*
X65623D01*
X67706Y86450D02*
Y88116D01*
X68956D01*
X69372Y87700D01*
Y86450D01*
X70205D02*
Y88949D01*
X71455D01*
X71872Y88533D01*
Y87700D01*
X71455Y87283D01*
X70205D01*
X53544Y119539D02*
X53127Y119955D01*
X52294D01*
X51878Y119539D01*
Y117873D01*
X52294Y117456D01*
X53127D01*
X53544Y117873D01*
Y118706D01*
X52711D01*
X54377Y117456D02*
Y119955D01*
X55626D01*
X56043Y119539D01*
Y118706D01*
X55626Y118289D01*
X54377D01*
X55210D02*
X56043Y117456D01*
X56876Y117040D02*
X58542D01*
X59375Y117456D02*
Y119122D01*
X60208Y119955D01*
X61041Y119122D01*
Y117456D01*
Y118706D01*
X59375D01*
X61874Y119955D02*
Y117456D01*
X63541D01*
X64374Y119955D02*
X65207D01*
X64790D01*
Y117456D01*
X64374D01*
X65207D01*
X66456D02*
Y119955D01*
X67289Y119122D01*
X68122Y119955D01*
Y117456D01*
X48337Y114923D02*
X48754Y115340D01*
X49587D01*
X50003Y114923D01*
Y113257D01*
X49587Y112840D01*
X48754D01*
X48337Y113257D01*
Y114923D01*
X50836Y112840D02*
X51669D01*
X51253D01*
Y115340D01*
X50836Y114923D01*
X52919Y112840D02*
X54585Y114507D01*
X55418Y112840D02*
X56251D01*
X55835D01*
Y115340D01*
X55418Y114923D01*
X59167Y112840D02*
X57501D01*
X59167Y114507D01*
Y114923D01*
X58750Y115340D01*
X57917D01*
X57501Y114923D01*
X60000Y112840D02*
X61666Y114507D01*
X64165Y112840D02*
X62499D01*
X64165Y114507D01*
Y114923D01*
X63749Y115340D01*
X62916D01*
X62499Y114923D01*
X64998D02*
X65415Y115340D01*
X66248D01*
X66664Y114923D01*
Y113257D01*
X66248Y112840D01*
X65415D01*
X64998Y113257D01*
Y114923D01*
X69164Y112840D02*
X67498D01*
X69164Y114507D01*
Y114923D01*
X68747Y115340D01*
X67914D01*
X67498Y114923D01*
X69997D02*
X70413Y115340D01*
X71246D01*
X71663Y114923D01*
Y113257D01*
X71246Y112840D01*
X70413D01*
X69997Y113257D01*
Y114923D01*
X54793Y111141D02*
Y109475D01*
X55626Y108642D01*
X56459Y109475D01*
Y111141D01*
X59792Y110724D02*
X60208Y111141D01*
X61041D01*
X61458Y110724D01*
Y110308D01*
X61041Y109891D01*
X60625D01*
X61041D01*
X61458Y109475D01*
Y109058D01*
X61041Y108642D01*
X60208D01*
X59792Y109058D01*
X62291Y108642D02*
Y109058D01*
X62707D01*
Y108642D01*
X62291D01*
X64374D02*
X65207D01*
X64790D01*
Y111141D01*
X64374Y110724D01*
X151249Y282299D02*
X152249D01*
X151749D01*
Y285298D01*
X151249Y284798D01*
X155748Y285298D02*
X153748D01*
Y283798D01*
X154748Y284298D01*
X155248D01*
X155748Y283798D01*
Y282799D01*
X155248Y282299D01*
X154248D01*
X153748Y282799D01*
X156747Y285298D02*
Y283298D01*
X157747Y282299D01*
X158747Y283298D01*
Y285298D01*
X148500Y280499D02*
Y277500D01*
X150499D01*
X151499D02*
X152499D01*
X151999D01*
Y279499D01*
X151499D01*
X155998Y280499D02*
Y277500D01*
X154498D01*
X153998Y278000D01*
Y278999D01*
X154498Y279499D01*
X155998D01*
X157497D02*
X158497D01*
X158997Y278999D01*
Y277500D01*
X157497D01*
X156997Y278000D01*
X157497Y278500D01*
X158997D01*
X159996Y279499D02*
Y277500D01*
Y278500D01*
X160496Y278999D01*
X160996Y279499D01*
X161496D01*
X155498Y308798D02*
X153499D01*
Y307298D01*
X154498Y307798D01*
X154998D01*
X155498Y307298D01*
Y306299D01*
X154998Y305799D01*
X153999D01*
X153499Y306299D01*
X156498Y308798D02*
Y306799D01*
X157497Y305799D01*
X158497Y306799D01*
Y308798D01*
X149500Y303999D02*
Y301000D01*
X151499D01*
X152499D02*
X153499D01*
X152999D01*
Y302999D01*
X152499D01*
X156998Y303999D02*
Y301000D01*
X155498D01*
X154998Y301500D01*
Y302500D01*
X155498Y302999D01*
X156998D01*
X158497D02*
X159497D01*
X159997Y302500D01*
Y301000D01*
X158497D01*
X157997Y301500D01*
X158497Y302000D01*
X159997D01*
X160996Y302999D02*
Y301000D01*
Y302000D01*
X161496Y302500D01*
X161996Y302999D01*
X162496D01*
X150998Y258299D02*
X151998D01*
X151498D01*
Y261298D01*
X150998Y260798D01*
X155497Y261298D02*
X153497D01*
Y259798D01*
X154497Y260298D01*
X154997D01*
X155497Y259798D01*
Y258799D01*
X154997Y258299D01*
X153997D01*
X153497Y258799D01*
X156496Y261298D02*
Y259298D01*
X157496Y258299D01*
X158496Y259298D01*
Y261298D01*
X148249Y255999D02*
X147749Y256499D01*
X146749D01*
X146250Y255999D01*
Y255499D01*
X146749Y254999D01*
X147749D01*
X148249Y254500D01*
Y254000D01*
X147749Y253500D01*
X146749D01*
X146250Y254000D01*
X149749Y253500D02*
X150748D01*
X151248Y254000D01*
Y254999D01*
X150748Y255499D01*
X149749D01*
X149249Y254999D01*
Y254000D01*
X149749Y253500D01*
X152248D02*
Y255499D01*
X153747D01*
X154247Y254999D01*
Y253500D01*
X155746Y255499D02*
X156746D01*
X157246Y254999D01*
Y253500D01*
X155746D01*
X155247Y254000D01*
X155746Y254500D01*
X157246D01*
X158246Y255499D02*
Y253500D01*
Y254500D01*
X158746Y254999D01*
X159245Y255499D01*
X159745D01*
X161245Y253500D02*
X162744D01*
X163244Y254000D01*
X162744Y254500D01*
X161745D01*
X161245Y254999D01*
X161745Y255499D01*
X163244D01*
X154747Y236798D02*
X152748D01*
Y235298D01*
X153747Y235798D01*
X154247D01*
X154747Y235298D01*
Y234298D01*
X154247Y233799D01*
X153247D01*
X152748Y234298D01*
X155747Y236798D02*
Y234798D01*
X156746Y233799D01*
X157746Y234798D01*
Y236798D01*
X148499Y231999D02*
Y229000D01*
X150498D01*
X151998D02*
X152998D01*
X153497Y229500D01*
Y230499D01*
X152998Y230999D01*
X151998D01*
X151498Y230499D01*
Y229500D01*
X151998Y229000D01*
X155497Y228000D02*
X155997D01*
X156496Y228500D01*
Y230999D01*
X154997D01*
X154497Y230499D01*
Y229500D01*
X154997Y229000D01*
X156496D01*
X157496D02*
X158496D01*
X157996D01*
Y230999D01*
X157496D01*
X161995D02*
X160495D01*
X159995Y230499D01*
Y229500D01*
X160495Y229000D01*
X161995D01*
X256498Y58298D02*
X254499D01*
Y56798D01*
X255498Y57298D01*
X255998D01*
X256498Y56798D01*
Y55799D01*
X255998Y55299D01*
X254998D01*
X254499Y55799D01*
X257498Y58298D02*
Y56299D01*
X258497Y55299D01*
X259497Y56299D01*
Y58298D01*
X253499Y50500D02*
Y53499D01*
X254998D01*
X255498Y52999D01*
Y51999D01*
X254998Y51500D01*
X253499D01*
X254499D02*
X255498Y50500D01*
X256498D02*
Y53499D01*
X257998D01*
X258497Y52999D01*
Y51999D01*
X257998Y51500D01*
X256498D01*
X259497Y50500D02*
X260497D01*
X259997D01*
Y52499D01*
X259497D01*
X188250Y80399D02*
Y82399D01*
X189249Y83398D01*
X190249Y82399D01*
Y80399D01*
Y81899D01*
X188250D01*
X193248Y82399D02*
X191748D01*
X191249Y81899D01*
Y80899D01*
X191748Y80399D01*
X193248D01*
X194747Y82899D02*
Y82399D01*
X194248D01*
X195247D01*
X194747D01*
Y80899D01*
X195247Y80399D01*
X198746D02*
X196747D01*
X198746Y82399D01*
Y82899D01*
X198246Y83398D01*
X197247D01*
X196747Y82899D01*
X107249Y51010D02*
Y53009D01*
X108249Y54009D01*
X109249Y53009D01*
Y51010D01*
Y52509D01*
X107249D01*
X112248Y53009D02*
X110748D01*
X110248Y52509D01*
Y51509D01*
X110748Y51010D01*
X112248D01*
X113747Y53509D02*
Y53009D01*
X113248D01*
X114247D01*
X113747D01*
Y51509D01*
X114247Y51010D01*
X115747D02*
X116746D01*
X116246D01*
Y54009D01*
X115747Y53509D01*
X80032Y93533D02*
X79615Y93949D01*
X78782D01*
X78366Y93533D01*
Y91866D01*
X78782Y91450D01*
X79615D01*
X80032Y91866D01*
Y92699D01*
X79199D01*
X80865Y91450D02*
Y93949D01*
X82531Y91450D01*
Y93949D01*
X83364D02*
Y91450D01*
X84614D01*
X85030Y91866D01*
Y93533D01*
X84614Y93949D01*
X83364D01*
X77724Y89049D02*
Y87383D01*
X78557Y86550D01*
X79390Y87383D01*
Y89049D01*
X80224Y86550D02*
X81057D01*
X80640D01*
Y88216D01*
X80224D01*
X82306Y86550D02*
Y88216D01*
X83556D01*
X83972Y87800D01*
Y86550D01*
X84805Y89049D02*
Y86550D01*
X86471D01*
X65832Y93633D02*
X65415Y94049D01*
X64582D01*
X64166Y93633D01*
Y91966D01*
X64582Y91550D01*
X65415D01*
X65832Y91966D01*
Y92800D01*
X64999D01*
X66665Y91550D02*
Y94049D01*
X68331Y91550D01*
Y94049D01*
X69164D02*
Y91550D01*
X70414D01*
X70830Y91966D01*
Y93633D01*
X70414Y94049D01*
X69164D01*
X231167Y220732D02*
X230751Y220315D01*
Y219482D01*
X231167Y219066D01*
X232834D01*
X233250Y219482D01*
Y220315D01*
X232834Y220732D01*
X232000D01*
Y219899D01*
X233250Y221565D02*
X230751D01*
X233250Y223231D01*
X230751D01*
Y224064D02*
X233250D01*
Y225314D01*
X232834Y225730D01*
X231167D01*
X230751Y225314D01*
Y224064D01*
X231167Y230889D02*
X230751Y230473D01*
Y229640D01*
X231167Y229223D01*
X232834D01*
X233250Y229640D01*
Y230473D01*
X232834Y230889D01*
X232000D01*
Y230056D01*
X233250Y231722D02*
X230751D01*
X233250Y233388D01*
X230751D01*
Y234222D02*
X233250D01*
Y235471D01*
X232834Y235888D01*
X231167D01*
X230751Y235471D01*
Y234222D01*
X231238Y265889D02*
X230822Y265473D01*
Y264640D01*
X231238Y264223D01*
X232904D01*
X233321Y264640D01*
Y265473D01*
X232904Y265889D01*
X232071D01*
Y265056D01*
X233321Y266722D02*
X230822D01*
X233321Y268388D01*
X230822D01*
Y269221D02*
X233321D01*
Y270471D01*
X232904Y270888D01*
X231238D01*
X230822Y270471D01*
Y269221D01*
X79111Y273867D02*
X79527Y273451D01*
X80360D01*
X80777Y273867D01*
Y275534D01*
X80360Y275950D01*
X79527D01*
X79111Y275534D01*
Y274700D01*
X79944D01*
X78278Y275950D02*
Y273451D01*
X76612Y275950D01*
Y273451D01*
X75779D02*
Y275950D01*
X74529D01*
X74112Y275534D01*
Y273867D01*
X74529Y273451D01*
X75779D01*
X46611Y273867D02*
X47027Y273451D01*
X47860D01*
X48277Y273867D01*
Y275534D01*
X47860Y275950D01*
X47027D01*
X46611Y275534D01*
Y274700D01*
X47444D01*
X45778Y275950D02*
Y273451D01*
X44111Y275950D01*
Y273451D01*
X43279D02*
Y275950D01*
X42029D01*
X41612Y275534D01*
Y273867D01*
X42029Y273451D01*
X43279D01*
X69060Y273284D02*
X69476Y272868D01*
X70310D01*
X70726Y273284D01*
Y273701D01*
X70310Y274117D01*
X69476D01*
X69060Y274534D01*
Y274950D01*
X69476Y275367D01*
X70310D01*
X70726Y274950D01*
X68227Y275367D02*
X67394D01*
X67810D01*
Y273701D01*
X68227D01*
X65311Y276200D02*
X64895D01*
X64478Y275783D01*
Y273701D01*
X65728D01*
X66144Y274117D01*
Y274950D01*
X65728Y275367D01*
X64478D01*
X36560Y273284D02*
X36977Y272868D01*
X37810D01*
X38226Y273284D01*
Y273701D01*
X37810Y274117D01*
X36977D01*
X36560Y274534D01*
Y274950D01*
X36977Y275367D01*
X37810D01*
X38226Y274950D01*
X35727Y275367D02*
X34894D01*
X35310D01*
Y273701D01*
X35727D01*
X32811Y276200D02*
X32395D01*
X31978Y275783D01*
Y273701D01*
X33228D01*
X33644Y274117D01*
Y274950D01*
X33228Y275367D01*
X31978D01*
X230751Y241981D02*
Y240315D01*
X232000D01*
X231584Y241148D01*
Y241565D01*
X232000Y241981D01*
X232834D01*
X233250Y241565D01*
Y240732D01*
X232834Y240315D01*
X230751Y242814D02*
X232417D01*
X233250Y243648D01*
X232417Y244481D01*
X230751D01*
X233321Y274274D02*
Y275107D01*
Y274690D01*
X230822D01*
X231238Y274274D01*
X230822Y278023D02*
Y276357D01*
X232071D01*
X231655Y277190D01*
Y277606D01*
X232071Y278023D01*
X232904D01*
X233321Y277606D01*
Y276773D01*
X232904Y276357D01*
X230822Y278856D02*
X232488D01*
X233321Y279689D01*
X232488Y280522D01*
X230822D01*
X183682Y12558D02*
Y14224D01*
X184515Y15057D01*
X185348Y14224D01*
Y12558D01*
Y13808D01*
X183682D01*
X186181Y12142D02*
X187847D01*
X188681Y12558D02*
X189514D01*
X189097D01*
Y15057D01*
X188681Y14641D01*
X191874Y7450D02*
X192707D01*
X192290D01*
Y9949D01*
X191874Y9533D01*
X195623Y9949D02*
X193957D01*
Y8699D01*
X194790Y9116D01*
X195206D01*
X195623Y8699D01*
Y7867D01*
X195206Y7450D01*
X194373D01*
X193957Y7867D01*
X196456Y9949D02*
Y8283D01*
X197289Y7450D01*
X198122Y8283D01*
Y9949D01*
X191666Y12558D02*
Y14224D01*
X192499Y15057D01*
X193332Y14224D01*
Y12558D01*
Y13808D01*
X191666D01*
X194165Y12142D02*
X195831D01*
X198330Y12558D02*
X196664D01*
X198330Y14224D01*
Y14641D01*
X197914Y15057D01*
X197081D01*
X196664Y14641D01*
X185981Y9849D02*
X184315D01*
Y8600D01*
X185148Y9016D01*
X185565D01*
X185981Y8600D01*
Y7767D01*
X185565Y7350D01*
X184732D01*
X184315Y7767D01*
X186814Y9849D02*
Y8183D01*
X187647Y7350D01*
X188481Y8183D01*
Y9849D01*
X201932Y14533D02*
X201515Y14949D01*
X200682D01*
X200266Y14533D01*
Y12867D01*
X200682Y12450D01*
X201515D01*
X201932Y12867D01*
Y13700D01*
X201099D01*
X202765Y12450D02*
Y14949D01*
X204431Y12450D01*
Y14949D01*
X205264D02*
Y12450D01*
X206514D01*
X206930Y12867D01*
Y14533D01*
X206514Y14949D01*
X205264D01*
X201932Y9533D02*
X201515Y9949D01*
X200682D01*
X200266Y9533D01*
Y7867D01*
X200682Y7450D01*
X201515D01*
X201932Y7867D01*
Y8699D01*
X201099D01*
X202765Y7450D02*
Y9949D01*
X204431Y7450D01*
Y9949D01*
X205264D02*
Y7450D01*
X206514D01*
X206930Y7867D01*
Y9533D01*
X206514Y9949D01*
X205264D01*
X237381Y64249D02*
X235715D01*
Y62999D01*
X236548Y63416D01*
X236965D01*
X237381Y62999D01*
Y62166D01*
X236965Y61750D01*
X236132D01*
X235715Y62166D01*
X238214Y64249D02*
Y62583D01*
X239048Y61750D01*
X239881Y62583D01*
Y64249D01*
X236132Y85486D02*
X235715Y85903D01*
X234882D01*
X234466Y85486D01*
Y83820D01*
X234882Y83403D01*
X235715D01*
X236132Y83820D01*
Y84653D01*
X235299D01*
X236965Y83403D02*
Y85903D01*
X238631Y83403D01*
Y85903D01*
X239464D02*
Y83403D01*
X240714D01*
X241130Y83820D01*
Y85486D01*
X240714Y85903D01*
X239464D01*
X253500Y288500D02*
X254500D01*
X254000D01*
Y291499D01*
X253500Y290999D01*
X257998Y291499D02*
X255999D01*
Y290000D01*
X256999Y290499D01*
X257499D01*
X257998Y290000D01*
Y289000D01*
X257499Y288500D01*
X256499D01*
X255999Y289000D01*
X258998Y291499D02*
Y289500D01*
X259998Y288500D01*
X260998Y289500D01*
Y291499D01*
X261997Y288000D02*
X263997D01*
X264996Y291499D02*
Y288500D01*
X266996D01*
X267995D02*
X268995D01*
X268495D01*
Y290499D01*
X267995D01*
X272494Y291499D02*
Y288500D01*
X270994D01*
X270495Y289000D01*
Y290000D01*
X270994Y290499D01*
X272494D01*
X124000Y1500D02*
X122001D01*
X121001Y2500D01*
X122001Y3499D01*
X124000D01*
X122501D01*
Y1500D01*
X122001Y6498D02*
Y4999D01*
X122501Y4499D01*
X123500D01*
X124000Y4999D01*
Y6498D01*
X121501Y7998D02*
X122001D01*
Y7498D01*
Y8498D01*
Y7998D01*
X123500D01*
X124000Y8498D01*
Y9997D02*
Y10997D01*
Y10497D01*
X122001D01*
Y9997D01*
X124000Y12996D02*
Y13996D01*
X123500Y14496D01*
X122501D01*
X122001Y13996D01*
Y12996D01*
X122501Y12496D01*
X123500D01*
X124000Y12996D01*
Y15495D02*
X122001D01*
Y16995D01*
X122501Y17495D01*
X124000D01*
Y18495D02*
X122001D01*
Y19994D01*
X122501Y20494D01*
X124000D01*
Y22993D02*
Y21993D01*
X123500Y21494D01*
X122501D01*
X122001Y21993D01*
Y22993D01*
X122501Y23493D01*
X123000D01*
Y21494D01*
X122001Y24493D02*
X123500D01*
X124000Y24992D01*
Y26492D01*
X122001D01*
Y27492D02*
X124000D01*
X123000D01*
X122501Y27991D01*
X122001Y28491D01*
Y28991D01*
X124000Y30491D02*
Y31990D01*
X123500Y32490D01*
X123000Y31990D01*
Y30990D01*
X122501Y30491D01*
X122001Y30990D01*
Y32490D01*
X118999Y164499D02*
X118500Y164999D01*
X117500D01*
X117000Y164499D01*
Y162500D01*
X117500Y162000D01*
X118500D01*
X118999Y162500D01*
X119999Y164499D02*
X120499Y164999D01*
X121499D01*
X121998Y164499D01*
Y162500D01*
X121499Y162000D01*
X120499D01*
X119999Y162500D01*
Y164499D01*
X154499D02*
X153999Y164999D01*
X153000D01*
X152500Y164499D01*
Y162500D01*
X153000Y162000D01*
X153999D01*
X154499Y162500D01*
X155499Y162000D02*
X156499D01*
X155999D01*
Y164999D01*
X155499Y164499D01*
X207500Y290499D02*
Y287500D01*
X208999D01*
X209499Y288000D01*
Y289999D01*
X208999Y290499D01*
X207500D01*
X210499Y289999D02*
X210999Y290499D01*
X211999D01*
X212498Y289999D01*
Y289499D01*
X211999Y289000D01*
X212498Y288500D01*
Y288000D01*
X211999Y287500D01*
X210999D01*
X210499Y288000D01*
Y288500D01*
X210999Y289000D01*
X210499Y289499D01*
Y289999D01*
X210999Y289000D02*
X211999D01*
X207500Y267999D02*
Y265000D01*
X208999D01*
X209499Y265500D01*
Y267499D01*
X208999Y267999D01*
X207500D01*
X210499Y265500D02*
X210999Y265000D01*
X211999D01*
X212498Y265500D01*
Y267499D01*
X211999Y267999D01*
X210999D01*
X210499Y267499D01*
Y266999D01*
X210999Y266499D01*
X212498D01*
X10000Y177500D02*
X11000D01*
X10500D01*
Y180499D01*
X10000Y179999D01*
X14499Y180499D02*
X12499D01*
Y178999D01*
X13499Y179499D01*
X13999D01*
X14499Y178999D01*
Y178000D01*
X13999Y177500D01*
X12999D01*
X12499Y178000D01*
X15498Y177500D02*
Y179499D01*
X16498Y180499D01*
X17498Y179499D01*
Y177500D01*
Y178999D01*
X15498D01*
X21496Y177500D02*
Y179499D01*
X21996D01*
X22496Y178999D01*
Y177500D01*
Y178999D01*
X22996Y179499D01*
X23496Y178999D01*
Y177500D01*
X24995Y179499D02*
X25995D01*
X26495Y178999D01*
Y177500D01*
X24995D01*
X24495Y178000D01*
X24995Y178500D01*
X26495D01*
X27494Y179499D02*
X29494Y177500D01*
X28494Y178500D01*
X29494Y179499D01*
X27494Y177500D01*
X19499Y185499D02*
X17500D01*
Y184000D01*
X18500D01*
X17500D01*
Y182500D01*
X20499Y184999D02*
X20999Y185499D01*
X21999D01*
X22498Y184999D01*
Y183000D01*
X21999Y182500D01*
X20999D01*
X20499Y183000D01*
Y184999D01*
X149499Y271499D02*
X147500D01*
Y270000D01*
X148500Y270499D01*
X149000D01*
X149499Y270000D01*
Y269000D01*
X149000Y268500D01*
X148000D01*
X147500Y269000D01*
X150499Y270999D02*
X150999Y271499D01*
X151999D01*
X152498Y270999D01*
Y269000D01*
X151999Y268500D01*
X150999D01*
X150499Y269000D01*
Y270999D01*
X153498D02*
X153998Y271499D01*
X154998D01*
X155497Y270999D01*
Y269000D01*
X154998Y268500D01*
X153998D01*
X153498Y269000D01*
Y270999D01*
X156497Y268500D02*
Y270499D01*
X156997D01*
X157497Y270000D01*
Y268500D01*
Y270000D01*
X157997Y270499D01*
X158496Y270000D01*
Y268500D01*
X159496D02*
Y270499D01*
X160496Y271499D01*
X161495Y270499D01*
Y268500D01*
Y270000D01*
X159496D01*
X189499Y282999D02*
X187500D01*
Y281500D01*
X188500D01*
X187500D01*
Y280000D01*
X190499D02*
X191499D01*
X190999D01*
Y282999D01*
X190499Y282499D01*
X147500Y244000D02*
X148500D01*
X148000D01*
Y246999D01*
X147500Y246499D01*
X149999D02*
X150499Y246999D01*
X151499D01*
X151998Y246499D01*
Y244500D01*
X151499Y244000D01*
X150499D01*
X149999Y244500D01*
Y246499D01*
X152998D02*
X153498Y246999D01*
X154498D01*
X154998Y246499D01*
Y244500D01*
X154498Y244000D01*
X153498D01*
X152998Y244500D01*
Y246499D01*
X155997Y244000D02*
Y245999D01*
X156497D01*
X156997Y245499D01*
Y244000D01*
Y245499D01*
X157497Y245999D01*
X157997Y245499D01*
Y244000D01*
X158996D02*
Y245999D01*
X159996Y246999D01*
X160996Y245999D01*
Y244000D01*
Y245499D01*
X158996D01*
X189499Y257999D02*
X187500D01*
Y256500D01*
X188500D01*
X187500D01*
Y255000D01*
X192498D02*
X190499D01*
X192498Y256999D01*
Y257499D01*
X191999Y257999D01*
X190999D01*
X190499Y257499D01*
X152500Y293500D02*
X153500D01*
X153000D01*
Y296499D01*
X152500Y295999D01*
X154999Y293500D02*
Y295499D01*
X155999Y296499D01*
X156999Y295499D01*
Y293500D01*
Y295000D01*
X154999D01*
X189499Y307999D02*
X187500D01*
Y306500D01*
X188500D01*
X187500D01*
Y305000D01*
X190499Y307499D02*
X190999Y307999D01*
X191999D01*
X192498Y307499D01*
Y306999D01*
X191999Y306500D01*
X191499D01*
X191999D01*
X192498Y306000D01*
Y305500D01*
X191999Y305000D01*
X190999D01*
X190499Y305500D01*
X153000Y220500D02*
X154000D01*
X153500D01*
Y223499D01*
X153000Y222999D01*
X155499Y220500D02*
Y222499D01*
X156499Y223499D01*
X157499Y222499D01*
Y220500D01*
Y222000D01*
X155499D01*
X189499Y232999D02*
X187500D01*
Y231500D01*
X188500D01*
X187500D01*
Y230000D01*
X191999D02*
Y232999D01*
X190499Y231500D01*
X192498D01*
X20000Y195499D02*
Y192500D01*
Y193500D01*
X21999Y195499D01*
X20500Y194000D01*
X21999Y192500D01*
X22999Y194999D02*
X23499Y195499D01*
X24499D01*
X24998Y194999D01*
Y193000D01*
X24499Y192500D01*
X23499D01*
X22999Y193000D01*
Y194999D01*
X65000Y195499D02*
Y192500D01*
Y193500D01*
X66999Y195499D01*
X65500Y194000D01*
X66999Y192500D01*
X67999D02*
X68999D01*
X68499D01*
Y195499D01*
X67999Y194999D01*
X80000Y269401D02*
Y272400D01*
X78001D01*
X76501D02*
X75501D01*
X75002Y271900D01*
Y270901D01*
X75501Y270401D01*
X76501D01*
X77001Y270901D01*
Y271900D01*
X76501Y272400D01*
X73002Y273400D02*
X72502D01*
X72003Y272900D01*
Y270401D01*
X73502D01*
X74002Y270901D01*
Y271900D01*
X73502Y272400D01*
X72003D01*
X71003D02*
X70003D01*
X70503D01*
Y270401D01*
X71003D01*
X66504D02*
X68004D01*
X68504Y270901D01*
Y271900D01*
X68004Y272400D01*
X66504D01*
X105000Y262999D02*
X106999D01*
X106000D01*
Y260000D01*
X109998Y262499D02*
X109499Y262999D01*
X108499D01*
X107999Y262499D01*
Y261999D01*
X108499Y261500D01*
X109499D01*
X109998Y261000D01*
Y260500D01*
X109499Y260000D01*
X108499D01*
X107999Y260500D01*
X110998Y260000D02*
Y262999D01*
X112498D01*
X112997Y262499D01*
Y261500D01*
X112498Y261000D01*
X110998D01*
X111998D02*
X112997Y260000D01*
X116996D02*
X117996D01*
X117496D01*
Y262999D01*
X116996Y262499D01*
X119495Y261500D02*
X121495D01*
X124494Y260000D02*
X122494D01*
X124494Y261999D01*
Y262499D01*
X123994Y262999D01*
X122994D01*
X122494Y262499D01*
X126993Y260000D02*
Y262999D01*
X125493Y261500D01*
X127493D01*
X128492Y260000D02*
X129492D01*
X128992D01*
Y262999D01*
X128492Y262499D01*
X132991Y262999D02*
X130992D01*
Y261500D01*
X131991Y261999D01*
X132491D01*
X132991Y261500D01*
Y260500D01*
X132491Y260000D01*
X131491D01*
X130992Y260500D01*
X141001Y265500D02*
X143000D01*
X144000Y266500D01*
X143000Y267499D01*
X141001D01*
X144000Y268499D02*
X141001D01*
Y269999D01*
X141501Y270498D01*
X142500D01*
X143000Y269999D01*
Y268499D01*
Y269499D02*
X144000Y270498D01*
Y273497D02*
Y271498D01*
X142001Y273497D01*
X141501D01*
X141001Y272998D01*
Y271998D01*
X141501Y271498D01*
X102500Y300499D02*
X104499D01*
X103500D01*
Y297500D01*
X107498Y299999D02*
X106999Y300499D01*
X105999D01*
X105499Y299999D01*
Y299499D01*
X105999Y299000D01*
X106999D01*
X107498Y298500D01*
Y298000D01*
X106999Y297500D01*
X105999D01*
X105499Y298000D01*
X108498Y297500D02*
Y300499D01*
X109998D01*
X110497Y299999D01*
Y299000D01*
X109998Y298500D01*
X108498D01*
X109498D02*
X110497Y297500D01*
X114496D02*
X115496D01*
X114996D01*
Y300499D01*
X114496Y299999D01*
X116995Y299000D02*
X118995D01*
X121994Y297500D02*
X119994D01*
X121994Y299499D01*
Y299999D01*
X121494Y300499D01*
X120494D01*
X119994Y299999D01*
X124493Y297500D02*
Y300499D01*
X122993Y299000D01*
X124993D01*
X125992Y299999D02*
X126492Y300499D01*
X127492D01*
X127992Y299999D01*
Y298000D01*
X127492Y297500D01*
X126492D01*
X125992Y298000D01*
Y299999D01*
X130991Y300499D02*
X128991D01*
Y299000D01*
X129991Y299499D01*
X130491D01*
X130991Y299000D01*
Y298000D01*
X130491Y297500D01*
X129491D01*
X128991Y298000D01*
X141001Y303000D02*
X143000D01*
X144000Y304000D01*
X143000Y304999D01*
X141001D01*
X144000Y305999D02*
X141001D01*
Y307499D01*
X141501Y307998D01*
X142500D01*
X143000Y307499D01*
Y305999D01*
Y306999D02*
X144000Y307998D01*
X141501Y308998D02*
X141001Y309498D01*
Y310498D01*
X141501Y310997D01*
X142001D01*
X142500Y310498D01*
Y309998D01*
Y310498D01*
X143000Y310997D01*
X143500D01*
X144000Y310498D01*
Y309498D01*
X143500Y308998D01*
X102500Y222999D02*
X104499D01*
X103500D01*
Y220000D01*
X107498Y222499D02*
X106999Y222999D01*
X105999D01*
X105499Y222499D01*
Y221999D01*
X105999Y221499D01*
X106999D01*
X107498Y221000D01*
Y220500D01*
X106999Y220000D01*
X105999D01*
X105499Y220500D01*
X108498Y220000D02*
Y222999D01*
X109998D01*
X110497Y222499D01*
Y221499D01*
X109998Y221000D01*
X108498D01*
X109498D02*
X110497Y220000D01*
X116496D02*
X114496D01*
X116496Y221999D01*
Y222499D01*
X115996Y222999D01*
X114996D01*
X114496Y222499D01*
X117495Y221499D02*
X119494D01*
X122494Y220000D02*
X120494D01*
X122494Y221999D01*
Y222499D01*
X121994Y222999D01*
X120994D01*
X120494Y222499D01*
X124993Y220000D02*
Y222999D01*
X123493Y221499D01*
X125493D01*
X126492Y222499D02*
X126992Y222999D01*
X127992D01*
X128492Y222499D01*
Y220500D01*
X127992Y220000D01*
X126992D01*
X126492Y220500D01*
Y222499D01*
X131491Y222999D02*
X129491D01*
Y221499D01*
X130491Y221999D01*
X130991D01*
X131491Y221499D01*
Y220500D01*
X130991Y220000D01*
X129991D01*
X129491Y220500D01*
X141001Y227000D02*
X143000D01*
X144000Y228000D01*
X143000Y228999D01*
X141001D01*
X144000Y229999D02*
X141001D01*
Y231499D01*
X141501Y231998D01*
X142500D01*
X143000Y231499D01*
Y229999D01*
Y230999D02*
X144000Y231998D01*
Y234498D02*
X141001D01*
X142500Y232998D01*
Y234997D01*
X215000Y215499D02*
Y213500D01*
X216000Y212500D01*
X216999Y213500D01*
Y215499D01*
X217999Y212500D02*
Y215499D01*
X219498D01*
X219998Y214999D01*
Y214000D01*
X219498Y213500D01*
X217999D01*
X218999D02*
X219998Y212500D01*
X222997Y215499D02*
X220998D01*
Y214000D01*
X221998Y214499D01*
X222498D01*
X222997Y214000D01*
Y213000D01*
X222498Y212500D01*
X221498D01*
X220998Y213000D01*
X87500Y190499D02*
Y187500D01*
X88999D01*
X89499Y188000D01*
Y189999D01*
X88999Y190499D01*
X87500D01*
X90499Y187500D02*
X91499D01*
X90999D01*
Y190499D01*
X90499Y189999D01*
X52500Y190499D02*
Y187500D01*
X54000D01*
X54499Y188000D01*
Y189999D01*
X54000Y190499D01*
X52500D01*
X55499Y189999D02*
X55999Y190499D01*
X56999D01*
X57498Y189999D01*
Y188000D01*
X56999Y187500D01*
X55999D01*
X55499Y188000D01*
Y189999D01*
X47500Y272400D02*
Y269401D01*
X46000D01*
X45501Y269901D01*
Y270901D01*
X46000Y271400D01*
X47500D01*
X44501Y270401D02*
Y271900D01*
X44001Y272400D01*
X42502D01*
Y270401D01*
X41502Y272400D02*
X40502D01*
X41002D01*
Y270401D01*
X41502D01*
X39003Y272400D02*
X37503D01*
X37003Y271900D01*
X37503Y271400D01*
X38503D01*
X39003Y270901D01*
X38503Y270401D01*
X37003D01*
X36004Y272400D02*
X34504D01*
X34004Y271900D01*
X34504Y271400D01*
X35504D01*
X36004Y270901D01*
X35504Y270401D01*
X34004D01*
X258499Y256499D02*
X256500D01*
Y254999D01*
X257500Y255499D01*
X257999D01*
X258499Y254999D01*
Y254000D01*
X257999Y253500D01*
X257000D01*
X256500Y254000D01*
X259499Y256499D02*
Y254500D01*
X260499Y253500D01*
X261498Y254500D01*
Y256499D01*
X262498Y253000D02*
X264497D01*
X265497Y256499D02*
Y253500D01*
X267496D01*
X268496D02*
X269496D01*
X268996D01*
Y255499D01*
X268496D01*
X272995Y256499D02*
Y253500D01*
X271495D01*
X270995Y254000D01*
Y254999D01*
X271495Y255499D01*
X272995D01*
X52500Y2500D02*
X49501D01*
Y3999D01*
X50001Y4499D01*
X51000D01*
X51500Y3999D01*
Y2500D01*
X50501Y5499D02*
X52500D01*
X51500D01*
X51000Y5999D01*
X50501Y6499D01*
Y6999D01*
X52500Y8998D02*
Y9998D01*
X52000Y10497D01*
X51000D01*
X50501Y9998D01*
Y8998D01*
X51000Y8498D01*
X52000D01*
X52500Y8998D01*
X53500Y11497D02*
X50501D01*
Y12997D01*
X51000Y13496D01*
X52000D01*
X52500Y12997D01*
Y11497D01*
X50501Y14496D02*
X52000D01*
X52500Y14996D01*
Y16496D01*
X50501D01*
X111999Y82999D02*
X110000D01*
Y81499D01*
X111000D01*
X110000D01*
Y80000D01*
X114998Y82999D02*
X113999Y82499D01*
X112999Y81499D01*
Y80500D01*
X113499Y80000D01*
X114499D01*
X114998Y80500D01*
Y81000D01*
X114499Y81499D01*
X112999D01*
X176999Y97999D02*
X175000D01*
Y96500D01*
X176000D01*
X175000D01*
Y95000D01*
X177999Y97999D02*
X179998D01*
Y97499D01*
X177999Y95500D01*
Y95000D01*
X112500Y145499D02*
Y143500D01*
X113500Y142500D01*
X114499Y143500D01*
Y145499D01*
X115499Y142500D02*
Y145499D01*
X116999D01*
X117498Y144999D01*
Y144000D01*
X116999Y143500D01*
X115499D01*
X116499D02*
X117498Y142500D01*
X120497Y145499D02*
X119498Y144999D01*
X118498Y144000D01*
Y143000D01*
X118998Y142500D01*
X119998D01*
X120497Y143000D01*
Y143500D01*
X119998Y144000D01*
X118498D01*
X147500Y145499D02*
Y143500D01*
X148500Y142500D01*
X149499Y143500D01*
Y145499D01*
X150499Y142500D02*
Y145499D01*
X151999D01*
X152498Y144999D01*
Y144000D01*
X151999Y143500D01*
X150499D01*
X151499D02*
X152498Y142500D01*
X153498Y145499D02*
X155497D01*
Y144999D01*
X153498Y143000D01*
Y142500D01*
X225000Y2500D02*
X222001D01*
Y3999D01*
X222501Y4499D01*
X223500D01*
X224000Y3999D01*
Y2500D01*
Y3500D02*
X225000Y4499D01*
Y5499D02*
X222001D01*
Y6999D01*
X222501Y7498D01*
X223500D01*
X224000Y6999D01*
Y5499D01*
X225000Y8498D02*
Y9498D01*
Y8998D01*
X223001D01*
Y8498D01*
X256750Y115000D02*
Y116666D01*
X255917Y115833D02*
X257583D01*
X255501Y117499D02*
X257167D01*
X258000Y118332D01*
X257167Y119165D01*
X255501D01*
X258000Y120415D02*
Y121248D01*
X257583Y121665D01*
X256750D01*
X256334Y121248D01*
Y120415D01*
X256750Y119998D01*
X257583D01*
X258000Y120415D01*
X256334Y122498D02*
X257583D01*
X258000Y122914D01*
Y124164D01*
X256334D01*
X255917Y125413D02*
X256334D01*
Y124997D01*
Y125830D01*
Y125413D01*
X257583D01*
X258000Y125830D01*
X255501Y156000D02*
Y157666D01*
Y156833D01*
X258000D01*
X256334Y158499D02*
X258000D01*
X257167D01*
X256750Y158916D01*
X256334Y159332D01*
Y159749D01*
X258000Y160998D02*
Y161831D01*
Y161415D01*
X256334D01*
Y160998D01*
X258000Y163081D02*
X256334D01*
Y163498D01*
X256750Y163914D01*
X258000D01*
X256750D01*
X256334Y164331D01*
X256750Y164747D01*
X258000D01*
X256750Y194000D02*
Y195666D01*
X255501Y196499D02*
X257167D01*
X258000Y197332D01*
X257167Y198165D01*
X255501D01*
X258000Y199415D02*
Y200248D01*
X257583Y200664D01*
X256750D01*
X256334Y200248D01*
Y199415D01*
X256750Y198998D01*
X257583D01*
X258000Y199415D01*
X256334Y201498D02*
X257583D01*
X258000Y201914D01*
Y203164D01*
X256334D01*
X255917Y204413D02*
X256334D01*
Y203997D01*
Y204830D01*
Y204413D01*
X257583D01*
X258000Y204830D01*
X191501Y146000D02*
X193167D01*
X194000Y146833D01*
X193167Y147666D01*
X191501D01*
X192334Y150165D02*
Y148916D01*
X192750Y148499D01*
X193584D01*
X194000Y148916D01*
Y150165D01*
X192334Y152664D02*
Y151415D01*
X192750Y150998D01*
X193584D01*
X194000Y151415D01*
Y152664D01*
X191917Y167666D02*
X191501Y167250D01*
Y166417D01*
X191917Y166000D01*
X193584D01*
X194000Y166417D01*
Y167250D01*
X193584Y167666D01*
X192750D01*
Y166833D01*
X194000Y168499D02*
X191501D01*
X194000Y170165D01*
X191501D01*
Y170998D02*
X194000D01*
Y172248D01*
X193584Y172664D01*
X191917D01*
X191501Y172248D01*
Y170998D01*
Y195250D02*
Y194416D01*
X191917Y194000D01*
X193584D01*
X194000Y194416D01*
Y195250D01*
X193584Y195666D01*
X191917D01*
X191501Y195250D01*
X194000Y196499D02*
X192334D01*
Y197749D01*
X192750Y198165D01*
X194000D01*
Y198998D02*
X192334Y200664D01*
X191501Y202747D02*
Y201914D01*
X191917Y201498D01*
X193584D01*
X194000Y201914D01*
Y202747D01*
X193584Y203164D01*
X191917D01*
X191501Y202747D01*
X194000Y204413D02*
X191917D01*
X192750D01*
Y203997D01*
Y204830D01*
Y204413D01*
X191917D01*
X191501Y204830D01*
X194000Y206496D02*
X191917D01*
X192750D01*
Y206079D01*
Y206912D01*
Y206496D01*
X191917D01*
X191501Y206912D01*
D41*
X9700Y277047D02*
X9726Y277074D01*
X5147Y277047D02*
X9700D01*
X5531Y280984D02*
Y282953D01*
X9469Y280984D02*
Y282953D01*
X177926Y222226D02*
X177953Y222200D01*
Y217647D02*
Y222200D01*
X172047Y218032D02*
X174016D01*
X172047Y221969D02*
X174016D01*
X172047Y271969D02*
X174016D01*
X172047Y268032D02*
X174016D01*
X177953Y267647D02*
Y272200D01*
X177926Y272226D02*
X177953Y272200D01*
X177926Y297226D02*
X177953Y297200D01*
Y292647D02*
Y297200D01*
X172047Y293032D02*
X174016D01*
X172047Y296969D02*
X174016D01*
X172047Y246969D02*
X174016D01*
X172047Y243032D02*
X174016D01*
X177953Y242647D02*
Y247200D01*
X177926Y247226D02*
X177953Y247200D01*
X255274Y40426D02*
X255300Y40453D01*
X259853D01*
X259469Y34547D02*
Y36516D01*
X255532Y34547D02*
Y36516D01*
X109547Y61968D02*
X111516D01*
X109547Y58031D02*
X111516D01*
X115453Y57647D02*
Y62200D01*
X115426Y62226D02*
X115453Y62200D01*
X201969Y98484D02*
Y100453D01*
X198031Y98484D02*
Y100453D01*
X197647Y94547D02*
X202200D01*
X202226Y94574D01*
D42*
X3000Y268610D02*
Y276110D01*
Y268610D02*
X12000D01*
Y276110D01*
X3000Y283890D02*
Y290610D01*
X12000Y283890D02*
Y290610D01*
X5000Y292610D02*
X10000D01*
X3000Y290610D02*
X5000Y292610D01*
X10000D02*
X12000Y290610D01*
X178890Y215500D02*
X186390D01*
Y224500D01*
X178890D02*
X186390D01*
X164390Y215500D02*
X171110D01*
X164390Y224500D02*
X171110D01*
X162390Y217500D02*
Y222500D01*
Y217500D02*
X164390Y215500D01*
X162390Y222500D02*
X164390Y224500D01*
X162390Y272500D02*
X164390Y274500D01*
X162390Y267500D02*
X164390Y265500D01*
X162390Y267500D02*
Y272500D01*
X164390Y274500D02*
X171110D01*
X164390Y265500D02*
X171110D01*
X178890Y274500D02*
X186390D01*
Y265500D02*
Y274500D01*
X178890Y265500D02*
X186390D01*
X178890Y290500D02*
X186390D01*
Y299500D01*
X178890D02*
X186390D01*
X164390Y290500D02*
X171110D01*
X164390Y299500D02*
X171110D01*
X162390Y292500D02*
Y297500D01*
Y292500D02*
X164390Y290500D01*
X162390Y297500D02*
X164390Y299500D01*
X162390Y247500D02*
X164390Y249500D01*
X162390Y242500D02*
X164390Y240500D01*
X162390Y242500D02*
Y247500D01*
X164390Y249500D02*
X171110D01*
X164390Y240500D02*
X171110D01*
X178890Y249500D02*
X186390D01*
Y240500D02*
Y249500D01*
X178890Y240500D02*
X186390D01*
X262000Y41390D02*
Y48890D01*
X253000D02*
X262000D01*
X253000Y41390D02*
Y48890D01*
X262000Y26890D02*
Y33610D01*
X253000Y26890D02*
Y33610D01*
X255000Y24890D02*
X260000D01*
X262000Y26890D01*
X253000D02*
X255000Y24890D01*
X99890Y62500D02*
X101890Y64500D01*
X99890Y57500D02*
X101890Y55500D01*
X99890Y57500D02*
Y62500D01*
X101890Y64500D02*
X108610D01*
X101890Y55500D02*
X108610D01*
X116390Y64500D02*
X123890D01*
Y55500D02*
Y64500D01*
X116390Y55500D02*
X123890D01*
X214724Y273898D02*
X224370D01*
X214724Y286102D02*
X224370D01*
X195039D02*
X205276D01*
X195039Y273898D02*
X205276D01*
X226142Y275669D02*
Y284331D01*
X224370Y286102D02*
X226142Y284331D01*
X224370Y273898D02*
X226142Y275669D01*
X195039Y273898D02*
Y286102D01*
Y251398D02*
Y263602D01*
X224370Y251398D02*
X226142Y253169D01*
X224370Y263602D02*
X226142Y261831D01*
Y253169D02*
Y261831D01*
X195039Y251398D02*
X205276D01*
X195039Y263602D02*
X205276D01*
X214724D02*
X224370D01*
X214724Y251398D02*
X224370D01*
X152500Y202500D02*
X172500D01*
Y212500D01*
X152500D02*
X172500D01*
X152500Y202500D02*
Y212500D01*
X202500Y110110D02*
X204500Y108110D01*
X195500D02*
X197500Y110110D01*
X202500D01*
X204500Y101390D02*
Y108110D01*
X195500Y101390D02*
Y108110D01*
X204500Y86110D02*
Y93610D01*
X195500Y86110D02*
X204500D01*
X195500D02*
Y93610D01*
X115453Y79193D02*
X122146D01*
Y65807D02*
X124114Y67382D01*
X122146Y79193D02*
X124114Y77618D01*
X115453Y65807D02*
X122146D01*
X124114Y67382D02*
Y77618D01*
X102067Y65807D02*
Y79193D01*
X109547D01*
X102067Y65807D02*
X109547D01*
X194193Y87854D02*
Y94547D01*
X180807Y87854D02*
X182382Y85886D01*
X192618Y85886D02*
X194193Y87854D01*
X180807Y87854D02*
Y94547D01*
X182382Y85886D02*
X192618D01*
X180807Y107933D02*
X194193D01*
Y100453D02*
Y107933D01*
X180807Y100453D02*
Y107933D01*
X177953Y264193D02*
X184646D01*
Y250807D02*
X186614Y252382D01*
X184646Y264193D02*
X186614Y262618D01*
X177953Y250807D02*
X184646D01*
X186614Y252382D02*
Y262618D01*
X164567Y250807D02*
Y264193D01*
X172047D01*
X164567Y250807D02*
X172047D01*
X177953Y289193D02*
X184646D01*
Y275807D02*
X186614Y277382D01*
X184646Y289193D02*
X186614Y287618D01*
X177953Y275807D02*
X184646D01*
X186614Y277382D02*
Y287618D01*
X164567Y275807D02*
Y289193D01*
X172047D01*
X164567Y275807D02*
X172047D01*
X177953Y314193D02*
X184646D01*
Y300807D02*
X186614Y302382D01*
X184646Y314193D02*
X186614Y312618D01*
X177953Y300807D02*
X184646D01*
X186614Y302382D02*
Y312618D01*
X164567Y300807D02*
Y314193D01*
X172047D01*
X164567Y300807D02*
X172047D01*
X177953Y239193D02*
X184646D01*
Y225807D02*
X186614Y227382D01*
X184646Y239193D02*
X186614Y237618D01*
X177953Y225807D02*
X184646D01*
X186614Y227382D02*
Y237618D01*
X164567Y225807D02*
Y239193D01*
X172047D01*
X164567Y225807D02*
X172047D01*
X62206Y210693D02*
Y209381D01*
Y210037D01*
X65486D01*
X66142Y209381D01*
Y208725D01*
X65486Y208069D01*
X62206Y212004D02*
X66142D01*
Y214628D01*
X62862Y218564D02*
X62206Y217908D01*
Y216596D01*
X62862Y215940D01*
X65486D01*
X66142Y216596D01*
Y217908D01*
X65486Y218564D01*
X62206Y222500D02*
Y221188D01*
Y221844D01*
X65486D01*
X66142Y221188D01*
Y220532D01*
X65486Y219876D01*
X62206Y223812D02*
X66142D01*
Y226435D01*
X62862Y230371D02*
X62206Y229715D01*
Y228403D01*
X62862Y227747D01*
X65486D01*
X66142Y228403D01*
Y229715D01*
X65486Y230371D01*
X62206Y234307D02*
Y232995D01*
Y233651D01*
X65486D01*
X66142Y232995D01*
Y232339D01*
X65486Y231683D01*
X62206Y235619D02*
X66142D01*
Y238243D01*
X62862Y242178D02*
X62206Y241523D01*
Y240211D01*
X62862Y239555D01*
X65486D01*
X66142Y240211D01*
Y241523D01*
X65486Y242178D01*
X62206Y246114D02*
Y244802D01*
Y245458D01*
X65486D01*
X66142Y244802D01*
Y244146D01*
X65486Y243490D01*
X62206Y247426D02*
X66142D01*
Y250050D01*
X62862Y253986D02*
X62206Y253330D01*
Y252018D01*
X62862Y251362D01*
X65486D01*
X66142Y252018D01*
Y253330D01*
X65486Y253986D01*
D43*
X229185Y258012D02*
Y259784D01*
Y258012D02*
X274071Y257808D01*
Y287146D01*
X229185D02*
X274071D01*
X229185Y285374D02*
Y287146D01*
X85216Y271014D02*
X86988D01*
X87192Y315900D01*
X57854D02*
X87192D01*
X57854Y271014D02*
Y315900D01*
Y271014D02*
X59626D01*
X78004Y168425D02*
Y178661D01*
X85079Y182874D02*
X94921D01*
X101996Y168425D02*
Y178661D01*
X43004Y168425D02*
Y178661D01*
X50079Y182874D02*
X59921D01*
X66996Y168425D02*
Y178661D01*
X52716Y271014D02*
X54488D01*
X54692Y315900D01*
X25354D02*
X54692D01*
X25354Y271014D02*
Y315900D01*
Y271014D02*
X27126D01*
X229114Y250374D02*
Y252146D01*
X274000D01*
Y212808D02*
Y252146D01*
X229114Y213012D02*
X274000Y212808D01*
X229114Y213012D02*
Y214784D01*
D44*
X201900Y69800D02*
X203300D01*
X201700Y69700D02*
X203600D01*
X201600Y69600D02*
X203700D01*
X201400Y69500D02*
X203800D01*
X201300Y69400D02*
X202300D01*
X203000D02*
X203900D01*
X201300Y69300D02*
X202000D01*
X203300D02*
X204000D01*
X201200Y69200D02*
X201800D01*
X203400D02*
X204100D01*
X201200Y69100D02*
X201700D01*
X203500D02*
X204100D01*
X201100Y69000D02*
X201700D01*
X203600D02*
X204100D01*
X201100Y68900D02*
X201600D01*
X203500D02*
X203600D01*
X203700D02*
X204200D01*
X201100Y68800D02*
X201600D01*
X203500D02*
X204200D01*
X201100Y68700D02*
X201600D01*
X203500D02*
X204200D01*
X201100Y68600D02*
X201600D01*
X203400D02*
X204200D01*
X229400D02*
X229800D01*
X201100Y68500D02*
X201600D01*
X202300D02*
X202600D01*
X202800D02*
X203100D01*
X203400D02*
X204200D01*
X229200D02*
X230000D01*
X201100Y68400D02*
X201600D01*
X202000D02*
X203300D01*
X203400D02*
X204200D01*
X229100D02*
X230100D01*
X199500Y68300D02*
X199700D01*
X201100D02*
X201600D01*
X202100D02*
X202200D01*
X203100D02*
X203300D01*
X203400D02*
X204200D01*
X205800D02*
X206000D01*
X229100D02*
X230100D01*
X199200Y68200D02*
X199700D01*
X201100D02*
X201600D01*
X202100D02*
X202300D01*
X203000D02*
X203200D01*
X203400D02*
X204200D01*
X205700D02*
X206300D01*
X229100D02*
X229500D01*
X229700D02*
X230100D01*
X198900Y68100D02*
X199800D01*
X201200D02*
X201700D01*
X202100D02*
X203200D01*
X203500D02*
X204100D01*
X205600D02*
X206600D01*
X229100D02*
X229500D01*
X229700D02*
X230200D01*
X198900Y68000D02*
X199900D01*
X201200D02*
X201700D01*
X202200D02*
X204100D01*
X205600D02*
X206600D01*
X229100D02*
X229500D01*
X229700D02*
X230200D01*
X198900Y67900D02*
X200000D01*
X201200D02*
X201800D01*
X202200D02*
X203100D01*
X203200D02*
X204000D01*
X205500D02*
X206600D01*
X229000D02*
X230100D01*
X199000Y67800D02*
X200000D01*
X201300D02*
X201900D01*
X202200D02*
X202600D01*
X202700D02*
X203100D01*
X203400D02*
X204000D01*
X205400D02*
X206400D01*
X228900D02*
X230100D01*
X197400Y67700D02*
X197700D01*
X199200D02*
X200100D01*
X201300D02*
X201900D01*
X202300D02*
X202600D01*
X202700D02*
X203000D01*
X203400D02*
X203900D01*
X205400D02*
X206300D01*
X207800D02*
X208100D01*
X228800D02*
X230000D01*
X197300Y67600D02*
X197900D01*
X199200D02*
X200200D01*
X201400D02*
X202000D01*
X202300D02*
X202600D01*
X202700D02*
X203000D01*
X203300D02*
X203900D01*
X205300D02*
X206200D01*
X207600D02*
X208200D01*
X228600D02*
X230000D01*
X197200Y67500D02*
X198100D01*
X199400D02*
X200300D01*
X201500D02*
X202000D01*
X202300D02*
X202600D01*
X202700D02*
X203000D01*
X203200D02*
X203800D01*
X205200D02*
X206100D01*
X207400D02*
X208300D01*
X228500D02*
X229200D01*
X229500D02*
X229700D01*
X197100Y67400D02*
X198300D01*
X199400D02*
X200400D01*
X201500D02*
X202100D01*
X202300D02*
X202600D01*
X202700D02*
X203000D01*
X203200D02*
X203800D01*
X205100D02*
X206000D01*
X207200D02*
X208300D01*
X228400D02*
X229000D01*
X197100Y67300D02*
X198500D01*
X199600D02*
X200400D01*
X201600D02*
X202100D01*
X202200D02*
X202600D01*
X202700D02*
X203700D01*
X205100D02*
X205900D01*
X207000D02*
X208400D01*
X228300D02*
X228900D01*
X197000Y67200D02*
X198700D01*
X199700D02*
X200500D01*
X201600D02*
X202600D01*
X202700D02*
X203600D01*
X205000D02*
X205800D01*
X206800D02*
X208400D01*
X228100D02*
X228800D01*
X197000Y67100D02*
X198900D01*
X199800D02*
X200600D01*
X201700D02*
X202600D01*
X202700D02*
X203600D01*
X204900D02*
X205700D01*
X206600D02*
X208400D01*
X228000D02*
X228600D01*
X197300Y67000D02*
X199100D01*
X199900D02*
X200600D01*
X201800D02*
X203500D01*
X204800D02*
X205600D01*
X206400D02*
X208200D01*
X227800D02*
X228500D01*
X197500Y66900D02*
X199300D01*
X200000D02*
X200700D01*
X201800D02*
X203500D01*
X204800D02*
X205500D01*
X206200D02*
X207900D01*
X227700D02*
X228400D01*
X197800Y66800D02*
X199500D01*
X200100D02*
X200800D01*
X201800D02*
X203500D01*
X204700D02*
X205400D01*
X206000D02*
X207700D01*
X227600D02*
X228200D01*
X198000Y66700D02*
X199600D01*
X200200D02*
X200900D01*
X201800D02*
X203400D01*
X204600D02*
X205300D01*
X205800D02*
X207400D01*
X227400D02*
X228100D01*
X198300Y66600D02*
X199900D01*
X200300D02*
X201000D01*
X201700D02*
X203500D01*
X204500D02*
X205200D01*
X205600D02*
X207200D01*
X227300D02*
X227900D01*
X198500Y66500D02*
X200000D01*
X200400D02*
X201000D01*
X201800D02*
X203500D01*
X204500D02*
X205100D01*
X205400D02*
X207000D01*
X227100D02*
X227800D01*
X175000Y66400D02*
X175100D01*
X198800D02*
X200200D01*
X200500D02*
X200900D01*
X201800D02*
X202100D01*
X203000D02*
X203500D01*
X204600D02*
X205000D01*
X205200D02*
X206700D01*
X227000D02*
X227700D01*
X231000D02*
X231200D01*
X174900Y66300D02*
X175300D01*
X199000D02*
X200500D01*
X200600D02*
X200800D01*
X201700D02*
X202100D01*
X202200D02*
X203500D01*
X204700D02*
X204800D01*
X205000D02*
X206500D01*
X226800D02*
X227500D01*
X230800D02*
X231400D01*
X174900Y66200D02*
X175400D01*
X199300D02*
X200600D01*
X201700D02*
X202100D01*
X202200D02*
X203500D01*
X204900D02*
X206200D01*
X226700D02*
X227400D01*
X230700D02*
X231500D01*
X174900Y66100D02*
X175500D01*
X199500D02*
X200800D01*
X201800D02*
X202500D01*
X202600D02*
X203500D01*
X204600D02*
X206000D01*
X226600D02*
X227300D01*
X230600D02*
X231600D01*
X174900Y66000D02*
X175600D01*
X199800D02*
X201000D01*
X201800D02*
X203400D01*
X204500D02*
X205700D01*
X226500D02*
X227100D01*
X230600D02*
X231600D01*
X175000Y65900D02*
X175700D01*
X197300D02*
X197600D01*
X200000D02*
X201200D01*
X201800D02*
X202100D01*
X202200D02*
X203500D01*
X204300D02*
X205400D01*
X207500D02*
X207900D01*
X226300D02*
X227000D01*
X230600D02*
X231000D01*
X231200D02*
X231600D01*
X175100Y65800D02*
X175800D01*
X197200D02*
X197900D01*
X200200D02*
X201400D01*
X201800D02*
X202200D01*
X203100D02*
X203500D01*
X204100D02*
X205200D01*
X207300D02*
X208000D01*
X226200D02*
X226900D01*
X230200D02*
X231000D01*
X231200D02*
X231600D01*
X175200Y65700D02*
X175900D01*
X197100D02*
X198100D01*
X200500D02*
X201300D01*
X201800D02*
X202500D01*
X202700D02*
X203400D01*
X204100D02*
X205000D01*
X207100D02*
X208100D01*
X226000D02*
X226700D01*
X229800D02*
X231000D01*
X231200D02*
X231600D01*
X175300Y65600D02*
X176000D01*
X176500D02*
X177000D01*
X197000D02*
X198300D01*
X200800D02*
X201300D01*
X201900D02*
X203300D01*
X204200D02*
X204700D01*
X206900D02*
X208100D01*
X225900D02*
X226600D01*
X229300D02*
X231600D01*
X175400Y65500D02*
X176000D01*
X176400D02*
X177100D01*
X197000D02*
X198500D01*
X199900D02*
X200000D01*
X201000D02*
X201200D01*
X202200D02*
X203100D01*
X204200D02*
X204500D01*
X206700D02*
X208200D01*
X225800D02*
X226400D01*
X228800D02*
X231600D01*
X175500Y65400D02*
X176100D01*
X176400D02*
X177200D01*
X177600D02*
X178100D01*
X196900D02*
X198600D01*
X199200D02*
X200400D01*
X202300D02*
X203000D01*
X205000D02*
X206000D01*
X206500D02*
X208300D01*
X225600D02*
X226300D01*
X228400D02*
X230200D01*
X230700D02*
X231500D01*
X175600Y65300D02*
X176200D01*
X176500D02*
X177300D01*
X177400D02*
X178200D01*
X196900D02*
X198800D01*
X199000D02*
X200700D01*
X202400D02*
X202900D01*
X204700D02*
X206300D01*
X206400D02*
X208200D01*
X225500D02*
X226200D01*
X227900D02*
X229700D01*
X230800D02*
X231400D01*
X175700Y65200D02*
X176300D01*
X176500D02*
X178400D01*
X197000D02*
X200900D01*
X204500D02*
X208200D01*
X225400D02*
X226000D01*
X227500D02*
X229200D01*
X175800Y65100D02*
X177600D01*
X178000D02*
X178500D01*
X197100D02*
X199600D01*
X200100D02*
X201000D01*
X204300D02*
X205400D01*
X205600D02*
X208100D01*
X225200D02*
X225900D01*
X227100D02*
X228800D01*
X175900Y65000D02*
X177600D01*
X178100D02*
X178600D01*
X197100D02*
X198500D01*
X198600D02*
X199300D01*
X200500D02*
X201100D01*
X204200D02*
X204900D01*
X206000D02*
X208000D01*
X225100D02*
X225700D01*
X226600D02*
X228300D01*
X176000Y64900D02*
X177700D01*
X178300D02*
X178700D01*
X179100D02*
X179400D01*
X197200D02*
X198400D01*
X198500D02*
X199100D01*
X200700D02*
X201200D01*
X204100D02*
X204700D01*
X206200D02*
X207900D01*
X225000D02*
X225600D01*
X226300D02*
X227800D01*
X176000Y64800D02*
X177800D01*
X178300D02*
X178800D01*
X178900D02*
X179400D01*
X197300D02*
X198300D01*
X198400D02*
X198900D01*
X200800D02*
X201300D01*
X204000D02*
X204600D01*
X206400D02*
X207900D01*
X224800D02*
X225500D01*
X226000D02*
X227500D01*
X175900Y64700D02*
X177800D01*
X178500D02*
X179300D01*
X197300D02*
X198200D01*
X198300D02*
X198800D01*
X200900D02*
X201400D01*
X201700D02*
X203500D01*
X203900D02*
X204500D01*
X206500D02*
X207900D01*
X224700D02*
X225300D01*
X225700D02*
X227000D01*
X175800Y64600D02*
X177800D01*
X178600D02*
X179100D01*
X179400D02*
X179600D01*
X197200D02*
X198700D01*
X199600D02*
X200100D01*
X201000D02*
X201500D01*
X201700D02*
X203500D01*
X203900D02*
X204300D01*
X206600D02*
X207900D01*
X224500D02*
X225200D01*
X225300D02*
X226600D01*
X175700Y64500D02*
X177900D01*
X178600D02*
X179100D01*
X179200D02*
X179600D01*
X197200D02*
X198100D01*
X198200D02*
X198600D01*
X199600D02*
X200100D01*
X201100D02*
X201500D01*
X201700D02*
X203500D01*
X203800D02*
X204300D01*
X205200D02*
X205700D01*
X206700D02*
X208000D01*
X224400D02*
X226300D01*
X175600Y64400D02*
X177900D01*
X178800D02*
X179500D01*
X196800D02*
X198600D01*
X199600D02*
X200100D01*
X201200D02*
X201600D01*
X201700D02*
X202500D01*
X202800D02*
X203500D01*
X203800D02*
X204200D01*
X205200D02*
X205700D01*
X206700D02*
X208300D01*
X224300D02*
X226000D01*
X175500Y64300D02*
X177900D01*
X178900D02*
X179400D01*
X196500D02*
X198000D01*
X198100D02*
X198500D01*
X199600D02*
X200100D01*
X201200D02*
X201600D01*
X201700D02*
X202400D01*
X202800D02*
X203500D01*
X203700D02*
X204100D01*
X205200D02*
X205700D01*
X206800D02*
X208700D01*
X224100D02*
X225700D01*
X175600Y64200D02*
X177400D01*
X196400D02*
X198000D01*
X198100D02*
X198500D01*
X199600D02*
X200100D01*
X201200D02*
X201600D01*
X201700D02*
X202400D01*
X202800D02*
X203500D01*
X203700D02*
X204100D01*
X205200D02*
X205700D01*
X206900D02*
X208700D01*
X224000D02*
X225400D01*
X175700Y64100D02*
X177400D01*
X196400D02*
X197900D01*
X198000D02*
X198400D01*
X199500D02*
X200200D01*
X201300D02*
X202500D01*
X202700D02*
X203500D01*
X203700D02*
X204000D01*
X205100D02*
X205800D01*
X206900D02*
X208800D01*
X223900D02*
X225100D01*
X175800Y64000D02*
X177500D01*
X196400D02*
X197900D01*
X198000D02*
X198400D01*
X199400D02*
X200300D01*
X201300D02*
X203500D01*
X203600D02*
X204000D01*
X205000D02*
X205900D01*
X206900D02*
X208800D01*
X223700D02*
X227400D01*
X175700Y63900D02*
X177600D01*
X196400D02*
X197900D01*
X198000D02*
X198400D01*
X199300D02*
X200400D01*
X201300D02*
X203500D01*
X203600D02*
X204000D01*
X205000D02*
X206000D01*
X207000D02*
X208800D01*
X223600D02*
X228000D01*
X175200Y63800D02*
X176900D01*
X177000D02*
X177700D01*
X196400D02*
X197900D01*
X198000D02*
X198400D01*
X199300D02*
X200400D01*
X201400D02*
X203500D01*
X203600D02*
X204000D01*
X204900D02*
X206000D01*
X207000D02*
X208800D01*
X223400D02*
X228600D01*
X229900D02*
X230000D01*
X175200Y63700D02*
X176900D01*
X177100D02*
X177800D01*
X196400D02*
X197900D01*
X198000D02*
X198400D01*
X199300D02*
X200400D01*
X201400D02*
X203500D01*
X203600D02*
X204000D01*
X204900D02*
X206100D01*
X207000D02*
X208800D01*
X223300D02*
X225600D01*
X226500D02*
X229000D01*
X229600D02*
X230300D01*
X175200Y63600D02*
X176700D01*
X177200D02*
X177900D01*
X196400D02*
X197900D01*
X198000D02*
X198300D01*
X199300D02*
X200400D01*
X201400D02*
X203500D01*
X203600D02*
X204000D01*
X204900D02*
X206100D01*
X207000D02*
X208800D01*
X222700D02*
X222900D01*
X223200D02*
X225800D01*
X227700D02*
X229300D01*
X229600D02*
X230400D01*
X175200Y63500D02*
X176100D01*
X176200D02*
X176700D01*
X177300D02*
X178000D01*
X196500D02*
X197900D01*
X198000D02*
X198400D01*
X199300D02*
X200400D01*
X201400D02*
X203500D01*
X203600D02*
X204000D01*
X204900D02*
X206100D01*
X207000D02*
X208700D01*
X222600D02*
X223000D01*
X223100D02*
X223700D01*
X224300D02*
X224900D01*
X225000D02*
X225900D01*
X228200D02*
X230500D01*
X175300Y63400D02*
X175700D01*
X176300D02*
X176500D01*
X177400D02*
X178000D01*
X196800D02*
X197900D01*
X198000D02*
X198400D01*
X199300D02*
X200400D01*
X201300D02*
X203500D01*
X203600D02*
X204000D01*
X204900D02*
X206000D01*
X207000D02*
X208400D01*
X222500D02*
X223600D01*
X224500D02*
X225000D01*
X225300D02*
X226100D01*
X228700D02*
X230500D01*
X175000Y63300D02*
X175200D01*
X175500D02*
X175800D01*
X177500D02*
X178200D01*
X197100D02*
X197900D01*
X198000D02*
X198400D01*
X199300D02*
X200400D01*
X201300D02*
X203500D01*
X203600D02*
X204000D01*
X205000D02*
X206000D01*
X206900D02*
X208100D01*
X222400D02*
X223500D01*
X224600D02*
X225100D01*
X225500D02*
X226200D01*
X229100D02*
X229900D01*
X230100D02*
X230500D01*
X174900Y63200D02*
X175400D01*
X175500D02*
X175900D01*
X177600D02*
X178300D01*
X197100D02*
X197900D01*
X198000D02*
X198400D01*
X199400D02*
X200300D01*
X201300D02*
X203500D01*
X203600D02*
X204000D01*
X205000D02*
X205900D01*
X206900D02*
X208100D01*
X222300D02*
X223400D01*
X224700D02*
X225200D01*
X225700D02*
X226300D01*
X229300D02*
X229800D01*
X230100D02*
X230500D01*
X175000Y63100D02*
X175500D01*
X175700D02*
X176000D01*
X177700D02*
X178300D01*
X197100D02*
X197900D01*
X198000D02*
X198500D01*
X199500D02*
X200200D01*
X201300D02*
X203500D01*
X203600D02*
X204100D01*
X205200D02*
X205800D01*
X206900D02*
X208100D01*
X222200D02*
X223300D01*
X224800D02*
X225300D01*
X225800D02*
X226400D01*
X229400D02*
X229900D01*
X230100D02*
X230500D01*
X175300Y63000D02*
X176100D01*
X176600D02*
X176800D01*
X177800D02*
X178400D01*
X180800D02*
X181500D01*
X197100D02*
X198000D01*
X198100D02*
X198500D01*
X201200D02*
X201600D01*
X201700D02*
X203500D01*
X203700D02*
X204100D01*
X206800D02*
X208000D01*
X222000D02*
X223400D01*
X224900D02*
X225300D01*
X225900D02*
X226500D01*
X229500D02*
X230500D01*
X175400Y62900D02*
X176100D01*
X176500D02*
X176900D01*
X177900D02*
X178500D01*
X178600D02*
X178700D01*
X180600D02*
X181600D01*
X197100D02*
X198000D01*
X198100D02*
X198600D01*
X201200D02*
X201600D01*
X201700D02*
X203500D01*
X203700D02*
X204200D01*
X206800D02*
X208100D01*
X221400D02*
X221800D01*
X221900D02*
X223400D01*
X224900D02*
X225400D01*
X226000D02*
X226700D01*
X229500D02*
X230500D01*
X175500Y62800D02*
X176000D01*
X176300D02*
X176900D01*
X178000D02*
X178500D01*
X178600D02*
X179000D01*
X180600D02*
X181800D01*
X197000D02*
X198000D01*
X198100D02*
X198600D01*
X201100D02*
X201600D01*
X201700D02*
X203500D01*
X203800D02*
X204200D01*
X206700D02*
X208200D01*
X221300D02*
X223400D01*
X225000D02*
X225400D01*
X226200D02*
X226800D01*
X229600D02*
X230400D01*
X175600Y62700D02*
X176000D01*
X176100D02*
X177000D01*
X178100D02*
X178500D01*
X178700D02*
X179300D01*
X180500D02*
X181800D01*
X196900D02*
X198100D01*
X198200D02*
X198700D01*
X201000D02*
X201500D01*
X201700D02*
X203500D01*
X203800D02*
X204300D01*
X206700D02*
X208300D01*
X221100D02*
X223300D01*
X225000D02*
X225500D01*
X226300D02*
X226900D01*
X229700D02*
X230300D01*
X176100Y62600D02*
X177000D01*
X178200D02*
X178400D01*
X179000D02*
X179500D01*
X180400D02*
X181800D01*
X196800D02*
X198100D01*
X198200D02*
X198800D01*
X201000D02*
X201500D01*
X201700D02*
X203500D01*
X203900D02*
X204300D01*
X206600D02*
X208400D01*
X221000D02*
X221500D01*
X221600D02*
X223200D01*
X225100D02*
X225500D01*
X226400D02*
X227000D01*
X176100Y62500D02*
X176400D01*
X176500D02*
X177100D01*
X179200D02*
X179800D01*
X180400D02*
X181900D01*
X196600D02*
X198200D01*
X198300D02*
X198900D01*
X200800D02*
X201400D01*
X201700D02*
X203500D01*
X203900D02*
X204500D01*
X206500D02*
X208500D01*
X220900D02*
X221400D01*
X221500D02*
X223500D01*
X225100D02*
X225500D01*
X226500D02*
X227100D01*
X176200Y62400D02*
X176500D01*
X176700D02*
X177200D01*
X177800D02*
X178400D01*
X179500D02*
X180100D01*
X180400D02*
X181000D01*
X181300D02*
X181900D01*
X196600D02*
X198300D01*
X198400D02*
X199000D01*
X200700D02*
X201300D01*
X201700D02*
X203500D01*
X204000D02*
X204600D01*
X206400D02*
X208600D01*
X220800D02*
X221300D01*
X221400D02*
X223700D01*
X225200D02*
X225500D01*
X226700D02*
X227200D01*
X176200Y62300D02*
X176600D01*
X176800D02*
X177200D01*
X177500D02*
X178300D01*
X179800D02*
X180300D01*
X180400D02*
X181000D01*
X181300D02*
X181900D01*
X196600D02*
X198400D01*
X198500D02*
X199200D01*
X200500D02*
X201200D01*
X201700D02*
X203500D01*
X204100D02*
X204700D01*
X206200D02*
X208500D01*
X220800D02*
X221200D01*
X221300D02*
X222800D01*
X222900D02*
X223800D01*
X225200D02*
X225500D01*
X226800D02*
X227400D01*
X176300Y62200D02*
X176600D01*
X176700D02*
X177800D01*
X178000D02*
X178300D01*
X178600D02*
X179100D01*
X180000D02*
X181900D01*
X196700D02*
X198500D01*
X198600D02*
X199400D01*
X200300D02*
X201100D01*
X201700D02*
X203500D01*
X204200D02*
X205000D01*
X206000D02*
X208500D01*
X220900D02*
X221300D01*
X221400D02*
X222700D01*
X223100D02*
X223900D01*
X225200D02*
X225500D01*
X226900D02*
X227500D01*
X176300Y62100D02*
X176700D01*
X176800D02*
X177800D01*
X178000D02*
X178200D01*
X178600D02*
X179200D01*
X180200D02*
X181800D01*
X196700D02*
X198600D01*
X198700D02*
X201000D01*
X202100D02*
X202400D01*
X202500D02*
X202800D01*
X202900D02*
X203200D01*
X204300D02*
X205300D01*
X205600D02*
X208400D01*
X221000D02*
X222600D01*
X223100D02*
X223800D01*
X225200D02*
X225500D01*
X227000D02*
X227600D01*
X176400Y62000D02*
X176700D01*
X177000D02*
X178100D01*
X178700D02*
X179300D01*
X180300D02*
X181800D01*
X196800D02*
X198800D01*
X198900D02*
X200800D01*
X202000D02*
X202400D01*
X202500D02*
X202800D01*
X202900D02*
X203200D01*
X204400D02*
X208400D01*
X220200D02*
X220700D01*
X221100D02*
X222500D01*
X225200D02*
X225500D01*
X227100D02*
X227700D01*
X176500Y61900D02*
X178000D01*
X178500D02*
X179300D01*
X179800D02*
X181800D01*
X196800D02*
X200700D01*
X201200D02*
X202400D01*
X202500D02*
X202800D01*
X202900D02*
X204000D01*
X204600D02*
X208300D01*
X220100D02*
X220800D01*
X221100D02*
X222400D01*
X225200D02*
X225500D01*
X227200D02*
X227800D01*
X176500Y61800D02*
X178000D01*
X178400D02*
X179300D01*
X179800D02*
X182100D01*
X196900D02*
X197200D01*
X197800D02*
X199200D01*
X199300D02*
X200400D01*
X201200D02*
X202400D01*
X202500D02*
X202800D01*
X202900D02*
X204000D01*
X204800D02*
X207400D01*
X207900D02*
X208300D01*
X220100D02*
X220900D01*
X221200D02*
X222300D01*
X225200D02*
X225500D01*
X227300D02*
X228000D01*
X176500Y61700D02*
X177800D01*
X178300D02*
X179300D01*
X179600D02*
X182400D01*
X197800D02*
X200300D01*
X201200D02*
X202400D01*
X202500D02*
X202800D01*
X202900D02*
X204000D01*
X204800D02*
X207300D01*
X219600D02*
X221000D01*
X221100D02*
X222100D01*
X225200D02*
X225500D01*
X227500D02*
X228100D01*
X176300Y61600D02*
X177700D01*
X178300D02*
X179300D01*
X179600D02*
X181900D01*
X182100D02*
X182600D01*
X197900D02*
X200400D01*
X201200D02*
X201500D01*
X202500D02*
X202800D01*
X203700D02*
X204000D01*
X204800D02*
X207200D01*
X219500D02*
X220400D01*
X220600D02*
X221600D01*
X221800D02*
X222000D01*
X225200D02*
X225500D01*
X227600D02*
X228200D01*
X176200Y61500D02*
X177700D01*
X178100D02*
X179000D01*
X179500D02*
X181000D01*
X181500D02*
X182000D01*
X182300D02*
X182900D01*
X197900D02*
X200400D01*
X201200D02*
X201500D01*
X202500D02*
X202800D01*
X203700D02*
X204000D01*
X204700D02*
X207300D01*
X219000D02*
X220400D01*
X220700D02*
X221400D01*
X225100D02*
X225500D01*
X227700D02*
X228300D01*
X176000Y61400D02*
X177800D01*
X178000D02*
X178900D01*
X179500D02*
X180900D01*
X181500D02*
X182000D01*
X182600D02*
X183000D01*
X197900D02*
X200500D01*
X201200D02*
X201500D01*
X202500D02*
X202800D01*
X203700D02*
X204000D01*
X204700D02*
X207300D01*
X218900D02*
X219800D01*
X219900D02*
X220400D01*
X220700D02*
X221400D01*
X225100D02*
X225500D01*
X227800D02*
X228400D01*
X228500D02*
X229000D01*
X175900Y61300D02*
X177200D01*
X177300D02*
X177900D01*
X178100D02*
X178800D01*
X179500D02*
X180100D01*
X180200D02*
X180900D01*
X181600D02*
X181900D01*
X182100D02*
X182500D01*
X182900D02*
X183000D01*
X197900D02*
X200500D01*
X201200D02*
X201500D01*
X202500D02*
X202800D01*
X203700D02*
X204000D01*
X204700D02*
X207300D01*
X218800D02*
X219800D01*
X220000D02*
X220400D01*
X220800D02*
X221300D01*
X225100D02*
X225500D01*
X228000D02*
X229100D01*
X176000Y61200D02*
X176200D01*
X176300D02*
X177200D01*
X177400D02*
X177900D01*
X178100D02*
X178700D01*
X179400D02*
X180100D01*
X180300D02*
X180900D01*
X182100D02*
X183000D01*
X197800D02*
X200500D01*
X201200D02*
X201500D01*
X202200D02*
X203100D01*
X203700D02*
X204000D01*
X204700D02*
X207300D01*
X218400D02*
X219800D01*
X220100D02*
X220500D01*
X221100D02*
X221300D01*
X221700D02*
X223900D01*
X225100D02*
X225500D01*
X228100D02*
X229200D01*
X176000Y61100D02*
X176900D01*
X177000D02*
X177300D01*
X177400D02*
X178000D01*
X178200D02*
X178600D01*
X179400D02*
X180100D01*
X180300D02*
X180900D01*
X181800D02*
X181900D01*
X182000D02*
X183100D01*
X197800D02*
X200500D01*
X201000D02*
X201700D01*
X202200D02*
X203100D01*
X203500D02*
X204200D01*
X204700D02*
X207400D01*
X218200D02*
X219200D01*
X219300D02*
X219800D01*
X220100D02*
X220500D01*
X221100D02*
X221300D01*
X221700D02*
X223900D01*
X225000D02*
X225400D01*
X228200D02*
X229300D01*
X176100Y61000D02*
X176700D01*
X177000D02*
X177300D01*
X177500D02*
X178000D01*
X179500D02*
X180900D01*
X181700D02*
X183100D01*
X197800D02*
X198900D01*
X199200D02*
X200500D01*
X201000D02*
X201700D01*
X202400D02*
X202900D01*
X203500D02*
X204200D01*
X204700D02*
X205900D01*
X206200D02*
X207400D01*
X218200D02*
X219100D01*
X219400D02*
X219800D01*
X220100D02*
X220400D01*
X221100D02*
X221300D01*
X221700D02*
X223900D01*
X225000D02*
X225400D01*
X228200D02*
X229300D01*
X176100Y60900D02*
X176500D01*
X177100D02*
X177400D01*
X177600D02*
X178100D01*
X179400D02*
X180900D01*
X181600D02*
X183100D01*
X197800D02*
X198800D01*
X199300D02*
X200500D01*
X201100D02*
X201600D01*
X202300D02*
X203000D01*
X203600D02*
X204200D01*
X204700D02*
X205800D01*
X206300D02*
X207400D01*
X217700D02*
X219100D01*
X219400D02*
X219800D01*
X221100D02*
X224100D01*
X225000D02*
X225400D01*
X228200D02*
X228700D01*
X228900D02*
X229300D01*
X176200Y60800D02*
X176400D01*
X177100D02*
X177500D01*
X177600D02*
X178200D01*
X179400D02*
X180800D01*
X181600D02*
X182300D01*
X182600D02*
X183300D01*
X183600D02*
X183900D01*
X197900D02*
X198700D01*
X199400D02*
X200400D01*
X201200D02*
X201500D01*
X202200D02*
X203100D01*
X203800D02*
X204000D01*
X204700D02*
X205800D01*
X206400D02*
X207300D01*
X217600D02*
X218500D01*
X218700D02*
X219200D01*
X219500D02*
X219900D01*
X221100D02*
X224100D01*
X224900D02*
X225300D01*
X228200D02*
X228700D01*
X228900D02*
X229300D01*
X177200Y60700D02*
X177500D01*
X177700D02*
X178200D01*
X179600D02*
X180800D01*
X181700D02*
X182200D01*
X182700D02*
X183400D01*
X183600D02*
X184200D01*
X186600D02*
X187100D01*
X198100D02*
X198600D01*
X199400D02*
X200400D01*
X202200D02*
X203000D01*
X204800D02*
X205800D01*
X206600D02*
X207100D01*
X217600D02*
X218500D01*
X218800D02*
X219200D01*
X219500D02*
X219900D01*
X221100D02*
X223200D01*
X223400D02*
X224100D01*
X224900D02*
X225300D01*
X228200D02*
X229300D01*
X177300Y60600D02*
X177600D01*
X177800D02*
X178200D01*
X179200D02*
X180700D01*
X181700D02*
X182100D01*
X182800D02*
X184200D01*
X186200D02*
X186300D01*
X186600D02*
X187100D01*
X187500D02*
X187600D01*
X198200D02*
X198500D01*
X199400D02*
X200400D01*
X202500D02*
X202800D01*
X204800D02*
X205700D01*
X206600D02*
X206900D01*
X217500D02*
X218500D01*
X218800D02*
X219200D01*
X219500D02*
X219900D01*
X221700D02*
X223200D01*
X223400D02*
X223900D01*
X224900D02*
X225300D01*
X228300D02*
X229300D01*
X177300Y60500D02*
X178200D01*
X179100D02*
X180600D01*
X181600D02*
X182100D01*
X182800D02*
X184400D01*
X186000D02*
X186400D01*
X186600D02*
X187100D01*
X187400D02*
X187700D01*
X199500D02*
X200400D01*
X202500D02*
X202800D01*
X204800D02*
X205700D01*
X217500D02*
X217900D01*
X218100D02*
X218600D01*
X218900D02*
X219200D01*
X219500D02*
X219900D01*
X221700D02*
X223300D01*
X223400D02*
X223900D01*
X224800D02*
X225200D01*
X228300D02*
X229200D01*
X177400Y60400D02*
X178000D01*
X179000D02*
X180300D01*
X180500D02*
X180600D01*
X181500D02*
X182100D01*
X182800D02*
X183700D01*
X183900D02*
X184400D01*
X185900D02*
X186400D01*
X186600D02*
X187200D01*
X187300D02*
X187900D01*
X191000D02*
X191500D01*
X199500D02*
X200400D01*
X201400D02*
X204000D01*
X204800D02*
X205700D01*
X217500D02*
X217900D01*
X218200D02*
X218600D01*
X219500D02*
X219900D01*
X221100D02*
X224100D01*
X224700D02*
X225200D01*
X228400D02*
X229100D01*
X177500Y60300D02*
X177900D01*
X179000D02*
X180500D01*
X181500D02*
X182100D01*
X182800D02*
X183200D01*
X183300D02*
X183700D01*
X184000D02*
X184400D01*
X185900D02*
X187900D01*
X191000D02*
X191500D01*
X199600D02*
X200200D01*
X201400D02*
X204000D01*
X204900D02*
X205600D01*
X217500D02*
X217900D01*
X218200D02*
X218600D01*
X219500D02*
X219900D01*
X221100D02*
X224100D01*
X224700D02*
X225100D01*
X228600D02*
X229000D01*
X177500Y60200D02*
X177700D01*
X178900D02*
X179500D01*
X179600D02*
X180700D01*
X181600D02*
X182200D01*
X182700D02*
X183700D01*
X184000D02*
X184300D01*
X184500D02*
X184900D01*
X185900D02*
X187800D01*
X191000D02*
X191400D01*
X201400D02*
X204000D01*
X217500D02*
X217900D01*
X218300D02*
X218600D01*
X219500D02*
X220300D01*
X221100D02*
X224100D01*
X224600D02*
X225100D01*
X178900Y60100D02*
X179400D01*
X179800D02*
X180800D01*
X181600D02*
X183800D01*
X183900D02*
X184400D01*
X184500D02*
X185000D01*
X185500D02*
X185700D01*
X186000D02*
X187800D01*
X188100D02*
X188200D01*
X191100D02*
X191400D01*
X217400D02*
X218000D01*
X219100D02*
X220300D01*
X221100D02*
X221300D01*
X221700D02*
X223900D01*
X224500D02*
X225000D01*
X178900Y60000D02*
X179400D01*
X180100D02*
X180900D01*
X181900D02*
X183300D01*
X183400D02*
X184400D01*
X184500D02*
X185000D01*
X185500D02*
X185800D01*
X185900D02*
X188300D01*
X191100D02*
X191400D01*
X217300D02*
X218000D01*
X219100D02*
X220300D01*
X221100D02*
X221300D01*
X221700D02*
X223900D01*
X224500D02*
X225000D01*
X225400D02*
X225600D01*
X178300Y59900D02*
X178600D01*
X178800D02*
X179300D01*
X180300D02*
X180900D01*
X181800D02*
X185100D01*
X185400D02*
X186800D01*
X186900D02*
X188300D01*
X191100D02*
X191400D01*
X201400D02*
X201600D01*
X203700D02*
X204000D01*
X216600D02*
X217000D01*
X217100D02*
X217900D01*
X219200D02*
X220300D01*
X221100D02*
X224100D01*
X224200D02*
X224900D01*
X225300D02*
X225700D01*
X177900Y59800D02*
X178100D01*
X178200D02*
X178700D01*
X178800D02*
X179300D01*
X180400D02*
X181000D01*
X181100D02*
X181700D01*
X181800D02*
X182800D01*
X183000D02*
X184100D01*
X184300D02*
X185100D01*
X185400D02*
X186500D01*
X187100D02*
X188400D01*
X191100D02*
X191400D01*
X201300D02*
X201700D01*
X203600D02*
X204100D01*
X216500D02*
X217700D01*
X221100D02*
X224100D01*
X224200D02*
X225000D01*
X225300D02*
X225700D01*
X177800Y59700D02*
X178700D01*
X178800D02*
X179400D01*
X180200D02*
X182200D01*
X182400D02*
X182800D01*
X183000D02*
X183600D01*
X184300D02*
X185000D01*
X185300D02*
X186300D01*
X186900D02*
X188400D01*
X191100D02*
X191400D01*
X201300D02*
X201800D01*
X203500D02*
X204100D01*
X216300D02*
X217700D01*
X219200D02*
X220400D01*
X221100D02*
X224100D01*
X224200D02*
X225600D01*
X225700D02*
X226000D01*
X177800Y59600D02*
X179600D01*
X180100D02*
X182200D01*
X182400D02*
X182800D01*
X182900D02*
X183200D01*
X183400D02*
X183600D01*
X184200D02*
X185000D01*
X185400D02*
X186200D01*
X186300D02*
X186400D01*
X186800D02*
X188300D01*
X191100D02*
X191400D01*
X201300D02*
X201900D01*
X203400D02*
X204000D01*
X216100D02*
X216700D01*
X216800D02*
X217200D01*
X217300D02*
X217700D01*
X219200D02*
X220400D01*
X221700D02*
X223900D01*
X224600D02*
X225600D01*
X225700D02*
X226100D01*
X177800Y59500D02*
X179800D01*
X180100D02*
X182400D01*
X182900D02*
X183600D01*
X184200D02*
X184900D01*
X185600D02*
X186500D01*
X186700D02*
X188200D01*
X191100D02*
X191400D01*
X201400D02*
X202000D01*
X203400D02*
X203900D01*
X215900D02*
X216600D01*
X216900D02*
X217200D01*
X217400D02*
X217800D01*
X219200D02*
X220400D01*
X221700D02*
X223900D01*
X224800D02*
X225500D01*
X225600D02*
X226000D01*
X177800Y59400D02*
X180100D01*
X180200D02*
X182600D01*
X183000D02*
X183600D01*
X184200D02*
X184900D01*
X185600D02*
X186600D01*
X186700D02*
X188200D01*
X191100D02*
X191400D01*
X201500D02*
X202100D01*
X203200D02*
X203800D01*
X215800D02*
X216400D01*
X216700D02*
X217200D01*
X217500D02*
X217800D01*
X219200D02*
X220200D01*
X220300D02*
X220500D01*
X221700D02*
X223900D01*
X225000D02*
X226000D01*
X177700Y59300D02*
X179000D01*
X179100D02*
X181500D01*
X181700D02*
X182700D01*
X183100D02*
X183400D01*
X184200D02*
X184900D01*
X185200D02*
X187500D01*
X187700D02*
X188500D01*
X191100D02*
X191400D01*
X201600D02*
X202200D01*
X203100D02*
X203700D01*
X214300D02*
X215000D01*
X215800D02*
X216200D01*
X216500D02*
X217100D01*
X217500D02*
X217900D01*
X219600D02*
X220000D01*
X220300D02*
X220500D01*
X221200D02*
X224100D01*
X225000D02*
X225400D01*
X225500D02*
X225900D01*
X177600Y59200D02*
X179000D01*
X179300D02*
X181500D01*
X181900D02*
X182800D01*
X184100D02*
X184700D01*
X185200D02*
X186000D01*
X186100D02*
X187200D01*
X187700D02*
X188500D01*
X191100D02*
X191400D01*
X201700D02*
X202300D01*
X203000D02*
X203600D01*
X214100D02*
X215200D01*
X215800D02*
X216100D01*
X216300D02*
X216900D01*
X217600D02*
X218000D01*
X219600D02*
X220000D01*
X220200D02*
X220600D01*
X221200D02*
X224100D01*
X224900D02*
X226000D01*
X177700Y59100D02*
X179000D01*
X179600D02*
X181500D01*
X182100D02*
X182800D01*
X183900D02*
X184700D01*
X185200D02*
X186000D01*
X186100D02*
X187300D01*
X187700D02*
X188500D01*
X191100D02*
X191400D01*
X201800D02*
X203500D01*
X214000D02*
X215300D01*
X215600D02*
X216800D01*
X217700D02*
X218000D01*
X219600D02*
X220000D01*
X220300D02*
X220600D01*
X221200D02*
X224100D01*
X224900D02*
X225300D01*
X225400D02*
X226100D01*
X177700Y59000D02*
X179200D01*
X179800D02*
X180600D01*
X180700D02*
X181400D01*
X182300D02*
X182800D01*
X183000D02*
X183600D01*
X183900D02*
X184800D01*
X185200D02*
X186000D01*
X186100D02*
X187300D01*
X187700D02*
X188500D01*
X189400D02*
X189600D01*
X191100D02*
X191400D01*
X201900D02*
X203400D01*
X213900D02*
X214400D01*
X214900D02*
X215400D01*
X215500D02*
X216600D01*
X217700D02*
X218100D01*
X219600D02*
X220000D01*
X220300D02*
X220500D01*
X221200D02*
X221500D01*
X221700D02*
X223900D01*
X224900D02*
X226300D01*
X226700D02*
X227000D01*
X177900Y58900D02*
X179300D01*
X180100D02*
X180400D01*
X180700D02*
X181200D01*
X182000D02*
X182800D01*
X182900D02*
X183800D01*
X183900D02*
X184800D01*
X185200D02*
X186100D01*
X186300D02*
X187400D01*
X187700D02*
X188500D01*
X189300D02*
X189800D01*
X191100D02*
X191400D01*
X193000D02*
X193500D01*
X193800D02*
X194200D01*
X201300D02*
X201600D01*
X201900D02*
X203300D01*
X203700D02*
X204000D01*
X213900D02*
X214300D01*
X215100D02*
X216400D01*
X217800D02*
X218100D01*
X219600D02*
X220000D01*
X221200D02*
X221500D01*
X221700D02*
X223900D01*
X225000D02*
X225200D01*
X225300D02*
X226400D01*
X226500D02*
X227200D01*
X178000Y58800D02*
X179700D01*
X180700D02*
X181500D01*
X182000D02*
X184000D01*
X184200D02*
X184900D01*
X185600D02*
X186100D01*
X186500D02*
X186700D01*
X186800D02*
X187400D01*
X187700D02*
X188200D01*
X189300D02*
X189800D01*
X191100D02*
X191400D01*
X192600D02*
X193500D01*
X193800D02*
X194500D01*
X201200D02*
X201700D01*
X201800D02*
X203500D01*
X203600D02*
X204100D01*
X213800D02*
X214200D01*
X215100D02*
X215800D01*
X216000D02*
X216200D01*
X217800D02*
X218200D01*
X219600D02*
X220000D01*
X221200D02*
X221500D01*
X225200D02*
X225700D01*
X225900D02*
X227300D01*
X178000Y58700D02*
X179800D01*
X180800D02*
X181700D01*
X182000D02*
X184200D01*
X184500D02*
X184900D01*
X185600D02*
X186200D01*
X186800D02*
X187400D01*
X187600D02*
X188200D01*
X189300D02*
X189900D01*
X191100D02*
X191400D01*
X192400D02*
X193500D01*
X193800D02*
X194600D01*
X201200D02*
X204100D01*
X213800D02*
X214100D01*
X214300D02*
X214600D01*
X214900D02*
X215100D01*
X215200D02*
X215600D01*
X217900D02*
X218300D01*
X219500D02*
X220600D01*
X221200D02*
X221500D01*
X225300D02*
X225600D01*
X226000D02*
X227400D01*
X178100Y58600D02*
X180100D01*
X180800D02*
X181900D01*
X182100D02*
X184500D01*
X185500D02*
X186200D01*
X186800D02*
X187400D01*
X187500D02*
X188300D01*
X189300D02*
X189900D01*
X191100D02*
X191400D01*
X192300D02*
X193500D01*
X193800D02*
X194700D01*
X201300D02*
X204100D01*
X213800D02*
X214100D01*
X214200D02*
X214700D01*
X214900D02*
X215100D01*
X215200D02*
X215500D01*
X218000D02*
X218300D01*
X218800D02*
X221900D01*
X226200D02*
X227400D01*
X178100Y58500D02*
X180200D01*
X180900D02*
X183300D01*
X183500D02*
X184600D01*
X185300D02*
X186300D01*
X186800D02*
X187400D01*
X187500D02*
X188400D01*
X189400D02*
X190000D01*
X191100D02*
X191400D01*
X192200D02*
X193500D01*
X193800D02*
X194800D01*
X201400D02*
X204000D01*
X213800D02*
X214100D01*
X214200D02*
X215100D01*
X215200D02*
X215500D01*
X218000D02*
X222300D01*
X226300D02*
X226700D01*
X227000D02*
X227400D01*
X178300Y58400D02*
X180400D01*
X181200D02*
X183400D01*
X183800D02*
X184600D01*
X185300D02*
X186400D01*
X186800D02*
X188800D01*
X189400D02*
X190000D01*
X191100D02*
X191400D01*
X192100D02*
X193500D01*
X193800D02*
X194900D01*
X199900D02*
X200000D01*
X200800D02*
X201000D01*
X201400D02*
X203900D01*
X204300D02*
X204500D01*
X207500D02*
X209000D01*
X213800D02*
X214100D01*
X214200D02*
X215100D01*
X215200D02*
X215500D01*
X218100D02*
X219400D01*
X220100D02*
X220400D01*
X221100D02*
X222500D01*
X226300D02*
X226700D01*
X227000D02*
X227400D01*
X178300Y58300D02*
X180600D01*
X181400D02*
X183400D01*
X184000D02*
X184700D01*
X185400D02*
X186600D01*
X186900D02*
X188300D01*
X188400D02*
X188900D01*
X189400D02*
X190100D01*
X191100D02*
X191400D01*
X192100D02*
X193500D01*
X193800D02*
X194900D01*
X199700D02*
X200100D01*
X200700D02*
X201100D01*
X201300D02*
X204000D01*
X204200D02*
X204600D01*
X207500D02*
X209100D01*
X213800D02*
X214100D01*
X214200D02*
X214500D01*
X214600D02*
X215100D01*
X215200D02*
X215500D01*
X218200D02*
X218900D01*
X220100D02*
X220400D01*
X221100D02*
X221400D01*
X221900D02*
X222800D01*
X226300D02*
X227400D01*
X178300Y58200D02*
X178700D01*
X179000D02*
X180800D01*
X181700D02*
X182500D01*
X182600D02*
X183300D01*
X184200D02*
X184700D01*
X185500D02*
X188300D01*
X188400D02*
X189000D01*
X189500D02*
X190100D01*
X191100D02*
X191400D01*
X192100D02*
X193500D01*
X193800D02*
X195000D01*
X199700D02*
X200200D01*
X200700D02*
X204000D01*
X204100D02*
X204600D01*
X207500D02*
X209100D01*
X213800D02*
X214100D01*
X214200D02*
X214500D01*
X214700D02*
X215000D01*
X215200D02*
X215500D01*
X218200D02*
X218400D01*
X220100D02*
X220400D01*
X221100D02*
X221400D01*
X222100D02*
X223000D01*
X226300D02*
X227400D01*
X178500Y58100D02*
X178600D01*
X178900D02*
X181000D01*
X181900D02*
X182300D01*
X182600D02*
X183100D01*
X184200D02*
X184700D01*
X185500D02*
X185700D01*
X186000D02*
X187800D01*
X188000D02*
X188200D01*
X188400D02*
X189100D01*
X189500D02*
X190100D01*
X191100D02*
X191400D01*
X192100D02*
X193300D01*
X194000D02*
X195000D01*
X199700D02*
X200300D01*
X200700D02*
X204600D01*
X205100D02*
X210500D01*
X210800D02*
X211100D01*
X211300D02*
X211700D01*
X211900D02*
X212200D01*
X212500D02*
X212800D01*
X213100D02*
X214200D01*
X215100D02*
X215500D01*
X218200D02*
X218400D01*
X220100D02*
X220400D01*
X221100D02*
X221400D01*
X222100D02*
X222300D01*
X222400D02*
X223300D01*
X226400D02*
X227300D01*
X178800Y58000D02*
X181200D01*
X182600D02*
X183400D01*
X184200D02*
X184700D01*
X185900D02*
X187800D01*
X188400D02*
X189200D01*
X189500D02*
X190200D01*
X191100D02*
X191400D01*
X192000D02*
X193200D01*
X194000D02*
X195100D01*
X199800D02*
X200400D01*
X200800D02*
X202500D01*
X202800D02*
X204500D01*
X205000D02*
X210600D01*
X210800D02*
X211100D01*
X211300D02*
X211700D01*
X211900D02*
X212300D01*
X212500D02*
X212800D01*
X213000D02*
X214300D01*
X215100D02*
X215400D01*
X218200D02*
X218400D01*
X220100D02*
X220400D01*
X221100D02*
X221400D01*
X222100D02*
X222300D01*
X222700D02*
X223500D01*
X226500D02*
X227200D01*
X178800Y57900D02*
X181400D01*
X182600D02*
X183600D01*
X184100D02*
X184600D01*
X185900D02*
X187900D01*
X188500D02*
X189300D01*
X189600D02*
X190200D01*
X191100D02*
X191400D01*
X192000D02*
X193100D01*
X194100D02*
X197800D01*
X199300D02*
X199400D01*
X199900D02*
X200500D01*
X200900D02*
X202500D01*
X202900D02*
X204400D01*
X204800D02*
X210500D01*
X210800D02*
X211100D01*
X211300D02*
X211700D01*
X211900D02*
X212300D01*
X212400D02*
X212800D01*
X213000D02*
X213800D01*
X213900D02*
X214400D01*
X214900D02*
X215400D01*
X218200D02*
X218400D01*
X220100D02*
X220400D01*
X221100D02*
X221400D01*
X222100D02*
X222300D01*
X222900D02*
X223600D01*
X226700D02*
X227100D01*
X178700Y57800D02*
X181600D01*
X182700D02*
X183800D01*
X184100D02*
X184600D01*
X185900D02*
X187900D01*
X188600D02*
X189400D01*
X189600D02*
X190200D01*
X191100D02*
X191400D01*
X192000D02*
X193000D01*
X194200D02*
X197800D01*
X199200D02*
X199600D01*
X200000D02*
X200600D01*
X200800D02*
X202400D01*
X202900D02*
X204400D01*
X204700D02*
X205300D01*
X205800D02*
X206000D01*
X207500D02*
X209100D01*
X209900D02*
X210600D01*
X210700D02*
X211100D01*
X211300D02*
X211700D01*
X211900D02*
X212300D01*
X212400D02*
X212800D01*
X213000D02*
X213700D01*
X214000D02*
X215300D01*
X218200D02*
X218400D01*
X220100D02*
X220400D01*
X221100D02*
X221400D01*
X222100D02*
X222300D01*
X223100D02*
X223800D01*
X178700Y57700D02*
X181700D01*
X182800D02*
X184600D01*
X186000D02*
X186400D01*
X186600D02*
X187100D01*
X187400D02*
X187800D01*
X188600D02*
X189500D01*
X189600D02*
X190200D01*
X191100D02*
X191400D01*
X192000D02*
X193000D01*
X194200D02*
X197900D01*
X199200D02*
X199600D01*
X200100D02*
X202500D01*
X202900D02*
X204500D01*
X204600D02*
X205200D01*
X205700D02*
X206100D01*
X207500D02*
X209100D01*
X210200D02*
X210600D01*
X210700D02*
X211200D01*
X211300D02*
X211700D01*
X211800D02*
X212300D01*
X212400D02*
X212900D01*
X213000D02*
X213400D01*
X214100D02*
X215200D01*
X218200D02*
X218400D01*
X220100D02*
X220400D01*
X221100D02*
X221400D01*
X222100D02*
X222400D01*
X223300D02*
X223900D01*
X178800Y57600D02*
X181900D01*
X183100D02*
X184500D01*
X186100D02*
X186300D01*
X186600D02*
X187100D01*
X187400D02*
X187600D01*
X188700D02*
X190500D01*
X191100D02*
X191400D01*
X192000D02*
X193000D01*
X194200D02*
X197900D01*
X199200D02*
X199800D01*
X200200D02*
X202600D01*
X202800D02*
X205100D01*
X205600D02*
X206100D01*
X207500D02*
X209100D01*
X210200D02*
X213300D01*
X214300D02*
X215000D01*
X217400D02*
X219200D01*
X220100D02*
X220500D01*
X221100D02*
X221400D01*
X222100D02*
X222400D01*
X223500D02*
X224100D01*
X179000Y57500D02*
X182100D01*
X183300D02*
X184500D01*
X186600D02*
X187100D01*
X188800D02*
X190400D01*
X191100D02*
X191400D01*
X191700D02*
X193000D01*
X194300D02*
X197900D01*
X199200D02*
X199900D01*
X200200D02*
X205000D01*
X205500D02*
X206100D01*
X210300D02*
X213300D01*
X217400D02*
X219200D01*
X220200D02*
X220500D01*
X221100D02*
X221500D01*
X222100D02*
X222500D01*
X223700D02*
X224700D01*
X179000Y57400D02*
X182300D01*
X183500D02*
X184400D01*
X188900D02*
X190300D01*
X191100D02*
X191400D01*
X191700D02*
X193000D01*
X194200D02*
X197900D01*
X199300D02*
X199900D01*
X200400D02*
X205000D01*
X205400D02*
X206000D01*
X210300D02*
X213200D01*
X217400D02*
X219200D01*
X220200D02*
X220500D01*
X221200D02*
X221500D01*
X222200D02*
X222500D01*
X223800D02*
X224800D01*
X179200Y57300D02*
X182500D01*
X183700D02*
X184200D01*
X189000D02*
X190400D01*
X191100D02*
X191400D01*
X191700D02*
X198000D01*
X198700D02*
X199000D01*
X199500D02*
X200100D01*
X200300D02*
X204900D01*
X205300D02*
X205900D01*
X206300D02*
X206500D01*
X210400D02*
X210800D01*
X211000D02*
X211400D01*
X211600D02*
X212000D01*
X212200D02*
X212600D01*
X212700D02*
X213100D01*
X217400D02*
X217700D01*
X218900D02*
X219500D01*
X219600D02*
X219900D01*
X220100D02*
X220900D01*
X221100D02*
X221900D01*
X222000D02*
X222500D01*
X223900D02*
X224900D01*
X179300Y57200D02*
X182700D01*
X184200D02*
X187400D01*
X189100D02*
X190400D01*
X190800D02*
X198000D01*
X198600D02*
X199100D01*
X199500D02*
X200100D01*
X200200D02*
X205000D01*
X205200D02*
X205800D01*
X206200D02*
X206600D01*
X217400D02*
X217700D01*
X218900D02*
X219500D01*
X219600D02*
X219900D01*
X220100D02*
X220900D01*
X221100D02*
X221900D01*
X222000D02*
X222600D01*
X223900D02*
X224900D01*
X179500Y57100D02*
X182900D01*
X183100D02*
X183300D01*
X184200D02*
X188200D01*
X189300D02*
X190500D01*
X190800D02*
X198000D01*
X198600D02*
X199200D01*
X199600D02*
X205700D01*
X206100D02*
X206700D01*
X210400D02*
X213400D01*
X217400D02*
X217700D01*
X218900D02*
X219500D01*
X219600D02*
X219900D01*
X220100D02*
X220900D01*
X221000D02*
X221900D01*
X222000D02*
X222600D01*
X223900D02*
X224300D01*
X224500D02*
X224900D01*
X179500Y57000D02*
X183500D01*
X184200D02*
X188300D01*
X189300D02*
X190600D01*
X190800D02*
X198000D01*
X198700D02*
X199300D01*
X199700D02*
X205600D01*
X206000D02*
X206600D01*
X210400D02*
X213400D01*
X217400D02*
X219200D01*
X220100D02*
X220700D01*
X221100D02*
X221700D01*
X222000D02*
X222600D01*
X223900D02*
X224300D01*
X224500D02*
X225000D01*
X179700Y56900D02*
X183700D01*
X184200D02*
X185200D01*
X185700D02*
X188300D01*
X189300D02*
X190600D01*
X190800D02*
X198000D01*
X198800D02*
X199300D01*
X199800D02*
X205500D01*
X205900D02*
X206500D01*
X210400D02*
X213400D01*
X217400D02*
X219200D01*
X220000D02*
X220700D01*
X221000D02*
X221700D01*
X221900D02*
X222700D01*
X223900D02*
X224300D01*
X224500D02*
X225000D01*
X179800Y56800D02*
X183900D01*
X184300D02*
X190600D01*
X190800D02*
X198100D01*
X198200D02*
X198400D01*
X198900D02*
X199500D01*
X199800D02*
X205400D01*
X205800D02*
X206400D01*
X206900D02*
X207000D01*
X210300D02*
X210700D01*
X211000D02*
X211400D01*
X211600D02*
X212100D01*
X212300D02*
X212800D01*
X213000D02*
X213400D01*
X214900D02*
X216800D01*
X217500D02*
X219100D01*
X219900D02*
X220800D01*
X220900D02*
X221800D01*
X221900D02*
X222700D01*
X223900D02*
X224900D01*
X180000Y56700D02*
X184100D01*
X184500D02*
X190700D01*
X190800D02*
X193600D01*
X193700D02*
X198600D01*
X199000D02*
X199600D01*
X199700D02*
X205500D01*
X205700D02*
X206300D01*
X206800D02*
X207100D01*
X210200D02*
X213600D01*
X214900D02*
X216800D01*
X218200D02*
X218400D01*
X219900D02*
X220200D01*
X220300D02*
X220800D01*
X220900D02*
X221800D01*
X221900D02*
X222800D01*
X223900D02*
X224900D01*
X180100Y56600D02*
X184200D01*
X184500D02*
X185200D01*
X185700D02*
X189600D01*
X189700D02*
X190200D01*
X190300D02*
X190700D01*
X191000D02*
X191400D01*
X191700D02*
X193000D01*
X194300D02*
X198600D01*
X199100D02*
X206200D01*
X206700D02*
X207200D01*
X210100D02*
X213600D01*
X214600D02*
X216900D01*
X218200D02*
X218400D01*
X219900D02*
X220600D01*
X220900D02*
X221500D01*
X221900D02*
X222500D01*
X224000D02*
X224800D01*
X180200Y56500D02*
X184400D01*
X184500D02*
X188300D01*
X188400D02*
X189500D01*
X189700D02*
X190800D01*
X191000D02*
X191500D01*
X191700D02*
X193000D01*
X194300D02*
X198800D01*
X199200D02*
X206100D01*
X206600D02*
X207200D01*
X210100D02*
X213700D01*
X214600D02*
X215100D01*
X216100D02*
X216900D01*
X218200D02*
X218400D01*
X220000D02*
X220500D01*
X220900D02*
X221500D01*
X221900D02*
X222500D01*
X224100D02*
X224700D01*
X180500Y56400D02*
X188300D01*
X189000D02*
X189400D01*
X189800D02*
X190300D01*
X190400D02*
X190800D01*
X191000D02*
X191500D01*
X191700D02*
X193000D01*
X194300D02*
X198100D01*
X198200D02*
X198800D01*
X199300D02*
X206000D01*
X206500D02*
X207100D01*
X207800D02*
X209300D01*
X210100D02*
X210500D01*
X210600D02*
X211100D01*
X211300D02*
X211800D01*
X211900D02*
X212500D01*
X212600D02*
X213200D01*
X213300D02*
X213700D01*
X214600D02*
X215100D01*
X216100D02*
X216900D01*
X218200D02*
X218400D01*
X220000D02*
X220500D01*
X221000D02*
X221500D01*
X222000D02*
X222400D01*
X180500Y56300D02*
X184300D01*
X184400D02*
X188200D01*
X188400D02*
X189400D01*
X189900D02*
X190800D01*
X192000D02*
X197200D01*
X197700D02*
X197900D01*
X198400D02*
X198900D01*
X199300D02*
X206000D01*
X206300D02*
X207000D01*
X207800D02*
X209300D01*
X210000D02*
X210400D01*
X210600D02*
X211100D01*
X211300D02*
X211800D01*
X212000D02*
X212400D01*
X212700D02*
X213100D01*
X213300D02*
X213700D01*
X214900D02*
X215100D01*
X216100D02*
X216800D01*
X218200D02*
X218400D01*
X220100D02*
X220400D01*
X221100D02*
X221400D01*
X222000D02*
X222400D01*
X180700Y56200D02*
X184300D01*
X184400D02*
X189400D01*
X190000D02*
X190800D01*
X192000D02*
X197200D01*
X197600D02*
X198000D01*
X198500D02*
X199100D01*
X199200D02*
X206000D01*
X206200D02*
X206900D01*
X207300D02*
X210400D01*
X210700D02*
X211100D01*
X211300D02*
X211700D01*
X212000D02*
X212400D01*
X212700D02*
X213100D01*
X213400D02*
X214300D01*
X214700D02*
X215100D01*
X216200D02*
X216400D01*
X216500D02*
X216800D01*
X216900D02*
X218400D01*
X220100D02*
X220400D01*
X221100D02*
X221400D01*
X221800D02*
X222500D01*
X180700Y56100D02*
X183300D01*
X183400D02*
X184200D01*
X184300D02*
X187400D01*
X188000D02*
X189400D01*
X190100D02*
X190800D01*
X192000D02*
X197200D01*
X197600D02*
X198100D01*
X198600D02*
X206800D01*
X207200D02*
X210400D01*
X210700D02*
X211000D01*
X211300D02*
X211700D01*
X212000D02*
X212400D01*
X212700D02*
X213100D01*
X213400D02*
X214300D01*
X214600D02*
X215100D01*
X216500D02*
X218400D01*
X220100D02*
X220400D01*
X221100D02*
X221400D01*
X221700D02*
X222600D01*
X181000Y56000D02*
X183300D01*
X183500D02*
X184200D01*
X184300D02*
X187300D01*
X188000D02*
X189500D01*
X190200D02*
X190800D01*
X192000D02*
X197200D01*
X197600D02*
X198200D01*
X198600D02*
X206700D01*
X207100D02*
X210400D01*
X210700D02*
X211000D01*
X211400D02*
X211700D01*
X212000D02*
X212400D01*
X212700D02*
X213100D01*
X213400D02*
X214300D01*
X214600D02*
X215100D01*
X216500D02*
X218400D01*
X220100D02*
X220400D01*
X221100D02*
X221400D01*
X221700D02*
X222700D01*
X181000Y55900D02*
X183200D01*
X183500D02*
X184200D01*
X184300D02*
X187300D01*
X188000D02*
X189500D01*
X190300D02*
X190800D01*
X192000D02*
X197200D01*
X197700D02*
X198300D01*
X198700D02*
X206600D01*
X207000D02*
X210400D01*
X210700D02*
X211000D01*
X211400D02*
X211700D01*
X212100D02*
X212400D01*
X212700D02*
X213000D01*
X213400D02*
X214300D01*
X214900D02*
X215100D01*
X216500D02*
X216800D01*
X220100D02*
X220400D01*
X221100D02*
X221500D01*
X221600D02*
X222700D01*
X181200Y55800D02*
X183200D01*
X183400D02*
X184100D01*
X184300D02*
X185800D01*
X188000D02*
X189500D01*
X197800D02*
X198400D01*
X198800D02*
X206500D01*
X206900D02*
X207500D01*
X207800D02*
X209300D01*
X209900D02*
X210200D01*
X213900D02*
X214300D01*
X214900D02*
X215100D01*
X216500D02*
X216800D01*
X220000D02*
X220400D01*
X221100D02*
X222100D01*
X222300D02*
X222700D01*
X181200Y55700D02*
X183100D01*
X183400D02*
X184100D01*
X184200D02*
X185800D01*
X188000D02*
X188800D01*
X188900D02*
X189500D01*
X197900D02*
X198500D01*
X198700D02*
X206500D01*
X206800D02*
X207400D01*
X207800D02*
X209300D01*
X209900D02*
X210200D01*
X213600D02*
X213800D01*
X213900D02*
X214300D01*
X214600D02*
X215100D01*
X216500D02*
X216900D01*
X219900D02*
X220300D01*
X221200D02*
X222100D01*
X222300D02*
X222700D01*
X181500Y55600D02*
X183100D01*
X183300D02*
X184100D01*
X184200D02*
X185800D01*
X189000D02*
X189400D01*
X194800D02*
X196000D01*
X198100D02*
X206600D01*
X206700D02*
X207300D01*
X209900D02*
X210200D01*
X213500D02*
X213800D01*
X213900D02*
X214300D01*
X214600D02*
X215100D01*
X216500D02*
X216900D01*
X218300D02*
X218400D01*
X219800D02*
X220200D01*
X221500D02*
X222100D01*
X222200D02*
X222700D01*
X181500Y55500D02*
X183000D01*
X183200D02*
X184000D01*
X184200D02*
X185700D01*
X190700D02*
X196300D01*
X198100D02*
X207200D01*
X207900D02*
X208300D01*
X208700D02*
X209100D01*
X209900D02*
X210200D01*
X213300D02*
X213800D01*
X213900D02*
X214300D01*
X214600D02*
X215100D01*
X216500D02*
X216900D01*
X218300D02*
X218500D01*
X218600D02*
X219000D01*
X219700D02*
X220200D01*
X221700D02*
X222700D01*
X181700Y55400D02*
X183000D01*
X183200D02*
X183900D01*
X184200D02*
X185700D01*
X186700D02*
X196500D01*
X198200D02*
X207100D01*
X207900D02*
X208300D01*
X208700D02*
X209100D01*
X209900D02*
X210200D01*
X213100D02*
X213800D01*
X213900D02*
X214300D01*
X214800D02*
X215100D01*
X216500D02*
X216800D01*
X218300D02*
X219000D01*
X219600D02*
X220100D01*
X221700D02*
X222600D01*
X181700Y55300D02*
X182000D01*
X182100D02*
X183900D01*
X184200D02*
X196700D01*
X198300D02*
X199100D01*
X199800D02*
X200900D01*
X201000D02*
X201200D01*
X201900D02*
X203400D01*
X204100D02*
X204300D01*
X205000D02*
X205700D01*
X206100D02*
X207000D01*
X207900D02*
X208300D01*
X208700D02*
X209100D01*
X209500D02*
X210700D01*
X212900D02*
X213800D01*
X213900D02*
X214300D01*
X214600D02*
X215100D01*
X216500D02*
X219000D01*
X219400D02*
X220000D01*
X221800D02*
X222600D01*
X182100Y55200D02*
X183800D01*
X184100D02*
X193300D01*
X194200D02*
X194400D01*
X194600D02*
X196800D01*
X198400D02*
X200900D01*
X201000D02*
X201900D01*
X202000D02*
X202500D01*
X202700D02*
X204300D01*
X204400D02*
X206900D01*
X207900D02*
X208300D01*
X208700D02*
X209100D01*
X209500D02*
X210700D01*
X212700D02*
X213400D01*
X213500D02*
X213800D01*
X213900D02*
X214300D01*
X214600D02*
X215100D01*
X216500D02*
X219900D01*
X221900D02*
X222400D01*
X182000Y55100D02*
X183800D01*
X184100D02*
X185200D01*
X185400D02*
X189300D01*
X194100D02*
X194500D01*
X194600D02*
X196900D01*
X198400D02*
X198900D01*
X199000D02*
X200900D01*
X201000D02*
X202000D01*
X202100D02*
X202700D01*
X202800D02*
X204300D01*
X204400D02*
X205500D01*
X205600D02*
X206300D01*
X206400D02*
X206900D01*
X207900D02*
X208300D01*
X208700D02*
X209100D01*
X209500D02*
X210700D01*
X212600D02*
X213200D01*
X213500D02*
X213800D01*
X213900D02*
X214300D01*
X214600D02*
X215100D01*
X216500D02*
X219700D01*
X182000Y55000D02*
X183700D01*
X184100D02*
X185100D01*
X185300D02*
X186700D01*
X194100D02*
X197000D01*
X198400D02*
X200900D01*
X201000D02*
X202000D01*
X202100D02*
X202400D01*
X202500D02*
X204300D01*
X204400D02*
X206900D01*
X207600D02*
X209100D01*
X209600D02*
X210600D01*
X212400D02*
X213000D01*
X213100D02*
X214300D01*
X214800D02*
X215100D01*
X216500D02*
X216800D01*
X218300D02*
X219200D01*
X219400D02*
X220600D01*
X182100Y54900D02*
X183800D01*
X184000D02*
X185100D01*
X185200D02*
X186200D01*
X186300D02*
X186800D01*
X194000D02*
X195200D01*
X195300D02*
X195700D01*
X195800D02*
X197100D01*
X198400D02*
X199100D01*
X199700D02*
X200900D01*
X201000D02*
X202800D01*
X202900D02*
X203700D01*
X204100D02*
X204300D01*
X204400D02*
X205100D01*
X205200D02*
X205400D01*
X205500D02*
X206900D01*
X207500D02*
X209400D01*
X209500D02*
X210600D01*
X212200D02*
X212800D01*
X213100D02*
X214300D01*
X214800D02*
X215100D01*
X216500D02*
X216800D01*
X218300D02*
X219000D01*
X219500D02*
X220600D01*
X182300Y54800D02*
X183800D01*
X184000D02*
X185100D01*
X185200D02*
X186800D01*
X194100D02*
X194900D01*
X195300D02*
X195700D01*
X196100D02*
X197200D01*
X198400D02*
X200900D01*
X201000D02*
X201400D01*
X202000D02*
X202300D01*
X202400D02*
X202900D01*
X203000D02*
X204300D01*
X204400D02*
X205000D01*
X205100D02*
X206900D01*
X207500D02*
X210700D01*
X212000D02*
X212700D01*
X213500D02*
X214300D01*
X214600D02*
X215100D01*
X216500D02*
X216900D01*
X218300D02*
X218500D01*
X218600D02*
X219000D01*
X219500D02*
X220600D01*
X182400Y54700D02*
X183800D01*
X184000D02*
X185100D01*
X185200D02*
X186800D01*
X194200D02*
X194800D01*
X195300D02*
X195700D01*
X196200D02*
X197200D01*
X198400D02*
X200100D01*
X200200D02*
X202200D01*
X202300D02*
X204300D01*
X204400D02*
X205000D01*
X205100D02*
X205500D01*
X205600D02*
X206300D01*
X206400D02*
X206900D01*
X207500D02*
X209000D01*
X209100D02*
X210700D01*
X211800D02*
X212500D01*
X213500D02*
X213800D01*
X214600D02*
X215100D01*
X216500D02*
X216900D01*
X219500D02*
X220600D01*
X182600Y54600D02*
X183700D01*
X183800D02*
X185000D01*
X185200D02*
X185500D01*
X185600D02*
X185900D01*
X186100D02*
X186400D01*
X186500D02*
X186800D01*
X192500D02*
X192900D01*
X193100D02*
X193400D01*
X193800D02*
X194700D01*
X195100D02*
X195900D01*
X196300D02*
X197300D01*
X198300D02*
X199700D01*
X199800D02*
X200100D01*
X200200D02*
X200800D01*
X200900D02*
X203000D01*
X203100D02*
X204300D01*
X204400D02*
X206900D01*
X207500D02*
X207800D01*
X208400D02*
X208700D01*
X209100D02*
X210700D01*
X211300D02*
X212300D01*
X213500D02*
X213800D01*
X214600D02*
X215100D01*
X216500D02*
X216900D01*
X219500D02*
X219900D01*
X220200D02*
X220600D01*
X182800Y54500D02*
X183700D01*
X183800D02*
X185000D01*
X185200D02*
X185500D01*
X185600D02*
X185900D01*
X186100D02*
X186400D01*
X186500D02*
X186800D01*
X192500D02*
X193500D01*
X193700D02*
X194600D01*
X195000D02*
X196100D01*
X196400D02*
X197300D01*
X198200D02*
X199000D01*
X199700D02*
X200300D01*
X200700D02*
X202100D01*
X202200D02*
X203400D01*
X204100D02*
X204300D01*
X204400D02*
X205100D01*
X205200D02*
X205800D01*
X206100D02*
X207000D01*
X207500D02*
X207800D01*
X208300D02*
X208800D01*
X209200D02*
X209500D01*
X209900D02*
X210200D01*
X211200D02*
X212100D01*
X213500D02*
X213800D01*
X214800D02*
X215100D01*
X216500D02*
X216800D01*
X219500D02*
X219900D01*
X220200D02*
X220600D01*
X183000Y54400D02*
X183600D01*
X183800D02*
X185000D01*
X185200D02*
X186800D01*
X191200D02*
X191900D01*
X192500D02*
X193500D01*
X193700D02*
X197400D01*
X198100D02*
X207100D01*
X207500D02*
X207800D01*
X208300D02*
X208700D01*
X209200D02*
X209500D01*
X209900D02*
X210200D01*
X211100D02*
X212300D01*
X213500D02*
X213800D01*
X214600D02*
X215100D01*
X216500D02*
X216900D01*
X219500D02*
X219900D01*
X220200D02*
X220600D01*
X183200Y54300D02*
X183600D01*
X183800D02*
X186800D01*
X191200D02*
X191900D01*
X192200D02*
X193500D01*
X193700D02*
X197400D01*
X198000D02*
X207200D01*
X207500D02*
X207800D01*
X208200D02*
X208800D01*
X209200D02*
X209500D01*
X209900D02*
X210200D01*
X211100D02*
X211500D01*
X211800D02*
X212500D01*
X213200D02*
X213400D01*
X213500D02*
X213800D01*
X214600D02*
X215100D01*
X216500D02*
X216900D01*
X218000D02*
X218400D01*
X219500D02*
X220600D01*
X183800Y54200D02*
X186800D01*
X191000D02*
X197400D01*
X197900D02*
X198500D01*
X198700D02*
X207200D01*
X207500D02*
X207800D01*
X208200D02*
X208800D01*
X209200D02*
X209500D01*
X209900D02*
X210200D01*
X211100D02*
X211400D01*
X212000D02*
X212700D01*
X213100D02*
X213400D01*
X213500D02*
X214200D01*
X214600D02*
X215100D01*
X216500D02*
X216900D01*
X217800D02*
X218600D01*
X219500D02*
X220600D01*
X183800Y54100D02*
X185200D01*
X185300D02*
X185800D01*
X185900D02*
X186100D01*
X186200D02*
X186600D01*
X191000D02*
X191500D01*
X191600D02*
X192800D01*
X193100D02*
X193800D01*
X193900D02*
X194400D01*
X194500D02*
X195400D01*
X195600D02*
X196600D01*
X196700D02*
X197500D01*
X197800D02*
X198400D01*
X198700D02*
X206600D01*
X206700D02*
X207300D01*
X207500D02*
X207800D01*
X208300D02*
X208700D01*
X209100D02*
X209500D01*
X209900D02*
X210200D01*
X211100D02*
X211400D01*
X212200D02*
X212900D01*
X213100D02*
X214300D01*
X214800D02*
X215100D01*
X216500D02*
X216800D01*
X217700D02*
X218700D01*
X219500D02*
X220600D01*
X185300Y54000D02*
X186700D01*
X191000D02*
X191400D01*
X191700D02*
X192700D01*
X193200D02*
X193800D01*
X193900D02*
X194300D01*
X194600D02*
X195200D01*
X195800D02*
X196400D01*
X196700D02*
X197500D01*
X197700D02*
X198300D01*
X198800D02*
X206500D01*
X206900D02*
X207400D01*
X207500D02*
X207900D01*
X208300D02*
X208600D01*
X209100D02*
X209400D01*
X209900D02*
X210200D01*
X211100D02*
X211400D01*
X212400D02*
X213000D01*
X213200D02*
X213400D01*
X213500D02*
X214400D01*
X214800D02*
X215100D01*
X216500D02*
X216800D01*
X217700D02*
X218700D01*
X219500D02*
X220600D01*
X185400Y53900D02*
X186800D01*
X191000D02*
X191400D01*
X191700D02*
X192000D01*
X192100D02*
X192600D01*
X193300D02*
X194300D01*
X194600D02*
X195200D01*
X195900D02*
X196400D01*
X196700D02*
X197500D01*
X197600D02*
X198200D01*
X198700D02*
X206500D01*
X207000D02*
X207900D01*
X208300D02*
X208500D01*
X209000D02*
X209400D01*
X209900D02*
X210200D01*
X211100D02*
X211400D01*
X212600D02*
X213400D01*
X213500D02*
X213800D01*
X214100D02*
X215100D01*
X216500D02*
X218200D01*
X218300D02*
X218700D01*
X185500Y53800D02*
X187200D01*
X191000D02*
X191400D01*
X191700D02*
X192100D01*
X192200D02*
X192600D01*
X193300D02*
X194300D01*
X194600D02*
X195100D01*
X195900D02*
X196400D01*
X196700D02*
X197500D01*
X197600D02*
X198100D01*
X198600D02*
X206600D01*
X207000D02*
X208000D01*
X208200D02*
X208400D01*
X209000D02*
X209400D01*
X209900D02*
X210200D01*
X211100D02*
X211400D01*
X212800D02*
X213400D01*
X213500D02*
X213800D01*
X214100D02*
X215100D01*
X216500D02*
X218100D01*
X218300D02*
X218700D01*
X185800Y53700D02*
X187800D01*
X191000D02*
X192600D01*
X193300D02*
X194300D01*
X194600D02*
X195100D01*
X195900D02*
X196400D01*
X196700D02*
X197500D01*
X197600D02*
X198000D01*
X198400D02*
X206700D01*
X207200D02*
X208100D01*
X208200D02*
X208400D01*
X208900D02*
X209300D01*
X209900D02*
X210200D01*
X211200D02*
X211500D01*
X213000D02*
X213800D01*
X214100D02*
X214400D01*
X214500D02*
X218100D01*
X218300D02*
X218700D01*
X186300Y53600D02*
X188300D01*
X191200D02*
X192600D01*
X193200D02*
X194300D01*
X194600D02*
X195200D01*
X195900D02*
X196400D01*
X196700D02*
X197500D01*
X197700D02*
X197900D01*
X198400D02*
X199000D01*
X199200D02*
X206100D01*
X206200D02*
X206800D01*
X207200D02*
X208300D01*
X208700D02*
X209300D01*
X209900D02*
X210200D01*
X211200D02*
X211500D01*
X213100D02*
X213800D01*
X214000D02*
X214300D01*
X214800D02*
X216800D01*
X217700D02*
X218700D01*
X186900Y53500D02*
X188800D01*
X191200D02*
X191800D01*
X192000D02*
X192700D01*
X193200D02*
X194300D01*
X194600D02*
X195200D01*
X195800D02*
X196500D01*
X196700D02*
X197500D01*
X198300D02*
X198900D01*
X199300D02*
X205900D01*
X206300D02*
X206900D01*
X207400D02*
X209200D01*
X209900D02*
X210200D01*
X211200D02*
X211500D01*
X213300D02*
X213800D01*
X214000D02*
X214300D01*
X214800D02*
X216700D01*
X217700D02*
X218700D01*
X187300Y53400D02*
X189300D01*
X191300D02*
X191400D01*
X191600D02*
X193800D01*
X193900D02*
X194400D01*
X194500D02*
X195300D01*
X195700D02*
X196500D01*
X196700D02*
X197500D01*
X198200D02*
X198800D01*
X199200D02*
X206000D01*
X206400D02*
X207000D01*
X207400D02*
X207800D01*
X207900D02*
X209100D01*
X209900D02*
X210200D01*
X211300D02*
X211600D01*
X213500D02*
X214300D01*
X217800D02*
X218600D01*
X187900Y53300D02*
X189800D01*
X191600D02*
X192200D01*
X192300D02*
X193700D01*
X193800D02*
X197400D01*
X198100D02*
X198700D01*
X199100D02*
X206100D01*
X206500D02*
X207100D01*
X207500D02*
X207900D01*
X208000D02*
X209000D01*
X209900D02*
X210200D01*
X211300D02*
X211600D01*
X213400D02*
X214200D01*
X217900D02*
X218600D01*
X188400Y53200D02*
X190300D01*
X191600D02*
X191800D01*
X191900D02*
X192200D01*
X192400D02*
X193400D01*
X193700D02*
X197400D01*
X198100D02*
X198600D01*
X199000D02*
X206200D01*
X206600D02*
X207200D01*
X207500D02*
X207900D01*
X208300D02*
X208700D01*
X209900D02*
X210200D01*
X211300D02*
X211600D01*
X213300D02*
X214100D01*
X218100D02*
X218400D01*
X188900Y53100D02*
X190900D01*
X191500D02*
X191800D01*
X191900D02*
X192200D01*
X192400D02*
X193400D01*
X193700D02*
X197400D01*
X198200D02*
X198500D01*
X198900D02*
X199500D01*
X199700D02*
X205500D01*
X205600D02*
X206300D01*
X206700D02*
X207100D01*
X207500D02*
X208000D01*
X208300D02*
X208700D01*
X209900D02*
X210200D01*
X211300D02*
X211700D01*
X213300D02*
X213700D01*
X189400Y53000D02*
X191300D01*
X191600D02*
X192200D01*
X192400D02*
X192800D01*
X192900D02*
X193400D01*
X193700D02*
X194700D01*
X194900D02*
X196100D01*
X196400D02*
X197300D01*
X198800D02*
X199400D01*
X199800D02*
X205400D01*
X205700D02*
X206300D01*
X206800D02*
X207000D01*
X207600D02*
X208100D01*
X208300D02*
X208700D01*
X209900D02*
X210200D01*
X211400D02*
X211700D01*
X213300D02*
X213600D01*
X189900Y52900D02*
X192100D01*
X192600D02*
X192700D01*
X193000D02*
X193300D01*
X193800D02*
X194700D01*
X195100D02*
X196000D01*
X196400D02*
X197300D01*
X198700D02*
X199300D01*
X199700D02*
X205400D01*
X205900D02*
X206400D01*
X207700D02*
X208200D01*
X208300D02*
X208700D01*
X209900D02*
X210200D01*
X211400D02*
X211700D01*
X213300D02*
X213600D01*
X190400Y52800D02*
X192400D01*
X194200D02*
X194800D01*
X195300D02*
X195800D01*
X196300D02*
X197300D01*
X198600D02*
X199200D01*
X199600D02*
X205500D01*
X205900D02*
X206500D01*
X207700D02*
X208700D01*
X209900D02*
X210300D01*
X211400D02*
X211700D01*
X213200D02*
X213600D01*
X191000Y52700D02*
X192900D01*
X194100D02*
X194900D01*
X195300D02*
X195700D01*
X196100D02*
X197200D01*
X198600D02*
X199100D01*
X199600D02*
X205600D01*
X206100D02*
X206600D01*
X207800D02*
X208600D01*
X209700D02*
X210400D01*
X211300D02*
X211900D01*
X213000D02*
X213700D01*
X191400Y52600D02*
X193400D01*
X194000D02*
X195200D01*
X195300D02*
X195700D01*
X195900D02*
X197100D01*
X198700D02*
X199000D01*
X199400D02*
X200100D01*
X200200D02*
X205000D01*
X205100D02*
X205700D01*
X206200D02*
X206600D01*
X208000D02*
X208600D01*
X209600D02*
X210500D01*
X211200D02*
X212000D01*
X212900D02*
X213800D01*
X192000Y52500D02*
X193900D01*
X194000D02*
X197100D01*
X198700D02*
X198900D01*
X199400D02*
X200000D01*
X200300D02*
X204900D01*
X205200D02*
X205800D01*
X206200D02*
X206500D01*
X209600D02*
X210600D01*
X211100D02*
X212100D01*
X212900D02*
X213900D01*
X192500Y52400D02*
X194500D01*
X194600D02*
X197000D01*
X199200D02*
X199800D01*
X200300D02*
X204900D01*
X205300D02*
X205900D01*
X209500D02*
X210600D01*
X211100D02*
X212100D01*
X212800D02*
X213900D01*
X193000Y52300D02*
X196900D01*
X199200D02*
X199700D01*
X200200D02*
X205000D01*
X205400D02*
X206000D01*
X209500D02*
X210000D01*
X210200D02*
X210600D01*
X211100D02*
X211500D01*
X211700D02*
X212100D01*
X212800D02*
X213300D01*
X213500D02*
X213900D01*
X193500Y52200D02*
X196800D01*
X199100D02*
X199600D01*
X200100D02*
X205100D01*
X205500D02*
X206100D01*
X209500D02*
X209900D01*
X210200D02*
X210600D01*
X211100D02*
X211500D01*
X211700D02*
X212200D01*
X212800D02*
X213200D01*
X213500D02*
X213900D01*
X194000Y52100D02*
X196600D01*
X199200D02*
X199600D01*
X200000D02*
X200600D01*
X200700D02*
X205200D01*
X205600D02*
X206100D01*
X209500D02*
X210600D01*
X211100D02*
X211500D01*
X211700D02*
X212200D01*
X212800D02*
X213900D01*
X194500Y52000D02*
X196400D01*
X199200D02*
X199500D01*
X199900D02*
X200500D01*
X200800D02*
X204400D01*
X204600D02*
X205300D01*
X205700D02*
X206000D01*
X209600D02*
X210600D01*
X211100D02*
X212100D01*
X212900D02*
X213900D01*
X195100Y51900D02*
X196200D01*
X199800D02*
X200300D01*
X200800D02*
X204300D01*
X204800D02*
X205400D01*
X209600D02*
X210500D01*
X211100D02*
X212100D01*
X212900D02*
X213800D01*
X199700Y51800D02*
X200300D01*
X200700D02*
X204500D01*
X204900D02*
X205500D01*
X209700D02*
X210500D01*
X211200D02*
X212000D01*
X213000D02*
X213700D01*
X199600Y51700D02*
X200200D01*
X200700D02*
X204500D01*
X204900D02*
X205600D01*
X209800D02*
X210300D01*
X211300D02*
X211900D01*
X213100D02*
X213600D01*
X199600Y51600D02*
X200100D01*
X200500D02*
X201100D01*
X201200D02*
X204600D01*
X205000D02*
X205600D01*
X199400Y51500D02*
X200000D01*
X200400D02*
X201100D01*
X201300D02*
X203900D01*
X204100D02*
X204700D01*
X205100D02*
X205500D01*
X199300Y51400D02*
X199800D01*
X200300D02*
X200900D01*
X201400D02*
X203800D01*
X204200D02*
X204800D01*
X205300D02*
X205400D01*
X199200Y51300D02*
X199600D01*
X200200D02*
X200900D01*
X201300D02*
X203900D01*
X204300D02*
X204900D01*
X199200Y51200D02*
X199500D01*
X200200D02*
X200700D01*
X201200D02*
X204000D01*
X204400D02*
X205000D01*
X199200Y51100D02*
X199500D01*
X200200D02*
X200600D01*
X201200D02*
X204100D01*
X204500D02*
X205100D01*
X199200Y51000D02*
X199400D01*
X200200D02*
X200600D01*
X201000D02*
X201600D01*
X201800D02*
X203400D01*
X203600D02*
X204200D01*
X204600D02*
X205000D01*
X199100Y50900D02*
X199400D01*
X200900D02*
X201500D01*
X201900D02*
X203300D01*
X203700D02*
X204300D01*
X204700D02*
X204900D01*
X199100Y50800D02*
X199400D01*
X200800D02*
X201400D01*
X201800D02*
X203300D01*
X203800D02*
X204400D01*
X199100Y50700D02*
X199400D01*
X200700D02*
X201300D01*
X201800D02*
X203400D01*
X203900D02*
X204500D01*
X199000Y50600D02*
X199300D01*
X199600D02*
X199900D01*
X200700D02*
X201200D01*
X201700D02*
X202200D01*
X202900D02*
X203500D01*
X204000D02*
X204500D01*
X199000Y50500D02*
X200100D01*
X200700D02*
X201100D01*
X201500D02*
X202200D01*
X203000D02*
X203600D01*
X204100D02*
X204500D01*
X199100Y50400D02*
X200200D01*
X200600D02*
X201000D01*
X201400D02*
X202000D01*
X203100D02*
X203700D01*
X204100D02*
X204400D01*
X199100Y50300D02*
X199600D01*
X199900D02*
X200200D01*
X200500D02*
X200900D01*
X201300D02*
X201900D01*
X203200D02*
X203800D01*
X199900Y50200D02*
X200200D01*
X200500D02*
X200900D01*
X201200D02*
X201800D01*
X203300D02*
X203900D01*
X199800Y50100D02*
X200100D01*
X200300D02*
X200800D01*
X201200D02*
X201700D01*
X203400D02*
X204000D01*
X198800Y50000D02*
X200700D01*
X200900D02*
X201600D01*
X203500D02*
X204000D01*
X198600Y49900D02*
X201500D01*
X203600D02*
X203900D01*
X198400Y49800D02*
X201200D01*
X198200Y49700D02*
X198900D01*
X200400D02*
X200700D01*
X198000Y49600D02*
X198700D01*
X197900Y49500D02*
X198500D01*
X197800Y49400D02*
X198200D01*
X197700Y49300D02*
X198100D01*
X197700Y49200D02*
X198000D01*
X197700Y49100D02*
X198000D01*
X199200D02*
X206200D01*
X197600Y49000D02*
X197900D01*
X198900D02*
X206500D01*
X197600Y48900D02*
X197900D01*
X198800D02*
X206600D01*
X197500Y48800D02*
X197800D01*
X198700D02*
X206600D01*
X197500Y48700D02*
X197800D01*
X198700D02*
X206700D01*
X197500Y48600D02*
X197800D01*
X198600D02*
X206700D01*
X197500Y48500D02*
X197700D01*
X198600D02*
X206700D01*
X197500Y48400D02*
X197700D01*
X198600D02*
X199100D01*
X206300D02*
X206700D01*
X197500Y48300D02*
X197800D01*
X198600D02*
X199100D01*
X199200D02*
X206200D01*
X206300D02*
X206700D01*
X197500Y48200D02*
X197800D01*
X198600D02*
X199100D01*
X199200D02*
X206200D01*
X206300D02*
X206700D01*
X197600Y48100D02*
X197900D01*
X198600D02*
X199100D01*
X199200D02*
X206200D01*
X206300D02*
X206700D01*
X197600Y48000D02*
X198000D01*
X198600D02*
X199100D01*
X199200D02*
X206200D01*
X206300D02*
X206700D01*
X197700Y47900D02*
X198100D01*
X198600D02*
X199100D01*
X199200D02*
X206200D01*
X206300D02*
X206700D01*
X197800Y47800D02*
X198200D01*
X198600D02*
X199100D01*
X199200D02*
X206200D01*
X206300D02*
X206700D01*
X197800Y47700D02*
X198300D01*
X198600D02*
X199100D01*
X199200D02*
X206200D01*
X206300D02*
X206700D01*
X197900Y47600D02*
X198400D01*
X198600D02*
X199100D01*
X199200D02*
X206200D01*
X206300D02*
X206700D01*
X198100Y47500D02*
X198500D01*
X198600D02*
X199100D01*
X199200D02*
X206200D01*
X206300D02*
X206700D01*
X198200Y47400D02*
X199100D01*
X199200D02*
X206200D01*
X206300D02*
X206700D01*
X198300Y47300D02*
X199100D01*
X199200D02*
X203700D01*
X204300D02*
X206200D01*
X206300D02*
X206700D01*
X198400Y47200D02*
X199100D01*
X199200D02*
X203100D01*
X204200D02*
X206200D01*
X206300D02*
X206700D01*
X198600Y47100D02*
X199100D01*
X199200D02*
X202500D01*
X202900D02*
X203100D01*
X203900D02*
X204000D01*
X204200D02*
X206200D01*
X206300D02*
X206700D01*
X198600Y47000D02*
X199100D01*
X199200D02*
X201700D01*
X202300D02*
X203100D01*
X203700D02*
X204000D01*
X204100D02*
X206200D01*
X206300D02*
X206700D01*
X198600Y46900D02*
X199100D01*
X199200D02*
X201200D01*
X201600D02*
X202900D01*
X203500D02*
X203900D01*
X204000D02*
X206200D01*
X206300D02*
X206700D01*
X198600Y46800D02*
X199100D01*
X199200D02*
X200800D01*
X201100D02*
X202500D01*
X202800D02*
X203100D01*
X203300D02*
X203800D01*
X203900D02*
X206200D01*
X206300D02*
X206700D01*
X198600Y46700D02*
X199100D01*
X199200D02*
X201000D01*
X201200D02*
X202200D01*
X202400D02*
X202900D01*
X203100D02*
X206200D01*
X206300D02*
X206700D01*
X198600Y46600D02*
X199100D01*
X199200D02*
X201200D01*
X201300D02*
X201900D01*
X202100D02*
X202800D01*
X202900D02*
X203700D01*
X203800D02*
X206200D01*
X206300D02*
X206700D01*
X198600Y46500D02*
X199100D01*
X199200D02*
X201400D01*
X201800D02*
X202500D01*
X202700D02*
X203600D01*
X203700D02*
X206200D01*
X206300D02*
X206700D01*
X198600Y46400D02*
X199100D01*
X199200D02*
X201500D01*
X201600D02*
X202400D01*
X202500D02*
X203500D01*
X203600D02*
X206200D01*
X206300D02*
X206700D01*
X198600Y46300D02*
X199100D01*
X199200D02*
X201500D01*
X201600D02*
X202200D01*
X202300D02*
X206200D01*
X206300D02*
X206700D01*
X198600Y46200D02*
X199100D01*
X199200D02*
X202000D01*
X202200D02*
X206200D01*
X206300D02*
X206700D01*
X198600Y46100D02*
X199100D01*
X199200D02*
X201900D01*
X202000D02*
X202100D01*
X202200D02*
X203300D01*
X203400D02*
X206200D01*
X206300D02*
X206700D01*
X198600Y46000D02*
X199100D01*
X199200D02*
X201600D01*
X201700D02*
X201900D01*
X202000D02*
X202200D01*
X202400D02*
X203200D01*
X203300D02*
X206200D01*
X206300D02*
X206700D01*
X198600Y45900D02*
X199100D01*
X199200D02*
X201600D01*
X201700D02*
X201800D01*
X201900D02*
X202200D01*
X202500D02*
X203100D01*
X203200D02*
X206200D01*
X206300D02*
X206700D01*
X198600Y45800D02*
X199100D01*
X199200D02*
X201600D01*
X201900D02*
X202100D01*
X202200D02*
X202600D01*
X202700D02*
X203000D01*
X203100D02*
X206200D01*
X206300D02*
X206700D01*
X198600Y45700D02*
X199100D01*
X199200D02*
X201600D01*
X202000D02*
X202700D01*
X202800D02*
X203000D01*
X203100D02*
X206200D01*
X206300D02*
X206700D01*
X198600Y45600D02*
X199100D01*
X199200D02*
X201700D01*
X201800D02*
X202900D01*
X203000D02*
X206200D01*
X206300D02*
X206700D01*
X198600Y45500D02*
X199100D01*
X199200D02*
X206200D01*
X206300D02*
X206700D01*
X198600Y45400D02*
X199100D01*
X199200D02*
X206200D01*
X206300D02*
X206700D01*
X198600Y45300D02*
X199100D01*
X199200D02*
X206200D01*
X206300D02*
X206900D01*
X198600Y45200D02*
X199100D01*
X199200D02*
X206200D01*
X206300D02*
X207000D01*
X198600Y45100D02*
X199100D01*
X199200D02*
X206200D01*
X206300D02*
X207000D01*
X198600Y45000D02*
X199100D01*
X199200D02*
X206200D01*
X206300D02*
X207000D01*
X207100D02*
X207700D01*
X198600Y44900D02*
X199100D01*
X199200D02*
X206200D01*
X206300D02*
X207900D01*
X198600Y44800D02*
X199100D01*
X199200D02*
X206200D01*
X206300D02*
X207300D01*
X207400D02*
X208100D01*
X198600Y44700D02*
X199100D01*
X199200D02*
X206200D01*
X206300D02*
X207200D01*
X207700D02*
X208100D01*
X198600Y44600D02*
X199100D01*
X199200D02*
X206200D01*
X206300D02*
X207200D01*
X207900D02*
X208200D01*
X198700Y44500D02*
X199100D01*
X206300D02*
X206700D01*
X206800D02*
X207100D01*
X207900D02*
X208200D01*
X198700Y44400D02*
X206700D01*
X207900D02*
X208200D01*
X198700Y44300D02*
X206600D01*
X208000D02*
X208200D01*
X198800Y44200D02*
X206600D01*
X208000D02*
X208300D01*
X199000Y44100D02*
X206400D01*
X208000D02*
X208300D01*
X198800Y44000D02*
X206600D01*
X208000D02*
X208300D01*
X198600Y43900D02*
X206700D01*
X208000D02*
X208300D01*
X198500Y43800D02*
X206800D01*
X208000D02*
X208300D01*
X198500Y43700D02*
X206900D01*
X208000D02*
X208300D01*
X198400Y43600D02*
X206900D01*
X208000D02*
X209000D01*
X198400Y43500D02*
X207000D01*
X208200D02*
X209000D01*
X198300Y43400D02*
X199000D01*
X199400D02*
X199800D01*
X200100D02*
X200500D01*
X200900D02*
X201300D01*
X201700D02*
X202100D01*
X202500D02*
X202900D01*
X203300D02*
X203600D01*
X204000D02*
X204400D01*
X204800D02*
X205200D01*
X205600D02*
X206000D01*
X206400D02*
X207000D01*
X208800D02*
X209100D01*
X198300Y43300D02*
X207100D01*
X208400D02*
X209500D01*
X198300Y43200D02*
X207100D01*
X208200D02*
X208700D01*
X208800D02*
X209600D01*
X198200Y43100D02*
X200500D01*
X200600D02*
X204500D01*
X204800D02*
X205300D01*
X205600D02*
X207100D01*
X208100D02*
X209700D01*
X198200Y43000D02*
X198800D01*
X199200D02*
X199600D01*
X200000D02*
X200400D01*
X200800D02*
X201200D01*
X201700D02*
X202100D01*
X202500D02*
X202900D01*
X203300D02*
X203700D01*
X204100D02*
X204500D01*
X204900D02*
X205300D01*
X205700D02*
X206100D01*
X206500D02*
X207200D01*
X208100D02*
X209800D01*
X198100Y42900D02*
X206100D01*
X206600D02*
X207200D01*
X208000D02*
X208700D01*
X208800D02*
X209800D01*
X198100Y42800D02*
X206200D01*
X206600D02*
X207300D01*
X208000D02*
X208700D01*
X208800D02*
X209000D01*
X209100D02*
X209800D01*
X198000Y42700D02*
X198700D01*
X199100D02*
X199500D01*
X200000D02*
X200400D01*
X200800D02*
X201200D01*
X201600D02*
X202000D01*
X202500D02*
X202900D01*
X203300D02*
X203700D01*
X204100D02*
X204500D01*
X204900D02*
X205400D01*
X206700D02*
X207300D01*
X208000D02*
X208800D01*
X209100D02*
X209800D01*
X198000Y42600D02*
X198600D01*
X199100D02*
X199500D01*
X199900D02*
X200300D01*
X200800D02*
X201200D01*
X201600D02*
X202000D01*
X202500D02*
X202900D01*
X203300D02*
X203700D01*
X204200D02*
X204600D01*
X205000D02*
X205500D01*
X206700D02*
X207400D01*
X208000D02*
X209800D01*
X197900Y42500D02*
X207400D01*
X208000D02*
X209800D01*
X197900Y42400D02*
X207400D01*
X208000D02*
X209800D01*
X197900Y42300D02*
X198500D01*
X199000D02*
X199400D01*
X199900D02*
X200300D01*
X200700D02*
X201100D01*
X204200D02*
X204600D01*
X205100D02*
X205500D01*
X206800D02*
X207500D01*
X208000D02*
X209800D01*
X197800Y42200D02*
X199700D01*
X199800D02*
X204700D01*
X205100D02*
X207600D01*
X208000D02*
X209800D01*
X197800Y42100D02*
X207600D01*
X208000D02*
X209800D01*
X197700Y42000D02*
X207600D01*
X208000D02*
X209800D01*
X197700Y41900D02*
X201400D01*
X203900D02*
X207700D01*
X208000D02*
X209800D01*
X197600Y41800D02*
X201400D01*
X203900D02*
X207700D01*
X208100D02*
X209700D01*
X197600Y41700D02*
X207800D01*
X208200D02*
X209700D01*
X197600Y41600D02*
X207800D01*
X208300D02*
X209600D01*
X197600Y41500D02*
X201400D01*
X202500D02*
X202900D01*
X203900D02*
X207800D01*
X208400D02*
X209400D01*
X197600Y41400D02*
X207800D01*
X197600Y41300D02*
X207800D01*
X197600Y41200D02*
X207800D01*
X197600Y41100D02*
X207800D01*
X197700Y41000D02*
X207600D01*
X185700Y38400D02*
X187900D01*
X190200D02*
X191300D01*
X192700D02*
X195000D01*
X197200D02*
X198300D01*
X199500D02*
X202200D01*
X202400D02*
X203000D01*
X203400D02*
X204000D01*
X205600D02*
X206400D01*
X208900D02*
X210600D01*
X210900D02*
X211500D01*
X213500D02*
X214100D01*
X216000D02*
X216600D01*
X216900D02*
X219200D01*
X185700Y38300D02*
X188300D01*
X189800D02*
X191700D01*
X192700D02*
X195400D01*
X196800D02*
X198700D01*
X199500D02*
X202200D01*
X202400D02*
X203000D01*
X203400D02*
X204000D01*
X205400D02*
X206400D01*
X208500D02*
X210600D01*
X210900D02*
X211500D01*
X213500D02*
X214100D01*
X216000D02*
X216600D01*
X216900D02*
X219500D01*
X185700Y38200D02*
X188400D01*
X189600D02*
X191900D01*
X192700D02*
X195500D01*
X196600D02*
X198900D01*
X199500D02*
X202200D01*
X202400D02*
X203000D01*
X203400D02*
X204000D01*
X205300D02*
X206300D01*
X208300D02*
X210600D01*
X210900D02*
X211500D01*
X213500D02*
X214100D01*
X216000D02*
X216600D01*
X216900D02*
X219700D01*
X185700Y38100D02*
X188500D01*
X189400D02*
X192000D01*
X192700D02*
X195600D01*
X196500D02*
X199000D01*
X199500D02*
X202200D01*
X202400D02*
X203000D01*
X203400D02*
X204000D01*
X205200D02*
X206200D01*
X208100D02*
X210600D01*
X210900D02*
X211500D01*
X213500D02*
X214100D01*
X216000D02*
X216600D01*
X216900D02*
X219800D01*
X185700Y38000D02*
X188600D01*
X189400D02*
X192100D01*
X192700D02*
X195700D01*
X196400D02*
X199100D01*
X199500D02*
X202200D01*
X202400D02*
X203000D01*
X203400D02*
X204000D01*
X205100D02*
X206000D01*
X208000D02*
X210600D01*
X210900D02*
X211500D01*
X213500D02*
X214100D01*
X216000D02*
X216600D01*
X216900D02*
X219800D01*
X185700Y37900D02*
X188700D01*
X189300D02*
X192200D01*
X192700D02*
X195700D01*
X196300D02*
X199200D01*
X199500D02*
X202200D01*
X202400D02*
X203000D01*
X203400D02*
X204000D01*
X204900D02*
X205900D01*
X208000D02*
X210600D01*
X210900D02*
X211500D01*
X213500D02*
X214100D01*
X216000D02*
X216600D01*
X216900D02*
X219900D01*
X185700Y37800D02*
X186300D01*
X187800D02*
X188700D01*
X189200D02*
X190300D01*
X191200D02*
X192300D01*
X192700D02*
X193300D01*
X194800D02*
X195700D01*
X196200D02*
X197300D01*
X198200D02*
X199300D01*
X200500D02*
X201100D01*
X202400D02*
X203000D01*
X203400D02*
X204000D01*
X204800D02*
X205800D01*
X207900D02*
X209000D01*
X210900D02*
X211500D01*
X213500D02*
X214100D01*
X216000D02*
X216600D01*
X216900D02*
X217500D01*
X219000D02*
X219900D01*
X185700Y37700D02*
X186300D01*
X188000D02*
X188700D01*
X189200D02*
X190000D01*
X191500D02*
X192300D01*
X192700D02*
X193300D01*
X195100D02*
X195700D01*
X196100D02*
X197000D01*
X198500D02*
X199300D01*
X200500D02*
X201100D01*
X202400D02*
X203000D01*
X203400D02*
X204000D01*
X204700D02*
X205600D01*
X207900D02*
X208700D01*
X210900D02*
X211500D01*
X213500D02*
X214100D01*
X216000D02*
X216600D01*
X216900D02*
X217500D01*
X219200D02*
X219900D01*
X185700Y37600D02*
X186300D01*
X188100D02*
X188700D01*
X189100D02*
X189900D01*
X191600D02*
X192400D01*
X192700D02*
X193300D01*
X195100D02*
X195700D01*
X196100D02*
X196900D01*
X198600D02*
X199400D01*
X200500D02*
X201100D01*
X202400D02*
X203000D01*
X203400D02*
X204000D01*
X204500D02*
X205500D01*
X207800D02*
X208600D01*
X210900D02*
X211500D01*
X213500D02*
X214100D01*
X216000D02*
X216600D01*
X216900D02*
X217500D01*
X219300D02*
X219900D01*
X185700Y37500D02*
X186300D01*
X188100D02*
X188800D01*
X189100D02*
X189800D01*
X191700D02*
X192400D01*
X192700D02*
X193300D01*
X195100D02*
X195700D01*
X196100D02*
X196800D01*
X198700D02*
X199400D01*
X200500D02*
X201100D01*
X202400D02*
X203000D01*
X203400D02*
X204000D01*
X204400D02*
X205300D01*
X207800D02*
X208500D01*
X210900D02*
X211500D01*
X213500D02*
X214100D01*
X216000D02*
X216600D01*
X216900D02*
X217500D01*
X219300D02*
X219900D01*
X185700Y37400D02*
X186300D01*
X188200D02*
X188800D01*
X189100D02*
X189700D01*
X191800D02*
X192400D01*
X192700D02*
X193300D01*
X195100D02*
X195700D01*
X196000D02*
X196700D01*
X198700D02*
X199400D01*
X200500D02*
X201100D01*
X202400D02*
X203000D01*
X203400D02*
X204000D01*
X204300D02*
X205200D01*
X207700D02*
X208400D01*
X210900D02*
X211500D01*
X213500D02*
X214100D01*
X216000D02*
X216600D01*
X216900D02*
X217500D01*
X219300D02*
X219900D01*
X185700Y37300D02*
X186300D01*
X188200D02*
X188800D01*
X189000D02*
X189700D01*
X191800D02*
X192400D01*
X192700D02*
X193300D01*
X195000D02*
X195700D01*
X196000D02*
X196700D01*
X198800D02*
X199400D01*
X200500D02*
X201100D01*
X202400D02*
X203000D01*
X203400D02*
X204000D01*
X204100D02*
X205100D01*
X207700D02*
X208400D01*
X210900D02*
X211500D01*
X213500D02*
X214100D01*
X216000D02*
X216600D01*
X216900D02*
X217500D01*
X219100D02*
X219800D01*
X185700Y37200D02*
X186300D01*
X188200D02*
X188800D01*
X189000D02*
X189600D01*
X191800D02*
X192400D01*
X192700D02*
X193300D01*
X193600D02*
X195600D01*
X196000D02*
X196600D01*
X198800D02*
X199400D01*
X200500D02*
X201100D01*
X202400D02*
X203000D01*
X203400D02*
X205000D01*
X207700D02*
X208300D01*
X210900D02*
X211500D01*
X213500D02*
X214100D01*
X216000D02*
X216600D01*
X216900D02*
X217500D01*
X217700D02*
X219800D01*
X185700Y37100D02*
X186300D01*
X188100D02*
X188700D01*
X189000D02*
X189600D01*
X191800D02*
X192500D01*
X192700D02*
X193300D01*
X193600D02*
X195500D01*
X196000D02*
X196600D01*
X198900D02*
X199400D01*
X200500D02*
X201100D01*
X202400D02*
X203000D01*
X203400D02*
X204800D01*
X207700D02*
X208300D01*
X210900D02*
X211500D01*
X213500D02*
X214100D01*
X216000D02*
X216600D01*
X216900D02*
X217500D01*
X217700D02*
X219700D01*
X185700Y37000D02*
X186300D01*
X188000D02*
X188700D01*
X189000D02*
X189600D01*
X191900D02*
X192500D01*
X192700D02*
X193300D01*
X193600D02*
X195600D01*
X196000D02*
X196600D01*
X198900D02*
X199400D01*
X200500D02*
X201100D01*
X202400D02*
X203000D01*
X203400D02*
X204700D01*
X207700D02*
X208300D01*
X210900D02*
X211500D01*
X213500D02*
X214100D01*
X216000D02*
X216600D01*
X216900D02*
X217500D01*
X217700D02*
X219700D01*
X185700Y36900D02*
X186300D01*
X187900D02*
X188700D01*
X189000D02*
X189600D01*
X191800D02*
X192500D01*
X192700D02*
X193300D01*
X193600D02*
X195600D01*
X196000D02*
X196600D01*
X198900D02*
X199400D01*
X200500D02*
X201100D01*
X202400D02*
X203000D01*
X203400D02*
X204800D01*
X207700D02*
X208300D01*
X210900D02*
X211500D01*
X213500D02*
X214100D01*
X216000D02*
X216600D01*
X216900D02*
X217500D01*
X217700D02*
X219800D01*
X185700Y36800D02*
X186300D01*
X186500D02*
X188700D01*
X189000D02*
X189600D01*
X191800D02*
X192400D01*
X192700D02*
X193300D01*
X193600D02*
X195700D01*
X196000D02*
X196600D01*
X198800D02*
X199400D01*
X200500D02*
X201100D01*
X202400D02*
X203000D01*
X203400D02*
X204000D01*
X204100D02*
X205000D01*
X207700D02*
X208300D01*
X210900D02*
X211500D01*
X213500D02*
X214100D01*
X216000D02*
X216600D01*
X216900D02*
X217500D01*
X217700D02*
X219900D01*
X185700Y36700D02*
X186300D01*
X186500D02*
X188600D01*
X189000D02*
X189600D01*
X191800D02*
X192400D01*
X192700D02*
X193300D01*
X195000D02*
X195700D01*
X196000D02*
X196600D01*
X198800D02*
X199400D01*
X200500D02*
X201100D01*
X202400D02*
X203000D01*
X203400D02*
X204000D01*
X204200D02*
X205100D01*
X207700D02*
X208300D01*
X210900D02*
X211500D01*
X213500D02*
X214100D01*
X216000D02*
X216600D01*
X216900D02*
X217500D01*
X219200D02*
X219900D01*
X185700Y36600D02*
X186300D01*
X186500D02*
X188500D01*
X189100D02*
X189700D01*
X191800D02*
X192400D01*
X192700D02*
X193300D01*
X195100D02*
X195800D01*
X196100D02*
X196700D01*
X198800D02*
X199400D01*
X200500D02*
X201100D01*
X202400D02*
X203000D01*
X203400D02*
X204000D01*
X204300D02*
X205200D01*
X207700D02*
X208400D01*
X210900D02*
X211500D01*
X213500D02*
X214200D01*
X216000D02*
X216600D01*
X216900D02*
X217500D01*
X219300D02*
X219900D01*
X185700Y36500D02*
X186300D01*
X186500D02*
X188400D01*
X189100D02*
X189800D01*
X191700D02*
X192400D01*
X192700D02*
X193300D01*
X195200D02*
X195800D01*
X196100D02*
X196800D01*
X198700D02*
X199400D01*
X200500D02*
X201100D01*
X202400D02*
X203000D01*
X203400D02*
X204000D01*
X204400D02*
X205400D01*
X207800D02*
X208400D01*
X210900D02*
X211500D01*
X213500D02*
X214200D01*
X215900D02*
X216600D01*
X216900D02*
X217500D01*
X219300D02*
X220000D01*
X185700Y36400D02*
X186300D01*
X186500D02*
X188300D01*
X189100D02*
X189800D01*
X191600D02*
X192400D01*
X192700D02*
X193300D01*
X195200D02*
X195800D01*
X196100D02*
X196800D01*
X198600D02*
X199400D01*
X200500D02*
X201100D01*
X202400D02*
X203000D01*
X203400D02*
X204000D01*
X204600D02*
X205500D01*
X207800D02*
X208500D01*
X210900D02*
X211500D01*
X213600D02*
X214200D01*
X215900D02*
X216600D01*
X216900D02*
X217500D01*
X219300D02*
X220000D01*
X185700Y36300D02*
X186300D01*
X187600D02*
X188400D01*
X189200D02*
X189900D01*
X191500D02*
X192300D01*
X192700D02*
X193300D01*
X195100D02*
X195800D01*
X196200D02*
X197000D01*
X198500D02*
X199300D01*
X200500D02*
X201100D01*
X202400D02*
X203000D01*
X203400D02*
X204000D01*
X204700D02*
X205600D01*
X207900D02*
X208700D01*
X210900D02*
X211500D01*
X213600D02*
X214300D01*
X215800D02*
X216500D01*
X216900D02*
X217500D01*
X219300D02*
X219900D01*
X185700Y36200D02*
X186300D01*
X187600D02*
X188500D01*
X189200D02*
X190200D01*
X191300D02*
X192200D01*
X192700D02*
X193300D01*
X195000D02*
X195800D01*
X196200D02*
X197100D01*
X198300D02*
X199300D01*
X200500D02*
X201100D01*
X202400D02*
X203000D01*
X203400D02*
X204000D01*
X204800D02*
X205800D01*
X207900D02*
X208800D01*
X210900D02*
X211500D01*
X213600D02*
X214500D01*
X215700D02*
X216500D01*
X216900D02*
X217500D01*
X219100D02*
X219900D01*
X185700Y36100D02*
X186300D01*
X187800D02*
X188600D01*
X189300D02*
X192200D01*
X192700D02*
X195700D01*
X196300D02*
X199200D01*
X200500D02*
X201100D01*
X202400D02*
X203000D01*
X203400D02*
X204000D01*
X205000D02*
X205900D01*
X208000D02*
X210600D01*
X210900D02*
X213300D01*
X213700D02*
X216400D01*
X216900D02*
X219900D01*
X185700Y36000D02*
X186300D01*
X187800D02*
X188700D01*
X189400D02*
X192100D01*
X192700D02*
X195700D01*
X196300D02*
X199100D01*
X200500D02*
X201100D01*
X202400D02*
X203000D01*
X203400D02*
X204000D01*
X205100D02*
X206100D01*
X208000D02*
X210600D01*
X210900D02*
X213300D01*
X213700D02*
X216400D01*
X216900D02*
X219900D01*
X185700Y35900D02*
X186300D01*
X187900D02*
X188800D01*
X189500D02*
X192000D01*
X192700D02*
X195600D01*
X196400D02*
X199000D01*
X200500D02*
X201100D01*
X202400D02*
X203000D01*
X203400D02*
X204000D01*
X205200D02*
X206100D01*
X208200D02*
X210600D01*
X210900D02*
X213300D01*
X213800D02*
X216300D01*
X216900D02*
X219800D01*
X185700Y35800D02*
X186300D01*
X188000D02*
X188900D01*
X189600D02*
X191900D01*
X192700D02*
X195500D01*
X196600D02*
X198900D01*
X200500D02*
X201100D01*
X202400D02*
X203000D01*
X203400D02*
X204000D01*
X205300D02*
X206300D01*
X208300D02*
X210600D01*
X210900D02*
X213300D01*
X213900D02*
X216200D01*
X216900D02*
X219700D01*
X185700Y35700D02*
X186300D01*
X188100D02*
X189000D01*
X189700D02*
X191700D01*
X192700D02*
X195400D01*
X196700D02*
X198700D01*
X200500D02*
X201100D01*
X202400D02*
X203000D01*
X203400D02*
X204000D01*
X205500D02*
X206400D01*
X208400D02*
X210600D01*
X210900D02*
X213300D01*
X214100D02*
X216000D01*
X216900D02*
X219600D01*
X185700Y35600D02*
X186300D01*
X188200D02*
X189000D01*
X190100D02*
X191400D01*
X192700D02*
X195200D01*
X197000D02*
X198400D01*
X200500D02*
X201100D01*
X202400D02*
X203000D01*
X203400D02*
X204000D01*
X205600D02*
X206500D01*
X208700D02*
X210600D01*
X210900D02*
X213300D01*
X214300D02*
X215800D01*
X216900D02*
X219300D01*
M02*
