G04 Layer_Color=65535*
%FSLAX25Y25*%
%MOIN*%
G70*
G01*
G75*
%ADD28C,0.01000*%
%ADD29C,0.00787*%
%ADD30C,0.00500*%
%ADD31C,0.00591*%
%ADD32C,0.00394*%
%ADD33C,0.00100*%
G36*
X130445Y193993D02*
X119200D01*
Y197875D01*
X130445D01*
Y193993D01*
D02*
G37*
G36*
X202076Y192493D02*
X192700D01*
Y196360D01*
X202076D01*
Y192493D01*
D02*
G37*
%LPC*%
G36*
X125586Y197560D02*
X125035D01*
X124410Y195666D01*
X123759Y197560D01*
X123200D01*
X124118Y195000D01*
X124676D01*
X125586Y197560D01*
D02*
G37*
G36*
X122242Y197575D02*
X122205D01*
X122142Y197572D01*
X122083Y197568D01*
X121968Y197549D01*
X121872Y197520D01*
X121827Y197505D01*
X121787Y197486D01*
X121750Y197472D01*
X121720Y197453D01*
X121690Y197438D01*
X121668Y197427D01*
X121650Y197412D01*
X121639Y197405D01*
X121631Y197401D01*
X121627Y197398D01*
X121587Y197361D01*
X121550Y197324D01*
X121517Y197279D01*
X121487Y197231D01*
X121442Y197135D01*
X121405Y197042D01*
X121394Y196994D01*
X121383Y196954D01*
X121372Y196917D01*
X121369Y196883D01*
X121361Y196854D01*
Y196835D01*
X121357Y196820D01*
Y196817D01*
X121846Y196769D01*
X121853Y196843D01*
X121868Y196906D01*
X121883Y196961D01*
X121901Y197002D01*
X121916Y197035D01*
X121931Y197057D01*
X121942Y197072D01*
X121946Y197076D01*
X121983Y197105D01*
X122023Y197127D01*
X122064Y197146D01*
X122105Y197157D01*
X122138Y197164D01*
X122168Y197168D01*
X122194D01*
X122249Y197164D01*
X122297Y197153D01*
X122338Y197139D01*
X122375Y197124D01*
X122401Y197109D01*
X122423Y197094D01*
X122434Y197083D01*
X122438Y197079D01*
X122467Y197042D01*
X122490Y197002D01*
X122504Y196961D01*
X122515Y196920D01*
X122523Y196883D01*
X122527Y196850D01*
Y196832D01*
Y196828D01*
Y196824D01*
X122523Y196769D01*
X122512Y196717D01*
X122493Y196665D01*
X122475Y196621D01*
X122456Y196580D01*
X122438Y196550D01*
X122427Y196532D01*
X122423Y196524D01*
X122408Y196502D01*
X122386Y196476D01*
X122356Y196443D01*
X122327Y196413D01*
X122260Y196343D01*
X122194Y196273D01*
X122127Y196206D01*
X122097Y196177D01*
X122068Y196154D01*
X122046Y196132D01*
X122031Y196117D01*
X122020Y196106D01*
X122016Y196103D01*
X121942Y196032D01*
X121875Y195966D01*
X121812Y195903D01*
X121757Y195847D01*
X121705Y195792D01*
X121661Y195740D01*
X121620Y195696D01*
X121587Y195651D01*
X121557Y195614D01*
X121531Y195581D01*
X121509Y195555D01*
X121494Y195529D01*
X121479Y195514D01*
X121472Y195500D01*
X121465Y195492D01*
Y195488D01*
X121417Y195403D01*
X121380Y195315D01*
X121350Y195233D01*
X121328Y195159D01*
X121313Y195092D01*
X121309Y195067D01*
X121306Y195044D01*
X121302Y195026D01*
X121298Y195011D01*
Y195004D01*
Y195000D01*
X123019D01*
Y195455D01*
X122042D01*
X122072Y195503D01*
X122105Y195544D01*
X122120Y195562D01*
X122131Y195577D01*
X122138Y195585D01*
X122142Y195588D01*
X122157Y195603D01*
X122171Y195622D01*
X122216Y195662D01*
X122264Y195710D01*
X122312Y195758D01*
X122360Y195803D01*
X122401Y195840D01*
X122416Y195855D01*
X122427Y195866D01*
X122434Y195870D01*
X122438Y195873D01*
X122519Y195951D01*
X122586Y196014D01*
X122641Y196073D01*
X122686Y196117D01*
X122719Y196154D01*
X122741Y196180D01*
X122756Y196199D01*
X122760Y196203D01*
X122808Y196265D01*
X122848Y196325D01*
X122882Y196380D01*
X122908Y196428D01*
X122930Y196469D01*
X122945Y196502D01*
X122952Y196521D01*
X122956Y196528D01*
X122978Y196587D01*
X122993Y196646D01*
X123004Y196702D01*
X123011Y196754D01*
X123015Y196794D01*
X123019Y196828D01*
Y196850D01*
Y196857D01*
X123015Y196913D01*
X123008Y196968D01*
X123000Y197020D01*
X122985Y197068D01*
X122948Y197153D01*
X122911Y197227D01*
X122889Y197261D01*
X122871Y197287D01*
X122852Y197312D01*
X122834Y197331D01*
X122819Y197346D01*
X122811Y197361D01*
X122804Y197364D01*
X122800Y197368D01*
X122760Y197405D01*
X122712Y197438D01*
X122667Y197464D01*
X122615Y197486D01*
X122519Y197523D01*
X122423Y197549D01*
X122379Y197557D01*
X122338Y197564D01*
X122301Y197568D01*
X122268Y197572D01*
X122242Y197575D01*
D02*
G37*
G36*
X129116Y197560D02*
X128569D01*
X127577Y195000D01*
X128125D01*
X128336Y195581D01*
X129364D01*
X129586Y195000D01*
X130145D01*
X129116Y197560D01*
D02*
G37*
G36*
X120625Y197575D02*
X120225D01*
X120188Y197490D01*
X120140Y197412D01*
X120088Y197338D01*
X120036Y197279D01*
X119992Y197231D01*
X119951Y197194D01*
X119937Y197179D01*
X119925Y197168D01*
X119918Y197164D01*
X119914Y197161D01*
X119833Y197102D01*
X119755Y197050D01*
X119685Y197009D01*
X119622Y196979D01*
X119570Y196957D01*
X119533Y196939D01*
X119518Y196935D01*
X119507Y196931D01*
X119504Y196928D01*
X119500D01*
Y196484D01*
X119633Y196536D01*
X119752Y196591D01*
X119807Y196621D01*
X119859Y196654D01*
X119907Y196684D01*
X119951Y196713D01*
X119992Y196743D01*
X120029Y196769D01*
X120059Y196791D01*
X120085Y196813D01*
X120107Y196832D01*
X120122Y196843D01*
X120129Y196850D01*
X120133Y196854D01*
Y195000D01*
X120625D01*
Y197575D01*
D02*
G37*
G36*
X127596Y194612D02*
X125553D01*
Y194293D01*
X127596D01*
Y194612D01*
D02*
G37*
%LPD*%
G36*
X129198Y196014D02*
X128491D01*
X128839Y196965D01*
X129198Y196014D01*
D02*
G37*
%LPC*%
G36*
X194609Y196027D02*
X193311D01*
X193059Y194691D01*
X193455Y194636D01*
X193488Y194669D01*
X193522Y194699D01*
X193555Y194725D01*
X193588Y194747D01*
X193651Y194780D01*
X193710Y194802D01*
X193762Y194814D01*
X193799Y194821D01*
X193814Y194825D01*
X193836D01*
X193895Y194821D01*
X193951Y194806D01*
X193999Y194788D01*
X194040Y194765D01*
X194069Y194739D01*
X194095Y194721D01*
X194110Y194706D01*
X194114Y194702D01*
X194151Y194654D01*
X194177Y194599D01*
X194195Y194540D01*
X194206Y194481D01*
X194217Y194429D01*
X194221Y194388D01*
Y194369D01*
Y194358D01*
Y194351D01*
Y194347D01*
X194217Y194258D01*
X194206Y194181D01*
X194188Y194118D01*
X194169Y194066D01*
X194147Y194022D01*
X194132Y193992D01*
X194117Y193977D01*
X194114Y193970D01*
X194073Y193929D01*
X194029Y193896D01*
X193984Y193874D01*
X193944Y193859D01*
X193906Y193851D01*
X193877Y193848D01*
X193858Y193844D01*
X193851D01*
X193803Y193848D01*
X193755Y193859D01*
X193714Y193874D01*
X193681Y193892D01*
X193651Y193911D01*
X193629Y193925D01*
X193614Y193937D01*
X193611Y193940D01*
X193577Y193981D01*
X193548Y194022D01*
X193525Y194066D01*
X193511Y194107D01*
X193500Y194144D01*
X193492Y194177D01*
X193488Y194196D01*
Y194203D01*
X193000Y194151D01*
X193011Y194092D01*
X193022Y194036D01*
X193059Y193937D01*
X193100Y193848D01*
X193122Y193811D01*
X193148Y193774D01*
X193170Y193744D01*
X193189Y193718D01*
X193211Y193696D01*
X193226Y193674D01*
X193240Y193659D01*
X193252Y193648D01*
X193259Y193644D01*
X193263Y193641D01*
X193307Y193607D01*
X193351Y193578D01*
X193400Y193552D01*
X193448Y193533D01*
X193548Y193496D01*
X193636Y193474D01*
X193681Y193467D01*
X193718Y193463D01*
X193755Y193459D01*
X193784Y193456D01*
X193810Y193452D01*
X193844D01*
X193925Y193456D01*
X194003Y193467D01*
X194073Y193482D01*
X194140Y193504D01*
X194202Y193530D01*
X194258Y193559D01*
X194310Y193589D01*
X194358Y193622D01*
X194399Y193652D01*
X194436Y193681D01*
X194469Y193711D01*
X194495Y193737D01*
X194513Y193759D01*
X194528Y193774D01*
X194536Y193785D01*
X194539Y193789D01*
X194572Y193837D01*
X194602Y193885D01*
X194624Y193933D01*
X194647Y193985D01*
X194680Y194081D01*
X194702Y194170D01*
X194709Y194207D01*
X194713Y194244D01*
X194720Y194277D01*
Y194307D01*
X194724Y194329D01*
Y194344D01*
Y194355D01*
Y194358D01*
X194720Y194429D01*
X194713Y194495D01*
X194702Y194558D01*
X194687Y194617D01*
X194672Y194669D01*
X194650Y194721D01*
X194632Y194769D01*
X194609Y194810D01*
X194587Y194847D01*
X194569Y194880D01*
X194547Y194910D01*
X194532Y194932D01*
X194517Y194950D01*
X194506Y194965D01*
X194499Y194973D01*
X194495Y194976D01*
X194450Y195017D01*
X194406Y195054D01*
X194358Y195087D01*
X194310Y195117D01*
X194265Y195139D01*
X194217Y195158D01*
X194132Y195187D01*
X194091Y195198D01*
X194054Y195206D01*
X194021Y195209D01*
X193995Y195213D01*
X193973Y195217D01*
X193940D01*
X193877Y195213D01*
X193814Y195202D01*
X193758Y195191D01*
X193707Y195176D01*
X193666Y195158D01*
X193633Y195147D01*
X193611Y195135D01*
X193607Y195132D01*
X193603D01*
X193681Y195568D01*
X194609D01*
Y196027D01*
D02*
G37*
G36*
X197218Y196060D02*
X196667D01*
X196041Y194166D01*
X195390Y196060D01*
X194832D01*
X195749Y193500D01*
X196308D01*
X197218Y196060D01*
D02*
G37*
G36*
X199227Y193112D02*
X197185D01*
Y192793D01*
X199227D01*
Y193112D01*
D02*
G37*
G36*
X200748Y196060D02*
X200200D01*
X199209Y193500D01*
X199756D01*
X199967Y194081D01*
X200996D01*
X201218Y193500D01*
X201776D01*
X200748Y196060D01*
D02*
G37*
%LPD*%
G36*
X200829Y194514D02*
X200122D01*
X200470Y195465D01*
X200829Y194514D01*
D02*
G37*
D28*
X116142Y209193D02*
X116111Y210196D01*
X116017Y211196D01*
X115861Y212188D01*
X115645Y213168D01*
X115367Y214133D01*
X115030Y215079D01*
X114635Y216002D01*
X114184Y216899D01*
X113677Y217766D01*
X113118Y218599D01*
X112507Y219397D01*
X111849Y220155D01*
X111145Y220870D01*
X110397Y221540D01*
X109609Y222163D01*
X108784Y222735D01*
X107925Y223255D01*
X107036Y223721D01*
X106119Y224130D01*
X105179Y224481D01*
X104218Y224774D01*
X103241Y225006D01*
X102252Y225177D01*
X101254Y225286D01*
X100251Y225333D01*
X99247Y225317D01*
X98246Y225239D01*
X97252Y225099D01*
X96268Y224897D01*
X95299Y224635D01*
X94348Y224313D01*
X93419Y223932D01*
X92516Y223495D01*
X91641Y223002D01*
X90799Y222455D01*
X89992Y221858D01*
X89224Y221211D01*
X88498Y220518D01*
X87816Y219781D01*
X87181Y219003D01*
X86596Y218187D01*
X86063Y217336D01*
X85584Y216454D01*
X85160Y215544D01*
X84794Y214609D01*
X84487Y213653D01*
X84239Y212680D01*
X84053Y211693D01*
X83929Y210697D01*
X83866Y209695D01*
Y208691D01*
X83929Y207689D01*
X84053Y206693D01*
X84239Y205706D01*
X84487Y204733D01*
X84794Y203777D01*
X85160Y202842D01*
X85584Y201932D01*
X86063Y201050D01*
X86596Y200199D01*
X87181Y199383D01*
X87816Y198605D01*
X88498Y197868D01*
X89224Y197175D01*
X89992Y196528D01*
X90799Y195931D01*
X91641Y195384D01*
X92516Y194891D01*
X93419Y194454D01*
X94348Y194073D01*
X95299Y193751D01*
X96268Y193488D01*
X97252Y193287D01*
X98246Y193147D01*
X99247Y193069D01*
X100251Y193053D01*
X101254Y193100D01*
X102252Y193209D01*
X103241Y193380D01*
X104218Y193612D01*
X105179Y193904D01*
X106119Y194256D01*
X107036Y194665D01*
X107925Y195131D01*
X108784Y195651D01*
X109609Y196223D01*
X110397Y196846D01*
X111145Y197516D01*
X111849Y198231D01*
X112508Y198989D01*
X113118Y199786D01*
X113677Y200620D01*
X114184Y201487D01*
X114635Y202384D01*
X115030Y203307D01*
X115367Y204253D01*
X115645Y205218D01*
X115861Y206198D01*
X116017Y207190D01*
X116111Y208190D01*
X116142Y209193D01*
X236142Y210807D02*
X236110Y211811D01*
X236017Y212810D01*
X235861Y213802D01*
X235645Y214783D01*
X235367Y215747D01*
X235030Y216693D01*
X234635Y217616D01*
X234184Y218513D01*
X233677Y219380D01*
X233118Y220214D01*
X232507Y221011D01*
X231849Y221769D01*
X231145Y222484D01*
X230397Y223154D01*
X229609Y223777D01*
X228784Y224349D01*
X227925Y224869D01*
X227036Y225335D01*
X226119Y225744D01*
X225179Y226096D01*
X224218Y226388D01*
X223241Y226620D01*
X222252Y226791D01*
X221254Y226900D01*
X220251Y226947D01*
X219247Y226931D01*
X218246Y226853D01*
X217252Y226713D01*
X216268Y226512D01*
X215299Y226249D01*
X214348Y225927D01*
X213419Y225547D01*
X212516Y225109D01*
X211641Y224616D01*
X210799Y224069D01*
X209992Y223472D01*
X209224Y222825D01*
X208498Y222132D01*
X207816Y221395D01*
X207181Y220617D01*
X206596Y219801D01*
X206063Y218950D01*
X205584Y218068D01*
X205160Y217158D01*
X204794Y216223D01*
X204487Y215267D01*
X204239Y214294D01*
X204053Y213307D01*
X203928Y212311D01*
X203866Y211309D01*
Y210305D01*
X203928Y209303D01*
X204053Y208307D01*
X204239Y207320D01*
X204487Y206347D01*
X204794Y205391D01*
X205160Y204456D01*
X205584Y203546D01*
X206063Y202664D01*
X206596Y201813D01*
X207181Y200997D01*
X207816Y200219D01*
X208498Y199482D01*
X209224Y198789D01*
X209992Y198142D01*
X210799Y197545D01*
X211641Y196998D01*
X212516Y196505D01*
X213419Y196068D01*
X214348Y195687D01*
X215299Y195365D01*
X216268Y195103D01*
X217252Y194901D01*
X218246Y194761D01*
X219247Y194683D01*
X220251Y194667D01*
X221254Y194714D01*
X222252Y194823D01*
X223241Y194994D01*
X224218Y195226D01*
X225179Y195519D01*
X226119Y195870D01*
X227036Y196280D01*
X227926Y196745D01*
X228784Y197265D01*
X229609Y197837D01*
X230397Y198460D01*
X231145Y199130D01*
X231849Y199846D01*
X232508Y200603D01*
X233118Y201401D01*
X233677Y202234D01*
X234184Y203101D01*
X234635Y203998D01*
X235030Y204921D01*
X235367Y205867D01*
X235645Y206832D01*
X235861Y207812D01*
X236017Y208804D01*
X236110Y209804D01*
X236142Y210807D01*
X22284Y11811D02*
X22236Y12807D01*
X22094Y13793D01*
X21859Y14761D01*
X21533Y15703D01*
X21119Y16610D01*
X20621Y17473D01*
X20043Y18285D01*
X19390Y19038D01*
X18669Y19726D01*
X17886Y20342D01*
X17047Y20880D01*
X16161Y21337D01*
X15236Y21708D01*
X14280Y21988D01*
X13301Y22177D01*
X12309Y22272D01*
X11313D01*
X10321Y22177D01*
X9342Y21988D01*
X8386Y21708D01*
X7461Y21337D01*
X6575Y20880D01*
X5736Y20342D01*
X4953Y19726D01*
X4232Y19038D01*
X3579Y18285D01*
X3001Y17473D01*
X2503Y16610D01*
X2089Y15703D01*
X1763Y14761D01*
X1528Y13793D01*
X1386Y12807D01*
X1339Y11811D01*
X1386Y10816D01*
X1528Y9829D01*
X1763Y8861D01*
X2089Y7919D01*
X2503Y7012D01*
X3001Y6149D01*
X3579Y5337D01*
X4232Y4584D01*
X4953Y3897D01*
X5736Y3280D01*
X6575Y2742D01*
X7461Y2285D01*
X8386Y1915D01*
X9342Y1634D01*
X10321Y1445D01*
X11313Y1350D01*
X12309D01*
X13301Y1445D01*
X14280Y1634D01*
X15236Y1915D01*
X16161Y2285D01*
X17047Y2742D01*
X17886Y3280D01*
X18669Y3897D01*
X19390Y4584D01*
X20043Y5337D01*
X20621Y6149D01*
X21119Y7012D01*
X21533Y7919D01*
X21859Y8861D01*
X22094Y9829D01*
X22236Y10816D01*
X22284Y11811D01*
X317559D02*
X317512Y12807D01*
X317370Y13793D01*
X317135Y14761D01*
X316809Y15703D01*
X316395Y16610D01*
X315897Y17473D01*
X315318Y18285D01*
X314666Y19038D01*
X313945Y19726D01*
X313161Y20342D01*
X312323Y20880D01*
X311437Y21337D01*
X310512Y21708D01*
X309556Y21988D01*
X308577Y22177D01*
X307585Y22272D01*
X306588D01*
X305596Y22177D01*
X304618Y21988D01*
X303661Y21708D01*
X302736Y21337D01*
X301850Y20880D01*
X301012Y20342D01*
X300229Y19726D01*
X299507Y19038D01*
X298855Y18285D01*
X298277Y17473D01*
X297778Y16610D01*
X297364Y15703D01*
X297038Y14761D01*
X296803Y13793D01*
X296662Y12807D01*
X296614Y11811D01*
X296662Y10816D01*
X296803Y9829D01*
X297038Y8861D01*
X297364Y7919D01*
X297778Y7012D01*
X298277Y6149D01*
X298855Y5337D01*
X299507Y4584D01*
X300229Y3897D01*
X301012Y3280D01*
X301850Y2742D01*
X302736Y2285D01*
X303661Y1915D01*
X304618Y1634D01*
X305596Y1445D01*
X306588Y1350D01*
X307585D01*
X308577Y1445D01*
X309556Y1634D01*
X310512Y1915D01*
X311437Y2285D01*
X312323Y2742D01*
X313161Y3280D01*
X313945Y3897D01*
X314666Y4584D01*
X315318Y5337D01*
X315897Y6149D01*
X316395Y7012D01*
X316809Y7919D01*
X317135Y8861D01*
X317370Y9829D01*
X317512Y10816D01*
X317559Y11811D01*
X73465Y216535D02*
X73417Y217531D01*
X73275Y218517D01*
X73040Y219486D01*
X72714Y220428D01*
X72300Y221334D01*
X71802Y222197D01*
X71224Y223009D01*
X70571Y223762D01*
X69850Y224450D01*
X69067Y225066D01*
X68228Y225605D01*
X67343Y226062D01*
X66417Y226432D01*
X65461Y226713D01*
X64482Y226901D01*
X63490Y226996D01*
X62494D01*
X61502Y226901D01*
X60523Y226713D01*
X59567Y226432D01*
X58642Y226062D01*
X57756Y225605D01*
X56918Y225066D01*
X56134Y224450D01*
X55413Y223762D01*
X54760Y223009D01*
X54182Y222197D01*
X53684Y221334D01*
X53270Y220428D01*
X52944Y219486D01*
X52709Y218517D01*
X52567Y217531D01*
X52520Y216535D01*
X52567Y215540D01*
X52709Y214553D01*
X52944Y213585D01*
X53270Y212643D01*
X53684Y211737D01*
X54182Y210874D01*
X54760Y210062D01*
X55413Y209309D01*
X56134Y208621D01*
X56918Y208005D01*
X57756Y207466D01*
X58642Y207009D01*
X59567Y206639D01*
X60523Y206358D01*
X61502Y206170D01*
X62494Y206075D01*
X63490D01*
X64482Y206170D01*
X65461Y206358D01*
X66417Y206639D01*
X67343Y207009D01*
X68228Y207466D01*
X69067Y208005D01*
X69850Y208621D01*
X70571Y209309D01*
X71224Y210062D01*
X71802Y210874D01*
X72300Y211737D01*
X72714Y212643D01*
X73040Y213585D01*
X73275Y214553D01*
X73417Y215540D01*
X73465Y216535D01*
X266378D02*
X266331Y217531D01*
X266189Y218517D01*
X265954Y219486D01*
X265628Y220428D01*
X265214Y221334D01*
X264716Y222197D01*
X264137Y223009D01*
X263485Y223762D01*
X262764Y224450D01*
X261980Y225066D01*
X261142Y225605D01*
X260256Y226062D01*
X259331Y226432D01*
X258375Y226713D01*
X257396Y226901D01*
X256404Y226996D01*
X255407D01*
X254415Y226901D01*
X253436Y226713D01*
X252480Y226432D01*
X251555Y226062D01*
X250669Y225605D01*
X249831Y225066D01*
X249047Y224450D01*
X248326Y223762D01*
X247674Y223009D01*
X247095Y222197D01*
X246597Y221334D01*
X246183Y220428D01*
X245857Y219486D01*
X245622Y218517D01*
X245480Y217531D01*
X245433Y216535D01*
X245480Y215540D01*
X245622Y214553D01*
X245857Y213585D01*
X246183Y212643D01*
X246597Y211737D01*
X247095Y210874D01*
X247674Y210062D01*
X248326Y209309D01*
X249047Y208621D01*
X249831Y208005D01*
X250669Y207466D01*
X251555Y207009D01*
X252480Y206639D01*
X253436Y206358D01*
X254415Y206170D01*
X255407Y206075D01*
X256404D01*
X257396Y206170D01*
X258375Y206358D01*
X259331Y206639D01*
X260256Y207009D01*
X261142Y207466D01*
X261980Y208005D01*
X262764Y208621D01*
X263485Y209309D01*
X264137Y210062D01*
X264716Y210874D01*
X265214Y211737D01*
X265628Y212643D01*
X265954Y213585D01*
X266189Y214553D01*
X266331Y215540D01*
X266378Y216535D01*
X44590Y11500D02*
X44500Y12498D01*
X44234Y13464D01*
X43799Y14367D01*
X43210Y15178D01*
X42485Y15871D01*
X41649Y16423D01*
X40727Y16817D01*
X39750Y17040D01*
X38749Y17085D01*
X37756Y16950D01*
X36803Y16640D01*
X35920Y16165D01*
X35137Y15540D01*
X34477Y14786D01*
X33963Y13926D01*
X33611Y12987D01*
X33432Y12001D01*
Y10999D01*
X33611Y10013D01*
X33963Y9075D01*
X34477Y8214D01*
X35137Y7459D01*
X35920Y6835D01*
X36803Y6360D01*
X37756Y6050D01*
X38749Y5915D01*
X39750Y5960D01*
X40727Y6183D01*
X41649Y6577D01*
X42485Y7129D01*
X43210Y7822D01*
X43799Y8633D01*
X44234Y9536D01*
X44500Y10502D01*
X44590Y11500D01*
X144590D02*
X144500Y12498D01*
X144234Y13464D01*
X143799Y14367D01*
X143210Y15178D01*
X142485Y15871D01*
X141649Y16423D01*
X140727Y16817D01*
X139750Y17040D01*
X138749Y17085D01*
X137756Y16950D01*
X136803Y16640D01*
X135920Y16165D01*
X135137Y15540D01*
X134477Y14786D01*
X133963Y13926D01*
X133611Y12987D01*
X133432Y12001D01*
Y10999D01*
X133611Y10013D01*
X133963Y9075D01*
X134477Y8214D01*
X135137Y7459D01*
X135920Y6835D01*
X136803Y6360D01*
X137756Y6050D01*
X138749Y5915D01*
X139750Y5960D01*
X140727Y6183D01*
X141649Y6577D01*
X142485Y7129D01*
X143210Y7822D01*
X143799Y8633D01*
X144234Y9536D01*
X144500Y10502D01*
X144590Y11500D01*
X187090D02*
X187000Y12498D01*
X186734Y13464D01*
X186299Y14367D01*
X185710Y15178D01*
X184985Y15871D01*
X184149Y16423D01*
X183228Y16817D01*
X182250Y17040D01*
X181249Y17085D01*
X180256Y16950D01*
X179303Y16640D01*
X178420Y16165D01*
X177637Y15540D01*
X176978Y14786D01*
X176463Y13926D01*
X176111Y12987D01*
X175932Y12001D01*
Y10999D01*
X176111Y10013D01*
X176463Y9075D01*
X176978Y8214D01*
X177637Y7459D01*
X178420Y6835D01*
X179303Y6360D01*
X180256Y6050D01*
X181249Y5915D01*
X182250Y5960D01*
X183228Y6183D01*
X184149Y6577D01*
X184985Y7129D01*
X185710Y7822D01*
X186299Y8633D01*
X186734Y9536D01*
X187000Y10502D01*
X187090Y11500D01*
X284590D02*
X284500Y12498D01*
X284234Y13464D01*
X283799Y14367D01*
X283210Y15178D01*
X282485Y15871D01*
X281649Y16423D01*
X280728Y16817D01*
X279750Y17040D01*
X278749Y17085D01*
X277756Y16950D01*
X276803Y16640D01*
X275920Y16165D01*
X275137Y15540D01*
X274478Y14786D01*
X273963Y13926D01*
X273611Y12987D01*
X273432Y12001D01*
Y10999D01*
X273611Y10013D01*
X273963Y9075D01*
X274478Y8214D01*
X275137Y7459D01*
X275920Y6835D01*
X276803Y6360D01*
X277756Y6050D01*
X278749Y5915D01*
X279750Y5960D01*
X280728Y6183D01*
X281649Y6577D01*
X282485Y7129D01*
X283210Y7822D01*
X283799Y8633D01*
X284234Y9536D01*
X284500Y10502D01*
X284590Y11500D01*
X84252Y209390D02*
X115748D01*
X91142D02*
Y209390D01*
X204252Y210610D02*
X235748D01*
X228858Y210610D02*
Y210610D01*
X202500Y46476D02*
X232500D01*
X202500Y413D02*
Y46476D01*
X232500Y413D02*
Y46476D01*
X202500Y413D02*
X232500D01*
X235000Y46476D02*
X265000D01*
X235000Y413D02*
Y46476D01*
X265000Y413D02*
Y46476D01*
X235000Y413D02*
X265000D01*
X195000Y37500D02*
Y177500D01*
X125000D02*
X195000D01*
X125000Y37500D02*
Y177500D01*
Y37500D02*
X195000D01*
X187800Y181100D02*
Y218900D01*
X133900D02*
X187800D01*
X133900Y181100D02*
X187800D01*
X154600Y218900D02*
Y226100D01*
X167600D01*
Y218900D02*
Y226100D01*
X133900Y181100D02*
Y218900D01*
X229000Y72000D02*
X257000D01*
X229000D02*
Y87000D01*
X257000D01*
Y72000D02*
Y87000D01*
X49213Y4213D02*
Y21929D01*
X47244Y2244D02*
X49213Y4213D01*
X29528Y2244D02*
X47244D01*
X29528D02*
Y21929D01*
X49213D01*
X149213Y4213D02*
Y21929D01*
X147244Y2244D02*
X149213Y4213D01*
X129528Y2244D02*
X147244D01*
X129528D02*
Y21929D01*
X149213D01*
X191713Y4213D02*
Y21929D01*
X189744Y2244D02*
X191713Y4213D01*
X172028Y2244D02*
X189744D01*
X172028D02*
Y21929D01*
X191713D01*
X289213Y4213D02*
Y21929D01*
X287244Y2244D02*
X289213Y4213D01*
X269528Y2244D02*
X287244D01*
X269528D02*
Y21929D01*
X289213D01*
D29*
X86110Y59500D02*
X93610D01*
X86110Y50500D02*
Y59500D01*
Y50500D02*
X93610D01*
X101390Y59500D02*
X108890D01*
Y50500D02*
Y59500D01*
X101390Y50500D02*
X108890D01*
X58610Y64500D02*
X66110D01*
X58610Y55500D02*
Y64500D01*
Y55500D02*
X66110D01*
X73890Y64500D02*
X81390D01*
Y55500D02*
Y64500D01*
X73890Y55500D02*
X81390D01*
X58610Y54500D02*
X66110D01*
X58610Y45500D02*
Y54500D01*
Y45500D02*
X66110D01*
X73890Y54500D02*
X81390D01*
Y45500D02*
Y54500D01*
X73890Y45500D02*
X81390D01*
X158610Y34500D02*
X166110D01*
X158610Y25500D02*
Y34500D01*
Y25500D02*
X166110D01*
X173890Y34500D02*
X181390D01*
Y25500D02*
Y34500D01*
X173890Y25500D02*
X181390D01*
X120500Y198610D02*
Y206110D01*
Y198610D02*
X129500D01*
Y206110D01*
X120500Y213890D02*
Y220610D01*
X129500Y213890D02*
Y220610D01*
X122500Y222610D02*
X127500D01*
X120500Y220610D02*
X122500Y222610D01*
X127500D02*
X129500Y220610D01*
X202000Y213890D02*
Y221390D01*
X193000D02*
X202000D01*
X193000Y213890D02*
Y221390D01*
X202000Y199390D02*
Y206110D01*
X193000Y199390D02*
Y206110D01*
X195000Y197390D02*
X200000D01*
X202000Y199390D01*
X193000D02*
X195000Y197390D01*
X133610Y34500D02*
X141110D01*
X133610Y25500D02*
Y34500D01*
Y25500D02*
X141110D01*
X148890Y34500D02*
X155610D01*
X148890Y25500D02*
X155610D01*
X157610Y27500D02*
Y32500D01*
X155610Y34500D02*
X157610Y32500D01*
X155610Y25500D02*
X157610Y27500D01*
X138000Y38610D02*
Y46110D01*
Y38610D02*
X147000D01*
Y46110D01*
X138000Y53890D02*
Y61390D01*
X147000D01*
Y53890D02*
Y61390D01*
X88610Y187000D02*
X96110D01*
X88610Y178000D02*
Y187000D01*
Y178000D02*
X96110D01*
X103890Y187000D02*
X111390D01*
Y178000D02*
Y187000D01*
X103890Y178000D02*
X111390D01*
X223890Y170500D02*
X231390D01*
Y179500D01*
X223890D02*
X231390D01*
X208610Y170500D02*
X216110D01*
X208610D02*
Y179500D01*
X216110D01*
X96110Y87000D02*
X103610D01*
X96110Y78000D02*
Y87000D01*
Y78000D02*
X103610D01*
X111390Y87000D02*
X118890D01*
Y78000D02*
Y87000D01*
X111390Y78000D02*
X118890D01*
X96110Y107000D02*
X103610D01*
X96110Y98000D02*
Y107000D01*
Y98000D02*
X103610D01*
X111390Y107000D02*
X118890D01*
Y98000D02*
Y107000D01*
X111390Y98000D02*
X118890D01*
X216390Y95500D02*
X223890D01*
Y104500D01*
X216390D02*
X223890D01*
X201110Y95500D02*
X208610D01*
X201110D02*
Y104500D01*
X208610D01*
X216390Y75500D02*
X223890D01*
Y84500D01*
X216390D02*
X223890D01*
X201110Y75500D02*
X208610D01*
X201110D02*
Y84500D01*
X208610D01*
X88610Y149500D02*
X96110D01*
X88610Y140500D02*
Y149500D01*
Y140500D02*
X96110D01*
X103890Y149500D02*
X111390D01*
Y140500D02*
Y149500D01*
X103890Y140500D02*
X111390D01*
X88610Y169500D02*
X96110D01*
X88610Y160500D02*
Y169500D01*
Y160500D02*
X96110D01*
X103890Y169500D02*
X111390D01*
Y160500D02*
Y169500D01*
X103890Y160500D02*
X111390D01*
X223890Y150500D02*
X231390D01*
Y159500D01*
X223890D02*
X231390D01*
X208610Y150500D02*
X216110D01*
X208610D02*
Y159500D01*
X216110D01*
X223890Y130500D02*
X231390D01*
Y139500D01*
X223890D02*
X231390D01*
X208610Y130500D02*
X216110D01*
X208610D02*
Y139500D01*
X216110D01*
X64653Y8723D02*
X63341D01*
X63997D01*
Y5443D01*
X63341Y4787D01*
X62685D01*
X62029Y5443D01*
X65965Y8723D02*
Y4787D01*
X68589D01*
X72525Y8067D02*
X71869Y8723D01*
X70557D01*
X69901Y8067D01*
Y5443D01*
X70557Y4787D01*
X71869D01*
X72525Y5443D01*
X76460Y8723D02*
X75148D01*
X75804D01*
Y5443D01*
X75148Y4787D01*
X74493D01*
X73836Y5443D01*
X77772Y8723D02*
Y4787D01*
X80396D01*
X84332Y8067D02*
X83676Y8723D01*
X82364D01*
X81708Y8067D01*
Y5443D01*
X82364Y4787D01*
X83676D01*
X84332Y5443D01*
X88268Y8723D02*
X86956D01*
X87612D01*
Y5443D01*
X86956Y4787D01*
X86300D01*
X85644Y5443D01*
X89579Y8723D02*
Y4787D01*
X92203D01*
X96139Y8067D02*
X95483Y8723D01*
X94171D01*
X93515Y8067D01*
Y5443D01*
X94171Y4787D01*
X95483D01*
X96139Y5443D01*
X100075Y8723D02*
X98763D01*
X99419D01*
Y5443D01*
X98763Y4787D01*
X98107D01*
X97451Y5443D01*
X101387Y8723D02*
Y4787D01*
X104010D01*
X107946Y8067D02*
X107290Y8723D01*
X105978D01*
X105323Y8067D01*
Y5443D01*
X105978Y4787D01*
X107290D01*
X107946Y5443D01*
D30*
X124950Y209350D02*
X127226Y207074D01*
X122647Y207047D02*
X124950Y209350D01*
X195274Y212926D02*
X197550Y210650D01*
X199853Y212953D01*
X142074Y27774D02*
X144350Y30050D01*
X142047Y32353D02*
X144350Y30050D01*
X85236Y215295D02*
X91142Y209390D01*
X86221Y217264D02*
X94095Y209390D01*
X87205Y219232D02*
X97047Y209390D01*
X88945Y220445D02*
X100000Y209390D01*
X90421Y221921D02*
X102953Y209390D01*
X92148Y223148D02*
X105905Y209390D01*
X94124Y224124D02*
X108858Y209390D01*
X96600Y224600D02*
X111811Y209390D01*
X99077Y225077D02*
X114764Y209390D01*
X102053Y225053D02*
X116053Y211053D01*
X84744Y212835D02*
X88189Y209390D01*
X106000Y224000D02*
X115500Y214500D01*
X228858Y210610D02*
X234764Y204705D01*
X225905Y210610D02*
X233780Y202736D01*
X222953Y210610D02*
X232795Y200768D01*
X220000Y210610D02*
X231055Y199555D01*
X217047Y210610D02*
X229579Y198079D01*
X214094Y210610D02*
X227852Y196852D01*
X211142Y210610D02*
X225876Y195876D01*
X208189Y210610D02*
X223400Y195400D01*
X205236Y210610D02*
X220923Y194923D01*
X203947Y208947D02*
X217947Y194947D01*
X231811Y210610D02*
X235256Y207165D01*
X204500Y205500D02*
X214000Y196000D01*
X230837Y82456D02*
Y84955D01*
X232087D01*
X232503Y84539D01*
Y83706D01*
X232087Y83289D01*
X230837D01*
X233336Y82456D02*
Y84955D01*
X234169Y84122D01*
X235002Y84955D01*
Y82456D01*
X235836Y84955D02*
X236668D01*
X236252D01*
Y82456D01*
X235836D01*
X236668D01*
X237918Y82039D02*
X239584D01*
X240417Y82456D02*
Y84122D01*
X241250Y84955D01*
X242084Y84122D01*
Y82456D01*
Y83706D01*
X240417D01*
X244583Y84539D02*
X244166Y84955D01*
X243333D01*
X242916Y84539D01*
Y82873D01*
X243333Y82456D01*
X244166D01*
X244583Y82873D01*
X245416Y84955D02*
X247082D01*
X246249D01*
Y82456D01*
X247915Y84955D02*
X248748D01*
X248331D01*
Y82456D01*
X247915D01*
X248748D01*
X251247Y84955D02*
X250414D01*
X249998Y84539D01*
Y82873D01*
X250414Y82456D01*
X251247D01*
X251664Y82873D01*
Y84539D01*
X251247Y84955D01*
X252497Y82456D02*
Y84955D01*
X254163Y82456D01*
Y84955D01*
X231045Y77841D02*
X231878D01*
X231462D01*
Y80340D01*
X231045Y79923D01*
X234378Y77841D02*
Y80340D01*
X233128Y79090D01*
X234794D01*
X235627Y77841D02*
X237293Y79507D01*
X238126Y77841D02*
X238960D01*
X238543D01*
Y80340D01*
X238126Y79923D01*
X240209Y77841D02*
X241042D01*
X240626D01*
Y80340D01*
X240209Y79923D01*
X242292Y77841D02*
X243958Y79507D01*
X246457Y77841D02*
X244791D01*
X246457Y79507D01*
Y79923D01*
X246041Y80340D01*
X245208D01*
X244791Y79923D01*
X247290D02*
X247707Y80340D01*
X248540D01*
X248956Y79923D01*
Y78257D01*
X248540Y77841D01*
X247707D01*
X247290Y78257D01*
Y79923D01*
X251455Y77841D02*
X249789D01*
X251455Y79507D01*
Y79923D01*
X251039Y80340D01*
X250206D01*
X249789Y79923D01*
X252289D02*
X252705Y80340D01*
X253538D01*
X253955Y79923D01*
Y78257D01*
X253538Y77841D01*
X252705D01*
X252289Y78257D01*
Y79923D01*
X237293Y76141D02*
Y74475D01*
X238126Y73642D01*
X238960Y74475D01*
Y76141D01*
X243958Y73642D02*
X242292D01*
X243958Y75308D01*
Y75724D01*
X243541Y76141D01*
X242708D01*
X242292Y75724D01*
X244791Y73642D02*
Y74058D01*
X245208D01*
Y73642D01*
X244791D01*
X246874D02*
X247707D01*
X247290D01*
Y76141D01*
X246874Y75724D01*
X94000Y61000D02*
Y63999D01*
X95499D01*
X95999Y63499D01*
Y62499D01*
X95499Y62000D01*
X94000D01*
X95000D02*
X95999Y61000D01*
X98499D02*
Y63999D01*
X96999Y62499D01*
X98998D01*
X99998Y61500D02*
X100498Y61000D01*
X101498D01*
X101997Y61500D01*
Y63499D01*
X101498Y63999D01*
X100498D01*
X99998Y63499D01*
Y62999D01*
X100498Y62499D01*
X101997D01*
X66000Y70000D02*
Y72999D01*
X67500D01*
X67999Y72499D01*
Y71500D01*
X67500Y71000D01*
X66000D01*
X67000D02*
X67999Y70000D01*
X70499D02*
Y72999D01*
X68999Y71500D01*
X70998D01*
X71998Y72499D02*
X72498Y72999D01*
X73498D01*
X73997Y72499D01*
Y71999D01*
X73498Y71500D01*
X73997Y71000D01*
Y70500D01*
X73498Y70000D01*
X72498D01*
X71998Y70500D01*
Y71000D01*
X72498Y71500D01*
X71998Y71999D01*
Y72499D01*
X72498Y71500D02*
X73498D01*
X66000Y65500D02*
Y68499D01*
X67500D01*
X67999Y67999D01*
Y67000D01*
X67500Y66500D01*
X66000D01*
X67000D02*
X67999Y65500D01*
X70499D02*
Y68499D01*
X68999Y67000D01*
X70998D01*
X73997Y68499D02*
X72998Y67999D01*
X71998Y67000D01*
Y66000D01*
X72498Y65500D01*
X73498D01*
X73997Y66000D01*
Y66500D01*
X73498Y67000D01*
X71998D01*
X183000Y28500D02*
Y31499D01*
X184500D01*
X184999Y30999D01*
Y30000D01*
X184500Y29500D01*
X183000D01*
X184000D02*
X184999Y28500D01*
X185999D02*
X186999D01*
X186499D01*
Y31499D01*
X185999Y30999D01*
X122500Y226999D02*
Y224000D01*
X124000D01*
X124499Y224500D01*
Y226499D01*
X124000Y226999D01*
X122500D01*
X127498D02*
X125499D01*
Y225500D01*
X126499Y225999D01*
X126999D01*
X127498Y225500D01*
Y224500D01*
X126999Y224000D01*
X125999D01*
X125499Y224500D01*
X195000Y225499D02*
Y222500D01*
X196500D01*
X196999Y223000D01*
Y224999D01*
X196500Y225499D01*
X195000D01*
X197999Y224999D02*
X198499Y225499D01*
X199499D01*
X199998Y224999D01*
Y224499D01*
X199499Y224000D01*
X198999D01*
X199499D01*
X199998Y223500D01*
Y223000D01*
X199499Y222500D01*
X198499D01*
X197999Y223000D01*
X128500Y30999D02*
Y28000D01*
X129999D01*
X130499Y28500D01*
Y30499D01*
X129999Y30999D01*
X128500D01*
X131499Y28000D02*
X132499D01*
X131999D01*
Y30999D01*
X131499Y30499D01*
X84999Y223499D02*
X84500Y223999D01*
X83500D01*
X83000Y223499D01*
Y221500D01*
X83500Y221000D01*
X84500D01*
X84999Y221500D01*
X85999Y223999D02*
X87998D01*
Y223499D01*
X85999Y221500D01*
Y221000D01*
X205499Y225999D02*
X204999Y226499D01*
X204000D01*
X203500Y225999D01*
Y224000D01*
X204000Y223500D01*
X204999D01*
X205499Y224000D01*
X208498Y226499D02*
X207499Y225999D01*
X206499Y224999D01*
Y224000D01*
X206999Y223500D01*
X207998D01*
X208498Y224000D01*
Y224500D01*
X207998Y224999D01*
X206499D01*
X141999Y64999D02*
X141499Y65499D01*
X140500D01*
X140000Y64999D01*
Y63000D01*
X140500Y62500D01*
X141499D01*
X141999Y63000D01*
X144998Y65499D02*
X142999D01*
Y63999D01*
X143999Y64499D01*
X144499D01*
X144998Y63999D01*
Y63000D01*
X144499Y62500D01*
X143499D01*
X142999Y63000D01*
X269501Y37500D02*
X272500D01*
Y39000D01*
X272000Y39499D01*
X271500D01*
X271001Y39000D01*
Y37500D01*
Y39000D01*
X270501Y39499D01*
X270001D01*
X269501Y39000D01*
Y37500D01*
X270501Y40499D02*
X272000D01*
X272500Y40999D01*
Y42498D01*
X270501D01*
X272500Y43498D02*
X270501D01*
Y43998D01*
X271001Y44498D01*
X272500D01*
X271001D01*
X270501Y44998D01*
X271001Y45497D01*
X272500D01*
X273500Y46497D02*
X270501D01*
Y47997D01*
X271001Y48496D01*
X272000D01*
X272500Y47997D01*
Y46497D01*
X273000Y49496D02*
Y51495D01*
X272500Y52495D02*
X269501D01*
Y53995D01*
X270001Y54495D01*
X271001D01*
X271500Y53995D01*
Y52495D01*
Y53495D02*
X272500Y54495D01*
X85000Y47999D02*
X86000D01*
X85500D01*
Y45000D01*
X85000D01*
X86000D01*
X89499Y47499D02*
X88999Y47999D01*
X87999D01*
X87499Y47499D01*
Y46999D01*
X87999Y46499D01*
X88999D01*
X89499Y46000D01*
Y45500D01*
X88999Y45000D01*
X87999D01*
X87499Y45500D01*
X90498Y47999D02*
Y45000D01*
X91998D01*
X92498Y45500D01*
Y46000D01*
X91998Y46499D01*
X90498D01*
X91998D01*
X92498Y46999D01*
Y47499D01*
X91998Y47999D01*
X90498D01*
X24500Y10500D02*
Y13499D01*
X26499Y10500D01*
Y13499D01*
X27499Y10500D02*
X28499D01*
X27999D01*
Y13499D01*
X27499Y12999D01*
X150500Y10500D02*
Y13499D01*
X152499Y10500D01*
Y13499D01*
X155498Y10500D02*
X153499D01*
X155498Y12499D01*
Y12999D01*
X154999Y13499D01*
X153999D01*
X153499Y12999D01*
X165500Y10500D02*
Y13499D01*
X167499Y10500D01*
Y13499D01*
X168499Y12999D02*
X168999Y13499D01*
X169999D01*
X170498Y12999D01*
Y12499D01*
X169999Y11999D01*
X169499D01*
X169999D01*
X170498Y11500D01*
Y11000D01*
X169999Y10500D01*
X168999D01*
X168499Y11000D01*
X47500Y102500D02*
X50499D01*
Y101000D01*
X49999Y100501D01*
X49000D01*
X48500Y101000D01*
Y102500D01*
X49499Y99501D02*
X48000D01*
X47500Y99001D01*
Y97502D01*
X49499D01*
X47500Y96502D02*
X49499D01*
Y96002D01*
X49000Y95502D01*
X47500D01*
X49000D01*
X49499Y95002D01*
X49000Y94503D01*
X47500D01*
X46500Y93503D02*
X49499D01*
Y92003D01*
X49000Y91504D01*
X48000D01*
X47500Y92003D01*
Y93503D01*
X47000Y90504D02*
Y88504D01*
X50499Y87505D02*
X47500D01*
Y85505D01*
X272500Y85000D02*
X269501D01*
Y86500D01*
X270001Y86999D01*
X271001D01*
X271500Y86500D01*
Y85000D01*
X270501Y87999D02*
X272000D01*
X272500Y88499D01*
Y89998D01*
X270501D01*
X272500Y90998D02*
X270501D01*
Y91498D01*
X271001Y91998D01*
X272500D01*
X271001D01*
X270501Y92498D01*
X271001Y92997D01*
X272500D01*
X273500Y93997D02*
X270501D01*
Y95497D01*
X271001Y95996D01*
X272000D01*
X272500Y95497D01*
Y93997D01*
X273000Y96996D02*
Y98996D01*
X272500Y99995D02*
X269501D01*
Y101495D01*
X270001Y101995D01*
X271001D01*
X271500Y101495D01*
Y99995D01*
Y100995D02*
X272500Y101995D01*
X96500Y188000D02*
Y190999D01*
X98000D01*
X98499Y190499D01*
Y189499D01*
X98000Y189000D01*
X96500D01*
X97500D02*
X98499Y188000D01*
X101498D02*
X99499D01*
X101498Y189999D01*
Y190499D01*
X100999Y190999D01*
X99999D01*
X99499Y190499D01*
X102498D02*
X102998Y190999D01*
X103998D01*
X104497Y190499D01*
Y188500D01*
X103998Y188000D01*
X102998D01*
X102498Y188500D01*
Y190499D01*
X216500Y180500D02*
Y183499D01*
X218000D01*
X218499Y182999D01*
Y182000D01*
X218000Y181500D01*
X216500D01*
X217500D02*
X218499Y180500D01*
X221498D02*
X219499D01*
X221498Y182499D01*
Y182999D01*
X220999Y183499D01*
X219999D01*
X219499Y182999D01*
X222498Y180500D02*
X223498D01*
X222998D01*
Y183499D01*
X222498Y182999D01*
X104000Y88000D02*
Y90999D01*
X105499D01*
X105999Y90499D01*
Y89499D01*
X105499Y89000D01*
X104000D01*
X105000D02*
X105999Y88000D01*
X108998D02*
X106999D01*
X108998Y89999D01*
Y90499D01*
X108499Y90999D01*
X107499D01*
X106999Y90499D01*
X111997Y90999D02*
X110998Y90499D01*
X109998Y89499D01*
Y88500D01*
X110498Y88000D01*
X111498D01*
X111997Y88500D01*
Y89000D01*
X111498Y89499D01*
X109998D01*
X104000Y108000D02*
Y110999D01*
X105499D01*
X105999Y110499D01*
Y109500D01*
X105499Y109000D01*
X104000D01*
X105000D02*
X105999Y108000D01*
X108998D02*
X106999D01*
X108998Y109999D01*
Y110499D01*
X108499Y110999D01*
X107499D01*
X106999Y110499D01*
X109998Y110999D02*
X111997D01*
Y110499D01*
X109998Y108500D01*
Y108000D01*
X208500Y105500D02*
Y108499D01*
X209999D01*
X210499Y107999D01*
Y107000D01*
X209999Y106500D01*
X208500D01*
X209500D02*
X210499Y105500D01*
X213498D02*
X211499D01*
X213498Y107499D01*
Y107999D01*
X212999Y108499D01*
X211999D01*
X211499Y107999D01*
X214498D02*
X214998Y108499D01*
X215998D01*
X216497Y107999D01*
Y107499D01*
X215998Y107000D01*
X216497Y106500D01*
Y106000D01*
X215998Y105500D01*
X214998D01*
X214498Y106000D01*
Y106500D01*
X214998Y107000D01*
X214498Y107499D01*
Y107999D01*
X214998Y107000D02*
X215998D01*
X208500Y85500D02*
Y88499D01*
X209999D01*
X210499Y87999D01*
Y86999D01*
X209999Y86500D01*
X208500D01*
X209500D02*
X210499Y85500D01*
X213498D02*
X211499D01*
X213498Y87499D01*
Y87999D01*
X212999Y88499D01*
X211999D01*
X211499Y87999D01*
X214498Y86000D02*
X214998Y85500D01*
X215998D01*
X216497Y86000D01*
Y87999D01*
X215998Y88499D01*
X214998D01*
X214498Y87999D01*
Y87499D01*
X214998Y86999D01*
X216497D01*
X96000Y150500D02*
Y153499D01*
X97500D01*
X97999Y152999D01*
Y151999D01*
X97500Y151500D01*
X96000D01*
X97000D02*
X97999Y150500D01*
X98999Y152999D02*
X99499Y153499D01*
X100499D01*
X100998Y152999D01*
Y152499D01*
X100499Y151999D01*
X99999D01*
X100499D01*
X100998Y151500D01*
Y151000D01*
X100499Y150500D01*
X99499D01*
X98999Y151000D01*
X103498Y150500D02*
Y153499D01*
X101998Y151999D01*
X103997D01*
X96000Y170500D02*
Y173499D01*
X97500D01*
X97999Y172999D01*
Y172000D01*
X97500Y171500D01*
X96000D01*
X97000D02*
X97999Y170500D01*
X98999Y172999D02*
X99499Y173499D01*
X100499D01*
X100998Y172999D01*
Y172499D01*
X100499Y172000D01*
X99999D01*
X100499D01*
X100998Y171500D01*
Y171000D01*
X100499Y170500D01*
X99499D01*
X98999Y171000D01*
X103997Y173499D02*
X101998D01*
Y172000D01*
X102998Y172499D01*
X103498D01*
X103997Y172000D01*
Y171000D01*
X103498Y170500D01*
X102498D01*
X101998Y171000D01*
X216000Y160500D02*
Y163499D01*
X217499D01*
X217999Y162999D01*
Y161999D01*
X217499Y161500D01*
X216000D01*
X217000D02*
X217999Y160500D01*
X218999Y162999D02*
X219499Y163499D01*
X220498D01*
X220998Y162999D01*
Y162499D01*
X220498Y161999D01*
X219999D01*
X220498D01*
X220998Y161500D01*
Y161000D01*
X220498Y160500D01*
X219499D01*
X218999Y161000D01*
X223997Y163499D02*
X222998Y162999D01*
X221998Y161999D01*
Y161000D01*
X222498Y160500D01*
X223498D01*
X223997Y161000D01*
Y161500D01*
X223498Y161999D01*
X221998D01*
X216500Y141000D02*
Y143999D01*
X218000D01*
X218499Y143499D01*
Y142499D01*
X218000Y142000D01*
X216500D01*
X217500D02*
X218499Y141000D01*
X219499Y143499D02*
X219999Y143999D01*
X220999D01*
X221498Y143499D01*
Y142999D01*
X220999Y142499D01*
X220499D01*
X220999D01*
X221498Y142000D01*
Y141500D01*
X220999Y141000D01*
X219999D01*
X219499Y141500D01*
X222498Y143999D02*
X224497D01*
Y143499D01*
X222498Y141500D01*
Y141000D01*
X49999Y210501D02*
X50499Y211000D01*
Y212000D01*
X49999Y212500D01*
X49499D01*
X49000Y212000D01*
Y211000D01*
X48500Y210501D01*
X48000D01*
X47500Y211000D01*
Y212000D01*
X48000Y212500D01*
X47500Y208001D02*
Y209001D01*
X48000Y209501D01*
X49000D01*
X49499Y209001D01*
Y208001D01*
X49000Y207502D01*
X48500D01*
Y209501D01*
X49499Y206502D02*
X47500D01*
X48500D01*
X49000Y206002D01*
X49499Y205502D01*
Y205002D01*
Y203503D02*
X47500Y202503D01*
X49499Y201504D01*
X47500Y200004D02*
Y199004D01*
X48000Y198504D01*
X49000D01*
X49499Y199004D01*
Y200004D01*
X49000Y200504D01*
X48000D01*
X47500Y200004D01*
X47000Y197505D02*
Y195505D01*
X50499Y192507D02*
Y194506D01*
X49000D01*
Y193506D01*
Y194506D01*
X47500D01*
X49999Y158001D02*
X50499Y158501D01*
Y159500D01*
X49999Y160000D01*
X49499D01*
X49000Y159500D01*
Y158501D01*
X48500Y158001D01*
X48000D01*
X47500Y158501D01*
Y159500D01*
X48000Y160000D01*
X47500Y155501D02*
Y156501D01*
X48000Y157001D01*
X49000D01*
X49499Y156501D01*
Y155501D01*
X49000Y155002D01*
X48500D01*
Y157001D01*
X49499Y154002D02*
X47500D01*
X48500D01*
X49000Y153502D01*
X49499Y153002D01*
Y152502D01*
Y151003D02*
X47500Y150003D01*
X49499Y149004D01*
X47500Y147504D02*
Y146504D01*
X48000Y146004D01*
X49000D01*
X49499Y146504D01*
Y147504D01*
X49000Y148004D01*
X48000D01*
X47500Y147504D01*
X47000Y145005D02*
Y143006D01*
X50499Y142006D02*
X47500D01*
Y140006D01*
X270001Y194499D02*
X269501Y194000D01*
Y193000D01*
X270001Y192500D01*
X270501D01*
X271001Y193000D01*
Y194000D01*
X271500Y194499D01*
X272000D01*
X272500Y194000D01*
Y193000D01*
X272000Y192500D01*
X272500Y196999D02*
Y195999D01*
X272000Y195499D01*
X271001D01*
X270501Y195999D01*
Y196999D01*
X271001Y197498D01*
X271500D01*
Y195499D01*
X270501Y198498D02*
X272500D01*
X271500D01*
X271001Y198998D01*
X270501Y199498D01*
Y199998D01*
Y201497D02*
X272500Y202497D01*
X270501Y203496D01*
X272500Y204996D02*
Y205996D01*
X272000Y206495D01*
X271001D01*
X270501Y205996D01*
Y204996D01*
X271001Y204496D01*
X272000D01*
X272500Y204996D01*
X273000Y207495D02*
Y209494D01*
X272500Y210494D02*
X269501D01*
X270501Y211494D01*
X269501Y212493D01*
X272500D01*
X270001Y141999D02*
X269501Y141499D01*
Y140500D01*
X270001Y140000D01*
X270501D01*
X271001Y140500D01*
Y141499D01*
X271500Y141999D01*
X272000D01*
X272500Y141499D01*
Y140500D01*
X272000Y140000D01*
X272500Y144499D02*
Y143499D01*
X272000Y142999D01*
X271001D01*
X270501Y143499D01*
Y144499D01*
X271001Y144998D01*
X271500D01*
Y142999D01*
X270501Y145998D02*
X272500D01*
X271500D01*
X271001Y146498D01*
X270501Y146998D01*
Y147498D01*
Y148997D02*
X272500Y149997D01*
X270501Y150996D01*
X272500Y152496D02*
Y153496D01*
X272000Y153996D01*
X271001D01*
X270501Y153496D01*
Y152496D01*
X271001Y151996D01*
X272000D01*
X272500Y152496D01*
X273000Y154995D02*
Y156994D01*
X272500Y157994D02*
X269501D01*
Y159494D01*
X270001Y159994D01*
X271001D01*
X271500Y159494D01*
Y157994D01*
Y158994D02*
X272500Y159994D01*
X211499Y67999D02*
X210999Y68499D01*
X210000D01*
X209500Y67999D01*
Y67499D01*
X210000Y67000D01*
X210999D01*
X211499Y66500D01*
Y66000D01*
X210999Y65500D01*
X210000D01*
X209500Y66000D01*
X212999Y65500D02*
X213999D01*
X214498Y66000D01*
Y67000D01*
X213999Y67499D01*
X212999D01*
X212499Y67000D01*
Y66000D01*
X212999Y65500D01*
X215498D02*
Y67499D01*
X216998D01*
X217497Y67000D01*
Y65500D01*
X218997Y67499D02*
X219997D01*
X220496Y67000D01*
Y65500D01*
X218997D01*
X218497Y66000D01*
X218997Y66500D01*
X220496D01*
X221496Y67499D02*
Y65500D01*
Y66500D01*
X221996Y67000D01*
X222496Y67499D01*
X222996D01*
X224495Y65500D02*
X225495D01*
X224995D01*
Y68499D01*
X224495Y67999D01*
X243499Y67499D02*
X243000Y67999D01*
X242000D01*
X241500Y67499D01*
Y66999D01*
X242000Y66500D01*
X243000D01*
X243499Y66000D01*
Y65500D01*
X243000Y65000D01*
X242000D01*
X241500Y65500D01*
X244999Y65000D02*
X245999D01*
X246498Y65500D01*
Y66500D01*
X245999Y66999D01*
X244999D01*
X244499Y66500D01*
Y65500D01*
X244999Y65000D01*
X247498D02*
Y66999D01*
X248998D01*
X249497Y66500D01*
Y65000D01*
X250997Y66999D02*
X251997D01*
X252496Y66500D01*
Y65000D01*
X250997D01*
X250497Y65500D01*
X250997Y66000D01*
X252496D01*
X253496Y66999D02*
Y65000D01*
Y66000D01*
X253996Y66500D01*
X254496Y66999D01*
X254996D01*
X258494Y65000D02*
X256495D01*
X258494Y66999D01*
Y67499D01*
X257995Y67999D01*
X256995D01*
X256495Y67499D01*
X152500Y42999D02*
X154499D01*
X153500D01*
Y40000D01*
X156999D02*
X155999D01*
X155499Y40500D01*
Y41500D01*
X155999Y41999D01*
X156999D01*
X157498Y41500D01*
Y41000D01*
X155499D01*
X159998Y40000D02*
X158998D01*
X158498Y40500D01*
Y41500D01*
X158998Y41999D01*
X159998D01*
X160497Y41500D01*
Y41000D01*
X158498D01*
X161497Y40000D02*
Y41999D01*
X162997D01*
X163496Y41500D01*
Y40000D01*
X164496D02*
X165996D01*
X166496Y40500D01*
X165996Y41000D01*
X164996D01*
X164496Y41500D01*
X164996Y41999D01*
X166496D01*
X167495D02*
Y40500D01*
X167995Y40000D01*
X169494D01*
Y39500D01*
X168995Y39000D01*
X168495D01*
X169494Y40000D02*
Y41999D01*
X49999Y53000D02*
X47000D01*
Y51500D01*
X47500Y51001D01*
X48000D01*
X48500Y51500D01*
Y53000D01*
Y51500D01*
X48999Y51001D01*
X49499D01*
X49999Y51500D01*
Y53000D01*
X48999Y50001D02*
X47500D01*
X47000Y49501D01*
Y48002D01*
X48999D01*
X47000Y47002D02*
X48999D01*
Y46502D01*
X48500Y46002D01*
X47000D01*
X48500D01*
X48999Y45502D01*
X48500Y45003D01*
X47000D01*
X46000Y44003D02*
X48999D01*
Y42503D01*
X48500Y42004D01*
X47500D01*
X47000Y42503D01*
Y44003D01*
X46500Y41004D02*
Y39004D01*
X49999Y38005D02*
X47000D01*
Y36005D01*
X140000Y221500D02*
Y223499D01*
X141000Y224499D01*
X141999Y223499D01*
Y221500D01*
Y223000D01*
X140000D01*
X142999Y221500D02*
X143999D01*
X143499D01*
Y224499D01*
X142999D01*
X145498Y221500D02*
X146498D01*
X145998D01*
Y223499D01*
X145498D01*
X147997Y221500D02*
Y223499D01*
X148497D01*
X148997Y223000D01*
Y221500D01*
Y223000D01*
X149497Y223499D01*
X149997Y223000D01*
Y221500D01*
X290000Y10000D02*
Y12999D01*
X291999Y10000D01*
Y12999D01*
X294498Y10000D02*
Y12999D01*
X292999Y11500D01*
X294998D01*
X43499Y169537D02*
Y170870D01*
X42500D01*
X42833Y170204D01*
Y169870D01*
X42500Y169537D01*
X41833D01*
X41500Y169870D01*
Y170537D01*
X41833Y170870D01*
X43499Y168871D02*
X42166D01*
X41500Y168204D01*
X42166Y167538D01*
X43499D01*
Y192667D02*
Y194000D01*
X42500D01*
X42833Y193333D01*
Y193000D01*
X42500Y192667D01*
X41833D01*
X41500Y193000D01*
Y193667D01*
X41833Y194000D01*
X43499Y192001D02*
X42166D01*
X41500Y191334D01*
X42166Y190668D01*
X43499D01*
X276501Y212333D02*
Y211000D01*
X277500D01*
X277167Y211666D01*
Y212000D01*
X277500Y212333D01*
X278167D01*
X278500Y212000D01*
Y211333D01*
X278167Y211000D01*
X276501Y212999D02*
X277834D01*
X278500Y213666D01*
X277834Y214332D01*
X276501D01*
Y130463D02*
Y129130D01*
X277500D01*
X277167Y129796D01*
Y130130D01*
X277500Y130463D01*
X278167D01*
X278500Y130130D01*
Y129463D01*
X278167Y129130D01*
X276501Y131129D02*
X277834D01*
X278500Y131796D01*
X277834Y132462D01*
X276501D01*
Y34833D02*
Y33500D01*
X277500D01*
X277167Y34166D01*
Y34500D01*
X277500Y34833D01*
X278167D01*
X278500Y34500D01*
Y33833D01*
X278167Y33500D01*
X276501Y35499D02*
X277834D01*
X278500Y36166D01*
X277834Y36832D01*
X276501D01*
X43499Y55167D02*
Y56500D01*
X42500D01*
X42833Y55834D01*
Y55500D01*
X42500Y55167D01*
X41833D01*
X41500Y55500D01*
Y56167D01*
X41833Y56500D01*
X43499Y54501D02*
X42166D01*
X41500Y53834D01*
X42166Y53168D01*
X43499D01*
X41500Y109500D02*
Y108834D01*
Y109167D01*
X43499D01*
X43166Y109500D01*
X41500Y106501D02*
Y107834D01*
X42833Y106501D01*
X43166D01*
X43499Y106834D01*
Y107501D01*
X43166Y107834D01*
X43499Y105834D02*
X42166D01*
X41500Y105168D01*
X42166Y104502D01*
X43499D01*
X278500Y75500D02*
Y76166D01*
Y75833D01*
X276501D01*
X276834Y75500D01*
X278500Y78499D02*
Y77166D01*
X277167Y78499D01*
X276834D01*
X276501Y78166D01*
Y77499D01*
X276834Y77166D01*
X276501Y79166D02*
X277834D01*
X278500Y79832D01*
X277834Y80498D01*
X276501D01*
X43499Y47500D02*
X41500D01*
Y46500D01*
X41833Y46167D01*
X42166D01*
X42500Y46500D01*
Y47500D01*
Y46500D01*
X42833Y46167D01*
X43166D01*
X43499Y46500D01*
Y47500D01*
X41167Y45501D02*
Y44168D01*
X41500Y42168D02*
Y43501D01*
X42833Y42168D01*
X43166D01*
X43499Y42502D01*
Y43168D01*
X43166Y43501D01*
X43499Y37657D02*
X41500D01*
Y36658D01*
X41833Y36325D01*
X42166D01*
X42500Y36658D01*
Y37657D01*
Y36658D01*
X42833Y36325D01*
X43166D01*
X43499Y36658D01*
Y37657D01*
X41167Y35658D02*
Y34325D01*
X41500Y33659D02*
Y32992D01*
Y33325D01*
X43499D01*
X43166Y33659D01*
X276501Y42500D02*
X278500D01*
Y43500D01*
X278167Y43833D01*
X277834D01*
X277500Y43500D01*
Y42500D01*
Y43500D01*
X277167Y43833D01*
X276834D01*
X276501Y43500D01*
Y42500D01*
X278833Y44499D02*
Y45832D01*
X278500Y47498D02*
X276501D01*
X277500Y46499D01*
Y47832D01*
X276501Y52342D02*
X278500D01*
Y53342D01*
X278167Y53675D01*
X277834D01*
X277500Y53342D01*
Y52342D01*
Y53342D01*
X277167Y53675D01*
X276834D01*
X276501Y53342D01*
Y52342D01*
X278833Y54342D02*
Y55675D01*
X276834Y56341D02*
X276501Y56674D01*
Y57341D01*
X276834Y57674D01*
X277167D01*
X277500Y57341D01*
Y57008D01*
Y57341D01*
X277834Y57674D01*
X278167D01*
X278500Y57341D01*
Y56674D01*
X278167Y56341D01*
X43166Y97825D02*
X43499Y98158D01*
Y98824D01*
X43166Y99158D01*
X41833D01*
X41500Y98824D01*
Y98158D01*
X41833Y97825D01*
X41500Y96825D02*
Y96158D01*
X41833Y95825D01*
X42500D01*
X42833Y96158D01*
Y96825D01*
X42500Y97158D01*
X41833D01*
X41500Y96825D01*
Y89972D02*
X43499D01*
Y88973D01*
X43166Y88639D01*
X42500D01*
X42166Y88973D01*
Y89972D01*
X41167Y87973D02*
Y86640D01*
X41500Y84641D02*
Y85974D01*
X42833Y84641D01*
X43166D01*
X43499Y84974D01*
Y85641D01*
X43166Y85974D01*
X41500Y80130D02*
X43499D01*
Y79130D01*
X43166Y78797D01*
X42500D01*
X42166Y79130D01*
Y80130D01*
X41167Y78131D02*
Y76798D01*
X41500Y76131D02*
Y75465D01*
Y75798D01*
X43499D01*
X43166Y76131D01*
X278500Y95028D02*
X276501D01*
Y96027D01*
X276834Y96360D01*
X277500D01*
X277834Y96027D01*
Y95028D01*
X278833Y97027D02*
Y98360D01*
X278500Y100026D02*
X276501D01*
X277500Y99026D01*
Y100359D01*
X278500Y104870D02*
X276501D01*
Y105870D01*
X276834Y106203D01*
X277500D01*
X277834Y105870D01*
Y104870D01*
X278833Y106869D02*
Y108202D01*
X276834Y108869D02*
X276501Y109202D01*
Y109869D01*
X276834Y110202D01*
X277167D01*
X277500Y109869D01*
Y109535D01*
Y109869D01*
X277834Y110202D01*
X278167D01*
X278500Y109869D01*
Y109202D01*
X278167Y108869D01*
X276834Y87175D02*
X276501Y86842D01*
Y86176D01*
X276834Y85843D01*
X278167D01*
X278500Y86176D01*
Y86842D01*
X278167Y87175D01*
X278500Y88175D02*
Y88841D01*
X278167Y89175D01*
X277500D01*
X277167Y88841D01*
Y88175D01*
X277500Y87842D01*
X278167D01*
X278500Y88175D01*
X276834Y139833D02*
X276501Y139500D01*
Y138833D01*
X276834Y138500D01*
X278167D01*
X278500Y138833D01*
Y139500D01*
X278167Y139833D01*
X278500Y140833D02*
Y141499D01*
X278167Y141832D01*
X277500D01*
X277167Y141499D01*
Y140833D01*
X277500Y140499D01*
X278167D01*
X278500Y140833D01*
X43166Y160167D02*
X43499Y160500D01*
Y161167D01*
X43166Y161500D01*
X41833D01*
X41500Y161167D01*
Y160500D01*
X41833Y160167D01*
X41500Y159167D02*
Y158501D01*
X41833Y158168D01*
X42500D01*
X42833Y158501D01*
Y159167D01*
X42500Y159501D01*
X41833D01*
X41500Y159167D01*
X43166Y150982D02*
X43499Y151315D01*
Y151982D01*
X43166Y152315D01*
X42833D01*
X42500Y151982D01*
Y151315D01*
X42166Y150982D01*
X41833D01*
X41500Y151315D01*
Y151982D01*
X41833Y152315D01*
X41167Y150316D02*
Y148983D01*
X41500Y146983D02*
Y148316D01*
X42833Y146983D01*
X43166D01*
X43499Y147317D01*
Y147983D01*
X43166Y148316D01*
Y141139D02*
X43499Y141473D01*
Y142139D01*
X43166Y142472D01*
X42833D01*
X42500Y142139D01*
Y141473D01*
X42166Y141139D01*
X41833D01*
X41500Y141473D01*
Y142139D01*
X41833Y142472D01*
X41167Y140473D02*
Y139140D01*
X41500Y137141D02*
Y138474D01*
X42833Y137141D01*
X43166D01*
X43499Y137474D01*
Y138140D01*
X43166Y138474D01*
Y131297D02*
X43499Y131630D01*
Y132297D01*
X43166Y132630D01*
X41833D01*
X41500Y132297D01*
Y131630D01*
X41833Y131297D01*
X42500D01*
Y131964D01*
X41500Y130631D02*
X43499D01*
X41500Y129298D01*
X43499D01*
Y128631D02*
X41500D01*
Y127631D01*
X41833Y127298D01*
X43166D01*
X43499Y127631D01*
Y128631D01*
X276834Y149018D02*
X276501Y148685D01*
Y148018D01*
X276834Y147685D01*
X277167D01*
X277500Y148018D01*
Y148685D01*
X277834Y149018D01*
X278167D01*
X278500Y148685D01*
Y148018D01*
X278167Y147685D01*
X278833Y149684D02*
Y151017D01*
X278500Y152683D02*
X276501D01*
X277500Y151684D01*
Y153017D01*
X276834Y158861D02*
X276501Y158527D01*
Y157861D01*
X276834Y157528D01*
X277167D01*
X277500Y157861D01*
Y158527D01*
X277834Y158861D01*
X278167D01*
X278500Y158527D01*
Y157861D01*
X278167Y157528D01*
X278833Y159527D02*
Y160860D01*
X276834Y161526D02*
X276501Y161860D01*
Y162526D01*
X276834Y162859D01*
X277167D01*
X277500Y162526D01*
Y162193D01*
Y162526D01*
X277834Y162859D01*
X278167D01*
X278500Y162526D01*
Y161860D01*
X278167Y161526D01*
X276834Y168703D02*
X276501Y168370D01*
Y167703D01*
X276834Y167370D01*
X278167D01*
X278500Y167703D01*
Y168370D01*
X278167Y168703D01*
X277500D01*
Y168036D01*
X278500Y169369D02*
X276501D01*
X278500Y170702D01*
X276501D01*
Y171369D02*
X278500D01*
Y172369D01*
X278167Y172702D01*
X276834D01*
X276501Y172369D01*
Y171369D01*
X43166Y213797D02*
X43499Y214130D01*
Y214797D01*
X43166Y215130D01*
X41833D01*
X41500Y214797D01*
Y214130D01*
X41833Y213797D01*
X42500D01*
Y214463D01*
X41500Y213131D02*
X43499D01*
X41500Y211798D01*
X43499D01*
Y211131D02*
X41500D01*
Y210132D01*
X41833Y209798D01*
X43166D01*
X43499Y210132D01*
Y211131D01*
X276834Y191203D02*
X276501Y190870D01*
Y190203D01*
X276834Y189870D01*
X278167D01*
X278500Y190203D01*
Y190870D01*
X278167Y191203D01*
X277500D01*
Y190536D01*
X278500Y191869D02*
X276501D01*
X278500Y193202D01*
X276501D01*
Y193869D02*
X278500D01*
Y194869D01*
X278167Y195202D01*
X276834D01*
X276501Y194869D01*
Y193869D01*
X43166Y202982D02*
X43499Y203315D01*
Y203982D01*
X43166Y204315D01*
X42833D01*
X42500Y203982D01*
Y203315D01*
X42166Y202982D01*
X41833D01*
X41500Y203315D01*
Y203982D01*
X41833Y204315D01*
X41500Y202316D02*
Y201649D01*
Y201982D01*
X42833D01*
Y202316D01*
X40834Y199983D02*
Y199650D01*
X41167Y199317D01*
X42833D01*
Y200316D01*
X42500Y200649D01*
X41833D01*
X41500Y200316D01*
Y199317D01*
X276834Y202018D02*
X276501Y201685D01*
Y201018D01*
X276834Y200685D01*
X277167D01*
X277500Y201018D01*
Y201685D01*
X277834Y202018D01*
X278167D01*
X278500Y201685D01*
Y201018D01*
X278167Y200685D01*
X278500Y202684D02*
Y203351D01*
Y203018D01*
X277167D01*
Y202684D01*
X279166Y205017D02*
Y205350D01*
X278833Y205683D01*
X277167D01*
Y204684D01*
X277500Y204350D01*
X278167D01*
X278500Y204684D01*
Y205683D01*
X205000Y61500D02*
X205666D01*
X205333D01*
Y63499D01*
X205000Y63166D01*
X207999Y63499D02*
X206666D01*
Y62500D01*
X207333Y62833D01*
X207666D01*
X207999Y62500D01*
Y61833D01*
X207666Y61500D01*
X206999D01*
X206666Y61833D01*
X208665Y63499D02*
Y62166D01*
X209332Y61500D01*
X209998Y62166D01*
Y63499D01*
X237500Y61500D02*
X238166D01*
X237833D01*
Y63499D01*
X237500Y63166D01*
X240499Y63499D02*
X239166D01*
Y62500D01*
X239833Y62833D01*
X240166D01*
X240499Y62500D01*
Y61833D01*
X240166Y61500D01*
X239499D01*
X239166Y61833D01*
X241165Y63499D02*
Y62166D01*
X241832Y61500D01*
X242498Y62166D01*
Y63499D01*
X226203Y63166D02*
X225870Y63499D01*
X225203D01*
X224870Y63166D01*
Y61833D01*
X225203Y61500D01*
X225870D01*
X226203Y61833D01*
Y62500D01*
X225536D01*
X226869Y61500D02*
Y63499D01*
X228202Y61500D01*
Y63499D01*
X228869D02*
Y61500D01*
X229869D01*
X230202Y61833D01*
Y63166D01*
X229869Y63499D01*
X228869D01*
X258703Y63166D02*
X258370Y63499D01*
X257703D01*
X257370Y63166D01*
Y61833D01*
X257703Y61500D01*
X258370D01*
X258703Y61833D01*
Y62500D01*
X258036D01*
X259369Y61500D02*
Y63499D01*
X260702Y61500D01*
Y63499D01*
X261369D02*
Y61500D01*
X262368D01*
X262702Y61833D01*
Y63166D01*
X262368Y63499D01*
X261369D01*
X249360Y63166D02*
X249027Y63499D01*
X248361D01*
X248028Y63166D01*
Y62833D01*
X248361Y62500D01*
X249027D01*
X249360Y62166D01*
Y61833D01*
X249027Y61500D01*
X248361D01*
X248028Y61833D01*
X250027Y61500D02*
X250693D01*
X250360D01*
Y62833D01*
X250027D01*
X252360Y60834D02*
X252693D01*
X253026Y61167D01*
Y62833D01*
X252026D01*
X251693Y62500D01*
Y61833D01*
X252026Y61500D01*
X253026D01*
X216861Y63166D02*
X216527Y63499D01*
X215861D01*
X215528Y63166D01*
Y62833D01*
X215861Y62500D01*
X216527D01*
X216861Y62166D01*
Y61833D01*
X216527Y61500D01*
X215861D01*
X215528Y61833D01*
X217527Y61500D02*
X218193D01*
X217860D01*
Y62833D01*
X217527D01*
X219860Y60834D02*
X220193D01*
X220526Y61167D01*
Y62833D01*
X219526D01*
X219193Y62500D01*
Y61833D01*
X219526Y61500D01*
X220526D01*
D31*
X127200Y207047D02*
X127226Y207074D01*
X122647Y207047D02*
X127200D01*
X123031Y210984D02*
Y212953D01*
X126969Y210984D02*
Y212953D01*
X195274Y212926D02*
X195300Y212953D01*
X199853D01*
X199469Y207047D02*
Y209016D01*
X195531Y207047D02*
Y209016D01*
X142047Y27800D02*
X142074Y27774D01*
X142047Y27800D02*
Y32353D01*
X145984Y31969D02*
X147953D01*
X145984Y28032D02*
X147953D01*
D32*
X273614Y25512D02*
Y27283D01*
Y25512D02*
X318500Y25308D01*
Y64646D01*
X273614D02*
X318500D01*
X273614Y62874D02*
Y64646D01*
X120374Y46386D02*
X122146D01*
Y1500D02*
Y46386D01*
X53123Y1500D02*
X122146D01*
X53123D02*
X53327Y46386D01*
X55098D01*
X46386Y115217D02*
Y116988D01*
X1500Y117192D02*
X46386Y116988D01*
X1500Y67854D02*
Y117192D01*
Y67854D02*
X46386D01*
Y69626D01*
X273614Y68012D02*
Y69784D01*
Y68012D02*
X318500Y67808D01*
Y117146D01*
X273614D02*
X318500D01*
X273614Y115374D02*
Y117146D01*
X46386Y220216D02*
Y221988D01*
X1500Y222192D02*
X46386Y221988D01*
X1500Y182854D02*
Y222192D01*
Y182854D02*
X46386D01*
Y184626D01*
Y177559D02*
Y179331D01*
X1500Y179535D02*
X46386Y179331D01*
X1500Y120354D02*
Y179535D01*
Y120354D02*
X46386D01*
Y122126D01*
X273614Y183012D02*
Y184783D01*
Y183012D02*
X318500Y182808D01*
Y222146D01*
X273614D02*
X318500D01*
X273614Y220374D02*
Y222146D01*
Y120669D02*
Y122441D01*
Y120669D02*
X318500Y120465D01*
Y179646D01*
X273614D02*
X318500D01*
X273614Y177874D02*
Y179646D01*
X46386Y62717D02*
Y64488D01*
X1500Y64692D02*
X46386Y64488D01*
X1500Y25354D02*
Y64692D01*
Y25354D02*
X46386D01*
Y27126D01*
D33*
X242400Y124300D02*
X243800D01*
X242200Y124200D02*
X244100D01*
X242100Y124100D02*
X244200D01*
X241900Y124000D02*
X244300D01*
X241800Y123900D02*
X242800D01*
X243500D02*
X244400D01*
X241800Y123800D02*
X242500D01*
X243800D02*
X244500D01*
X241700Y123700D02*
X242300D01*
X243900D02*
X244600D01*
X241700Y123600D02*
X242200D01*
X244000D02*
X244600D01*
X241600Y123500D02*
X242200D01*
X244100D02*
X244600D01*
X241600Y123400D02*
X242100D01*
X244000D02*
X244100D01*
X244200D02*
X244700D01*
X241600Y123300D02*
X242100D01*
X244000D02*
X244700D01*
X241600Y123200D02*
X242100D01*
X244000D02*
X244700D01*
X241600Y123100D02*
X242100D01*
X243900D02*
X244700D01*
X269900D02*
X270300D01*
X241600Y123000D02*
X242100D01*
X242800D02*
X243100D01*
X243300D02*
X243600D01*
X243900D02*
X244700D01*
X269700D02*
X270500D01*
X241600Y122900D02*
X242100D01*
X242500D02*
X243800D01*
X243900D02*
X244700D01*
X269600D02*
X270600D01*
X240000Y122800D02*
X240200D01*
X241600D02*
X242100D01*
X242600D02*
X242700D01*
X243600D02*
X243800D01*
X243900D02*
X244700D01*
X246300D02*
X246500D01*
X269600D02*
X270600D01*
X239700Y122700D02*
X240200D01*
X241600D02*
X242100D01*
X242600D02*
X242800D01*
X243500D02*
X243700D01*
X243900D02*
X244700D01*
X246200D02*
X246800D01*
X269600D02*
X270000D01*
X270200D02*
X270600D01*
X239400Y122600D02*
X240300D01*
X241700D02*
X242200D01*
X242600D02*
X243700D01*
X244000D02*
X244600D01*
X246100D02*
X247100D01*
X269600D02*
X270000D01*
X270200D02*
X270700D01*
X239400Y122500D02*
X240400D01*
X241700D02*
X242200D01*
X242700D02*
X244600D01*
X246100D02*
X247100D01*
X269600D02*
X270000D01*
X270200D02*
X270700D01*
X239400Y122400D02*
X240500D01*
X241700D02*
X242300D01*
X242700D02*
X243600D01*
X243700D02*
X244500D01*
X246000D02*
X247100D01*
X269500D02*
X270600D01*
X239500Y122300D02*
X240500D01*
X241800D02*
X242400D01*
X242700D02*
X243100D01*
X243200D02*
X243600D01*
X243900D02*
X244500D01*
X245900D02*
X246900D01*
X269400D02*
X270600D01*
X237900Y122200D02*
X238200D01*
X239700D02*
X240600D01*
X241800D02*
X242400D01*
X242800D02*
X243100D01*
X243200D02*
X243500D01*
X243900D02*
X244400D01*
X245900D02*
X246800D01*
X248300D02*
X248600D01*
X269300D02*
X270500D01*
X237800Y122100D02*
X238400D01*
X239700D02*
X240700D01*
X241900D02*
X242500D01*
X242800D02*
X243100D01*
X243200D02*
X243500D01*
X243800D02*
X244400D01*
X245800D02*
X246700D01*
X248100D02*
X248700D01*
X269100D02*
X270500D01*
X237700Y122000D02*
X238600D01*
X239900D02*
X240800D01*
X242000D02*
X242500D01*
X242800D02*
X243100D01*
X243200D02*
X243500D01*
X243700D02*
X244300D01*
X245700D02*
X246600D01*
X247900D02*
X248800D01*
X269000D02*
X269700D01*
X270000D02*
X270200D01*
X237600Y121900D02*
X238800D01*
X239900D02*
X240900D01*
X242000D02*
X242600D01*
X242800D02*
X243100D01*
X243200D02*
X243500D01*
X243700D02*
X244300D01*
X245600D02*
X246500D01*
X247700D02*
X248800D01*
X268900D02*
X269500D01*
X237600Y121800D02*
X239000D01*
X240100D02*
X240900D01*
X242100D02*
X242600D01*
X242700D02*
X243100D01*
X243200D02*
X244200D01*
X245600D02*
X246400D01*
X247500D02*
X248900D01*
X268800D02*
X269400D01*
X237500Y121700D02*
X239200D01*
X240200D02*
X241000D01*
X242100D02*
X243100D01*
X243200D02*
X244100D01*
X245500D02*
X246300D01*
X247300D02*
X248900D01*
X268600D02*
X269300D01*
X237500Y121600D02*
X239400D01*
X240300D02*
X241100D01*
X242200D02*
X243100D01*
X243200D02*
X244100D01*
X245400D02*
X246200D01*
X247100D02*
X248900D01*
X268500D02*
X269100D01*
X237800Y121500D02*
X239600D01*
X240400D02*
X241100D01*
X242300D02*
X244000D01*
X245300D02*
X246100D01*
X246900D02*
X248700D01*
X268300D02*
X269000D01*
X238000Y121400D02*
X239800D01*
X240500D02*
X241200D01*
X242300D02*
X244000D01*
X245300D02*
X246000D01*
X246700D02*
X248400D01*
X268200D02*
X268900D01*
X238300Y121300D02*
X240000D01*
X240600D02*
X241300D01*
X242300D02*
X244000D01*
X245200D02*
X245900D01*
X246500D02*
X248200D01*
X268100D02*
X268700D01*
X238500Y121200D02*
X240100D01*
X240700D02*
X241400D01*
X242300D02*
X243900D01*
X245100D02*
X245800D01*
X246300D02*
X247900D01*
X267900D02*
X268600D01*
X238800Y121100D02*
X240400D01*
X240800D02*
X241500D01*
X242200D02*
X244000D01*
X245000D02*
X245700D01*
X246100D02*
X247700D01*
X267800D02*
X268400D01*
X239000Y121000D02*
X240500D01*
X240900D02*
X241500D01*
X242300D02*
X244000D01*
X245000D02*
X245600D01*
X245900D02*
X247500D01*
X267600D02*
X268300D01*
X215500Y120900D02*
X215600D01*
X239300D02*
X240700D01*
X241000D02*
X241400D01*
X242300D02*
X242600D01*
X243500D02*
X244000D01*
X245100D02*
X245500D01*
X245700D02*
X247200D01*
X267500D02*
X268200D01*
X271500D02*
X271700D01*
X215400Y120800D02*
X215800D01*
X239500D02*
X241000D01*
X241100D02*
X241300D01*
X242200D02*
X242600D01*
X242700D02*
X244000D01*
X245200D02*
X245300D01*
X245500D02*
X247000D01*
X267300D02*
X268000D01*
X271300D02*
X271900D01*
X215400Y120700D02*
X215900D01*
X239800D02*
X241100D01*
X242200D02*
X242600D01*
X242700D02*
X244000D01*
X245400D02*
X246700D01*
X267200D02*
X267900D01*
X271200D02*
X272000D01*
X215400Y120600D02*
X216000D01*
X240000D02*
X241300D01*
X242300D02*
X243000D01*
X243100D02*
X244000D01*
X245100D02*
X246500D01*
X267100D02*
X267800D01*
X271100D02*
X272100D01*
X215400Y120500D02*
X216100D01*
X240300D02*
X241500D01*
X242300D02*
X243900D01*
X245000D02*
X246200D01*
X267000D02*
X267600D01*
X271100D02*
X272100D01*
X215500Y120400D02*
X216200D01*
X237800D02*
X238100D01*
X240500D02*
X241700D01*
X242300D02*
X242600D01*
X242700D02*
X244000D01*
X244800D02*
X245900D01*
X248000D02*
X248400D01*
X266800D02*
X267500D01*
X271100D02*
X271500D01*
X271700D02*
X272100D01*
X215600Y120300D02*
X216300D01*
X237700D02*
X238400D01*
X240700D02*
X241900D01*
X242300D02*
X242700D01*
X243600D02*
X244000D01*
X244600D02*
X245700D01*
X247800D02*
X248500D01*
X266700D02*
X267400D01*
X270700D02*
X271500D01*
X271700D02*
X272100D01*
X215700Y120200D02*
X216400D01*
X237600D02*
X238600D01*
X241000D02*
X241800D01*
X242300D02*
X243000D01*
X243200D02*
X243900D01*
X244600D02*
X245500D01*
X247600D02*
X248600D01*
X266500D02*
X267200D01*
X270300D02*
X271500D01*
X271700D02*
X272100D01*
X215800Y120100D02*
X216500D01*
X217000D02*
X217500D01*
X237500D02*
X238800D01*
X241300D02*
X241800D01*
X242400D02*
X243800D01*
X244700D02*
X245200D01*
X247400D02*
X248600D01*
X266400D02*
X267100D01*
X269800D02*
X272100D01*
X215900Y120000D02*
X216500D01*
X216900D02*
X217600D01*
X237500D02*
X239000D01*
X240400D02*
X240500D01*
X241500D02*
X241700D01*
X242700D02*
X243600D01*
X244700D02*
X245000D01*
X247200D02*
X248700D01*
X266300D02*
X266900D01*
X269300D02*
X272100D01*
X216000Y119900D02*
X216600D01*
X216900D02*
X217700D01*
X218100D02*
X218600D01*
X237400D02*
X239100D01*
X239700D02*
X240900D01*
X242800D02*
X243500D01*
X245500D02*
X246500D01*
X247000D02*
X248800D01*
X266100D02*
X266800D01*
X268900D02*
X270700D01*
X271200D02*
X272000D01*
X216100Y119800D02*
X216700D01*
X217000D02*
X217800D01*
X217900D02*
X218700D01*
X237400D02*
X239300D01*
X239500D02*
X241200D01*
X242900D02*
X243400D01*
X245200D02*
X246800D01*
X246900D02*
X248700D01*
X266000D02*
X266700D01*
X268400D02*
X270200D01*
X271300D02*
X271900D01*
X216200Y119700D02*
X216800D01*
X217000D02*
X218900D01*
X237500D02*
X241400D01*
X245000D02*
X248700D01*
X265900D02*
X266500D01*
X268000D02*
X269700D01*
X216300Y119600D02*
X218100D01*
X218500D02*
X219000D01*
X237600D02*
X240100D01*
X240600D02*
X241500D01*
X244800D02*
X245900D01*
X246100D02*
X248600D01*
X265700D02*
X266400D01*
X267600D02*
X269300D01*
X216400Y119500D02*
X218100D01*
X218600D02*
X219100D01*
X237600D02*
X239000D01*
X239100D02*
X239800D01*
X241000D02*
X241600D01*
X244700D02*
X245400D01*
X246500D02*
X248500D01*
X265600D02*
X266200D01*
X267100D02*
X268800D01*
X216500Y119400D02*
X218200D01*
X218800D02*
X219200D01*
X219600D02*
X219900D01*
X237700D02*
X238900D01*
X239000D02*
X239600D01*
X241200D02*
X241700D01*
X244600D02*
X245200D01*
X246700D02*
X248400D01*
X265500D02*
X266100D01*
X266800D02*
X268300D01*
X216500Y119300D02*
X218300D01*
X218800D02*
X219300D01*
X219400D02*
X219900D01*
X237800D02*
X238800D01*
X238900D02*
X239400D01*
X241300D02*
X241800D01*
X244500D02*
X245100D01*
X246900D02*
X248400D01*
X265300D02*
X266000D01*
X266500D02*
X268000D01*
X216400Y119200D02*
X218300D01*
X219000D02*
X219800D01*
X237800D02*
X238700D01*
X238800D02*
X239300D01*
X241400D02*
X241900D01*
X242200D02*
X244000D01*
X244400D02*
X245000D01*
X247000D02*
X248400D01*
X265200D02*
X265800D01*
X266200D02*
X267500D01*
X216300Y119100D02*
X218300D01*
X219100D02*
X219600D01*
X219900D02*
X220100D01*
X237700D02*
X239200D01*
X240100D02*
X240600D01*
X241500D02*
X242000D01*
X242200D02*
X244000D01*
X244400D02*
X244800D01*
X247100D02*
X248400D01*
X265000D02*
X265700D01*
X265800D02*
X267100D01*
X216200Y119000D02*
X218400D01*
X219100D02*
X219600D01*
X219700D02*
X220100D01*
X237700D02*
X238600D01*
X238700D02*
X239100D01*
X240100D02*
X240600D01*
X241600D02*
X242000D01*
X242200D02*
X244000D01*
X244300D02*
X244800D01*
X245700D02*
X246200D01*
X247200D02*
X248500D01*
X264900D02*
X266800D01*
X216100Y118900D02*
X218400D01*
X219300D02*
X220000D01*
X237300D02*
X239100D01*
X240100D02*
X240600D01*
X241700D02*
X242100D01*
X242200D02*
X243000D01*
X243300D02*
X244000D01*
X244300D02*
X244700D01*
X245700D02*
X246200D01*
X247200D02*
X248800D01*
X264800D02*
X266500D01*
X216000Y118800D02*
X218400D01*
X219400D02*
X219900D01*
X237000D02*
X238500D01*
X238600D02*
X239000D01*
X240100D02*
X240600D01*
X241700D02*
X242100D01*
X242200D02*
X242900D01*
X243300D02*
X244000D01*
X244200D02*
X244600D01*
X245700D02*
X246200D01*
X247300D02*
X249200D01*
X264600D02*
X266200D01*
X216100Y118700D02*
X217900D01*
X236900D02*
X238500D01*
X238600D02*
X239000D01*
X240100D02*
X240600D01*
X241700D02*
X242100D01*
X242200D02*
X242900D01*
X243300D02*
X244000D01*
X244200D02*
X244600D01*
X245700D02*
X246200D01*
X247400D02*
X249200D01*
X264500D02*
X265900D01*
X216200Y118600D02*
X217900D01*
X236900D02*
X238400D01*
X238500D02*
X238900D01*
X240000D02*
X240700D01*
X241800D02*
X243000D01*
X243200D02*
X244000D01*
X244200D02*
X244500D01*
X245600D02*
X246300D01*
X247400D02*
X249300D01*
X264400D02*
X265600D01*
X216300Y118500D02*
X218000D01*
X236900D02*
X238400D01*
X238500D02*
X238900D01*
X239900D02*
X240800D01*
X241800D02*
X244000D01*
X244100D02*
X244500D01*
X245500D02*
X246400D01*
X247400D02*
X249300D01*
X264200D02*
X267900D01*
X216200Y118400D02*
X218100D01*
X236900D02*
X238400D01*
X238500D02*
X238900D01*
X239800D02*
X240900D01*
X241800D02*
X244000D01*
X244100D02*
X244500D01*
X245500D02*
X246500D01*
X247500D02*
X249300D01*
X264100D02*
X268500D01*
X215700Y118300D02*
X217400D01*
X217500D02*
X218200D01*
X236900D02*
X238400D01*
X238500D02*
X238900D01*
X239800D02*
X240900D01*
X241900D02*
X244000D01*
X244100D02*
X244500D01*
X245400D02*
X246500D01*
X247500D02*
X249300D01*
X263900D02*
X269100D01*
X270400D02*
X270500D01*
X215700Y118200D02*
X217400D01*
X217600D02*
X218300D01*
X236900D02*
X238400D01*
X238500D02*
X238900D01*
X239800D02*
X240900D01*
X241900D02*
X244000D01*
X244100D02*
X244500D01*
X245400D02*
X246600D01*
X247500D02*
X249300D01*
X263800D02*
X266100D01*
X267000D02*
X269500D01*
X270100D02*
X270800D01*
X215700Y118100D02*
X217200D01*
X217700D02*
X218400D01*
X236900D02*
X238400D01*
X238500D02*
X238800D01*
X239800D02*
X240900D01*
X241900D02*
X244000D01*
X244100D02*
X244500D01*
X245400D02*
X246600D01*
X247500D02*
X249300D01*
X263200D02*
X263400D01*
X263700D02*
X266300D01*
X268200D02*
X269800D01*
X270100D02*
X270900D01*
X215700Y118000D02*
X216600D01*
X216700D02*
X217200D01*
X217800D02*
X218500D01*
X237000D02*
X238400D01*
X238500D02*
X238900D01*
X239800D02*
X240900D01*
X241900D02*
X244000D01*
X244100D02*
X244500D01*
X245400D02*
X246600D01*
X247500D02*
X249200D01*
X263100D02*
X263500D01*
X263600D02*
X264200D01*
X264800D02*
X265400D01*
X265500D02*
X266400D01*
X268700D02*
X271000D01*
X215800Y117900D02*
X216200D01*
X216800D02*
X217000D01*
X217900D02*
X218500D01*
X237300D02*
X238400D01*
X238500D02*
X238900D01*
X239800D02*
X240900D01*
X241800D02*
X244000D01*
X244100D02*
X244500D01*
X245400D02*
X246500D01*
X247500D02*
X248900D01*
X263000D02*
X264100D01*
X265000D02*
X265500D01*
X265800D02*
X266600D01*
X269200D02*
X271000D01*
X215500Y117800D02*
X215700D01*
X216000D02*
X216300D01*
X218000D02*
X218700D01*
X237600D02*
X238400D01*
X238500D02*
X238900D01*
X239800D02*
X240900D01*
X241800D02*
X244000D01*
X244100D02*
X244500D01*
X245500D02*
X246500D01*
X247400D02*
X248600D01*
X262900D02*
X264000D01*
X265100D02*
X265600D01*
X266000D02*
X266700D01*
X269600D02*
X270400D01*
X270600D02*
X271000D01*
X215400Y117700D02*
X215900D01*
X216000D02*
X216400D01*
X218100D02*
X218800D01*
X237600D02*
X238400D01*
X238500D02*
X238900D01*
X239900D02*
X240800D01*
X241800D02*
X244000D01*
X244100D02*
X244500D01*
X245500D02*
X246400D01*
X247400D02*
X248600D01*
X262800D02*
X263900D01*
X265200D02*
X265700D01*
X266200D02*
X266800D01*
X269800D02*
X270300D01*
X270600D02*
X271000D01*
X215500Y117600D02*
X216000D01*
X216200D02*
X216500D01*
X218200D02*
X218800D01*
X237600D02*
X238400D01*
X238500D02*
X239000D01*
X240000D02*
X240700D01*
X241800D02*
X244000D01*
X244100D02*
X244600D01*
X245700D02*
X246300D01*
X247400D02*
X248600D01*
X262700D02*
X263800D01*
X265300D02*
X265800D01*
X266300D02*
X266900D01*
X269900D02*
X270400D01*
X270600D02*
X271000D01*
X215800Y117500D02*
X216600D01*
X217100D02*
X217300D01*
X218300D02*
X218900D01*
X221300D02*
X222000D01*
X237600D02*
X238500D01*
X238600D02*
X239000D01*
X241700D02*
X242100D01*
X242200D02*
X244000D01*
X244200D02*
X244600D01*
X247300D02*
X248500D01*
X262500D02*
X263900D01*
X265400D02*
X265800D01*
X266400D02*
X267000D01*
X270000D02*
X271000D01*
X215900Y117400D02*
X216600D01*
X217000D02*
X217400D01*
X218400D02*
X219000D01*
X219100D02*
X219200D01*
X221100D02*
X222100D01*
X237600D02*
X238500D01*
X238600D02*
X239100D01*
X241700D02*
X242100D01*
X242200D02*
X244000D01*
X244200D02*
X244700D01*
X247300D02*
X248600D01*
X261900D02*
X262300D01*
X262400D02*
X263900D01*
X265400D02*
X265900D01*
X266500D02*
X267200D01*
X270000D02*
X271000D01*
X216000Y117300D02*
X216500D01*
X216800D02*
X217400D01*
X218500D02*
X219000D01*
X219100D02*
X219500D01*
X221100D02*
X222300D01*
X237500D02*
X238500D01*
X238600D02*
X239100D01*
X241600D02*
X242100D01*
X242200D02*
X244000D01*
X244300D02*
X244700D01*
X247200D02*
X248700D01*
X261800D02*
X263900D01*
X265500D02*
X265900D01*
X266700D02*
X267300D01*
X270100D02*
X270900D01*
X216100Y117200D02*
X216500D01*
X216600D02*
X217500D01*
X218600D02*
X219000D01*
X219200D02*
X219800D01*
X221000D02*
X222300D01*
X237400D02*
X238600D01*
X238700D02*
X239200D01*
X241500D02*
X242000D01*
X242200D02*
X244000D01*
X244300D02*
X244800D01*
X247200D02*
X248800D01*
X261600D02*
X263800D01*
X265500D02*
X266000D01*
X266800D02*
X267400D01*
X270200D02*
X270800D01*
X216600Y117100D02*
X217500D01*
X218700D02*
X218900D01*
X219500D02*
X220000D01*
X220900D02*
X222300D01*
X237300D02*
X238600D01*
X238700D02*
X239300D01*
X241500D02*
X242000D01*
X242200D02*
X244000D01*
X244400D02*
X244800D01*
X247100D02*
X248900D01*
X261500D02*
X262000D01*
X262100D02*
X263700D01*
X265600D02*
X266000D01*
X266900D02*
X267500D01*
X216600Y117000D02*
X216900D01*
X217000D02*
X217600D01*
X219700D02*
X220300D01*
X220900D02*
X222400D01*
X237100D02*
X238700D01*
X238800D02*
X239400D01*
X241300D02*
X241900D01*
X242200D02*
X244000D01*
X244400D02*
X245000D01*
X247000D02*
X249000D01*
X261400D02*
X261900D01*
X262000D02*
X264000D01*
X265600D02*
X266000D01*
X267000D02*
X267600D01*
X216700Y116900D02*
X217000D01*
X217200D02*
X217700D01*
X218300D02*
X218900D01*
X220000D02*
X220600D01*
X220900D02*
X221500D01*
X221800D02*
X222400D01*
X237100D02*
X238800D01*
X238900D02*
X239500D01*
X241200D02*
X241800D01*
X242200D02*
X244000D01*
X244500D02*
X245100D01*
X246900D02*
X249100D01*
X261300D02*
X261800D01*
X261900D02*
X264200D01*
X265700D02*
X266000D01*
X267200D02*
X267700D01*
X216700Y116800D02*
X217100D01*
X217300D02*
X217700D01*
X218000D02*
X218800D01*
X220300D02*
X220800D01*
X220900D02*
X221500D01*
X221800D02*
X222400D01*
X237100D02*
X238900D01*
X239000D02*
X239700D01*
X241000D02*
X241700D01*
X242200D02*
X244000D01*
X244600D02*
X245200D01*
X246700D02*
X249000D01*
X261300D02*
X261700D01*
X261800D02*
X263300D01*
X263400D02*
X264300D01*
X265700D02*
X266000D01*
X267300D02*
X267900D01*
X216800Y116700D02*
X217100D01*
X217200D02*
X218300D01*
X218500D02*
X218800D01*
X219100D02*
X219600D01*
X220500D02*
X222400D01*
X237200D02*
X239000D01*
X239100D02*
X239900D01*
X240800D02*
X241600D01*
X242200D02*
X244000D01*
X244700D02*
X245500D01*
X246500D02*
X249000D01*
X261400D02*
X261800D01*
X261900D02*
X263200D01*
X263600D02*
X264400D01*
X265700D02*
X266000D01*
X267400D02*
X268000D01*
X216800Y116600D02*
X217200D01*
X217300D02*
X218300D01*
X218500D02*
X218700D01*
X219100D02*
X219700D01*
X220700D02*
X222300D01*
X237200D02*
X239100D01*
X239200D02*
X241500D01*
X242600D02*
X242900D01*
X243000D02*
X243300D01*
X243400D02*
X243700D01*
X244800D02*
X245800D01*
X246100D02*
X248900D01*
X261500D02*
X263100D01*
X263600D02*
X264300D01*
X265700D02*
X266000D01*
X267500D02*
X268100D01*
X216900Y116500D02*
X217200D01*
X217500D02*
X218600D01*
X219200D02*
X219800D01*
X220800D02*
X222300D01*
X237300D02*
X239300D01*
X239400D02*
X241300D01*
X242500D02*
X242900D01*
X243000D02*
X243300D01*
X243400D02*
X243700D01*
X244900D02*
X248900D01*
X260700D02*
X261200D01*
X261600D02*
X263000D01*
X265700D02*
X266000D01*
X267600D02*
X268200D01*
X217000Y116400D02*
X218500D01*
X219000D02*
X219800D01*
X220300D02*
X222300D01*
X237300D02*
X241200D01*
X241700D02*
X242900D01*
X243000D02*
X243300D01*
X243400D02*
X244500D01*
X245100D02*
X248800D01*
X260600D02*
X261300D01*
X261600D02*
X262900D01*
X265700D02*
X266000D01*
X267700D02*
X268300D01*
X217000Y116300D02*
X218500D01*
X218900D02*
X219800D01*
X220300D02*
X222600D01*
X237400D02*
X237700D01*
X238300D02*
X239700D01*
X239800D02*
X240900D01*
X241700D02*
X242900D01*
X243000D02*
X243300D01*
X243400D02*
X244500D01*
X245300D02*
X247900D01*
X248400D02*
X248800D01*
X260600D02*
X261400D01*
X261700D02*
X262800D01*
X265700D02*
X266000D01*
X267800D02*
X268500D01*
X217000Y116200D02*
X218300D01*
X218800D02*
X219800D01*
X220100D02*
X222900D01*
X238300D02*
X240800D01*
X241700D02*
X242900D01*
X243000D02*
X243300D01*
X243400D02*
X244500D01*
X245300D02*
X247800D01*
X260100D02*
X261500D01*
X261600D02*
X262600D01*
X265700D02*
X266000D01*
X268000D02*
X268600D01*
X216800Y116100D02*
X218200D01*
X218800D02*
X219800D01*
X220100D02*
X222400D01*
X222600D02*
X223100D01*
X238400D02*
X240900D01*
X241700D02*
X242000D01*
X243000D02*
X243300D01*
X244200D02*
X244500D01*
X245300D02*
X247700D01*
X260000D02*
X260900D01*
X261100D02*
X262100D01*
X262300D02*
X262500D01*
X265700D02*
X266000D01*
X268100D02*
X268700D01*
X216700Y116000D02*
X218200D01*
X218600D02*
X219500D01*
X220000D02*
X221500D01*
X222000D02*
X222500D01*
X222800D02*
X223400D01*
X238400D02*
X240900D01*
X241700D02*
X242000D01*
X243000D02*
X243300D01*
X244200D02*
X244500D01*
X245200D02*
X247800D01*
X259500D02*
X260900D01*
X261200D02*
X261900D01*
X265600D02*
X266000D01*
X268200D02*
X268800D01*
X216500Y115900D02*
X218300D01*
X218500D02*
X219400D01*
X220000D02*
X221400D01*
X222000D02*
X222500D01*
X223100D02*
X223500D01*
X238400D02*
X241000D01*
X241700D02*
X242000D01*
X243000D02*
X243300D01*
X244200D02*
X244500D01*
X245200D02*
X247800D01*
X259400D02*
X260300D01*
X260400D02*
X260900D01*
X261200D02*
X261900D01*
X265600D02*
X266000D01*
X268300D02*
X268900D01*
X269000D02*
X269500D01*
X216400Y115800D02*
X217700D01*
X217800D02*
X218400D01*
X218600D02*
X219300D01*
X220000D02*
X220600D01*
X220700D02*
X221400D01*
X222100D02*
X222400D01*
X222600D02*
X223000D01*
X223400D02*
X223500D01*
X238400D02*
X241000D01*
X241700D02*
X242000D01*
X243000D02*
X243300D01*
X244200D02*
X244500D01*
X245200D02*
X247800D01*
X259300D02*
X260300D01*
X260500D02*
X260900D01*
X261300D02*
X261800D01*
X265600D02*
X266000D01*
X268500D02*
X269600D01*
X216500Y115700D02*
X216700D01*
X216800D02*
X217700D01*
X217900D02*
X218400D01*
X218600D02*
X219200D01*
X219900D02*
X220600D01*
X220800D02*
X221400D01*
X222600D02*
X223500D01*
X238300D02*
X241000D01*
X241700D02*
X242000D01*
X242700D02*
X243600D01*
X244200D02*
X244500D01*
X245200D02*
X247800D01*
X258900D02*
X260300D01*
X260600D02*
X261000D01*
X261600D02*
X261800D01*
X262200D02*
X264400D01*
X265600D02*
X266000D01*
X268600D02*
X269700D01*
X216500Y115600D02*
X217400D01*
X217500D02*
X217800D01*
X217900D02*
X218500D01*
X218700D02*
X219100D01*
X219900D02*
X220600D01*
X220800D02*
X221400D01*
X222300D02*
X222400D01*
X222500D02*
X223600D01*
X238300D02*
X241000D01*
X241500D02*
X242200D01*
X242700D02*
X243600D01*
X244000D02*
X244700D01*
X245200D02*
X247900D01*
X258700D02*
X259700D01*
X259800D02*
X260300D01*
X260600D02*
X261000D01*
X261600D02*
X261800D01*
X262200D02*
X264400D01*
X265500D02*
X265900D01*
X268700D02*
X269800D01*
X216600Y115500D02*
X217200D01*
X217500D02*
X217800D01*
X218000D02*
X218500D01*
X220000D02*
X221400D01*
X222200D02*
X223600D01*
X238300D02*
X239400D01*
X239700D02*
X241000D01*
X241500D02*
X242200D01*
X242900D02*
X243400D01*
X244000D02*
X244700D01*
X245200D02*
X246400D01*
X246700D02*
X247900D01*
X258700D02*
X259600D01*
X259900D02*
X260300D01*
X260600D02*
X260900D01*
X261600D02*
X261800D01*
X262200D02*
X264400D01*
X265500D02*
X265900D01*
X268700D02*
X269800D01*
X216600Y115400D02*
X217000D01*
X217600D02*
X217900D01*
X218100D02*
X218600D01*
X219900D02*
X221400D01*
X222100D02*
X223600D01*
X238300D02*
X239300D01*
X239800D02*
X241000D01*
X241600D02*
X242100D01*
X242800D02*
X243500D01*
X244100D02*
X244700D01*
X245200D02*
X246300D01*
X246800D02*
X247900D01*
X258200D02*
X259600D01*
X259900D02*
X260300D01*
X261600D02*
X264600D01*
X265500D02*
X265900D01*
X268700D02*
X269200D01*
X269400D02*
X269800D01*
X216700Y115300D02*
X216900D01*
X217600D02*
X218000D01*
X218100D02*
X218700D01*
X219900D02*
X221300D01*
X222100D02*
X222800D01*
X223100D02*
X223800D01*
X224100D02*
X224400D01*
X238400D02*
X239200D01*
X239900D02*
X240900D01*
X241700D02*
X242000D01*
X242700D02*
X243600D01*
X244300D02*
X244500D01*
X245200D02*
X246300D01*
X246900D02*
X247800D01*
X258100D02*
X259000D01*
X259200D02*
X259700D01*
X260000D02*
X260400D01*
X261600D02*
X264600D01*
X265400D02*
X265800D01*
X268700D02*
X269200D01*
X269400D02*
X269800D01*
X217700Y115200D02*
X218000D01*
X218200D02*
X218700D01*
X220100D02*
X221300D01*
X222200D02*
X222700D01*
X223200D02*
X223900D01*
X224100D02*
X224700D01*
X227100D02*
X227600D01*
X238600D02*
X239100D01*
X239900D02*
X240900D01*
X242700D02*
X243500D01*
X245300D02*
X246300D01*
X247100D02*
X247600D01*
X258100D02*
X259000D01*
X259300D02*
X259700D01*
X260000D02*
X260400D01*
X261600D02*
X263700D01*
X263900D02*
X264600D01*
X265400D02*
X265800D01*
X268700D02*
X269800D01*
X217800Y115100D02*
X218100D01*
X218300D02*
X218700D01*
X219700D02*
X221200D01*
X222200D02*
X222600D01*
X223300D02*
X224700D01*
X226700D02*
X226800D01*
X227100D02*
X227600D01*
X228000D02*
X228100D01*
X238700D02*
X239000D01*
X239900D02*
X240900D01*
X243000D02*
X243300D01*
X245300D02*
X246200D01*
X247100D02*
X247400D01*
X258000D02*
X259000D01*
X259300D02*
X259700D01*
X260000D02*
X260400D01*
X262200D02*
X263700D01*
X263900D02*
X264400D01*
X265400D02*
X265800D01*
X268800D02*
X269800D01*
X217800Y115000D02*
X218700D01*
X219600D02*
X221100D01*
X222100D02*
X222600D01*
X223300D02*
X224900D01*
X226500D02*
X226900D01*
X227100D02*
X227600D01*
X227900D02*
X228200D01*
X240000D02*
X240900D01*
X243000D02*
X243300D01*
X245300D02*
X246200D01*
X258000D02*
X258400D01*
X258600D02*
X259100D01*
X259400D02*
X259700D01*
X260000D02*
X260400D01*
X262200D02*
X263800D01*
X263900D02*
X264400D01*
X265300D02*
X265700D01*
X268800D02*
X269700D01*
X217900Y114900D02*
X218500D01*
X219500D02*
X220800D01*
X221000D02*
X221100D01*
X222000D02*
X222600D01*
X223300D02*
X224200D01*
X224400D02*
X224900D01*
X226400D02*
X226900D01*
X227100D02*
X227700D01*
X227800D02*
X228400D01*
X231500D02*
X232000D01*
X240000D02*
X240900D01*
X241900D02*
X244500D01*
X245300D02*
X246200D01*
X258000D02*
X258400D01*
X258700D02*
X259100D01*
X260000D02*
X260400D01*
X261600D02*
X264600D01*
X265200D02*
X265700D01*
X268900D02*
X269600D01*
X218000Y114800D02*
X218400D01*
X219500D02*
X221000D01*
X222000D02*
X222600D01*
X223300D02*
X223700D01*
X223800D02*
X224200D01*
X224500D02*
X224900D01*
X226400D02*
X228400D01*
X231500D02*
X232000D01*
X240100D02*
X240700D01*
X241900D02*
X244500D01*
X245400D02*
X246100D01*
X258000D02*
X258400D01*
X258700D02*
X259100D01*
X260000D02*
X260400D01*
X261600D02*
X264600D01*
X265200D02*
X265600D01*
X269100D02*
X269500D01*
X218000Y114700D02*
X218200D01*
X219400D02*
X220000D01*
X220100D02*
X221200D01*
X222100D02*
X222700D01*
X223200D02*
X224200D01*
X224500D02*
X224800D01*
X225000D02*
X225400D01*
X226400D02*
X228300D01*
X231500D02*
X231900D01*
X241900D02*
X244500D01*
X258000D02*
X258400D01*
X258800D02*
X259100D01*
X260000D02*
X260800D01*
X261600D02*
X264600D01*
X265100D02*
X265600D01*
X219400Y114600D02*
X219900D01*
X220300D02*
X221300D01*
X222100D02*
X224300D01*
X224400D02*
X224900D01*
X225000D02*
X225500D01*
X226000D02*
X226200D01*
X226500D02*
X228300D01*
X228600D02*
X228700D01*
X231600D02*
X231900D01*
X257900D02*
X258500D01*
X259600D02*
X260800D01*
X261600D02*
X261800D01*
X262200D02*
X264400D01*
X265000D02*
X265500D01*
X219400Y114500D02*
X219900D01*
X220600D02*
X221400D01*
X222400D02*
X223800D01*
X223900D02*
X224900D01*
X225000D02*
X225500D01*
X226000D02*
X226300D01*
X226400D02*
X228800D01*
X231600D02*
X231900D01*
X257800D02*
X258500D01*
X259600D02*
X260800D01*
X261600D02*
X261800D01*
X262200D02*
X264400D01*
X265000D02*
X265500D01*
X265900D02*
X266100D01*
X218800Y114400D02*
X219100D01*
X219300D02*
X219800D01*
X220800D02*
X221400D01*
X222300D02*
X225600D01*
X225900D02*
X227300D01*
X227400D02*
X228800D01*
X231600D02*
X231900D01*
X241900D02*
X242100D01*
X244200D02*
X244500D01*
X257100D02*
X257500D01*
X257600D02*
X258400D01*
X259700D02*
X260800D01*
X261600D02*
X264600D01*
X264700D02*
X265400D01*
X265800D02*
X266200D01*
X218400Y114300D02*
X218600D01*
X218700D02*
X219200D01*
X219300D02*
X219800D01*
X220900D02*
X221500D01*
X221600D02*
X222200D01*
X222300D02*
X223300D01*
X223500D02*
X224600D01*
X224800D02*
X225600D01*
X225900D02*
X227000D01*
X227600D02*
X228900D01*
X231600D02*
X231900D01*
X241800D02*
X242200D01*
X244100D02*
X244600D01*
X257000D02*
X258200D01*
X261600D02*
X264600D01*
X264700D02*
X265500D01*
X265800D02*
X266200D01*
X218300Y114200D02*
X219200D01*
X219300D02*
X219900D01*
X220700D02*
X222700D01*
X222900D02*
X223300D01*
X223500D02*
X224100D01*
X224800D02*
X225500D01*
X225800D02*
X226800D01*
X227400D02*
X228900D01*
X231600D02*
X231900D01*
X241800D02*
X242300D01*
X244000D02*
X244600D01*
X256800D02*
X258200D01*
X259700D02*
X260900D01*
X261600D02*
X264600D01*
X264700D02*
X266100D01*
X266200D02*
X266500D01*
X218300Y114100D02*
X220100D01*
X220600D02*
X222700D01*
X222900D02*
X223300D01*
X223400D02*
X223700D01*
X223900D02*
X224100D01*
X224700D02*
X225500D01*
X225900D02*
X226700D01*
X226800D02*
X226900D01*
X227300D02*
X228800D01*
X231600D02*
X231900D01*
X241800D02*
X242400D01*
X243900D02*
X244500D01*
X256600D02*
X257200D01*
X257300D02*
X257700D01*
X257800D02*
X258200D01*
X259700D02*
X260900D01*
X262200D02*
X264400D01*
X265100D02*
X266100D01*
X266200D02*
X266600D01*
X218300Y114000D02*
X220300D01*
X220600D02*
X222900D01*
X223400D02*
X224100D01*
X224700D02*
X225400D01*
X226100D02*
X227000D01*
X227200D02*
X228700D01*
X231600D02*
X231900D01*
X241900D02*
X242500D01*
X243900D02*
X244400D01*
X256400D02*
X257100D01*
X257400D02*
X257700D01*
X257900D02*
X258300D01*
X259700D02*
X260900D01*
X262200D02*
X264400D01*
X265300D02*
X266000D01*
X266100D02*
X266500D01*
X218300Y113900D02*
X220600D01*
X220700D02*
X223100D01*
X223500D02*
X224100D01*
X224700D02*
X225400D01*
X226100D02*
X227100D01*
X227200D02*
X228700D01*
X231600D02*
X231900D01*
X242000D02*
X242600D01*
X243700D02*
X244300D01*
X256300D02*
X256900D01*
X257200D02*
X257700D01*
X258000D02*
X258300D01*
X259700D02*
X260700D01*
X260800D02*
X261000D01*
X262200D02*
X264400D01*
X265500D02*
X266500D01*
X218200Y113800D02*
X219500D01*
X219600D02*
X222000D01*
X222200D02*
X223200D01*
X223600D02*
X223900D01*
X224700D02*
X225400D01*
X225700D02*
X228000D01*
X228200D02*
X229000D01*
X231600D02*
X231900D01*
X242100D02*
X242700D01*
X243600D02*
X244200D01*
X254800D02*
X255500D01*
X256300D02*
X256700D01*
X257000D02*
X257600D01*
X258000D02*
X258400D01*
X260100D02*
X260500D01*
X260800D02*
X261000D01*
X261700D02*
X264600D01*
X265500D02*
X265900D01*
X266000D02*
X266400D01*
X218100Y113700D02*
X219500D01*
X219800D02*
X222000D01*
X222400D02*
X223300D01*
X224600D02*
X225200D01*
X225700D02*
X226500D01*
X226600D02*
X227700D01*
X228200D02*
X229000D01*
X231600D02*
X231900D01*
X242200D02*
X242800D01*
X243500D02*
X244100D01*
X254600D02*
X255700D01*
X256300D02*
X256600D01*
X256800D02*
X257400D01*
X258100D02*
X258500D01*
X260100D02*
X260500D01*
X260700D02*
X261100D01*
X261700D02*
X264600D01*
X265400D02*
X266500D01*
X218200Y113600D02*
X219500D01*
X220100D02*
X222000D01*
X222600D02*
X223300D01*
X224400D02*
X225200D01*
X225700D02*
X226500D01*
X226600D02*
X227800D01*
X228200D02*
X229000D01*
X231600D02*
X231900D01*
X242300D02*
X244000D01*
X254500D02*
X255800D01*
X256100D02*
X257300D01*
X258200D02*
X258500D01*
X260100D02*
X260500D01*
X260800D02*
X261100D01*
X261700D02*
X264600D01*
X265400D02*
X265800D01*
X265900D02*
X266600D01*
X218200Y113500D02*
X219700D01*
X220300D02*
X221100D01*
X221200D02*
X221900D01*
X222800D02*
X223300D01*
X223500D02*
X224100D01*
X224400D02*
X225300D01*
X225700D02*
X226500D01*
X226600D02*
X227800D01*
X228200D02*
X229000D01*
X229900D02*
X230100D01*
X231600D02*
X231900D01*
X242400D02*
X243900D01*
X254400D02*
X254900D01*
X255400D02*
X255900D01*
X256000D02*
X257100D01*
X258200D02*
X258600D01*
X260100D02*
X260500D01*
X260800D02*
X261000D01*
X261700D02*
X262000D01*
X262200D02*
X264400D01*
X265400D02*
X266800D01*
X267200D02*
X267500D01*
X218400Y113400D02*
X219800D01*
X220600D02*
X220900D01*
X221200D02*
X221700D01*
X222500D02*
X223300D01*
X223400D02*
X224300D01*
X224400D02*
X225300D01*
X225700D02*
X226600D01*
X226800D02*
X227900D01*
X228200D02*
X229000D01*
X229800D02*
X230300D01*
X231600D02*
X231900D01*
X233500D02*
X234000D01*
X234300D02*
X234700D01*
X241800D02*
X242100D01*
X242400D02*
X243800D01*
X244200D02*
X244500D01*
X254400D02*
X254800D01*
X255600D02*
X256900D01*
X258300D02*
X258600D01*
X260100D02*
X260500D01*
X261700D02*
X262000D01*
X262200D02*
X264400D01*
X265500D02*
X265700D01*
X265800D02*
X266900D01*
X267000D02*
X267700D01*
X218500Y113300D02*
X220200D01*
X221200D02*
X222000D01*
X222500D02*
X224500D01*
X224700D02*
X225400D01*
X226100D02*
X226600D01*
X227000D02*
X227200D01*
X227300D02*
X227900D01*
X228200D02*
X228700D01*
X229800D02*
X230300D01*
X231600D02*
X231900D01*
X233100D02*
X234000D01*
X234300D02*
X235000D01*
X241700D02*
X242200D01*
X242300D02*
X244000D01*
X244100D02*
X244600D01*
X254300D02*
X254700D01*
X255600D02*
X256300D01*
X256500D02*
X256700D01*
X258300D02*
X258700D01*
X260100D02*
X260500D01*
X261700D02*
X262000D01*
X265700D02*
X266200D01*
X266400D02*
X267800D01*
X218500Y113200D02*
X220300D01*
X221300D02*
X222200D01*
X222500D02*
X224700D01*
X225000D02*
X225400D01*
X226100D02*
X226700D01*
X227300D02*
X227900D01*
X228100D02*
X228700D01*
X229800D02*
X230400D01*
X231600D02*
X231900D01*
X232900D02*
X234000D01*
X234300D02*
X235100D01*
X241700D02*
X244600D01*
X254300D02*
X254600D01*
X254800D02*
X255100D01*
X255400D02*
X255600D01*
X255700D02*
X256100D01*
X258400D02*
X258800D01*
X260000D02*
X261100D01*
X261700D02*
X262000D01*
X265800D02*
X266100D01*
X266500D02*
X267900D01*
X218600Y113100D02*
X220600D01*
X221300D02*
X222400D01*
X222600D02*
X225000D01*
X226000D02*
X226700D01*
X227300D02*
X227900D01*
X228000D02*
X228800D01*
X229800D02*
X230400D01*
X231600D02*
X231900D01*
X232800D02*
X234000D01*
X234300D02*
X235200D01*
X241800D02*
X244600D01*
X254300D02*
X254600D01*
X254700D02*
X255200D01*
X255400D02*
X255600D01*
X255700D02*
X256000D01*
X258500D02*
X258800D01*
X259300D02*
X262400D01*
X266700D02*
X267900D01*
X218600Y113000D02*
X220700D01*
X221400D02*
X223800D01*
X224000D02*
X225100D01*
X225800D02*
X226800D01*
X227300D02*
X227900D01*
X228000D02*
X228900D01*
X229900D02*
X230500D01*
X231600D02*
X231900D01*
X232700D02*
X234000D01*
X234300D02*
X235300D01*
X241900D02*
X244500D01*
X254300D02*
X254600D01*
X254700D02*
X255600D01*
X255700D02*
X256000D01*
X258500D02*
X262800D01*
X266800D02*
X267200D01*
X267500D02*
X267900D01*
X218800Y112900D02*
X220900D01*
X221700D02*
X223900D01*
X224300D02*
X225100D01*
X225800D02*
X226900D01*
X227300D02*
X229300D01*
X229900D02*
X230500D01*
X231600D02*
X231900D01*
X232600D02*
X234000D01*
X234300D02*
X235400D01*
X240400D02*
X240500D01*
X241300D02*
X241500D01*
X241900D02*
X244400D01*
X244800D02*
X245000D01*
X248000D02*
X249500D01*
X254300D02*
X254600D01*
X254700D02*
X255600D01*
X255700D02*
X256000D01*
X258600D02*
X259900D01*
X260600D02*
X260900D01*
X261600D02*
X263000D01*
X266800D02*
X267200D01*
X267500D02*
X267900D01*
X218800Y112800D02*
X221100D01*
X221900D02*
X223900D01*
X224500D02*
X225200D01*
X225900D02*
X227100D01*
X227400D02*
X228800D01*
X228900D02*
X229400D01*
X229900D02*
X230600D01*
X231600D02*
X231900D01*
X232600D02*
X234000D01*
X234300D02*
X235400D01*
X240200D02*
X240600D01*
X241200D02*
X241600D01*
X241800D02*
X244500D01*
X244700D02*
X245100D01*
X248000D02*
X249600D01*
X254300D02*
X254600D01*
X254700D02*
X255000D01*
X255100D02*
X255600D01*
X255700D02*
X256000D01*
X258700D02*
X259400D01*
X260600D02*
X260900D01*
X261600D02*
X261900D01*
X262400D02*
X263300D01*
X266800D02*
X267900D01*
X218800Y112700D02*
X219200D01*
X219500D02*
X221300D01*
X222200D02*
X223000D01*
X223100D02*
X223800D01*
X224700D02*
X225200D01*
X226000D02*
X228800D01*
X228900D02*
X229500D01*
X230000D02*
X230600D01*
X231600D02*
X231900D01*
X232600D02*
X234000D01*
X234300D02*
X235500D01*
X240200D02*
X240700D01*
X241200D02*
X244500D01*
X244600D02*
X245100D01*
X248000D02*
X249600D01*
X254300D02*
X254600D01*
X254700D02*
X255000D01*
X255200D02*
X255500D01*
X255700D02*
X256000D01*
X258700D02*
X258900D01*
X260600D02*
X260900D01*
X261600D02*
X261900D01*
X262600D02*
X263500D01*
X266800D02*
X267900D01*
X219000Y112600D02*
X219100D01*
X219400D02*
X221500D01*
X222400D02*
X222800D01*
X223100D02*
X223600D01*
X224700D02*
X225200D01*
X226000D02*
X226200D01*
X226500D02*
X228300D01*
X228500D02*
X228700D01*
X228900D02*
X229600D01*
X230000D02*
X230600D01*
X231600D02*
X231900D01*
X232600D02*
X233800D01*
X234500D02*
X235500D01*
X240200D02*
X240800D01*
X241200D02*
X245100D01*
X245600D02*
X251000D01*
X251300D02*
X251600D01*
X251800D02*
X252200D01*
X252400D02*
X252700D01*
X253000D02*
X253300D01*
X253600D02*
X254700D01*
X255600D02*
X256000D01*
X258700D02*
X258900D01*
X260600D02*
X260900D01*
X261600D02*
X261900D01*
X262600D02*
X262800D01*
X262900D02*
X263800D01*
X266900D02*
X267800D01*
X219300Y112500D02*
X221700D01*
X223100D02*
X223900D01*
X224700D02*
X225200D01*
X226400D02*
X228300D01*
X228900D02*
X229700D01*
X230000D02*
X230700D01*
X231600D02*
X231900D01*
X232500D02*
X233700D01*
X234500D02*
X235600D01*
X240300D02*
X240900D01*
X241300D02*
X243000D01*
X243300D02*
X245000D01*
X245500D02*
X251100D01*
X251300D02*
X251600D01*
X251800D02*
X252200D01*
X252400D02*
X252800D01*
X253000D02*
X253300D01*
X253500D02*
X254800D01*
X255600D02*
X255900D01*
X258700D02*
X258900D01*
X260600D02*
X260900D01*
X261600D02*
X261900D01*
X262600D02*
X262800D01*
X263200D02*
X264000D01*
X267000D02*
X267700D01*
X219300Y112400D02*
X221900D01*
X223100D02*
X224100D01*
X224600D02*
X225100D01*
X226400D02*
X228400D01*
X229000D02*
X229800D01*
X230100D02*
X230700D01*
X231600D02*
X231900D01*
X232500D02*
X233600D01*
X234600D02*
X238300D01*
X239800D02*
X239900D01*
X240400D02*
X241000D01*
X241400D02*
X243000D01*
X243400D02*
X244900D01*
X245300D02*
X251000D01*
X251300D02*
X251600D01*
X251800D02*
X252200D01*
X252400D02*
X252800D01*
X252900D02*
X253300D01*
X253500D02*
X254300D01*
X254400D02*
X254900D01*
X255400D02*
X255900D01*
X258700D02*
X258900D01*
X260600D02*
X260900D01*
X261600D02*
X261900D01*
X262600D02*
X262800D01*
X263400D02*
X264100D01*
X267200D02*
X267600D01*
X219200Y112300D02*
X222100D01*
X223200D02*
X224300D01*
X224600D02*
X225100D01*
X226400D02*
X228400D01*
X229100D02*
X229900D01*
X230100D02*
X230700D01*
X231600D02*
X231900D01*
X232500D02*
X233500D01*
X234700D02*
X238300D01*
X239700D02*
X240100D01*
X240500D02*
X241100D01*
X241300D02*
X242900D01*
X243400D02*
X244900D01*
X245200D02*
X245800D01*
X246300D02*
X246500D01*
X248000D02*
X249600D01*
X250400D02*
X251100D01*
X251200D02*
X251600D01*
X251800D02*
X252200D01*
X252400D02*
X252800D01*
X252900D02*
X253300D01*
X253500D02*
X254200D01*
X254500D02*
X255800D01*
X258700D02*
X258900D01*
X260600D02*
X260900D01*
X261600D02*
X261900D01*
X262600D02*
X262800D01*
X263600D02*
X264300D01*
X219200Y112200D02*
X222200D01*
X223300D02*
X225100D01*
X226500D02*
X226900D01*
X227100D02*
X227600D01*
X227900D02*
X228300D01*
X229100D02*
X230000D01*
X230100D02*
X230700D01*
X231600D02*
X231900D01*
X232500D02*
X233500D01*
X234700D02*
X238400D01*
X239700D02*
X240100D01*
X240600D02*
X243000D01*
X243400D02*
X245000D01*
X245100D02*
X245700D01*
X246200D02*
X246600D01*
X248000D02*
X249600D01*
X250700D02*
X251100D01*
X251200D02*
X251700D01*
X251800D02*
X252200D01*
X252300D02*
X252800D01*
X252900D02*
X253400D01*
X253500D02*
X253900D01*
X254600D02*
X255700D01*
X258700D02*
X258900D01*
X260600D02*
X260900D01*
X261600D02*
X261900D01*
X262600D02*
X262900D01*
X263800D02*
X264400D01*
X219300Y112100D02*
X222400D01*
X223600D02*
X225000D01*
X226600D02*
X226800D01*
X227100D02*
X227600D01*
X227900D02*
X228100D01*
X229200D02*
X231000D01*
X231600D02*
X231900D01*
X232500D02*
X233500D01*
X234700D02*
X238400D01*
X239700D02*
X240300D01*
X240700D02*
X243100D01*
X243300D02*
X245600D01*
X246100D02*
X246600D01*
X248000D02*
X249600D01*
X250700D02*
X253800D01*
X254800D02*
X255500D01*
X257900D02*
X259700D01*
X260600D02*
X261000D01*
X261600D02*
X261900D01*
X262600D02*
X262900D01*
X264000D02*
X264600D01*
X219500Y112000D02*
X222600D01*
X223800D02*
X225000D01*
X227100D02*
X227600D01*
X229300D02*
X230900D01*
X231600D02*
X231900D01*
X232200D02*
X233500D01*
X234800D02*
X238400D01*
X239700D02*
X240400D01*
X240700D02*
X245500D01*
X246000D02*
X246600D01*
X250800D02*
X253800D01*
X257900D02*
X259700D01*
X260700D02*
X261000D01*
X261600D02*
X262000D01*
X262600D02*
X263000D01*
X264200D02*
X265200D01*
X219500Y111900D02*
X222800D01*
X224000D02*
X224900D01*
X229400D02*
X230800D01*
X231600D02*
X231900D01*
X232200D02*
X233500D01*
X234700D02*
X238400D01*
X239800D02*
X240400D01*
X240900D02*
X245500D01*
X245900D02*
X246500D01*
X250800D02*
X253700D01*
X257900D02*
X259700D01*
X260700D02*
X261000D01*
X261700D02*
X262000D01*
X262700D02*
X263000D01*
X264300D02*
X265300D01*
X219700Y111800D02*
X223000D01*
X224200D02*
X224700D01*
X229500D02*
X230900D01*
X231600D02*
X231900D01*
X232200D02*
X238500D01*
X239200D02*
X239500D01*
X240000D02*
X240600D01*
X240800D02*
X245400D01*
X245800D02*
X246400D01*
X246800D02*
X247000D01*
X250900D02*
X251300D01*
X251500D02*
X251900D01*
X252100D02*
X252500D01*
X252700D02*
X253100D01*
X253200D02*
X253600D01*
X257900D02*
X258200D01*
X259400D02*
X260000D01*
X260100D02*
X260400D01*
X260600D02*
X261400D01*
X261600D02*
X262400D01*
X262500D02*
X263000D01*
X264400D02*
X265400D01*
X219800Y111700D02*
X223200D01*
X224700D02*
X227900D01*
X229600D02*
X230900D01*
X231300D02*
X238500D01*
X239100D02*
X239600D01*
X240000D02*
X240600D01*
X240700D02*
X245500D01*
X245700D02*
X246300D01*
X246700D02*
X247100D01*
X257900D02*
X258200D01*
X259400D02*
X260000D01*
X260100D02*
X260400D01*
X260600D02*
X261400D01*
X261600D02*
X262400D01*
X262500D02*
X263100D01*
X264400D02*
X265400D01*
X220000Y111600D02*
X223400D01*
X223600D02*
X223800D01*
X224700D02*
X228700D01*
X229800D02*
X231000D01*
X231300D02*
X238500D01*
X239100D02*
X239700D01*
X240100D02*
X246200D01*
X246600D02*
X247200D01*
X250900D02*
X253900D01*
X257900D02*
X258200D01*
X259400D02*
X260000D01*
X260100D02*
X260400D01*
X260600D02*
X261400D01*
X261500D02*
X262400D01*
X262500D02*
X263100D01*
X264400D02*
X264800D01*
X265000D02*
X265400D01*
X220000Y111500D02*
X224000D01*
X224700D02*
X228800D01*
X229800D02*
X231100D01*
X231300D02*
X238500D01*
X239200D02*
X239800D01*
X240200D02*
X246100D01*
X246500D02*
X247100D01*
X250900D02*
X253900D01*
X257900D02*
X259700D01*
X260600D02*
X261200D01*
X261600D02*
X262200D01*
X262500D02*
X263100D01*
X264400D02*
X264800D01*
X265000D02*
X265500D01*
X220200Y111400D02*
X224200D01*
X224700D02*
X225700D01*
X226200D02*
X228800D01*
X229800D02*
X231100D01*
X231300D02*
X238500D01*
X239300D02*
X239800D01*
X240300D02*
X246000D01*
X246400D02*
X247000D01*
X250900D02*
X253900D01*
X257900D02*
X259700D01*
X260500D02*
X261200D01*
X261500D02*
X262200D01*
X262400D02*
X263200D01*
X264400D02*
X264800D01*
X265000D02*
X265500D01*
X220300Y111300D02*
X224400D01*
X224800D02*
X231100D01*
X231300D02*
X238600D01*
X238700D02*
X238900D01*
X239400D02*
X240000D01*
X240300D02*
X245900D01*
X246300D02*
X246900D01*
X247400D02*
X247500D01*
X250800D02*
X251200D01*
X251500D02*
X251900D01*
X252100D02*
X252600D01*
X252800D02*
X253300D01*
X253500D02*
X253900D01*
X255400D02*
X257300D01*
X258000D02*
X259600D01*
X260400D02*
X261300D01*
X261400D02*
X262300D01*
X262400D02*
X263200D01*
X264400D02*
X265400D01*
X220500Y111200D02*
X224600D01*
X225000D02*
X231200D01*
X231300D02*
X234100D01*
X234200D02*
X239100D01*
X239500D02*
X240100D01*
X240200D02*
X246000D01*
X246200D02*
X246800D01*
X247300D02*
X247600D01*
X250700D02*
X254100D01*
X255400D02*
X257300D01*
X258700D02*
X258900D01*
X260400D02*
X260700D01*
X260800D02*
X261300D01*
X261400D02*
X262300D01*
X262400D02*
X263300D01*
X264400D02*
X265400D01*
X220600Y111100D02*
X224700D01*
X225000D02*
X225700D01*
X226200D02*
X230100D01*
X230200D02*
X230700D01*
X230800D02*
X231200D01*
X231500D02*
X231900D01*
X232200D02*
X233500D01*
X234800D02*
X239100D01*
X239600D02*
X246700D01*
X247200D02*
X247700D01*
X250600D02*
X254100D01*
X255100D02*
X257400D01*
X258700D02*
X258900D01*
X260400D02*
X261100D01*
X261400D02*
X262000D01*
X262400D02*
X263000D01*
X264500D02*
X265300D01*
X220700Y111000D02*
X224900D01*
X225000D02*
X228800D01*
X228900D02*
X230000D01*
X230200D02*
X231300D01*
X231500D02*
X232000D01*
X232200D02*
X233500D01*
X234800D02*
X239300D01*
X239700D02*
X246600D01*
X247100D02*
X247700D01*
X250600D02*
X254200D01*
X255100D02*
X255600D01*
X256600D02*
X257400D01*
X258700D02*
X258900D01*
X260500D02*
X261000D01*
X261400D02*
X262000D01*
X262400D02*
X263000D01*
X264600D02*
X265200D01*
X221000Y110900D02*
X228800D01*
X229500D02*
X229900D01*
X230300D02*
X230800D01*
X230900D02*
X231300D01*
X231500D02*
X232000D01*
X232200D02*
X233500D01*
X234800D02*
X238600D01*
X238700D02*
X239300D01*
X239800D02*
X246500D01*
X247000D02*
X247600D01*
X248300D02*
X249800D01*
X250600D02*
X251000D01*
X251100D02*
X251600D01*
X251800D02*
X252300D01*
X252400D02*
X253000D01*
X253100D02*
X253700D01*
X253800D02*
X254200D01*
X255100D02*
X255600D01*
X256600D02*
X257400D01*
X258700D02*
X258900D01*
X260500D02*
X261000D01*
X261500D02*
X262000D01*
X262500D02*
X262900D01*
X221000Y110800D02*
X224800D01*
X224900D02*
X228700D01*
X228900D02*
X229900D01*
X230400D02*
X231300D01*
X232500D02*
X237700D01*
X238200D02*
X238400D01*
X238900D02*
X239400D01*
X239800D02*
X246500D01*
X246800D02*
X247500D01*
X248300D02*
X249800D01*
X250500D02*
X250900D01*
X251100D02*
X251600D01*
X251800D02*
X252300D01*
X252500D02*
X252900D01*
X253200D02*
X253600D01*
X253800D02*
X254200D01*
X255400D02*
X255600D01*
X256600D02*
X257300D01*
X258700D02*
X258900D01*
X260600D02*
X260900D01*
X261600D02*
X261900D01*
X262500D02*
X262900D01*
X221200Y110700D02*
X224800D01*
X224900D02*
X229900D01*
X230500D02*
X231300D01*
X232500D02*
X237700D01*
X238100D02*
X238500D01*
X239000D02*
X239600D01*
X239700D02*
X246500D01*
X246700D02*
X247400D01*
X247800D02*
X250900D01*
X251200D02*
X251600D01*
X251800D02*
X252200D01*
X252500D02*
X252900D01*
X253200D02*
X253600D01*
X253900D02*
X254800D01*
X255200D02*
X255600D01*
X256700D02*
X256900D01*
X257000D02*
X257300D01*
X257400D02*
X258900D01*
X260600D02*
X260900D01*
X261600D02*
X261900D01*
X262300D02*
X263000D01*
X221200Y110600D02*
X223800D01*
X223900D02*
X224700D01*
X224800D02*
X227900D01*
X228500D02*
X229900D01*
X230600D02*
X231300D01*
X232500D02*
X237700D01*
X238100D02*
X238600D01*
X239100D02*
X247300D01*
X247700D02*
X250900D01*
X251200D02*
X251500D01*
X251800D02*
X252200D01*
X252500D02*
X252900D01*
X253200D02*
X253600D01*
X253900D02*
X254800D01*
X255100D02*
X255600D01*
X257000D02*
X258900D01*
X260600D02*
X260900D01*
X261600D02*
X261900D01*
X262200D02*
X263100D01*
X221500Y110500D02*
X223800D01*
X224000D02*
X224700D01*
X224800D02*
X227800D01*
X228500D02*
X230000D01*
X230700D02*
X231300D01*
X232500D02*
X237700D01*
X238100D02*
X238700D01*
X239100D02*
X247200D01*
X247600D02*
X250900D01*
X251200D02*
X251500D01*
X251900D02*
X252200D01*
X252500D02*
X252900D01*
X253200D02*
X253600D01*
X253900D02*
X254800D01*
X255100D02*
X255600D01*
X257000D02*
X258900D01*
X260600D02*
X260900D01*
X261600D02*
X261900D01*
X262200D02*
X263200D01*
X221500Y110400D02*
X223700D01*
X224000D02*
X224700D01*
X224800D02*
X227800D01*
X228500D02*
X230000D01*
X230800D02*
X231300D01*
X232500D02*
X237700D01*
X238200D02*
X238800D01*
X239200D02*
X247100D01*
X247500D02*
X250900D01*
X251200D02*
X251500D01*
X251900D02*
X252200D01*
X252600D02*
X252900D01*
X253200D02*
X253500D01*
X253900D02*
X254800D01*
X255400D02*
X255600D01*
X257000D02*
X257300D01*
X260600D02*
X260900D01*
X261600D02*
X262000D01*
X262100D02*
X263200D01*
X221700Y110300D02*
X223700D01*
X223900D02*
X224600D01*
X224800D02*
X226300D01*
X228500D02*
X230000D01*
X238300D02*
X238900D01*
X239300D02*
X247000D01*
X247400D02*
X248000D01*
X248300D02*
X249800D01*
X250400D02*
X250700D01*
X254400D02*
X254800D01*
X255400D02*
X255600D01*
X257000D02*
X257300D01*
X260500D02*
X260900D01*
X261600D02*
X262600D01*
X262800D02*
X263200D01*
X221700Y110200D02*
X223600D01*
X223900D02*
X224600D01*
X224700D02*
X226300D01*
X228500D02*
X229300D01*
X229400D02*
X230000D01*
X238400D02*
X239000D01*
X239200D02*
X247000D01*
X247300D02*
X247900D01*
X248300D02*
X249800D01*
X250400D02*
X250700D01*
X254100D02*
X254300D01*
X254400D02*
X254800D01*
X255100D02*
X255600D01*
X257000D02*
X257400D01*
X260400D02*
X260800D01*
X261700D02*
X262600D01*
X262800D02*
X263200D01*
X222000Y110100D02*
X223600D01*
X223800D02*
X224600D01*
X224700D02*
X226300D01*
X229500D02*
X229900D01*
X235300D02*
X236500D01*
X238600D02*
X247100D01*
X247200D02*
X247800D01*
X250400D02*
X250700D01*
X254000D02*
X254300D01*
X254400D02*
X254800D01*
X255100D02*
X255600D01*
X257000D02*
X257400D01*
X258800D02*
X258900D01*
X260300D02*
X260700D01*
X262000D02*
X262600D01*
X262700D02*
X263200D01*
X222000Y110000D02*
X223500D01*
X223700D02*
X224500D01*
X224700D02*
X226200D01*
X231200D02*
X236800D01*
X238600D02*
X247700D01*
X248400D02*
X248800D01*
X249200D02*
X249600D01*
X250400D02*
X250700D01*
X253800D02*
X254300D01*
X254400D02*
X254800D01*
X255100D02*
X255600D01*
X257000D02*
X257400D01*
X258800D02*
X259000D01*
X259100D02*
X259500D01*
X260200D02*
X260700D01*
X262200D02*
X263200D01*
X222200Y109900D02*
X223500D01*
X223700D02*
X224400D01*
X224700D02*
X226200D01*
X227200D02*
X237000D01*
X238700D02*
X247600D01*
X248400D02*
X248800D01*
X249200D02*
X249600D01*
X250400D02*
X250700D01*
X253600D02*
X254300D01*
X254400D02*
X254800D01*
X255300D02*
X255600D01*
X257000D02*
X257300D01*
X258800D02*
X259500D01*
X260100D02*
X260600D01*
X262200D02*
X263100D01*
X222200Y109800D02*
X222500D01*
X222600D02*
X224400D01*
X224700D02*
X237200D01*
X238800D02*
X239600D01*
X240300D02*
X241400D01*
X241500D02*
X241700D01*
X242400D02*
X243900D01*
X244600D02*
X244800D01*
X245500D02*
X246200D01*
X246600D02*
X247500D01*
X248400D02*
X248800D01*
X249200D02*
X249600D01*
X250000D02*
X251200D01*
X253400D02*
X254300D01*
X254400D02*
X254800D01*
X255100D02*
X255600D01*
X257000D02*
X259500D01*
X259900D02*
X260500D01*
X262300D02*
X263100D01*
X222600Y109700D02*
X224300D01*
X224600D02*
X233800D01*
X234700D02*
X234900D01*
X235100D02*
X237300D01*
X238900D02*
X241400D01*
X241500D02*
X242400D01*
X242500D02*
X243000D01*
X243200D02*
X244800D01*
X244900D02*
X247400D01*
X248400D02*
X248800D01*
X249200D02*
X249600D01*
X250000D02*
X251200D01*
X253200D02*
X253900D01*
X254000D02*
X254300D01*
X254400D02*
X254800D01*
X255100D02*
X255600D01*
X257000D02*
X260400D01*
X262400D02*
X262900D01*
X222500Y109600D02*
X224300D01*
X224600D02*
X225700D01*
X225900D02*
X229800D01*
X234600D02*
X235000D01*
X235100D02*
X237400D01*
X238900D02*
X239400D01*
X239500D02*
X241400D01*
X241500D02*
X242500D01*
X242600D02*
X243200D01*
X243300D02*
X244800D01*
X244900D02*
X246000D01*
X246100D02*
X246800D01*
X246900D02*
X247400D01*
X248400D02*
X248800D01*
X249200D02*
X249600D01*
X250000D02*
X251200D01*
X253100D02*
X253700D01*
X254000D02*
X254300D01*
X254400D02*
X254800D01*
X255100D02*
X255600D01*
X257000D02*
X260200D01*
X222500Y109500D02*
X224200D01*
X224600D02*
X225600D01*
X225800D02*
X227200D01*
X234600D02*
X237500D01*
X238900D02*
X241400D01*
X241500D02*
X242500D01*
X242600D02*
X242900D01*
X243000D02*
X244800D01*
X244900D02*
X247400D01*
X248100D02*
X249600D01*
X250100D02*
X251100D01*
X252900D02*
X253500D01*
X253600D02*
X254800D01*
X255300D02*
X255600D01*
X257000D02*
X257300D01*
X258800D02*
X259700D01*
X259900D02*
X261100D01*
X222600Y109400D02*
X224300D01*
X224500D02*
X225600D01*
X225700D02*
X226700D01*
X226800D02*
X227300D01*
X234500D02*
X235700D01*
X235800D02*
X236200D01*
X236300D02*
X237600D01*
X238900D02*
X239600D01*
X240200D02*
X241400D01*
X241500D02*
X243300D01*
X243400D02*
X244200D01*
X244600D02*
X244800D01*
X244900D02*
X245600D01*
X245700D02*
X245900D01*
X246000D02*
X247400D01*
X248000D02*
X249900D01*
X250000D02*
X251100D01*
X252700D02*
X253300D01*
X253600D02*
X254800D01*
X255300D02*
X255600D01*
X257000D02*
X257300D01*
X258800D02*
X259500D01*
X260000D02*
X261100D01*
X222800Y109300D02*
X224300D01*
X224500D02*
X225600D01*
X225700D02*
X227300D01*
X234600D02*
X235400D01*
X235800D02*
X236200D01*
X236600D02*
X237700D01*
X238900D02*
X241400D01*
X241500D02*
X241900D01*
X242500D02*
X242800D01*
X242900D02*
X243400D01*
X243500D02*
X244800D01*
X244900D02*
X245500D01*
X245600D02*
X247400D01*
X248000D02*
X251200D01*
X252500D02*
X253200D01*
X254000D02*
X254800D01*
X255100D02*
X255600D01*
X257000D02*
X257400D01*
X258800D02*
X259000D01*
X259100D02*
X259500D01*
X260000D02*
X261100D01*
X222900Y109200D02*
X224300D01*
X224500D02*
X225600D01*
X225700D02*
X227300D01*
X234700D02*
X235300D01*
X235800D02*
X236200D01*
X236700D02*
X237700D01*
X238900D02*
X240600D01*
X240700D02*
X242700D01*
X242800D02*
X244800D01*
X244900D02*
X245500D01*
X245600D02*
X246000D01*
X246100D02*
X246800D01*
X246900D02*
X247400D01*
X248000D02*
X249500D01*
X249600D02*
X251200D01*
X252300D02*
X253000D01*
X254000D02*
X254300D01*
X255100D02*
X255600D01*
X257000D02*
X257400D01*
X260000D02*
X261100D01*
X223100Y109100D02*
X224200D01*
X224300D02*
X225500D01*
X225700D02*
X226000D01*
X226100D02*
X226400D01*
X226600D02*
X226900D01*
X227000D02*
X227300D01*
X233000D02*
X233400D01*
X233600D02*
X233900D01*
X234300D02*
X235200D01*
X235600D02*
X236400D01*
X236800D02*
X237800D01*
X238800D02*
X240200D01*
X240300D02*
X240600D01*
X240700D02*
X241300D01*
X241400D02*
X243500D01*
X243600D02*
X244800D01*
X244900D02*
X247400D01*
X248000D02*
X248300D01*
X248900D02*
X249200D01*
X249600D02*
X251200D01*
X251800D02*
X252800D01*
X254000D02*
X254300D01*
X255100D02*
X255600D01*
X257000D02*
X257400D01*
X260000D02*
X260400D01*
X260700D02*
X261100D01*
X223300Y109000D02*
X224200D01*
X224300D02*
X225500D01*
X225700D02*
X226000D01*
X226100D02*
X226400D01*
X226600D02*
X226900D01*
X227000D02*
X227300D01*
X233000D02*
X234000D01*
X234200D02*
X235100D01*
X235500D02*
X236600D01*
X236900D02*
X237800D01*
X238700D02*
X239500D01*
X240200D02*
X240800D01*
X241200D02*
X242600D01*
X242700D02*
X243900D01*
X244600D02*
X244800D01*
X244900D02*
X245600D01*
X245700D02*
X246300D01*
X246600D02*
X247500D01*
X248000D02*
X248300D01*
X248800D02*
X249300D01*
X249700D02*
X250000D01*
X250400D02*
X250700D01*
X251700D02*
X252600D01*
X254000D02*
X254300D01*
X255300D02*
X255600D01*
X257000D02*
X257300D01*
X260000D02*
X260400D01*
X260700D02*
X261100D01*
X223500Y108900D02*
X224100D01*
X224300D02*
X225500D01*
X225700D02*
X227300D01*
X231700D02*
X232400D01*
X233000D02*
X234000D01*
X234200D02*
X237900D01*
X238600D02*
X247600D01*
X248000D02*
X248300D01*
X248800D02*
X249200D01*
X249700D02*
X250000D01*
X250400D02*
X250700D01*
X251600D02*
X252800D01*
X254000D02*
X254300D01*
X255100D02*
X255600D01*
X257000D02*
X257400D01*
X260000D02*
X260400D01*
X260700D02*
X261100D01*
X223700Y108800D02*
X224100D01*
X224300D02*
X227300D01*
X231700D02*
X232400D01*
X232700D02*
X234000D01*
X234200D02*
X237900D01*
X238500D02*
X247700D01*
X248000D02*
X248300D01*
X248700D02*
X249300D01*
X249700D02*
X250000D01*
X250400D02*
X250700D01*
X251600D02*
X252000D01*
X252300D02*
X253000D01*
X253700D02*
X253900D01*
X254000D02*
X254300D01*
X255100D02*
X255600D01*
X257000D02*
X257400D01*
X258500D02*
X258900D01*
X260000D02*
X261100D01*
X224300Y108700D02*
X227300D01*
X231500D02*
X237900D01*
X238400D02*
X239000D01*
X239200D02*
X247700D01*
X248000D02*
X248300D01*
X248700D02*
X249300D01*
X249700D02*
X250000D01*
X250400D02*
X250700D01*
X251600D02*
X251900D01*
X252500D02*
X253200D01*
X253600D02*
X253900D01*
X254000D02*
X254700D01*
X255100D02*
X255600D01*
X257000D02*
X257400D01*
X258300D02*
X259100D01*
X260000D02*
X261100D01*
X224300Y108600D02*
X225700D01*
X225800D02*
X226300D01*
X226400D02*
X226600D01*
X226700D02*
X227100D01*
X231500D02*
X232000D01*
X232100D02*
X233300D01*
X233600D02*
X234300D01*
X234400D02*
X234900D01*
X235000D02*
X235900D01*
X236100D02*
X237100D01*
X237200D02*
X238000D01*
X238300D02*
X238900D01*
X239200D02*
X247100D01*
X247200D02*
X247800D01*
X248000D02*
X248300D01*
X248800D02*
X249200D01*
X249600D02*
X250000D01*
X250400D02*
X250700D01*
X251600D02*
X251900D01*
X252700D02*
X253400D01*
X253600D02*
X254800D01*
X255300D02*
X255600D01*
X257000D02*
X257300D01*
X258200D02*
X259200D01*
X260000D02*
X261100D01*
X225800Y108500D02*
X227200D01*
X231500D02*
X231900D01*
X232200D02*
X233200D01*
X233700D02*
X234300D01*
X234400D02*
X234800D01*
X235100D02*
X235700D01*
X236300D02*
X236900D01*
X237200D02*
X238000D01*
X238200D02*
X238800D01*
X239300D02*
X247000D01*
X247400D02*
X247900D01*
X248000D02*
X248400D01*
X248800D02*
X249100D01*
X249600D02*
X249900D01*
X250400D02*
X250700D01*
X251600D02*
X251900D01*
X252900D02*
X253500D01*
X253700D02*
X253900D01*
X254000D02*
X254900D01*
X255300D02*
X255600D01*
X257000D02*
X257300D01*
X258200D02*
X259200D01*
X260000D02*
X261100D01*
X225900Y108400D02*
X227300D01*
X231500D02*
X231900D01*
X232200D02*
X232500D01*
X232600D02*
X233100D01*
X233800D02*
X234800D01*
X235100D02*
X235700D01*
X236400D02*
X236900D01*
X237200D02*
X238000D01*
X238100D02*
X238700D01*
X239200D02*
X247000D01*
X247500D02*
X248400D01*
X248800D02*
X249000D01*
X249500D02*
X249900D01*
X250400D02*
X250700D01*
X251600D02*
X251900D01*
X253100D02*
X253900D01*
X254000D02*
X254300D01*
X254600D02*
X255600D01*
X257000D02*
X258700D01*
X258800D02*
X259200D01*
X226000Y108300D02*
X227700D01*
X231500D02*
X231900D01*
X232200D02*
X232600D01*
X232700D02*
X233100D01*
X233800D02*
X234800D01*
X235100D02*
X235600D01*
X236400D02*
X236900D01*
X237200D02*
X238000D01*
X238100D02*
X238600D01*
X239100D02*
X247100D01*
X247500D02*
X248500D01*
X248700D02*
X248900D01*
X249500D02*
X249900D01*
X250400D02*
X250700D01*
X251600D02*
X251900D01*
X253300D02*
X253900D01*
X254000D02*
X254300D01*
X254600D02*
X255600D01*
X257000D02*
X258600D01*
X258800D02*
X259200D01*
X226300Y108200D02*
X228300D01*
X231500D02*
X233100D01*
X233800D02*
X234800D01*
X235100D02*
X235600D01*
X236400D02*
X236900D01*
X237200D02*
X238000D01*
X238100D02*
X238500D01*
X238900D02*
X247200D01*
X247700D02*
X248600D01*
X248700D02*
X248900D01*
X249400D02*
X249800D01*
X250400D02*
X250700D01*
X251700D02*
X252000D01*
X253500D02*
X254300D01*
X254600D02*
X254900D01*
X255000D02*
X258600D01*
X258800D02*
X259200D01*
X226800Y108100D02*
X228800D01*
X231700D02*
X233100D01*
X233700D02*
X234800D01*
X235100D02*
X235700D01*
X236400D02*
X236900D01*
X237200D02*
X238000D01*
X238200D02*
X238400D01*
X238900D02*
X239500D01*
X239700D02*
X246600D01*
X246700D02*
X247300D01*
X247700D02*
X248800D01*
X249200D02*
X249800D01*
X250400D02*
X250700D01*
X251700D02*
X252000D01*
X253600D02*
X254300D01*
X254500D02*
X254800D01*
X255300D02*
X257300D01*
X258200D02*
X259200D01*
X227400Y108000D02*
X229300D01*
X231700D02*
X232300D01*
X232500D02*
X233200D01*
X233700D02*
X234800D01*
X235100D02*
X235700D01*
X236300D02*
X237000D01*
X237200D02*
X238000D01*
X238800D02*
X239400D01*
X239800D02*
X246400D01*
X246800D02*
X247400D01*
X247900D02*
X249700D01*
X250400D02*
X250700D01*
X251700D02*
X252000D01*
X253800D02*
X254300D01*
X254500D02*
X254800D01*
X255300D02*
X257200D01*
X258200D02*
X259200D01*
X227800Y107900D02*
X229800D01*
X231800D02*
X231900D01*
X232100D02*
X234300D01*
X234400D02*
X234900D01*
X235000D02*
X235800D01*
X236200D02*
X237000D01*
X237200D02*
X238000D01*
X238700D02*
X239300D01*
X239700D02*
X246500D01*
X246900D02*
X247500D01*
X247900D02*
X248300D01*
X248400D02*
X249600D01*
X250400D02*
X250700D01*
X251800D02*
X252100D01*
X254000D02*
X254800D01*
X258300D02*
X259100D01*
X228400Y107800D02*
X230300D01*
X232100D02*
X232700D01*
X232800D02*
X234200D01*
X234300D02*
X237900D01*
X238600D02*
X239200D01*
X239600D02*
X246600D01*
X247000D02*
X247600D01*
X248000D02*
X248400D01*
X248500D02*
X249500D01*
X250400D02*
X250700D01*
X251800D02*
X252100D01*
X253900D02*
X254700D01*
X258400D02*
X259100D01*
X228900Y107700D02*
X230800D01*
X232100D02*
X232300D01*
X232400D02*
X232700D01*
X232900D02*
X233900D01*
X234200D02*
X237900D01*
X238600D02*
X239100D01*
X239500D02*
X246700D01*
X247100D02*
X247700D01*
X248000D02*
X248400D01*
X248800D02*
X249200D01*
X250400D02*
X250700D01*
X251800D02*
X252100D01*
X253800D02*
X254600D01*
X258600D02*
X258900D01*
X229400Y107600D02*
X231400D01*
X232000D02*
X232300D01*
X232400D02*
X232700D01*
X232900D02*
X233900D01*
X234200D02*
X237900D01*
X238700D02*
X239000D01*
X239400D02*
X240000D01*
X240200D02*
X246000D01*
X246100D02*
X246800D01*
X247200D02*
X247600D01*
X248000D02*
X248500D01*
X248800D02*
X249200D01*
X250400D02*
X250700D01*
X251800D02*
X252200D01*
X253800D02*
X254200D01*
X229900Y107500D02*
X231800D01*
X232100D02*
X232700D01*
X232900D02*
X233300D01*
X233400D02*
X233900D01*
X234200D02*
X235200D01*
X235400D02*
X236600D01*
X236900D02*
X237800D01*
X239300D02*
X239900D01*
X240300D02*
X245900D01*
X246200D02*
X246800D01*
X247300D02*
X247500D01*
X248100D02*
X248600D01*
X248800D02*
X249200D01*
X250400D02*
X250700D01*
X251900D02*
X252200D01*
X253800D02*
X254100D01*
X230400Y107400D02*
X232600D01*
X233100D02*
X233200D01*
X233500D02*
X233800D01*
X234300D02*
X235200D01*
X235600D02*
X236500D01*
X236900D02*
X237800D01*
X239200D02*
X239800D01*
X240200D02*
X245900D01*
X246400D02*
X246900D01*
X248200D02*
X248700D01*
X248800D02*
X249200D01*
X250400D02*
X250700D01*
X251900D02*
X252200D01*
X253800D02*
X254100D01*
X230900Y107300D02*
X232900D01*
X234700D02*
X235300D01*
X235800D02*
X236300D01*
X236800D02*
X237800D01*
X239100D02*
X239700D01*
X240100D02*
X246000D01*
X246400D02*
X247000D01*
X248200D02*
X249200D01*
X250400D02*
X250800D01*
X251900D02*
X252200D01*
X253700D02*
X254100D01*
X231500Y107200D02*
X233400D01*
X234600D02*
X235400D01*
X235800D02*
X236200D01*
X236600D02*
X237700D01*
X239100D02*
X239600D01*
X240100D02*
X246100D01*
X246600D02*
X247100D01*
X248300D02*
X249100D01*
X250200D02*
X250900D01*
X251800D02*
X252400D01*
X253500D02*
X254200D01*
X231900Y107100D02*
X233900D01*
X234500D02*
X235700D01*
X235800D02*
X236200D01*
X236400D02*
X237600D01*
X239200D02*
X239500D01*
X239900D02*
X240600D01*
X240700D02*
X245500D01*
X245600D02*
X246200D01*
X246700D02*
X247100D01*
X248500D02*
X249100D01*
X250100D02*
X251000D01*
X251700D02*
X252500D01*
X253400D02*
X254300D01*
X232500Y107000D02*
X234400D01*
X234500D02*
X237600D01*
X239200D02*
X239400D01*
X239900D02*
X240500D01*
X240800D02*
X245400D01*
X245700D02*
X246300D01*
X246700D02*
X247000D01*
X250100D02*
X251100D01*
X251600D02*
X252600D01*
X253400D02*
X254400D01*
X233000Y106900D02*
X235000D01*
X235100D02*
X237500D01*
X239700D02*
X240300D01*
X240800D02*
X245400D01*
X245800D02*
X246400D01*
X250000D02*
X251100D01*
X251600D02*
X252600D01*
X253300D02*
X254400D01*
X233500Y106800D02*
X237400D01*
X239700D02*
X240200D01*
X240700D02*
X245500D01*
X245900D02*
X246500D01*
X250000D02*
X250500D01*
X250700D02*
X251100D01*
X251600D02*
X252000D01*
X252200D02*
X252600D01*
X253300D02*
X253800D01*
X254000D02*
X254400D01*
X234000Y106700D02*
X237300D01*
X239600D02*
X240100D01*
X240600D02*
X245600D01*
X246000D02*
X246600D01*
X250000D02*
X250400D01*
X250700D02*
X251100D01*
X251600D02*
X252000D01*
X252200D02*
X252700D01*
X253300D02*
X253700D01*
X254000D02*
X254400D01*
X234500Y106600D02*
X237100D01*
X239700D02*
X240100D01*
X240500D02*
X241100D01*
X241200D02*
X245700D01*
X246100D02*
X246600D01*
X250000D02*
X251100D01*
X251600D02*
X252000D01*
X252200D02*
X252700D01*
X253300D02*
X254400D01*
X235000Y106500D02*
X236900D01*
X239700D02*
X240000D01*
X240400D02*
X241000D01*
X241300D02*
X244900D01*
X245100D02*
X245800D01*
X246200D02*
X246500D01*
X250100D02*
X251100D01*
X251600D02*
X252600D01*
X253400D02*
X254400D01*
X235600Y106400D02*
X236700D01*
X240300D02*
X240800D01*
X241300D02*
X244800D01*
X245300D02*
X245900D01*
X250100D02*
X251000D01*
X251600D02*
X252600D01*
X253400D02*
X254300D01*
X240200Y106300D02*
X240800D01*
X241200D02*
X245000D01*
X245400D02*
X246000D01*
X250200D02*
X251000D01*
X251700D02*
X252500D01*
X253500D02*
X254200D01*
X240100Y106200D02*
X240700D01*
X241200D02*
X245000D01*
X245400D02*
X246100D01*
X250300D02*
X250800D01*
X251800D02*
X252400D01*
X253600D02*
X254100D01*
X240100Y106100D02*
X240600D01*
X241000D02*
X241600D01*
X241700D02*
X245100D01*
X245500D02*
X246100D01*
X239900Y106000D02*
X240500D01*
X240900D02*
X241600D01*
X241800D02*
X244400D01*
X244600D02*
X245200D01*
X245600D02*
X246000D01*
X239800Y105900D02*
X240300D01*
X240800D02*
X241400D01*
X241900D02*
X244300D01*
X244700D02*
X245300D01*
X245800D02*
X245900D01*
X239700Y105800D02*
X240100D01*
X240700D02*
X241400D01*
X241800D02*
X244400D01*
X244800D02*
X245400D01*
X239700Y105700D02*
X240000D01*
X240700D02*
X241200D01*
X241700D02*
X244500D01*
X244900D02*
X245500D01*
X239700Y105600D02*
X240000D01*
X240700D02*
X241100D01*
X241700D02*
X244600D01*
X245000D02*
X245600D01*
X239700Y105500D02*
X239900D01*
X240700D02*
X241100D01*
X241500D02*
X242100D01*
X242300D02*
X243900D01*
X244100D02*
X244700D01*
X245100D02*
X245500D01*
X239600Y105400D02*
X239900D01*
X241400D02*
X242000D01*
X242400D02*
X243800D01*
X244200D02*
X244800D01*
X245200D02*
X245400D01*
X239600Y105300D02*
X239900D01*
X241300D02*
X241900D01*
X242300D02*
X243800D01*
X244300D02*
X244900D01*
X239600Y105200D02*
X239900D01*
X241200D02*
X241800D01*
X242300D02*
X243900D01*
X244400D02*
X245000D01*
X239500Y105100D02*
X239800D01*
X240100D02*
X240400D01*
X241200D02*
X241700D01*
X242200D02*
X242700D01*
X243400D02*
X244000D01*
X244500D02*
X245000D01*
X239500Y105000D02*
X240600D01*
X241200D02*
X241600D01*
X242000D02*
X242700D01*
X243500D02*
X244100D01*
X244600D02*
X245000D01*
X239600Y104900D02*
X240700D01*
X241100D02*
X241500D01*
X241900D02*
X242500D01*
X243600D02*
X244200D01*
X244600D02*
X244900D01*
X239600Y104800D02*
X240100D01*
X240400D02*
X240700D01*
X241000D02*
X241400D01*
X241800D02*
X242400D01*
X243700D02*
X244300D01*
X240400Y104700D02*
X240700D01*
X241000D02*
X241400D01*
X241700D02*
X242300D01*
X243800D02*
X244400D01*
X240300Y104600D02*
X240600D01*
X240800D02*
X241300D01*
X241700D02*
X242200D01*
X243900D02*
X244500D01*
X239300Y104500D02*
X241200D01*
X241400D02*
X242100D01*
X244000D02*
X244500D01*
X239100Y104400D02*
X242000D01*
X244100D02*
X244400D01*
X238900Y104300D02*
X241700D01*
X238700Y104200D02*
X239400D01*
X240900D02*
X241200D01*
X238500Y104100D02*
X239200D01*
X238400Y104000D02*
X239000D01*
X238300Y103900D02*
X238700D01*
X238200Y103800D02*
X238600D01*
X238200Y103700D02*
X238500D01*
X238200Y103600D02*
X238500D01*
X239700D02*
X246700D01*
X238100Y103500D02*
X238400D01*
X239400D02*
X247000D01*
X238100Y103400D02*
X238400D01*
X239300D02*
X247100D01*
X238000Y103300D02*
X238300D01*
X239200D02*
X247100D01*
X238000Y103200D02*
X238300D01*
X239200D02*
X247200D01*
X238000Y103100D02*
X238300D01*
X239100D02*
X247200D01*
X238000Y103000D02*
X238200D01*
X239100D02*
X247200D01*
X238000Y102900D02*
X238200D01*
X239100D02*
X239600D01*
X246800D02*
X247200D01*
X238000Y102800D02*
X238300D01*
X239100D02*
X239600D01*
X239700D02*
X246700D01*
X246800D02*
X247200D01*
X238000Y102700D02*
X238300D01*
X239100D02*
X239600D01*
X239700D02*
X246700D01*
X246800D02*
X247200D01*
X238100Y102600D02*
X238400D01*
X239100D02*
X239600D01*
X239700D02*
X246700D01*
X246800D02*
X247200D01*
X238100Y102500D02*
X238500D01*
X239100D02*
X239600D01*
X239700D02*
X246700D01*
X246800D02*
X247200D01*
X238200Y102400D02*
X238600D01*
X239100D02*
X239600D01*
X239700D02*
X246700D01*
X246800D02*
X247200D01*
X238300Y102300D02*
X238700D01*
X239100D02*
X239600D01*
X239700D02*
X246700D01*
X246800D02*
X247200D01*
X238300Y102200D02*
X238800D01*
X239100D02*
X239600D01*
X239700D02*
X246700D01*
X246800D02*
X247200D01*
X238400Y102100D02*
X238900D01*
X239100D02*
X239600D01*
X239700D02*
X246700D01*
X246800D02*
X247200D01*
X238600Y102000D02*
X239000D01*
X239100D02*
X239600D01*
X239700D02*
X246700D01*
X246800D02*
X247200D01*
X238700Y101900D02*
X239600D01*
X239700D02*
X246700D01*
X246800D02*
X247200D01*
X238800Y101800D02*
X239600D01*
X239700D02*
X244200D01*
X244800D02*
X246700D01*
X246800D02*
X247200D01*
X238900Y101700D02*
X239600D01*
X239700D02*
X243600D01*
X244700D02*
X246700D01*
X246800D02*
X247200D01*
X239100Y101600D02*
X239600D01*
X239700D02*
X243000D01*
X243400D02*
X243600D01*
X244400D02*
X244500D01*
X244700D02*
X246700D01*
X246800D02*
X247200D01*
X239100Y101500D02*
X239600D01*
X239700D02*
X242200D01*
X242800D02*
X243600D01*
X244200D02*
X244500D01*
X244600D02*
X246700D01*
X246800D02*
X247200D01*
X239100Y101400D02*
X239600D01*
X239700D02*
X241700D01*
X242100D02*
X243400D01*
X244000D02*
X244400D01*
X244500D02*
X246700D01*
X246800D02*
X247200D01*
X239100Y101300D02*
X239600D01*
X239700D02*
X241300D01*
X241600D02*
X243000D01*
X243300D02*
X243600D01*
X243800D02*
X244300D01*
X244400D02*
X246700D01*
X246800D02*
X247200D01*
X239100Y101200D02*
X239600D01*
X239700D02*
X241500D01*
X241700D02*
X242700D01*
X242900D02*
X243400D01*
X243600D02*
X246700D01*
X246800D02*
X247200D01*
X239100Y101100D02*
X239600D01*
X239700D02*
X241700D01*
X241800D02*
X242400D01*
X242600D02*
X243300D01*
X243400D02*
X244200D01*
X244300D02*
X246700D01*
X246800D02*
X247200D01*
X239100Y101000D02*
X239600D01*
X239700D02*
X241900D01*
X242300D02*
X243000D01*
X243200D02*
X244100D01*
X244200D02*
X246700D01*
X246800D02*
X247200D01*
X239100Y100900D02*
X239600D01*
X239700D02*
X242000D01*
X242100D02*
X242900D01*
X243000D02*
X244000D01*
X244100D02*
X246700D01*
X246800D02*
X247200D01*
X239100Y100800D02*
X239600D01*
X239700D02*
X242000D01*
X242100D02*
X242700D01*
X242800D02*
X246700D01*
X246800D02*
X247200D01*
X239100Y100700D02*
X239600D01*
X239700D02*
X242500D01*
X242700D02*
X246700D01*
X246800D02*
X247200D01*
X239100Y100600D02*
X239600D01*
X239700D02*
X242400D01*
X242500D02*
X242600D01*
X242700D02*
X243800D01*
X243900D02*
X246700D01*
X246800D02*
X247200D01*
X239100Y100500D02*
X239600D01*
X239700D02*
X242100D01*
X242200D02*
X242400D01*
X242500D02*
X242700D01*
X242900D02*
X243700D01*
X243800D02*
X246700D01*
X246800D02*
X247200D01*
X239100Y100400D02*
X239600D01*
X239700D02*
X242100D01*
X242200D02*
X242300D01*
X242400D02*
X242700D01*
X243000D02*
X243600D01*
X243700D02*
X246700D01*
X246800D02*
X247200D01*
X239100Y100300D02*
X239600D01*
X239700D02*
X242100D01*
X242400D02*
X242600D01*
X242700D02*
X243100D01*
X243200D02*
X243500D01*
X243600D02*
X246700D01*
X246800D02*
X247200D01*
X239100Y100200D02*
X239600D01*
X239700D02*
X242100D01*
X242500D02*
X243200D01*
X243300D02*
X243500D01*
X243600D02*
X246700D01*
X246800D02*
X247200D01*
X239100Y100100D02*
X239600D01*
X239700D02*
X242200D01*
X242300D02*
X243400D01*
X243500D02*
X246700D01*
X246800D02*
X247200D01*
X239100Y100000D02*
X239600D01*
X239700D02*
X246700D01*
X246800D02*
X247200D01*
X239100Y99900D02*
X239600D01*
X239700D02*
X246700D01*
X246800D02*
X247200D01*
X239100Y99800D02*
X239600D01*
X239700D02*
X246700D01*
X246800D02*
X247400D01*
X239100Y99700D02*
X239600D01*
X239700D02*
X246700D01*
X246800D02*
X247500D01*
X239100Y99600D02*
X239600D01*
X239700D02*
X246700D01*
X246800D02*
X247500D01*
X239100Y99500D02*
X239600D01*
X239700D02*
X246700D01*
X246800D02*
X247500D01*
X247600D02*
X248200D01*
X239100Y99400D02*
X239600D01*
X239700D02*
X246700D01*
X246800D02*
X248400D01*
X239100Y99300D02*
X239600D01*
X239700D02*
X246700D01*
X246800D02*
X247800D01*
X247900D02*
X248600D01*
X239100Y99200D02*
X239600D01*
X239700D02*
X246700D01*
X246800D02*
X247700D01*
X248200D02*
X248600D01*
X239100Y99100D02*
X239600D01*
X239700D02*
X246700D01*
X246800D02*
X247700D01*
X248400D02*
X248700D01*
X239200Y99000D02*
X239600D01*
X246800D02*
X247200D01*
X247300D02*
X247600D01*
X248400D02*
X248700D01*
X239200Y98900D02*
X247200D01*
X248400D02*
X248700D01*
X239200Y98800D02*
X247100D01*
X248500D02*
X248700D01*
X239300Y98700D02*
X247100D01*
X248500D02*
X248800D01*
X239500Y98600D02*
X246900D01*
X248500D02*
X248800D01*
X239300Y98500D02*
X247100D01*
X248500D02*
X248800D01*
X239100Y98400D02*
X247200D01*
X248500D02*
X248800D01*
X239000Y98300D02*
X247300D01*
X248500D02*
X248800D01*
X239000Y98200D02*
X247400D01*
X248500D02*
X248800D01*
X238900Y98100D02*
X247400D01*
X248500D02*
X249500D01*
X238900Y98000D02*
X247500D01*
X248700D02*
X249500D01*
X238800Y97900D02*
X239500D01*
X239900D02*
X240300D01*
X240600D02*
X241000D01*
X241400D02*
X241800D01*
X242200D02*
X242600D01*
X243000D02*
X243400D01*
X243800D02*
X244100D01*
X244500D02*
X244900D01*
X245300D02*
X245700D01*
X246100D02*
X246500D01*
X246900D02*
X247500D01*
X249300D02*
X249600D01*
X238800Y97800D02*
X247600D01*
X248900D02*
X250000D01*
X238800Y97700D02*
X247600D01*
X248700D02*
X249200D01*
X249300D02*
X250100D01*
X238700Y97600D02*
X241000D01*
X241100D02*
X245000D01*
X245300D02*
X245800D01*
X246100D02*
X247600D01*
X248600D02*
X250200D01*
X238700Y97500D02*
X239300D01*
X239700D02*
X240100D01*
X240500D02*
X240900D01*
X241300D02*
X241700D01*
X242200D02*
X242600D01*
X243000D02*
X243400D01*
X243800D02*
X244200D01*
X244600D02*
X245000D01*
X245400D02*
X245800D01*
X246200D02*
X246600D01*
X247000D02*
X247700D01*
X248600D02*
X250300D01*
X238600Y97400D02*
X246600D01*
X247100D02*
X247700D01*
X248500D02*
X249200D01*
X249300D02*
X250300D01*
X238600Y97300D02*
X246700D01*
X247100D02*
X247800D01*
X248500D02*
X249200D01*
X249300D02*
X249500D01*
X249600D02*
X250300D01*
X238500Y97200D02*
X239200D01*
X239600D02*
X240000D01*
X240500D02*
X240900D01*
X241300D02*
X241700D01*
X242100D02*
X242500D01*
X243000D02*
X243400D01*
X243800D02*
X244200D01*
X244600D02*
X245000D01*
X245400D02*
X245900D01*
X247200D02*
X247800D01*
X248500D02*
X249300D01*
X249600D02*
X250300D01*
X238500Y97100D02*
X239100D01*
X239600D02*
X240000D01*
X240400D02*
X240800D01*
X241300D02*
X241700D01*
X242100D02*
X242500D01*
X243000D02*
X243400D01*
X243800D02*
X244200D01*
X244700D02*
X245100D01*
X245500D02*
X246000D01*
X247200D02*
X247900D01*
X248500D02*
X250300D01*
X238400Y97000D02*
X247900D01*
X248500D02*
X250300D01*
X238400Y96900D02*
X247900D01*
X248500D02*
X250300D01*
X238400Y96800D02*
X239000D01*
X239500D02*
X239900D01*
X240400D02*
X240800D01*
X241200D02*
X241600D01*
X244700D02*
X245100D01*
X245600D02*
X246000D01*
X247300D02*
X248000D01*
X248500D02*
X250300D01*
X238300Y96700D02*
X240200D01*
X240300D02*
X245200D01*
X245600D02*
X248100D01*
X248500D02*
X250300D01*
X238300Y96600D02*
X248100D01*
X248500D02*
X250300D01*
X238200Y96500D02*
X248100D01*
X248500D02*
X250300D01*
X238200Y96400D02*
X241900D01*
X244400D02*
X248200D01*
X248500D02*
X250300D01*
X238100Y96300D02*
X241900D01*
X244400D02*
X248200D01*
X248600D02*
X250200D01*
X238100Y96200D02*
X248300D01*
X248700D02*
X250200D01*
X238100Y96100D02*
X248300D01*
X248800D02*
X250100D01*
X238100Y96000D02*
X241900D01*
X243000D02*
X243400D01*
X244400D02*
X248300D01*
X248900D02*
X249900D01*
X238100Y95900D02*
X248300D01*
X238100Y95800D02*
X248300D01*
X238100Y95700D02*
X248300D01*
X238100Y95600D02*
X248300D01*
X238200Y95500D02*
X248100D01*
X226200Y92900D02*
X228400D01*
X230700D02*
X231800D01*
X233200D02*
X235500D01*
X237700D02*
X238800D01*
X240000D02*
X242700D01*
X242900D02*
X243500D01*
X243900D02*
X244500D01*
X246100D02*
X246900D01*
X249400D02*
X251100D01*
X251400D02*
X252000D01*
X254000D02*
X254600D01*
X256500D02*
X257100D01*
X257400D02*
X259700D01*
X226200Y92800D02*
X228800D01*
X230300D02*
X232200D01*
X233200D02*
X235900D01*
X237300D02*
X239200D01*
X240000D02*
X242700D01*
X242900D02*
X243500D01*
X243900D02*
X244500D01*
X245900D02*
X246900D01*
X249000D02*
X251100D01*
X251400D02*
X252000D01*
X254000D02*
X254600D01*
X256500D02*
X257100D01*
X257400D02*
X260000D01*
X226200Y92700D02*
X228900D01*
X230100D02*
X232400D01*
X233200D02*
X236000D01*
X237100D02*
X239400D01*
X240000D02*
X242700D01*
X242900D02*
X243500D01*
X243900D02*
X244500D01*
X245800D02*
X246800D01*
X248800D02*
X251100D01*
X251400D02*
X252000D01*
X254000D02*
X254600D01*
X256500D02*
X257100D01*
X257400D02*
X260200D01*
X226200Y92600D02*
X229000D01*
X229900D02*
X232500D01*
X233200D02*
X236100D01*
X237000D02*
X239500D01*
X240000D02*
X242700D01*
X242900D02*
X243500D01*
X243900D02*
X244500D01*
X245700D02*
X246700D01*
X248600D02*
X251100D01*
X251400D02*
X252000D01*
X254000D02*
X254600D01*
X256500D02*
X257100D01*
X257400D02*
X260300D01*
X226200Y92500D02*
X229100D01*
X229900D02*
X232600D01*
X233200D02*
X236200D01*
X236900D02*
X239600D01*
X240000D02*
X242700D01*
X242900D02*
X243500D01*
X243900D02*
X244500D01*
X245600D02*
X246500D01*
X248500D02*
X251100D01*
X251400D02*
X252000D01*
X254000D02*
X254600D01*
X256500D02*
X257100D01*
X257400D02*
X260300D01*
X226200Y92400D02*
X229200D01*
X229800D02*
X232700D01*
X233200D02*
X236200D01*
X236800D02*
X239700D01*
X240000D02*
X242700D01*
X242900D02*
X243500D01*
X243900D02*
X244500D01*
X245400D02*
X246400D01*
X248500D02*
X251100D01*
X251400D02*
X252000D01*
X254000D02*
X254600D01*
X256500D02*
X257100D01*
X257400D02*
X260400D01*
X226200Y92300D02*
X226800D01*
X228300D02*
X229200D01*
X229700D02*
X230800D01*
X231700D02*
X232800D01*
X233200D02*
X233800D01*
X235300D02*
X236200D01*
X236700D02*
X237800D01*
X238700D02*
X239800D01*
X241000D02*
X241600D01*
X242900D02*
X243500D01*
X243900D02*
X244500D01*
X245300D02*
X246300D01*
X248400D02*
X249500D01*
X251400D02*
X252000D01*
X254000D02*
X254600D01*
X256500D02*
X257100D01*
X257400D02*
X258000D01*
X259500D02*
X260400D01*
X226200Y92200D02*
X226800D01*
X228500D02*
X229200D01*
X229700D02*
X230500D01*
X232000D02*
X232800D01*
X233200D02*
X233800D01*
X235600D02*
X236200D01*
X236600D02*
X237500D01*
X239000D02*
X239800D01*
X241000D02*
X241600D01*
X242900D02*
X243500D01*
X243900D02*
X244500D01*
X245200D02*
X246100D01*
X248400D02*
X249200D01*
X251400D02*
X252000D01*
X254000D02*
X254600D01*
X256500D02*
X257100D01*
X257400D02*
X258000D01*
X259700D02*
X260400D01*
X226200Y92100D02*
X226800D01*
X228600D02*
X229200D01*
X229600D02*
X230400D01*
X232100D02*
X232900D01*
X233200D02*
X233800D01*
X235600D02*
X236200D01*
X236600D02*
X237400D01*
X239100D02*
X239900D01*
X241000D02*
X241600D01*
X242900D02*
X243500D01*
X243900D02*
X244500D01*
X245000D02*
X246000D01*
X248300D02*
X249100D01*
X251400D02*
X252000D01*
X254000D02*
X254600D01*
X256500D02*
X257100D01*
X257400D02*
X258000D01*
X259800D02*
X260400D01*
X226200Y92000D02*
X226800D01*
X228600D02*
X229300D01*
X229600D02*
X230300D01*
X232200D02*
X232900D01*
X233200D02*
X233800D01*
X235600D02*
X236200D01*
X236600D02*
X237300D01*
X239200D02*
X239900D01*
X241000D02*
X241600D01*
X242900D02*
X243500D01*
X243900D02*
X244500D01*
X244900D02*
X245800D01*
X248300D02*
X249000D01*
X251400D02*
X252000D01*
X254000D02*
X254600D01*
X256500D02*
X257100D01*
X257400D02*
X258000D01*
X259800D02*
X260400D01*
X226200Y91900D02*
X226800D01*
X228700D02*
X229300D01*
X229600D02*
X230200D01*
X232300D02*
X232900D01*
X233200D02*
X233800D01*
X235600D02*
X236200D01*
X236500D02*
X237200D01*
X239200D02*
X239900D01*
X241000D02*
X241600D01*
X242900D02*
X243500D01*
X243900D02*
X244500D01*
X244800D02*
X245700D01*
X248200D02*
X248900D01*
X251400D02*
X252000D01*
X254000D02*
X254600D01*
X256500D02*
X257100D01*
X257400D02*
X258000D01*
X259800D02*
X260400D01*
X226200Y91800D02*
X226800D01*
X228700D02*
X229300D01*
X229500D02*
X230200D01*
X232300D02*
X232900D01*
X233200D02*
X233800D01*
X235500D02*
X236200D01*
X236500D02*
X237200D01*
X239300D02*
X239900D01*
X241000D02*
X241600D01*
X242900D02*
X243500D01*
X243900D02*
X244500D01*
X244600D02*
X245600D01*
X248200D02*
X248900D01*
X251400D02*
X252000D01*
X254000D02*
X254600D01*
X256500D02*
X257100D01*
X257400D02*
X258000D01*
X259600D02*
X260300D01*
X226200Y91700D02*
X226800D01*
X228700D02*
X229300D01*
X229500D02*
X230100D01*
X232300D02*
X232900D01*
X233200D02*
X233800D01*
X234100D02*
X236100D01*
X236500D02*
X237100D01*
X239300D02*
X239900D01*
X241000D02*
X241600D01*
X242900D02*
X243500D01*
X243900D02*
X245500D01*
X248200D02*
X248800D01*
X251400D02*
X252000D01*
X254000D02*
X254600D01*
X256500D02*
X257100D01*
X257400D02*
X258000D01*
X258200D02*
X260300D01*
X226200Y91600D02*
X226800D01*
X228600D02*
X229200D01*
X229500D02*
X230100D01*
X232300D02*
X233000D01*
X233200D02*
X233800D01*
X234100D02*
X236000D01*
X236500D02*
X237100D01*
X239400D02*
X239900D01*
X241000D02*
X241600D01*
X242900D02*
X243500D01*
X243900D02*
X245300D01*
X248200D02*
X248800D01*
X251400D02*
X252000D01*
X254000D02*
X254600D01*
X256500D02*
X257100D01*
X257400D02*
X258000D01*
X258200D02*
X260200D01*
X226200Y91500D02*
X226800D01*
X228500D02*
X229200D01*
X229500D02*
X230100D01*
X232400D02*
X233000D01*
X233200D02*
X233800D01*
X234100D02*
X236100D01*
X236500D02*
X237100D01*
X239400D02*
X239900D01*
X241000D02*
X241600D01*
X242900D02*
X243500D01*
X243900D02*
X245200D01*
X248200D02*
X248800D01*
X251400D02*
X252000D01*
X254000D02*
X254600D01*
X256500D02*
X257100D01*
X257400D02*
X258000D01*
X258200D02*
X260200D01*
X226200Y91400D02*
X226800D01*
X228400D02*
X229200D01*
X229500D02*
X230100D01*
X232300D02*
X233000D01*
X233200D02*
X233800D01*
X234100D02*
X236100D01*
X236500D02*
X237100D01*
X239400D02*
X239900D01*
X241000D02*
X241600D01*
X242900D02*
X243500D01*
X243900D02*
X245300D01*
X248200D02*
X248800D01*
X251400D02*
X252000D01*
X254000D02*
X254600D01*
X256500D02*
X257100D01*
X257400D02*
X258000D01*
X258200D02*
X260300D01*
X226200Y91300D02*
X226800D01*
X227000D02*
X229200D01*
X229500D02*
X230100D01*
X232300D02*
X232900D01*
X233200D02*
X233800D01*
X234100D02*
X236200D01*
X236500D02*
X237100D01*
X239300D02*
X239900D01*
X241000D02*
X241600D01*
X242900D02*
X243500D01*
X243900D02*
X244500D01*
X244600D02*
X245500D01*
X248200D02*
X248800D01*
X251400D02*
X252000D01*
X254000D02*
X254600D01*
X256500D02*
X257100D01*
X257400D02*
X258000D01*
X258200D02*
X260400D01*
X226200Y91200D02*
X226800D01*
X227000D02*
X229100D01*
X229500D02*
X230100D01*
X232300D02*
X232900D01*
X233200D02*
X233800D01*
X235500D02*
X236200D01*
X236500D02*
X237100D01*
X239300D02*
X239900D01*
X241000D02*
X241600D01*
X242900D02*
X243500D01*
X243900D02*
X244500D01*
X244700D02*
X245600D01*
X248200D02*
X248800D01*
X251400D02*
X252000D01*
X254000D02*
X254600D01*
X256500D02*
X257100D01*
X257400D02*
X258000D01*
X259700D02*
X260400D01*
X226200Y91100D02*
X226800D01*
X227000D02*
X229000D01*
X229600D02*
X230200D01*
X232300D02*
X232900D01*
X233200D02*
X233800D01*
X235600D02*
X236300D01*
X236600D02*
X237200D01*
X239300D02*
X239900D01*
X241000D02*
X241600D01*
X242900D02*
X243500D01*
X243900D02*
X244500D01*
X244800D02*
X245700D01*
X248200D02*
X248900D01*
X251400D02*
X252000D01*
X254000D02*
X254700D01*
X256500D02*
X257100D01*
X257400D02*
X258000D01*
X259800D02*
X260400D01*
X226200Y91000D02*
X226800D01*
X227000D02*
X228900D01*
X229600D02*
X230300D01*
X232200D02*
X232900D01*
X233200D02*
X233800D01*
X235700D02*
X236300D01*
X236600D02*
X237300D01*
X239200D02*
X239900D01*
X241000D02*
X241600D01*
X242900D02*
X243500D01*
X243900D02*
X244500D01*
X244900D02*
X245900D01*
X248300D02*
X248900D01*
X251400D02*
X252000D01*
X254000D02*
X254700D01*
X256400D02*
X257100D01*
X257400D02*
X258000D01*
X259800D02*
X260500D01*
X226200Y90900D02*
X226800D01*
X227000D02*
X228800D01*
X229600D02*
X230300D01*
X232100D02*
X232900D01*
X233200D02*
X233800D01*
X235700D02*
X236300D01*
X236600D02*
X237300D01*
X239100D02*
X239900D01*
X241000D02*
X241600D01*
X242900D02*
X243500D01*
X243900D02*
X244500D01*
X245100D02*
X246000D01*
X248300D02*
X249000D01*
X251400D02*
X252000D01*
X254100D02*
X254700D01*
X256400D02*
X257100D01*
X257400D02*
X258000D01*
X259800D02*
X260500D01*
X226200Y90800D02*
X226800D01*
X228100D02*
X228900D01*
X229700D02*
X230400D01*
X232000D02*
X232800D01*
X233200D02*
X233800D01*
X235600D02*
X236300D01*
X236700D02*
X237500D01*
X239000D02*
X239800D01*
X241000D02*
X241600D01*
X242900D02*
X243500D01*
X243900D02*
X244500D01*
X245200D02*
X246100D01*
X248400D02*
X249200D01*
X251400D02*
X252000D01*
X254100D02*
X254800D01*
X256300D02*
X257000D01*
X257400D02*
X258000D01*
X259800D02*
X260400D01*
X226200Y90700D02*
X226800D01*
X228100D02*
X229000D01*
X229700D02*
X230700D01*
X231800D02*
X232700D01*
X233200D02*
X233800D01*
X235500D02*
X236300D01*
X236700D02*
X237600D01*
X238800D02*
X239800D01*
X241000D02*
X241600D01*
X242900D02*
X243500D01*
X243900D02*
X244500D01*
X245300D02*
X246300D01*
X248400D02*
X249300D01*
X251400D02*
X252000D01*
X254100D02*
X255000D01*
X256200D02*
X257000D01*
X257400D02*
X258000D01*
X259600D02*
X260400D01*
X226200Y90600D02*
X226800D01*
X228300D02*
X229100D01*
X229800D02*
X232700D01*
X233200D02*
X236200D01*
X236800D02*
X239700D01*
X241000D02*
X241600D01*
X242900D02*
X243500D01*
X243900D02*
X244500D01*
X245500D02*
X246400D01*
X248500D02*
X251100D01*
X251400D02*
X253800D01*
X254200D02*
X256900D01*
X257400D02*
X260400D01*
X226200Y90500D02*
X226800D01*
X228300D02*
X229200D01*
X229900D02*
X232600D01*
X233200D02*
X236200D01*
X236800D02*
X239600D01*
X241000D02*
X241600D01*
X242900D02*
X243500D01*
X243900D02*
X244500D01*
X245600D02*
X246600D01*
X248500D02*
X251100D01*
X251400D02*
X253800D01*
X254200D02*
X256900D01*
X257400D02*
X260400D01*
X226200Y90400D02*
X226800D01*
X228400D02*
X229300D01*
X230000D02*
X232500D01*
X233200D02*
X236100D01*
X236900D02*
X239500D01*
X241000D02*
X241600D01*
X242900D02*
X243500D01*
X243900D02*
X244500D01*
X245700D02*
X246600D01*
X248700D02*
X251100D01*
X251400D02*
X253800D01*
X254300D02*
X256800D01*
X257400D02*
X260300D01*
X226200Y90300D02*
X226800D01*
X228500D02*
X229400D01*
X230100D02*
X232400D01*
X233200D02*
X236000D01*
X237100D02*
X239400D01*
X241000D02*
X241600D01*
X242900D02*
X243500D01*
X243900D02*
X244500D01*
X245800D02*
X246800D01*
X248800D02*
X251100D01*
X251400D02*
X253800D01*
X254400D02*
X256700D01*
X257400D02*
X260200D01*
X226200Y90200D02*
X226800D01*
X228600D02*
X229500D01*
X230200D02*
X232200D01*
X233200D02*
X235900D01*
X237200D02*
X239200D01*
X241000D02*
X241600D01*
X242900D02*
X243500D01*
X243900D02*
X244500D01*
X246000D02*
X246900D01*
X248900D02*
X251100D01*
X251400D02*
X253800D01*
X254600D02*
X256500D01*
X257400D02*
X260100D01*
X226200Y90100D02*
X226800D01*
X228700D02*
X229500D01*
X230600D02*
X231900D01*
X233200D02*
X235700D01*
X237500D02*
X238900D01*
X241000D02*
X241600D01*
X242900D02*
X243500D01*
X243900D02*
X244500D01*
X246100D02*
X247000D01*
X249200D02*
X251100D01*
X251400D02*
X253800D01*
X254800D02*
X256300D01*
X257400D02*
X259800D01*
M02*
