M48
;Layer_Color=9474304
;FILE_FORMAT=2:5
INCH,TZ
;TYPE=PLATED
T1F00S00C0.01968
T2F00S00C0.02800
T3F00S00C0.02953
T4F00S00C0.03000
T5F00S00C0.03543
T6F00S00C0.04000
T7F00S00C0.05512
;TYPE=NON_PLATED
T8F00S00C0.12598
%
T01
X33500Y8500
X30000Y17500
X75000Y25000
X97500Y20000
Y42500
Y55000
X107000
X120000Y57500
X122500Y45000
X112500Y12500
X84000Y53000
X220000Y85000
Y105000
X230000Y135000
Y155000
Y175000
X197500Y205000
X90000Y185000
Y165000
Y145000
X105000Y102500
Y82500
X125000Y215000
T02
X142500Y5000
X135000Y12500
X177500
X185000Y5000
X220000Y15500
X250000Y15000
X282500
X312500Y27500
X145000Y80000
X140000Y162500
Y172500
X120000Y187500
T03
X267500Y80000
Y105000
X250500Y128000
X305000Y130000
Y177500
X75000Y122500
X62500Y82500
X55000Y105000
X37500Y70000
X15000Y122500
Y175000
T04
X130000Y42500
Y52500
X190000
Y42500
Y62500
Y72500
Y82500
Y92500
Y102500
Y112500
Y122500
Y132500
Y142500
Y152500
Y162500
Y172500
X160000Y162500
Y152500
Y142500
Y132500
Y122500
X150000
Y132500
Y142500
Y152500
Y162500
X130000
Y172500
Y152500
Y142500
Y132500
Y122500
Y112500
Y102500
Y92500
Y82500
Y72500
Y62500
X150000Y102500
X160000
Y112500
X150000
T05
X37500Y35000
Y44842
Y55000
X63287Y37500
X73130
X82972
X92815
X102657
X112500
X207500Y57500
X217500
X227500
X240000
X250000
X260000
X282500Y55000
Y45158
Y35000
Y77972
Y87815
Y97658
Y107500
Y130630
Y140472
Y150315
Y160158
Y170000
Y192500
Y202658
Y212500
X37500
Y202343
Y192500
Y169370
Y159528
Y149685
Y139842
Y130000
Y107028
Y97185
Y87343
Y77500
T06
X220000Y204114
X100000Y202500
Y215886
X220000Y217500
T07
X144429Y190000
X160965
X177500
Y211653
X160965
X144429
T08
X11811Y11811
X307087
X62992Y216535
X255906
M30
