G04 Layer_Color=65280*
%FSLAX25Y25*%
%MOIN*%
G70*
G01*
G75*
%ADD28C,0.01000*%
D28*
X0Y11811D02*
X40Y10836D01*
X161Y9867D01*
X361Y8912D01*
X640Y7976D01*
X995Y7067D01*
X1424Y6190D01*
X1923Y5351D01*
X2490Y4557D01*
X3121Y3812D01*
X3812Y3121D01*
X4557Y2490D01*
X5351Y1923D01*
X6190Y1424D01*
X7067Y995D01*
X7976Y640D01*
X8912Y361D01*
X9867Y161D01*
X10836Y40D01*
X11811Y0D01*
X307087D02*
X308062Y40D01*
X309031Y161D01*
X309986Y361D01*
X310922Y640D01*
X311831Y995D01*
X312708Y1424D01*
X313547Y1923D01*
X314341Y2490D01*
X315086Y3121D01*
X315776Y3812D01*
X316407Y4557D01*
X316974Y5351D01*
X317474Y6190D01*
X317903Y7067D01*
X318258Y7976D01*
X318536Y8912D01*
X318737Y9867D01*
X318857Y10836D01*
X318898Y11811D01*
Y216535D02*
X318857Y217511D01*
X318737Y218479D01*
X318536Y219435D01*
X318258Y220371D01*
X317903Y221280D01*
X317474Y222157D01*
X316974Y222995D01*
X316407Y223790D01*
X315776Y224535D01*
X315086Y225225D01*
X314341Y225856D01*
X313547Y226423D01*
X312708Y226923D01*
X311831Y227352D01*
X310922Y227707D01*
X309986Y227985D01*
X309031Y228185D01*
X308062Y228306D01*
X307087Y228346D01*
X11811D02*
X10836Y228306D01*
X9867Y228185D01*
X8912Y227985D01*
X7976Y227707D01*
X7067Y227352D01*
X6190Y226923D01*
X5351Y226423D01*
X4557Y225856D01*
X3812Y225225D01*
X3121Y224535D01*
X2490Y223790D01*
X1923Y222995D01*
X1424Y222157D01*
X995Y221280D01*
X640Y220371D01*
X361Y219435D01*
X161Y218479D01*
X40Y217511D01*
X0Y216535D01*
X11811Y228346D02*
X307087D01*
X318898Y11811D02*
Y216535D01*
X11811Y0D02*
X307087D01*
X0Y11811D02*
Y216535D01*
M02*
