G04 Layer_Color=16711935*
%FSLAX25Y25*%
%MOIN*%
G70*
G01*
G75*
%ADD34R,0.06706X0.06706*%
%ADD35R,0.06706X0.06706*%
%ADD37O,0.12800X0.07800*%
%ADD38C,0.06706*%
%ADD39C,0.21745*%
%ADD40C,0.06800*%
%ADD41O,0.08674X0.12611*%
%ADD42C,0.04737*%
%ADD43C,0.05800*%
%ADD44R,0.06509X0.03162*%
%ADD45R,0.03162X0.06509*%
%ADD46R,0.09855X0.09855*%
%ADD47R,0.09068X0.06706*%
D34*
X119390Y125000D02*
D03*
X105610D02*
D03*
X119390Y135000D02*
D03*
X105610D02*
D03*
X29390Y35000D02*
D03*
X15610D02*
D03*
X29390Y45000D02*
D03*
X15610D02*
D03*
X290610Y52500D02*
D03*
X304390D02*
D03*
X290610Y42500D02*
D03*
X304390D02*
D03*
X219390Y47500D02*
D03*
X205610D02*
D03*
X251890D02*
D03*
X238110D02*
D03*
X205610Y37500D02*
D03*
X219390D02*
D03*
X238110D02*
D03*
X251890D02*
D03*
X15610Y202500D02*
D03*
X29390D02*
D03*
X306890D02*
D03*
X293110D02*
D03*
X304390Y62500D02*
D03*
X290610D02*
D03*
X15610Y140000D02*
D03*
X29390D02*
D03*
X15610Y150000D02*
D03*
X29390D02*
D03*
X306890Y160000D02*
D03*
X293110D02*
D03*
X306890Y150000D02*
D03*
X293110D02*
D03*
X63110Y25000D02*
D03*
X76890D02*
D03*
D35*
X121000Y147110D02*
D03*
Y160890D02*
D03*
X125000Y203110D02*
D03*
Y216890D02*
D03*
X197500D02*
D03*
Y203110D02*
D03*
X37500Y10610D02*
D03*
Y24390D02*
D03*
X47500Y10610D02*
D03*
Y24390D02*
D03*
X65000Y84390D02*
D03*
Y70610D02*
D03*
Y106890D02*
D03*
Y93110D02*
D03*
X255000Y103110D02*
D03*
Y116890D02*
D03*
X272500Y61890D02*
D03*
Y48110D02*
D03*
X255000Y80610D02*
D03*
Y94390D02*
D03*
X90000Y5610D02*
D03*
Y19390D02*
D03*
D37*
X100000Y202500D02*
D03*
Y215886D02*
D03*
X220000Y217500D02*
D03*
Y204114D02*
D03*
D38*
X282500Y45158D02*
D03*
Y55000D02*
D03*
Y35000D02*
D03*
X73130Y37500D02*
D03*
X82972D02*
D03*
X92815D02*
D03*
X112500D02*
D03*
X102657D02*
D03*
X63287D02*
D03*
X37500Y87343D02*
D03*
Y77500D02*
D03*
Y97185D02*
D03*
Y107028D02*
D03*
X282500Y97658D02*
D03*
Y107500D02*
D03*
Y87815D02*
D03*
Y77972D02*
D03*
X37500Y202343D02*
D03*
Y192500D02*
D03*
Y212500D02*
D03*
Y139842D02*
D03*
Y130000D02*
D03*
Y149685D02*
D03*
Y159528D02*
D03*
Y169370D02*
D03*
X282500Y202658D02*
D03*
Y212500D02*
D03*
Y192500D02*
D03*
Y160158D02*
D03*
Y170000D02*
D03*
Y150315D02*
D03*
Y140472D02*
D03*
Y130630D02*
D03*
X37500Y44842D02*
D03*
Y35000D02*
D03*
Y55000D02*
D03*
X62500Y82500D02*
D03*
X37500Y70000D02*
D03*
X267500Y105000D02*
D03*
X75000Y122500D02*
D03*
X250500Y128000D02*
D03*
X15000Y122500D02*
D03*
Y175000D02*
D03*
X305000Y130000D02*
D03*
Y177500D02*
D03*
X267500Y80000D02*
D03*
X55000Y105000D02*
D03*
D39*
X11811Y11811D02*
D03*
X307087D02*
D03*
X62992Y216535D02*
D03*
X255906D02*
D03*
D40*
X207500Y57500D02*
D03*
X217500D02*
D03*
X227500D02*
D03*
X240000D02*
D03*
X250000D02*
D03*
X260000D02*
D03*
X190000Y52500D02*
D03*
Y62500D02*
D03*
Y72500D02*
D03*
Y82500D02*
D03*
Y92500D02*
D03*
Y102500D02*
D03*
Y112500D02*
D03*
Y122500D02*
D03*
Y132500D02*
D03*
Y142500D02*
D03*
Y152500D02*
D03*
Y162500D02*
D03*
Y172500D02*
D03*
X130000D02*
D03*
Y162500D02*
D03*
Y152500D02*
D03*
Y142500D02*
D03*
Y132500D02*
D03*
Y122500D02*
D03*
Y112500D02*
D03*
Y102500D02*
D03*
Y92500D02*
D03*
Y82500D02*
D03*
Y72500D02*
D03*
X160000Y122500D02*
D03*
Y132500D02*
D03*
Y142500D02*
D03*
Y152500D02*
D03*
Y162500D02*
D03*
X150000D02*
D03*
Y152500D02*
D03*
Y142500D02*
D03*
Y132500D02*
D03*
Y122500D02*
D03*
X160000Y102500D02*
D03*
X150000D02*
D03*
Y112500D02*
D03*
X160000D02*
D03*
X130000Y62500D02*
D03*
Y52500D02*
D03*
Y42500D02*
D03*
X190000D02*
D03*
D41*
X144429Y213622D02*
D03*
X160965D02*
D03*
X177500D02*
D03*
X144429Y188031D02*
D03*
X160965D02*
D03*
X177500D02*
D03*
D42*
X220000Y105000D02*
D03*
Y85000D02*
D03*
X97500Y20000D02*
D03*
Y55000D02*
D03*
Y42500D02*
D03*
X122500Y45000D02*
D03*
X120000Y57500D02*
D03*
X197500Y205000D02*
D03*
X125000Y215000D02*
D03*
X112500Y12500D02*
D03*
X75000Y25000D02*
D03*
X30000Y17500D02*
D03*
X105000Y82500D02*
D03*
Y102500D02*
D03*
X90000Y145000D02*
D03*
Y165000D02*
D03*
Y185000D02*
D03*
X230000Y175000D02*
D03*
Y155000D02*
D03*
Y135000D02*
D03*
X107000Y55000D02*
D03*
X84000Y53000D02*
D03*
X33500Y8500D02*
D03*
D43*
X250000Y15000D02*
D03*
X140000Y162500D02*
D03*
Y172500D02*
D03*
X120000Y187500D02*
D03*
X177500Y12500D02*
D03*
X220000Y15500D02*
D03*
X145000Y80000D02*
D03*
X312500Y27500D02*
D03*
X282500Y15000D02*
D03*
X185000Y5000D02*
D03*
X142500D02*
D03*
X135000Y12500D02*
D03*
D44*
X65374D02*
D03*
X74626Y8760D02*
D03*
Y16240D02*
D03*
X87874Y52500D02*
D03*
X97126Y48760D02*
D03*
Y56240D02*
D03*
X110374Y55000D02*
D03*
X119626Y51260D02*
D03*
Y58740D02*
D03*
X45374Y92500D02*
D03*
X54626Y88760D02*
D03*
Y96240D02*
D03*
X272126Y115000D02*
D03*
X262874Y118740D02*
D03*
Y111260D02*
D03*
X272126Y95000D02*
D03*
X262874Y98740D02*
D03*
Y91260D02*
D03*
D45*
X72500Y42874D02*
D03*
X76240Y52126D02*
D03*
X68760D02*
D03*
X52500Y82126D02*
D03*
X48760Y72874D02*
D03*
X56240D02*
D03*
D46*
X26358Y77500D02*
D03*
X8642D02*
D03*
X26358Y92500D02*
D03*
X8642D02*
D03*
X293642Y110000D02*
D03*
X311358D02*
D03*
X293642Y95000D02*
D03*
X311358D02*
D03*
D47*
X49587Y185000D02*
D03*
Y175000D02*
D03*
X85413D02*
D03*
Y185000D02*
D03*
X270413Y175000D02*
D03*
Y185000D02*
D03*
X234587D02*
D03*
Y175000D02*
D03*
X74587Y82500D02*
D03*
Y72500D02*
D03*
X110413D02*
D03*
Y82500D02*
D03*
X74587Y102500D02*
D03*
Y92500D02*
D03*
X110413D02*
D03*
Y102500D02*
D03*
X245413Y105000D02*
D03*
Y115000D02*
D03*
X209587D02*
D03*
Y105000D02*
D03*
X245413Y85000D02*
D03*
Y95000D02*
D03*
X209587D02*
D03*
Y85000D02*
D03*
X49587Y145000D02*
D03*
Y135000D02*
D03*
X85413D02*
D03*
Y145000D02*
D03*
X49587Y165000D02*
D03*
Y155000D02*
D03*
X85413D02*
D03*
Y165000D02*
D03*
X270413Y155000D02*
D03*
Y165000D02*
D03*
X234587D02*
D03*
Y155000D02*
D03*
X270413Y135000D02*
D03*
Y145000D02*
D03*
X234587D02*
D03*
Y135000D02*
D03*
M02*
