G04 Layer_Physical_Order=1*
G04 Layer_Color=255*
%FSLAX25Y25*%
%MOIN*%
G70*
G01*
G75*
%ADD10R,0.05906X0.05906*%
%ADD11R,0.02559X0.07677*%
%ADD12R,0.05906X0.05906*%
%ADD13R,0.06693X0.07874*%
%ADD14R,0.02362X0.05709*%
%ADD15R,0.05512X0.08268*%
%ADD16C,0.00984*%
%ADD17C,0.07874*%
%ADD18C,0.15748*%
%ADD19C,0.01969*%
%ADD20C,0.03937*%
%ADD21C,0.20945*%
%ADD22C,0.06000*%
%ADD23O,0.23622X0.19685*%
%ADD24C,0.13386*%
%ADD25O,0.08000X0.06000*%
%ADD26C,0.05906*%
%ADD27R,0.11811X0.15748*%
%ADD28O,0.11811X0.15748*%
%ADD29C,0.11811*%
%ADD30O,0.09843X0.07874*%
%ADD31C,0.07874*%
%ADD32O,0.07000X0.12000*%
%ADD33C,0.09843*%
%ADD34C,0.05000*%
%ADD35C,0.03937*%
G36*
X256298Y381890D02*
X256927Y381165D01*
X258039Y377953D01*
X257595Y377432D01*
X256569Y375759D01*
X255818Y373945D01*
X255360Y372036D01*
X255205Y370079D01*
X255360Y368122D01*
X255818Y366213D01*
X256569Y364399D01*
X257595Y362725D01*
X258870Y361232D01*
X260363Y359957D01*
X262037Y358931D01*
X263850Y358180D01*
X265759Y357722D01*
X267717Y357568D01*
X269674Y357722D01*
X271583Y358180D01*
X273396Y358931D01*
X275070Y359957D01*
X276563Y361232D01*
X276752Y361453D01*
X280689Y360001D01*
Y197524D01*
X277532Y195642D01*
X276752Y195642D01*
X271219D01*
X251517Y215344D01*
Y236671D01*
X252337Y237300D01*
X252689Y237491D01*
X256660Y237801D01*
X257066Y237715D01*
X257066Y237715D01*
X257248Y237640D01*
X257988Y237334D01*
X258583Y237255D01*
Y241024D01*
Y244792D01*
X257988Y244713D01*
X257248Y244407D01*
X257066Y244332D01*
X257066Y244332D01*
X256660Y244246D01*
X252689Y244556D01*
X252337Y244747D01*
X251498Y245391D01*
X250282Y245895D01*
X248976Y246067D01*
X247695Y245898D01*
X236521Y257072D01*
X235697Y257623D01*
X234724Y257817D01*
X234724Y257817D01*
X217321D01*
X216578Y258224D01*
X214019Y261024D01*
X213848Y262329D01*
X213344Y263545D01*
X212542Y264896D01*
Y267151D01*
X213344Y268502D01*
X213848Y269718D01*
X214019Y271024D01*
X213848Y272329D01*
X213344Y273545D01*
X212542Y274590D01*
X211498Y275391D01*
X210282Y275895D01*
X208976Y276067D01*
X207671Y275895D01*
X206455Y275391D01*
X205615Y274747D01*
X205264Y274556D01*
X201293Y274246D01*
X200887Y274332D01*
X200886Y274332D01*
X200705Y274407D01*
X199965Y274713D01*
X199370Y274792D01*
Y271024D01*
X198583D01*
Y274792D01*
X197988Y274713D01*
X197248Y274407D01*
X197066Y274332D01*
X197066Y274332D01*
X196660Y274246D01*
X192688Y274556D01*
X192337Y274747D01*
X191498Y275391D01*
X190282Y275895D01*
X188976Y276067D01*
X187671Y275895D01*
X186455Y275391D01*
X185104Y274590D01*
X182849D01*
X181498Y275391D01*
X180282Y275895D01*
X178976Y276067D01*
X177671Y275895D01*
X176455Y275391D01*
X175104Y274590D01*
X172849D01*
X171498Y275391D01*
X170282Y275895D01*
X168976Y276067D01*
X167671Y275895D01*
X166455Y275391D01*
X165104Y274590D01*
X162849D01*
X161751Y275241D01*
X161429Y275720D01*
X160741Y278985D01*
X160856Y279763D01*
X165584Y284491D01*
X174984D01*
X174984Y284490D01*
X175957Y284684D01*
X176781Y285235D01*
X187695Y296149D01*
X188976Y295981D01*
X190282Y296152D01*
X191498Y296656D01*
X192849Y297458D01*
X195104D01*
X196455Y296656D01*
X197671Y296152D01*
X198976Y295981D01*
X200282Y296152D01*
X201498Y296656D01*
X202849Y297458D01*
X205104D01*
X206455Y296656D01*
X207671Y296152D01*
X208976Y295981D01*
X210282Y296152D01*
X211498Y296656D01*
X212849Y297458D01*
X215104D01*
X216455Y296656D01*
X217671Y296152D01*
X218976Y295981D01*
X220282Y296152D01*
X221498Y296656D01*
X222849Y297458D01*
X225104D01*
X226455Y296656D01*
X227671Y296152D01*
X228976Y295981D01*
X230282Y296152D01*
X231498Y296656D01*
X232849Y297458D01*
X235104D01*
X236455Y296656D01*
X237671Y296152D01*
X238976Y295981D01*
X240282Y296152D01*
X241498Y296656D01*
X242849Y297458D01*
X245104D01*
X246455Y296656D01*
X247671Y296152D01*
X248976Y295981D01*
X250282Y296152D01*
X251498Y296656D01*
X252849Y297458D01*
X255104D01*
X256455Y296656D01*
X257671Y296152D01*
X258976Y295981D01*
X260282Y296152D01*
X261498Y296656D01*
X262337Y297300D01*
X262688Y297491D01*
X266660Y297801D01*
X267066Y297715D01*
X267066Y297715D01*
X267248Y297640D01*
X267988Y297334D01*
X268583Y297255D01*
Y301024D01*
Y304792D01*
X267988Y304714D01*
X267248Y304407D01*
X267066Y304332D01*
X267066Y304332D01*
X266660Y304246D01*
X262688Y304556D01*
X262337Y304747D01*
X261498Y305391D01*
X260282Y305895D01*
X258976Y306067D01*
X257671Y305895D01*
X256455Y305391D01*
X255104Y304590D01*
X252849D01*
X251498Y305391D01*
X250282Y305895D01*
X248976Y306067D01*
X247671Y305895D01*
X246455Y305391D01*
X245104Y304590D01*
X242849D01*
X241498Y305391D01*
X240282Y305895D01*
X238976Y306067D01*
X237695Y305898D01*
X232742Y310852D01*
X231917Y311403D01*
X230945Y311596D01*
X230945Y311596D01*
X134843D01*
X134843Y311596D01*
X133870Y311403D01*
X133046Y310852D01*
X115798Y293604D01*
X71911D01*
X71398Y294272D01*
X70458Y294994D01*
X69364Y295447D01*
X68189Y295602D01*
X65498Y298060D01*
X65021Y298883D01*
Y303631D01*
X66448Y305058D01*
X90551D01*
X90551Y305058D01*
X91715Y305172D01*
X92834Y305512D01*
X93866Y306063D01*
X94770Y306805D01*
X104907Y316943D01*
X105649Y317847D01*
X106201Y318878D01*
X106540Y319998D01*
X106655Y321161D01*
X106655Y321162D01*
Y337673D01*
X107487Y338700D01*
X110531Y340693D01*
X111824Y340864D01*
X113029Y341363D01*
X114064Y342157D01*
X114858Y343191D01*
X115357Y344396D01*
X115527Y345689D01*
X115357Y346982D01*
X114858Y348187D01*
X114064Y349221D01*
X113029Y350015D01*
X111824Y350514D01*
X110531Y350684D01*
X109239Y350514D01*
X108034Y350015D01*
X106605Y349409D01*
X104003Y350649D01*
X102972Y351201D01*
X101853Y351540D01*
X100689Y351655D01*
X99525Y351540D01*
X98406Y351201D01*
X97375Y350649D01*
X96471Y349907D01*
X95729Y349003D01*
X95177Y347972D01*
X94838Y346853D01*
X94723Y345689D01*
Y323633D01*
X88080Y316989D01*
X63977D01*
X63976Y316989D01*
X62813Y316875D01*
X61693Y316535D01*
X60662Y315984D01*
X60067Y315496D01*
X41399Y334164D01*
Y338440D01*
X42231Y339468D01*
X45276Y341461D01*
X46569Y341631D01*
X47773Y342130D01*
X48808Y342924D01*
X49602Y343959D01*
X50101Y345164D01*
X50271Y346457D01*
X50101Y347750D01*
X49602Y348954D01*
X48808Y349989D01*
X47773Y350783D01*
X46569Y351282D01*
X45276Y351452D01*
X43983Y351282D01*
X42778Y350783D01*
X41349Y350177D01*
X38747Y351417D01*
X37716Y351968D01*
X36597Y352308D01*
X35433Y352422D01*
X34269Y352308D01*
X33150Y351968D01*
X32119Y351417D01*
X31215Y350675D01*
X30473Y349771D01*
X29921Y348740D01*
X29582Y347621D01*
X29467Y346457D01*
Y331693D01*
X29467Y331693D01*
X29582Y330529D01*
X29921Y329410D01*
X30473Y328379D01*
X31215Y327474D01*
X41487Y317202D01*
X39981Y313565D01*
X3937D01*
X3937Y313565D01*
X2965Y313371D01*
X2140Y312820D01*
X1969Y312649D01*
X1797Y312820D01*
X972Y313371D01*
X0Y313565D01*
X-0Y313565D01*
X-3937D01*
X-4909Y313371D01*
X-5734Y312820D01*
X-5734Y312820D01*
X-7874Y310680D01*
X-11811Y312311D01*
Y358660D01*
X-11086Y359289D01*
X-7874Y360401D01*
X-7354Y359957D01*
X-5680Y358931D01*
X-3866Y358180D01*
X-1957Y357722D01*
X0Y357568D01*
X1957Y357722D01*
X3866Y358180D01*
X5680Y358931D01*
X7354Y359957D01*
X8847Y361232D01*
X10122Y362725D01*
X11147Y364399D01*
X11899Y366213D01*
X12357Y368122D01*
X12511Y370079D01*
X12357Y372036D01*
X11899Y373945D01*
X11147Y375759D01*
X10122Y377432D01*
X9677Y377953D01*
X10790Y381165D01*
X11418Y381890D01*
X256298Y381890D01*
D02*
G37*
G36*
X132650Y300073D02*
X134270Y299321D01*
X134609Y298502D01*
X135410Y297458D01*
X136455Y296656D01*
X137671Y296152D01*
X138976Y295981D01*
X140282Y296152D01*
X141498Y296656D01*
X142849Y297458D01*
X145104D01*
X146455Y296656D01*
X147671Y296152D01*
X148976Y295981D01*
X149371Y296033D01*
X151105Y293525D01*
X151422Y292515D01*
X147136Y288230D01*
X123179D01*
X121548Y292167D01*
X130081Y300700D01*
X132650Y300073D01*
D02*
G37*
G36*
X45253Y294923D02*
X46506Y292723D01*
X46305Y292238D01*
X46150Y291063D01*
X46305Y289888D01*
X46396Y289667D01*
X45236Y287007D01*
X44147Y285730D01*
X16741D01*
X14726Y287745D01*
Y296228D01*
X44018D01*
X45253Y294923D01*
D02*
G37*
G36*
X157310Y288972D02*
X158699Y284792D01*
X152137Y278230D01*
X78061D01*
X75836Y282167D01*
X76427Y283148D01*
X148189D01*
X148189Y283148D01*
X149161Y283342D01*
X149986Y283892D01*
X155350Y289256D01*
X157310Y288972D01*
D02*
G37*
G36*
X4644Y284193D02*
X4644Y284193D01*
X4837Y283221D01*
X5388Y282396D01*
X13147Y274638D01*
X12365Y271718D01*
X11650Y270701D01*
X-5060D01*
X-5333Y270974D01*
Y296228D01*
X4644D01*
Y284193D01*
D02*
G37*
G36*
X236711Y249696D02*
X235987Y246001D01*
X232293Y244919D01*
X231498Y245391D01*
X230282Y245895D01*
X228976Y246067D01*
X227671Y245895D01*
X226455Y245391D01*
X225104Y244590D01*
X222849D01*
X221498Y245391D01*
X220282Y245895D01*
X218976Y246067D01*
X217671Y245895D01*
X216455Y245391D01*
X215104Y244590D01*
X212849D01*
X211498Y245391D01*
X210282Y245895D01*
X209996Y245933D01*
X208079Y249592D01*
X209465Y252735D01*
X233672D01*
X236711Y249696D01*
D02*
G37*
G36*
X143933Y271024D02*
X144105Y269718D01*
X144609Y268502D01*
X145410Y267151D01*
Y264896D01*
X144609Y263545D01*
X144105Y262329D01*
X143933Y261024D01*
X144105Y259718D01*
X144609Y258502D01*
X145410Y257458D01*
X146455Y256656D01*
X147671Y256152D01*
X148976Y255980D01*
X150282Y256152D01*
X151498Y256656D01*
X152849Y257458D01*
X155104D01*
X156455Y256656D01*
X157671Y256152D01*
X158976Y255980D01*
X160282Y256152D01*
X161498Y256656D01*
X162849Y257458D01*
X165104D01*
X166455Y256656D01*
X167671Y256152D01*
X168976Y255980D01*
X170282Y256152D01*
X171498Y256656D01*
X172849Y257458D01*
X175104D01*
X176455Y256656D01*
X177671Y256152D01*
X178976Y255980D01*
X180282Y256152D01*
X181498Y256656D01*
X182849Y257458D01*
X185104D01*
X186455Y256656D01*
X187671Y256152D01*
X188976Y255980D01*
X190282Y256152D01*
X191498Y256656D01*
X192849Y257458D01*
X195104D01*
X196455Y256656D01*
X197671Y256152D01*
X198976Y255980D01*
X202184Y253061D01*
Y249369D01*
X201776Y248625D01*
X198976Y246067D01*
X197671Y245895D01*
X196455Y245391D01*
X195104Y244590D01*
X192849D01*
X191498Y245391D01*
X190282Y245895D01*
X188976Y246067D01*
X187671Y245895D01*
X186455Y245391D01*
X185104Y244590D01*
X182849D01*
X181498Y245391D01*
X180282Y245895D01*
X178976Y246067D01*
X177671Y245895D01*
X176455Y245391D01*
X175104Y244590D01*
X172849D01*
X171498Y245391D01*
X170282Y245895D01*
X168976Y246067D01*
X167671Y245895D01*
X166455Y245391D01*
X165104Y244590D01*
X162849D01*
X161498Y245391D01*
X160282Y245895D01*
X158976Y246067D01*
X157671Y245895D01*
X156455Y245391D01*
X155104Y244590D01*
X152849D01*
X151498Y245391D01*
X150282Y245895D01*
X148976Y246067D01*
X147671Y245895D01*
X146455Y245391D01*
X145104Y244590D01*
X142849D01*
X141498Y245391D01*
X140282Y245895D01*
X138976Y246067D01*
X137671Y245895D01*
X136455Y245391D01*
X135410Y244590D01*
X134609Y243545D01*
X134105Y242329D01*
X133933Y241024D01*
X134105Y239718D01*
X134609Y238502D01*
X135410Y237458D01*
X136455Y236656D01*
X137671Y236152D01*
X138976Y235981D01*
X140282Y236152D01*
X141498Y236656D01*
X142293Y237128D01*
X145987Y236047D01*
X146711Y232351D01*
X136388Y222029D01*
X119126D01*
Y224441D01*
X109221D01*
Y218129D01*
X106471Y215379D01*
X105920Y214555D01*
X105727Y213583D01*
X105727Y213583D01*
Y197835D01*
X105727Y197835D01*
X105920Y196862D01*
X106471Y196038D01*
X109221Y193288D01*
Y186976D01*
X119126D01*
Y186976D01*
X121257Y187705D01*
X125050Y185860D01*
X125554Y184644D01*
X126355Y183293D01*
Y181038D01*
X125554Y179687D01*
X125050Y178471D01*
X124878Y177165D01*
X125050Y175860D01*
X125554Y174644D01*
X126355Y173599D01*
X127400Y172798D01*
X128616Y172294D01*
X129921Y172122D01*
X131202Y172291D01*
X137967Y165526D01*
X138791Y164975D01*
X139764Y164782D01*
X143023Y162794D01*
X139601Y160021D01*
X108853D01*
X108261Y160507D01*
Y161024D01*
X103937D01*
Y161417D01*
X103543D01*
Y168190D01*
X102818Y168094D01*
X101775Y167662D01*
X100879Y166975D01*
X100192Y166079D01*
X99760Y165037D01*
X95910Y165353D01*
X95355Y166691D01*
X94474Y167840D01*
X93451Y168625D01*
Y181213D01*
X93348Y181992D01*
X93048Y182718D01*
X92569Y183341D01*
X89624Y186286D01*
X89660Y186374D01*
X89898Y186684D01*
X90199Y187410D01*
X90301Y188189D01*
X90199Y188968D01*
X89898Y189694D01*
X89660Y190004D01*
X89368Y190710D01*
X88566Y191755D01*
X87522Y192557D01*
X86305Y193060D01*
X85000Y193232D01*
X83695Y193060D01*
X82478Y192557D01*
X81639Y191912D01*
X81288Y191721D01*
X77316Y191411D01*
X76910Y191497D01*
X76910Y191497D01*
X76728Y191573D01*
X75989Y191879D01*
X75394Y191957D01*
Y188189D01*
Y184421D01*
X75989Y184499D01*
X76728Y184805D01*
X76910Y184881D01*
X76910Y184881D01*
X77316Y184967D01*
X81288Y184657D01*
X81639Y184466D01*
X82478Y183821D01*
X83695Y183318D01*
X84137Y183259D01*
X87431Y179966D01*
Y168456D01*
X86629Y167840D01*
X85747Y166691D01*
X85193Y165353D01*
X85004Y163917D01*
Y158917D01*
X85193Y157482D01*
X85747Y156144D01*
X86629Y154995D01*
X87777Y154113D01*
X89115Y153559D01*
X90551Y153370D01*
X91987Y153559D01*
X93325Y154113D01*
X95747Y152629D01*
X96571Y152078D01*
X97543Y151884D01*
X97543Y151884D01*
X105798D01*
X105798Y151884D01*
X106770Y152078D01*
X107594Y152629D01*
X109905Y154939D01*
X232252D01*
Y152528D01*
X238564D01*
X241553Y149538D01*
Y118110D01*
X241553Y118110D01*
X241553Y118110D01*
Y76378D01*
X241553Y76378D01*
X241553Y76378D01*
Y43307D01*
X241553Y43307D01*
X241553Y43307D01*
Y5064D01*
X235093Y-1396D01*
X132917D01*
X129953Y1016D01*
Y4890D01*
X132917Y7302D01*
X182343D01*
X182343Y7302D01*
X183315Y7495D01*
X184139Y8046D01*
X222916Y46823D01*
X223027Y46764D01*
X224332Y46368D01*
X225689Y46234D01*
X227046Y46368D01*
X228350Y46764D01*
X229553Y47406D01*
X230607Y48271D01*
X231472Y49325D01*
X232114Y50528D01*
X232510Y51832D01*
X232644Y53189D01*
X232510Y54546D01*
X232114Y55850D01*
X231472Y57053D01*
X230607Y58107D01*
X229553Y58972D01*
X228350Y59614D01*
X227046Y60010D01*
X225689Y60144D01*
X224332Y60010D01*
X223027Y59614D01*
X221825Y58972D01*
X220771Y58107D01*
X219906Y57053D01*
X219264Y55850D01*
X218868Y54546D01*
X218734Y53189D01*
X218868Y51832D01*
X219264Y50528D01*
X219323Y50416D01*
X181290Y12383D01*
X129953D01*
X129953Y14795D01*
Y17685D01*
X131895Y19628D01*
X132874D01*
X133653Y19730D01*
X134379Y20031D01*
X135002Y20509D01*
X140908Y26415D01*
X141386Y27038D01*
X141687Y27764D01*
X141789Y28543D01*
Y52165D01*
X141687Y52944D01*
X141386Y53670D01*
X140908Y54294D01*
X130081Y65121D01*
X129458Y65599D01*
X128732Y65900D01*
X127953Y66002D01*
X78558D01*
X78257Y66088D01*
X74989Y69004D01*
Y160689D01*
Y163279D01*
X74798Y165215D01*
X74234Y167076D01*
X73317Y168792D01*
X72972Y169211D01*
Y170563D01*
X71757D01*
X70579Y171529D01*
X68864Y172446D01*
X67003Y173011D01*
X65067Y173201D01*
X63715Y173068D01*
X53210Y183573D01*
Y241623D01*
X63274Y251687D01*
X63274Y251687D01*
X64015Y252591D01*
X64567Y253623D01*
X64906Y254742D01*
X65021Y255906D01*
Y267869D01*
X65498Y268692D01*
X68189Y271150D01*
X69364Y271305D01*
X70458Y271758D01*
X71398Y272480D01*
X71911Y273148D01*
X140378D01*
X143933Y271024D01*
D02*
G37*
G36*
X226455Y236656D02*
X227671Y236152D01*
X228976Y235981D01*
X230282Y236152D01*
X231498Y236656D01*
X232771Y237411D01*
X235133Y236934D01*
X236435Y236064D01*
Y210512D01*
X236435Y210512D01*
X236629Y209539D01*
X237180Y208715D01*
X253847Y192048D01*
Y185736D01*
X256258D01*
Y171221D01*
X256258Y171221D01*
X256452Y170248D01*
X257002Y169424D01*
X260795Y165631D01*
Y161189D01*
X264535D01*
Y152147D01*
X256958D01*
X255937Y153168D01*
Y162433D01*
X246031D01*
Y162433D01*
X242698D01*
X238761Y163739D01*
Y178364D01*
X239430Y178877D01*
X240151Y179817D01*
X240605Y180912D01*
X240759Y182087D01*
X240605Y183261D01*
X240151Y184356D01*
X239430Y185296D01*
X238490Y186017D01*
X237395Y186471D01*
X236221Y186625D01*
X235046Y186471D01*
X233951Y186017D01*
X233840Y185932D01*
X231032Y186828D01*
X229903Y187702D01*
Y208661D01*
X229903Y208661D01*
X229710Y209634D01*
X229159Y210458D01*
X207265Y232352D01*
X208976Y235981D01*
X210282Y236152D01*
X211498Y236656D01*
X212849Y237458D01*
X215104D01*
X216455Y236656D01*
X217671Y236152D01*
X218976Y235981D01*
X220282Y236152D01*
X221498Y236656D01*
X222849Y237458D01*
X225104D01*
X226455Y236656D01*
D02*
G37*
G36*
X186455D02*
X187671Y236152D01*
X188976Y235981D01*
X190257Y236149D01*
X196278Y230129D01*
Y224135D01*
X192717Y223228D01*
X192341Y223228D01*
X189370D01*
Y219488D01*
X188976D01*
Y219094D01*
X185236D01*
Y215748D01*
X186364D01*
X188468Y211811D01*
X187861Y210902D01*
X184024Y210662D01*
X182118D01*
Y210661D01*
X176054D01*
X173093Y214598D01*
X173425Y215748D01*
X173998Y215748D01*
X176772D01*
Y219488D01*
Y223228D01*
X173998D01*
X173425Y223228D01*
X170061Y224610D01*
Y228514D01*
X177695Y236149D01*
X178976Y235981D01*
X180282Y236152D01*
X181498Y236656D01*
X182849Y237458D01*
X185104D01*
X186455Y236656D01*
D02*
G37*
G36*
X165987Y236047D02*
X166711Y232351D01*
X165723Y231364D01*
X165172Y230539D01*
X164979Y229567D01*
X164979Y229567D01*
Y209087D01*
X162764D01*
Y196819D01*
X172213D01*
Y190570D01*
X165723Y184080D01*
X165172Y183256D01*
X164979Y182283D01*
X164979Y182283D01*
Y173260D01*
X162764D01*
Y162974D01*
X156564D01*
X153378Y166160D01*
Y173260D01*
X150730D01*
Y196819D01*
X153378D01*
Y209087D01*
X143866D01*
Y205494D01*
X119126D01*
Y210661D01*
X119126D01*
Y213010D01*
X122064Y216947D01*
X137441D01*
X137441Y216947D01*
X138413Y217141D01*
X139238Y217691D01*
X157695Y236149D01*
X158976Y235981D01*
X160282Y236152D01*
X161498Y236656D01*
X162293Y237128D01*
X165987Y236047D01*
D02*
G37*
G36*
X49514Y271305D02*
X50689Y271150D01*
X52997Y267940D01*
X53089Y267668D01*
Y258377D01*
X43026Y248313D01*
X42284Y247409D01*
X41732Y246377D01*
X41393Y245258D01*
X41278Y244094D01*
X41278Y244094D01*
Y181103D01*
X41278Y181102D01*
X41393Y179938D01*
X41732Y178819D01*
X42284Y177788D01*
X43026Y176884D01*
X45554Y174356D01*
X43766Y170576D01*
X43413Y170611D01*
X42579D01*
X40643Y170420D01*
X38782Y169855D01*
X37067Y168939D01*
X35563Y167705D01*
X26198Y158340D01*
X25852Y158414D01*
X22577Y160287D01*
X22617Y160689D01*
X22464Y162239D01*
X22012Y163729D01*
X21278Y165102D01*
X20290Y166306D01*
X19086Y167294D01*
X17713Y168028D01*
X16223Y168480D01*
X14673Y168633D01*
X13124Y168480D01*
X11877Y168102D01*
X11569Y168066D01*
X8195Y170050D01*
X7940Y170391D01*
Y175507D01*
X16889Y184457D01*
X19486Y183591D01*
X20751Y182751D01*
X20864Y181896D01*
X21363Y180691D01*
X22157Y179657D01*
X23191Y178863D01*
X24396Y178364D01*
X25689Y178193D01*
X26982Y178364D01*
X28187Y178863D01*
X29221Y179657D01*
X30015Y180691D01*
X30514Y181896D01*
X30685Y183189D01*
X30514Y184482D01*
X30015Y185687D01*
X29221Y186997D01*
Y189223D01*
X30015Y190534D01*
X30514Y191739D01*
X30685Y193032D01*
X30514Y194324D01*
X30015Y195529D01*
X29221Y196564D01*
X28187Y197358D01*
X26982Y197857D01*
X25689Y198027D01*
X24396Y197857D01*
X23191Y197358D01*
X22770Y197034D01*
X19803D01*
X18767Y196898D01*
X17802Y196498D01*
X16973Y195862D01*
X1107Y179996D01*
X471Y179167D01*
X71Y178201D01*
X-66Y177165D01*
Y158876D01*
X71Y157840D01*
X471Y156874D01*
X1107Y156045D01*
X7926Y149225D01*
Y145277D01*
X6417Y144470D01*
X4913Y143236D01*
X3680Y141733D01*
X2763Y140017D01*
X2198Y138156D01*
X2007Y136221D01*
X2198Y134285D01*
X2763Y132424D01*
X3680Y130708D01*
X4913Y129205D01*
X6417Y127971D01*
X8132Y127054D01*
X9994Y126489D01*
X11929Y126299D01*
X18110D01*
X20046Y126489D01*
X21907Y127054D01*
X23622Y127971D01*
X25126Y129205D01*
X34013Y138092D01*
X38285Y136796D01*
X38356Y136438D01*
X29699Y127781D01*
X29149Y126957D01*
X28955Y125984D01*
X28955Y125984D01*
Y49213D01*
X28955Y49213D01*
X29149Y48240D01*
X29699Y47416D01*
X33636Y43479D01*
X34461Y42928D01*
X35433Y42735D01*
X35433Y42735D01*
X79014D01*
X79921Y39173D01*
X79921Y38798D01*
Y35827D01*
X87402D01*
Y38798D01*
X87402Y39173D01*
X87448Y39356D01*
X88551Y39729D01*
X89417Y39524D01*
X92488Y36903D01*
Y31528D01*
X92488Y30480D01*
Y27591D01*
X92488Y26543D01*
Y18732D01*
X92488Y17685D01*
Y14795D01*
X92488Y13748D01*
Y4953D01*
X92488Y4890D01*
Y1016D01*
X92488Y953D01*
Y-7874D01*
X92488Y-8890D01*
X90036Y-11811D01*
X60913D01*
X59517Y-8362D01*
X59459Y-7874D01*
X60452Y-6664D01*
X61259Y-5154D01*
X61756Y-3515D01*
X61924Y-1811D01*
X61756Y-107D01*
X61259Y1532D01*
X60452Y3042D01*
X59365Y4366D01*
X58042Y5452D01*
X56532Y6259D01*
X54893Y6756D01*
X53189Y6924D01*
X51485Y6756D01*
X49846Y6259D01*
X48336Y5452D01*
X47012Y4366D01*
X45926Y3042D01*
X45119Y1532D01*
X44622Y-107D01*
X44454Y-1811D01*
X44622Y-3515D01*
X45119Y-5154D01*
X45926Y-6664D01*
X46919Y-7874D01*
X46861Y-8362D01*
X45465Y-11811D01*
X35913D01*
X34517Y-8362D01*
X34459Y-7874D01*
X35452Y-6664D01*
X36259Y-5154D01*
X36756Y-3515D01*
X36924Y-1811D01*
X36756Y-107D01*
X36259Y1532D01*
X35452Y3042D01*
X34365Y4366D01*
X33042Y5452D01*
X31532Y6259D01*
X29893Y6756D01*
X28189Y6924D01*
X26485Y6756D01*
X24846Y6259D01*
X23336Y5452D01*
X22012Y4366D01*
X20926Y3042D01*
X20119Y1532D01*
X19622Y-107D01*
X19454Y-1811D01*
X19622Y-3515D01*
X20119Y-5154D01*
X20926Y-6664D01*
X21919Y-7874D01*
X21861Y-8362D01*
X20465Y-11811D01*
X11418D01*
X10790Y-11086D01*
X9677Y-7874D01*
X10122Y-7354D01*
X11147Y-5680D01*
X11899Y-3866D01*
X12357Y-1957D01*
X12511Y0D01*
X12357Y1957D01*
X11899Y3866D01*
X11147Y5680D01*
X10122Y7354D01*
X8847Y8847D01*
X7354Y10122D01*
X5680Y11147D01*
X3866Y11899D01*
X1957Y12357D01*
X0Y12511D01*
X-1957Y12357D01*
X-3866Y11899D01*
X-5680Y11147D01*
X-7354Y10122D01*
X-7874Y9677D01*
X-11086Y10790D01*
X-11811Y11418D01*
Y262362D01*
X-7874Y264315D01*
X-6095Y262963D01*
Y259024D01*
X-356D01*
Y230099D01*
X-356Y230098D01*
X-163Y229126D01*
X388Y228302D01*
X4109Y224581D01*
X4933Y224030D01*
X5906Y223837D01*
X5906Y223837D01*
X9583D01*
X10881Y221532D01*
X11145Y220279D01*
X10380Y219057D01*
X9877Y217841D01*
X9705Y216535D01*
X9877Y215230D01*
X10380Y214014D01*
X11182Y212969D01*
X12227Y212168D01*
X13443Y211664D01*
X14748Y211492D01*
X16748D01*
X18053Y211664D01*
X19270Y212168D01*
X20314Y212969D01*
X21115Y214014D01*
X21619Y215230D01*
X21791Y216535D01*
X21619Y217841D01*
X21115Y219057D01*
X20314Y220339D01*
Y222574D01*
X21115Y223856D01*
X21619Y225073D01*
X21791Y226378D01*
X21619Y227683D01*
X21115Y228900D01*
X20540Y229650D01*
X20308Y230053D01*
X20051Y234286D01*
X20056Y234310D01*
X20187Y234627D01*
X20438Y235232D01*
X20516Y235827D01*
X15748D01*
X10980D01*
X11058Y235232D01*
X11309Y234627D01*
X11440Y234310D01*
X11445Y234286D01*
X11223Y230624D01*
X8511Y229858D01*
X8403Y229850D01*
X7118Y229951D01*
X4726Y232273D01*
Y259024D01*
X45465D01*
Y269063D01*
X46792Y270274D01*
X49076Y271486D01*
X49514Y271305D01*
D02*
G37*
G36*
X219407Y213024D02*
X217952Y209513D01*
X214139Y209140D01*
X205931Y217348D01*
X205106Y217899D01*
X204134Y218092D01*
X201360Y220613D01*
Y225503D01*
X205297Y227133D01*
X219407Y213024D01*
D02*
G37*
G36*
X246435Y233251D02*
Y214291D01*
X246435Y214291D01*
X246629Y213319D01*
X247180Y212495D01*
X257302Y202372D01*
X256006Y198100D01*
X255151Y197930D01*
X241517Y211564D01*
Y233251D01*
X243976Y234751D01*
X246435Y233251D01*
D02*
G37*
G36*
X224821Y192456D02*
Y177622D01*
X220884Y175308D01*
X219366Y176152D01*
X219273Y176279D01*
Y193799D01*
X219366Y193926D01*
X220884Y194771D01*
X224821Y192456D01*
D02*
G37*
G36*
X266101Y185736D02*
X270038Y182798D01*
Y173449D01*
X267158Y170898D01*
X262716D01*
X261340Y172273D01*
Y182798D01*
X263752Y185736D01*
X266101D01*
D02*
G37*
G36*
X143866Y196819D02*
X145648D01*
Y173260D01*
X143866D01*
Y172005D01*
X139929Y170751D01*
X134796Y175884D01*
X134964Y177165D01*
X134793Y178471D01*
X134289Y179687D01*
X133487Y181038D01*
Y183293D01*
X134289Y184644D01*
X134793Y185860D01*
X134964Y187165D01*
X134793Y188471D01*
X134289Y189687D01*
X133645Y190526D01*
X133454Y190877D01*
X133144Y194849D01*
X133229Y195255D01*
X133611Y196177D01*
X133689Y196772D01*
X129921D01*
Y197559D01*
X134077D01*
X135918Y199720D01*
X136937Y200412D01*
X143866D01*
Y196819D01*
D02*
G37*
G36*
X180666Y169260D02*
X176213Y164806D01*
X172276Y166437D01*
Y173197D01*
X179036D01*
X180666Y169260D01*
D02*
G37*
G36*
X211976Y204115D02*
Y196819D01*
X214191D01*
Y173260D01*
X211976D01*
Y162974D01*
X205580D01*
X202590Y165963D01*
Y173260D01*
X193929D01*
Y179509D01*
X199631Y185211D01*
X200182Y186036D01*
X200376Y187008D01*
X200376Y187008D01*
Y196819D01*
X202590D01*
Y207933D01*
X206190Y209902D01*
X211976Y204115D01*
D02*
G37*
G36*
X190132Y167495D02*
X190957Y166944D01*
X191847Y163025D01*
X190689Y160336D01*
X189544Y160021D01*
X183759D01*
X182252Y163659D01*
X188110Y169517D01*
X190132Y167495D01*
D02*
G37*
G36*
X254109Y147810D02*
X254933Y147259D01*
X255906Y147065D01*
X255906Y147065D01*
X266664D01*
X267538Y146192D01*
Y136228D01*
X264732Y133496D01*
X261252D01*
Y133496D01*
X250559D01*
Y133496D01*
X246635Y133528D01*
Y148841D01*
X246635Y149715D01*
X248739Y151054D01*
X250481Y151437D01*
X254109Y147810D01*
D02*
G37*
G36*
X53187Y154373D02*
X55145Y153339D01*
Y128532D01*
X52340Y127402D01*
X51208Y127374D01*
X50607Y128107D01*
X49553Y128972D01*
X48351Y129614D01*
X47046Y130010D01*
X45689Y130144D01*
X44721Y130048D01*
X43982Y130813D01*
X42749Y133644D01*
X45104Y135998D01*
X45104Y135999D01*
X45655Y136823D01*
X45848Y137795D01*
Y149927D01*
X47712Y151790D01*
X48926Y152439D01*
X50429Y153673D01*
X51208Y154622D01*
X53187Y154373D01*
D02*
G37*
G36*
X280689Y181242D02*
Y10078D01*
X276752Y8626D01*
X276563Y8847D01*
X275070Y10122D01*
X273396Y11147D01*
X271583Y11899D01*
X269674Y12357D01*
X267717Y12511D01*
X265759Y12357D01*
X263850Y11899D01*
X262037Y11147D01*
X260363Y10122D01*
X258870Y8847D01*
X257595Y7354D01*
X256569Y5680D01*
X255818Y3866D01*
X255360Y1957D01*
X255205Y0D01*
X255360Y-1957D01*
X255818Y-3866D01*
X256569Y-5680D01*
X257595Y-7354D01*
X258039Y-7874D01*
X256927Y-11086D01*
X256298Y-11811D01*
X134926D01*
X132418Y-7874D01*
X132946Y-6740D01*
X133311Y-6478D01*
X236146D01*
X236146Y-6478D01*
X237118Y-6284D01*
X237942Y-5734D01*
X245891Y2215D01*
X246442Y3039D01*
X246635Y4012D01*
X246635Y4012D01*
Y25527D01*
X250559Y25559D01*
X250572Y25559D01*
X261252D01*
Y37433D01*
X250572D01*
X250559Y37433D01*
X246635Y37465D01*
Y42255D01*
X251200Y46819D01*
X261252D01*
X261252Y46819D01*
X264732D01*
Y46819D01*
X265189Y46819D01*
X275425D01*
Y58693D01*
X275239D01*
X274213Y62205D01*
X274213Y62630D01*
Y66535D01*
X270079D01*
Y66929D01*
X269685D01*
Y71653D01*
X265945D01*
Y69968D01*
X262008Y67863D01*
X261252Y68369D01*
Y72866D01*
X250559D01*
Y72866D01*
X249751Y72873D01*
X248133Y76823D01*
X253562Y82252D01*
X261252D01*
X261252Y82252D01*
X264732D01*
Y82252D01*
X265189Y82252D01*
X275425D01*
Y94126D01*
X267735D01*
X261252Y100609D01*
Y112236D01*
X250559D01*
Y112236D01*
X246635Y112268D01*
Y117058D01*
X251200Y121622D01*
X261252D01*
Y121622D01*
X264732D01*
Y121622D01*
X275425D01*
Y133496D01*
X272620D01*
Y147244D01*
X272620Y147244D01*
X272426Y148216D01*
X272208Y148543D01*
X270898Y151937D01*
X270898Y151937D01*
X270898D01*
X270898Y151937D01*
Y161189D01*
X274638D01*
Y165761D01*
X274926Y166193D01*
X275120Y167165D01*
X275120Y167165D01*
Y182886D01*
X276752Y183691D01*
X280689Y181242D01*
D02*
G37*
G36*
X254242Y100239D02*
X256671Y97184D01*
X255404Y94126D01*
X250559D01*
Y94126D01*
X246635Y94158D01*
Y100330D01*
X250559Y100362D01*
X254242Y100239D01*
D02*
G37*
G36*
X36761Y122381D02*
X39125Y120984D01*
X39264Y120528D01*
X39906Y119325D01*
X40771Y118271D01*
X41825Y117406D01*
X43027Y116764D01*
X44332Y116368D01*
X45689Y116234D01*
X47046Y116368D01*
X48351Y116764D01*
X49553Y117406D01*
X50607Y118271D01*
X51208Y119004D01*
X52340Y118975D01*
X55145Y117846D01*
Y89012D01*
X54903Y85176D01*
X54903Y85176D01*
Y85176D01*
X51251Y84679D01*
X50675Y86068D01*
X49760Y87260D01*
X48568Y88175D01*
X47179Y88751D01*
X46083Y88895D01*
Y83189D01*
Y77483D01*
X47179Y77627D01*
X48568Y78202D01*
X49760Y79118D01*
X50675Y80310D01*
X50959Y80995D01*
X51251Y81699D01*
X54903Y81202D01*
Y81202D01*
X54903Y81202D01*
X55145Y77366D01*
Y73114D01*
X55142Y73111D01*
X45689D01*
X43753Y72920D01*
X41892Y72356D01*
X40177Y71439D01*
X38673Y70205D01*
X37974Y69353D01*
X35557Y69760D01*
X34037Y70614D01*
Y122356D01*
X34840Y122882D01*
X36761Y122381D01*
D02*
G37*
G36*
X70300Y60085D02*
X71079Y59982D01*
X126706D01*
X135769Y50919D01*
Y31051D01*
X134595Y29898D01*
X130915Y30235D01*
X129953Y31528D01*
Y40386D01*
X123641D01*
X116954Y47072D01*
X116130Y47623D01*
X115157Y47817D01*
X115157Y47817D01*
X36486D01*
X34037Y50265D01*
Y55764D01*
X35557Y56618D01*
X37974Y57025D01*
X38673Y56173D01*
X40177Y54939D01*
X41892Y54022D01*
X43753Y53458D01*
X45689Y53267D01*
X59252D01*
X61188Y53458D01*
X63049Y54022D01*
X64764Y54939D01*
X66268Y56173D01*
X70214Y60120D01*
X70300Y60085D01*
D02*
G37*
%LPC*%
G36*
X184370Y351452D02*
X183077Y351282D01*
X181872Y350783D01*
X181862Y350775D01*
X181801Y350742D01*
X179291Y350276D01*
X176781Y350742D01*
X176721Y350775D01*
X176710Y350783D01*
X175505Y351282D01*
X174213Y351452D01*
X172920Y351282D01*
X171715Y350783D01*
X170938Y350186D01*
X170891Y350160D01*
X170310Y349963D01*
X166591Y349698D01*
X165989Y349834D01*
X165347Y350101D01*
X164764Y350177D01*
Y346457D01*
Y342736D01*
X165347Y342813D01*
X165989Y343079D01*
X166591Y343215D01*
X170310Y342951D01*
X170891Y342753D01*
X170938Y342727D01*
X171715Y342130D01*
X172920Y341631D01*
X174213Y341461D01*
X175505Y341631D01*
X176710Y342130D01*
X176721Y342138D01*
X176781Y342172D01*
X179291Y342637D01*
X181801Y342172D01*
X181862Y342138D01*
X181872Y342130D01*
X183077Y341631D01*
X184370Y341461D01*
X185663Y341631D01*
X186868Y342130D01*
X187902Y342924D01*
X188696Y343959D01*
X189195Y345164D01*
X189366Y346457D01*
X189195Y347750D01*
X188696Y348954D01*
X187902Y349989D01*
X186868Y350783D01*
X185663Y351282D01*
X184370Y351452D01*
D02*
G37*
G36*
X227677D02*
X226384Y351282D01*
X225179Y350783D01*
X225169Y350775D01*
X223734Y349989D01*
X221462D01*
X220028Y350775D01*
X220017Y350783D01*
X218813Y351282D01*
X217520Y351452D01*
X216227Y351282D01*
X215022Y350783D01*
X214245Y350186D01*
X213877Y349981D01*
X209898Y349698D01*
X209296Y349834D01*
X208653Y350101D01*
X208071Y350177D01*
Y346457D01*
Y342736D01*
X208653Y342813D01*
X209296Y343079D01*
X209898Y343215D01*
X213877Y342932D01*
X214245Y342727D01*
X215022Y342130D01*
X216227Y341631D01*
X217520Y341461D01*
X218813Y341631D01*
X220017Y342130D01*
X220028Y342138D01*
X221462Y342924D01*
X223734D01*
X225169Y342138D01*
X225179Y342130D01*
X226384Y341631D01*
X227677Y341461D01*
X228970Y341631D01*
X230175Y342130D01*
X231209Y342924D01*
X232003Y343959D01*
X232502Y345164D01*
X232673Y346457D01*
X232502Y347750D01*
X232003Y348954D01*
X231209Y349989D01*
X230175Y350783D01*
X228970Y351282D01*
X227677Y351452D01*
D02*
G37*
G36*
X143032Y350684D02*
X141739Y350514D01*
X140534Y350015D01*
X139223Y349221D01*
X136997D01*
X135687Y350015D01*
X134482Y350514D01*
X133189Y350684D01*
X131896Y350514D01*
X130691Y350015D01*
X129657Y349221D01*
X128863Y348187D01*
X128364Y346982D01*
X128193Y345689D01*
X128364Y344396D01*
X128863Y343191D01*
X129657Y342157D01*
X130691Y341363D01*
X131896Y340864D01*
X133189Y340693D01*
X134482Y340864D01*
X135687Y341363D01*
X136997Y342157D01*
X139223D01*
X140534Y341363D01*
X141739Y340864D01*
X143032Y340693D01*
X144324Y340864D01*
X145529Y341363D01*
X146564Y342157D01*
X147358Y343191D01*
X147857Y344396D01*
X148027Y345689D01*
X147857Y346982D01*
X147358Y348187D01*
X146564Y349221D01*
X145529Y350015D01*
X144324Y350514D01*
X143032Y350684D01*
D02*
G37*
G36*
X207283Y350177D02*
X206701Y350101D01*
X205791Y349724D01*
X205010Y349124D01*
X204410Y348343D01*
X204033Y347433D01*
X203957Y346850D01*
X207283D01*
Y350177D01*
D02*
G37*
G36*
X163976D02*
X163394Y350101D01*
X162484Y349724D01*
X161703Y349124D01*
X161103Y348343D01*
X160726Y347433D01*
X160650Y346850D01*
X163976D01*
Y350177D01*
D02*
G37*
G36*
X207283Y346063D02*
X203957D01*
X204033Y345480D01*
X204410Y344570D01*
X205010Y343789D01*
X205791Y343190D01*
X206701Y342813D01*
X207283Y342736D01*
Y346063D01*
D02*
G37*
G36*
X163976D02*
X160650D01*
X160726Y345480D01*
X161103Y344570D01*
X161703Y343789D01*
X162484Y343190D01*
X163394Y342813D01*
X163976Y342736D01*
Y346063D01*
D02*
G37*
G36*
X154921Y323594D02*
Y321260D01*
X157255D01*
X157212Y321586D01*
X156935Y322256D01*
X156493Y322832D01*
X155917Y323273D01*
X155247Y323551D01*
X154921Y323594D01*
D02*
G37*
G36*
X154134D02*
X153808Y323551D01*
X153138Y323273D01*
X152562Y322832D01*
X152120Y322256D01*
X151843Y321586D01*
X151800Y321260D01*
X154134D01*
Y323594D01*
D02*
G37*
G36*
X157255Y320472D02*
X154921D01*
Y318138D01*
X155247Y318181D01*
X155917Y318459D01*
X156493Y318901D01*
X156935Y319476D01*
X157212Y320147D01*
X157255Y320472D01*
D02*
G37*
G36*
X154134D02*
X151800D01*
X151843Y320147D01*
X152120Y319476D01*
X152562Y318901D01*
X153138Y318459D01*
X153808Y318181D01*
X154134Y318138D01*
Y320472D01*
D02*
G37*
G36*
X269370Y304792D02*
Y301417D01*
X272745D01*
X272666Y302012D01*
X272285Y302934D01*
X271678Y303725D01*
X270886Y304332D01*
X269965Y304714D01*
X269370Y304792D01*
D02*
G37*
G36*
X272745Y300630D02*
X269370D01*
Y297255D01*
X269965Y297334D01*
X270886Y297715D01*
X271678Y298322D01*
X272285Y299114D01*
X272666Y300035D01*
X272745Y300630D01*
D02*
G37*
G36*
X268976Y246067D02*
X267671Y245895D01*
X266455Y245391D01*
X265615Y244747D01*
X265264Y244556D01*
X261293Y244246D01*
X260887Y244332D01*
X260886Y244332D01*
X260705Y244407D01*
X259965Y244713D01*
X259370Y244792D01*
Y241024D01*
Y237255D01*
X259965Y237334D01*
X260705Y237640D01*
X260886Y237715D01*
X260887Y237715D01*
X261293Y237801D01*
X265264Y237491D01*
X265615Y237300D01*
X266455Y236656D01*
X267671Y236152D01*
X268976Y235981D01*
X270282Y236152D01*
X271498Y236656D01*
X272542Y237458D01*
X273344Y238502D01*
X273848Y239718D01*
X274020Y241024D01*
X273848Y242329D01*
X273344Y243545D01*
X272542Y244590D01*
X271498Y245391D01*
X270282Y245895D01*
X268976Y246067D01*
D02*
G37*
G36*
X65000Y193232D02*
X63695Y193060D01*
X62478Y192557D01*
X61434Y191755D01*
X60632Y190710D01*
X60129Y189494D01*
X59957Y188189D01*
X60129Y186884D01*
X60632Y185667D01*
X61434Y184623D01*
X62478Y183821D01*
X63695Y183318D01*
X65000Y183146D01*
X66305Y183318D01*
X67522Y183821D01*
X68361Y184466D01*
X68712Y184657D01*
X72684Y184967D01*
X73090Y184881D01*
X73090Y184881D01*
X73272Y184805D01*
X74011Y184499D01*
X74606Y184421D01*
Y188189D01*
Y191957D01*
X74011Y191879D01*
X73272Y191573D01*
X73090Y191497D01*
X73090Y191497D01*
X72684Y191411D01*
X68712Y191721D01*
X68361Y191912D01*
X67522Y192557D01*
X66305Y193060D01*
X65000Y193232D01*
D02*
G37*
G36*
X117913Y181890D02*
X114567D01*
Y178543D01*
X117913D01*
Y181890D01*
D02*
G37*
G36*
X113779D02*
X110433D01*
Y178543D01*
X113779D01*
Y181890D01*
D02*
G37*
G36*
X117913Y177756D02*
X114567D01*
Y174409D01*
X117913D01*
Y177756D01*
D02*
G37*
G36*
X113779D02*
X110433D01*
Y174409D01*
X113779D01*
Y177756D01*
D02*
G37*
G36*
X104331Y168190D02*
Y161811D01*
X108261D01*
Y163917D01*
X108114Y165037D01*
X107682Y166079D01*
X106995Y166975D01*
X106099Y167662D01*
X105056Y168094D01*
X104331Y168190D01*
D02*
G37*
G36*
X225689Y140144D02*
X224332Y140010D01*
X223027Y139614D01*
X221825Y138972D01*
X220771Y138107D01*
X219906Y137053D01*
X219264Y135851D01*
X218868Y134546D01*
X218734Y133189D01*
X218868Y131832D01*
X219264Y130527D01*
X219906Y129325D01*
X220771Y128271D01*
X221825Y127406D01*
X223027Y126764D01*
X224332Y126368D01*
X225689Y126234D01*
X227046Y126368D01*
X228350Y126764D01*
X229553Y127406D01*
X230607Y128271D01*
X231472Y129325D01*
X232114Y130527D01*
X232510Y131832D01*
X232644Y133189D01*
X232510Y134546D01*
X232114Y135851D01*
X231472Y137053D01*
X230607Y138107D01*
X229553Y138972D01*
X228350Y139614D01*
X227046Y140010D01*
X225689Y140144D01*
D02*
G37*
G36*
X226083Y98895D02*
Y93583D01*
X231395D01*
X231251Y94679D01*
X230676Y96068D01*
X229760Y97260D01*
X228568Y98176D01*
X227179Y98751D01*
X226083Y98895D01*
D02*
G37*
G36*
X225295D02*
X224199Y98751D01*
X222810Y98176D01*
X221618Y97260D01*
X220703Y96068D01*
X220127Y94679D01*
X219983Y93583D01*
X225295D01*
Y98895D01*
D02*
G37*
G36*
X231395Y92795D02*
X226083D01*
Y87483D01*
X227179Y87627D01*
X228568Y88203D01*
X229760Y89117D01*
X230676Y90310D01*
X231251Y91699D01*
X231395Y92795D01*
D02*
G37*
G36*
X225295D02*
X219983D01*
X220127Y91699D01*
X220703Y90310D01*
X221618Y89117D01*
X222810Y88203D01*
X224199Y87627D01*
X225295Y87483D01*
Y92795D01*
D02*
G37*
G36*
X183465Y232059D02*
Y229724D01*
X185799D01*
X185756Y230050D01*
X185478Y230721D01*
X185036Y231296D01*
X184461Y231738D01*
X183790Y232016D01*
X183465Y232059D01*
D02*
G37*
G36*
X182677D02*
X182351Y232016D01*
X181681Y231738D01*
X181105Y231296D01*
X180664Y230721D01*
X180386Y230050D01*
X180343Y229724D01*
X182677D01*
Y232059D01*
D02*
G37*
G36*
X185799Y228937D02*
X183465D01*
Y226603D01*
X183790Y226646D01*
X184461Y226923D01*
X185036Y227365D01*
X185478Y227941D01*
X185756Y228611D01*
X185799Y228937D01*
D02*
G37*
G36*
X182677D02*
X180343D01*
X180386Y228611D01*
X180664Y227941D01*
X181105Y227365D01*
X181681Y226923D01*
X182351Y226646D01*
X182677Y226603D01*
Y228937D01*
D02*
G37*
G36*
X177559Y223228D02*
Y219882D01*
X180905D01*
Y223228D01*
X177559D01*
D02*
G37*
G36*
X188583D02*
X185236D01*
Y219882D01*
X188583D01*
Y223228D01*
D02*
G37*
G36*
X180905Y219094D02*
X177559D01*
Y215748D01*
X180905D01*
Y219094D01*
D02*
G37*
G36*
X16748Y240041D02*
X16142D01*
Y236614D01*
X20516D01*
X20438Y237209D01*
X20056Y238130D01*
X19449Y238922D01*
X18658Y239529D01*
X17737Y239910D01*
X16748Y240041D01*
D02*
G37*
G36*
X15354D02*
X14748D01*
X13759Y239910D01*
X12838Y239529D01*
X12047Y238922D01*
X11440Y238130D01*
X11058Y237209D01*
X10980Y236614D01*
X15354D01*
Y240041D01*
D02*
G37*
G36*
X11811Y100188D02*
X10261Y100035D01*
X8771Y99583D01*
X7398Y98849D01*
X6194Y97861D01*
X5206Y96657D01*
X4472Y95284D01*
X4020Y93794D01*
X3867Y92244D01*
X4020Y90694D01*
X4472Y89204D01*
X5206Y87831D01*
X6194Y86627D01*
X7398Y85639D01*
X8771Y84905D01*
X10261Y84453D01*
X11811Y84300D01*
X13361Y84453D01*
X14851Y84905D01*
X16224Y85639D01*
X17428Y86627D01*
X18416Y87831D01*
X19150Y89204D01*
X19602Y90694D01*
X19755Y92244D01*
X19602Y93794D01*
X19150Y95284D01*
X18416Y96657D01*
X17428Y97861D01*
X16224Y98849D01*
X14851Y99583D01*
X13361Y100035D01*
X11811Y100188D01*
D02*
G37*
G36*
X87402Y35039D02*
X84055D01*
Y31693D01*
X87402D01*
Y35039D01*
D02*
G37*
G36*
X83268D02*
X79921D01*
Y31693D01*
X83268D01*
Y35039D01*
D02*
G37*
G36*
X57126Y33852D02*
X55551D01*
Y23583D01*
X67758D01*
X67658Y24857D01*
X67267Y26484D01*
X66627Y28030D01*
X65752Y29456D01*
X64666Y30729D01*
X63393Y31815D01*
X61967Y32690D01*
X60421Y33330D01*
X58794Y33720D01*
X57126Y33852D01*
D02*
G37*
G36*
X87402Y26378D02*
X84055D01*
Y23031D01*
X87402D01*
Y26378D01*
D02*
G37*
G36*
X83268D02*
X79921D01*
Y23031D01*
X83268D01*
Y26378D01*
D02*
G37*
G36*
X87402Y22244D02*
X84055D01*
Y18898D01*
X87402D01*
Y22244D01*
D02*
G37*
G36*
X83268D02*
X79921D01*
Y18898D01*
X83268D01*
Y22244D01*
D02*
G37*
G36*
X67758Y22795D02*
X55551D01*
Y12526D01*
X57126D01*
X58794Y12657D01*
X60421Y13048D01*
X61967Y13688D01*
X63393Y14563D01*
X64666Y15649D01*
X65752Y16921D01*
X66627Y18348D01*
X67267Y19894D01*
X67658Y21521D01*
X67758Y22795D01*
D02*
G37*
G36*
X11811Y58111D02*
X9875Y57920D01*
X8014Y57355D01*
X6299Y56439D01*
X4795Y55205D01*
X3561Y53701D01*
X2644Y51986D01*
X2080Y50125D01*
X1889Y48189D01*
Y27559D01*
X2080Y25623D01*
X2644Y23762D01*
X3561Y22047D01*
X4795Y20543D01*
X8732Y16606D01*
X10236Y15372D01*
X11951Y14456D01*
X13812Y13891D01*
X15748Y13700D01*
X17127D01*
X17270Y13579D01*
X18859Y12605D01*
X20581Y11891D01*
X22394Y11456D01*
X24252Y11310D01*
X28189D01*
X30047Y11456D01*
X31860Y11891D01*
X33582Y12605D01*
X35171Y13579D01*
X36589Y14789D01*
X37799Y16207D01*
X38773Y17796D01*
X39246Y18938D01*
X40852Y19342D01*
X43414Y19011D01*
X43688Y18348D01*
X44563Y16921D01*
X45649Y15649D01*
X46922Y14563D01*
X48348Y13688D01*
X49894Y13048D01*
X51521Y12657D01*
X53189Y12526D01*
X54764D01*
Y23189D01*
Y33852D01*
X53189D01*
X51521Y33720D01*
X49894Y33330D01*
X48348Y32690D01*
X46922Y31815D01*
X45649Y30729D01*
X44563Y29456D01*
X43688Y28030D01*
X43414Y27367D01*
X40852Y27036D01*
X39246Y27440D01*
X38773Y28582D01*
X37799Y30171D01*
X36589Y31589D01*
X35171Y32799D01*
X33582Y33773D01*
X31860Y34487D01*
X30047Y34922D01*
X28189Y35068D01*
X24252D01*
X21733Y38667D01*
Y48189D01*
X21542Y50125D01*
X20978Y51986D01*
X20061Y53701D01*
X18827Y55205D01*
X17323Y56439D01*
X15608Y57355D01*
X13747Y57920D01*
X11811Y58111D01*
D02*
G37*
G36*
X87402Y13583D02*
X84055D01*
Y10236D01*
X87402D01*
Y13583D01*
D02*
G37*
G36*
X83268D02*
X79921D01*
Y10236D01*
X83268D01*
Y13583D01*
D02*
G37*
G36*
X87402Y9449D02*
X84055D01*
Y6102D01*
X87402D01*
Y9449D01*
D02*
G37*
G36*
X83268D02*
X79921D01*
Y6102D01*
X83268D01*
Y9449D01*
D02*
G37*
G36*
X87402Y-197D02*
X84055D01*
Y-3543D01*
X87402D01*
Y-197D01*
D02*
G37*
G36*
X83268D02*
X79921D01*
Y-3543D01*
X83268D01*
Y-197D01*
D02*
G37*
G36*
X87402Y-4331D02*
X84055D01*
Y-7677D01*
X87402D01*
Y-4331D01*
D02*
G37*
G36*
X83268D02*
X79921D01*
Y-7677D01*
X83268D01*
Y-4331D01*
D02*
G37*
G36*
X274213Y111024D02*
X270472D01*
Y106693D01*
X274213D01*
Y111024D01*
D02*
G37*
G36*
X269685D02*
X265945D01*
Y106693D01*
X269685D01*
Y111024D01*
D02*
G37*
G36*
X274213Y105905D02*
X270472D01*
Y101575D01*
X274213D01*
Y105905D01*
D02*
G37*
G36*
X269685D02*
X265945D01*
Y101575D01*
X269685D01*
Y105905D01*
D02*
G37*
G36*
X274213Y71653D02*
X270472D01*
Y67323D01*
X274213D01*
Y71653D01*
D02*
G37*
G36*
Y36220D02*
X270472D01*
Y31890D01*
X274213D01*
Y36220D01*
D02*
G37*
G36*
X269685D02*
X265945D01*
Y31890D01*
X269685D01*
Y36220D01*
D02*
G37*
G36*
X274213Y31102D02*
X270472D01*
Y26772D01*
X274213D01*
Y31102D01*
D02*
G37*
G36*
X269685D02*
X265945D01*
Y26772D01*
X269685D01*
Y31102D01*
D02*
G37*
G36*
X45295Y88895D02*
X44199Y88751D01*
X42810Y88175D01*
X41618Y87260D01*
X40703Y86068D01*
X40127Y84679D01*
X39983Y83583D01*
X45295D01*
Y88895D01*
D02*
G37*
G36*
Y82795D02*
X39983D01*
X40127Y81699D01*
X40703Y80310D01*
X41618Y79118D01*
X42810Y78202D01*
X44199Y77627D01*
X45295Y77483D01*
Y82795D01*
D02*
G37*
%LPD*%
D10*
X188976Y219488D02*
D03*
Y205709D02*
D03*
X177165Y219488D02*
D03*
Y205709D02*
D03*
X114173Y178150D02*
D03*
Y191929D02*
D03*
X177165Y178150D02*
D03*
Y191929D02*
D03*
X114173Y205709D02*
D03*
Y219488D02*
D03*
X188976Y178150D02*
D03*
Y191929D02*
D03*
D11*
X-2815Y264862D02*
D03*
X2185D02*
D03*
X7185D02*
D03*
X12185D02*
D03*
X17185D02*
D03*
X22185D02*
D03*
X27185D02*
D03*
X32185D02*
D03*
X37185D02*
D03*
X42185D02*
D03*
Y302067D02*
D03*
X37185D02*
D03*
X32185D02*
D03*
X27185D02*
D03*
X22185D02*
D03*
X17185D02*
D03*
X12185D02*
D03*
X7185D02*
D03*
X2185D02*
D03*
X-2815D02*
D03*
D12*
X97441Y-3937D02*
D03*
X83661D02*
D03*
X97441Y9843D02*
D03*
X83661D02*
D03*
X97441Y22638D02*
D03*
X83661D02*
D03*
X97441Y35433D02*
D03*
X83661D02*
D03*
X250984Y157480D02*
D03*
X237205D02*
D03*
X258799Y190689D02*
D03*
X272579D02*
D03*
X125000Y35433D02*
D03*
X111221D02*
D03*
X125000Y22638D02*
D03*
X111221D02*
D03*
X125000Y9843D02*
D03*
X111221D02*
D03*
X125000Y-3937D02*
D03*
X111221D02*
D03*
D13*
X255906Y31496D02*
D03*
X270079D02*
D03*
Y52756D02*
D03*
X255906D02*
D03*
Y66929D02*
D03*
X270079D02*
D03*
Y88189D02*
D03*
X255906D02*
D03*
Y106299D02*
D03*
X270079D02*
D03*
Y127559D02*
D03*
X255906D02*
D03*
D14*
X271457Y166043D02*
D03*
X263976D02*
D03*
X267717Y156791D02*
D03*
D15*
X216732Y202953D02*
D03*
Y167126D02*
D03*
X197835Y202953D02*
D03*
Y167126D02*
D03*
X167520Y202953D02*
D03*
Y167126D02*
D03*
X148622Y202953D02*
D03*
Y167126D02*
D03*
D16*
X116929Y202953D02*
X148622D01*
X114173Y205709D02*
X116929Y202953D01*
X125157Y191929D02*
X129921Y187165D01*
X114173Y191929D02*
X125157D01*
X108268Y197835D02*
X114173Y191929D01*
X108268Y197835D02*
Y213583D01*
X114173Y219488D01*
X137441D01*
X158976Y241024D01*
X197835Y167126D02*
X204527Y160433D01*
X222441D01*
X227362Y165354D01*
Y208661D01*
X204724Y231299D02*
X227362Y208661D01*
X204724Y231299D02*
Y255276D01*
X234724D02*
X248976Y241024D01*
X204724Y255276D02*
X234724D01*
X198976Y261024D02*
X204724Y255276D01*
X167520Y202953D02*
X174409D01*
X177165Y205709D01*
Y191929D02*
Y205709D01*
X167520Y182283D02*
X177165Y191929D01*
X167520Y167126D02*
Y182283D01*
X188976Y178150D02*
X188976D01*
X177165D02*
X188976D01*
X197835Y187008D02*
Y202953D01*
X188976Y178150D02*
X197835Y187008D01*
X204134Y215551D02*
X216732Y202953D01*
X198819Y215551D02*
X204134D01*
X216732Y167126D02*
Y202953D01*
X188976Y172244D02*
Y173976D01*
Y172244D02*
X191929Y169291D01*
X195669D01*
X197835Y167126D01*
X175433Y160433D02*
X188976Y173976D01*
X155512Y160433D02*
X175433D01*
X148622Y167323D02*
X155512Y160433D01*
X188976Y191929D02*
Y205709D01*
X198819Y215551D01*
Y231181D01*
X188976Y241024D02*
X198819Y231181D01*
X139764Y167323D02*
X148622D01*
X129921Y177165D02*
X139764Y167323D01*
X108853Y157480D02*
X237205D01*
X188976Y173976D02*
Y178150D01*
X167520Y202953D02*
Y229567D01*
X178976Y241024D01*
X148189Y165689D02*
Y200689D01*
X116850Y291063D02*
X134843Y309055D01*
X68189Y291063D02*
X116850D01*
X134843Y309055D02*
X230945D01*
X238976Y301024D01*
X45276Y311024D02*
X50689Y305610D01*
Y291063D02*
Y305610D01*
X2185Y308839D02*
Y309272D01*
Y302067D02*
Y308839D01*
X3937Y311024D02*
X45276D01*
X2185Y309272D02*
X3937Y311024D01*
X171142Y293189D02*
X178976Y301024D01*
X155689Y293189D02*
X171142D01*
X148189Y285689D02*
X155689Y293189D01*
X70689Y285689D02*
X148189D01*
X68189Y283189D02*
X70689Y285689D01*
X164532Y287032D02*
X174984D01*
X153189Y275689D02*
X164532Y287032D01*
X15689Y283189D02*
X48189D01*
X43307Y137795D02*
Y160583D01*
X31496Y125984D02*
X43307Y137795D01*
X0Y311024D02*
X2185Y308839D01*
X-3937Y311024D02*
X0D01*
X-7874Y307087D02*
X-3937Y311024D01*
X-7874Y269921D02*
Y307087D01*
Y269921D02*
X-2815Y264862D01*
X2185D02*
X7185D01*
X2185Y230098D02*
Y264862D01*
Y230098D02*
X5906Y226378D01*
X15748D01*
X97441Y-3937D02*
X111221D01*
X98425Y35433D02*
X112205D01*
X97441Y22638D02*
X111221D01*
X97441Y9843D02*
X111221D01*
X255906Y102362D02*
Y106299D01*
Y102362D02*
X270079Y88189D01*
X255906Y66929D02*
Y66929D01*
Y66929D02*
X270079Y52756D01*
X125000Y-3937D02*
X236146D01*
X244094Y4012D01*
Y43307D01*
X253543Y52756D01*
X255906D01*
X244094Y43307D02*
Y76378D01*
X255906Y88189D01*
X244094Y76378D02*
Y118110D01*
X253543Y127559D01*
X255906D01*
X244094Y118110D02*
Y150591D01*
X237205Y157480D02*
X244094Y150591D01*
X270079Y127559D02*
Y147244D01*
X267717Y149606D02*
X270079Y147244D01*
X267717Y149606D02*
Y156791D01*
X255906Y149606D02*
X267717D01*
X250984Y154528D02*
X255906Y149606D01*
X250984Y154528D02*
Y157480D01*
X271457Y166043D02*
X272579Y167165D01*
Y190689D01*
X258799Y171221D02*
Y190689D01*
Y171221D02*
X263976Y166043D01*
X105798Y154425D02*
X108853Y157480D01*
X97543Y154425D02*
X105798D01*
X90551Y161417D02*
X97543Y154425D01*
X238976Y210512D02*
X258799Y190689D01*
X238976Y210512D02*
Y241024D01*
X248976Y214291D02*
X272579Y190689D01*
X248976Y214291D02*
Y241024D01*
X174984Y287032D02*
X188976Y301024D01*
X68189Y275689D02*
X153189D01*
X7185Y284193D02*
Y302067D01*
Y284193D02*
X15689Y275689D01*
X48189D01*
X12185Y286693D02*
Y302067D01*
Y286693D02*
X15689Y283189D01*
X125000Y7874D02*
X126969Y9843D01*
X182343D01*
X225689Y53189D01*
X31496Y49213D02*
Y125984D01*
Y49213D02*
X35433Y45276D01*
X115157D01*
X125000Y35433D01*
X236221Y158465D02*
X237205Y157480D01*
X236221Y158465D02*
Y182087D01*
D17*
X59055Y255906D02*
Y306102D01*
X63976Y311024D01*
X90551D01*
X35433Y331693D02*
X59055Y308071D01*
X35433Y331693D02*
Y346457D01*
X90551Y311024D02*
X100689Y321161D01*
Y345689D01*
X47244Y181102D02*
X65067Y163279D01*
X47244Y181102D02*
Y244094D01*
X59055Y255906D01*
D18*
X65067Y160689D02*
Y163279D01*
X42579Y160689D02*
X43413D01*
X11929Y136221D02*
X18110D01*
X42579Y160689D01*
X11811Y27559D02*
Y48189D01*
Y27559D02*
X15748Y23622D01*
X65067Y69004D02*
Y160689D01*
X59252Y63189D02*
X65067Y69004D01*
X45689Y63189D02*
X59252D01*
X15748Y23622D02*
X27756D01*
X28189Y23189D01*
D19*
X84646Y187008D02*
X90441Y181213D01*
X71079Y62992D02*
X127953D01*
X65067Y69004D02*
X71079Y62992D01*
X85000Y188189D02*
X87291D01*
X90441Y161417D02*
Y181213D01*
X127953Y62992D02*
X138779Y52165D01*
Y28543D02*
Y52165D01*
X132874Y22638D02*
X138779Y28543D01*
X125000Y22638D02*
X132874D01*
D20*
X3937Y158876D02*
X10998Y151815D01*
X3937Y158876D02*
Y177165D01*
X11929Y136221D02*
Y151815D01*
X3937Y177165D02*
X19803Y193032D01*
X25689D01*
D21*
X0Y0D02*
D03*
X267717D02*
D03*
Y370079D02*
D03*
X0D02*
D03*
D22*
X65000Y188189D02*
D03*
X75000D02*
D03*
X85000D02*
D03*
X129921Y197165D02*
D03*
Y187165D02*
D03*
Y177165D02*
D03*
X268976Y301024D02*
D03*
Y241024D02*
D03*
X258976D02*
D03*
X248976D02*
D03*
X198976Y271024D02*
D03*
Y261024D02*
D03*
X208976D02*
D03*
Y271024D02*
D03*
X188976Y261024D02*
D03*
X178976D02*
D03*
X168976D02*
D03*
X158976D02*
D03*
X148976D02*
D03*
Y271024D02*
D03*
X158976D02*
D03*
X168976D02*
D03*
X178976D02*
D03*
X188976D02*
D03*
X238976Y241024D02*
D03*
X228976D02*
D03*
X218976D02*
D03*
X208976D02*
D03*
X198976D02*
D03*
X188976D02*
D03*
X178976D02*
D03*
X168976D02*
D03*
X158976D02*
D03*
X148976D02*
D03*
X138976D02*
D03*
Y301024D02*
D03*
X148976D02*
D03*
X158976D02*
D03*
X168976D02*
D03*
X178976D02*
D03*
X188976D02*
D03*
X198976D02*
D03*
X208976D02*
D03*
X218976D02*
D03*
X228976D02*
D03*
X238976D02*
D03*
X248976D02*
D03*
X258976D02*
D03*
D23*
X55158Y23189D02*
D03*
X26221D02*
D03*
D24*
X28189Y-1811D02*
D03*
X53189D02*
D03*
D25*
X15748Y236221D02*
D03*
Y226378D02*
D03*
Y216535D02*
D03*
D26*
X25689Y193032D02*
D03*
Y183189D02*
D03*
X217520Y346457D02*
D03*
X207677D02*
D03*
X227677D02*
D03*
X174213D02*
D03*
X164370D02*
D03*
X184370D02*
D03*
X133189Y345689D02*
D03*
X143032D02*
D03*
X35433Y346457D02*
D03*
X45276D02*
D03*
X100689Y345689D02*
D03*
X110531D02*
D03*
D27*
X65067Y160689D02*
D03*
D28*
X43413D02*
D03*
D29*
X14673D02*
D03*
D30*
X11811Y136221D02*
D03*
Y47244D02*
D03*
D31*
Y92244D02*
D03*
D32*
X90551Y161417D02*
D03*
X103937D02*
D03*
D33*
X45689Y63189D02*
D03*
Y83189D02*
D03*
Y123189D02*
D03*
X225689Y53189D02*
D03*
Y93189D02*
D03*
Y133189D02*
D03*
D34*
X236221Y182087D02*
D03*
X68189Y291063D02*
D03*
X50689D02*
D03*
Y275689D02*
D03*
X68189D02*
D03*
X50689Y283189D02*
D03*
X68189D02*
D03*
D35*
X154528Y320866D02*
D03*
X183071Y229331D02*
D03*
M02*
