G04 Layer_Color=32896*
%FSLAX25Y25*%
%MOIN*%
G70*
G01*
G75*
%ADD16C,0.00984*%
%ADD39C,0.01000*%
%ADD40C,0.00787*%
%ADD42C,0.00500*%
%ADD45C,0.00800*%
D16*
X216437Y336024D02*
X215699Y336450D01*
Y335597D01*
X216437Y336024D01*
X169193D02*
X168455Y336450D01*
Y335597D01*
X169193Y336024D01*
X123917Y323425D02*
X123179Y323851D01*
Y322999D01*
X123917Y323425D01*
X58169Y345866D02*
X57431Y346292D01*
Y345440D01*
X58169Y345866D01*
D39*
X29689Y8689D02*
X36689D01*
X33189Y5189D02*
Y12189D01*
X44689Y8689D02*
X51689D01*
X40689Y-3811D02*
Y31689D01*
X81693Y3937D02*
Y26575D01*
Y3937D02*
X164370D01*
Y26575D01*
X81693D02*
X164370D01*
D40*
X102784Y302587D02*
X110284D01*
X102784D02*
Y311587D01*
X110284D01*
X118063Y302587D02*
X125563D01*
Y311587D01*
X118063D02*
X125563D01*
X169713Y353768D02*
X177213D01*
X169713D02*
Y362768D01*
X177213D01*
X184992Y353768D02*
X192492D01*
Y362768D01*
X184992D02*
X192492D01*
X150169Y315382D02*
Y322882D01*
X141169Y315382D02*
X150169D01*
X141169D02*
Y322882D01*
X150169Y330661D02*
Y338161D01*
X141169D02*
X150169D01*
X141169Y330661D02*
Y338161D01*
X98378Y205287D02*
X105878D01*
Y196287D02*
Y205287D01*
X98378Y196287D02*
X105878D01*
X83098Y205287D02*
X90598D01*
X83098Y196287D02*
Y205287D01*
Y196287D02*
X90598D01*
X213020Y353768D02*
X220520D01*
X213020D02*
Y362768D01*
X220520D01*
X228299Y353768D02*
X235799D01*
Y362768D01*
X228299D02*
X235799D01*
X232846Y315382D02*
Y322882D01*
X223847Y315382D02*
X232846D01*
X223847D02*
Y322882D01*
X232846Y330661D02*
Y338161D01*
X223847D02*
X232846D01*
X223847Y330661D02*
Y338161D01*
X218504Y330315D02*
Y333465D01*
X215354D02*
X218504D01*
X206693Y330315D02*
Y333465D01*
X209842D01*
X171260Y330315D02*
Y333465D01*
X168110D02*
X171260D01*
X159449Y330315D02*
Y333465D01*
X162598D01*
X189539Y315382D02*
Y322882D01*
X180539Y315382D02*
X189539D01*
X180539D02*
Y322882D01*
X189539Y330661D02*
Y338161D01*
X180539D02*
X189539D01*
X180539Y330661D02*
Y338161D01*
X138358Y315382D02*
Y322882D01*
X129358Y315382D02*
X138358D01*
X129358D02*
Y322882D01*
X138358Y330661D02*
Y338161D01*
X129358D02*
X138358D01*
X129358Y330661D02*
Y338161D01*
X117717Y320866D02*
X120866D01*
Y324016D01*
X117717Y332677D02*
X120866D01*
Y329528D02*
Y332677D01*
X86713Y374213D02*
X96949D01*
X84941Y359842D02*
Y372441D01*
X126279Y358071D02*
Y374213D01*
X115650Y358071D02*
X126279D01*
X115650Y374213D02*
X126279D01*
X84941Y372441D02*
X86713Y374232D01*
X84941Y359842D02*
X86713Y358071D01*
X96949D01*
X35531Y374213D02*
X45768D01*
X33760Y359842D02*
Y372441D01*
X75098Y358071D02*
Y374213D01*
X64468Y358071D02*
X75098D01*
X64468Y374213D02*
X75098D01*
X33760Y372441D02*
X35531Y374232D01*
X33760Y359842D02*
X35531Y358071D01*
X45768D01*
X60236Y348425D02*
X63386D01*
X60236Y345276D02*
Y348425D01*
Y336614D02*
X63386D01*
X60236D02*
Y339764D01*
X87177Y327193D02*
Y334693D01*
X78177Y327193D02*
X87177D01*
X78177D02*
Y334693D01*
X87177Y342472D02*
Y349972D01*
X78177D02*
X87177D01*
X78177Y342472D02*
Y349972D01*
X55539Y196287D02*
X63039D01*
X55539D02*
Y205287D01*
X63039D01*
X70819Y196287D02*
X78319D01*
Y205287D01*
X70819D02*
X78319D01*
D42*
X60524Y63538D02*
Y61539D01*
X59524Y60539D01*
X58524Y61539D01*
Y63538D01*
X55525Y62539D02*
X57025D01*
X57525Y62039D01*
Y61039D01*
X57025Y60539D01*
X55525D01*
X52526Y62539D02*
X54026D01*
X54526Y62039D01*
Y61039D01*
X54026Y60539D01*
X52526D01*
X117126Y298228D02*
Y301227D01*
X115627D01*
X115127Y300728D01*
Y299728D01*
X115627Y299228D01*
X117126D01*
X116126D02*
X115127Y298228D01*
X114127D02*
X113127D01*
X113627D01*
Y301227D01*
X114127Y300728D01*
X110128Y298228D02*
Y301227D01*
X111628Y299728D01*
X109628D01*
X85630Y321850D02*
Y324849D01*
X84130D01*
X83631Y324350D01*
Y323350D01*
X84130Y322850D01*
X85630D01*
X84630D02*
X83631Y321850D01*
X82631D02*
X81631D01*
X82131D01*
Y324849D01*
X82631Y324350D01*
X80132D02*
X79632Y324849D01*
X78632D01*
X78132Y324350D01*
Y323850D01*
X78632Y323350D01*
X79132D01*
X78632D01*
X78132Y322850D01*
Y322350D01*
X78632Y321850D01*
X79632D01*
X80132Y322350D01*
X234252Y324803D02*
X237251D01*
Y326303D01*
X236751Y326802D01*
X235752D01*
X235252Y326303D01*
Y324803D01*
Y325803D02*
X234252Y326802D01*
X237251Y327802D02*
Y329802D01*
X236751D01*
X234752Y327802D01*
X234252D01*
X190945Y324803D02*
X193944D01*
Y326303D01*
X193444Y326802D01*
X192444D01*
X191945Y326303D01*
Y324803D01*
Y325803D02*
X190945Y326802D01*
X193944Y329802D02*
X193444Y328802D01*
X192444Y327802D01*
X191445D01*
X190945Y328302D01*
Y329302D01*
X191445Y329802D01*
X191945D01*
X192444Y329302D01*
Y327802D01*
X226378Y365158D02*
Y368157D01*
X224878D01*
X224379Y367657D01*
Y366657D01*
X224878Y366157D01*
X226378D01*
X225378D02*
X224379Y365158D01*
X221380Y368157D02*
X223379D01*
Y366657D01*
X222379Y367157D01*
X221879D01*
X221380Y366657D01*
Y365657D01*
X221879Y365158D01*
X222879D01*
X223379Y365657D01*
X183071Y364173D02*
Y367172D01*
X181571D01*
X181071Y366672D01*
Y365673D01*
X181571Y365173D01*
X183071D01*
X182071D02*
X181071Y364173D01*
X178572D02*
Y367172D01*
X180072Y365673D01*
X178073D01*
X148622Y310039D02*
Y313038D01*
X147123D01*
X146623Y312539D01*
Y311539D01*
X147123Y311039D01*
X148622D01*
X147622D02*
X146623Y310039D01*
X145623Y312539D02*
X145123Y313038D01*
X144123D01*
X143624Y312539D01*
Y312039D01*
X144123Y311539D01*
X144623D01*
X144123D01*
X143624Y311039D01*
Y310539D01*
X144123Y310039D01*
X145123D01*
X145623Y310539D01*
X118079Y315460D02*
Y317460D01*
X118579Y317960D01*
X119579D01*
X120079Y317460D01*
Y315460D01*
X119579Y314961D01*
X118579D01*
X119079Y315960D02*
X118079Y314961D01*
X118579D02*
X118079Y315460D01*
X115080Y317960D02*
X117080D01*
Y316460D01*
X116080Y316960D01*
X115580D01*
X115080Y316460D01*
Y315460D01*
X115580Y314961D01*
X116580D01*
X117080Y315460D01*
X62961Y330224D02*
Y332224D01*
X63461Y332723D01*
X64461D01*
X64961Y332224D01*
Y330224D01*
X64461Y329724D01*
X63461D01*
X63961Y330724D02*
X62961Y329724D01*
X63461D02*
X62961Y330224D01*
X60462Y329724D02*
Y332723D01*
X61962Y331224D01*
X59962D01*
X212568Y316445D02*
Y318444D01*
X213067Y318944D01*
X214067D01*
X214567Y318444D01*
Y316445D01*
X214067Y315945D01*
X213067D01*
X213567Y316945D02*
X212568Y315945D01*
X213067D02*
X212568Y316445D01*
X209569Y315945D02*
X211568D01*
X209569Y317944D01*
Y318444D01*
X210068Y318944D01*
X211068D01*
X211568Y318444D01*
X165323Y316445D02*
Y318444D01*
X165823Y318944D01*
X166823D01*
X167323Y318444D01*
Y316445D01*
X166823Y315945D01*
X165823D01*
X166323Y316945D02*
X165323Y315945D01*
X165823D02*
X165323Y316445D01*
X164324Y315945D02*
X163324D01*
X163824D01*
Y318944D01*
X164324Y318444D01*
X108268Y378983D02*
Y375984D01*
X106768D01*
X106268Y376484D01*
Y378483D01*
X106768Y378983D01*
X108268D01*
X103269D02*
X105269D01*
Y377484D01*
X104269Y377984D01*
X103769D01*
X103269Y377484D01*
Y376484D01*
X103769Y375984D01*
X104769D01*
X105269Y376484D01*
X57087Y377999D02*
Y375000D01*
X55587D01*
X55087Y375500D01*
Y377499D01*
X55587Y377999D01*
X57087D01*
X54088Y375000D02*
X53088D01*
X53588D01*
Y377999D01*
X54088Y377499D01*
X94457Y210176D02*
X94957Y210676D01*
X95957D01*
X96457Y210176D01*
Y208177D01*
X95957Y207677D01*
X94957D01*
X94457Y208177D01*
X93458Y210676D02*
X91458D01*
Y210176D01*
X93458Y208177D01*
Y207677D01*
X66898Y209192D02*
X67398Y209692D01*
X68398D01*
X68898Y209192D01*
Y207193D01*
X68398Y206693D01*
X67398D01*
X66898Y207193D01*
X63899Y209692D02*
X64899Y209192D01*
X65899Y208192D01*
Y207193D01*
X65399Y206693D01*
X64399D01*
X63899Y207193D01*
Y207693D01*
X64399Y208192D01*
X65899D01*
X133827Y312539D02*
X134327Y313038D01*
X135327D01*
X135827Y312539D01*
Y310539D01*
X135327Y310039D01*
X134327D01*
X133827Y310539D01*
X131328Y310039D02*
Y313038D01*
X132828Y311539D01*
X130828D01*
X212598Y135873D02*
X210599D01*
X211599D01*
Y132874D01*
X209599Y134873D02*
Y132874D01*
Y133874D01*
X209100Y134373D01*
X208600Y134873D01*
X208100D01*
X206600Y132874D02*
X205601D01*
X206101D01*
Y134873D01*
X206600D01*
X204101Y132874D02*
Y134873D01*
X203601D01*
X203101Y134373D01*
Y132874D01*
Y134373D01*
X202602Y134873D01*
X202102Y134373D01*
Y132874D01*
X215551Y95003D02*
X213552D01*
X212552Y96503D02*
Y94504D01*
X211553Y93504D01*
X210553Y94504D01*
Y96503D01*
X209053Y93504D02*
X208054D01*
X207554Y94004D01*
Y95003D01*
X208054Y95503D01*
X209053D01*
X209553Y95003D01*
Y94004D01*
X209053Y93504D01*
X206554Y95503D02*
Y94004D01*
X206054Y93504D01*
X204555D01*
Y95503D01*
X203055Y96003D02*
Y95503D01*
X203555D01*
X202555D01*
X203055D01*
Y94004D01*
X202555Y93504D01*
X216535Y53665D02*
X214536D01*
X215536Y54664D02*
Y52665D01*
X213536Y55164D02*
Y53165D01*
X212537Y52165D01*
X211537Y53165D01*
Y55164D01*
X210037Y52165D02*
X209038D01*
X208538Y52665D01*
Y53665D01*
X209038Y54165D01*
X210037D01*
X210537Y53665D01*
Y52665D01*
X210037Y52165D01*
X207538Y54165D02*
Y52665D01*
X207038Y52165D01*
X205539D01*
Y54165D01*
X204040Y54664D02*
Y54165D01*
X204539D01*
X203540D01*
X204040D01*
Y52665D01*
X203540Y52165D01*
X67398Y124062D02*
X68398D01*
X68898Y123562D01*
Y121563D01*
X68398Y121063D01*
X67398D01*
X66898Y121563D01*
Y123562D01*
X67398Y124062D01*
X65899Y121063D02*
Y123062D01*
X64399D01*
X63899Y122563D01*
Y121063D01*
X62900D02*
X60900Y123062D01*
X58401Y124062D02*
X59401D01*
X59900Y123562D01*
Y121563D01*
X59401Y121063D01*
X58401D01*
X57901Y121563D01*
Y123562D01*
X58401Y124062D01*
X56402Y121063D02*
Y123562D01*
Y122563D01*
X56902D01*
X55902D01*
X56402D01*
Y123562D01*
X55902Y124062D01*
X53903Y121063D02*
Y123562D01*
Y122563D01*
X54402D01*
X53403D01*
X53903D01*
Y123562D01*
X53403Y124062D01*
X61977Y84192D02*
X62477Y84692D01*
X63477D01*
X63976Y84192D01*
Y82193D01*
X63477Y81693D01*
X62477D01*
X61977Y82193D01*
Y83192D01*
X62977D01*
X60977Y81693D02*
Y84692D01*
X58978Y81693D01*
Y84692D01*
X57978D02*
Y81693D01*
X56479D01*
X55979Y82193D01*
Y84192D01*
X56479Y84692D01*
X57978D01*
D45*
X158593Y23132D02*
X159260Y23799D01*
X160593D01*
X161259Y23132D01*
Y22466D01*
X160593Y21799D01*
X159260D01*
X158593Y21133D01*
Y20466D01*
X159260Y19800D01*
X160593D01*
X161259Y20466D01*
X157260Y23799D02*
Y20466D01*
X156594Y19800D01*
X155261D01*
X154595Y20466D01*
Y23799D01*
X153262Y19800D02*
Y23799D01*
X151262D01*
X150596Y23132D01*
Y21799D01*
X151262Y21133D01*
X153262D01*
X149263Y19800D02*
Y22466D01*
X147930Y23799D01*
X146597Y22466D01*
Y19800D01*
Y21799D01*
X149263D01*
X142598Y23799D02*
X145264D01*
Y19800D01*
X142598D01*
X145264Y21799D02*
X143931D01*
X141265Y19800D02*
Y23799D01*
X139266D01*
X138600Y23132D01*
Y21799D01*
X139266Y21133D01*
X141265D01*
X139933D02*
X138600Y19800D01*
X135267Y23799D02*
X136600D01*
X137267Y23132D01*
Y20466D01*
X136600Y19800D01*
X135267D01*
X134601Y20466D01*
Y23132D01*
X135267Y23799D01*
X129269Y19800D02*
Y23799D01*
X127270D01*
X126604Y23132D01*
Y21799D01*
X127270Y21133D01*
X129269D01*
X127936D02*
X126604Y19800D01*
X123271Y23799D02*
X124604D01*
X125271Y23132D01*
Y20466D01*
X124604Y19800D01*
X123271D01*
X122605Y20466D01*
Y23132D01*
X123271Y23799D01*
X121272D02*
Y19800D01*
X119273D01*
X118606Y20466D01*
Y21133D01*
X119273Y21799D01*
X121272D01*
X119273D01*
X118606Y22466D01*
Y23132D01*
X119273Y23799D01*
X121272D01*
X115274D02*
X116607D01*
X117273Y23132D01*
Y20466D01*
X116607Y19800D01*
X115274D01*
X114608Y20466D01*
Y23132D01*
X115274Y23799D01*
X113275D02*
X110609D01*
X111942D01*
Y19800D01*
X109276Y23799D02*
X107943D01*
X108609D01*
Y19800D01*
X109276D01*
X107943D01*
X105944Y23799D02*
Y19800D01*
Y21133D01*
X103278Y23799D01*
X105277Y21799D01*
X103278Y19800D01*
X95280Y23132D02*
X95947Y23799D01*
X97280D01*
X97946Y23132D01*
Y20466D01*
X97280Y19800D01*
X95947D01*
X95280Y20466D01*
X93947Y23799D02*
Y19800D01*
X91282D01*
X89949Y23799D02*
Y20466D01*
X89282Y19800D01*
X87949D01*
X87283Y20466D01*
Y23799D01*
X85950D02*
Y19800D01*
X83951D01*
X83284Y20466D01*
Y21133D01*
X83951Y21799D01*
X85950D01*
X83951D01*
X83284Y22466D01*
Y23132D01*
X83951Y23799D01*
X85950D01*
X140932Y16414D02*
X141599Y17080D01*
X142932D01*
X143598Y16414D01*
Y13748D01*
X142932Y13081D01*
X141599D01*
X140932Y13748D01*
X139599Y13081D02*
Y15747D01*
X138267Y17080D01*
X136934Y15747D01*
Y13081D01*
Y15081D01*
X139599D01*
X135601Y13081D02*
Y17080D01*
X133601D01*
X132935Y16414D01*
Y15081D01*
X133601Y14414D01*
X135601D01*
X134268D02*
X132935Y13081D01*
X131602Y17080D02*
X128936D01*
X130269D01*
Y13081D01*
X124937Y17080D02*
X127603D01*
Y13081D01*
X124937D01*
X127603Y15081D02*
X126270D01*
X119606Y13081D02*
Y17080D01*
X117606D01*
X116940Y16414D01*
Y15081D01*
X117606Y14414D01*
X119606D01*
X115607Y17080D02*
Y13081D01*
Y15081D01*
X112941D01*
Y17080D01*
Y13081D01*
X111608D02*
Y15747D01*
X110275Y17080D01*
X108943Y15747D01*
Y13081D01*
Y15081D01*
X111608D01*
X107610Y13081D02*
Y17080D01*
X105610D01*
X104944Y16414D01*
Y15081D01*
X105610Y14414D01*
X107610D01*
X106277D02*
X104944Y13081D01*
X100945Y17080D02*
X103611D01*
Y13081D01*
X100945D01*
X103611Y15081D02*
X102278D01*
X153928Y6363D02*
X156594D01*
X153928Y9029D01*
Y9695D01*
X154595Y10362D01*
X155928D01*
X156594Y9695D01*
X152595D02*
X151929Y10362D01*
X150596D01*
X149929Y9695D01*
Y7029D01*
X150596Y6363D01*
X151929D01*
X152595Y7029D01*
Y9695D01*
X148597Y6363D02*
X145931Y9029D01*
X144598Y9695D02*
X143931Y10362D01*
X142598D01*
X141932Y9695D01*
Y7029D01*
X142598Y6363D01*
X143931D01*
X144598Y7029D01*
Y9695D01*
X140599D02*
X139933Y10362D01*
X138600D01*
X137933Y9695D01*
Y9029D01*
X138600Y8362D01*
X139266D01*
X138600D01*
X137933Y7696D01*
Y7029D01*
X138600Y6363D01*
X139933D01*
X140599Y7029D01*
X136600Y6363D02*
X133935Y9029D01*
X129936Y6363D02*
X132602D01*
X129936Y9029D01*
Y9695D01*
X130602Y10362D01*
X131935D01*
X132602Y9695D01*
X128603D02*
X127936Y10362D01*
X126604D01*
X125937Y9695D01*
Y7029D01*
X126604Y6363D01*
X127936D01*
X128603Y7029D01*
Y9695D01*
X121938Y6363D02*
X124604D01*
X121938Y9029D01*
Y9695D01*
X122605Y10362D01*
X123938D01*
X124604Y9695D01*
X120606Y6363D02*
X119273D01*
X119939D01*
Y10362D01*
X120606Y9695D01*
X113275Y8362D02*
X110609D01*
X105277Y10362D02*
Y7696D01*
X103944Y6363D01*
X102611Y7696D01*
Y10362D01*
X97280Y6363D02*
X95947D01*
X96613D01*
Y10362D01*
X97280Y9695D01*
X93947Y6363D02*
Y7029D01*
X93281D01*
Y6363D01*
X93947D01*
X90615Y9695D02*
X89949Y10362D01*
X88616D01*
X87949Y9695D01*
Y7029D01*
X88616Y6363D01*
X89949D01*
X90615Y7029D01*
Y9695D01*
M02*
