G04 Layer_Color=32768*
%FSLAX25Y25*%
%MOIN*%
G70*
G01*
G75*
%ADD39C,0.01000*%
%ADD70C,0.00600*%
D39*
X280528Y-11811D02*
X300213D01*
X280528Y381890D02*
X300213D01*
X299213Y-11811D02*
Y165345D01*
Y201534D02*
Y381890D01*
Y-11811D02*
X301213Y-5811D01*
X297213D02*
X299213Y-11811D01*
X297213Y375890D02*
X299213Y381890D01*
X301213Y375890D01*
X-11811Y382890D02*
Y401590D01*
X279528Y382890D02*
Y401590D01*
X-11811Y400591D02*
X116663D01*
X147854D02*
X279528D01*
X-11811D02*
X-5811Y398590D01*
X-11811Y400591D02*
X-5811Y402591D01*
X273528D02*
X279528Y400591D01*
X273528Y398590D02*
X279528Y400591D01*
D70*
X303811Y166945D02*
Y168944D01*
Y167944D01*
X297813D01*
X298813Y166945D01*
Y171943D02*
X297813Y172943D01*
Y174942D01*
X298813Y175942D01*
X302812D01*
X303811Y174942D01*
Y172943D01*
X302812Y171943D01*
X298813D01*
Y177941D02*
X297813Y178941D01*
Y180940D01*
X298813Y181940D01*
X302812D01*
X303811Y180940D01*
Y178941D01*
X302812Y177941D01*
X298813D01*
X304811Y184939D02*
X303811Y185939D01*
X302812D01*
Y184939D01*
X303811D01*
Y185939D01*
X304811Y184939D01*
X305811Y183939D01*
X298813Y189937D02*
X297813Y190937D01*
Y192936D01*
X298813Y193936D01*
X302812D01*
X303811Y192936D01*
Y190937D01*
X302812Y189937D01*
X298813D01*
Y195935D02*
X297813Y196935D01*
Y198934D01*
X298813Y199934D01*
X302812D01*
X303811Y198934D01*
Y196935D01*
X302812Y195935D01*
X298813D01*
X118263Y401990D02*
X122262D01*
Y400990D01*
X118263Y396991D01*
Y395992D01*
X127260D02*
Y401990D01*
X124261Y398991D01*
X128260D01*
X131259Y394992D02*
X132258Y395992D01*
Y396991D01*
X131259D01*
Y395992D01*
X132258D01*
X131259Y394992D01*
X130259Y393992D01*
X136257Y400990D02*
X137257Y401990D01*
X139256D01*
X140256Y400990D01*
Y396991D01*
X139256Y395992D01*
X137257D01*
X136257Y396991D01*
Y400990D01*
X142255D02*
X143255Y401990D01*
X145254D01*
X146254Y400990D01*
Y396991D01*
X145254Y395992D01*
X143255D01*
X142255Y396991D01*
Y400990D01*
M02*
