M48
;Layer_Color=9474304
;FILE_FORMAT=2:5
INCH,TZ
;TYPE=PLATED
T1F00S00C0.01968
T2F00S00C0.02800
T3F00S00C0.03000
T4F00S00C0.03150
T5F00S00C0.03543
T6F00S00C0.04000
T7F00S00C0.05906
T8F00S00C0.05906
T9F00S00C0.07087
T10F00S00C0.11811
T11F00S00C0.12598
T12F00S00C0.13386
;TYPE=NON_PLATED
T13F00S00C0.11811
T14F00S00C0.12598
%
T01
X183071Y229331
X154528Y320866
T02
X50689Y275689
Y283189
Y291063
X68189
Y283189
Y275689
X236221Y182087
T03
X129921Y177165
X65000Y188189
X75000
X85000
X129921Y187165
Y197165
X138976Y241024
X148976
X158976
X168976
X178976
X188976
X198976
X208976
X218976
X208976Y261024
X198976
Y271024
X208976
X188976
Y261024
X178976
X168976
X158976
X148976
Y271024
X158976
X168976
X178976
Y301024
X168976
X158976
X148976
X138976
X188976
X198976
X208976
X218976
X228976
X238976
X248976
X258976
X268976
Y241024
X258976
X248976
X238976
X228976
T04
X15748Y216535
Y226378
Y236221
T05
X25689Y183189
Y193032
X100689Y345689
X110531
X133189
X143032
X164370Y346457
X174213
X184370
X207677
X217520
X227677
X45276Y346457
X35433
T06
X90551Y161417
X103937
T07
X225689Y53189
Y93189
Y133189
X45689Y123189
Y83189
Y63189
T08
X11811Y47244
Y136221
T09
X43413Y160689
X65067
T10
X11811Y92244
T11
X28189Y23189
X53189
T12
X28189Y-1811
X53189
T13
X14673Y160689
T14
X0Y0
X267717
Y370079
X0
M30
