G04 Layer_Physical_Order=2*
G04 Layer_Color=16711680*
%FSLAX25Y25*%
%MOIN*%
G70*
G01*
G75*
%ADD10R,0.05906X0.05906*%
%ADD12R,0.05906X0.05906*%
%ADD14R,0.02362X0.05709*%
%ADD16C,0.00984*%
%ADD20C,0.03937*%
%ADD21C,0.20945*%
%ADD22C,0.06000*%
%ADD23O,0.23622X0.19685*%
%ADD24C,0.13386*%
%ADD25O,0.08000X0.06000*%
%ADD26C,0.05906*%
%ADD27R,0.11811X0.15748*%
%ADD28O,0.11811X0.15748*%
%ADD29C,0.11811*%
%ADD30O,0.09843X0.07874*%
%ADD31C,0.07874*%
%ADD32O,0.07000X0.12000*%
%ADD33C,0.09843*%
%ADD34C,0.05000*%
%ADD35C,0.03937*%
%ADD36R,0.05709X0.02362*%
%ADD37R,0.09449X0.12992*%
%ADD38C,0.11811*%
G36*
X280689Y381890D02*
Y370589D01*
X280189Y370569D01*
X280073Y372036D01*
X279615Y373945D01*
X278864Y375759D01*
X277838Y377432D01*
X276563Y378925D01*
X275070Y380200D01*
X273396Y381226D01*
X272978Y381399D01*
X273076Y381890D01*
X280689D01*
D02*
G37*
G36*
X262357D02*
X262455Y381399D01*
X262037Y381226D01*
X260363Y380200D01*
X258870Y378925D01*
X257595Y377432D01*
X256569Y375759D01*
X255818Y373945D01*
X255360Y372036D01*
X255205Y370079D01*
X255360Y368122D01*
X255818Y366213D01*
X256569Y364399D01*
X257595Y362725D01*
X258870Y361232D01*
X260363Y359957D01*
X262037Y358931D01*
X263850Y358180D01*
X265759Y357722D01*
X267717Y357568D01*
X269674Y357722D01*
X271583Y358180D01*
X273396Y358931D01*
X275070Y359957D01*
X276563Y361232D01*
X277838Y362725D01*
X278864Y364399D01*
X279615Y366213D01*
X280073Y368122D01*
X280189Y369588D01*
X280689Y369569D01*
Y510D01*
X280189Y490D01*
X280073Y1957D01*
X279615Y3866D01*
X278864Y5680D01*
X277838Y7354D01*
X276563Y8847D01*
X275070Y10122D01*
X273396Y11147D01*
X271583Y11899D01*
X269674Y12357D01*
X267717Y12511D01*
X265759Y12357D01*
X263850Y11899D01*
X262037Y11147D01*
X260363Y10122D01*
X258870Y8847D01*
X257595Y7354D01*
X256569Y5680D01*
X255818Y3866D01*
X255360Y1957D01*
X255205Y0D01*
X255360Y-1957D01*
X255818Y-3866D01*
X256569Y-5680D01*
X257595Y-7354D01*
X258870Y-8847D01*
X260363Y-10122D01*
X262037Y-11147D01*
X262455Y-11321D01*
X262357Y-11811D01*
X5359D01*
X5262Y-11321D01*
X5680Y-11147D01*
X7354Y-10122D01*
X8847Y-8847D01*
X10122Y-7354D01*
X11147Y-5680D01*
X11899Y-3866D01*
X12357Y-1957D01*
X12511Y0D01*
X12357Y1957D01*
X11899Y3866D01*
X11147Y5680D01*
X10122Y7354D01*
X8847Y8847D01*
X7354Y10122D01*
X5680Y11147D01*
X3866Y11899D01*
X1957Y12357D01*
X0Y12511D01*
X-1957Y12357D01*
X-3866Y11899D01*
X-5680Y11147D01*
X-7354Y10122D01*
X-8847Y8847D01*
X-10122Y7354D01*
X-11147Y5680D01*
X-11321Y5262D01*
X-11811Y5359D01*
X-11811Y79678D01*
X-11311Y79752D01*
X-11276Y79637D01*
X-10542Y78264D01*
X-9554Y77060D01*
X13903Y53603D01*
X13676Y53123D01*
X12795Y53210D01*
X10827D01*
X9663Y53095D01*
X8544Y52756D01*
X7512Y52204D01*
X6608Y51463D01*
X5866Y50559D01*
X5315Y49527D01*
X4976Y48408D01*
X4861Y47244D01*
X4976Y46080D01*
X5315Y44961D01*
X5866Y43930D01*
X6608Y43026D01*
X7512Y42284D01*
X8544Y41732D01*
X9663Y41393D01*
X10827Y41278D01*
X12795D01*
X13959Y41393D01*
X15078Y41732D01*
X16110Y42284D01*
X17014Y43026D01*
X17756Y43930D01*
X18307Y44961D01*
X18646Y46080D01*
X18761Y47244D01*
X18674Y48125D01*
X19154Y48352D01*
X25879Y41627D01*
X25879Y41627D01*
X27083Y40639D01*
X28456Y39905D01*
X29946Y39453D01*
X31496Y39300D01*
X219744D01*
X221294Y39453D01*
X222784Y39905D01*
X224157Y40639D01*
X225361Y41627D01*
X231306Y47572D01*
X232294Y48776D01*
X233028Y50149D01*
X233480Y51639D01*
X233633Y53189D01*
X233480Y54739D01*
X233028Y56229D01*
X232294Y57602D01*
X231306Y58806D01*
X230102Y59794D01*
X228729Y60528D01*
X227239Y60980D01*
X225689Y61133D01*
X224139Y60980D01*
X222649Y60528D01*
X221276Y59794D01*
X220072Y58806D01*
X216454Y55188D01*
X34786D01*
X4007Y85968D01*
Y88831D01*
X4078Y88880D01*
X4730Y88721D01*
X5206Y87831D01*
X6194Y86627D01*
X7398Y85639D01*
X8771Y84905D01*
X10261Y84453D01*
X11811Y84300D01*
X13361Y84453D01*
X14851Y84905D01*
X16224Y85639D01*
X17428Y86627D01*
X18416Y87831D01*
X19150Y89204D01*
X19602Y90694D01*
X19755Y92244D01*
X19602Y93794D01*
X19150Y95284D01*
X18416Y96657D01*
X17428Y97861D01*
X16224Y98849D01*
X14851Y99583D01*
X13361Y100035D01*
X11811Y100188D01*
X10261Y100035D01*
X8771Y99583D01*
X7398Y98849D01*
X6194Y97861D01*
X5206Y96657D01*
X4730Y95767D01*
X4078Y95608D01*
X4007Y95657D01*
Y193560D01*
X21365Y210918D01*
X22353Y212122D01*
X23087Y213495D01*
X23539Y214986D01*
X23692Y216535D01*
X23539Y218085D01*
X23087Y219575D01*
X22353Y220949D01*
X21365Y222152D01*
X20410Y222937D01*
X21115Y223856D01*
X21619Y225073D01*
X21791Y226378D01*
X21619Y227683D01*
X21115Y228900D01*
X20314Y229944D01*
X19270Y230745D01*
X18053Y231249D01*
X16748Y231421D01*
X14748D01*
X13443Y231249D01*
X12227Y230745D01*
X11182Y229944D01*
X10380Y228900D01*
X9877Y227683D01*
X9705Y226378D01*
X9877Y225073D01*
X10380Y223856D01*
X11086Y222937D01*
X10131Y222152D01*
X-9554Y202467D01*
X-10542Y201264D01*
X-11276Y199890D01*
X-11311Y199775D01*
X-11811Y199849D01*
X-11811Y364720D01*
X-11321Y364817D01*
X-11147Y364399D01*
X-10122Y362725D01*
X-8847Y361232D01*
X-7354Y359957D01*
X-5680Y358931D01*
X-3866Y358180D01*
X-1957Y357722D01*
X0Y357568D01*
X1957Y357722D01*
X3866Y358180D01*
X5680Y358931D01*
X7354Y359957D01*
X8847Y361232D01*
X10122Y362725D01*
X11147Y364399D01*
X11899Y366213D01*
X12357Y368122D01*
X12511Y370079D01*
X12357Y372036D01*
X11899Y373945D01*
X11147Y375759D01*
X10122Y377432D01*
X8847Y378925D01*
X7354Y380200D01*
X5680Y381226D01*
X5262Y381399D01*
X5359Y381890D01*
X262357Y381890D01*
D02*
G37*
G36*
X280689Y-510D02*
Y-11811D01*
X273076D01*
X272978Y-11321D01*
X273396Y-11147D01*
X275070Y-10122D01*
X276563Y-8847D01*
X277838Y-7354D01*
X278864Y-5680D01*
X279615Y-3866D01*
X280073Y-1957D01*
X280189Y-490D01*
X280689Y-510D01*
D02*
G37*
%LPC*%
G36*
X126705Y374638D02*
X113256D01*
Y365078D01*
X107859Y359681D01*
X107222Y358852D01*
X106823Y357886D01*
X106686Y356850D01*
Y348814D01*
X106205Y348187D01*
X105881Y347404D01*
X105340D01*
X105015Y348187D01*
X104692Y348608D01*
Y358071D01*
X104555Y359107D01*
X104321Y359672D01*
X104156Y360072D01*
X103519Y360901D01*
X99343Y365078D01*
Y374638D01*
X85894D01*
Y357646D01*
X95453D01*
X96686Y356413D01*
Y348608D01*
X96363Y348187D01*
X95864Y346982D01*
X95693Y345689D01*
X95864Y344396D01*
X96363Y343191D01*
X97157Y342157D01*
X98191Y341363D01*
X99396Y340864D01*
X100689Y340693D01*
X101982Y340864D01*
X103187Y341363D01*
X104221Y342157D01*
X105015Y343191D01*
X105340Y343974D01*
X105881D01*
X106205Y343191D01*
X106999Y342157D01*
X108034Y341363D01*
X109239Y340864D01*
X109947Y340771D01*
X118734Y331984D01*
Y329953D01*
X117882D01*
Y326213D01*
X115858D01*
X115486Y326498D01*
X114520Y326898D01*
X113484Y327034D01*
X112448Y326898D01*
X111483Y326498D01*
X111111Y326213D01*
X108630D01*
Y319850D01*
X111005D01*
X117060Y313795D01*
Y312039D01*
X116110D01*
Y302134D01*
X117060D01*
Y301181D01*
X117197Y300145D01*
X117596Y299180D01*
X118233Y298351D01*
X130044Y286540D01*
X130873Y285904D01*
X131838Y285504D01*
X132874Y285367D01*
X147638D01*
X148674Y285504D01*
X149639Y285904D01*
X150468Y286540D01*
X160050Y296122D01*
X160282Y296152D01*
X161498Y296656D01*
X162542Y297458D01*
X163344Y298502D01*
X163706Y299376D01*
X164247D01*
X164609Y298502D01*
X164974Y298027D01*
Y295634D01*
X151885Y282546D01*
X121737D01*
X96522Y307760D01*
Y335630D01*
X96386Y336666D01*
X95986Y337631D01*
X95350Y338460D01*
X87630Y346180D01*
Y350425D01*
X77724D01*
Y350263D01*
X67618D01*
X66582Y350126D01*
X65617Y349726D01*
X65245Y349441D01*
X62764D01*
X62369Y349695D01*
Y354051D01*
X65964Y357646D01*
X75524D01*
Y374638D01*
X62075D01*
Y365078D01*
X55536Y358539D01*
X54900Y357710D01*
X54500Y356745D01*
X54363Y355709D01*
Y346522D01*
X51028D01*
X50146Y347404D01*
X50101Y347750D01*
X49602Y348954D01*
X48808Y349989D01*
X47773Y350783D01*
X46569Y351282D01*
X45276Y351452D01*
X43983Y351282D01*
X42778Y350783D01*
X41743Y349989D01*
X40949Y348954D01*
X40625Y348171D01*
X40084D01*
X39759Y348954D01*
X39436Y349376D01*
Y357646D01*
X48161D01*
Y374638D01*
X34713D01*
Y365078D01*
X32603Y362968D01*
X31967Y362139D01*
X31567Y361174D01*
X31430Y360138D01*
Y349376D01*
X31107Y348954D01*
X30608Y347750D01*
X30438Y346457D01*
X30608Y345164D01*
X31107Y343959D01*
X31901Y342924D01*
X32935Y342130D01*
X34140Y341631D01*
X35433Y341461D01*
X36726Y341631D01*
X37931Y342130D01*
X38965Y342924D01*
X39759Y343959D01*
X40084Y344742D01*
X40625D01*
X40949Y343959D01*
X41743Y342924D01*
X42778Y342130D01*
X43983Y341631D01*
X44691Y341538D01*
X46540Y339689D01*
X47369Y339053D01*
X47769Y338888D01*
X48334Y338653D01*
X49370Y338517D01*
X58366D01*
X59402Y338653D01*
X60368Y339053D01*
X60739Y339339D01*
X63221D01*
Y343079D01*
X65245D01*
X65617Y342793D01*
X66582Y342393D01*
X67618Y342257D01*
X77724D01*
Y340520D01*
X81969D01*
X86654Y335835D01*
X86349Y335433D01*
X85946Y335433D01*
X83071D01*
Y332087D01*
X86417D01*
Y334938D01*
X86417Y335364D01*
X86819Y335669D01*
X88517Y333972D01*
Y306102D01*
X88653Y305066D01*
X89053Y304101D01*
X89689Y303272D01*
X117248Y275713D01*
X118077Y275077D01*
X119043Y274677D01*
X120079Y274541D01*
X144807D01*
X145029Y274092D01*
X144609Y273545D01*
X144105Y272329D01*
X143933Y271024D01*
X144105Y269718D01*
X144609Y268502D01*
X145410Y267458D01*
X146455Y266656D01*
X147328Y266294D01*
Y265753D01*
X146455Y265391D01*
X145410Y264590D01*
X144609Y263545D01*
X144105Y262329D01*
X143933Y261024D01*
X144105Y259718D01*
X144609Y258502D01*
X145410Y257458D01*
X146455Y256656D01*
X147671Y256152D01*
X148976Y255980D01*
X150282Y256152D01*
X151498Y256656D01*
X152542Y257458D01*
X153344Y258502D01*
X153706Y259376D01*
X154247D01*
X154609Y258502D01*
X155410Y257458D01*
X156455Y256656D01*
X157671Y256152D01*
X158976Y255980D01*
X160282Y256152D01*
X161498Y256656D01*
X162542Y257458D01*
X163344Y258502D01*
X163706Y259376D01*
X164247D01*
X164609Y258502D01*
X165410Y257458D01*
X166455Y256656D01*
X167671Y256152D01*
X168976Y255980D01*
X170282Y256152D01*
X171498Y256656D01*
X172542Y257458D01*
X173344Y258502D01*
X173706Y259376D01*
X174247D01*
X174609Y258502D01*
X175410Y257458D01*
X176455Y256656D01*
X177671Y256152D01*
X178976Y255980D01*
X180282Y256152D01*
X181498Y256656D01*
X182542Y257458D01*
X183344Y258502D01*
X183706Y259376D01*
X184247D01*
X184609Y258502D01*
X185410Y257458D01*
X186455Y256656D01*
X187671Y256152D01*
X188976Y255980D01*
X190282Y256152D01*
X191498Y256656D01*
X192542Y257458D01*
X193344Y258502D01*
X193706Y259376D01*
X194247D01*
X194609Y258502D01*
X195410Y257458D01*
X196455Y256656D01*
X197671Y256152D01*
X198976Y255980D01*
X200282Y256152D01*
X201498Y256656D01*
X202542Y257458D01*
X203344Y258502D01*
X203706Y259376D01*
X204247D01*
X204609Y258502D01*
X205410Y257458D01*
X206455Y256656D01*
X207671Y256152D01*
X208976Y255980D01*
X210282Y256152D01*
X211498Y256656D01*
X212542Y257458D01*
X213344Y258502D01*
X213848Y259718D01*
X214019Y261024D01*
X213848Y262329D01*
X213344Y263545D01*
X212542Y264590D01*
X211498Y265391D01*
X210624Y265753D01*
Y266294D01*
X211498Y266656D01*
X212542Y267458D01*
X213344Y268502D01*
X213848Y269718D01*
X214019Y271024D01*
X213848Y272329D01*
X213344Y273545D01*
X212542Y274590D01*
X211498Y275391D01*
X210282Y275895D01*
X208976Y276067D01*
X207671Y275895D01*
X206455Y275391D01*
X205958Y275010D01*
X205509Y275231D01*
Y296816D01*
X205958Y297037D01*
X206455Y296656D01*
X207671Y296152D01*
X208976Y295981D01*
X210282Y296152D01*
X211498Y296656D01*
X212542Y297458D01*
X213344Y298502D01*
X213706Y299376D01*
X214247D01*
X214609Y298502D01*
X215410Y297458D01*
X216455Y296656D01*
X217671Y296152D01*
X218976Y295981D01*
X220282Y296152D01*
X221498Y296656D01*
X222542Y297458D01*
X223344Y298502D01*
X223706Y299376D01*
X224247D01*
X224609Y298502D01*
X225410Y297458D01*
X226455Y296656D01*
X227671Y296152D01*
X228976Y295981D01*
X230282Y296152D01*
X231498Y296656D01*
X232542Y297458D01*
X233344Y298502D01*
X233706Y299376D01*
X234247D01*
X234609Y298502D01*
X235410Y297458D01*
X236455Y296656D01*
X237671Y296152D01*
X238976Y295981D01*
X240282Y296152D01*
X241498Y296656D01*
X242542Y297458D01*
X243344Y298502D01*
X243706Y299376D01*
X244247D01*
X244609Y298502D01*
X245410Y297458D01*
X246455Y296656D01*
X247671Y296152D01*
X248976Y295981D01*
X250282Y296152D01*
X251498Y296656D01*
X252542Y297458D01*
X253344Y298502D01*
X253706Y299376D01*
X254247D01*
X254609Y298502D01*
X255410Y297458D01*
X256455Y296656D01*
X257671Y296152D01*
X258976Y295981D01*
X260282Y296152D01*
X261498Y296656D01*
X262542Y297458D01*
X263344Y298502D01*
X263848Y299718D01*
X264019Y301024D01*
X263848Y302329D01*
X263344Y303545D01*
X262542Y304590D01*
X261498Y305391D01*
X260282Y305895D01*
X258976Y306067D01*
X257671Y305895D01*
X256455Y305391D01*
X255410Y304590D01*
X254609Y303545D01*
X254247Y302672D01*
X253706D01*
X253344Y303545D01*
X252542Y304590D01*
X251498Y305391D01*
X250282Y305895D01*
X248976Y306067D01*
X247671Y305895D01*
X246455Y305391D01*
X245410Y304590D01*
X244609Y303545D01*
X244247Y302672D01*
X243706D01*
X243344Y303545D01*
X242542Y304590D01*
X241498Y305391D01*
X240282Y305895D01*
X238976Y306067D01*
X237671Y305895D01*
X236455Y305391D01*
X235410Y304590D01*
X234609Y303545D01*
X234247Y302672D01*
X233706D01*
X233344Y303545D01*
X232542Y304590D01*
X231498Y305391D01*
X230887Y305644D01*
Y314929D01*
X233299D01*
Y324835D01*
X223820D01*
X223613Y325335D01*
X226987Y328709D01*
X233299D01*
Y338614D01*
X223394D01*
Y332302D01*
X220404Y329313D01*
X219520D01*
Y330937D01*
X215779D01*
Y334922D01*
X220143Y339286D01*
X220143Y339286D01*
X220694Y340110D01*
X220887Y341083D01*
Y342798D01*
X221052Y342924D01*
X221846Y343959D01*
X222345Y345164D01*
X222346Y345174D01*
X222851D01*
X222852Y345164D01*
X223351Y343959D01*
X224145Y342924D01*
X225179Y342130D01*
X226384Y341631D01*
X227677Y341461D01*
X228970Y341631D01*
X230175Y342130D01*
X231209Y342924D01*
X231381Y343148D01*
X259558D01*
X273050Y329656D01*
Y302394D01*
X272550Y302294D01*
X272285Y302934D01*
X271678Y303725D01*
X270886Y304332D01*
X269965Y304714D01*
X269370Y304792D01*
Y301024D01*
Y297255D01*
X269965Y297334D01*
X270886Y297715D01*
X271678Y298322D01*
X272285Y299114D01*
X272550Y299753D01*
X273050Y299654D01*
Y248690D01*
X270257Y245898D01*
X268976Y246067D01*
X267671Y245895D01*
X266455Y245391D01*
X265410Y244590D01*
X264609Y243545D01*
X264105Y242329D01*
X263933Y241024D01*
X264102Y239743D01*
X233892Y209533D01*
X233342Y208709D01*
X233148Y207736D01*
X233148Y207736D01*
Y185401D01*
X233011Y185296D01*
X232290Y184356D01*
X231836Y183261D01*
X231682Y182087D01*
X231836Y180912D01*
X232290Y179817D01*
X233011Y178877D01*
X233951Y178156D01*
X235046Y177702D01*
X236221Y177548D01*
X237395Y177702D01*
X238490Y178156D01*
X239430Y178877D01*
X240151Y179817D01*
X240605Y180912D01*
X240759Y182087D01*
X240605Y183261D01*
X240151Y184356D01*
X239430Y185296D01*
X238490Y186017D01*
X238230Y186125D01*
Y206684D01*
X267695Y236149D01*
X268976Y235981D01*
X270282Y236152D01*
X271498Y236656D01*
X272542Y237458D01*
X273344Y238502D01*
X273848Y239718D01*
X274020Y241024D01*
X273851Y242305D01*
X277387Y245841D01*
X277938Y246665D01*
X278132Y247638D01*
X278132Y247638D01*
Y330709D01*
X277938Y331681D01*
X277387Y332505D01*
X277387Y332505D01*
X262407Y347486D01*
X261583Y348037D01*
X260610Y348230D01*
X260610Y348230D01*
X234121D01*
X233804Y348616D01*
X233840Y348799D01*
X233840Y348799D01*
Y353315D01*
X236252D01*
Y363221D01*
X229940D01*
X227190Y365970D01*
X226366Y366521D01*
X225394Y366714D01*
X225394Y366714D01*
X193898D01*
X192925Y366521D01*
X192101Y365970D01*
X192101Y365970D01*
X189351Y363221D01*
X183039D01*
Y353315D01*
X185451D01*
Y351689D01*
X185075Y351359D01*
X184370Y351452D01*
X183077Y351282D01*
X181872Y350783D01*
X180838Y349989D01*
X180044Y348954D01*
X179545Y347750D01*
X179543Y347740D01*
X179039D01*
X179038Y347750D01*
X178539Y348954D01*
X177745Y349989D01*
X176754Y350750D01*
Y353315D01*
X179165D01*
Y363221D01*
X169260D01*
Y353315D01*
X171672D01*
Y350750D01*
X170680Y349989D01*
X169886Y348954D01*
X169387Y347750D01*
X169217Y346457D01*
X169387Y345164D01*
X169886Y343959D01*
X170103Y343677D01*
X166615Y340189D01*
X162173D01*
Y333250D01*
X157480D01*
X157480Y333250D01*
X156584Y333071D01*
X156084Y333294D01*
Y347441D01*
X156084Y347441D01*
X155891Y348413D01*
X155340Y349238D01*
X155340Y349238D01*
X149434Y355143D01*
X148610Y355694D01*
X147638Y355887D01*
X147638Y355887D01*
X138779D01*
X137807Y355694D01*
X136983Y355143D01*
X136983Y355143D01*
X132423Y350584D01*
X131896Y350514D01*
X130691Y350015D01*
X129657Y349221D01*
X128863Y348187D01*
X128364Y346982D01*
X128193Y345689D01*
X128364Y344396D01*
X128863Y343191D01*
X129657Y342157D01*
X130691Y341363D01*
X131896Y340864D01*
X133189Y340693D01*
X134000Y340800D01*
X134233Y340327D01*
X132521Y338614D01*
X128905D01*
Y332302D01*
X127201Y330597D01*
X126739Y330789D01*
Y333642D01*
X126603Y334678D01*
X126203Y335643D01*
X125567Y336472D01*
X115402Y346636D01*
X115357Y346982D01*
X114858Y348187D01*
X114692Y348403D01*
Y355192D01*
X117145Y357646D01*
X126705D01*
Y374638D01*
D02*
G37*
G36*
X164764Y350177D02*
Y346850D01*
X168091D01*
X168014Y347433D01*
X167637Y348343D01*
X167038Y349124D01*
X166256Y349724D01*
X165347Y350101D01*
X164764Y350177D01*
D02*
G37*
G36*
X163976D02*
X163394Y350101D01*
X162484Y349724D01*
X161703Y349124D01*
X161103Y348343D01*
X160726Y347433D01*
X160650Y346850D01*
X163976D01*
Y350177D01*
D02*
G37*
G36*
X168091Y346063D02*
X164764D01*
Y342736D01*
X165347Y342813D01*
X166256Y343190D01*
X167038Y343789D01*
X167637Y344570D01*
X168014Y345480D01*
X168091Y346063D01*
D02*
G37*
G36*
X163976D02*
X160650D01*
X160726Y345480D01*
X161103Y344570D01*
X161703Y343789D01*
X162484Y343190D01*
X163394Y342813D01*
X163976Y342736D01*
Y346063D01*
D02*
G37*
G36*
X71260Y340748D02*
X68012D01*
Y339173D01*
X71260D01*
Y340748D01*
D02*
G37*
G36*
X67224D02*
X63976D01*
Y339173D01*
X67224D01*
Y340748D01*
D02*
G37*
G36*
X71260Y338386D02*
X68012D01*
Y336811D01*
X71260D01*
Y338386D01*
D02*
G37*
G36*
X67224D02*
X63976D01*
Y336811D01*
X67224D01*
Y338386D01*
D02*
G37*
G36*
X82284Y335433D02*
X78937D01*
Y332087D01*
X82284D01*
Y335433D01*
D02*
G37*
G36*
X117126Y332480D02*
X113878D01*
Y330906D01*
X117126D01*
Y332480D01*
D02*
G37*
G36*
X113091D02*
X109843D01*
Y330906D01*
X113091D01*
Y332480D01*
D02*
G37*
G36*
X117126Y330118D02*
X113878D01*
Y328543D01*
X117126D01*
Y330118D01*
D02*
G37*
G36*
X113091D02*
X109843D01*
Y328543D01*
X113091D01*
Y330118D01*
D02*
G37*
G36*
X86417Y331299D02*
X83071D01*
Y327953D01*
X86417D01*
Y331299D01*
D02*
G37*
G36*
X82284D02*
X78937D01*
Y327953D01*
X82284D01*
Y331299D01*
D02*
G37*
G36*
X111024Y310827D02*
X107677D01*
Y307480D01*
X111024D01*
Y310827D01*
D02*
G37*
G36*
X106890D02*
X103543D01*
Y307480D01*
X106890D01*
Y310827D01*
D02*
G37*
G36*
X111024Y306693D02*
X107677D01*
Y303346D01*
X111024D01*
Y306693D01*
D02*
G37*
G36*
X106890D02*
X103543D01*
Y303346D01*
X106890D01*
Y306693D01*
D02*
G37*
G36*
X268583Y304792D02*
X267988Y304714D01*
X267066Y304332D01*
X266275Y303725D01*
X265668Y302934D01*
X265286Y302012D01*
X265208Y301417D01*
X268583D01*
Y304792D01*
D02*
G37*
G36*
Y300630D02*
X265208D01*
X265286Y300035D01*
X265668Y299114D01*
X266275Y298322D01*
X267066Y297715D01*
X267988Y297334D01*
X268583Y297255D01*
Y300630D01*
D02*
G37*
G36*
X68189Y295602D02*
X67014Y295447D01*
X65920Y294994D01*
X64979Y294272D01*
X64467Y293604D01*
X54411D01*
X53898Y294272D01*
X52958Y294994D01*
X51864Y295447D01*
X50689Y295602D01*
X49514Y295447D01*
X48420Y294994D01*
X47480Y294272D01*
X46758Y293332D01*
X46305Y292238D01*
X46150Y291063D01*
X46305Y289888D01*
X46758Y288794D01*
X47480Y287854D01*
X48017Y287441D01*
Y286811D01*
X47480Y286398D01*
X46758Y285458D01*
X46305Y284364D01*
X46150Y283189D01*
X46305Y282014D01*
X46758Y280920D01*
X47480Y279979D01*
X47858Y279689D01*
Y279189D01*
X47480Y278898D01*
X46758Y277958D01*
X46305Y276864D01*
X46150Y275689D01*
X46305Y274514D01*
X46758Y273420D01*
X47480Y272480D01*
X48420Y271758D01*
X49514Y271305D01*
X50689Y271150D01*
X51864Y271305D01*
X52958Y271758D01*
X53898Y272480D01*
X54411Y273148D01*
X64467D01*
X64979Y272480D01*
X65920Y271758D01*
X67014Y271305D01*
X68189Y271150D01*
X69364Y271305D01*
X70458Y271758D01*
X71398Y272480D01*
X72120Y273420D01*
X72573Y274514D01*
X72728Y275689D01*
X72573Y276864D01*
X72120Y277958D01*
X71398Y278898D01*
X71020Y279189D01*
Y279689D01*
X71398Y279979D01*
X72120Y280920D01*
X72573Y282014D01*
X72728Y283189D01*
X72573Y284364D01*
X72120Y285458D01*
X71398Y286398D01*
X70861Y286811D01*
Y287441D01*
X71398Y287854D01*
X72120Y288794D01*
X72573Y289888D01*
X72728Y291063D01*
X72573Y292238D01*
X72120Y293332D01*
X71398Y294272D01*
X70458Y294994D01*
X69364Y295447D01*
X68189Y295602D01*
D02*
G37*
G36*
X248976Y246067D02*
X247671Y245895D01*
X246455Y245391D01*
X245410Y244590D01*
X244609Y243545D01*
X244247Y242671D01*
X243706D01*
X243344Y243545D01*
X242542Y244590D01*
X241498Y245391D01*
X240282Y245895D01*
X238976Y246067D01*
X237671Y245895D01*
X236455Y245391D01*
X235410Y244590D01*
X234609Y243545D01*
X234247Y242671D01*
X233706D01*
X233344Y243545D01*
X232542Y244590D01*
X231498Y245391D01*
X230282Y245895D01*
X228976Y246067D01*
X227671Y245895D01*
X226455Y245391D01*
X225410Y244590D01*
X224609Y243545D01*
X224247Y242671D01*
X223706D01*
X223344Y243545D01*
X222542Y244590D01*
X221498Y245391D01*
X220282Y245895D01*
X218976Y246067D01*
X217671Y245895D01*
X216455Y245391D01*
X215410Y244590D01*
X214609Y243545D01*
X214247Y242671D01*
X213706D01*
X213344Y243545D01*
X212542Y244590D01*
X211498Y245391D01*
X210282Y245895D01*
X208976Y246067D01*
X207671Y245895D01*
X206455Y245391D01*
X205410Y244590D01*
X204609Y243545D01*
X204247Y242671D01*
X203706D01*
X203344Y243545D01*
X202542Y244590D01*
X201498Y245391D01*
X200282Y245895D01*
X198976Y246067D01*
X197671Y245895D01*
X196455Y245391D01*
X195410Y244590D01*
X194609Y243545D01*
X194247Y242671D01*
X193706D01*
X193344Y243545D01*
X192542Y244590D01*
X191498Y245391D01*
X190282Y245895D01*
X188976Y246067D01*
X187671Y245895D01*
X186455Y245391D01*
X185410Y244590D01*
X184609Y243545D01*
X184247Y242671D01*
X183706D01*
X183344Y243545D01*
X182542Y244590D01*
X181498Y245391D01*
X180282Y245895D01*
X178976Y246067D01*
X177671Y245895D01*
X176455Y245391D01*
X175410Y244590D01*
X174609Y243545D01*
X174247Y242671D01*
X173706D01*
X173344Y243545D01*
X172542Y244590D01*
X171498Y245391D01*
X170282Y245895D01*
X168976Y246067D01*
X167671Y245895D01*
X166455Y245391D01*
X165410Y244590D01*
X164609Y243545D01*
X164247Y242671D01*
X163706D01*
X163344Y243545D01*
X162542Y244590D01*
X161498Y245391D01*
X160282Y245895D01*
X158976Y246067D01*
X157671Y245895D01*
X156455Y245391D01*
X155410Y244590D01*
X154609Y243545D01*
X154247Y242671D01*
X153706D01*
X153344Y243545D01*
X152542Y244590D01*
X151498Y245391D01*
X150282Y245895D01*
X148976Y246067D01*
X147671Y245895D01*
X146455Y245391D01*
X145410Y244590D01*
X144609Y243545D01*
X144247Y242671D01*
X143706D01*
X143344Y243545D01*
X142542Y244590D01*
X141498Y245391D01*
X140282Y245895D01*
X138976Y246067D01*
X137671Y245895D01*
X136455Y245391D01*
X135410Y244590D01*
X134609Y243545D01*
X134105Y242329D01*
X133933Y241024D01*
X134105Y239718D01*
X134609Y238502D01*
X135410Y237458D01*
X136455Y236656D01*
X137671Y236152D01*
X138976Y235981D01*
X140282Y236152D01*
X141498Y236656D01*
X142542Y237458D01*
X143344Y238502D01*
X143706Y239376D01*
X144247D01*
X144609Y238502D01*
X145410Y237458D01*
X146455Y236656D01*
X147671Y236152D01*
X148976Y235981D01*
X150282Y236152D01*
X151498Y236656D01*
X152542Y237458D01*
X153344Y238502D01*
X153706Y239376D01*
X154247D01*
X154609Y238502D01*
X155410Y237458D01*
X156455Y236656D01*
X157671Y236152D01*
X158976Y235981D01*
X160282Y236152D01*
X161498Y236656D01*
X162542Y237458D01*
X163344Y238502D01*
X163706Y239376D01*
X164247D01*
X164609Y238502D01*
X165410Y237458D01*
X166455Y236656D01*
X167671Y236152D01*
X168976Y235981D01*
X170282Y236152D01*
X171498Y236656D01*
X172542Y237458D01*
X173344Y238502D01*
X173706Y239376D01*
X174247D01*
X174609Y238502D01*
X175410Y237458D01*
X176455Y236656D01*
X177671Y236152D01*
X178976Y235981D01*
X180282Y236152D01*
X181498Y236656D01*
X182542Y237458D01*
X183344Y238502D01*
X183706Y239376D01*
X184247D01*
X184609Y238502D01*
X185410Y237458D01*
X186455Y236656D01*
X187671Y236152D01*
X188976Y235981D01*
X190282Y236152D01*
X191498Y236656D01*
X192542Y237458D01*
X193344Y238502D01*
X193706Y239376D01*
X194247D01*
X194609Y238502D01*
X195410Y237458D01*
X196455Y236656D01*
X197671Y236152D01*
X198976Y235981D01*
X200282Y236152D01*
X201498Y236656D01*
X202542Y237458D01*
X203344Y238502D01*
X203706Y239376D01*
X204247D01*
X204609Y238502D01*
X205410Y237458D01*
X206455Y236656D01*
X207671Y236152D01*
X208976Y235981D01*
X210282Y236152D01*
X211498Y236656D01*
X212542Y237458D01*
X213344Y238502D01*
X213706Y239376D01*
X214247D01*
X214609Y238502D01*
X215410Y237458D01*
X216455Y236656D01*
X217671Y236152D01*
X218976Y235981D01*
X220282Y236152D01*
X221498Y236656D01*
X222542Y237458D01*
X223344Y238502D01*
X223706Y239376D01*
X224247D01*
X224609Y238502D01*
X225410Y237458D01*
X226455Y236656D01*
X227671Y236152D01*
X228976Y235981D01*
X230282Y236152D01*
X231498Y236656D01*
X232542Y237458D01*
X233344Y238502D01*
X233706Y239376D01*
X234247D01*
X234609Y238502D01*
X235410Y237458D01*
X236455Y236656D01*
X237671Y236152D01*
X238976Y235981D01*
X240282Y236152D01*
X241498Y236656D01*
X242542Y237458D01*
X243344Y238502D01*
X243706Y239376D01*
X244247D01*
X244609Y238502D01*
X245410Y237458D01*
X246455Y236656D01*
X247671Y236152D01*
X248976Y235981D01*
X250282Y236152D01*
X251498Y236656D01*
X252542Y237458D01*
X253344Y238502D01*
X253848Y239718D01*
X254019Y241024D01*
X253848Y242329D01*
X253344Y243545D01*
X252542Y244590D01*
X251498Y245391D01*
X250282Y245895D01*
X248976Y246067D01*
D02*
G37*
G36*
X259370Y244792D02*
Y241417D01*
X262745D01*
X262666Y242012D01*
X262285Y242934D01*
X261678Y243725D01*
X260886Y244332D01*
X259965Y244713D01*
X259370Y244792D01*
D02*
G37*
G36*
X258583Y244792D02*
X257988Y244713D01*
X257066Y244332D01*
X256275Y243725D01*
X255668Y242934D01*
X255287Y242012D01*
X255208Y241417D01*
X258583D01*
Y244792D01*
D02*
G37*
G36*
Y240630D02*
X255208D01*
X255287Y240035D01*
X255668Y239114D01*
X256275Y238322D01*
X257066Y237715D01*
X257988Y237334D01*
X258583Y237255D01*
Y240630D01*
D02*
G37*
G36*
X262745D02*
X259370D01*
Y237255D01*
X259965Y237334D01*
X260886Y237715D01*
X261678Y238322D01*
X262285Y239114D01*
X262666Y240035D01*
X262745Y240630D01*
D02*
G37*
G36*
X16748Y240041D02*
X16142D01*
Y236614D01*
X20516D01*
X20438Y237209D01*
X20056Y238130D01*
X19449Y238922D01*
X18658Y239529D01*
X17737Y239910D01*
X16748Y240041D01*
D02*
G37*
G36*
X15354D02*
X14748D01*
X13759Y239910D01*
X12838Y239529D01*
X12047Y238922D01*
X11440Y238130D01*
X11058Y237209D01*
X10980Y236614D01*
X15354D01*
Y240041D01*
D02*
G37*
G36*
X20516Y235827D02*
X16142D01*
Y232400D01*
X16748D01*
X17737Y232531D01*
X18658Y232912D01*
X19449Y233519D01*
X20056Y234310D01*
X20438Y235232D01*
X20516Y235827D01*
D02*
G37*
G36*
X15354D02*
X10980D01*
X11058Y235232D01*
X11440Y234310D01*
X12047Y233519D01*
X12838Y232912D01*
X13759Y232531D01*
X14748Y232400D01*
X15354D01*
Y235827D01*
D02*
G37*
G36*
X183465Y232059D02*
Y229724D01*
X185799D01*
X185756Y230050D01*
X185478Y230721D01*
X185036Y231296D01*
X184461Y231738D01*
X183790Y232016D01*
X183465Y232059D01*
D02*
G37*
G36*
X182677D02*
X182351Y232016D01*
X181681Y231738D01*
X181105Y231296D01*
X180664Y230721D01*
X180386Y230050D01*
X180343Y229724D01*
X182677D01*
Y232059D01*
D02*
G37*
G36*
X185799Y228937D02*
X183465D01*
Y226603D01*
X183790Y226646D01*
X184461Y226923D01*
X185036Y227365D01*
X185478Y227941D01*
X185756Y228611D01*
X185799Y228937D01*
D02*
G37*
G36*
X182677D02*
X180343D01*
X180386Y228611D01*
X180664Y227941D01*
X181105Y227365D01*
X181681Y226923D01*
X182351Y226646D01*
X182677Y226603D01*
Y228937D01*
D02*
G37*
G36*
X64992Y205740D02*
X55087D01*
Y203328D01*
X43288D01*
X43287Y203328D01*
X42315Y203135D01*
X41491Y202584D01*
X41491Y202584D01*
X31075Y192169D01*
X30602Y192402D01*
X30685Y193032D01*
X30514Y194324D01*
X30015Y195529D01*
X29221Y196564D01*
X28187Y197358D01*
X26982Y197857D01*
X25689Y198027D01*
X24396Y197857D01*
X23191Y197358D01*
X22157Y196564D01*
X21363Y195529D01*
X20864Y194324D01*
X20694Y193032D01*
X20864Y191739D01*
X21363Y190534D01*
X22157Y189499D01*
X23191Y188705D01*
X23975Y188381D01*
Y187840D01*
X23191Y187515D01*
X22157Y186721D01*
X21363Y185687D01*
X20864Y184482D01*
X20694Y183189D01*
X20864Y181896D01*
X21363Y180691D01*
X22157Y179657D01*
X23191Y178863D01*
X24396Y178364D01*
X25689Y178193D01*
X26982Y178364D01*
X28187Y178863D01*
X29221Y179657D01*
X29982Y180648D01*
X60000D01*
X60000Y180648D01*
X60972Y180842D01*
X61797Y181392D01*
X63719Y183315D01*
X65000Y183146D01*
X66305Y183318D01*
X67522Y183821D01*
X68566Y184623D01*
X69367Y185667D01*
X69871Y186884D01*
X70043Y188189D01*
X69871Y189494D01*
X69367Y190710D01*
X68566Y191755D01*
X67522Y192557D01*
X66305Y193060D01*
X65000Y193232D01*
X63695Y193060D01*
X62478Y192557D01*
X61434Y191755D01*
X60632Y190710D01*
X60129Y189494D01*
X59957Y188189D01*
X60125Y186908D01*
X58947Y185730D01*
X32477D01*
X32285Y186192D01*
X44340Y198247D01*
X55087D01*
Y195835D01*
X64992D01*
Y205740D01*
D02*
G37*
G36*
X91339Y204528D02*
X87992D01*
Y201181D01*
X91339D01*
Y204528D01*
D02*
G37*
G36*
X77559D02*
X74213D01*
Y201181D01*
X77559D01*
Y204528D01*
D02*
G37*
G36*
X73425D02*
X70079D01*
Y201181D01*
X73425D01*
Y204528D01*
D02*
G37*
G36*
X87205D02*
X83858D01*
Y201181D01*
X87205D01*
Y204528D01*
D02*
G37*
G36*
X130315Y200934D02*
Y197559D01*
X133689D01*
X133611Y198154D01*
X133229Y199075D01*
X132623Y199867D01*
X131831Y200474D01*
X130910Y200855D01*
X130315Y200934D01*
D02*
G37*
G36*
X129528D02*
X128932Y200855D01*
X128011Y200474D01*
X127220Y199867D01*
X126613Y199075D01*
X126231Y198154D01*
X126153Y197559D01*
X129528D01*
Y200934D01*
D02*
G37*
G36*
X91339Y200394D02*
X87992D01*
Y197047D01*
X91339D01*
Y200394D01*
D02*
G37*
G36*
X87205D02*
X83858D01*
Y197047D01*
X87205D01*
Y200394D01*
D02*
G37*
G36*
X77559D02*
X74213D01*
Y197047D01*
X77559D01*
Y200394D01*
D02*
G37*
G36*
X73425D02*
X70079D01*
Y197047D01*
X73425D01*
Y200394D01*
D02*
G37*
G36*
X133689Y196772D02*
X130315D01*
Y193397D01*
X130910Y193475D01*
X131831Y193857D01*
X132623Y194464D01*
X133229Y195255D01*
X133611Y196177D01*
X133689Y196772D01*
D02*
G37*
G36*
X129528D02*
X126153D01*
X126231Y196177D01*
X126613Y195255D01*
X127220Y194464D01*
X128011Y193857D01*
X128932Y193475D01*
X129528Y193397D01*
Y196772D01*
D02*
G37*
G36*
X106331Y205740D02*
X96425D01*
Y199428D01*
X88741Y191744D01*
X88566Y191755D01*
X87522Y192557D01*
X86305Y193060D01*
X85000Y193232D01*
X83695Y193060D01*
X82478Y192557D01*
X81434Y191755D01*
X80633Y190710D01*
X80129Y189494D01*
X79957Y188189D01*
X80129Y186884D01*
X80633Y185667D01*
X81434Y184623D01*
X82478Y183821D01*
X83695Y183318D01*
X85000Y183146D01*
X86305Y183318D01*
X87522Y183821D01*
X88566Y184623D01*
X89368Y185667D01*
X89411Y185774D01*
X89752Y185842D01*
X90576Y186392D01*
X100019Y195835D01*
X106331D01*
Y205740D01*
D02*
G37*
G36*
X75394Y191957D02*
Y188583D01*
X78768D01*
X78690Y189178D01*
X78308Y190099D01*
X77701Y190890D01*
X76910Y191497D01*
X75989Y191879D01*
X75394Y191957D01*
D02*
G37*
G36*
X74606Y191957D02*
X74011Y191879D01*
X73090Y191497D01*
X72299Y190890D01*
X71692Y190099D01*
X71310Y189178D01*
X71232Y188583D01*
X74606D01*
Y191957D01*
D02*
G37*
G36*
X78768Y187795D02*
X75394D01*
Y184421D01*
X75989Y184499D01*
X76910Y184881D01*
X77701Y185488D01*
X78308Y186279D01*
X78690Y187200D01*
X78768Y187795D01*
D02*
G37*
G36*
X74606D02*
X71232D01*
X71310Y187200D01*
X71692Y186279D01*
X72299Y185488D01*
X73090Y184881D01*
X74011Y184499D01*
X74606Y184421D01*
Y187795D01*
D02*
G37*
G36*
X129921Y192209D02*
X128616Y192037D01*
X127400Y191533D01*
X126355Y190731D01*
X125554Y189687D01*
X125050Y188471D01*
X124878Y187165D01*
X125050Y185860D01*
X125554Y184644D01*
X126355Y183599D01*
X127400Y182798D01*
X128273Y182436D01*
Y181895D01*
X127400Y181533D01*
X126355Y180731D01*
X125554Y179687D01*
X125050Y178471D01*
X124878Y177165D01*
X125050Y175860D01*
X125554Y174644D01*
X126355Y173599D01*
X127400Y172798D01*
X128616Y172294D01*
X129921Y172122D01*
X131227Y172294D01*
X132443Y172798D01*
X133487Y173599D01*
X134289Y174644D01*
X134793Y175860D01*
X134964Y177165D01*
X134793Y178471D01*
X134289Y179687D01*
X133487Y180731D01*
X132443Y181533D01*
X131569Y181895D01*
Y182436D01*
X132443Y182798D01*
X133487Y183599D01*
X134289Y184644D01*
X134793Y185860D01*
X134964Y187165D01*
X134793Y188471D01*
X134289Y189687D01*
X133487Y190731D01*
X132443Y191533D01*
X131227Y192037D01*
X129921Y192209D01*
D02*
G37*
G36*
X104331Y168190D02*
Y161811D01*
X108261D01*
Y163917D01*
X108114Y165037D01*
X107682Y166079D01*
X106995Y166975D01*
X106099Y167662D01*
X105056Y168094D01*
X104331Y168190D01*
D02*
G37*
G36*
X103543D02*
X102818Y168094D01*
X101775Y167662D01*
X100879Y166975D01*
X100192Y166079D01*
X99760Y165037D01*
X99613Y163917D01*
Y161811D01*
X103543D01*
Y168190D01*
D02*
G37*
G36*
X108261Y161024D02*
X104331D01*
Y154645D01*
X105056Y154740D01*
X106099Y155172D01*
X106995Y155859D01*
X107682Y156755D01*
X108114Y157798D01*
X108261Y158917D01*
Y161024D01*
D02*
G37*
G36*
X103543D02*
X99613D01*
Y158917D01*
X99760Y157798D01*
X100192Y156755D01*
X100879Y155859D01*
X101775Y155172D01*
X102818Y154740D01*
X103543Y154645D01*
Y161024D01*
D02*
G37*
G36*
X90551Y169465D02*
X89115Y169276D01*
X87777Y168722D01*
X86629Y167840D01*
X85747Y166691D01*
X85193Y165353D01*
X85004Y163917D01*
Y158917D01*
X85193Y157482D01*
X85747Y156144D01*
X86629Y154995D01*
X87777Y154113D01*
X89115Y153559D01*
X90551Y153370D01*
X91987Y153559D01*
X93325Y154113D01*
X94474Y154995D01*
X95355Y156144D01*
X95910Y157482D01*
X96099Y158917D01*
Y163917D01*
X95910Y165353D01*
X95355Y166691D01*
X94474Y167840D01*
X93325Y168722D01*
X91987Y169276D01*
X90551Y169465D01*
D02*
G37*
G36*
X14673Y168633D02*
X13124Y168480D01*
X11633Y168028D01*
X10260Y167294D01*
X9056Y166306D01*
X8068Y165102D01*
X7334Y163729D01*
X6882Y162239D01*
X6729Y160689D01*
X6882Y159139D01*
X7334Y157649D01*
X8068Y156276D01*
X9056Y155072D01*
X10260Y154084D01*
X11633Y153350D01*
X13124Y152898D01*
X14673Y152745D01*
X16223Y152898D01*
X17713Y153350D01*
X19086Y154084D01*
X20290Y155072D01*
X21278Y156276D01*
X22012Y157649D01*
X22464Y159139D01*
X22617Y160689D01*
X22464Y162239D01*
X22012Y163729D01*
X21278Y165102D01*
X20290Y166306D01*
X19086Y167294D01*
X17713Y168028D01*
X16223Y168480D01*
X14673Y168633D01*
D02*
G37*
G36*
X72972Y170563D02*
X57161D01*
Y150815D01*
X72972D01*
Y170563D01*
D02*
G37*
G36*
X43413Y170601D02*
X41864Y170449D01*
X40373Y169997D01*
X39000Y169263D01*
X37796Y168275D01*
X36808Y167071D01*
X36074Y165697D01*
X35622Y164207D01*
X35470Y162657D01*
Y158721D01*
X35622Y157171D01*
X36074Y155681D01*
X36808Y154307D01*
X37796Y153103D01*
X39000Y152115D01*
X40373Y151381D01*
X41864Y150929D01*
X43413Y150777D01*
X44963Y150929D01*
X46453Y151381D01*
X47827Y152115D01*
X49031Y153103D01*
X50018Y154307D01*
X50753Y155681D01*
X51205Y157171D01*
X51357Y158721D01*
Y162657D01*
X51205Y164207D01*
X50753Y165697D01*
X50018Y167071D01*
X49031Y168275D01*
X47827Y169263D01*
X46453Y169997D01*
X44963Y170449D01*
X43413Y170601D01*
D02*
G37*
G36*
X12795Y142186D02*
X10827D01*
X9663Y142072D01*
X8544Y141732D01*
X7512Y141181D01*
X6608Y140439D01*
X5866Y139535D01*
X5315Y138504D01*
X4976Y137384D01*
X4861Y136221D01*
X4976Y135057D01*
X5315Y133938D01*
X5866Y132906D01*
X6608Y132002D01*
X7512Y131260D01*
X8544Y130709D01*
X9663Y130369D01*
X10827Y130255D01*
X12795D01*
X13959Y130369D01*
X15078Y130709D01*
X16110Y131260D01*
X17014Y132002D01*
X17756Y132906D01*
X18307Y133938D01*
X18646Y135057D01*
X18761Y136221D01*
X18646Y137384D01*
X18307Y138504D01*
X17756Y139535D01*
X17014Y140439D01*
X16110Y141181D01*
X15078Y141732D01*
X13959Y142072D01*
X12795Y142186D01*
D02*
G37*
G36*
X225689Y140144D02*
X224332Y140010D01*
X223027Y139614D01*
X221825Y138972D01*
X220771Y138107D01*
X219906Y137053D01*
X219264Y135851D01*
X218868Y134546D01*
X218734Y133189D01*
X218868Y131832D01*
X219264Y130527D01*
X219906Y129325D01*
X220771Y128271D01*
X221825Y127406D01*
X223027Y126764D01*
X224332Y126368D01*
X225689Y126234D01*
X227046Y126368D01*
X228350Y126764D01*
X229553Y127406D01*
X230607Y128271D01*
X231472Y129325D01*
X232114Y130527D01*
X232510Y131832D01*
X232644Y133189D01*
X232510Y134546D01*
X232114Y135851D01*
X231472Y137053D01*
X230607Y138107D01*
X229553Y138972D01*
X228350Y139614D01*
X227046Y140010D01*
X225689Y140144D01*
D02*
G37*
G36*
X45689Y130144D02*
X44332Y130010D01*
X43027Y129614D01*
X41825Y128972D01*
X40771Y128107D01*
X39906Y127053D01*
X39264Y125850D01*
X38868Y124546D01*
X38734Y123189D01*
X38868Y121832D01*
X39264Y120528D01*
X39906Y119325D01*
X40771Y118271D01*
X41825Y117406D01*
X43027Y116764D01*
X44332Y116368D01*
X45689Y116234D01*
X47046Y116368D01*
X48351Y116764D01*
X49553Y117406D01*
X50607Y118271D01*
X51472Y119325D01*
X52114Y120528D01*
X52510Y121832D01*
X52644Y123189D01*
X52510Y124546D01*
X52114Y125850D01*
X51472Y127053D01*
X50607Y128107D01*
X49553Y128972D01*
X48351Y129614D01*
X47046Y130010D01*
X45689Y130144D01*
D02*
G37*
G36*
X226083Y98895D02*
Y93583D01*
X231395D01*
X231251Y94679D01*
X230676Y96068D01*
X229760Y97260D01*
X228568Y98176D01*
X227179Y98751D01*
X226083Y98895D01*
D02*
G37*
G36*
X225295D02*
X224199Y98751D01*
X222810Y98176D01*
X221618Y97260D01*
X220703Y96068D01*
X220127Y94679D01*
X219983Y93583D01*
X225295D01*
Y98895D01*
D02*
G37*
G36*
X231395Y92795D02*
X226083D01*
Y87483D01*
X227179Y87627D01*
X228568Y88203D01*
X229760Y89117D01*
X230676Y90310D01*
X231251Y91699D01*
X231395Y92795D01*
D02*
G37*
G36*
X225295D02*
X219983D01*
X220127Y91699D01*
X220703Y90310D01*
X221618Y89117D01*
X222810Y88203D01*
X224199Y87627D01*
X225295Y87483D01*
Y92795D01*
D02*
G37*
G36*
X46083Y88895D02*
Y83583D01*
X51395D01*
X51251Y84679D01*
X50675Y86068D01*
X49760Y87260D01*
X48568Y88175D01*
X47179Y88751D01*
X46083Y88895D01*
D02*
G37*
G36*
X45295D02*
X44199Y88751D01*
X42810Y88175D01*
X41618Y87260D01*
X40703Y86068D01*
X40127Y84679D01*
X39983Y83583D01*
X45295D01*
Y88895D01*
D02*
G37*
G36*
X51395Y82795D02*
X46083D01*
Y77483D01*
X47179Y77627D01*
X48568Y78202D01*
X49760Y79118D01*
X50675Y80310D01*
X51251Y81699D01*
X51395Y82795D01*
D02*
G37*
G36*
X45295D02*
X39983D01*
X40127Y81699D01*
X40703Y80310D01*
X41618Y79118D01*
X42810Y78202D01*
X44199Y77627D01*
X45295Y77483D01*
Y82795D01*
D02*
G37*
G36*
X45689Y70144D02*
X44332Y70010D01*
X43027Y69614D01*
X41825Y68972D01*
X40771Y68107D01*
X39906Y67053D01*
X39264Y65851D01*
X38868Y64546D01*
X38734Y63189D01*
X38868Y61832D01*
X39264Y60527D01*
X39906Y59325D01*
X40771Y58271D01*
X41825Y57406D01*
X43027Y56764D01*
X44332Y56368D01*
X45689Y56234D01*
X47046Y56368D01*
X48351Y56764D01*
X49553Y57406D01*
X50607Y58271D01*
X51472Y59325D01*
X52114Y60527D01*
X52510Y61832D01*
X52644Y63189D01*
X52510Y64546D01*
X52114Y65851D01*
X51472Y67053D01*
X50607Y68107D01*
X49553Y68972D01*
X48351Y69614D01*
X47046Y70010D01*
X45689Y70144D01*
D02*
G37*
G36*
X57126Y33852D02*
X55551D01*
Y23583D01*
X67758D01*
X67658Y24857D01*
X67267Y26484D01*
X66627Y28030D01*
X65752Y29456D01*
X64666Y30729D01*
X63393Y31815D01*
X61967Y32690D01*
X60421Y33330D01*
X58794Y33720D01*
X57126Y33852D01*
D02*
G37*
G36*
X54764D02*
X53189D01*
X51521Y33720D01*
X49894Y33330D01*
X48348Y32690D01*
X46922Y31815D01*
X45649Y30729D01*
X44563Y29456D01*
X43688Y28030D01*
X43048Y26484D01*
X42658Y24857D01*
X42557Y23583D01*
X54764D01*
Y33852D01*
D02*
G37*
G36*
X67758Y22795D02*
X55551D01*
Y12526D01*
X57126D01*
X58794Y12657D01*
X60421Y13048D01*
X61967Y13688D01*
X63393Y14563D01*
X64666Y15649D01*
X65752Y16921D01*
X66627Y18348D01*
X67267Y19894D01*
X67658Y21521D01*
X67758Y22795D01*
D02*
G37*
G36*
X54764D02*
X42557D01*
X42658Y21521D01*
X43048Y19894D01*
X43688Y18348D01*
X44563Y16921D01*
X45649Y15649D01*
X46922Y14563D01*
X48348Y13688D01*
X49894Y13048D01*
X51521Y12657D01*
X53189Y12526D01*
X54764D01*
Y22795D01*
D02*
G37*
G36*
X28189Y35068D02*
X24252D01*
X22394Y34922D01*
X20581Y34487D01*
X18859Y33773D01*
X17270Y32799D01*
X15852Y31589D01*
X14642Y30171D01*
X13668Y28582D01*
X12954Y26860D01*
X12519Y25047D01*
X12373Y23189D01*
X12519Y21331D01*
X12954Y19518D01*
X13668Y17796D01*
X14642Y16207D01*
X15852Y14789D01*
X17270Y13579D01*
X18859Y12605D01*
X20581Y11891D01*
X22394Y11456D01*
X24252Y11310D01*
X28189D01*
X30047Y11456D01*
X31860Y11891D01*
X33582Y12605D01*
X35171Y13579D01*
X36589Y14789D01*
X37799Y16207D01*
X38773Y17796D01*
X39487Y19518D01*
X39922Y21331D01*
X40068Y23189D01*
X39922Y25047D01*
X39487Y26860D01*
X38773Y28582D01*
X37799Y30171D01*
X36589Y31589D01*
X35171Y32799D01*
X33582Y33773D01*
X31860Y34487D01*
X30047Y34922D01*
X28189Y35068D01*
D02*
G37*
G36*
X53189Y6924D02*
X51485Y6756D01*
X49846Y6259D01*
X48336Y5452D01*
X47012Y4366D01*
X45926Y3042D01*
X45119Y1532D01*
X44622Y-107D01*
X44454Y-1811D01*
X44622Y-3515D01*
X45119Y-5154D01*
X45926Y-6664D01*
X47012Y-7988D01*
X48336Y-9074D01*
X49846Y-9881D01*
X51485Y-10378D01*
X53189Y-10546D01*
X54893Y-10378D01*
X56532Y-9881D01*
X58042Y-9074D01*
X59365Y-7988D01*
X60452Y-6664D01*
X61259Y-5154D01*
X61756Y-3515D01*
X61924Y-1811D01*
X61756Y-107D01*
X61259Y1532D01*
X60452Y3042D01*
X59365Y4366D01*
X58042Y5452D01*
X56532Y6259D01*
X54893Y6756D01*
X53189Y6924D01*
D02*
G37*
G36*
X28189D02*
X26485Y6756D01*
X24846Y6259D01*
X23336Y5452D01*
X22012Y4366D01*
X20926Y3042D01*
X20119Y1532D01*
X19622Y-107D01*
X19454Y-1811D01*
X19622Y-3515D01*
X20119Y-5154D01*
X20926Y-6664D01*
X22012Y-7988D01*
X23336Y-9074D01*
X24846Y-9881D01*
X26485Y-10378D01*
X28189Y-10546D01*
X29893Y-10378D01*
X31532Y-9881D01*
X33042Y-9074D01*
X34365Y-7988D01*
X35452Y-6664D01*
X36259Y-5154D01*
X36756Y-3515D01*
X36924Y-1811D01*
X36756Y-107D01*
X36259Y1532D01*
X35452Y3042D01*
X34365Y4366D01*
X33042Y5452D01*
X31532Y6259D01*
X29893Y6756D01*
X28189Y6924D01*
D02*
G37*
%LPD*%
G36*
X226346Y359627D02*
Y353315D01*
X228758D01*
Y351689D01*
X228382Y351359D01*
X227677Y351452D01*
X226384Y351282D01*
X225179Y350783D01*
X224145Y349989D01*
X223351Y348954D01*
X222852Y347750D01*
X222851Y347740D01*
X222346D01*
X222345Y347750D01*
X221846Y348954D01*
X221052Y349989D01*
X220061Y350750D01*
Y353315D01*
X222472D01*
Y361632D01*
X224341D01*
X226346Y359627D01*
D02*
G37*
G36*
X212567Y353315D02*
X214979D01*
Y350750D01*
X213987Y349989D01*
X213193Y348954D01*
X212694Y347750D01*
X212524Y346457D01*
X212694Y345164D01*
X213193Y343959D01*
X213987Y342924D01*
X215022Y342130D01*
X215157Y342074D01*
X215254Y341584D01*
X213859Y340189D01*
X209417D01*
Y333250D01*
X189992D01*
Y338614D01*
X180087D01*
Y332302D01*
X176408Y328624D01*
X172276D01*
Y330937D01*
X168535D01*
Y334922D01*
X175205Y341592D01*
X175505Y341631D01*
X176710Y342130D01*
X177745Y342924D01*
X178539Y343959D01*
X179038Y345164D01*
X179039Y345174D01*
X179543D01*
X179545Y345164D01*
X180044Y343959D01*
X180838Y342924D01*
X181872Y342130D01*
X183077Y341631D01*
X184370Y341461D01*
X185663Y341631D01*
X186868Y342130D01*
X187902Y342924D01*
X188696Y343959D01*
X189195Y345164D01*
X189366Y346457D01*
X189280Y347104D01*
X189789Y347613D01*
X190340Y348437D01*
X190533Y349410D01*
X190533Y349410D01*
Y353315D01*
X192945D01*
Y359627D01*
X194950Y361632D01*
X212567D01*
Y353315D01*
D02*
G37*
G36*
X151002Y346389D02*
Y338903D01*
X150622Y338614D01*
X148210D01*
Y343209D01*
X148210Y343209D01*
X148017Y344181D01*
X147860Y344416D01*
X148027Y345689D01*
X147857Y346982D01*
X147358Y348187D01*
X146564Y349221D01*
X145529Y350015D01*
X144828Y350306D01*
X144928Y350805D01*
X146585D01*
X151002Y346389D01*
D02*
G37*
G36*
X158433Y327415D02*
Y321228D01*
X162875D01*
X166018Y318085D01*
X166018Y318085D01*
X166438Y317805D01*
X166286Y317305D01*
X149409D01*
Y319488D01*
X145669D01*
X141929D01*
Y318209D01*
X141429Y318160D01*
X141324Y318689D01*
X140773Y319513D01*
X140773Y319513D01*
X138928Y321358D01*
X141800Y324231D01*
X153543D01*
X153543Y324231D01*
X154516Y324424D01*
X155340Y324975D01*
X157308Y326943D01*
X157308Y326943D01*
X157971Y327606D01*
X158433Y327415D01*
D02*
G37*
G36*
X187020Y328361D02*
X187992Y328168D01*
X187992Y328168D01*
X205677D01*
Y326495D01*
X201605Y322423D01*
X189992D01*
Y324835D01*
X180513D01*
X180306Y325335D01*
X183680Y328709D01*
X186500D01*
X187020Y328361D01*
D02*
G37*
G36*
X213262Y318085D02*
X213262Y318085D01*
X214087Y317534D01*
X215059Y317341D01*
X223394D01*
Y314929D01*
X225805D01*
Y304893D01*
X225410Y304590D01*
X224609Y303545D01*
X224247Y302672D01*
X223706D01*
X223344Y303545D01*
X222542Y304590D01*
X221498Y305391D01*
X220282Y305895D01*
X218976Y306067D01*
X217671Y305895D01*
X216455Y305391D01*
X215410Y304590D01*
X214609Y303545D01*
X214247Y302672D01*
X213706D01*
X213344Y303545D01*
X212542Y304590D01*
X211498Y305391D01*
X210282Y305895D01*
X208976Y306067D01*
X207671Y305895D01*
X206455Y305391D01*
X205410Y304590D01*
X205286Y304427D01*
X204904Y304439D01*
X204723Y304516D01*
X192679Y316561D01*
X192259Y316841D01*
X192411Y317341D01*
X202658D01*
X202658Y317341D01*
X203630Y317534D01*
X204454Y318085D01*
X207597Y321228D01*
X210119D01*
X213262Y318085D01*
D02*
G37*
G36*
X139148Y312967D02*
X139972Y312416D01*
X140945Y312223D01*
X140945Y312223D01*
X189829D01*
X196240Y305812D01*
X196171Y305174D01*
X195410Y304590D01*
X194609Y303545D01*
X194247Y302672D01*
X193706D01*
X193344Y303545D01*
X192542Y304590D01*
X191498Y305391D01*
X190282Y305895D01*
X188976Y306067D01*
X187671Y305895D01*
X186455Y305391D01*
X185410Y304590D01*
X184609Y303545D01*
X184247Y302672D01*
X183706D01*
X183344Y303545D01*
X182542Y304590D01*
X181498Y305391D01*
X180282Y305895D01*
X178976Y306067D01*
X177671Y305895D01*
X176455Y305391D01*
X175410Y304590D01*
X174609Y303545D01*
X174247Y302672D01*
X173706D01*
X173344Y303545D01*
X172542Y304590D01*
X171498Y305391D01*
X170282Y305895D01*
X168976Y306067D01*
X167671Y305895D01*
X166455Y305391D01*
X165410Y304590D01*
X164609Y303545D01*
X164247Y302672D01*
X163706D01*
X163344Y303545D01*
X162542Y304590D01*
X161498Y305391D01*
X160282Y305895D01*
X158976Y306067D01*
X157671Y305895D01*
X156455Y305391D01*
X155410Y304590D01*
X154609Y303545D01*
X154247Y302672D01*
X153706D01*
X153344Y303545D01*
X152542Y304590D01*
X151498Y305391D01*
X150282Y305895D01*
X148976Y306067D01*
X147671Y305895D01*
X146455Y305391D01*
X145410Y304590D01*
X144609Y303545D01*
X144247Y302672D01*
X143706D01*
X143344Y303545D01*
X142542Y304590D01*
X141498Y305391D01*
X140282Y305895D01*
X138976Y306067D01*
X137695Y305898D01*
X130494Y313100D01*
Y314929D01*
X137186D01*
X139148Y312967D01*
D02*
G37*
G36*
X184609Y298502D02*
X185410Y297458D01*
X186455Y296656D01*
X187671Y296152D01*
X188976Y295981D01*
X190282Y296152D01*
X191498Y296656D01*
X192542Y297458D01*
X193344Y298502D01*
X193706Y299376D01*
X194247D01*
X194609Y298502D01*
X195410Y297458D01*
X196455Y296656D01*
X197671Y296152D01*
X198976Y295981D01*
X199928Y296106D01*
X200428Y295703D01*
Y274972D01*
X200071Y274734D01*
X199928Y274718D01*
X199370Y274792D01*
Y271024D01*
Y267255D01*
X199928Y267329D01*
X200071Y267313D01*
X200428Y267075D01*
Y266333D01*
X199983Y265934D01*
X198976Y266067D01*
X197671Y265895D01*
X196455Y265391D01*
X195410Y264590D01*
X194609Y263545D01*
X194247Y262671D01*
X193706D01*
X193344Y263545D01*
X192542Y264590D01*
X191498Y265391D01*
X190624Y265753D01*
Y266294D01*
X191498Y266656D01*
X192542Y267458D01*
X193344Y268502D01*
X193848Y269718D01*
X194019Y271024D01*
X193848Y272329D01*
X193344Y273545D01*
X192542Y274590D01*
X191498Y275391D01*
X190282Y275895D01*
X188976Y276067D01*
X187671Y275895D01*
X186455Y275391D01*
X185410Y274590D01*
X184609Y273545D01*
X184247Y272672D01*
X183706D01*
X183344Y273545D01*
X182542Y274590D01*
X181498Y275391D01*
X180282Y275895D01*
X178976Y276067D01*
X177671Y275895D01*
X176455Y275391D01*
X175410Y274590D01*
X174609Y273545D01*
X174247Y272672D01*
X173706D01*
X173344Y273545D01*
X172542Y274590D01*
X171498Y275391D01*
X170282Y275895D01*
X168976Y276067D01*
X167671Y275895D01*
X166455Y275391D01*
X165410Y274590D01*
X164609Y273545D01*
X164247Y272672D01*
X163706D01*
X163344Y273545D01*
X162542Y274590D01*
X161498Y275391D01*
X160282Y275895D01*
X158976Y276067D01*
X157671Y275895D01*
X156974Y275606D01*
X156691Y276030D01*
X171807Y291146D01*
X172443Y291975D01*
X172843Y292940D01*
X172979Y293976D01*
Y298027D01*
X173344Y298502D01*
X173706Y299376D01*
X174247D01*
X174609Y298502D01*
X175410Y297458D01*
X176455Y296656D01*
X177671Y296152D01*
X178976Y295981D01*
X180282Y296152D01*
X181498Y296656D01*
X182542Y297458D01*
X183344Y298502D01*
X183706Y299376D01*
X184247D01*
X184609Y298502D01*
D02*
G37*
G36*
X134102Y302305D02*
X133933Y301024D01*
X134105Y299718D01*
X134609Y298502D01*
X135410Y297458D01*
X136455Y296656D01*
X137671Y296152D01*
X138976Y295981D01*
X140282Y296152D01*
X141498Y296656D01*
X142542Y297458D01*
X143344Y298502D01*
X143706Y299376D01*
X144247D01*
X144609Y298502D01*
X145410Y297458D01*
X146455Y296656D01*
X147671Y296152D01*
X148072Y296099D01*
X148233Y295626D01*
X145980Y293373D01*
X134532D01*
X126203Y301702D01*
X126016Y302134D01*
X126016D01*
X126016Y302134D01*
Y309684D01*
X126516Y309891D01*
X134102Y302305D01*
D02*
G37*
%LPC*%
G36*
X208071Y350177D02*
Y346850D01*
X211398D01*
X211321Y347433D01*
X210944Y348343D01*
X210345Y349124D01*
X209563Y349724D01*
X208653Y350101D01*
X208071Y350177D01*
D02*
G37*
G36*
X207283D02*
X206701Y350101D01*
X205791Y349724D01*
X205010Y349124D01*
X204410Y348343D01*
X204033Y347433D01*
X203957Y346850D01*
X207283D01*
Y350177D01*
D02*
G37*
G36*
X211398Y346063D02*
X208071D01*
Y342736D01*
X208653Y342813D01*
X209563Y343190D01*
X210345Y343789D01*
X210944Y344570D01*
X211321Y345480D01*
X211398Y346063D01*
D02*
G37*
G36*
X207283D02*
X203957D01*
X204033Y345480D01*
X204410Y344570D01*
X205010Y343789D01*
X205791Y343190D01*
X206701Y342813D01*
X207283Y342736D01*
Y346063D01*
D02*
G37*
G36*
X154921Y323594D02*
Y321260D01*
X157255D01*
X157212Y321586D01*
X156935Y322256D01*
X156493Y322832D01*
X155917Y323273D01*
X155247Y323551D01*
X154921Y323594D01*
D02*
G37*
G36*
X154134D02*
X153808Y323551D01*
X153138Y323273D01*
X152562Y322832D01*
X152120Y322256D01*
X151843Y321586D01*
X151800Y321260D01*
X154134D01*
Y323594D01*
D02*
G37*
G36*
X149409Y323622D02*
X146063D01*
Y320276D01*
X149409D01*
Y323622D01*
D02*
G37*
G36*
X145276D02*
X141929D01*
Y320276D01*
X145276D01*
Y323622D01*
D02*
G37*
G36*
X157255Y320472D02*
X154921D01*
Y318138D01*
X155247Y318181D01*
X155917Y318459D01*
X156493Y318901D01*
X156935Y319476D01*
X157212Y320147D01*
X157255Y320472D01*
D02*
G37*
G36*
X154134D02*
X151800D01*
X151843Y320147D01*
X152120Y319476D01*
X152562Y318901D01*
X153138Y318459D01*
X153808Y318181D01*
X154134Y318138D01*
Y320472D01*
D02*
G37*
G36*
X198583Y274792D02*
X197988Y274713D01*
X197066Y274332D01*
X196275Y273725D01*
X195668Y272934D01*
X195287Y272012D01*
X195208Y271417D01*
X198583D01*
Y274792D01*
D02*
G37*
G36*
Y270630D02*
X195208D01*
X195287Y270035D01*
X195668Y269114D01*
X196275Y268322D01*
X197066Y267715D01*
X197988Y267334D01*
X198583Y267255D01*
Y270630D01*
D02*
G37*
%LPD*%
G36*
X64979Y287854D02*
X65517Y287441D01*
Y286811D01*
X64979Y286398D01*
X64467Y285730D01*
X54411D01*
X53898Y286398D01*
X53361Y286811D01*
Y287441D01*
X53898Y287854D01*
X54411Y288522D01*
X64467D01*
X64979Y287854D01*
D02*
G37*
G36*
Y279979D02*
X65358Y279689D01*
Y279189D01*
X64979Y278898D01*
X64467Y278230D01*
X54411D01*
X53898Y278898D01*
X53520Y279189D01*
Y279689D01*
X53898Y279979D01*
X54411Y280648D01*
X64467D01*
X64979Y279979D01*
D02*
G37*
D10*
X145669Y319882D02*
D03*
Y333661D02*
D03*
X228346Y319882D02*
D03*
Y333661D02*
D03*
X185039Y319882D02*
D03*
Y333661D02*
D03*
X133858Y319882D02*
D03*
Y333661D02*
D03*
X82677Y331693D02*
D03*
Y345472D02*
D03*
D12*
X107283Y307087D02*
D03*
X121063D02*
D03*
X174213Y358268D02*
D03*
X187992D02*
D03*
X101378Y200787D02*
D03*
X87598D02*
D03*
X217520Y358268D02*
D03*
X231299D02*
D03*
X60039Y200787D02*
D03*
X73819D02*
D03*
D14*
X216339Y326083D02*
D03*
X208858D02*
D03*
X212598Y335335D02*
D03*
X169095Y326083D02*
D03*
X161614D02*
D03*
X165354Y335335D02*
D03*
D16*
X225394Y364173D02*
X231299Y358268D01*
X193898Y364173D02*
X225394D01*
X187992Y358268D02*
X193898Y364173D01*
X217520Y346516D02*
Y358268D01*
X231299Y348799D02*
Y358268D01*
X235689Y182618D02*
Y207736D01*
X268976Y241024D01*
X177461Y326083D02*
X185039Y333661D01*
X169095Y326083D02*
X177461D01*
X147638Y353346D02*
X153543Y347441D01*
Y330709D02*
Y347441D01*
Y330709D02*
X155512Y328740D01*
X198976Y259016D02*
Y261024D01*
X202969Y265016D01*
X127953Y327756D02*
X133858Y333661D01*
X127953Y312047D02*
Y327756D01*
Y312047D02*
X138976Y301024D01*
Y316732D02*
Y317717D01*
Y316732D02*
X140945Y314764D01*
X190882D01*
X202969Y302677D01*
X155512Y328740D02*
X157480Y330709D01*
X153543Y326772D02*
X155512Y328740D01*
X138779Y353346D02*
X147638D01*
X133189Y347756D02*
X138779Y353346D01*
X133189Y345689D02*
Y347756D01*
X228346Y301654D02*
X228976Y301024D01*
X228346Y301654D02*
Y319882D01*
X202969Y265016D02*
Y302677D01*
X133858Y319882D02*
X136811D01*
X138976Y317717D01*
X50689Y291063D02*
X68189D01*
X228189Y345689D02*
X260610D01*
X275590Y330709D01*
Y247638D02*
Y330709D01*
X268976Y241024D02*
X275590Y247638D01*
X185039Y333661D02*
X187992Y330709D01*
X133858Y333661D02*
Y336358D01*
X143189Y345689D01*
X145669Y343209D01*
Y333661D02*
Y343209D01*
X228189Y345689D02*
X231299Y348799D01*
X217520Y346516D02*
X218347Y345689D01*
Y341083D02*
Y345689D01*
X212598Y335335D02*
X218347Y341083D01*
X187992Y349410D02*
Y358268D01*
X185039Y346457D02*
X187992Y349410D01*
X174213Y347441D02*
Y358268D01*
Y347441D02*
X175197Y346457D01*
Y345177D02*
Y346457D01*
X165354Y335335D02*
X175197Y345177D01*
X215059Y319882D02*
X228346D01*
X208858Y326083D02*
X215059Y319882D01*
X202658D02*
X208858Y326083D01*
X185039Y319882D02*
X202658D01*
X211713Y330709D02*
X216339Y326083D01*
X187992Y330709D02*
X211713D01*
X216535Y326772D02*
X221457D01*
X228346Y333661D01*
X157480Y330709D02*
X164469D01*
X140748Y326772D02*
X153543D01*
X133858Y319882D02*
X140748Y326772D01*
X164469Y330709D02*
X169095Y326083D01*
X60000Y183189D02*
X65000Y188189D01*
X25689Y183189D02*
X60000D01*
X43287Y200787D02*
X55118D01*
X88779Y188189D02*
X101378Y200787D01*
X85000Y188189D02*
X88779D01*
X55098Y200787D02*
X60039D01*
X25689Y183189D02*
X43287Y200787D01*
X50689Y275689D02*
X68189D01*
X50689Y283189D02*
X68189D01*
X167815Y319882D02*
X185039D01*
X161614Y326083D02*
X167815Y319882D01*
D20*
X168976Y293976D02*
Y301024D01*
X153543Y278543D02*
X168976Y293976D01*
X120079Y278543D02*
X153543D01*
X92520Y306102D02*
X120079Y278543D01*
X147638Y289370D02*
X159134Y300866D01*
X132874Y289370D02*
X147638D01*
X121063Y301181D02*
X132874Y289370D01*
X121063Y301181D02*
Y307087D01*
X81890Y346260D02*
X82677Y345472D01*
X67618Y346260D02*
X81890D01*
X58366Y355709D02*
X68799Y366142D01*
X58366Y342520D02*
Y355709D01*
X49370Y342520D02*
X58366D01*
X45433Y346457D02*
X49370Y342520D01*
X35433Y360138D02*
X41437Y366142D01*
X35433Y346457D02*
Y360138D01*
X121063Y307087D02*
Y315453D01*
X113484Y323031D02*
X121063Y315453D01*
X110689Y345689D02*
X122736Y333642D01*
Y326772D02*
Y333642D01*
X110689Y345689D02*
Y356850D01*
X119980Y366142D01*
X92618D02*
X100689Y358071D01*
Y345689D02*
Y358071D01*
X82677Y345472D02*
X92520Y335630D01*
Y306102D02*
Y335630D01*
D21*
X0Y0D02*
D03*
X267717D02*
D03*
Y370079D02*
D03*
X0D02*
D03*
D22*
X65000Y188189D02*
D03*
X75000D02*
D03*
X85000D02*
D03*
X129921Y197165D02*
D03*
Y187165D02*
D03*
Y177165D02*
D03*
X268976Y301024D02*
D03*
Y241024D02*
D03*
X258976D02*
D03*
X248976D02*
D03*
X198976Y271024D02*
D03*
Y261024D02*
D03*
X208976D02*
D03*
Y271024D02*
D03*
X188976Y261024D02*
D03*
X178976D02*
D03*
X168976D02*
D03*
X158976D02*
D03*
X148976D02*
D03*
Y271024D02*
D03*
X158976D02*
D03*
X168976D02*
D03*
X178976D02*
D03*
X188976D02*
D03*
X238976Y241024D02*
D03*
X228976D02*
D03*
X218976D02*
D03*
X208976D02*
D03*
X198976D02*
D03*
X188976D02*
D03*
X178976D02*
D03*
X168976D02*
D03*
X158976D02*
D03*
X148976D02*
D03*
X138976D02*
D03*
Y301024D02*
D03*
X148976D02*
D03*
X158976D02*
D03*
X168976D02*
D03*
X178976D02*
D03*
X188976D02*
D03*
X198976D02*
D03*
X208976D02*
D03*
X218976D02*
D03*
X228976D02*
D03*
X238976D02*
D03*
X248976D02*
D03*
X258976D02*
D03*
D23*
X55158Y23189D02*
D03*
X26221D02*
D03*
D24*
X28189Y-1811D02*
D03*
X53189D02*
D03*
D25*
X15748Y236221D02*
D03*
Y226378D02*
D03*
Y216535D02*
D03*
D26*
X25689Y193032D02*
D03*
Y183189D02*
D03*
X217520Y346457D02*
D03*
X207677D02*
D03*
X227677D02*
D03*
X174213D02*
D03*
X164370D02*
D03*
X184370D02*
D03*
X133189Y345689D02*
D03*
X143032D02*
D03*
X35433Y346457D02*
D03*
X45276D02*
D03*
X100689Y345689D02*
D03*
X110531D02*
D03*
D27*
X65067Y160689D02*
D03*
D28*
X43413D02*
D03*
D29*
X14673D02*
D03*
D30*
X11811Y136221D02*
D03*
Y47244D02*
D03*
D31*
Y92244D02*
D03*
D32*
X90551Y161417D02*
D03*
X103937D02*
D03*
D33*
X45689Y63189D02*
D03*
Y83189D02*
D03*
Y123189D02*
D03*
X225689Y53189D02*
D03*
Y93189D02*
D03*
Y133189D02*
D03*
D34*
X236221Y182087D02*
D03*
X68189Y291063D02*
D03*
X50689D02*
D03*
Y275689D02*
D03*
X68189D02*
D03*
X50689Y283189D02*
D03*
X68189D02*
D03*
D35*
X154528Y320866D02*
D03*
X183071Y229331D02*
D03*
D36*
X113484Y323031D02*
D03*
Y330512D02*
D03*
X122736Y326772D02*
D03*
X67618Y346260D02*
D03*
Y338779D02*
D03*
X58366Y342520D02*
D03*
D37*
X119980Y366142D02*
D03*
X92618D02*
D03*
X68799D02*
D03*
X41437D02*
D03*
D38*
X-3937Y196850D02*
X15748Y216535D01*
X-3937Y82677D02*
Y196850D01*
X219744Y47244D02*
X225689Y53189D01*
X-3937Y82677D02*
X31496Y47244D01*
X219744D01*
M02*
