G04 Layer_Physical_Order=1*
G04 Layer_Color=255*
%FSLAX25Y25*%
%MOIN*%
G70*
G01*
G75*
%ADD10R,0.06693X0.07874*%
%ADD11R,0.05906X0.05906*%
%ADD12R,0.02362X0.05709*%
%ADD13R,0.05906X0.10236*%
%ADD14C,0.01575*%
%ADD15C,0.03937*%
%ADD16C,0.07874*%
%ADD17C,0.02000*%
%ADD18C,0.05906*%
%ADD19C,0.12000*%
%ADD20C,0.11811*%
%ADD21C,0.06000*%
%ADD22C,0.20945*%
%ADD23R,0.11811X0.15748*%
%ADD24O,0.11811X0.15748*%
%ADD25O,0.07874X0.09843*%
%ADD26C,0.07874*%
%ADD27C,0.03937*%
%ADD28C,0.04000*%
G36*
X295372Y180118D02*
X293988Y179545D01*
X292448Y178601D01*
X291075Y177429D01*
X289902Y176056D01*
X288959Y174516D01*
X288268Y172847D01*
X287846Y171092D01*
X287705Y169291D01*
X287846Y167491D01*
X288268Y165735D01*
X288959Y164067D01*
X289902Y162527D01*
X291075Y161154D01*
X292448Y159981D01*
X293988Y159038D01*
X295656Y158347D01*
X297412Y157925D01*
X299213Y157783D01*
X301013Y157925D01*
X302769Y158347D01*
X304437Y159038D01*
X305977Y159981D01*
X307350Y161154D01*
X308523Y162527D01*
X309466Y164067D01*
X310039Y165451D01*
X311024Y165255D01*
Y112991D01*
X311024Y112007D01*
X292309D01*
X292260Y111997D01*
X292211Y112005D01*
X291878Y111921D01*
X291541Y111854D01*
X291500Y111827D01*
X291451Y111814D01*
X291248Y111663D01*
X291057Y111642D01*
X290286Y111851D01*
X290157Y111943D01*
X290089Y112004D01*
X289510Y113087D01*
X288647Y114139D01*
X287595Y115002D01*
X286396Y115643D01*
X285094Y116038D01*
X283740Y116171D01*
X282386Y116038D01*
X281085Y115643D01*
X279885Y115002D01*
X278834Y114139D01*
X277971Y113087D01*
X277392Y112004D01*
X277324Y111943D01*
X277195Y111851D01*
X276424Y111642D01*
X276233Y111663D01*
X276029Y111814D01*
X275980Y111827D01*
X275939Y111854D01*
X275602Y111921D01*
X275269Y112005D01*
X275220Y111997D01*
X275171Y112007D01*
X260821D01*
X260355Y112991D01*
X260848Y113592D01*
X261498Y114808D01*
X261899Y116128D01*
X262034Y117500D01*
X261899Y118872D01*
X261498Y120192D01*
X260848Y121408D01*
X259974Y122474D01*
X258908Y123348D01*
X257692Y123998D01*
X256372Y124399D01*
X255000Y124534D01*
X253628Y124399D01*
X252308Y123998D01*
X251092Y123348D01*
X250026Y122474D01*
X249151Y121408D01*
X248501Y120192D01*
X248101Y118872D01*
X247966Y117500D01*
X248101Y116128D01*
X248501Y114808D01*
X249151Y113592D01*
X249645Y112991D01*
X249179Y112007D01*
X239911D01*
X239445Y112991D01*
X239675Y113271D01*
X240378Y114587D01*
X240812Y116015D01*
X240822Y116122D01*
X233347D01*
X225871D01*
X225881Y116015D01*
X226314Y114587D01*
X227018Y113271D01*
X227248Y112991D01*
X226782Y112007D01*
X207500D01*
X206732Y111854D01*
X206081Y111419D01*
X205646Y110768D01*
X205493Y110000D01*
Y50000D01*
X205646Y49232D01*
X206081Y48581D01*
X206732Y48146D01*
X207500Y47993D01*
X219993D01*
X219993Y21964D01*
X219009Y21569D01*
X216789Y23789D01*
X216197Y24184D01*
X215500Y24322D01*
X215494Y25251D01*
Y34909D01*
X215953Y35507D01*
X216351Y36468D01*
X216487Y37500D01*
X216351Y38532D01*
X215953Y39493D01*
X215319Y40319D01*
X214493Y40953D01*
X213532Y41351D01*
X212500Y41487D01*
X211468Y41351D01*
X210507Y40953D01*
X209681Y40319D01*
X209047Y39493D01*
X208649Y38532D01*
X208513Y37500D01*
X208649Y36468D01*
X209047Y35507D01*
X209506Y34909D01*
Y26240D01*
X208760Y25494D01*
X180494D01*
Y34909D01*
X180953Y35507D01*
X181351Y36468D01*
X181487Y37500D01*
X181351Y38532D01*
X180953Y39493D01*
X180319Y40319D01*
X179493Y40953D01*
X178532Y41351D01*
X177500Y41487D01*
X176468Y41351D01*
X175507Y40953D01*
X174681Y40319D01*
X174047Y39493D01*
X173649Y38532D01*
X173513Y37500D01*
X173649Y36468D01*
X174047Y35507D01*
X174506Y34909D01*
Y26240D01*
X173760Y25494D01*
X125494D01*
Y34909D01*
X125953Y35507D01*
X126351Y36468D01*
X126487Y37500D01*
X126351Y38532D01*
X125953Y39493D01*
X125319Y40319D01*
X124493Y40953D01*
X123532Y41351D01*
X122500Y41487D01*
X121468Y41351D01*
X120507Y40953D01*
X119681Y40319D01*
X119047Y39493D01*
X118649Y38532D01*
X118513Y37500D01*
X118649Y36468D01*
X119047Y35507D01*
X119506Y34909D01*
Y26240D01*
X118760Y25494D01*
X70494D01*
Y34909D01*
X70953Y35507D01*
X71351Y36468D01*
X71487Y37500D01*
X71351Y38532D01*
X70953Y39493D01*
X70319Y40319D01*
X69493Y40953D01*
X68532Y41351D01*
X67500Y41487D01*
X66468Y41351D01*
X65507Y40953D01*
X64681Y40319D01*
X64047Y39493D01*
X63649Y38532D01*
X63513Y37500D01*
X63649Y36468D01*
X64047Y35507D01*
X64506Y34909D01*
Y26240D01*
X63760Y25494D01*
X23740D01*
X22926Y26308D01*
X23563Y27063D01*
X24430Y27063D01*
X32173D01*
Y36937D01*
X30149D01*
Y42572D01*
X30755Y43178D01*
X55000D01*
X55000Y43178D01*
X55697Y43316D01*
X56289Y43711D01*
X58789Y46211D01*
X58789Y46211D01*
X59184Y46803D01*
X59322Y47500D01*
Y49020D01*
X59681D01*
Y56728D01*
X55319D01*
Y49020D01*
X55319D01*
X55458Y48035D01*
X54245Y46822D01*
X30000D01*
X30000Y46822D01*
X29303Y46684D01*
X28711Y46289D01*
X27038Y44615D01*
X26643Y44024D01*
X26504Y43327D01*
X26504Y43327D01*
Y37801D01*
X26003Y37593D01*
X25383Y37117D01*
X25245Y36937D01*
X23480D01*
Y28044D01*
X23480Y27146D01*
X22726Y26509D01*
X17994Y31240D01*
Y148760D01*
X23740Y154506D01*
X54506D01*
Y147591D01*
X54047Y146993D01*
X53649Y146032D01*
X53513Y145000D01*
X53649Y143968D01*
X54047Y143007D01*
X54506Y142409D01*
Y122500D01*
X54608Y121725D01*
X54907Y121003D01*
X55383Y120383D01*
X57883Y117883D01*
X58503Y117407D01*
X59225Y117108D01*
X60000Y117006D01*
X67331D01*
X67983Y116506D01*
X68956Y116103D01*
X70000Y115965D01*
X71044Y116103D01*
X72017Y116506D01*
X72853Y117147D01*
X73494Y117983D01*
X73897Y118956D01*
X74035Y120000D01*
X73897Y121044D01*
X73494Y122017D01*
X72853Y122853D01*
X72017Y123494D01*
X71044Y123897D01*
X70000Y124035D01*
X68956Y123897D01*
X67983Y123494D01*
X67331Y122994D01*
X61240D01*
X60494Y123740D01*
Y142409D01*
X60953Y143007D01*
X61351Y143968D01*
X61487Y145000D01*
X61351Y146032D01*
X60953Y146993D01*
X60494Y147591D01*
Y153760D01*
X61240Y154506D01*
X89506D01*
Y147591D01*
X89047Y146993D01*
X88649Y146032D01*
X88513Y145000D01*
X88649Y143968D01*
X89047Y143007D01*
X89681Y142181D01*
X90507Y141547D01*
X91468Y141149D01*
X92500Y141013D01*
X93532Y141149D01*
X94493Y141547D01*
X95319Y142181D01*
X95953Y143007D01*
X96351Y143968D01*
X96487Y145000D01*
X96351Y146032D01*
X95953Y146993D01*
X95494Y147591D01*
Y153760D01*
X96240Y154506D01*
X144506D01*
Y147591D01*
X144047Y146993D01*
X143649Y146032D01*
X143513Y145000D01*
X143649Y143968D01*
X144047Y143007D01*
X144681Y142181D01*
X145507Y141547D01*
X146468Y141149D01*
X147500Y141013D01*
X148532Y141149D01*
X149493Y141547D01*
X150319Y142181D01*
X150953Y143007D01*
X151351Y143968D01*
X151487Y145000D01*
X151351Y146032D01*
X150953Y146993D01*
X150494Y147591D01*
Y153760D01*
X151240Y154506D01*
X196630D01*
X197210Y153522D01*
X197108Y153275D01*
X197006Y152500D01*
Y147591D01*
X196547Y146993D01*
X196149Y146032D01*
X196013Y145000D01*
X196149Y143968D01*
X196547Y143007D01*
X197181Y142181D01*
X198007Y141547D01*
X198178Y141476D01*
Y140000D01*
X198178Y140000D01*
X198316Y139303D01*
X198711Y138711D01*
X200711Y136711D01*
X200711Y136711D01*
X201303Y136316D01*
X202000Y136178D01*
X202000Y136178D01*
X217245D01*
X218178Y135245D01*
Y127343D01*
X217883Y127117D01*
X217407Y126497D01*
X217108Y125775D01*
X217006Y125000D01*
X217108Y124225D01*
X217407Y123503D01*
X217883Y122883D01*
X218503Y122407D01*
X219225Y122108D01*
X220000Y122006D01*
X220775Y122108D01*
X221497Y122407D01*
X222117Y122883D01*
X222593Y123503D01*
X222892Y124225D01*
X222994Y125000D01*
X222892Y125775D01*
X222593Y126497D01*
X222117Y127117D01*
X221822Y127343D01*
Y136000D01*
X221822Y136000D01*
X221684Y136697D01*
X221289Y137289D01*
X221289Y137289D01*
X219289Y139289D01*
X218697Y139684D01*
X218000Y139822D01*
X218000Y139822D01*
X202755D01*
X202010Y140567D01*
X202005Y140851D01*
X202096Y141626D01*
X202819Y142181D01*
X203453Y143007D01*
X203851Y143968D01*
X203987Y145000D01*
X203851Y146032D01*
X203453Y146993D01*
X202994Y147591D01*
Y151260D01*
X206240Y154506D01*
X223760D01*
X228551Y149715D01*
X228649Y148968D01*
X229047Y148007D01*
X229681Y147181D01*
X230507Y146547D01*
X231468Y146149D01*
X232500Y146013D01*
X233532Y146149D01*
X234493Y146547D01*
X235319Y147181D01*
X235953Y148007D01*
X236351Y148968D01*
X236487Y150000D01*
X236351Y151032D01*
X235953Y151993D01*
X235319Y152819D01*
X234493Y153453D01*
X233532Y153851D01*
X232785Y153949D01*
X229234Y157500D01*
X233116Y161382D01*
X235547D01*
Y173618D01*
X227642D01*
Y164376D01*
X223760Y160494D01*
X44890D01*
X43712Y161671D01*
Y164323D01*
X46520D01*
Y174197D01*
X37827D01*
Y164323D01*
X39634D01*
Y160827D01*
X39361Y160494D01*
X22500D01*
X21725Y160392D01*
X21302Y160217D01*
X21003Y160093D01*
X20383Y159617D01*
X12883Y152117D01*
X12407Y151497D01*
X12108Y150775D01*
X12006Y150000D01*
Y30000D01*
X12108Y29225D01*
X12407Y28503D01*
X12883Y27883D01*
X18356Y22410D01*
X17742Y21632D01*
X17036Y22065D01*
X15367Y22756D01*
X13611Y23177D01*
X11811Y23319D01*
X10011Y23177D01*
X8255Y22756D01*
X6587Y22065D01*
X5047Y21121D01*
X3674Y19948D01*
X2501Y18575D01*
X1557Y17036D01*
X984Y15652D01*
X0Y15848D01*
Y165255D01*
X984Y165451D01*
X1557Y164067D01*
X2501Y162527D01*
X3674Y161154D01*
X5047Y159981D01*
X6587Y159038D01*
X8255Y158347D01*
X10011Y157925D01*
X11811Y157783D01*
X13611Y157925D01*
X15367Y158347D01*
X17036Y159038D01*
X18575Y159981D01*
X19948Y161154D01*
X21121Y162527D01*
X22065Y164067D01*
X22669Y165527D01*
X23654Y165331D01*
Y164323D01*
X32346D01*
Y174197D01*
X23654D01*
Y173252D01*
X22669Y173056D01*
X22065Y174516D01*
X21121Y176056D01*
X19948Y177429D01*
X18575Y178601D01*
X17036Y179545D01*
X15652Y180118D01*
X15848Y181102D01*
X295176D01*
X295372Y180118D01*
D02*
G37*
G36*
X311024Y18231D02*
X310039Y17954D01*
X309309Y19146D01*
X308037Y20635D01*
X306548Y21907D01*
X304878Y22930D01*
X303069Y23680D01*
X301165Y24137D01*
X299213Y24290D01*
X297260Y24137D01*
X295356Y23680D01*
X293547Y22930D01*
X291877Y21907D01*
X290388Y20635D01*
X289117Y19146D01*
X288093Y17477D01*
X287344Y15667D01*
X286887Y13763D01*
X286787Y12500D01*
X271483D01*
X270532Y12579D01*
X270532Y13484D01*
Y22421D01*
X251969D01*
Y13484D01*
X251969Y12579D01*
X251017Y12500D01*
X248983D01*
X248031Y12579D01*
X248031Y13484D01*
Y22421D01*
X238189D01*
Y21011D01*
X238015Y20939D01*
X237192Y20308D01*
X236561Y19486D01*
X236164Y18528D01*
X236029Y17500D01*
X236164Y16472D01*
X236561Y15515D01*
X237192Y14692D01*
X238015Y14061D01*
X238189Y13989D01*
X238189Y12579D01*
X237237Y12500D01*
X222000D01*
X222000Y50000D01*
X207500D01*
Y110000D01*
X230620D01*
X231784Y109647D01*
X232980Y109529D01*
Y108540D01*
X231861Y108430D01*
X230434Y107997D01*
X229118Y107293D01*
X227964Y106347D01*
X227018Y105193D01*
X226314Y103877D01*
X225881Y102450D01*
X225871Y102342D01*
X233346D01*
X240822D01*
X240812Y102450D01*
X240378Y103877D01*
X239675Y105193D01*
X238729Y106347D01*
X237575Y107293D01*
X236259Y107997D01*
X234831Y108430D01*
X233713Y108540D01*
Y109529D01*
X234909Y109647D01*
X236073Y110000D01*
X252274D01*
X253109Y109747D01*
Y108718D01*
X251936Y108362D01*
X250552Y107622D01*
X249338Y106626D01*
X248342Y105413D01*
X247602Y104029D01*
X247147Y102527D01*
X246993Y100965D01*
X247147Y99402D01*
X247602Y97900D01*
X248266Y96658D01*
X245042Y93434D01*
X237415D01*
X237168Y94418D01*
X237575Y94636D01*
X238729Y95582D01*
X239675Y96736D01*
X240378Y98052D01*
X240812Y99480D01*
X240822Y99587D01*
X233346D01*
X225871D01*
X225881Y99480D01*
X226314Y98052D01*
X227018Y96736D01*
X227964Y95582D01*
X229118Y94636D01*
X229525Y94418D01*
X229278Y93434D01*
X220000D01*
X218842Y93320D01*
X217729Y92982D01*
X216703Y92434D01*
X215804Y91696D01*
X210804Y86696D01*
X210066Y85797D01*
X209518Y84771D01*
X209180Y83658D01*
X209066Y82500D01*
Y68484D01*
Y66516D01*
X209180Y65358D01*
X209518Y64245D01*
X210066Y63219D01*
X210804Y62320D01*
X211703Y61582D01*
X212729Y61033D01*
X213842Y60696D01*
X215000Y60582D01*
X216158Y60696D01*
X217271Y61033D01*
X218297Y61582D01*
X219196Y62320D01*
X219934Y63219D01*
X220482Y64245D01*
X220820Y65358D01*
X220934Y66516D01*
Y68484D01*
Y80042D01*
X222458Y81566D01*
X247500D01*
X248658Y81680D01*
X249771Y82018D01*
X250797Y82566D01*
X251696Y83304D01*
X259196Y90804D01*
X259934Y91703D01*
X260482Y92729D01*
X260820Y93842D01*
X260934Y95000D01*
Y95634D01*
X261658Y96516D01*
X262398Y97900D01*
X262853Y99402D01*
X263007Y100965D01*
X262853Y102527D01*
X262398Y104029D01*
X261658Y105413D01*
X260662Y106626D01*
X259449Y107622D01*
X258064Y108362D01*
X256891Y108718D01*
Y109641D01*
X257770Y110000D01*
X275171D01*
X275832Y109271D01*
X275828Y109232D01*
X275980Y107689D01*
X276430Y106204D01*
X277162Y104837D01*
X278145Y103638D01*
X279344Y102654D01*
X280712Y101923D01*
X282197Y101472D01*
X283740Y101320D01*
X285284Y101472D01*
X286768Y101923D01*
X288136Y102654D01*
X289335Y103638D01*
X290319Y104837D01*
X291050Y106204D01*
X291500Y107689D01*
X291652Y109232D01*
X291649Y109271D01*
X292309Y110000D01*
X311024D01*
Y18231D01*
D02*
G37*
G36*
X216178Y19245D02*
Y8000D01*
X216178Y8000D01*
X216316Y7303D01*
X216711Y6711D01*
X219711Y3711D01*
X220303Y3316D01*
X221000Y3178D01*
X221000Y3178D01*
X239158D01*
Y1047D01*
X247063D01*
Y8953D01*
X239158D01*
Y6822D01*
X221755D01*
X219822Y8755D01*
Y10494D01*
X220026Y10652D01*
X220807Y10930D01*
X221232Y10646D01*
X222000Y10493D01*
X237237D01*
X237320Y10509D01*
X237403Y10500D01*
X238354Y10578D01*
X238653Y10664D01*
X238957Y10724D01*
X239027Y10771D01*
X239107Y10794D01*
X239350Y10987D01*
X239608Y11159D01*
X239655Y11229D01*
X239720Y11281D01*
X239871Y11553D01*
X240043Y11811D01*
X240060Y11893D01*
X240100Y11966D01*
X240136Y12274D01*
X240196Y12579D01*
X240196Y13547D01*
X245085D01*
X246024Y13484D01*
X246024Y12579D01*
X246085Y12274D01*
X246120Y11966D01*
X246161Y11893D01*
X246177Y11811D01*
X246350Y11553D01*
X246500Y11281D01*
X246566Y11229D01*
X246612Y11159D01*
X246870Y10987D01*
X247113Y10794D01*
X247194Y10771D01*
X247264Y10724D01*
X247568Y10664D01*
X247866Y10578D01*
X248818Y10500D01*
X248901Y10509D01*
X248983Y10493D01*
X251017D01*
X251099Y10509D01*
X251182Y10500D01*
X252134Y10578D01*
X252432Y10664D01*
X252736Y10724D01*
X252806Y10771D01*
X252887Y10794D01*
X253130Y10987D01*
X253388Y11159D01*
X253434Y11229D01*
X253500Y11281D01*
X253650Y11553D01*
X253823Y11811D01*
X253839Y11893D01*
X253880Y11966D01*
X253915Y12274D01*
X253976Y12579D01*
X253976Y13484D01*
X254915Y13547D01*
X260842D01*
Y13547D01*
X261658D01*
Y13547D01*
X267585D01*
X268524Y13484D01*
X268524Y12579D01*
X268585Y12274D01*
X268620Y11966D01*
X268661Y11893D01*
X268677Y11811D01*
X268850Y11553D01*
X269000Y11281D01*
X269066Y11229D01*
X269112Y11159D01*
X269370Y10987D01*
X269613Y10794D01*
X269694Y10771D01*
X269763Y10724D01*
X270068Y10664D01*
X270366Y10578D01*
X271318Y10500D01*
X271401Y10509D01*
X271483Y10493D01*
X286787D01*
X286821Y10499D01*
X287715Y10073D01*
X287910Y9745D01*
X288268Y8255D01*
X288959Y6587D01*
X289902Y5047D01*
X291075Y3674D01*
X292448Y2501D01*
X293988Y1557D01*
X295365Y987D01*
X295169Y3D01*
X16336Y202D01*
X16141Y1187D01*
X17036Y1557D01*
X18575Y2501D01*
X19948Y3674D01*
X21121Y5047D01*
X22065Y6587D01*
X22496Y7628D01*
X23480Y7432D01*
Y5803D01*
X32173D01*
Y15677D01*
X30366D01*
Y19173D01*
X30639Y19506D01*
X210000D01*
X210775Y19608D01*
X211497Y19907D01*
X212117Y20383D01*
X212412Y20678D01*
X214745D01*
X216178Y19245D01*
D02*
G37*
%LPC*%
G36*
X247358Y173618D02*
X239453D01*
Y161382D01*
X239506D01*
Y153953D01*
X238547D01*
Y146047D01*
X246453D01*
Y153953D01*
X245494D01*
Y161382D01*
X247358D01*
Y162006D01*
X272331D01*
X272983Y161506D01*
X273956Y161103D01*
X275000Y160966D01*
X276044Y161103D01*
X277017Y161506D01*
X277853Y162147D01*
X278494Y162983D01*
X278897Y163956D01*
X279034Y165000D01*
X278897Y166044D01*
X278494Y167017D01*
X277853Y167853D01*
X277017Y168494D01*
X276044Y168897D01*
X275000Y169035D01*
X273956Y168897D01*
X272983Y168494D01*
X272331Y167994D01*
X247358D01*
Y173618D01*
D02*
G37*
G36*
X276378Y159381D02*
Y156378D01*
X279381D01*
X278996Y157307D01*
X278263Y158263D01*
X277307Y158996D01*
X276378Y159381D01*
D02*
G37*
G36*
X273622Y159381D02*
X272693Y158996D01*
X271737Y158263D01*
X271004Y157307D01*
X270619Y156378D01*
X273622D01*
Y159381D01*
D02*
G37*
G36*
X279381Y153622D02*
X276378D01*
Y150619D01*
X277307Y151004D01*
X278263Y151737D01*
X278996Y152693D01*
X279381Y153622D01*
D02*
G37*
G36*
X273622D02*
X270619D01*
X271004Y152693D01*
X271737Y151737D01*
X272693Y151004D01*
X273622Y150619D01*
Y153622D01*
D02*
G37*
G36*
X32346Y152937D02*
X28500D01*
Y148500D01*
X32346D01*
Y152937D01*
D02*
G37*
G36*
X27500D02*
X23654D01*
Y148500D01*
X27500D01*
Y152937D01*
D02*
G37*
G36*
X177528Y148921D02*
Y145500D01*
X180949D01*
X180879Y146032D01*
X180480Y146993D01*
X179847Y147819D01*
X179021Y148453D01*
X178059Y148851D01*
X177528Y148921D01*
D02*
G37*
G36*
X176528D02*
X175996Y148851D01*
X175034Y148453D01*
X174208Y147819D01*
X173575Y146993D01*
X173177Y146032D01*
X173107Y145500D01*
X176528D01*
Y148921D01*
D02*
G37*
G36*
X122528D02*
Y145500D01*
X125949D01*
X125879Y146032D01*
X125480Y146993D01*
X124847Y147819D01*
X124021Y148453D01*
X123059Y148851D01*
X122528Y148921D01*
D02*
G37*
G36*
X121528D02*
X120996Y148851D01*
X120034Y148453D01*
X119208Y147819D01*
X118575Y146993D01*
X118176Y146032D01*
X118106Y145500D01*
X121528D01*
Y148921D01*
D02*
G37*
G36*
X46520Y152937D02*
X37827D01*
Y145257D01*
X37729Y145169D01*
X36843Y144828D01*
X36497Y145093D01*
X35775Y145392D01*
X35000Y145494D01*
X34225Y145392D01*
X33503Y145093D01*
X33331Y144961D01*
X32346Y145446D01*
Y147500D01*
X28500D01*
Y143063D01*
X31512D01*
X32006Y142500D01*
X32108Y141725D01*
X32407Y141003D01*
X32883Y140383D01*
X33503Y139907D01*
X34225Y139608D01*
X35000Y139506D01*
X35775Y139608D01*
X36497Y139907D01*
X37117Y140383D01*
X37343Y140678D01*
X40000D01*
X40000Y140678D01*
X40697Y140816D01*
X41289Y141211D01*
X42962Y142885D01*
X43081Y143063D01*
X46520D01*
Y152937D01*
D02*
G37*
G36*
X27500Y147500D02*
X23654D01*
Y143063D01*
X27500D01*
Y147500D01*
D02*
G37*
G36*
X180949Y144500D02*
X177528D01*
Y141079D01*
X178059Y141149D01*
X179021Y141547D01*
X179847Y142181D01*
X180480Y143007D01*
X180879Y143968D01*
X180949Y144500D01*
D02*
G37*
G36*
X176528D02*
X173107D01*
X173177Y143968D01*
X173575Y143007D01*
X174208Y142181D01*
X175034Y141547D01*
X175996Y141149D01*
X176528Y141079D01*
Y144500D01*
D02*
G37*
G36*
X125949D02*
X122528D01*
Y141079D01*
X123059Y141149D01*
X124021Y141547D01*
X124847Y142181D01*
X125480Y143007D01*
X125879Y143968D01*
X125949Y144500D01*
D02*
G37*
G36*
X121528D02*
X118106D01*
X118176Y143968D01*
X118575Y143007D01*
X119208Y142181D01*
X120034Y141547D01*
X120996Y141149D01*
X121528Y141079D01*
Y144500D01*
D02*
G37*
G36*
X209842Y148987D02*
X208811Y148851D01*
X207849Y148453D01*
X207023Y147819D01*
X206390Y146993D01*
X205992Y146032D01*
X205856Y145000D01*
X205992Y143968D01*
X206390Y143007D01*
X207023Y142181D01*
X207849Y141547D01*
X208811Y141149D01*
X209842Y141013D01*
X210874Y141149D01*
X211836Y141547D01*
X212662Y142181D01*
X213295Y143007D01*
X213693Y143968D01*
X213829Y145000D01*
X213693Y146032D01*
X213295Y146993D01*
X212662Y147819D01*
X211836Y148453D01*
X210874Y148851D01*
X209842Y148987D01*
D02*
G37*
G36*
X167185D02*
X166153Y148851D01*
X165192Y148453D01*
X164366Y147819D01*
X163732Y146993D01*
X163334Y146032D01*
X163198Y145000D01*
X163334Y143968D01*
X163732Y143007D01*
X164366Y142181D01*
X165192Y141547D01*
X166153Y141149D01*
X167185Y141013D01*
X168217Y141149D01*
X169178Y141547D01*
X170004Y142181D01*
X170638Y143007D01*
X171036Y143968D01*
X171172Y145000D01*
X171036Y146032D01*
X170638Y146993D01*
X170004Y147819D01*
X169178Y148453D01*
X168217Y148851D01*
X167185Y148987D01*
D02*
G37*
G36*
X157343D02*
X156311Y148851D01*
X155349Y148453D01*
X154523Y147819D01*
X153890Y146993D01*
X153491Y146032D01*
X153356Y145000D01*
X153491Y143968D01*
X153890Y143007D01*
X154523Y142181D01*
X155349Y141547D01*
X156311Y141149D01*
X157343Y141013D01*
X158374Y141149D01*
X159336Y141547D01*
X160162Y142181D01*
X160795Y143007D01*
X161194Y143968D01*
X161329Y145000D01*
X161194Y146032D01*
X160795Y146993D01*
X160162Y147819D01*
X159336Y148453D01*
X158374Y148851D01*
X157343Y148987D01*
D02*
G37*
G36*
X112185D02*
X111153Y148851D01*
X110192Y148453D01*
X109366Y147819D01*
X108732Y146993D01*
X108334Y146032D01*
X108198Y145000D01*
X108334Y143968D01*
X108732Y143007D01*
X109366Y142181D01*
X110192Y141547D01*
X111153Y141149D01*
X112185Y141013D01*
X113217Y141149D01*
X114179Y141547D01*
X115004Y142181D01*
X115638Y143007D01*
X116036Y143968D01*
X116172Y145000D01*
X116036Y146032D01*
X115638Y146993D01*
X115004Y147819D01*
X114179Y148453D01*
X113217Y148851D01*
X112185Y148987D01*
D02*
G37*
G36*
X102342D02*
X101311Y148851D01*
X100349Y148453D01*
X99523Y147819D01*
X98890Y146993D01*
X98492Y146032D01*
X98356Y145000D01*
X98492Y143968D01*
X98890Y143007D01*
X99523Y142181D01*
X100349Y141547D01*
X101311Y141149D01*
X102342Y141013D01*
X103374Y141149D01*
X104336Y141547D01*
X105162Y142181D01*
X105795Y143007D01*
X106193Y143968D01*
X106329Y145000D01*
X106193Y146032D01*
X105795Y146993D01*
X105162Y147819D01*
X104336Y148453D01*
X103374Y148851D01*
X102342Y148987D01*
D02*
G37*
G36*
X67343D02*
X66311Y148851D01*
X65349Y148453D01*
X64523Y147819D01*
X63890Y146993D01*
X63491Y146032D01*
X63356Y145000D01*
X63491Y143968D01*
X63890Y143007D01*
X64523Y142181D01*
X65349Y141547D01*
X66311Y141149D01*
X67343Y141013D01*
X68374Y141149D01*
X69336Y141547D01*
X70162Y142181D01*
X70795Y143007D01*
X71193Y143968D01*
X71329Y145000D01*
X71193Y146032D01*
X70795Y146993D01*
X70162Y147819D01*
X69336Y148453D01*
X68374Y148851D01*
X67343Y148987D01*
D02*
G37*
G36*
X275000Y149035D02*
X273956Y148897D01*
X272983Y148494D01*
X272147Y147853D01*
X271506Y147017D01*
X271103Y146044D01*
X270966Y145000D01*
X271103Y143956D01*
X271506Y142983D01*
X272147Y142147D01*
X272983Y141506D01*
X273956Y141103D01*
X275000Y140965D01*
X276044Y141103D01*
X277017Y141506D01*
X277853Y142147D01*
X278494Y142983D01*
X278897Y143956D01*
X279034Y145000D01*
X278897Y146044D01*
X278494Y147017D01*
X277853Y147853D01*
X277017Y148494D01*
X276044Y148897D01*
X275000Y149035D01*
D02*
G37*
G36*
X37500Y130857D02*
X36468Y130721D01*
X35507Y130323D01*
X34681Y129689D01*
X34047Y128864D01*
X33649Y127902D01*
X33513Y126870D01*
X33649Y125838D01*
X34047Y124877D01*
X34681Y124051D01*
X35507Y123417D01*
X36468Y123019D01*
X37500Y122883D01*
X38532Y123019D01*
X39493Y123417D01*
X40319Y124051D01*
X40953Y124877D01*
X41351Y125838D01*
X41487Y126870D01*
X41351Y127902D01*
X40953Y128864D01*
X40319Y129689D01*
X39493Y130323D01*
X38532Y130721D01*
X37500Y130857D01*
D02*
G37*
G36*
X81378Y124381D02*
Y121378D01*
X84381D01*
X83996Y122307D01*
X83263Y123263D01*
X82307Y123996D01*
X81378Y124381D01*
D02*
G37*
G36*
X78622Y124381D02*
X77693Y123996D01*
X76737Y123263D01*
X76004Y122307D01*
X75619Y121378D01*
X78622D01*
Y124381D01*
D02*
G37*
G36*
X234724Y124976D02*
Y118878D01*
X240822D01*
X240812Y118985D01*
X240378Y120413D01*
X239675Y121729D01*
X238729Y122882D01*
X237575Y123829D01*
X236259Y124532D01*
X234831Y124965D01*
X234724Y124976D01*
D02*
G37*
G36*
X231968Y124976D02*
X231861Y124965D01*
X230434Y124532D01*
X229118Y123829D01*
X227964Y122882D01*
X227018Y121729D01*
X226314Y120413D01*
X225881Y118985D01*
X225871Y118878D01*
X231968D01*
Y124976D01*
D02*
G37*
G36*
X200000Y124035D02*
X198956Y123897D01*
X197983Y123494D01*
X197147Y122853D01*
X196506Y122017D01*
X196103Y121044D01*
X195966Y120000D01*
X196103Y118956D01*
X196506Y117983D01*
X197147Y117147D01*
X197983Y116506D01*
X198956Y116103D01*
X200000Y115965D01*
X201044Y116103D01*
X202017Y116506D01*
X202853Y117147D01*
X203494Y117983D01*
X203897Y118956D01*
X204034Y120000D01*
X203897Y121044D01*
X203494Y122017D01*
X202853Y122853D01*
X202017Y123494D01*
X201044Y123897D01*
X200000Y124035D01*
D02*
G37*
G36*
X190000D02*
X188956Y123897D01*
X187983Y123494D01*
X187147Y122853D01*
X186506Y122017D01*
X186103Y121044D01*
X185966Y120000D01*
X186103Y118956D01*
X186506Y117983D01*
X187147Y117147D01*
X187983Y116506D01*
X188956Y116103D01*
X190000Y115965D01*
X191044Y116103D01*
X192017Y116506D01*
X192853Y117147D01*
X193494Y117983D01*
X193897Y118956D01*
X194035Y120000D01*
X193897Y121044D01*
X193494Y122017D01*
X192853Y122853D01*
X192017Y123494D01*
X191044Y123897D01*
X190000Y124035D01*
D02*
G37*
G36*
X180000D02*
X178956Y123897D01*
X177983Y123494D01*
X177147Y122853D01*
X176506Y122017D01*
X176103Y121044D01*
X175965Y120000D01*
X176103Y118956D01*
X176506Y117983D01*
X177147Y117147D01*
X177983Y116506D01*
X178956Y116103D01*
X180000Y115965D01*
X181044Y116103D01*
X182017Y116506D01*
X182853Y117147D01*
X183494Y117983D01*
X183897Y118956D01*
X184035Y120000D01*
X183897Y121044D01*
X183494Y122017D01*
X182853Y122853D01*
X182017Y123494D01*
X181044Y123897D01*
X180000Y124035D01*
D02*
G37*
G36*
X170000D02*
X168956Y123897D01*
X167983Y123494D01*
X167147Y122853D01*
X166506Y122017D01*
X166103Y121044D01*
X165965Y120000D01*
X166103Y118956D01*
X166506Y117983D01*
X167147Y117147D01*
X167983Y116506D01*
X168956Y116103D01*
X170000Y115965D01*
X171044Y116103D01*
X172017Y116506D01*
X172853Y117147D01*
X173494Y117983D01*
X173897Y118956D01*
X174035Y120000D01*
X173897Y121044D01*
X173494Y122017D01*
X172853Y122853D01*
X172017Y123494D01*
X171044Y123897D01*
X170000Y124035D01*
D02*
G37*
G36*
X160000D02*
X158956Y123897D01*
X157983Y123494D01*
X157147Y122853D01*
X156506Y122017D01*
X156103Y121044D01*
X155965Y120000D01*
X156103Y118956D01*
X156506Y117983D01*
X157147Y117147D01*
X157983Y116506D01*
X158956Y116103D01*
X160000Y115965D01*
X161044Y116103D01*
X162017Y116506D01*
X162853Y117147D01*
X163494Y117983D01*
X163897Y118956D01*
X164034Y120000D01*
X163897Y121044D01*
X163494Y122017D01*
X162853Y122853D01*
X162017Y123494D01*
X161044Y123897D01*
X160000Y124035D01*
D02*
G37*
G36*
X150000D02*
X148956Y123897D01*
X147983Y123494D01*
X147147Y122853D01*
X146506Y122017D01*
X146103Y121044D01*
X145966Y120000D01*
X146103Y118956D01*
X146506Y117983D01*
X147147Y117147D01*
X147983Y116506D01*
X148956Y116103D01*
X150000Y115965D01*
X151044Y116103D01*
X152017Y116506D01*
X152853Y117147D01*
X153494Y117983D01*
X153897Y118956D01*
X154034Y120000D01*
X153897Y121044D01*
X153494Y122017D01*
X152853Y122853D01*
X152017Y123494D01*
X151044Y123897D01*
X150000Y124035D01*
D02*
G37*
G36*
X140000D02*
X138956Y123897D01*
X137983Y123494D01*
X137147Y122853D01*
X136506Y122017D01*
X136103Y121044D01*
X135966Y120000D01*
X136103Y118956D01*
X136506Y117983D01*
X137147Y117147D01*
X137983Y116506D01*
X138956Y116103D01*
X140000Y115965D01*
X141044Y116103D01*
X142017Y116506D01*
X142853Y117147D01*
X143494Y117983D01*
X143897Y118956D01*
X144035Y120000D01*
X143897Y121044D01*
X143494Y122017D01*
X142853Y122853D01*
X142017Y123494D01*
X141044Y123897D01*
X140000Y124035D01*
D02*
G37*
G36*
X130000D02*
X128956Y123897D01*
X127983Y123494D01*
X127147Y122853D01*
X126506Y122017D01*
X126103Y121044D01*
X125965Y120000D01*
X126103Y118956D01*
X126506Y117983D01*
X127147Y117147D01*
X127983Y116506D01*
X128956Y116103D01*
X130000Y115965D01*
X131044Y116103D01*
X132017Y116506D01*
X132853Y117147D01*
X133494Y117983D01*
X133897Y118956D01*
X134035Y120000D01*
X133897Y121044D01*
X133494Y122017D01*
X132853Y122853D01*
X132017Y123494D01*
X131044Y123897D01*
X130000Y124035D01*
D02*
G37*
G36*
X120000D02*
X118956Y123897D01*
X117983Y123494D01*
X117147Y122853D01*
X116506Y122017D01*
X116103Y121044D01*
X115965Y120000D01*
X116103Y118956D01*
X116506Y117983D01*
X117147Y117147D01*
X117983Y116506D01*
X118956Y116103D01*
X120000Y115965D01*
X121044Y116103D01*
X122017Y116506D01*
X122853Y117147D01*
X123494Y117983D01*
X123897Y118956D01*
X124035Y120000D01*
X123897Y121044D01*
X123494Y122017D01*
X122853Y122853D01*
X122017Y123494D01*
X121044Y123897D01*
X120000Y124035D01*
D02*
G37*
G36*
X110000D02*
X108956Y123897D01*
X107983Y123494D01*
X107147Y122853D01*
X106506Y122017D01*
X106103Y121044D01*
X105965Y120000D01*
X106103Y118956D01*
X106506Y117983D01*
X107147Y117147D01*
X107983Y116506D01*
X108956Y116103D01*
X110000Y115965D01*
X111044Y116103D01*
X112017Y116506D01*
X112853Y117147D01*
X113494Y117983D01*
X113897Y118956D01*
X114034Y120000D01*
X113897Y121044D01*
X113494Y122017D01*
X112853Y122853D01*
X112017Y123494D01*
X111044Y123897D01*
X110000Y124035D01*
D02*
G37*
G36*
X100000D02*
X98956Y123897D01*
X97983Y123494D01*
X97147Y122853D01*
X96506Y122017D01*
X96103Y121044D01*
X95965Y120000D01*
X96103Y118956D01*
X96506Y117983D01*
X97147Y117147D01*
X97983Y116506D01*
X98956Y116103D01*
X100000Y115965D01*
X101044Y116103D01*
X102017Y116506D01*
X102853Y117147D01*
X103494Y117983D01*
X103897Y118956D01*
X104034Y120000D01*
X103897Y121044D01*
X103494Y122017D01*
X102853Y122853D01*
X102017Y123494D01*
X101044Y123897D01*
X100000Y124035D01*
D02*
G37*
G36*
X84381Y118622D02*
X81378D01*
Y115619D01*
X82307Y116004D01*
X83263Y116737D01*
X83996Y117693D01*
X84381Y118622D01*
D02*
G37*
G36*
X78622D02*
X75619D01*
X76004Y117693D01*
X76737Y116737D01*
X77693Y116004D01*
X78622Y115619D01*
Y118622D01*
D02*
G37*
G36*
X37500Y121014D02*
X36468Y120879D01*
X35507Y120480D01*
X34681Y119847D01*
X34047Y119021D01*
X33649Y118059D01*
X33513Y117028D01*
X33649Y115996D01*
X34047Y115034D01*
X34681Y114208D01*
X35507Y113575D01*
X36468Y113177D01*
X37500Y113041D01*
X38532Y113177D01*
X39493Y113575D01*
X40319Y114208D01*
X40953Y115034D01*
X41351Y115996D01*
X41487Y117028D01*
X41351Y118059D01*
X40953Y119021D01*
X40319Y119847D01*
X39493Y120480D01*
X38532Y120879D01*
X37500Y121014D01*
D02*
G37*
G36*
Y111172D02*
X36468Y111036D01*
X35507Y110638D01*
X34681Y110004D01*
X34047Y109178D01*
X33649Y108217D01*
X33513Y107185D01*
X33649Y106153D01*
X34047Y105192D01*
X34681Y104366D01*
X35507Y103732D01*
X36468Y103334D01*
X37500Y103198D01*
X38532Y103334D01*
X39493Y103732D01*
X40319Y104366D01*
X40953Y105192D01*
X41351Y106153D01*
X41487Y107185D01*
X41351Y108217D01*
X40953Y109178D01*
X40319Y110004D01*
X39493Y110638D01*
X38532Y111036D01*
X37500Y111172D01*
D02*
G37*
G36*
X190000Y104034D02*
X188956Y103897D01*
X187983Y103494D01*
X187147Y102853D01*
X186506Y102017D01*
X186103Y101044D01*
X185966Y100000D01*
X186103Y98956D01*
X186506Y97983D01*
X187147Y97147D01*
X187983Y96506D01*
X188956Y96103D01*
X190000Y95965D01*
X191044Y96103D01*
X192017Y96506D01*
X192853Y97147D01*
X193494Y97983D01*
X193897Y98956D01*
X194035Y100000D01*
X193897Y101044D01*
X193494Y102017D01*
X192853Y102853D01*
X192017Y103494D01*
X191044Y103897D01*
X190000Y104034D01*
D02*
G37*
G36*
X180000D02*
X178956Y103897D01*
X177983Y103494D01*
X177147Y102853D01*
X176506Y102017D01*
X176103Y101044D01*
X175965Y100000D01*
X176103Y98956D01*
X176506Y97983D01*
X177147Y97147D01*
X177983Y96506D01*
X178956Y96103D01*
X180000Y95965D01*
X181044Y96103D01*
X182017Y96506D01*
X182853Y97147D01*
X183494Y97983D01*
X183897Y98956D01*
X184035Y100000D01*
X183897Y101044D01*
X183494Y102017D01*
X182853Y102853D01*
X182017Y103494D01*
X181044Y103897D01*
X180000Y104034D01*
D02*
G37*
G36*
X170000D02*
X168956Y103897D01*
X167983Y103494D01*
X167147Y102853D01*
X166506Y102017D01*
X166103Y101044D01*
X165965Y100000D01*
X166103Y98956D01*
X166506Y97983D01*
X167147Y97147D01*
X167983Y96506D01*
X168956Y96103D01*
X170000Y95965D01*
X171044Y96103D01*
X172017Y96506D01*
X172853Y97147D01*
X173494Y97983D01*
X173897Y98956D01*
X174035Y100000D01*
X173897Y101044D01*
X173494Y102017D01*
X172853Y102853D01*
X172017Y103494D01*
X171044Y103897D01*
X170000Y104034D01*
D02*
G37*
G36*
X150000D02*
X148956Y103897D01*
X147983Y103494D01*
X147147Y102853D01*
X146506Y102017D01*
X146103Y101044D01*
X145966Y100000D01*
X146103Y98956D01*
X146506Y97983D01*
X147147Y97147D01*
X147983Y96506D01*
X148956Y96103D01*
X150000Y95965D01*
X151044Y96103D01*
X152017Y96506D01*
X152853Y97147D01*
X153494Y97983D01*
X153897Y98956D01*
X154034Y100000D01*
X153897Y101044D01*
X153494Y102017D01*
X152853Y102853D01*
X152017Y103494D01*
X151044Y103897D01*
X150000Y104034D01*
D02*
G37*
G36*
X140000D02*
X138956Y103897D01*
X137983Y103494D01*
X137147Y102853D01*
X136506Y102017D01*
X136103Y101044D01*
X135966Y100000D01*
X136103Y98956D01*
X136506Y97983D01*
X137147Y97147D01*
X137983Y96506D01*
X138956Y96103D01*
X140000Y95965D01*
X141044Y96103D01*
X142017Y96506D01*
X142853Y97147D01*
X143494Y97983D01*
X143897Y98956D01*
X144035Y100000D01*
X143897Y101044D01*
X143494Y102017D01*
X142853Y102853D01*
X142017Y103494D01*
X141044Y103897D01*
X140000Y104034D01*
D02*
G37*
G36*
X130000D02*
X128956Y103897D01*
X127983Y103494D01*
X127147Y102853D01*
X126506Y102017D01*
X126103Y101044D01*
X125965Y100000D01*
X126103Y98956D01*
X126506Y97983D01*
X127147Y97147D01*
X127983Y96506D01*
X128956Y96103D01*
X130000Y95965D01*
X131044Y96103D01*
X132017Y96506D01*
X132853Y97147D01*
X133494Y97983D01*
X133897Y98956D01*
X134035Y100000D01*
X133897Y101044D01*
X133494Y102017D01*
X132853Y102853D01*
X132017Y103494D01*
X131044Y103897D01*
X130000Y104034D01*
D02*
G37*
G36*
X160000D02*
X158956Y103897D01*
X157983Y103494D01*
X157147Y102853D01*
X156506Y102017D01*
X156103Y101044D01*
X155965Y100000D01*
X156103Y98956D01*
X156506Y97983D01*
X157147Y97147D01*
X157983Y96506D01*
X158956Y96103D01*
X160000Y95965D01*
X161044Y96103D01*
X161239Y96184D01*
X162711Y94712D01*
X162643Y94254D01*
X162536Y94125D01*
X161563Y93682D01*
X161044Y93897D01*
X160000Y94034D01*
X158956Y93897D01*
X157983Y93494D01*
X157147Y92853D01*
X156506Y92017D01*
X156103Y91044D01*
X155965Y90000D01*
X156103Y88956D01*
X156184Y88761D01*
X153711Y86289D01*
X153316Y85697D01*
X153178Y85000D01*
X153178Y85000D01*
Y63844D01*
X152193Y63359D01*
X152017Y63494D01*
X151044Y63897D01*
X150000Y64034D01*
X148956Y63897D01*
X147983Y63494D01*
X147147Y62853D01*
X146506Y62017D01*
X146103Y61044D01*
X145966Y60000D01*
X146103Y58956D01*
X146506Y57983D01*
X147147Y57147D01*
X147983Y56506D01*
X148956Y56103D01*
X150000Y55966D01*
X151044Y56103D01*
X152017Y56506D01*
X152193Y56641D01*
X153178Y56156D01*
Y40315D01*
X153178Y40315D01*
X153316Y39617D01*
X153711Y39026D01*
X154035Y38703D01*
X153964Y38532D01*
X153828Y37500D01*
X153964Y36468D01*
X154362Y35507D01*
X154996Y34681D01*
X155822Y34047D01*
X156783Y33649D01*
X157815Y33513D01*
X158847Y33649D01*
X159808Y34047D01*
X160634Y34681D01*
X161268Y35507D01*
X161666Y36468D01*
X161802Y37500D01*
X161666Y38532D01*
X161268Y39493D01*
X160634Y40319D01*
X159808Y40953D01*
X158847Y41351D01*
X157815Y41487D01*
X157562Y41454D01*
X156822Y42103D01*
Y56156D01*
X157807Y56641D01*
X157983Y56506D01*
X158956Y56103D01*
X160000Y55966D01*
X161044Y56103D01*
X162017Y56506D01*
X162193Y56641D01*
X163178Y56156D01*
Y40157D01*
X163178Y40157D01*
X163316Y39460D01*
X163711Y38869D01*
X163877Y38703D01*
X163806Y38532D01*
X163671Y37500D01*
X163806Y36468D01*
X164205Y35507D01*
X164838Y34681D01*
X165664Y34047D01*
X166626Y33649D01*
X167657Y33513D01*
X168689Y33649D01*
X169651Y34047D01*
X170477Y34681D01*
X171110Y35507D01*
X171509Y36468D01*
X171644Y37500D01*
X171509Y38532D01*
X171110Y39493D01*
X170477Y40319D01*
X169651Y40953D01*
X168689Y41351D01*
X167657Y41487D01*
X167562Y41474D01*
X166822Y42123D01*
Y56156D01*
X167807Y56641D01*
X167983Y56506D01*
X168956Y56103D01*
X170000Y55966D01*
X171044Y56103D01*
X172017Y56506D01*
X172853Y57147D01*
X173494Y57983D01*
X173897Y58956D01*
X174035Y60000D01*
X173897Y61044D01*
X173494Y62017D01*
X172853Y62853D01*
X172017Y63494D01*
X171044Y63897D01*
X170000Y64034D01*
X168956Y63897D01*
X167983Y63494D01*
X167807Y63359D01*
X166822Y63844D01*
Y86156D01*
X167807Y86641D01*
X167983Y86506D01*
X168956Y86103D01*
X170000Y85966D01*
X171044Y86103D01*
X172017Y86506D01*
X172853Y87147D01*
X173494Y87983D01*
X173897Y88956D01*
X174035Y90000D01*
X173897Y91044D01*
X173494Y92017D01*
X172853Y92853D01*
X172017Y93494D01*
X171044Y93897D01*
X170000Y94034D01*
X168956Y93897D01*
X167983Y93494D01*
X167807Y93359D01*
X166822Y93844D01*
Y95000D01*
X166822Y95000D01*
X166684Y95697D01*
X166289Y96289D01*
X166289Y96289D01*
X163816Y98761D01*
X163897Y98956D01*
X164034Y100000D01*
X163897Y101044D01*
X163494Y102017D01*
X162853Y102853D01*
X162017Y103494D01*
X161044Y103897D01*
X160000Y104034D01*
D02*
G37*
G36*
X37500Y101329D02*
X36468Y101193D01*
X35507Y100795D01*
X34681Y100162D01*
X34047Y99336D01*
X33649Y98374D01*
X33513Y97342D01*
X33649Y96311D01*
X34047Y95349D01*
X34681Y94523D01*
X35507Y93890D01*
X36468Y93492D01*
X37500Y93356D01*
X38532Y93492D01*
X39493Y93890D01*
X40319Y94523D01*
X40953Y95349D01*
X41351Y96311D01*
X41487Y97342D01*
X41351Y98374D01*
X40953Y99336D01*
X40319Y100162D01*
X39493Y100795D01*
X38532Y101193D01*
X37500Y101329D01*
D02*
G37*
G36*
X141378Y94381D02*
Y91378D01*
X144381D01*
X143996Y92307D01*
X143263Y93263D01*
X142307Y93996D01*
X141378Y94381D01*
D02*
G37*
G36*
X138622Y94381D02*
X137693Y93996D01*
X136737Y93263D01*
X136004Y92307D01*
X135619Y91378D01*
X138622D01*
Y94381D01*
D02*
G37*
G36*
X38000Y91421D02*
Y88000D01*
X41421D01*
X41351Y88532D01*
X40953Y89493D01*
X40319Y90319D01*
X39493Y90953D01*
X38532Y91351D01*
X38000Y91421D01*
D02*
G37*
G36*
X37000D02*
X36468Y91351D01*
X35507Y90953D01*
X34681Y90319D01*
X34047Y89493D01*
X33649Y88532D01*
X33579Y88000D01*
X37000D01*
Y91421D01*
D02*
G37*
G36*
X190000Y94034D02*
X188956Y93897D01*
X187983Y93494D01*
X187147Y92853D01*
X186506Y92017D01*
X186103Y91044D01*
X185966Y90000D01*
X186103Y88956D01*
X186506Y87983D01*
X187147Y87147D01*
X187983Y86506D01*
X188956Y86103D01*
X190000Y85966D01*
X191044Y86103D01*
X192017Y86506D01*
X192853Y87147D01*
X193494Y87983D01*
X193897Y88956D01*
X194035Y90000D01*
X193897Y91044D01*
X193494Y92017D01*
X192853Y92853D01*
X192017Y93494D01*
X191044Y93897D01*
X190000Y94034D01*
D02*
G37*
G36*
X180000D02*
X178956Y93897D01*
X177983Y93494D01*
X177147Y92853D01*
X176506Y92017D01*
X176103Y91044D01*
X175965Y90000D01*
X176103Y88956D01*
X176506Y87983D01*
X177147Y87147D01*
X177983Y86506D01*
X178956Y86103D01*
X180000Y85966D01*
X181044Y86103D01*
X182017Y86506D01*
X182853Y87147D01*
X183494Y87983D01*
X183897Y88956D01*
X184035Y90000D01*
X183897Y91044D01*
X183494Y92017D01*
X182853Y92853D01*
X182017Y93494D01*
X181044Y93897D01*
X180000Y94034D01*
D02*
G37*
G36*
X150000D02*
X148956Y93897D01*
X147983Y93494D01*
X147147Y92853D01*
X146506Y92017D01*
X146103Y91044D01*
X145966Y90000D01*
X146103Y88956D01*
X146506Y87983D01*
X147147Y87147D01*
X147983Y86506D01*
X148956Y86103D01*
X150000Y85966D01*
X151044Y86103D01*
X152017Y86506D01*
X152853Y87147D01*
X153494Y87983D01*
X153897Y88956D01*
X154034Y90000D01*
X153897Y91044D01*
X153494Y92017D01*
X152853Y92853D01*
X152017Y93494D01*
X151044Y93897D01*
X150000Y94034D01*
D02*
G37*
G36*
X144381Y88622D02*
X141378D01*
Y85619D01*
X142307Y86004D01*
X143263Y86737D01*
X143996Y87693D01*
X144381Y88622D01*
D02*
G37*
G36*
X138622D02*
X135619D01*
X136004Y87693D01*
X136737Y86737D01*
X137693Y86004D01*
X138622Y85619D01*
Y88622D01*
D02*
G37*
G36*
X41421Y87000D02*
X38000D01*
Y83579D01*
X38532Y83649D01*
X39493Y84047D01*
X40319Y84681D01*
X40953Y85507D01*
X41351Y86468D01*
X41421Y87000D01*
D02*
G37*
G36*
X37000D02*
X33579D01*
X33649Y86468D01*
X34047Y85507D01*
X34681Y84681D01*
X35507Y84047D01*
X36468Y83649D01*
X37000Y83579D01*
Y87000D01*
D02*
G37*
G36*
X90000Y124035D02*
X88956Y123897D01*
X87983Y123494D01*
X87147Y122853D01*
X86506Y122017D01*
X86103Y121044D01*
X85966Y120000D01*
X86103Y118956D01*
X86506Y117983D01*
X87147Y117147D01*
X87983Y116506D01*
X88178Y116425D01*
Y80755D01*
X86745Y79322D01*
X65292D01*
X64872Y80131D01*
X64852Y80275D01*
X66755Y82178D01*
X81657D01*
X81883Y81883D01*
X82503Y81407D01*
X83225Y81108D01*
X84000Y81006D01*
X84775Y81108D01*
X85497Y81407D01*
X86117Y81883D01*
X86593Y82503D01*
X86892Y83225D01*
X86994Y84000D01*
X86892Y84775D01*
X86593Y85497D01*
X86117Y86117D01*
X85497Y86593D01*
X84775Y86892D01*
X84000Y86994D01*
X83225Y86892D01*
X82503Y86593D01*
X81883Y86117D01*
X81657Y85822D01*
X66000D01*
X66000Y85822D01*
X65303Y85684D01*
X64711Y85289D01*
X64711Y85289D01*
X54711Y75289D01*
X54316Y74697D01*
X54178Y74000D01*
X54178Y74000D01*
Y66755D01*
X53403Y65980D01*
X51579D01*
Y58272D01*
X55941D01*
Y63364D01*
X57289Y64711D01*
X57684Y65303D01*
X57822Y66000D01*
X57822Y66000D01*
Y73210D01*
X58545Y73877D01*
X58609Y73869D01*
X59418Y73448D01*
Y65980D01*
X59059D01*
Y58272D01*
X63421D01*
Y65980D01*
X63063D01*
Y73005D01*
X65735Y75678D01*
X87500D01*
X87500Y75678D01*
X88197Y75816D01*
X88789Y76211D01*
X90000Y77423D01*
X91211Y76211D01*
X91211Y76211D01*
X91803Y75816D01*
X92500Y75678D01*
X111658D01*
Y73547D01*
X119563D01*
Y81193D01*
X119563Y81453D01*
X120189Y82178D01*
X124811D01*
X125437Y81453D01*
Y73547D01*
X133343D01*
Y75678D01*
X136745D01*
X138178Y74245D01*
Y63575D01*
X137983Y63494D01*
X137147Y62853D01*
X136506Y62017D01*
X136103Y61044D01*
X135966Y60000D01*
X136103Y58956D01*
X136506Y57983D01*
X137147Y57147D01*
X137983Y56506D01*
X138956Y56103D01*
X140000Y55966D01*
X141044Y56103D01*
X142017Y56506D01*
X142853Y57147D01*
X143494Y57983D01*
X143897Y58956D01*
X144035Y60000D01*
X143897Y61044D01*
X143494Y62017D01*
X142853Y62853D01*
X142017Y63494D01*
X141822Y63575D01*
Y75000D01*
X141684Y75697D01*
X141289Y76289D01*
X141289Y76289D01*
X138789Y78789D01*
X138197Y79184D01*
X137500Y79322D01*
X137500Y79322D01*
X133343D01*
Y81453D01*
X131212D01*
Y82610D01*
X131073Y83308D01*
X130678Y83899D01*
X130678Y83899D01*
X129545Y85033D01*
X130000Y85966D01*
X131044Y86103D01*
X132017Y86506D01*
X132853Y87147D01*
X133494Y87983D01*
X133897Y88956D01*
X134035Y90000D01*
X133897Y91044D01*
X133494Y92017D01*
X132853Y92853D01*
X132017Y93494D01*
X131044Y93897D01*
X130000Y94034D01*
X128956Y93897D01*
X127983Y93494D01*
X127147Y92853D01*
X126506Y92017D01*
X126103Y91044D01*
X125965Y90000D01*
X126103Y88956D01*
X126506Y87983D01*
X127147Y87147D01*
X127591Y86807D01*
X127257Y85822D01*
X98343D01*
X98117Y86117D01*
X97497Y86593D01*
X96775Y86892D01*
X96000Y86994D01*
X95225Y86892D01*
X94503Y86593D01*
X93883Y86117D01*
X93407Y85497D01*
X93108Y84775D01*
X93006Y84000D01*
X93108Y83225D01*
X93407Y82503D01*
X93883Y81883D01*
X94503Y81407D01*
X95225Y81108D01*
X96000Y81006D01*
X96775Y81108D01*
X97497Y81407D01*
X98117Y81883D01*
X98343Y82178D01*
X111031D01*
X111658Y81453D01*
X111658Y81193D01*
Y79322D01*
X93255D01*
X91822Y80755D01*
Y116425D01*
X92017Y116506D01*
X92853Y117147D01*
X93494Y117983D01*
X93897Y118956D01*
X94034Y120000D01*
X93897Y121044D01*
X93494Y122017D01*
X92853Y122853D01*
X92017Y123494D01*
X91044Y123897D01*
X90000Y124035D01*
D02*
G37*
G36*
X71378Y64381D02*
Y61378D01*
X74381D01*
X73996Y62307D01*
X73263Y63263D01*
X72307Y63996D01*
X71378Y64381D01*
D02*
G37*
G36*
X68622D02*
X67693Y63996D01*
X66737Y63263D01*
X66004Y62307D01*
X65619Y61378D01*
X68622D01*
Y64381D01*
D02*
G37*
G36*
X37500Y68829D02*
X36468Y68694D01*
X35507Y68295D01*
X34681Y67662D01*
X34047Y66836D01*
X33649Y65874D01*
X33513Y64842D01*
X33649Y63811D01*
X34047Y62849D01*
X34681Y62023D01*
X35507Y61390D01*
X36468Y60992D01*
X37500Y60856D01*
X38532Y60992D01*
X39493Y61390D01*
X40319Y62023D01*
X40953Y62849D01*
X41351Y63811D01*
X41487Y64842D01*
X41351Y65874D01*
X40953Y66836D01*
X40319Y67662D01*
X39493Y68295D01*
X38532Y68694D01*
X37500Y68829D01*
D02*
G37*
G36*
X200000Y64034D02*
X198956Y63897D01*
X197983Y63494D01*
X197147Y62853D01*
X196506Y62017D01*
X196103Y61044D01*
X195966Y60000D01*
X196103Y58956D01*
X196506Y57983D01*
X197147Y57147D01*
X197983Y56506D01*
X198956Y56103D01*
X200000Y55966D01*
X201044Y56103D01*
X202017Y56506D01*
X202853Y57147D01*
X203494Y57983D01*
X203897Y58956D01*
X204034Y60000D01*
X203897Y61044D01*
X203494Y62017D01*
X202853Y62853D01*
X202017Y63494D01*
X201044Y63897D01*
X200000Y64034D01*
D02*
G37*
G36*
X190000D02*
X188956Y63897D01*
X187983Y63494D01*
X187147Y62853D01*
X186506Y62017D01*
X186103Y61044D01*
X185966Y60000D01*
X186103Y58956D01*
X186506Y57983D01*
X187147Y57147D01*
X187983Y56506D01*
X188956Y56103D01*
X190000Y55966D01*
X191044Y56103D01*
X192017Y56506D01*
X192853Y57147D01*
X193494Y57983D01*
X193897Y58956D01*
X194035Y60000D01*
X193897Y61044D01*
X193494Y62017D01*
X192853Y62853D01*
X192017Y63494D01*
X191044Y63897D01*
X190000Y64034D01*
D02*
G37*
G36*
X180000D02*
X178956Y63897D01*
X177983Y63494D01*
X177147Y62853D01*
X176506Y62017D01*
X176103Y61044D01*
X175965Y60000D01*
X176103Y58956D01*
X176506Y57983D01*
X177147Y57147D01*
X177983Y56506D01*
X178956Y56103D01*
X180000Y55966D01*
X181044Y56103D01*
X182017Y56506D01*
X182853Y57147D01*
X183494Y57983D01*
X183897Y58956D01*
X184035Y60000D01*
X183897Y61044D01*
X183494Y62017D01*
X182853Y62853D01*
X182017Y63494D01*
X181044Y63897D01*
X180000Y64034D01*
D02*
G37*
G36*
X130000D02*
X128956Y63897D01*
X127983Y63494D01*
X127147Y62853D01*
X126506Y62017D01*
X126103Y61044D01*
X125965Y60000D01*
X126103Y58956D01*
X126506Y57983D01*
X127147Y57147D01*
X127983Y56506D01*
X128956Y56103D01*
X130000Y55966D01*
X131044Y56103D01*
X132017Y56506D01*
X132853Y57147D01*
X133494Y57983D01*
X133897Y58956D01*
X134035Y60000D01*
X133897Y61044D01*
X133494Y62017D01*
X132853Y62853D01*
X132017Y63494D01*
X131044Y63897D01*
X130000Y64034D01*
D02*
G37*
G36*
X120000D02*
X118956Y63897D01*
X117983Y63494D01*
X117147Y62853D01*
X116506Y62017D01*
X116103Y61044D01*
X115965Y60000D01*
X116103Y58956D01*
X116506Y57983D01*
X117147Y57147D01*
X117983Y56506D01*
X118956Y56103D01*
X120000Y55966D01*
X121044Y56103D01*
X122017Y56506D01*
X122853Y57147D01*
X123494Y57983D01*
X123897Y58956D01*
X124035Y60000D01*
X123897Y61044D01*
X123494Y62017D01*
X122853Y62853D01*
X122017Y63494D01*
X121044Y63897D01*
X120000Y64034D01*
D02*
G37*
G36*
X110000D02*
X108956Y63897D01*
X107983Y63494D01*
X107147Y62853D01*
X106506Y62017D01*
X106103Y61044D01*
X105965Y60000D01*
X106103Y58956D01*
X106506Y57983D01*
X107147Y57147D01*
X107983Y56506D01*
X108956Y56103D01*
X110000Y55966D01*
X111044Y56103D01*
X112017Y56506D01*
X112853Y57147D01*
X113494Y57983D01*
X113897Y58956D01*
X114034Y60000D01*
X113897Y61044D01*
X113494Y62017D01*
X112853Y62853D01*
X112017Y63494D01*
X111044Y63897D01*
X110000Y64034D01*
D02*
G37*
G36*
X100000D02*
X98956Y63897D01*
X97983Y63494D01*
X97147Y62853D01*
X96506Y62017D01*
X96103Y61044D01*
X95965Y60000D01*
X96103Y58956D01*
X96506Y57983D01*
X97147Y57147D01*
X97983Y56506D01*
X98956Y56103D01*
X100000Y55966D01*
X101044Y56103D01*
X102017Y56506D01*
X102853Y57147D01*
X103494Y57983D01*
X103897Y58956D01*
X104034Y60000D01*
X103897Y61044D01*
X103494Y62017D01*
X102853Y62853D01*
X102017Y63494D01*
X101044Y63897D01*
X100000Y64034D01*
D02*
G37*
G36*
X90000D02*
X88956Y63897D01*
X87983Y63494D01*
X87147Y62853D01*
X86506Y62017D01*
X86103Y61044D01*
X85966Y60000D01*
X86103Y58956D01*
X86506Y57983D01*
X87147Y57147D01*
X87983Y56506D01*
X88956Y56103D01*
X90000Y55966D01*
X91044Y56103D01*
X92017Y56506D01*
X92853Y57147D01*
X93494Y57983D01*
X93897Y58956D01*
X94034Y60000D01*
X93897Y61044D01*
X93494Y62017D01*
X92853Y62853D01*
X92017Y63494D01*
X91044Y63897D01*
X90000Y64034D01*
D02*
G37*
G36*
X80000D02*
X78956Y63897D01*
X77983Y63494D01*
X77147Y62853D01*
X76506Y62017D01*
X76103Y61044D01*
X75965Y60000D01*
X76103Y58956D01*
X76506Y57983D01*
X77147Y57147D01*
X77983Y56506D01*
X78956Y56103D01*
X80000Y55966D01*
X81044Y56103D01*
X82017Y56506D01*
X82853Y57147D01*
X83494Y57983D01*
X83897Y58956D01*
X84035Y60000D01*
X83897Y61044D01*
X83494Y62017D01*
X82853Y62853D01*
X82017Y63494D01*
X81044Y63897D01*
X80000Y64034D01*
D02*
G37*
G36*
X74381Y58622D02*
X71378D01*
Y55619D01*
X72307Y56004D01*
X73263Y56737D01*
X73996Y57693D01*
X74381Y58622D01*
D02*
G37*
G36*
X68622D02*
X65619D01*
X66004Y57693D01*
X66737Y56737D01*
X67693Y56004D01*
X68622Y55619D01*
Y58622D01*
D02*
G37*
G36*
X37500Y58987D02*
X36468Y58851D01*
X35507Y58453D01*
X34681Y57819D01*
X34047Y56993D01*
X33649Y56032D01*
X33513Y55000D01*
X33649Y53968D01*
X34047Y53007D01*
X34681Y52181D01*
X35507Y51547D01*
X36468Y51149D01*
X37500Y51013D01*
X38532Y51149D01*
X39493Y51547D01*
X40319Y52181D01*
X40953Y53007D01*
X41351Y53968D01*
X41487Y55000D01*
X41351Y56032D01*
X40953Y56993D01*
X40319Y57819D01*
X39493Y58453D01*
X38532Y58851D01*
X37500Y58987D01*
D02*
G37*
G36*
X148472Y41421D02*
Y38000D01*
X151893D01*
X151823Y38532D01*
X151425Y39493D01*
X150792Y40319D01*
X149966Y40953D01*
X149004Y41351D01*
X148472Y41421D01*
D02*
G37*
G36*
X93472D02*
Y38000D01*
X96894D01*
X96824Y38532D01*
X96425Y39493D01*
X95792Y40319D01*
X94966Y40953D01*
X94004Y41351D01*
X93472Y41421D01*
D02*
G37*
G36*
X147473Y41421D02*
X146941Y41351D01*
X145979Y40953D01*
X145153Y40319D01*
X144520Y39493D01*
X144121Y38532D01*
X144051Y38000D01*
X147473D01*
Y41421D01*
D02*
G37*
G36*
X92472D02*
X91941Y41351D01*
X90979Y40953D01*
X90153Y40319D01*
X89520Y39493D01*
X89121Y38532D01*
X89051Y38000D01*
X92472D01*
Y41421D01*
D02*
G37*
G36*
X151893Y37000D02*
X148472D01*
Y33579D01*
X149004Y33649D01*
X149966Y34047D01*
X150792Y34681D01*
X151425Y35507D01*
X151823Y36468D01*
X151893Y37000D01*
D02*
G37*
G36*
X96894D02*
X93472D01*
Y33579D01*
X94004Y33649D01*
X94966Y34047D01*
X95792Y34681D01*
X96425Y35507D01*
X96824Y36468D01*
X96894Y37000D01*
D02*
G37*
G36*
X147473D02*
X144051D01*
X144121Y36468D01*
X144520Y35507D01*
X145153Y34681D01*
X145979Y34047D01*
X146941Y33649D01*
X147473Y33579D01*
Y37000D01*
D02*
G37*
G36*
X92472D02*
X89051D01*
X89121Y36468D01*
X89520Y35507D01*
X90153Y34681D01*
X90979Y34047D01*
X91941Y33649D01*
X92472Y33579D01*
Y37000D01*
D02*
G37*
G36*
X202658Y41487D02*
X201626Y41351D01*
X200664Y40953D01*
X199838Y40319D01*
X199205Y39493D01*
X198807Y38532D01*
X198671Y37500D01*
X198807Y36468D01*
X199205Y35507D01*
X199838Y34681D01*
X200664Y34047D01*
X201626Y33649D01*
X202658Y33513D01*
X203689Y33649D01*
X204651Y34047D01*
X205477Y34681D01*
X206110Y35507D01*
X206508Y36468D01*
X206644Y37500D01*
X206508Y38532D01*
X206110Y39493D01*
X205477Y40319D01*
X204651Y40953D01*
X203689Y41351D01*
X202658Y41487D01*
D02*
G37*
G36*
X112657D02*
X111626Y41351D01*
X110664Y40953D01*
X109838Y40319D01*
X109205Y39493D01*
X108807Y38532D01*
X108671Y37500D01*
X108807Y36468D01*
X109205Y35507D01*
X109838Y34681D01*
X110664Y34047D01*
X111626Y33649D01*
X112657Y33513D01*
X113689Y33649D01*
X114651Y34047D01*
X115477Y34681D01*
X116110Y35507D01*
X116508Y36468D01*
X116644Y37500D01*
X116508Y38532D01*
X116110Y39493D01*
X115477Y40319D01*
X114651Y40953D01*
X113689Y41351D01*
X112657Y41487D01*
D02*
G37*
G36*
X102815D02*
X101783Y41351D01*
X100821Y40953D01*
X99996Y40319D01*
X99362Y39493D01*
X98964Y38532D01*
X98828Y37500D01*
X98964Y36468D01*
X99362Y35507D01*
X99996Y34681D01*
X100821Y34047D01*
X101783Y33649D01*
X102815Y33513D01*
X103847Y33649D01*
X104808Y34047D01*
X105634Y34681D01*
X106268Y35507D01*
X106666Y36468D01*
X106802Y37500D01*
X106666Y38532D01*
X106268Y39493D01*
X105634Y40319D01*
X104808Y40953D01*
X103847Y41351D01*
X102815Y41487D01*
D02*
G37*
G36*
X57657D02*
X56626Y41351D01*
X55664Y40953D01*
X54838Y40319D01*
X54205Y39493D01*
X53807Y38532D01*
X53671Y37500D01*
X53807Y36468D01*
X54205Y35507D01*
X54838Y34681D01*
X55664Y34047D01*
X56626Y33649D01*
X57657Y33513D01*
X58689Y33649D01*
X59651Y34047D01*
X60477Y34681D01*
X61110Y35507D01*
X61509Y36468D01*
X61644Y37500D01*
X61509Y38532D01*
X61110Y39493D01*
X60477Y40319D01*
X59651Y40953D01*
X58689Y41351D01*
X57657Y41487D01*
D02*
G37*
G36*
X46346Y36937D02*
X42500D01*
Y32500D01*
X46346D01*
Y36937D01*
D02*
G37*
G36*
X41500D02*
X37654D01*
Y32500D01*
X41500D01*
Y36937D01*
D02*
G37*
G36*
X46346Y31500D02*
X42500D01*
Y27063D01*
X46346D01*
Y31500D01*
D02*
G37*
G36*
X41500D02*
X37654D01*
Y27063D01*
X41500D01*
Y31500D01*
D02*
G37*
%LPD*%
G36*
X163178Y86156D02*
Y63844D01*
X162193Y63359D01*
X162017Y63494D01*
X161044Y63897D01*
X160000Y64034D01*
X158956Y63897D01*
X157983Y63494D01*
X157807Y63359D01*
X156822Y63844D01*
Y84245D01*
X158761Y86184D01*
X158956Y86103D01*
X160000Y85966D01*
X161044Y86103D01*
X162017Y86506D01*
X162193Y86641D01*
X163178Y86156D01*
D02*
G37*
%LPC*%
G36*
X260000Y75412D02*
X258456Y75260D01*
X256972Y74810D01*
X255604Y74079D01*
X254405Y73095D01*
X253421Y71896D01*
X252690Y70528D01*
X252240Y69044D01*
X252088Y67500D01*
X252240Y65956D01*
X252690Y64472D01*
X253421Y63104D01*
X254405Y61905D01*
X255604Y60921D01*
X256972Y60190D01*
X258456Y59740D01*
X260000Y59588D01*
X261544Y59740D01*
X263028Y60190D01*
X264396Y60921D01*
X265595Y61905D01*
X266579Y63104D01*
X267310Y64472D01*
X267760Y65956D01*
X267912Y67500D01*
X267760Y69044D01*
X267310Y70528D01*
X266579Y71896D01*
X265595Y73095D01*
X264396Y74079D01*
X263028Y74810D01*
X261544Y75260D01*
X260000Y75412D01*
D02*
G37*
G36*
X303976Y74418D02*
X302819Y74304D01*
X301706Y73967D01*
X300680Y73418D01*
X299780Y72680D01*
X299042Y71781D01*
X298494Y70755D01*
X298156Y69642D01*
X298042Y68484D01*
Y61434D01*
X295042Y58434D01*
X261654D01*
X261653Y58434D01*
X260496Y58320D01*
X259383Y57982D01*
X258357Y57434D01*
X257457Y56696D01*
X256041Y55280D01*
X248651D01*
X247780Y56151D01*
Y57131D01*
X247830Y57170D01*
X248466Y57999D01*
X248866Y58964D01*
X249003Y60000D01*
X248866Y61036D01*
X248466Y62001D01*
X247830Y62830D01*
X247001Y63467D01*
X246036Y63866D01*
X245000Y64003D01*
X243964Y63866D01*
X242999Y63467D01*
X242170Y62830D01*
X241533Y62001D01*
X241134Y61036D01*
X240997Y60000D01*
X241134Y58964D01*
X241533Y57999D01*
X242170Y57170D01*
X242220Y57131D01*
Y55000D01*
X242315Y54281D01*
X242593Y53610D01*
X243035Y53035D01*
X245534Y50534D01*
X246110Y50093D01*
X246781Y49815D01*
X247500Y49720D01*
X249336D01*
X249848Y48736D01*
X249518Y48117D01*
X249180Y47004D01*
X249066Y45847D01*
Y42150D01*
X248421Y41364D01*
X247690Y39996D01*
X247240Y38512D01*
X247088Y36968D01*
Y33031D01*
X247240Y31488D01*
X247690Y30004D01*
X248421Y28636D01*
X249405Y27437D01*
X250604Y26453D01*
X251972Y25722D01*
X253456Y25271D01*
X255000Y25119D01*
X256544Y25271D01*
X258028Y25722D01*
X259396Y26453D01*
X260595Y27437D01*
X261579Y28636D01*
X262310Y30004D01*
X262760Y31488D01*
X262912Y33031D01*
Y36968D01*
X262760Y38512D01*
X262310Y39996D01*
X261579Y41364D01*
X260934Y42150D01*
Y43389D01*
X264111Y46566D01*
X297500D01*
X298658Y46680D01*
X299771Y47018D01*
X300797Y47566D01*
X301696Y48304D01*
X308172Y54780D01*
X308910Y55680D01*
X309459Y56705D01*
X309796Y57819D01*
X309910Y58976D01*
Y67500D01*
Y68484D01*
X309796Y69642D01*
X309459Y70755D01*
X308910Y71781D01*
X308172Y72680D01*
X307273Y73418D01*
X306247Y73967D01*
X305134Y74304D01*
X303976Y74418D01*
D02*
G37*
G36*
X240827Y44449D02*
X234724D01*
Y36378D01*
X240827D01*
Y44449D01*
D02*
G37*
G36*
X231968D02*
X225866D01*
Y36378D01*
X231968D01*
Y44449D01*
D02*
G37*
G36*
X283740Y42912D02*
X282197Y42760D01*
X280712Y42310D01*
X279344Y41579D01*
X278145Y40595D01*
X277162Y39396D01*
X276430Y38028D01*
X275980Y36544D01*
X275828Y35000D01*
X275980Y33456D01*
X276430Y31972D01*
X277162Y30604D01*
X278145Y29405D01*
X279344Y28421D01*
X280712Y27690D01*
X282197Y27240D01*
X283740Y27088D01*
X285284Y27240D01*
X286768Y27690D01*
X288136Y28421D01*
X289335Y29405D01*
X290319Y30604D01*
X291050Y31972D01*
X291500Y33456D01*
X291652Y35000D01*
X291500Y36544D01*
X291050Y38028D01*
X290319Y39396D01*
X289335Y40595D01*
X288136Y41579D01*
X286768Y42310D01*
X285284Y42760D01*
X283740Y42912D01*
D02*
G37*
G36*
X240827Y33622D02*
X234724D01*
Y25551D01*
X240827D01*
Y33622D01*
D02*
G37*
G36*
X231968D02*
X225866D01*
Y25551D01*
X231968D01*
Y33622D01*
D02*
G37*
G36*
X278890Y21453D02*
X275437D01*
Y18000D01*
X278890D01*
Y21453D01*
D02*
G37*
G36*
X283343D02*
X279890D01*
Y17500D01*
Y13547D01*
X283343D01*
Y14037D01*
X283425Y14048D01*
X284287Y14405D01*
X285027Y14973D01*
X285595Y15713D01*
X285765Y16122D01*
X282500D01*
Y18878D01*
X285765D01*
X285595Y19287D01*
X285027Y20027D01*
X284287Y20595D01*
X283425Y20952D01*
X283343Y20963D01*
Y21453D01*
D02*
G37*
G36*
X278890Y17000D02*
X275437D01*
Y13547D01*
X278890D01*
Y17000D01*
D02*
G37*
G36*
X40000Y16994D02*
X39225Y16892D01*
X38503Y16593D01*
X37883Y16117D01*
X37407Y15497D01*
X37108Y14775D01*
X37006Y14000D01*
X37108Y13225D01*
X37407Y12503D01*
X37654Y12182D01*
Y5803D01*
X46346D01*
Y15677D01*
X42455D01*
X42117Y16117D01*
X41497Y16593D01*
X40775Y16892D01*
X40000Y16994D01*
D02*
G37*
G36*
X278890Y8953D02*
X275437D01*
Y5500D01*
X278890D01*
Y8953D01*
D02*
G37*
G36*
X283343D02*
X279890D01*
Y5000D01*
Y1047D01*
X283343D01*
Y2136D01*
X283997Y2407D01*
X284617Y2883D01*
X285093Y3503D01*
X285392Y4225D01*
X285428Y4500D01*
X282500D01*
Y5500D01*
X285428D01*
X285392Y5775D01*
X285093Y6497D01*
X284617Y7117D01*
X283997Y7593D01*
X283343Y7864D01*
Y8953D01*
D02*
G37*
G36*
X278890Y4500D02*
X275437D01*
Y1047D01*
X278890D01*
Y4500D01*
D02*
G37*
G36*
X260842Y8953D02*
Y8953D01*
X260702Y8953D01*
X252937D01*
Y1047D01*
X260842D01*
Y1047D01*
X261658D01*
Y1047D01*
X269563D01*
Y8953D01*
X261798D01*
X261658Y8953D01*
Y8953D01*
X260842D01*
D02*
G37*
%LPD*%
D10*
X42000Y10740D02*
D03*
X27827D02*
D03*
Y32000D02*
D03*
X42000D02*
D03*
X28000Y169260D02*
D03*
X42173D02*
D03*
Y148000D02*
D03*
X28000D02*
D03*
D11*
X115610Y77500D02*
D03*
X129390D02*
D03*
X279390Y17500D02*
D03*
X265610D02*
D03*
X279390Y5000D02*
D03*
X265610D02*
D03*
X243110Y17500D02*
D03*
X256890D02*
D03*
X243110Y5000D02*
D03*
X256890D02*
D03*
X242500Y150000D02*
D03*
D12*
X57500Y52874D02*
D03*
X53760Y62126D02*
D03*
X61240D02*
D03*
D13*
X243406Y167500D02*
D03*
X231594D02*
D03*
D14*
X66000Y84000D02*
X84000D01*
X56000Y74000D02*
X66000Y84000D01*
X56000Y66000D02*
Y74000D01*
X64980Y77500D02*
X87500D01*
X61240Y73760D02*
X64980Y77500D01*
X61240Y62126D02*
Y73760D01*
X53760Y63760D02*
X56000Y66000D01*
X96000Y84000D02*
X128000D01*
X129390Y77500D02*
Y82610D01*
X128000Y84000D02*
X129390Y82610D01*
X53760Y62126D02*
Y63760D01*
X57500Y47500D02*
Y50374D01*
X55000Y45000D02*
X57500Y47500D01*
X30000Y45000D02*
X55000D01*
X247500Y52500D02*
X261653D01*
X245000Y55000D02*
X247500Y52500D01*
X245000Y55000D02*
Y60000D01*
X255000Y29390D02*
Y35000D01*
X87500Y77500D02*
X90000Y80000D01*
X92500Y77500D01*
X115610D01*
X90000Y80000D02*
Y120000D01*
X41673Y144173D02*
Y147500D01*
X40000Y142500D02*
X41673Y144173D01*
X35000Y142500D02*
X40000D01*
X28327Y32500D02*
Y43327D01*
X30000Y45000D01*
X220000Y125000D02*
Y136000D01*
X218000Y138000D02*
X220000Y136000D01*
X202000Y138000D02*
X218000D01*
X200000Y140000D02*
X202000Y138000D01*
X200000Y140000D02*
Y145000D01*
X256890Y5000D02*
X265610D01*
X221000D02*
X243110D01*
X218000Y8000D02*
X221000Y5000D01*
X218000Y8000D02*
Y20000D01*
X215500Y22500D02*
X218000Y20000D01*
X210000Y22500D02*
X215500D01*
X155000Y40315D02*
X157815Y37500D01*
X155000Y40315D02*
Y85000D01*
X160000Y90000D01*
Y100000D02*
X165000Y95000D01*
Y40157D02*
Y95000D01*
Y40157D02*
X167657Y37500D01*
X129390Y77500D02*
X137500D01*
X140000Y75000D01*
Y60000D02*
Y75000D01*
D15*
X225000Y157500D02*
X232500Y150000D01*
X225000Y157500D02*
X232500Y165000D01*
X205000Y157500D02*
X225000D01*
X200000Y152500D02*
X205000Y157500D01*
X242500Y165000D02*
X275000D01*
X242500Y166595D02*
X243406Y167500D01*
X242500Y150000D02*
Y166595D01*
X200000Y145000D02*
Y152500D01*
X60000Y120000D02*
X70000D01*
X57500Y122500D02*
X60000Y120000D01*
X57500Y122500D02*
Y145000D01*
X175000Y22500D02*
X210000D01*
X120000D02*
X175000D01*
X65000D02*
X120000D01*
X45000Y157500D02*
X60000D01*
X22500D02*
X45000D01*
X25000Y22500D02*
X65000D01*
X22500D02*
X25000D01*
X67500Y25000D02*
Y37500D01*
X65000Y22500D02*
X67500Y25000D01*
X212500D02*
Y37500D01*
X210000Y22500D02*
X212500Y25000D01*
X177500D02*
Y37500D01*
X175000Y22500D02*
X177500Y25000D01*
X122500D02*
Y37500D01*
X120000Y22500D02*
X122500Y25000D01*
X15000Y30000D02*
X22500Y22500D01*
X15000Y30000D02*
Y150000D01*
X95000Y157500D02*
X150000D01*
X60000D02*
X95000D01*
X15000Y150000D02*
X22500Y157500D01*
X92500Y155000D02*
X95000Y157500D01*
X92500Y145000D02*
Y155000D01*
X57500D02*
X60000Y157500D01*
X57500Y145000D02*
Y155000D01*
X150000Y157500D02*
X205000D01*
X147500Y155000D02*
X150000Y157500D01*
X147500Y145000D02*
Y155000D01*
D16*
X255000Y95000D02*
Y100965D01*
X247500Y87500D02*
X255000Y95000D01*
Y35000D02*
Y45847D01*
X261653Y52500D01*
X220000Y87500D02*
X247500D01*
X215000Y82500D02*
X220000Y87500D01*
X215000Y67500D02*
Y82500D01*
X261653Y52500D02*
X297500D01*
X303976Y58976D02*
Y67500D01*
X297500Y52500D02*
X303976Y58976D01*
D17*
X41673Y160827D02*
X45000Y157500D01*
X41673Y160827D02*
Y168760D01*
X25000Y22500D02*
X28327Y19173D01*
Y11240D02*
Y19173D01*
X256890Y17500D02*
X265610D01*
D18*
X232500Y150000D02*
D03*
X57500Y145000D02*
D03*
X67343D02*
D03*
X67500Y37500D02*
D03*
X57657D02*
D03*
X200000Y145000D02*
D03*
X209842D02*
D03*
X212500Y37500D02*
D03*
X202658D02*
D03*
X157343Y145000D02*
D03*
X147500D02*
D03*
X167185D02*
D03*
X177028D02*
D03*
X102342D02*
D03*
X92500D02*
D03*
X112185D02*
D03*
X122028D02*
D03*
X167657Y37500D02*
D03*
X177500D02*
D03*
X157815D02*
D03*
X147972D02*
D03*
X112657D02*
D03*
X122500D02*
D03*
X102815D02*
D03*
X92972D02*
D03*
X37500Y55000D02*
D03*
Y64842D02*
D03*
Y97342D02*
D03*
Y87500D02*
D03*
Y107185D02*
D03*
Y117028D02*
D03*
Y126870D02*
D03*
D19*
X233347Y117500D02*
D03*
X255000Y100965D02*
D03*
Y117500D02*
D03*
X233347Y100965D02*
D03*
D20*
X283740Y109232D02*
D03*
Y35000D02*
D03*
D21*
X80000Y60000D02*
D03*
X90000D02*
D03*
X100000D02*
D03*
X110000D02*
D03*
X120000D02*
D03*
X130000D02*
D03*
X140000D02*
D03*
X150000D02*
D03*
X160000D02*
D03*
X170000D02*
D03*
X180000D02*
D03*
X190000D02*
D03*
X200000D02*
D03*
Y120000D02*
D03*
X190000D02*
D03*
X180000D02*
D03*
X170000D02*
D03*
X160000D02*
D03*
X150000D02*
D03*
X140000D02*
D03*
X130000D02*
D03*
X120000D02*
D03*
X110000D02*
D03*
X100000D02*
D03*
X150000Y90000D02*
D03*
X160000D02*
D03*
X170000D02*
D03*
X180000D02*
D03*
X190000D02*
D03*
Y100000D02*
D03*
X180000D02*
D03*
X170000D02*
D03*
X160000D02*
D03*
X150000D02*
D03*
X130000Y90000D02*
D03*
Y100000D02*
D03*
X140000D02*
D03*
Y90000D02*
D03*
X90000Y120000D02*
D03*
X80000D02*
D03*
X70000D02*
D03*
Y60000D02*
D03*
X275000Y165000D02*
D03*
Y155000D02*
D03*
Y145000D02*
D03*
D22*
X299213Y11811D02*
D03*
Y169291D02*
D03*
X11811D02*
D03*
Y11811D02*
D03*
D23*
X233347Y35000D02*
D03*
D24*
X255000D02*
D03*
D25*
X303976Y67500D02*
D03*
X215000D02*
D03*
D26*
X260000D02*
D03*
D27*
X35000Y142500D02*
D03*
X40000Y14000D02*
D03*
X84000Y84000D02*
D03*
X96000D02*
D03*
X240000Y17500D02*
D03*
X282500Y5000D02*
D03*
Y17500D02*
D03*
X15000Y55000D02*
D03*
X27500Y35000D02*
D03*
X220000Y125000D02*
D03*
D28*
X245000Y60000D02*
D03*
M02*
