G04 Layer_Color=8388736*
%FSLAX25Y25*%
%MOIN*%
G70*
G01*
G75*
%ADD38R,0.07493X0.08674*%
%ADD39R,0.06706X0.06706*%
%ADD40R,0.03162X0.06509*%
%ADD41R,0.06706X0.11036*%
%ADD42C,0.06706*%
%ADD43C,0.12800*%
%ADD44C,0.12611*%
%ADD45C,0.06800*%
%ADD46C,0.21745*%
%ADD47R,0.12611X0.16548*%
%ADD48O,0.12611X0.16548*%
%ADD49O,0.08674X0.10642*%
%ADD50C,0.08674*%
%ADD51C,0.04737*%
%ADD52C,0.04800*%
D38*
X42000Y10740D02*
D03*
X27827D02*
D03*
Y32000D02*
D03*
X42000D02*
D03*
X28000Y169260D02*
D03*
X42173D02*
D03*
Y148000D02*
D03*
X28000D02*
D03*
D39*
X115610Y77500D02*
D03*
X129390D02*
D03*
X279390Y17500D02*
D03*
X265610D02*
D03*
X279390Y5000D02*
D03*
X265610D02*
D03*
X243110Y17500D02*
D03*
X256890D02*
D03*
X243110Y5000D02*
D03*
X256890D02*
D03*
X242500Y150000D02*
D03*
D40*
X57500Y52874D02*
D03*
X53760Y62126D02*
D03*
X61240D02*
D03*
D41*
X243406Y167500D02*
D03*
X231594D02*
D03*
D42*
X232500Y150000D02*
D03*
X57500Y145000D02*
D03*
X67343D02*
D03*
X67500Y37500D02*
D03*
X57657D02*
D03*
X200000Y145000D02*
D03*
X209842D02*
D03*
X212500Y37500D02*
D03*
X202658D02*
D03*
X157343Y145000D02*
D03*
X147500D02*
D03*
X167185D02*
D03*
X177028D02*
D03*
X102342D02*
D03*
X92500D02*
D03*
X112185D02*
D03*
X122028D02*
D03*
X167657Y37500D02*
D03*
X177500D02*
D03*
X157815D02*
D03*
X147972D02*
D03*
X112657D02*
D03*
X122500D02*
D03*
X102815D02*
D03*
X92972D02*
D03*
X37500Y55000D02*
D03*
Y64842D02*
D03*
Y97342D02*
D03*
Y87500D02*
D03*
Y107185D02*
D03*
Y117028D02*
D03*
Y126870D02*
D03*
D43*
X233347Y117500D02*
D03*
X255000Y100965D02*
D03*
Y117500D02*
D03*
X233347Y100965D02*
D03*
D44*
X283740Y109232D02*
D03*
Y35000D02*
D03*
D45*
X80000Y60000D02*
D03*
X90000D02*
D03*
X100000D02*
D03*
X110000D02*
D03*
X120000D02*
D03*
X130000D02*
D03*
X140000D02*
D03*
X150000D02*
D03*
X160000D02*
D03*
X170000D02*
D03*
X180000D02*
D03*
X190000D02*
D03*
X200000D02*
D03*
Y120000D02*
D03*
X190000D02*
D03*
X180000D02*
D03*
X170000D02*
D03*
X160000D02*
D03*
X150000D02*
D03*
X140000D02*
D03*
X130000D02*
D03*
X120000D02*
D03*
X110000D02*
D03*
X100000D02*
D03*
X150000Y90000D02*
D03*
X160000D02*
D03*
X170000D02*
D03*
X180000D02*
D03*
X190000D02*
D03*
Y100000D02*
D03*
X180000D02*
D03*
X170000D02*
D03*
X160000D02*
D03*
X150000D02*
D03*
X130000Y90000D02*
D03*
Y100000D02*
D03*
X140000D02*
D03*
Y90000D02*
D03*
X90000Y120000D02*
D03*
X80000D02*
D03*
X70000D02*
D03*
Y60000D02*
D03*
X275000Y165000D02*
D03*
Y155000D02*
D03*
Y145000D02*
D03*
D46*
X299213Y11811D02*
D03*
Y169291D02*
D03*
X11811D02*
D03*
Y11811D02*
D03*
D47*
X233347Y35000D02*
D03*
D48*
X255000D02*
D03*
D49*
X303976Y67500D02*
D03*
X215000D02*
D03*
D50*
X260000D02*
D03*
D51*
X35000Y142500D02*
D03*
X40000Y14000D02*
D03*
X84000Y84000D02*
D03*
X96000D02*
D03*
X240000Y17500D02*
D03*
X282500Y5000D02*
D03*
Y17500D02*
D03*
X15000Y55000D02*
D03*
X27500Y35000D02*
D03*
X220000Y125000D02*
D03*
D52*
X245000Y60000D02*
D03*
M02*
