G04 Layer_Color=32896*
%FSLAX25Y25*%
%MOIN*%
G70*
G01*
G75*
%ADD32C,0.00787*%
%ADD33C,0.00100*%
%ADD36C,0.00500*%
D32*
X238610Y13000D02*
X246110D01*
X238610D02*
Y22000D01*
X246110D01*
X253890Y13000D02*
X261390D01*
Y22000D01*
X253890D02*
X261390D01*
X23000Y48890D02*
Y56390D01*
X32000D01*
Y48890D02*
Y56390D01*
X23000Y33610D02*
Y41110D01*
Y33610D02*
X32000D01*
Y41110D01*
X62610Y105500D02*
X70110D01*
X62610D02*
Y114500D01*
X70110D01*
X77890Y105500D02*
X85390D01*
Y114500D01*
X77890D02*
X85390D01*
X253610Y168905D02*
X261110D01*
X253610D02*
Y177905D01*
X261110D01*
X268890Y168905D02*
X276390D01*
Y177905D01*
X268890D02*
X276390D01*
X296390Y149500D02*
X303890D01*
Y140500D02*
Y149500D01*
X296390Y140500D02*
X303890D01*
X281110Y149500D02*
X288610D01*
X281110Y140500D02*
Y149500D01*
Y140500D02*
X288610D01*
X196110Y10500D02*
X203610D01*
X196110D02*
Y19500D01*
X203610D01*
X211390Y10500D02*
X218890D01*
Y19500D01*
X211390D02*
X218890D01*
X208890Y169500D02*
X216390D01*
Y160500D02*
Y169500D01*
X208890Y160500D02*
X216390D01*
X193610Y169500D02*
X201110D01*
X193610Y160500D02*
Y169500D01*
Y160500D02*
X201110D01*
X51110Y10500D02*
X58610D01*
X51110D02*
Y19500D01*
X58610D01*
X66390Y10500D02*
X73890D01*
Y19500D01*
X66390D02*
X73890D01*
X66390Y169500D02*
X73890D01*
Y160500D02*
Y169500D01*
X66390Y160500D02*
X73890D01*
X51110Y169500D02*
X58610D01*
X51110Y160500D02*
Y169500D01*
Y160500D02*
X58610D01*
X196110Y20500D02*
X203610D01*
X196110D02*
Y29500D01*
X203610D01*
X211390Y20500D02*
X218890D01*
Y29500D01*
X211390D02*
X218890D01*
X208890Y159500D02*
X216390D01*
Y150500D02*
Y159500D01*
X208890Y150500D02*
X216390D01*
X193610Y159500D02*
X201110D01*
X193610Y150500D02*
Y159500D01*
Y150500D02*
X201110D01*
X51110Y20500D02*
X58610D01*
X51110D02*
Y29500D01*
X58610D01*
X66390Y20500D02*
X73890D01*
Y29500D01*
X66390D02*
X73890D01*
X66390Y159500D02*
X73890D01*
Y150500D02*
Y159500D01*
X66390Y150500D02*
X73890D01*
X51110Y159500D02*
X58610D01*
X51110Y150500D02*
Y159500D01*
Y150500D02*
X58610D01*
X224331Y82953D02*
Y91220D01*
X205945Y92598D02*
X224055D01*
X205945D02*
Y117402D01*
X224055D01*
Y92598D02*
Y117402D01*
X218890Y137000D02*
X226390D01*
Y128000D02*
Y137000D01*
X218890Y128000D02*
X226390D01*
X203610Y137000D02*
X211110D01*
X203610Y128000D02*
Y137000D01*
Y128000D02*
X211110D01*
X221110Y73000D02*
X228610D01*
X221110D02*
Y82000D01*
X228610D01*
X236390Y73000D02*
X243890D01*
Y82000D01*
X236390D02*
X243890D01*
D33*
X600Y136400D02*
Y138800D01*
Y133800D02*
Y135300D01*
Y130400D02*
Y132800D01*
Y128200D02*
Y130100D01*
Y125100D02*
Y126000D01*
Y122900D02*
Y123500D01*
Y121900D02*
Y122500D01*
Y120000D02*
Y120600D01*
Y116500D02*
Y117900D01*
Y112200D02*
Y114700D01*
Y109600D02*
Y110900D01*
Y107700D02*
Y108500D01*
Y105200D02*
Y105800D01*
X700Y136400D02*
Y139100D01*
Y133600D02*
Y135500D01*
Y130400D02*
Y132800D01*
Y127900D02*
Y130100D01*
Y125000D02*
Y125900D01*
Y122900D02*
Y123500D01*
Y121900D02*
Y122500D01*
Y120000D02*
Y120600D01*
Y116200D02*
Y118200D01*
Y112200D02*
Y114900D01*
Y109200D02*
Y111200D01*
Y107600D02*
Y108500D01*
Y105200D02*
Y105800D01*
X800Y136400D02*
Y139200D01*
Y133400D02*
Y135700D01*
Y130400D02*
Y132800D01*
Y127800D02*
Y130100D01*
Y124800D02*
Y125800D01*
Y122900D02*
Y123500D01*
Y121900D02*
Y122500D01*
Y120000D02*
Y120600D01*
Y116100D02*
Y118400D01*
Y112200D02*
Y115000D01*
Y109100D02*
Y111400D01*
Y107500D02*
Y108400D01*
Y105200D02*
Y105800D01*
X900Y136400D02*
Y139300D01*
Y133300D02*
Y135800D01*
Y130400D02*
Y132800D01*
Y127700D02*
Y130100D01*
Y124700D02*
Y125600D01*
Y122900D02*
Y123500D01*
Y121900D02*
Y122500D01*
Y120000D02*
Y120600D01*
Y115900D02*
Y118500D01*
Y112200D02*
Y115100D01*
Y109000D02*
Y111500D01*
Y107400D02*
Y108300D01*
Y105200D02*
Y105800D01*
X1000Y136400D02*
Y139400D01*
Y133200D02*
Y135900D01*
Y130400D02*
Y132800D01*
Y127500D02*
Y130100D01*
Y124600D02*
Y125600D01*
Y122900D02*
Y123500D01*
Y121900D02*
Y122500D01*
Y120000D02*
Y120600D01*
Y115800D02*
Y118600D01*
Y112200D02*
Y115200D01*
Y108900D02*
Y111600D01*
Y107300D02*
Y108200D01*
Y105200D02*
Y105800D01*
X1100Y136400D02*
Y139400D01*
Y133200D02*
Y135900D01*
Y130400D02*
Y132800D01*
Y127500D02*
Y130100D01*
Y124500D02*
Y125400D01*
Y122900D02*
Y123500D01*
Y121900D02*
Y122500D01*
Y120000D02*
Y120600D01*
Y115800D02*
Y118700D01*
Y112200D02*
Y115200D01*
Y108800D02*
Y111700D01*
Y107300D02*
Y108100D01*
Y105200D02*
Y105800D01*
X1200Y138600D02*
Y139400D01*
Y136400D02*
Y137000D01*
Y135200D02*
Y136000D01*
Y133100D02*
Y134000D01*
Y130400D02*
Y131000D01*
Y127400D02*
Y128300D01*
Y124300D02*
Y125300D01*
Y122900D02*
Y123500D01*
Y121900D02*
Y122500D01*
Y120000D02*
Y120600D01*
Y117800D02*
Y118800D01*
Y115700D02*
Y116600D01*
Y114500D02*
Y115300D01*
Y112200D02*
Y112800D01*
Y110800D02*
Y111700D01*
Y108700D02*
Y109700D01*
Y107100D02*
Y108000D01*
Y105200D02*
Y105800D01*
X1300Y138800D02*
Y139400D01*
Y136400D02*
Y137000D01*
Y135300D02*
Y136000D01*
Y133100D02*
Y133800D01*
Y130400D02*
Y131000D01*
Y127400D02*
Y128200D01*
Y124200D02*
Y125100D01*
Y122900D02*
Y123500D01*
Y121900D02*
Y122500D01*
Y120000D02*
Y120600D01*
Y118000D02*
Y118800D01*
Y115700D02*
Y116500D01*
Y114600D02*
Y115300D01*
Y112200D02*
Y112800D01*
Y111000D02*
Y111800D01*
Y108700D02*
Y109400D01*
Y107100D02*
Y107900D01*
Y105200D02*
Y105800D01*
X1400Y138800D02*
Y139500D01*
Y136400D02*
Y137000D01*
Y135400D02*
Y136100D01*
Y133100D02*
Y133700D01*
Y130400D02*
Y131000D01*
Y127300D02*
Y128000D01*
Y124100D02*
Y125000D01*
Y122900D02*
Y123500D01*
Y121900D02*
Y122500D01*
Y120000D02*
Y120600D01*
Y118100D02*
Y118900D01*
Y115600D02*
Y116300D01*
Y114700D02*
Y115300D01*
Y112200D02*
Y112800D01*
Y111100D02*
Y111900D01*
Y108600D02*
Y109300D01*
Y106000D02*
Y107800D01*
Y105200D02*
Y105800D01*
X1500Y138800D02*
Y139500D01*
Y136400D02*
Y137000D01*
Y135400D02*
Y136100D01*
Y133000D02*
Y133700D01*
Y130400D02*
Y131000D01*
Y127300D02*
Y127900D01*
Y123900D02*
Y124900D01*
Y122900D02*
Y123500D01*
Y121900D02*
Y122500D01*
Y120000D02*
Y120600D01*
Y118200D02*
Y118900D01*
Y115600D02*
Y116300D01*
Y114700D02*
Y115300D01*
Y112200D02*
Y112800D01*
Y111200D02*
Y111900D01*
Y108600D02*
Y109300D01*
Y106000D02*
Y107900D01*
Y105200D02*
Y105800D01*
X1600Y138800D02*
Y139400D01*
Y136400D02*
Y137000D01*
Y135500D02*
Y136100D01*
Y133000D02*
Y133700D01*
Y130400D02*
Y131000D01*
Y127200D02*
Y127900D01*
Y123800D02*
Y124700D01*
Y122900D02*
Y123500D01*
Y121900D02*
Y122500D01*
Y120000D02*
Y120600D01*
Y118300D02*
Y118900D01*
Y115600D02*
Y116200D01*
Y114600D02*
Y115300D01*
Y112200D02*
Y112800D01*
Y111300D02*
Y111900D01*
Y108600D02*
Y109200D01*
Y106000D02*
Y108000D01*
Y105200D02*
Y105800D01*
X1700Y138700D02*
Y139400D01*
Y136400D02*
Y137000D01*
Y135500D02*
Y136100D01*
Y133000D02*
Y133600D01*
Y130400D02*
Y131000D01*
Y127200D02*
Y127800D01*
Y123700D02*
Y124600D01*
Y122900D02*
Y123500D01*
Y121900D02*
Y122500D01*
Y120000D02*
Y120600D01*
Y118300D02*
Y118900D01*
Y115500D02*
Y116100D01*
Y114500D02*
Y115200D01*
Y112200D02*
Y112800D01*
Y111300D02*
Y111900D01*
Y108500D02*
Y109100D01*
Y106000D02*
Y108100D01*
Y105200D02*
Y105800D01*
X1800Y137200D02*
Y139400D01*
Y136400D02*
Y137000D01*
Y135500D02*
Y136100D01*
Y133000D02*
Y133600D01*
Y130400D02*
Y131000D01*
Y127200D02*
Y127800D01*
Y123600D02*
Y124500D01*
Y122900D02*
Y123500D01*
Y121900D02*
Y122500D01*
Y120000D02*
Y120600D01*
Y118300D02*
Y118900D01*
Y115500D02*
Y116100D01*
Y113100D02*
Y115200D01*
Y112200D02*
Y112800D01*
Y111300D02*
Y111900D01*
Y108500D02*
Y109100D01*
Y106000D02*
Y108200D01*
Y105200D02*
Y105800D01*
X1900Y137200D02*
Y139300D01*
Y136400D02*
Y137000D01*
Y135500D02*
Y136100D01*
Y133000D02*
Y133600D01*
Y130400D02*
Y131000D01*
Y127200D02*
Y127800D01*
Y122900D02*
Y124300D01*
Y121900D02*
Y122500D01*
Y120000D02*
Y120600D01*
Y118400D02*
Y118900D01*
Y115500D02*
Y116100D01*
Y113100D02*
Y115100D01*
Y112200D02*
Y112800D01*
Y111300D02*
Y112000D01*
Y108500D02*
Y109100D01*
Y107400D02*
Y108200D01*
Y105200D02*
Y105800D01*
X2000Y137200D02*
Y139200D01*
Y136400D02*
Y137000D01*
Y135500D02*
Y136100D01*
Y133000D02*
Y133600D01*
Y130400D02*
Y131000D01*
Y127200D02*
Y127800D01*
Y122900D02*
Y124200D01*
Y121900D02*
Y122500D01*
Y120000D02*
Y120600D01*
Y118400D02*
Y118900D01*
Y115500D02*
Y116100D01*
Y113100D02*
Y115100D01*
Y112200D02*
Y112800D01*
Y111400D02*
Y112000D01*
Y108500D02*
Y109100D01*
Y107500D02*
Y108200D01*
Y105200D02*
Y105800D01*
X2100Y137200D02*
Y139200D01*
Y136400D02*
Y137000D01*
Y135500D02*
Y136100D01*
Y133000D02*
Y133600D01*
Y130400D02*
Y131000D01*
Y127200D02*
Y127800D01*
Y122900D02*
Y124300D01*
Y121900D02*
Y122500D01*
Y120000D02*
Y120600D01*
Y118400D02*
Y118900D01*
Y115500D02*
Y116100D01*
Y113100D02*
Y115000D01*
Y112200D02*
Y112800D01*
Y111300D02*
Y112000D01*
Y108500D02*
Y109100D01*
Y107600D02*
Y108200D01*
Y105200D02*
Y105800D01*
X2200Y137200D02*
Y139300D01*
Y136400D02*
Y137000D01*
Y135500D02*
Y136100D01*
Y133000D02*
Y133600D01*
Y130400D02*
Y131000D01*
Y127200D02*
Y127800D01*
Y122900D02*
Y124500D01*
Y121900D02*
Y122500D01*
Y120000D02*
Y120600D01*
Y118300D02*
Y118900D01*
Y115500D02*
Y116100D01*
Y113100D02*
Y115100D01*
Y112200D02*
Y112800D01*
Y111300D02*
Y111900D01*
Y108500D02*
Y109100D01*
Y107700D02*
Y108300D01*
Y105200D02*
Y105800D01*
X2300Y138600D02*
Y139300D01*
Y136400D02*
Y137000D01*
Y135500D02*
Y136100D01*
Y133000D02*
Y133600D01*
Y130400D02*
Y131000D01*
Y127200D02*
Y127900D01*
Y123600D02*
Y124600D01*
Y122900D02*
Y123500D01*
Y121900D02*
Y122500D01*
Y120000D02*
Y120600D01*
Y118300D02*
Y118900D01*
Y115500D02*
Y116200D01*
Y114500D02*
Y115200D01*
Y112200D02*
Y112800D01*
Y111300D02*
Y111900D01*
Y108500D02*
Y109200D01*
Y107700D02*
Y108300D01*
Y105200D02*
Y105800D01*
X2400Y138800D02*
Y139400D01*
Y136400D02*
Y137000D01*
Y135500D02*
Y136100D01*
Y133000D02*
Y133600D01*
Y130400D02*
Y131000D01*
Y127200D02*
Y127900D01*
Y123800D02*
Y124700D01*
Y122900D02*
Y123500D01*
Y121900D02*
Y122500D01*
Y120000D02*
Y120600D01*
Y118200D02*
Y118900D01*
Y115500D02*
Y116200D01*
Y114600D02*
Y115200D01*
Y112200D02*
Y112800D01*
Y111300D02*
Y111900D01*
Y108600D02*
Y109200D01*
Y107700D02*
Y108300D01*
Y105200D02*
Y105800D01*
X2500Y138800D02*
Y139400D01*
Y136400D02*
Y137000D01*
Y135500D02*
Y136100D01*
Y133000D02*
Y133600D01*
Y130400D02*
Y131000D01*
Y127300D02*
Y128000D01*
Y123900D02*
Y124800D01*
Y122900D02*
Y123500D01*
Y121900D02*
Y122500D01*
Y120000D02*
Y120600D01*
Y118200D02*
Y118900D01*
Y115600D02*
Y116300D01*
Y114600D02*
Y115200D01*
Y112200D02*
Y112800D01*
Y111200D02*
Y111900D01*
Y108600D02*
Y109300D01*
Y107600D02*
Y108300D01*
Y105200D02*
Y105800D01*
X2600Y138800D02*
Y139400D01*
Y136400D02*
Y137000D01*
Y135500D02*
Y136100D01*
Y133000D02*
Y133600D01*
Y130400D02*
Y131000D01*
Y127300D02*
Y128100D01*
Y124000D02*
Y125000D01*
Y122900D02*
Y123500D01*
Y121900D02*
Y122500D01*
Y120000D02*
Y120600D01*
Y118100D02*
Y118900D01*
Y115600D02*
Y116400D01*
Y114600D02*
Y115200D01*
Y112200D02*
Y112800D01*
Y111100D02*
Y111900D01*
Y108600D02*
Y109400D01*
Y107600D02*
Y108200D01*
Y105200D02*
Y105800D01*
X2700Y138700D02*
Y139400D01*
Y136400D02*
Y137000D01*
Y135500D02*
Y136100D01*
Y133000D02*
Y133600D01*
Y130400D02*
Y131000D01*
Y127400D02*
Y128200D01*
Y124200D02*
Y125100D01*
Y122900D02*
Y123500D01*
Y121900D02*
Y122500D01*
Y120000D02*
Y120600D01*
Y118000D02*
Y118800D01*
Y115600D02*
Y116500D01*
Y114600D02*
Y115200D01*
Y112200D02*
Y112800D01*
Y111000D02*
Y111800D01*
Y108700D02*
Y109500D01*
Y107500D02*
Y108200D01*
Y105200D02*
Y105800D01*
X2800Y138500D02*
Y139400D01*
Y136400D02*
Y137000D01*
Y135500D02*
Y136100D01*
Y133000D02*
Y133600D01*
Y130400D02*
Y131000D01*
Y127400D02*
Y128500D01*
Y124300D02*
Y125300D01*
Y122900D02*
Y123500D01*
Y121900D02*
Y122500D01*
Y120000D02*
Y120600D01*
Y117700D02*
Y118800D01*
Y115700D02*
Y116800D01*
Y114300D02*
Y115200D01*
Y112200D02*
Y112800D01*
Y110700D02*
Y111800D01*
Y108700D02*
Y109800D01*
Y107300D02*
Y108200D01*
Y105200D02*
Y105800D01*
X2900Y136400D02*
Y139400D01*
Y135500D02*
Y136100D01*
Y133000D02*
Y133600D01*
Y130400D02*
Y131000D01*
Y127500D02*
Y130100D01*
Y124400D02*
Y125400D01*
Y122900D02*
Y123500D01*
Y121900D02*
Y122500D01*
Y119000D02*
Y121700D01*
Y115800D02*
Y118700D01*
Y112200D02*
Y115200D01*
Y108800D02*
Y111700D01*
Y105200D02*
Y108200D01*
X3000Y136400D02*
Y139300D01*
Y135500D02*
Y136100D01*
Y133000D02*
Y133600D01*
Y130400D02*
Y131000D01*
Y127500D02*
Y130100D01*
Y124600D02*
Y125500D01*
Y122900D02*
Y123500D01*
Y121900D02*
Y122500D01*
Y119000D02*
Y121700D01*
Y115900D02*
Y118600D01*
Y112200D02*
Y115200D01*
Y108900D02*
Y111600D01*
Y105200D02*
Y108100D01*
X3100Y136400D02*
Y139300D01*
Y135500D02*
Y136100D01*
Y133000D02*
Y133600D01*
Y130400D02*
Y131000D01*
Y127600D02*
Y130100D01*
Y124700D02*
Y125700D01*
Y122900D02*
Y123500D01*
Y121900D02*
Y122500D01*
Y119000D02*
Y121700D01*
Y116000D02*
Y118500D01*
Y112200D02*
Y115100D01*
Y108900D02*
Y111500D01*
Y105200D02*
Y108000D01*
X3200Y136400D02*
Y139200D01*
Y135500D02*
Y136100D01*
Y133000D02*
Y133600D01*
Y130400D02*
Y131000D01*
Y127800D02*
Y130100D01*
Y124800D02*
Y125800D01*
Y122900D02*
Y123500D01*
Y121900D02*
Y122500D01*
Y119000D02*
Y121700D01*
Y116100D02*
Y118400D01*
Y112200D02*
Y115000D01*
Y109100D02*
Y111400D01*
Y105200D02*
Y107900D01*
X3300Y136400D02*
Y139000D01*
Y135500D02*
Y136100D01*
Y133000D02*
Y133600D01*
Y130400D02*
Y131000D01*
Y128000D02*
Y130100D01*
Y124900D02*
Y125900D01*
Y122900D02*
Y123500D01*
Y121900D02*
Y122500D01*
Y119000D02*
Y121700D01*
Y116300D02*
Y118200D01*
Y112200D02*
Y114900D01*
Y109300D02*
Y111200D01*
Y105200D02*
Y107800D01*
X3400Y136400D02*
Y138700D01*
Y135500D02*
Y136100D01*
Y133000D02*
Y133600D01*
Y130400D02*
Y131000D01*
Y128400D02*
Y130100D01*
Y125100D02*
Y125900D01*
Y122900D02*
Y123500D01*
Y121900D02*
Y122500D01*
Y119000D02*
Y121700D01*
Y116700D02*
Y117800D01*
Y112200D02*
Y114500D01*
Y109700D02*
Y110800D01*
Y105200D02*
Y107400D01*
X6000Y117200D02*
Y127100D01*
X6100Y117100D02*
Y127300D01*
X6200Y117100D02*
Y127300D01*
X6300Y117100D02*
Y127300D01*
X6400Y117100D02*
Y127300D01*
X6500Y127900D02*
Y128900D01*
Y123400D02*
Y127300D01*
Y122000D02*
Y122400D01*
Y117100D02*
Y120900D01*
X6600Y127800D02*
Y129100D01*
Y117100D02*
Y127300D01*
X6700Y127700D02*
Y129200D01*
Y117100D02*
Y127300D01*
X6800Y127600D02*
Y129200D01*
Y123400D02*
Y127200D01*
Y117100D02*
Y120900D01*
X6900Y127500D02*
Y129300D01*
Y123400D02*
Y127200D01*
Y117200D02*
Y120900D01*
X7000Y127500D02*
Y129300D01*
Y117200D02*
Y127100D01*
X7100Y127500D02*
Y129300D01*
Y117300D02*
Y127100D01*
X7200Y127500D02*
Y129300D01*
Y124600D02*
Y127100D01*
Y119300D02*
Y124200D01*
Y117300D02*
Y119200D01*
X7300Y127500D02*
Y129300D01*
Y126300D02*
Y127000D01*
Y124600D02*
Y125000D01*
Y123700D02*
Y124100D01*
Y120200D02*
Y120600D01*
Y119400D02*
Y119800D01*
Y118500D02*
Y118900D01*
Y117400D02*
Y118000D01*
X7400Y127500D02*
Y129300D01*
Y117400D02*
Y126900D01*
X7500Y127500D02*
Y129300D01*
Y117400D02*
Y126900D01*
X7600Y127500D02*
Y129300D01*
Y126200D02*
Y126900D01*
Y124500D02*
Y125000D01*
Y123700D02*
Y124100D01*
Y122800D02*
Y123200D01*
Y122000D02*
Y122400D01*
Y121100D02*
Y121500D01*
Y120300D02*
Y120700D01*
Y119400D02*
Y119800D01*
Y118600D02*
Y119000D01*
Y117500D02*
Y118100D01*
X7700Y128600D02*
Y129300D01*
Y127500D02*
Y128300D01*
Y126200D02*
Y126800D01*
Y124400D02*
Y124900D01*
Y123600D02*
Y124000D01*
Y122800D02*
Y123200D01*
Y122000D02*
Y122400D01*
Y121100D02*
Y121500D01*
Y120300D02*
Y120700D01*
Y119500D02*
Y119900D01*
Y118600D02*
Y119000D01*
Y117500D02*
Y118200D01*
X7800Y128600D02*
Y129300D01*
Y128300D02*
Y128500D01*
Y127500D02*
Y128200D01*
Y126100D02*
Y126800D01*
Y117600D02*
Y125700D01*
X7900Y128300D02*
Y129300D01*
Y127500D02*
Y128200D01*
Y126100D02*
Y126700D01*
Y117600D02*
Y125600D01*
X8000Y127600D02*
Y129300D01*
Y126000D02*
Y126700D01*
Y125200D02*
Y125600D01*
Y124400D02*
Y124800D01*
Y123600D02*
Y124000D01*
Y122800D02*
Y123200D01*
Y122000D02*
Y122400D01*
Y121200D02*
Y121600D01*
Y120300D02*
Y120700D01*
Y119500D02*
Y119900D01*
Y118700D02*
Y119100D01*
Y117700D02*
Y118300D01*
X8100Y127600D02*
Y129200D01*
Y125100D02*
Y126600D01*
Y124300D02*
Y124800D01*
Y120100D02*
Y124000D01*
Y117700D02*
Y120000D01*
X8200Y128300D02*
Y129100D01*
Y127700D02*
Y128200D01*
Y117800D02*
Y126600D01*
X8300Y127900D02*
Y129000D01*
Y117800D02*
Y126600D01*
X8400Y128300D02*
Y128600D01*
Y125900D02*
Y126500D01*
Y125100D02*
Y125500D01*
Y124300D02*
Y124700D01*
Y123500D02*
Y123900D01*
Y122800D02*
Y123100D01*
Y122000D02*
Y122400D01*
Y121200D02*
Y121600D01*
Y120400D02*
Y120800D01*
Y119600D02*
Y120000D01*
Y118900D02*
Y119300D01*
Y117800D02*
Y118500D01*
X8500Y127700D02*
Y128500D01*
Y117900D02*
Y126500D01*
X8600Y127500D02*
Y128500D01*
Y117900D02*
Y126400D01*
X8700Y127500D02*
Y127800D01*
Y118000D02*
Y126400D01*
X8800Y127500D02*
Y127800D01*
Y118000D02*
Y126300D01*
X8900Y127500D02*
Y127800D01*
Y118100D02*
Y126200D01*
X9000Y127500D02*
Y127800D01*
Y118300D02*
Y126100D01*
X9100Y127500D02*
Y127800D01*
Y118500D02*
Y125900D01*
X9200Y127500D02*
Y127800D01*
Y118300D02*
Y126100D01*
X9300Y127500D02*
Y127700D01*
Y118200D02*
Y126100D01*
X9400Y127400D02*
Y127700D01*
Y118200D02*
Y126200D01*
X9500Y127400D02*
Y127700D01*
Y126300D02*
Y126600D01*
Y125800D02*
Y126200D01*
Y118200D02*
Y118600D01*
X9600Y127400D02*
Y127700D01*
Y125800D02*
Y126700D01*
Y118700D02*
Y125700D01*
Y118100D02*
Y118600D01*
X9700Y127200D02*
Y127600D01*
Y125800D02*
Y126700D01*
Y118700D02*
Y125700D01*
Y118100D02*
Y118600D01*
X9800Y126900D02*
Y127600D01*
Y125800D02*
Y126800D01*
Y118700D02*
Y125700D01*
Y118100D02*
Y118600D01*
X9900Y125800D02*
Y127400D01*
Y118700D02*
Y125700D01*
Y118100D02*
Y118600D01*
X10000Y126600D02*
Y127200D01*
Y125800D02*
Y126500D01*
Y118700D02*
Y125700D01*
Y118100D02*
Y118600D01*
X10100Y125800D02*
Y126500D01*
Y118700D02*
Y125700D01*
Y118100D02*
Y118600D01*
X10200Y125800D02*
Y126500D01*
Y118700D02*
Y125700D01*
Y118100D02*
Y118600D01*
X10300Y125800D02*
Y126400D01*
Y118700D02*
Y125700D01*
Y118100D02*
Y118600D01*
X10400Y125800D02*
Y126200D01*
Y118700D02*
Y125700D01*
Y118100D02*
Y118600D01*
X10500Y125800D02*
Y126200D01*
Y118700D02*
Y125700D01*
Y118100D02*
Y118600D01*
X10600Y125800D02*
Y126200D01*
Y122500D02*
Y125700D01*
Y121300D02*
Y122400D01*
Y118700D02*
Y121200D01*
Y118100D02*
Y118600D01*
X10700Y125800D02*
Y126200D01*
Y122600D02*
Y125700D01*
Y122300D02*
Y122500D01*
Y121500D02*
Y122200D01*
Y118700D02*
Y121100D01*
Y118100D02*
Y118600D01*
X10800Y125800D02*
Y126200D01*
Y122600D02*
Y125700D01*
Y122200D02*
Y122500D01*
Y121700D02*
Y122100D01*
Y121400D02*
Y121600D01*
Y118700D02*
Y121100D01*
Y118100D02*
Y118600D01*
X10900Y125800D02*
Y126200D01*
Y122700D02*
Y125700D01*
Y122000D02*
Y122600D01*
Y121400D02*
Y121700D01*
Y121200D02*
Y121300D01*
Y118700D02*
Y121100D01*
Y118100D02*
Y118600D01*
X11000Y125800D02*
Y126200D01*
Y122800D02*
Y125700D01*
Y121900D02*
Y122700D01*
Y121500D02*
Y121700D01*
Y121200D02*
Y121400D01*
Y118700D02*
Y121100D01*
Y118100D02*
Y118600D01*
X11100Y125800D02*
Y126200D01*
Y122900D02*
Y125700D01*
Y121700D02*
Y122800D01*
Y121500D02*
Y121600D01*
Y118700D02*
Y121400D01*
Y118100D02*
Y118600D01*
X11200Y125800D02*
Y126200D01*
Y121700D02*
Y125700D01*
Y118700D02*
Y121500D01*
Y118100D02*
Y118600D01*
X11300Y125800D02*
Y126200D01*
Y121800D02*
Y125700D01*
Y121100D02*
Y121700D01*
Y118700D02*
Y121000D01*
Y118100D02*
Y118600D01*
X11400Y125800D02*
Y126200D01*
Y123100D02*
Y125700D01*
Y122000D02*
Y123000D01*
Y121100D02*
Y121900D01*
Y118700D02*
Y121000D01*
Y118100D02*
Y118600D01*
X11500Y125800D02*
Y126200D01*
Y123200D02*
Y125700D01*
Y122200D02*
Y123100D01*
Y121300D02*
Y122000D01*
Y118700D02*
Y120900D01*
Y118100D02*
Y118600D01*
X11600Y125800D02*
Y126200D01*
Y123300D02*
Y125700D01*
Y122400D02*
Y123200D01*
Y121600D02*
Y122300D01*
Y120800D02*
Y121400D01*
Y118700D02*
Y120700D01*
Y118100D02*
Y118600D01*
X11700Y125800D02*
Y126200D01*
Y122600D02*
Y125700D01*
Y121900D02*
Y122400D01*
Y120700D02*
Y121700D01*
Y118700D02*
Y120500D01*
Y118100D02*
Y118600D01*
X11800Y125800D02*
Y126200D01*
Y123400D02*
Y125700D01*
Y122800D02*
Y123300D01*
Y122300D02*
Y122600D01*
Y120600D02*
Y122000D01*
Y118700D02*
Y120300D01*
Y118100D02*
Y118600D01*
X11900Y125800D02*
Y126200D01*
Y123500D02*
Y125700D01*
Y123000D02*
Y123400D01*
Y121100D02*
Y122400D01*
Y118700D02*
Y120700D01*
Y118100D02*
Y118600D01*
X12000Y125800D02*
Y126200D01*
Y123600D02*
Y125700D01*
Y123200D02*
Y123500D01*
Y121800D02*
Y122600D01*
Y118700D02*
Y121200D01*
Y118100D02*
Y118600D01*
X12100Y125800D02*
Y126200D01*
Y123700D02*
Y125700D01*
Y123400D02*
Y123500D01*
Y122400D02*
Y122600D01*
Y118700D02*
Y122000D01*
Y118100D02*
Y118600D01*
X12200Y125800D02*
Y126200D01*
Y123700D02*
Y125700D01*
Y118700D02*
Y122600D01*
Y117900D02*
Y118600D01*
X12300Y125800D02*
Y126200D01*
Y123800D02*
Y125700D01*
Y118700D02*
Y123200D01*
Y117800D02*
Y118600D01*
X12400Y125800D02*
Y126200D01*
Y118700D02*
Y125700D01*
Y117700D02*
Y118600D01*
X12500Y125800D02*
Y126200D01*
Y118700D02*
Y125700D01*
Y118100D02*
Y118600D01*
Y117600D02*
Y118000D01*
X12600Y125800D02*
Y126200D01*
Y118700D02*
Y125700D01*
Y118100D02*
Y118600D01*
Y117400D02*
Y117900D01*
X12700Y125800D02*
Y126200D01*
Y118700D02*
Y125700D01*
Y118100D02*
Y118600D01*
Y117300D02*
Y117800D01*
X12800Y125800D02*
Y126200D01*
Y118700D02*
Y125700D01*
Y118100D02*
Y118600D01*
Y117300D02*
Y117700D01*
X12900Y125800D02*
Y126200D01*
Y118700D02*
Y125700D01*
Y118100D02*
Y118600D01*
Y117200D02*
Y117600D01*
X13000Y125800D02*
Y126200D01*
Y118700D02*
Y125700D01*
Y118100D02*
Y118600D01*
Y117100D02*
Y117500D01*
X13100Y125800D02*
Y126200D01*
Y118700D02*
Y125700D01*
Y118100D02*
Y118600D01*
Y117100D02*
Y117400D01*
X13200Y125800D02*
Y126200D01*
Y118700D02*
Y125700D01*
Y118100D02*
Y118600D01*
Y117000D02*
Y117300D01*
X13300Y125800D02*
Y126200D01*
Y118700D02*
Y125700D01*
Y118100D02*
Y118600D01*
Y117000D02*
Y117300D01*
X13400Y125800D02*
Y126200D01*
Y118100D02*
Y118600D01*
Y117000D02*
Y117200D01*
X13500Y118100D02*
Y126200D01*
Y117000D02*
Y117200D01*
X13600Y118100D02*
Y126200D01*
Y117000D02*
Y117300D01*
X13700Y118200D02*
Y126200D01*
Y117000D02*
Y117300D01*
X13800Y118200D02*
Y126100D01*
Y117000D02*
Y117300D01*
X13900Y118300D02*
Y126100D01*
Y117100D02*
Y117400D01*
X14000Y118400D02*
Y126000D01*
Y117100D02*
Y117400D01*
X14100Y118700D02*
Y125700D01*
Y117200D02*
Y117500D01*
X14200Y117200D02*
Y117500D01*
X14300Y117200D02*
Y117600D01*
X14400Y117300D02*
Y117700D01*
X14500Y117400D02*
Y118000D01*
X14600Y117500D02*
Y118200D01*
X14700Y119900D02*
Y120200D01*
Y117700D02*
Y118400D01*
X14800Y117900D02*
Y120700D01*
X14900Y123100D02*
Y123400D01*
Y118100D02*
Y121000D01*
X15000Y123000D02*
Y123500D01*
Y120400D02*
Y121100D01*
Y118300D02*
Y120200D01*
X15100Y122900D02*
Y123500D01*
Y120700D02*
Y121200D01*
Y119800D02*
Y120300D01*
Y119300D02*
Y119600D01*
X15200Y122800D02*
Y123400D01*
Y120700D02*
Y121300D01*
Y120000D02*
Y120400D01*
Y119400D02*
Y119700D01*
X15300Y122700D02*
Y123300D01*
Y120800D02*
Y121400D01*
Y120000D02*
Y120400D01*
Y119400D02*
Y119700D01*
Y118600D02*
Y119100D01*
X15400Y123600D02*
Y123900D01*
Y122600D02*
Y123200D01*
Y120900D02*
Y121500D01*
Y120100D02*
Y120500D01*
Y118600D02*
Y119700D01*
X15500Y123600D02*
Y124000D01*
Y122500D02*
Y123100D01*
Y121000D02*
Y121700D01*
Y120200D02*
Y120600D01*
Y118500D02*
Y119600D01*
X15600Y123500D02*
Y124000D01*
Y122400D02*
Y123000D01*
Y121200D02*
Y121700D01*
Y120200D02*
Y120700D01*
Y119100D02*
Y119400D01*
Y118500D02*
Y118800D01*
X15700Y123400D02*
Y124000D01*
Y121300D02*
Y122900D01*
Y120200D02*
Y120800D01*
Y118600D02*
Y118900D01*
X15800Y123300D02*
Y123900D01*
Y121300D02*
Y122800D01*
Y120300D02*
Y120900D01*
Y118600D02*
Y118900D01*
X15900Y124200D02*
Y124400D01*
Y123200D02*
Y123800D01*
Y121400D02*
Y122800D01*
Y120400D02*
Y121000D01*
Y118600D02*
Y118900D01*
X16000Y124100D02*
Y124500D01*
Y123100D02*
Y123700D01*
Y121300D02*
Y122900D01*
Y120500D02*
Y121100D01*
Y119700D02*
Y120100D01*
Y118700D02*
Y118900D01*
X16100Y124000D02*
Y124600D01*
Y120700D02*
Y123600D01*
Y119700D02*
Y120100D01*
Y118700D02*
Y119000D01*
X16200Y123900D02*
Y124500D01*
Y120700D02*
Y123500D01*
Y119700D02*
Y120200D01*
Y118700D02*
Y119000D01*
X16300Y123800D02*
Y124400D01*
Y120800D02*
Y123400D01*
Y119700D02*
Y120400D01*
Y118700D02*
Y119100D01*
X16400Y124800D02*
Y124900D01*
Y123700D02*
Y124300D01*
Y120900D02*
Y123300D01*
Y119800D02*
Y120400D01*
Y118800D02*
Y119300D01*
X16500Y124600D02*
Y125000D01*
Y123600D02*
Y124200D01*
Y120800D02*
Y123400D01*
Y119900D02*
Y120600D01*
Y118900D02*
Y119500D01*
X16600Y124500D02*
Y125100D01*
Y120700D02*
Y124100D01*
Y120000D02*
Y120600D01*
Y119100D02*
Y119600D01*
X16700Y132600D02*
Y133100D01*
Y130800D02*
Y131400D01*
Y129300D02*
Y129800D01*
Y124400D02*
Y125100D01*
Y120200D02*
Y124000D01*
Y119100D02*
Y119700D01*
X16800Y132500D02*
Y133200D01*
Y130700D02*
Y131500D01*
Y129200D02*
Y130000D01*
Y124400D02*
Y125000D01*
Y120200D02*
Y124000D01*
Y119200D02*
Y119800D01*
X16900Y132400D02*
Y133300D01*
Y130600D02*
Y131600D01*
Y129100D02*
Y130000D01*
Y124300D02*
Y124900D01*
Y120300D02*
Y123800D01*
Y119300D02*
Y119800D01*
Y114600D02*
Y115700D01*
X17000Y132400D02*
Y133400D01*
Y130600D02*
Y131600D01*
Y129100D02*
Y130100D01*
Y125200D02*
Y125500D01*
Y124100D02*
Y124800D01*
Y120300D02*
Y123900D01*
Y119400D02*
Y120000D01*
Y118700D02*
Y119000D01*
Y114000D02*
Y115900D01*
X17100Y132300D02*
Y133400D01*
Y131200D02*
Y131700D01*
Y130600D02*
Y131000D01*
Y129000D02*
Y130100D01*
Y125100D02*
Y125600D01*
Y120200D02*
Y124700D01*
Y119500D02*
Y120100D01*
Y118700D02*
Y119100D01*
Y113500D02*
Y116100D01*
X17200Y133000D02*
Y133400D01*
Y132300D02*
Y132700D01*
Y131200D02*
Y131700D01*
Y130600D02*
Y131000D01*
Y129700D02*
Y130100D01*
Y129000D02*
Y129400D01*
Y125000D02*
Y125600D01*
Y119600D02*
Y124600D01*
Y118600D02*
Y119100D01*
Y113000D02*
Y116300D01*
X17300Y133000D02*
Y133400D01*
Y132300D02*
Y132800D01*
Y131200D02*
Y131600D01*
Y130600D02*
Y131000D01*
Y129700D02*
Y130100D01*
Y129000D02*
Y129500D01*
Y124900D02*
Y125500D01*
Y119700D02*
Y124500D01*
Y118700D02*
Y119200D01*
Y112500D02*
Y116400D01*
X17400Y132300D02*
Y133400D01*
Y130600D02*
Y131600D01*
Y129000D02*
Y130100D01*
Y124800D02*
Y125400D01*
Y119800D02*
Y124400D01*
Y118700D02*
Y119300D01*
Y114100D02*
Y116500D01*
Y112000D02*
Y114000D01*
X17500Y132400D02*
Y133400D01*
Y130600D02*
Y131600D01*
Y129100D02*
Y130100D01*
Y125700D02*
Y126000D01*
Y124700D02*
Y125300D01*
Y119800D02*
Y124400D01*
Y118900D02*
Y119500D01*
Y118200D02*
Y118400D01*
Y113500D02*
Y116600D01*
Y111500D02*
Y113400D01*
X17600Y132400D02*
Y133300D01*
Y130700D02*
Y131500D01*
Y129100D02*
Y130000D01*
Y127500D02*
Y128100D01*
Y125700D02*
Y126100D01*
Y124600D02*
Y125200D01*
Y119700D02*
Y124500D01*
Y118900D02*
Y119600D01*
Y118200D02*
Y118500D01*
Y115400D02*
Y116600D01*
Y114800D02*
Y115200D01*
Y113500D02*
Y114700D01*
Y110900D02*
Y112900D01*
X17700Y132500D02*
Y133200D01*
Y130800D02*
Y131400D01*
Y129200D02*
Y129900D01*
Y127300D02*
Y128100D01*
Y125600D02*
Y126100D01*
Y119100D02*
Y125100D01*
Y118100D02*
Y118600D01*
Y115600D02*
Y116700D01*
Y114800D02*
Y115200D01*
Y113600D02*
Y114400D01*
Y110500D02*
Y112400D01*
X17800Y132700D02*
Y133100D01*
Y130900D02*
Y131200D01*
Y129400D02*
Y129800D01*
Y127200D02*
Y128200D01*
Y125400D02*
Y126000D01*
Y119100D02*
Y125000D01*
Y118100D02*
Y118700D01*
Y115800D02*
Y116800D01*
Y114800D02*
Y115300D01*
Y113700D02*
Y114300D01*
Y109900D02*
Y111900D01*
X17900Y132800D02*
Y133100D01*
Y130900D02*
Y131200D01*
Y129400D02*
Y129700D01*
Y127800D02*
Y128200D01*
Y127200D02*
Y127700D01*
Y125400D02*
Y125900D01*
Y119200D02*
Y124900D01*
Y118200D02*
Y118800D01*
Y115900D02*
Y116800D01*
Y114600D02*
Y115500D01*
Y113300D02*
Y114200D01*
Y112500D02*
Y112800D01*
Y112100D02*
Y112200D01*
Y109400D02*
Y111600D01*
X18000Y132800D02*
Y133100D01*
Y130900D02*
Y131200D01*
Y129400D02*
Y129700D01*
Y127800D02*
Y128200D01*
Y127100D02*
Y127600D01*
Y126300D02*
Y126500D01*
Y125200D02*
Y125800D01*
Y119300D02*
Y124900D01*
Y118300D02*
Y118900D01*
Y115900D02*
Y116800D01*
Y114400D02*
Y115600D01*
Y113200D02*
Y114200D01*
Y112400D02*
Y112900D01*
Y111900D02*
Y112300D01*
Y111100D02*
Y111700D01*
Y108900D02*
Y110800D01*
X18100Y132800D02*
Y133200D01*
Y130800D02*
Y131200D01*
Y129400D02*
Y129700D01*
Y127800D02*
Y128200D01*
Y127000D02*
Y127500D01*
Y126200D02*
Y126600D01*
Y125100D02*
Y125800D01*
Y119200D02*
Y125000D01*
Y118400D02*
Y119000D01*
Y117700D02*
Y118000D01*
Y113200D02*
Y116900D01*
Y111900D02*
Y112900D01*
Y111400D02*
Y111700D01*
Y111000D02*
Y111300D01*
Y108400D02*
Y110400D01*
X18200Y137600D02*
Y137900D01*
Y132800D02*
Y133600D01*
Y130800D02*
Y131100D01*
Y129400D02*
Y129700D01*
Y127800D02*
Y128200D01*
Y127000D02*
Y127400D01*
Y126100D02*
Y126700D01*
Y118500D02*
Y125700D01*
Y117600D02*
Y118100D01*
Y113200D02*
Y116900D01*
Y111900D02*
Y112900D01*
Y111400D02*
Y111700D01*
Y111100D02*
Y111300D01*
Y107900D02*
Y109800D01*
X18300Y137400D02*
Y138100D01*
Y132900D02*
Y133700D01*
Y130800D02*
Y131100D01*
Y129400D02*
Y129700D01*
Y127500D02*
Y128500D01*
Y127000D02*
Y127400D01*
Y126000D02*
Y126600D01*
Y118600D02*
Y125600D01*
Y117600D02*
Y118200D01*
Y113300D02*
Y116900D01*
Y111800D02*
Y113200D01*
Y111100D02*
Y111700D01*
Y107400D02*
Y109300D01*
X18400Y137300D02*
Y138100D01*
Y133000D02*
Y133800D01*
Y130800D02*
Y131100D01*
Y129400D02*
Y129700D01*
Y127400D02*
Y128600D01*
Y126900D02*
Y127300D01*
Y125900D02*
Y126500D01*
Y118700D02*
Y125500D01*
Y117700D02*
Y118300D01*
Y116200D02*
Y117000D01*
Y115200D02*
Y116000D01*
Y114000D02*
Y114800D01*
Y113400D02*
Y113900D01*
Y111100D02*
Y113300D01*
Y110800D02*
Y110900D01*
Y106800D02*
Y108800D01*
X18500Y137200D02*
Y138200D01*
Y134300D02*
Y136200D01*
Y133500D02*
Y133800D01*
Y132800D02*
Y133300D01*
Y130700D02*
Y131000D01*
Y129400D02*
Y129700D01*
Y126900D02*
Y128700D01*
Y125800D02*
Y126400D01*
Y118800D02*
Y125400D01*
Y117800D02*
Y118400D01*
Y116200D02*
Y117000D01*
Y115300D02*
Y116000D01*
Y114100D02*
Y114700D01*
Y112700D02*
Y113800D01*
Y111500D02*
Y112200D01*
Y110700D02*
Y111300D01*
Y106400D02*
Y108300D01*
X18600Y137200D02*
Y138200D01*
Y134300D02*
Y136300D01*
Y133500D02*
Y133800D01*
Y132600D02*
Y133300D01*
Y130700D02*
Y131000D01*
Y129400D02*
Y129700D01*
Y128200D02*
Y128800D01*
Y126700D02*
Y127800D01*
Y125700D02*
Y126300D01*
Y118700D02*
Y125600D01*
Y117900D02*
Y118500D01*
Y117200D02*
Y117400D01*
Y116200D02*
Y117000D01*
Y115400D02*
Y115900D01*
Y114100D02*
Y114700D01*
Y112700D02*
Y113800D01*
Y110700D02*
Y112100D01*
Y105800D02*
Y107800D01*
X18700Y137800D02*
Y138200D01*
Y134000D02*
Y137600D01*
Y133600D02*
Y133900D01*
Y132500D02*
Y133300D01*
Y130700D02*
Y131000D01*
Y129400D02*
Y129700D01*
Y128400D02*
Y128800D01*
Y127700D02*
Y127900D01*
Y126700D02*
Y127600D01*
Y117900D02*
Y126200D01*
Y117100D02*
Y117500D01*
Y116200D02*
Y117000D01*
Y115400D02*
Y115900D01*
Y114100D02*
Y114600D01*
Y112800D02*
Y113800D01*
Y110500D02*
Y112100D01*
Y105300D02*
Y107300D01*
X18800Y137800D02*
Y138200D01*
Y136000D02*
Y137600D01*
Y133600D02*
Y134600D01*
Y133000D02*
Y133300D01*
Y132300D02*
Y132900D01*
Y130600D02*
Y130900D01*
Y129400D02*
Y129700D01*
Y128500D02*
Y128900D01*
Y127700D02*
Y127900D01*
Y126500D02*
Y127500D01*
Y118100D02*
Y126100D01*
Y117100D02*
Y117600D01*
Y116200D02*
Y117000D01*
Y115400D02*
Y115900D01*
Y114100D02*
Y114600D01*
Y112800D02*
Y113800D01*
Y111700D02*
Y112100D01*
Y111200D02*
Y111600D01*
Y110500D02*
Y110900D01*
Y105000D02*
Y106700D01*
X18900Y137800D02*
Y138200D01*
Y136000D02*
Y137700D01*
Y133600D02*
Y134600D01*
Y133000D02*
Y133300D01*
Y132100D02*
Y132900D01*
Y130600D02*
Y130900D01*
Y129400D02*
Y129700D01*
Y128500D02*
Y128900D01*
Y127800D02*
Y128000D01*
Y126500D02*
Y127400D01*
Y118200D02*
Y126000D01*
Y117100D02*
Y117700D01*
Y116200D02*
Y117000D01*
Y115400D02*
Y115900D01*
Y114100D02*
Y114700D01*
Y112800D02*
Y113800D01*
Y111600D02*
Y112100D01*
Y111200D02*
Y111500D01*
Y110500D02*
Y110900D01*
Y104900D02*
Y106300D01*
X19000Y139000D02*
Y140100D01*
Y137200D02*
Y138200D01*
Y136000D02*
Y136300D01*
Y134300D02*
Y134600D01*
Y133000D02*
Y133900D01*
Y132700D02*
Y132900D01*
Y131900D02*
Y132500D01*
Y130600D02*
Y130900D01*
Y129400D02*
Y129700D01*
Y128600D02*
Y128900D01*
Y127800D02*
Y128100D01*
Y127000D02*
Y127400D01*
Y126400D02*
Y126900D01*
Y118300D02*
Y126000D01*
Y117200D02*
Y117800D01*
Y116200D02*
Y117000D01*
Y115300D02*
Y115900D01*
Y114100D02*
Y114700D01*
Y113400D02*
Y113800D01*
Y112700D02*
Y113300D01*
Y111200D02*
Y112200D01*
Y110500D02*
Y110900D01*
Y104800D02*
Y106200D01*
X19100Y139000D02*
Y140100D01*
Y137200D02*
Y138200D01*
Y136000D02*
Y136300D01*
Y134300D02*
Y134600D01*
Y132600D02*
Y133800D01*
Y131700D02*
Y132400D01*
Y130600D02*
Y130900D01*
Y129400D02*
Y129700D01*
Y128600D02*
Y129000D01*
Y127800D02*
Y128200D01*
Y127000D02*
Y127300D01*
Y126200D02*
Y126800D01*
Y118200D02*
Y126100D01*
Y117300D02*
Y117900D01*
Y116200D02*
Y117000D01*
Y115100D02*
Y116100D01*
Y114000D02*
Y114900D01*
Y113400D02*
Y113900D01*
Y112600D02*
Y113300D01*
Y111100D02*
Y112300D01*
Y110500D02*
Y111000D01*
Y105700D02*
Y106100D01*
Y105400D02*
Y105600D01*
Y104800D02*
Y105300D01*
Y103300D02*
Y104700D01*
X19200Y139000D02*
Y140100D01*
Y137300D02*
Y138100D01*
Y136000D02*
Y136400D01*
Y134100D02*
Y134600D01*
Y133000D02*
Y133700D01*
Y132600D02*
Y132900D01*
Y131500D02*
Y132200D01*
Y130600D02*
Y130900D01*
Y129400D02*
Y129700D01*
Y128700D02*
Y129000D01*
Y127700D02*
Y128300D01*
Y127000D02*
Y127300D01*
Y118200D02*
Y126700D01*
Y117400D02*
Y118000D01*
Y110500D02*
Y116900D01*
Y103300D02*
Y106300D01*
X19300Y139000D02*
Y140100D01*
Y137500D02*
Y137900D01*
Y136000D02*
Y136400D01*
Y134100D02*
Y134600D01*
Y133000D02*
Y133300D01*
Y132700D02*
Y132900D01*
Y131300D02*
Y132000D01*
Y130600D02*
Y131000D01*
Y129400D02*
Y129700D01*
Y128700D02*
Y129000D01*
Y127700D02*
Y128300D01*
Y127000D02*
Y127300D01*
Y117500D02*
Y126700D01*
Y113200D02*
Y116900D01*
Y111700D02*
Y113000D01*
Y110700D02*
Y111400D01*
Y103300D02*
Y106300D01*
Y102700D02*
Y103100D01*
X19400Y139700D02*
Y140100D01*
Y139000D02*
Y139400D01*
Y136000D02*
Y136400D01*
Y134100D02*
Y134600D01*
Y133000D02*
Y133300D01*
Y130600D02*
Y131800D01*
Y129400D02*
Y129700D01*
Y128700D02*
Y129000D01*
Y127800D02*
Y128200D01*
Y127000D02*
Y127300D01*
Y117600D02*
Y126600D01*
Y113200D02*
Y116900D01*
Y112000D02*
Y113000D01*
Y110700D02*
Y111400D01*
Y104700D02*
Y106300D01*
Y103300D02*
Y104500D01*
Y102500D02*
Y103100D01*
X19500Y139700D02*
Y140100D01*
Y139000D02*
Y139400D01*
Y136000D02*
Y136300D01*
Y134300D02*
Y134600D01*
Y133000D02*
Y133300D01*
Y130700D02*
Y131600D01*
Y129400D02*
Y129700D01*
Y128700D02*
Y129000D01*
Y127800D02*
Y128300D01*
Y127000D02*
Y127300D01*
Y125600D02*
Y126500D01*
Y124700D02*
Y125300D01*
Y123900D02*
Y124600D01*
Y123600D02*
Y123800D01*
Y121700D02*
Y122900D01*
Y120200D02*
Y121600D01*
Y119200D02*
Y119800D01*
Y117700D02*
Y118500D01*
Y115900D02*
Y116800D01*
Y114500D02*
Y115600D01*
Y113200D02*
Y114100D01*
Y112000D02*
Y113000D01*
Y106000D02*
Y106300D01*
Y105600D02*
Y105900D01*
Y105100D02*
Y105400D01*
Y104700D02*
Y105000D01*
Y103300D02*
Y104500D01*
Y102300D02*
Y103200D01*
X19600Y139700D02*
Y140100D01*
Y139000D02*
Y139400D01*
Y136000D02*
Y136400D01*
Y134100D02*
Y134600D01*
Y133000D02*
Y133300D01*
Y130800D02*
Y131800D01*
Y128600D02*
Y130200D01*
Y127900D02*
Y128200D01*
Y127000D02*
Y127300D01*
Y123900D02*
Y126400D01*
Y122600D02*
Y123800D01*
Y120400D02*
Y122500D01*
Y119700D02*
Y120300D01*
Y119300D02*
Y119600D01*
Y117800D02*
Y119200D01*
Y115800D02*
Y116800D01*
Y114600D02*
Y115400D01*
Y113300D02*
Y114200D01*
Y112600D02*
Y112900D01*
Y112000D02*
Y112400D01*
Y106000D02*
Y106300D01*
Y105600D02*
Y105900D01*
Y105100D02*
Y105400D01*
Y104700D02*
Y105000D01*
Y103300D02*
Y104500D01*
Y102100D02*
Y103200D01*
X19700Y139000D02*
Y140100D01*
Y136000D02*
Y136400D01*
Y134100D02*
Y134600D01*
Y133000D02*
Y133300D01*
Y131300D02*
Y132000D01*
Y128600D02*
Y130200D01*
Y127000D02*
Y128500D01*
Y125900D02*
Y126400D01*
Y125100D02*
Y125800D01*
Y124600D02*
Y125000D01*
Y123900D02*
Y124500D01*
Y121800D02*
Y123800D01*
Y119700D02*
Y121700D01*
Y117900D02*
Y119600D01*
Y115700D02*
Y116700D01*
Y114800D02*
Y115200D01*
Y113700D02*
Y114300D01*
Y104700D02*
Y106300D01*
Y103500D02*
Y104600D01*
Y101900D02*
Y103300D01*
X19800Y139000D02*
Y140100D01*
Y138100D02*
Y138500D01*
Y137800D02*
Y138000D01*
Y136000D02*
Y136400D01*
Y134100D02*
Y134600D01*
Y133000D02*
Y133800D01*
Y131500D02*
Y132200D01*
Y127000D02*
Y130200D01*
Y124600D02*
Y126400D01*
Y123900D02*
Y124500D01*
Y122500D02*
Y123800D01*
Y121900D02*
Y122400D01*
Y121500D02*
Y121800D01*
Y120500D02*
Y120900D01*
Y117900D02*
Y120400D01*
Y115600D02*
Y116700D01*
Y114800D02*
Y115200D01*
Y113600D02*
Y114400D01*
Y104700D02*
Y106300D01*
Y103500D02*
Y104600D01*
Y101800D02*
Y103300D01*
X19900Y139000D02*
Y140100D01*
Y137800D02*
Y138500D01*
Y136000D02*
Y136300D01*
Y134300D02*
Y134600D01*
Y132600D02*
Y133800D01*
Y131700D02*
Y132300D01*
Y129000D02*
Y130100D01*
Y127000D02*
Y128900D01*
Y125000D02*
Y126400D01*
Y124700D02*
Y124900D01*
Y123900D02*
Y124600D01*
Y123600D02*
Y123800D01*
Y122400D02*
Y123200D01*
Y120500D02*
Y122300D01*
Y119200D02*
Y120400D01*
Y117900D02*
Y118600D01*
Y115300D02*
Y116600D01*
Y114800D02*
Y115200D01*
Y113500D02*
Y114700D01*
Y105800D02*
Y106300D01*
Y104700D02*
Y105700D01*
Y103500D02*
Y104600D01*
Y101600D02*
Y103300D01*
X20000Y138900D02*
Y140100D01*
Y137800D02*
Y138700D01*
Y136000D02*
Y136300D01*
Y134300D02*
Y134600D01*
Y132600D02*
Y133800D01*
Y131900D02*
Y132500D01*
Y129100D02*
Y130100D01*
Y127100D02*
Y128600D01*
Y123900D02*
Y126400D01*
Y122000D02*
Y123800D01*
Y121600D02*
Y121900D01*
Y120500D02*
Y121500D01*
Y117900D02*
Y120400D01*
Y113600D02*
Y116500D01*
Y104800D02*
Y106200D01*
Y103600D02*
Y104600D01*
Y101500D02*
Y103200D01*
X20100Y136000D02*
Y139200D01*
Y134100D02*
Y134600D01*
Y133400D02*
Y133800D01*
Y133000D02*
Y133300D01*
Y132100D02*
Y132700D01*
Y129000D02*
Y130200D01*
Y128200D02*
Y128600D01*
Y127400D02*
Y127800D01*
Y125900D02*
Y126400D01*
Y125100D02*
Y125800D01*
Y123900D02*
Y125000D01*
Y122300D02*
Y123800D01*
Y121600D02*
Y122200D01*
Y120500D02*
Y121500D01*
Y118500D02*
Y120400D01*
Y117900D02*
Y118400D01*
Y114100D02*
Y116400D01*
Y113600D02*
Y114000D01*
Y104900D02*
Y108800D01*
Y103600D02*
Y104700D01*
Y101500D02*
Y103300D01*
X20200Y141400D02*
Y141900D01*
Y136000D02*
Y139400D01*
Y134100D02*
Y134600D01*
Y133400D02*
Y133800D01*
Y133000D02*
Y133300D01*
Y132200D02*
Y132900D01*
Y129000D02*
Y130200D01*
Y128200D02*
Y128600D01*
Y127400D02*
Y127800D01*
Y123900D02*
Y126400D01*
Y122200D02*
Y123800D01*
Y121500D02*
Y122000D01*
Y120500D02*
Y121400D01*
Y117900D02*
Y120400D01*
Y114100D02*
Y116300D01*
Y113700D02*
Y113900D01*
Y103600D02*
Y112800D01*
Y101600D02*
Y103300D01*
X20300Y141300D02*
Y142100D01*
Y138900D02*
Y139500D01*
Y136000D02*
Y138500D01*
Y134100D02*
Y134600D01*
Y133400D02*
Y133800D01*
Y132400D02*
Y133300D01*
Y129000D02*
Y130200D01*
Y128200D02*
Y128600D01*
Y127400D02*
Y127800D01*
Y125600D02*
Y126500D01*
Y124500D02*
Y125200D01*
Y123600D02*
Y123800D01*
Y121400D02*
Y122900D01*
Y120500D02*
Y120700D01*
Y119300D02*
Y120400D01*
Y117800D02*
Y118600D01*
Y103700D02*
Y116200D01*
Y101600D02*
Y103400D01*
Y101200D02*
Y101500D01*
X20400Y141200D02*
Y142100D01*
Y139100D02*
Y139600D01*
Y137800D02*
Y138500D01*
Y136000D02*
Y136300D01*
Y134300D02*
Y134600D01*
Y133400D02*
Y133800D01*
Y132600D02*
Y133300D01*
Y129400D02*
Y129700D01*
Y128200D02*
Y128600D01*
Y127400D02*
Y127800D01*
Y117700D02*
Y126600D01*
Y106200D02*
Y116000D01*
Y103700D02*
Y105200D01*
Y102700D02*
Y103400D01*
Y101200D02*
Y102500D01*
X20500Y141200D02*
Y142200D01*
Y139200D02*
Y139700D01*
Y138100D02*
Y138500D01*
Y137800D02*
Y138000D01*
Y136000D02*
Y136400D01*
Y134100D02*
Y134600D01*
Y133400D02*
Y133800D01*
Y132800D02*
Y133300D01*
Y129400D02*
Y129700D01*
Y128200D02*
Y128600D01*
Y127400D02*
Y127800D01*
Y117600D02*
Y126700D01*
Y110200D02*
Y115800D01*
Y103700D02*
Y105200D01*
Y102700D02*
Y103500D01*
Y101000D02*
Y102500D01*
X20600Y141700D02*
Y142200D01*
Y141000D02*
Y141600D01*
Y139300D02*
Y139700D01*
Y137800D02*
Y137900D01*
Y136000D02*
Y136400D01*
Y134100D02*
Y134600D01*
Y133400D02*
Y133800D01*
Y133000D02*
Y133300D01*
Y129400D02*
Y129700D01*
Y126200D02*
Y126800D01*
Y117600D02*
Y126100D01*
Y114300D02*
Y115500D01*
Y108500D02*
Y108900D01*
Y103700D02*
Y105300D01*
Y102800D02*
Y103600D01*
Y101000D02*
Y102600D01*
X20700Y141800D02*
Y142200D01*
Y140700D02*
Y141600D01*
Y139400D02*
Y139800D01*
Y136000D02*
Y136400D01*
Y134100D02*
Y134600D01*
Y133400D02*
Y133800D01*
Y133100D02*
Y133300D01*
Y129400D02*
Y129700D01*
Y127300D02*
Y128800D01*
Y126300D02*
Y126900D01*
Y118200D02*
Y126000D01*
Y117400D02*
Y118000D01*
Y108400D02*
Y109000D01*
Y107500D02*
Y108300D01*
Y103700D02*
Y105300D01*
Y102900D02*
Y103600D01*
Y100700D02*
Y102600D01*
X20800Y141800D02*
Y142200D01*
Y140600D02*
Y141600D01*
Y139500D02*
Y139900D01*
Y136000D02*
Y136300D01*
Y134400D02*
Y134600D01*
Y133400D02*
Y133800D01*
Y129400D02*
Y129700D01*
Y127300D02*
Y128800D01*
Y126400D02*
Y127000D01*
Y118300D02*
Y126000D01*
Y117300D02*
Y117900D01*
Y107500D02*
Y109000D01*
Y103800D02*
Y105300D01*
Y102900D02*
Y103600D01*
Y100700D02*
Y102700D01*
X20900Y141100D02*
Y142200D01*
Y140600D02*
Y141000D01*
Y139600D02*
Y139900D01*
Y136000D02*
Y136300D01*
Y134400D02*
Y134600D01*
Y132900D02*
Y133800D01*
Y132200D02*
Y132500D01*
Y131600D02*
Y131900D01*
Y130900D02*
Y131200D01*
Y130200D02*
Y130500D01*
Y126500D02*
Y129900D01*
Y118200D02*
Y126100D01*
Y117200D02*
Y117800D01*
Y111500D02*
Y116700D01*
Y109800D02*
Y110300D01*
Y107500D02*
Y109000D01*
Y103800D02*
Y106800D01*
Y103000D02*
Y103700D01*
Y100500D02*
Y102700D01*
X21000Y141200D02*
Y142200D01*
Y140600D02*
Y140900D01*
Y139600D02*
Y139900D01*
Y136000D02*
Y137900D01*
Y134100D02*
Y134600D01*
Y132900D02*
Y133800D01*
Y132200D02*
Y132600D01*
Y131500D02*
Y131900D01*
Y130900D02*
Y131200D01*
Y130200D02*
Y130500D01*
Y126600D02*
Y129900D01*
Y118100D02*
Y126200D01*
Y117100D02*
Y117700D01*
Y111500D02*
Y116700D01*
Y109700D02*
Y110300D01*
Y107500D02*
Y109000D01*
Y103800D02*
Y106800D01*
Y103000D02*
Y103700D01*
Y100500D02*
Y102800D01*
X21100Y141200D02*
Y142100D01*
Y140600D02*
Y140900D01*
Y139600D02*
Y139900D01*
Y136000D02*
Y137900D01*
Y134100D02*
Y134600D01*
Y132900D02*
Y133800D01*
Y132200D02*
Y132600D01*
Y131500D02*
Y131900D01*
Y130800D02*
Y131200D01*
Y130200D02*
Y130500D01*
Y126700D02*
Y129900D01*
Y118100D02*
Y126300D01*
Y117100D02*
Y117600D01*
Y111500D02*
Y116700D01*
Y109600D02*
Y110300D01*
Y107500D02*
Y108900D01*
Y103800D02*
Y106900D01*
Y102900D02*
Y103700D01*
Y100200D02*
Y102800D01*
X21200Y141300D02*
Y142000D01*
Y140600D02*
Y140900D01*
Y139600D02*
Y139900D01*
Y136400D02*
Y137900D01*
Y136000D02*
Y136300D01*
Y135700D02*
Y135900D01*
Y134200D02*
Y134600D01*
Y132900D02*
Y133800D01*
Y132200D02*
Y132600D01*
Y131500D02*
Y131900D01*
Y130800D02*
Y131200D01*
Y130200D02*
Y130600D01*
Y126800D02*
Y129900D01*
Y125700D02*
Y126400D01*
Y118700D02*
Y125500D01*
Y118000D02*
Y118600D01*
Y117100D02*
Y117500D01*
Y111500D02*
Y116700D01*
Y109500D02*
Y110300D01*
Y103900D02*
Y108900D01*
Y100200D02*
Y103800D01*
X21300Y141500D02*
Y141900D01*
Y140600D02*
Y140900D01*
Y139600D02*
Y139900D01*
Y137700D02*
Y137900D01*
Y135600D02*
Y136300D01*
Y134400D02*
Y134600D01*
Y132800D02*
Y133200D01*
Y132200D02*
Y132600D01*
Y131500D02*
Y131900D01*
Y130800D02*
Y131300D01*
Y130100D02*
Y130600D01*
Y129500D02*
Y129900D01*
Y127300D02*
Y128800D01*
Y125800D02*
Y126500D01*
Y118800D02*
Y125500D01*
Y117900D02*
Y118400D01*
Y117200D02*
Y117400D01*
Y111500D02*
Y116700D01*
Y109400D02*
Y110300D01*
Y107900D02*
Y108900D01*
Y103900D02*
Y107700D01*
Y100000D02*
Y103800D01*
X21400Y141500D02*
Y141900D01*
Y140500D02*
Y141000D01*
Y139500D02*
Y140000D01*
Y137700D02*
Y137900D01*
Y135600D02*
Y136400D01*
Y134100D02*
Y134600D01*
Y132800D02*
Y133200D01*
Y132100D02*
Y132700D01*
Y131400D02*
Y132000D01*
Y130800D02*
Y131300D01*
Y130100D02*
Y130600D01*
Y129600D02*
Y130000D01*
Y127300D02*
Y128800D01*
Y126000D02*
Y126600D01*
Y118800D02*
Y125500D01*
Y117700D02*
Y118300D01*
Y113800D02*
Y117600D01*
Y111200D02*
Y112500D01*
Y110500D02*
Y111000D01*
Y109900D02*
Y110300D01*
Y109300D02*
Y109800D01*
Y108500D02*
Y108900D01*
Y100000D02*
Y107800D01*
X21500Y143600D02*
Y144200D01*
Y141400D02*
Y142000D01*
Y140400D02*
Y141000D01*
Y139500D02*
Y140000D01*
Y137700D02*
Y137900D01*
Y135600D02*
Y136400D01*
Y134100D02*
Y134600D01*
Y129600D02*
Y133200D01*
Y126100D02*
Y126700D01*
Y118700D02*
Y125600D01*
Y113800D02*
Y118300D01*
Y111200D02*
Y112500D01*
Y110500D02*
Y111000D01*
Y109200D02*
Y110300D01*
Y107900D02*
Y109000D01*
Y104000D02*
Y107800D01*
Y99700D02*
Y103900D01*
X21600Y143500D02*
Y144300D01*
Y141400D02*
Y142000D01*
Y140400D02*
Y141000D01*
Y139400D02*
Y140100D01*
Y137700D02*
Y137900D01*
Y134100D02*
Y136400D01*
Y129600D02*
Y133100D01*
Y126200D02*
Y126700D01*
Y118600D02*
Y125700D01*
Y113800D02*
Y118100D01*
Y111200D02*
Y112500D01*
Y110500D02*
Y110900D01*
Y109800D02*
Y110200D01*
Y109200D02*
Y109700D01*
Y105200D02*
Y109100D01*
Y104000D02*
Y104700D01*
Y99600D02*
Y103700D01*
X21700Y143400D02*
Y144400D01*
Y141400D02*
Y142300D01*
Y140400D02*
Y141300D01*
Y139800D02*
Y140300D01*
Y139400D02*
Y139700D01*
Y137700D02*
Y137900D01*
Y134400D02*
Y136300D01*
Y129700D02*
Y133100D01*
Y126300D02*
Y126600D01*
Y125200D02*
Y125800D01*
Y119200D02*
Y125000D01*
Y118500D02*
Y119100D01*
Y113200D02*
Y118100D01*
Y110300D02*
Y113100D01*
Y104000D02*
Y110200D01*
Y99500D02*
Y103600D01*
X21800Y143400D02*
Y144400D01*
Y141400D02*
Y142200D01*
Y140400D02*
Y141300D01*
Y139400D02*
Y140300D01*
Y137000D02*
Y138600D01*
Y134400D02*
Y136300D01*
Y132500D02*
Y132900D01*
Y131800D02*
Y132300D01*
Y131100D02*
Y131600D01*
Y130500D02*
Y130900D01*
Y129800D02*
Y130200D01*
Y126400D02*
Y126500D01*
Y125300D02*
Y125900D01*
Y119300D02*
Y124900D01*
Y118400D02*
Y119000D01*
Y117700D02*
Y117900D01*
Y110300D02*
Y117600D01*
Y103800D02*
Y110100D01*
Y99300D02*
Y103400D01*
X21900Y144000D02*
Y144500D01*
Y143400D02*
Y143800D01*
Y141400D02*
Y142200D01*
Y140500D02*
Y141200D01*
Y139500D02*
Y140200D01*
Y136900D02*
Y138700D01*
Y129900D02*
Y132900D01*
Y125400D02*
Y126000D01*
Y119300D02*
Y125000D01*
Y118300D02*
Y118800D01*
Y110300D02*
Y117500D01*
Y108800D02*
Y110100D01*
Y105200D02*
Y107800D01*
Y103700D02*
Y104700D01*
Y99200D02*
Y103200D01*
X22000Y144000D02*
Y144500D01*
Y143400D02*
Y143800D01*
Y141500D02*
Y142100D01*
Y140600D02*
Y141200D01*
Y139600D02*
Y140200D01*
Y136900D02*
Y138700D01*
Y129900D02*
Y132900D01*
Y125500D02*
Y126100D01*
Y119200D02*
Y125100D01*
Y118200D02*
Y118800D01*
Y110300D02*
Y117500D01*
Y108800D02*
Y110100D01*
Y103700D02*
Y107800D01*
Y99000D02*
Y103000D01*
X22100Y144000D02*
Y144400D01*
Y143400D02*
Y143800D01*
Y141500D02*
Y142100D01*
Y140500D02*
Y141400D01*
Y139600D02*
Y140400D01*
Y139100D02*
Y139400D01*
Y138400D02*
Y139000D01*
Y136900D02*
Y137200D01*
Y129900D02*
Y132900D01*
Y125600D02*
Y126200D01*
Y119100D02*
Y125200D01*
Y118100D02*
Y118700D01*
Y110300D02*
Y117500D01*
Y108800D02*
Y110000D01*
Y103700D02*
Y107700D01*
Y102600D02*
Y102800D01*
Y99000D02*
Y102400D01*
X22200Y143400D02*
Y144400D01*
Y141500D02*
Y142100D01*
Y140600D02*
Y141400D01*
Y139600D02*
Y140400D01*
Y139100D02*
Y139400D01*
Y138400D02*
Y139000D01*
Y136900D02*
Y137200D01*
Y125700D02*
Y126100D01*
Y124700D02*
Y125300D01*
Y119700D02*
Y124500D01*
Y119000D02*
Y119600D01*
Y118100D02*
Y118600D01*
Y110300D02*
Y117500D01*
Y108600D02*
Y109900D01*
Y103700D02*
Y106900D01*
Y98800D02*
Y102200D01*
X22300Y143400D02*
Y144400D01*
Y141500D02*
Y142000D01*
Y140600D02*
Y141400D01*
Y139600D02*
Y140400D01*
Y139100D02*
Y139400D01*
Y138400D02*
Y139000D01*
Y136900D02*
Y137200D01*
Y132200D02*
Y132600D01*
Y131700D02*
Y132100D01*
Y131100D02*
Y131500D01*
Y130500D02*
Y130900D01*
Y129900D02*
Y130300D01*
Y125800D02*
Y126000D01*
Y124800D02*
Y125400D01*
Y119800D02*
Y124400D01*
Y119000D02*
Y119600D01*
Y118200D02*
Y118500D01*
Y111200D02*
Y117500D01*
Y110600D02*
Y110900D01*
Y108500D02*
Y109900D01*
Y103200D02*
Y103700D01*
Y98700D02*
Y102000D01*
X22400Y143300D02*
Y144300D01*
Y141700D02*
Y142000D01*
Y140700D02*
Y141000D01*
Y139700D02*
Y140000D01*
Y136900D02*
Y138700D01*
Y129800D02*
Y132700D01*
Y124900D02*
Y125500D01*
Y119900D02*
Y124500D01*
Y118800D02*
Y119400D01*
Y113700D02*
Y117400D01*
Y111200D02*
Y112500D01*
Y110600D02*
Y110900D01*
Y108400D02*
Y109800D01*
Y103000D02*
Y103900D01*
Y98500D02*
Y101800D01*
X22500Y143200D02*
Y144200D01*
Y141600D02*
Y142000D01*
Y140600D02*
Y141000D01*
Y139700D02*
Y140000D01*
Y136900D02*
Y138700D01*
Y129800D02*
Y132800D01*
Y125000D02*
Y125600D01*
Y119700D02*
Y124500D01*
Y118700D02*
Y119400D01*
Y113800D02*
Y117400D01*
Y111200D02*
Y112500D01*
Y110600D02*
Y110900D01*
Y108300D02*
Y109900D01*
Y106100D02*
Y106600D01*
Y102800D02*
Y104000D01*
Y98500D02*
Y101600D01*
X22600Y143000D02*
Y143600D01*
Y141600D02*
Y141900D01*
Y140600D02*
Y140900D01*
Y139600D02*
Y140000D01*
Y136900D02*
Y138700D01*
Y133800D02*
Y134500D01*
Y129700D02*
Y132800D01*
Y127000D02*
Y128600D01*
Y125100D02*
Y125600D01*
Y122300D02*
Y124600D01*
Y119700D02*
Y122100D01*
Y118700D02*
Y119300D01*
Y113700D02*
Y117400D01*
Y111500D02*
Y112500D01*
Y110600D02*
Y110900D01*
Y108200D02*
Y110000D01*
Y106900D02*
Y107100D01*
Y106100D02*
Y106600D01*
Y105600D02*
Y105800D01*
Y102600D02*
Y104000D01*
Y98300D02*
Y101400D01*
X22700Y142800D02*
Y143400D01*
Y141600D02*
Y141900D01*
Y140600D02*
Y140900D01*
Y139600D02*
Y139900D01*
Y137700D02*
Y137900D01*
Y133600D02*
Y134700D01*
Y132500D02*
Y132900D01*
Y131900D02*
Y132400D01*
Y131300D02*
Y131800D01*
Y130800D02*
Y131200D01*
Y130200D02*
Y130700D01*
Y129700D02*
Y130100D01*
Y127000D02*
Y128600D01*
Y125200D02*
Y125600D01*
Y124100D02*
Y124700D01*
Y122400D02*
Y124000D01*
Y119600D02*
Y122000D01*
Y118700D02*
Y119100D01*
Y113700D02*
Y117400D01*
Y111500D02*
Y112500D01*
Y110600D02*
Y110900D01*
Y109100D02*
Y109700D01*
Y108100D02*
Y109000D01*
Y106900D02*
Y107300D01*
Y106100D02*
Y106600D01*
Y105500D02*
Y105900D01*
Y102300D02*
Y104100D01*
Y98200D02*
Y101200D01*
X22800Y142600D02*
Y143300D01*
Y141600D02*
Y141800D01*
Y140600D02*
Y140900D01*
Y139600D02*
Y139900D01*
Y137700D02*
Y137900D01*
Y133500D02*
Y134800D01*
Y132500D02*
Y133200D01*
Y131900D02*
Y132300D01*
Y131400D02*
Y131800D01*
Y130800D02*
Y131200D01*
Y130200D02*
Y130600D01*
Y129400D02*
Y130100D01*
Y127000D02*
Y128600D01*
Y125300D02*
Y125500D01*
Y124200D02*
Y124800D01*
Y122400D02*
Y123900D01*
Y120300D02*
Y121900D01*
Y119500D02*
Y120100D01*
Y118700D02*
Y119100D01*
Y113700D02*
Y117300D01*
Y111500D02*
Y112500D01*
Y110600D02*
Y110900D01*
Y109100D02*
Y109700D01*
Y108100D02*
Y108900D01*
Y105400D02*
Y107400D01*
Y103600D02*
Y104100D01*
Y102200D02*
Y103300D01*
Y98200D02*
Y101100D01*
X22900Y146200D02*
Y146600D01*
Y142400D02*
Y143100D01*
Y141600D02*
Y141800D01*
Y140600D02*
Y140900D01*
Y139600D02*
Y139900D01*
Y137700D02*
Y137900D01*
Y134400D02*
Y134900D01*
Y133400D02*
Y133900D01*
Y132500D02*
Y133300D01*
Y131900D02*
Y132300D01*
Y131400D02*
Y131800D01*
Y130800D02*
Y131200D01*
Y130300D02*
Y130600D01*
Y124300D02*
Y130000D01*
Y122400D02*
Y123900D01*
Y120400D02*
Y122000D01*
Y119400D02*
Y120000D01*
Y118800D02*
Y118900D01*
Y113600D02*
Y117300D01*
Y111500D02*
Y112600D01*
Y110600D02*
Y110900D01*
Y109100D02*
Y109700D01*
Y108000D02*
Y108800D01*
Y105400D02*
Y107400D01*
Y103600D02*
Y104100D01*
Y102100D02*
Y103100D01*
Y98300D02*
Y100900D01*
X23000Y146000D02*
Y146700D01*
Y142200D02*
Y143000D01*
Y141600D02*
Y141800D01*
Y140600D02*
Y140900D01*
Y139600D02*
Y139900D01*
Y137700D02*
Y137900D01*
Y134600D02*
Y134900D01*
Y132500D02*
Y133800D01*
Y132000D02*
Y132300D01*
Y131400D02*
Y131800D01*
Y130800D02*
Y131200D01*
Y130300D02*
Y130600D01*
Y124500D02*
Y130100D01*
Y122300D02*
Y124000D01*
Y120300D02*
Y122000D01*
Y119300D02*
Y119900D01*
Y113500D02*
Y114600D01*
Y111500D02*
Y112700D01*
Y110600D02*
Y110900D01*
Y109000D02*
Y109700D01*
Y107900D02*
Y108700D01*
Y105400D02*
Y107300D01*
Y103700D02*
Y104200D01*
Y102100D02*
Y102900D01*
Y98300D02*
Y100700D01*
X23100Y145900D02*
Y146800D01*
Y141900D02*
Y142800D01*
Y141600D02*
Y141800D01*
Y140600D02*
Y140900D01*
Y139600D02*
Y139900D01*
Y137700D02*
Y137900D01*
Y134600D02*
Y135000D01*
Y132600D02*
Y133700D01*
Y132000D02*
Y132300D01*
Y131400D02*
Y131700D01*
Y130800D02*
Y131200D01*
Y130300D02*
Y130600D01*
Y124600D02*
Y130000D01*
Y120200D02*
Y124100D01*
Y119200D02*
Y119800D01*
Y113500D02*
Y114500D01*
Y111600D02*
Y112800D01*
Y110600D02*
Y110900D01*
Y109000D02*
Y109600D01*
Y107900D02*
Y108600D01*
Y107500D02*
Y107700D01*
Y105500D02*
Y107300D01*
Y105000D02*
Y105200D01*
Y103700D02*
Y104200D01*
Y102100D02*
Y102600D01*
Y101400D02*
Y101800D01*
Y98400D02*
Y100500D01*
Y98000D02*
Y98100D01*
X23200Y145800D02*
Y146900D01*
Y141600D02*
Y142500D01*
Y140600D02*
Y140900D01*
Y139600D02*
Y139900D01*
Y137700D02*
Y137900D01*
Y134700D02*
Y135000D01*
Y134200D02*
Y134500D01*
Y133700D02*
Y134000D01*
Y133300D02*
Y133600D01*
Y127000D02*
Y128600D01*
Y123600D02*
Y124100D01*
Y120200D02*
Y123500D01*
Y119200D02*
Y119700D01*
Y113300D02*
Y114500D01*
Y111600D02*
Y113000D01*
Y110600D02*
Y110900D01*
Y109000D02*
Y109600D01*
Y107900D02*
Y108500D01*
Y105000D02*
Y107800D01*
Y103700D02*
Y104200D01*
Y102100D02*
Y102800D01*
Y101200D02*
Y102000D01*
Y98500D02*
Y100300D01*
Y97800D02*
Y98200D01*
X23300Y145800D02*
Y146900D01*
Y141400D02*
Y142300D01*
Y140600D02*
Y140900D01*
Y139600D02*
Y139900D01*
Y137700D02*
Y138400D01*
Y134700D02*
Y135000D01*
Y134100D02*
Y134600D01*
Y133700D02*
Y134000D01*
Y133300D02*
Y133600D01*
Y127000D02*
Y128600D01*
Y123700D02*
Y124100D01*
Y120800D02*
Y123500D01*
Y120200D02*
Y120600D01*
Y119200D02*
Y119600D01*
Y113300D02*
Y114400D01*
Y111600D02*
Y113000D01*
Y110600D02*
Y110900D01*
Y108900D02*
Y109600D01*
Y107900D02*
Y108400D01*
Y106400D02*
Y107800D01*
Y104900D02*
Y106100D01*
Y103500D02*
Y104200D01*
Y100900D02*
Y102900D01*
Y97800D02*
Y100100D01*
X23400Y146500D02*
Y146900D01*
Y145800D02*
Y146200D01*
Y140600D02*
Y142000D01*
Y139600D02*
Y139900D01*
Y137600D02*
Y138900D01*
Y134700D02*
Y135000D01*
Y133700D02*
Y134600D01*
Y133300D02*
Y133600D01*
Y127000D02*
Y128500D01*
Y123800D02*
Y124000D01*
Y120900D02*
Y123400D01*
Y120300D02*
Y120500D01*
Y119400D02*
Y119500D01*
Y113300D02*
Y114400D01*
Y111600D02*
Y113000D01*
Y110600D02*
Y110900D01*
Y108900D02*
Y109500D01*
Y106300D02*
Y108300D01*
Y104800D02*
Y105900D01*
Y103300D02*
Y104100D01*
Y100700D02*
Y102900D01*
Y97800D02*
Y99900D01*
X23500Y146500D02*
Y146900D01*
Y145800D02*
Y146200D01*
Y137500D02*
Y141800D01*
Y134700D02*
Y135000D01*
Y133700D02*
Y134600D01*
Y133300D02*
Y133600D01*
Y120900D02*
Y123500D01*
Y113300D02*
Y114300D01*
Y111700D02*
Y113000D01*
Y110600D02*
Y110900D01*
Y108900D02*
Y109500D01*
Y107000D02*
Y107900D01*
Y106300D02*
Y106900D01*
Y104800D02*
Y105800D01*
Y103000D02*
Y104100D01*
Y100400D02*
Y102800D01*
Y97600D02*
Y99700D01*
X23600Y145700D02*
Y146900D01*
Y138300D02*
Y141400D01*
Y137500D02*
Y137800D01*
Y134700D02*
Y135000D01*
Y134400D02*
Y134600D01*
Y133700D02*
Y134200D01*
Y133300D02*
Y133600D01*
Y120800D02*
Y123600D01*
Y113300D02*
Y114200D01*
Y111800D02*
Y113000D01*
Y110600D02*
Y110900D01*
Y108800D02*
Y109400D01*
Y107000D02*
Y107800D01*
Y106300D02*
Y106900D01*
Y105000D02*
Y105700D01*
Y101600D02*
Y104000D01*
Y100300D02*
Y101400D01*
Y97600D02*
Y99600D01*
X23700Y145500D02*
Y146900D01*
Y144800D02*
Y145100D01*
Y140700D02*
Y141000D01*
Y139000D02*
Y140100D01*
Y137400D02*
Y137800D01*
Y134700D02*
Y135100D01*
Y134400D02*
Y134600D01*
Y133800D02*
Y134100D01*
Y133300D02*
Y133600D01*
Y120700D02*
Y123600D01*
Y113300D02*
Y114100D01*
Y111900D02*
Y113000D01*
Y110600D02*
Y110900D01*
Y108800D02*
Y109400D01*
Y107100D02*
Y107700D01*
Y106300D02*
Y106900D01*
Y105100D02*
Y105700D01*
Y104000D02*
Y104400D01*
Y101500D02*
Y103700D01*
Y100300D02*
Y101200D01*
Y97500D02*
Y99300D01*
X23800Y145400D02*
Y146800D01*
Y144700D02*
Y145200D01*
Y140700D02*
Y141000D01*
Y139100D02*
Y139500D01*
Y137300D02*
Y137700D01*
Y135500D02*
Y135700D01*
Y134600D02*
Y135300D01*
Y133300D02*
Y133700D01*
Y123100D02*
Y123600D01*
Y121300D02*
Y123000D01*
Y120700D02*
Y121200D01*
Y113300D02*
Y114000D01*
Y112100D02*
Y113000D01*
Y110600D02*
Y110900D01*
Y108800D02*
Y109300D01*
Y107200D02*
Y107700D01*
Y106300D02*
Y106900D01*
Y106000D02*
Y106200D01*
Y105100D02*
Y105600D01*
Y103700D02*
Y104400D01*
Y101500D02*
Y103500D01*
Y100200D02*
Y101000D01*
Y97500D02*
Y99200D01*
X23900Y146000D02*
Y146700D01*
Y144800D02*
Y145900D01*
Y144500D02*
Y144700D01*
Y141200D02*
Y143400D01*
Y140700D02*
Y141000D01*
Y139100D02*
Y139500D01*
Y137300D02*
Y137600D01*
Y134600D02*
Y135900D01*
Y133400D02*
Y133800D01*
Y123200D02*
Y123500D01*
Y121400D02*
Y122800D01*
Y120800D02*
Y121100D01*
Y113300D02*
Y113700D01*
Y112500D02*
Y113000D01*
Y110600D02*
Y110900D01*
Y108800D02*
Y109300D01*
Y107200D02*
Y108000D01*
Y105800D02*
Y106900D01*
Y104700D02*
Y105600D01*
Y103400D02*
Y104300D01*
Y102400D02*
Y103300D01*
Y101500D02*
Y102300D01*
Y100200D02*
Y100700D01*
Y99600D02*
Y99900D01*
Y97400D02*
Y98800D01*
X24000Y146200D02*
Y146500D01*
Y144400D02*
Y145800D01*
Y141200D02*
Y143400D01*
Y140700D02*
Y141000D01*
Y139800D02*
Y140000D01*
Y139100D02*
Y139500D01*
Y137200D02*
Y137600D01*
Y135000D02*
Y136100D01*
Y134400D02*
Y134900D01*
Y133400D02*
Y133900D01*
Y121400D02*
Y122900D01*
Y110600D02*
Y110900D01*
Y108900D02*
Y109100D01*
Y107200D02*
Y108000D01*
Y105600D02*
Y106800D01*
Y104700D02*
Y105500D01*
Y103400D02*
Y104300D01*
Y102500D02*
Y103100D01*
Y101800D02*
Y102300D01*
Y100200D02*
Y100900D01*
Y99300D02*
Y100100D01*
Y97200D02*
Y98700D01*
X24100Y144900D02*
Y145600D01*
Y144400D02*
Y144800D01*
Y140700D02*
Y143600D01*
Y139800D02*
Y140100D01*
Y139100D02*
Y139500D01*
Y137200D02*
Y137500D01*
Y135100D02*
Y136300D01*
Y133500D02*
Y134800D01*
Y121300D02*
Y123000D01*
Y110600D02*
Y110900D01*
Y107200D02*
Y108000D01*
Y105600D02*
Y106800D01*
Y104700D02*
Y105500D01*
Y103400D02*
Y104200D01*
Y101600D02*
Y102300D01*
Y99100D02*
Y101000D01*
Y97200D02*
Y98500D01*
X24200Y144400D02*
Y145500D01*
Y140700D02*
Y143600D01*
Y139700D02*
Y140100D01*
Y139100D02*
Y139500D01*
Y137100D02*
Y137500D01*
Y135800D02*
Y136400D01*
Y135300D02*
Y135600D01*
Y133600D02*
Y134700D01*
Y122500D02*
Y123100D01*
Y121200D02*
Y121800D01*
Y110600D02*
Y110900D01*
Y107200D02*
Y108000D01*
Y105600D02*
Y106700D01*
Y104700D02*
Y105500D01*
Y103600D02*
Y104200D01*
Y101400D02*
Y102300D01*
Y98800D02*
Y101000D01*
Y97100D02*
Y98500D01*
X24300Y145000D02*
Y145400D01*
Y144500D02*
Y144900D01*
Y140700D02*
Y143600D01*
Y139800D02*
Y140000D01*
Y139100D02*
Y139500D01*
Y137000D02*
Y137400D01*
Y136000D02*
Y136600D01*
Y135300D02*
Y135700D01*
Y133800D02*
Y134500D01*
Y122600D02*
Y123200D01*
Y121100D02*
Y121700D01*
Y110600D02*
Y110900D01*
Y107200D02*
Y108000D01*
Y104700D02*
Y107000D01*
Y103700D02*
Y104400D01*
Y102600D02*
Y102900D01*
Y101200D02*
Y102200D01*
Y98600D02*
Y101000D01*
Y97200D02*
Y98500D01*
X24400Y144500D02*
Y145500D01*
Y141200D02*
Y143400D01*
Y139800D02*
Y140000D01*
Y138700D02*
Y139700D01*
Y137000D02*
Y137300D01*
Y136200D02*
Y136700D01*
Y135300D02*
Y135900D01*
Y122700D02*
Y123300D01*
Y121000D02*
Y121600D01*
Y110600D02*
Y110900D01*
Y106200D02*
Y107700D01*
Y105100D02*
Y106100D01*
Y103700D02*
Y104400D01*
Y102500D02*
Y103100D01*
Y99700D02*
Y102100D01*
Y97300D02*
Y99600D01*
X24500Y145100D02*
Y145500D01*
Y144300D02*
Y145000D01*
Y141200D02*
Y143400D01*
Y138700D02*
Y139900D01*
Y136900D02*
Y137300D01*
Y136400D02*
Y136700D01*
Y135400D02*
Y136100D01*
Y122900D02*
Y123400D01*
Y120900D02*
Y121500D01*
Y110600D02*
Y110900D01*
Y106200D02*
Y107700D01*
Y105100D02*
Y106000D01*
Y103700D02*
Y104400D01*
Y102400D02*
Y103100D01*
Y99600D02*
Y101900D01*
Y97300D02*
Y99300D01*
X24600Y145200D02*
Y145600D01*
Y144100D02*
Y145100D01*
Y141200D02*
Y143400D01*
Y138700D02*
Y139900D01*
Y136800D02*
Y137200D01*
Y136300D02*
Y136700D01*
Y135600D02*
Y136200D01*
Y122900D02*
Y123500D01*
Y120800D02*
Y121400D01*
Y110600D02*
Y110900D01*
Y106300D02*
Y107800D01*
Y105800D02*
Y105900D01*
Y104900D02*
Y105700D01*
Y103700D02*
Y104500D01*
Y102900D02*
Y103100D01*
Y102400D02*
Y102700D01*
Y101900D02*
Y102300D01*
Y99600D02*
Y101700D01*
Y97300D02*
Y99100D01*
X24700Y145200D02*
Y145500D01*
Y143700D02*
Y145100D01*
Y140600D02*
Y143600D01*
Y138700D02*
Y139900D01*
Y135800D02*
Y137200D01*
Y123000D02*
Y123600D01*
Y120800D02*
Y121300D01*
Y110600D02*
Y110900D01*
Y106400D02*
Y107900D01*
Y104800D02*
Y105800D01*
Y103800D02*
Y104500D01*
Y102500D02*
Y103100D01*
Y101900D02*
Y102300D01*
Y99700D02*
Y101700D01*
Y98300D02*
Y98900D01*
Y97300D02*
Y98200D01*
X24800Y144800D02*
Y145200D01*
Y143700D02*
Y144500D01*
Y140600D02*
Y143600D01*
Y136000D02*
Y137200D01*
Y123100D02*
Y123600D01*
Y120800D02*
Y121200D01*
Y110600D02*
Y110900D01*
Y106600D02*
Y107900D01*
Y104900D02*
Y106000D01*
Y103800D02*
Y104600D01*
Y102500D02*
Y103600D01*
Y101300D02*
Y102300D01*
Y100600D02*
Y101200D01*
Y99900D02*
Y100500D01*
Y98300D02*
Y98800D01*
Y97700D02*
Y98200D01*
Y97400D02*
Y97600D01*
X24900Y144800D02*
Y145200D01*
Y143700D02*
Y144400D01*
Y140600D02*
Y143600D01*
Y138700D02*
Y139800D01*
Y136600D02*
Y137400D01*
Y136100D02*
Y136500D01*
Y123200D02*
Y123500D01*
Y120900D02*
Y121100D01*
Y110600D02*
Y110900D01*
Y106400D02*
Y107800D01*
Y104900D02*
Y106300D01*
Y101300D02*
Y104600D01*
Y99800D02*
Y100400D01*
Y98300D02*
Y98800D01*
Y97800D02*
Y98100D01*
X25000Y144900D02*
Y145100D01*
Y144000D02*
Y144500D01*
Y141200D02*
Y143400D01*
Y140600D02*
Y140800D01*
Y138600D02*
Y139800D01*
Y136800D02*
Y137500D01*
Y110600D02*
Y110900D01*
Y105400D02*
Y107800D01*
Y105000D02*
Y105300D01*
Y104000D02*
Y104500D01*
Y102900D02*
Y103900D01*
Y101400D02*
Y102800D01*
Y99600D02*
Y100400D01*
Y98400D02*
Y98900D01*
X25100Y144000D02*
Y144500D01*
Y141200D02*
Y143400D01*
Y140600D02*
Y140800D01*
Y138600D02*
Y139800D01*
Y136900D02*
Y137500D01*
Y110600D02*
Y110900D01*
Y107600D02*
Y107700D01*
Y105500D02*
Y107300D01*
Y105000D02*
Y105200D01*
Y104000D02*
Y104500D01*
Y103400D02*
Y103900D01*
Y101100D02*
Y103300D01*
Y99300D02*
Y100300D01*
Y98400D02*
Y98900D01*
X25200Y144100D02*
Y144600D01*
Y140600D02*
Y143600D01*
Y139000D02*
Y139800D01*
Y137800D02*
Y138100D01*
Y137000D02*
Y137400D01*
Y120900D02*
Y123500D01*
Y110500D02*
Y110900D01*
Y105400D02*
Y107300D01*
Y104000D02*
Y104400D01*
Y103500D02*
Y103800D01*
Y102200D02*
Y103200D01*
Y101100D02*
Y101700D01*
Y99100D02*
Y100200D01*
Y98400D02*
Y99000D01*
Y97000D02*
Y97200D01*
X25300Y148100D02*
Y148500D01*
Y144200D02*
Y144600D01*
Y140600D02*
Y143600D01*
Y139000D02*
Y139400D01*
Y137700D02*
Y138100D01*
Y137000D02*
Y137400D01*
Y124400D02*
Y125100D01*
Y120900D02*
Y123500D01*
Y119100D02*
Y119700D01*
Y110500D02*
Y111000D01*
Y105400D02*
Y107400D01*
Y103500D02*
Y103900D01*
Y102800D02*
Y103200D01*
Y102300D02*
Y102700D01*
Y101000D02*
Y101600D01*
Y98500D02*
Y100000D01*
Y97000D02*
Y97400D01*
X25400Y147900D02*
Y148600D01*
Y144200D02*
Y144700D01*
Y140600D02*
Y143600D01*
Y139000D02*
Y139400D01*
Y137700D02*
Y138100D01*
Y137000D02*
Y137400D01*
Y124300D02*
Y125200D01*
Y120900D02*
Y123500D01*
Y119000D02*
Y119900D01*
Y110500D02*
Y111000D01*
Y106800D02*
Y107400D01*
Y106100D02*
Y106700D01*
Y105400D02*
Y105900D01*
Y103400D02*
Y103900D01*
Y102300D02*
Y103200D01*
Y101000D02*
Y101600D01*
Y100000D02*
Y100100D01*
Y98500D02*
Y99800D01*
Y96900D02*
Y97500D01*
X25500Y147800D02*
Y148700D01*
Y144300D02*
Y144700D01*
Y142900D02*
Y143400D01*
Y141200D02*
Y142800D01*
Y139000D02*
Y139400D01*
Y138400D02*
Y138700D01*
Y137600D02*
Y138100D01*
Y137000D02*
Y137400D01*
Y124300D02*
Y125200D01*
Y122000D02*
Y122300D01*
Y119000D02*
Y119900D01*
Y106900D02*
Y107200D01*
Y106100D02*
Y106600D01*
Y105500D02*
Y105900D01*
Y102300D02*
Y103900D01*
Y101100D02*
Y101600D01*
Y98600D02*
Y100100D01*
Y96800D02*
Y97700D01*
X25600Y147800D02*
Y148800D01*
Y144400D02*
Y144800D01*
Y142900D02*
Y143400D01*
Y141200D02*
Y142700D01*
Y139000D02*
Y139400D01*
Y138300D02*
Y138700D01*
Y137000D02*
Y138000D01*
Y126100D02*
Y126400D01*
Y124300D02*
Y125200D01*
Y122000D02*
Y122300D01*
Y118900D02*
Y119900D01*
Y117700D02*
Y118000D01*
Y107000D02*
Y107100D01*
Y106100D02*
Y106600D01*
Y105700D02*
Y105800D01*
Y102300D02*
Y103700D01*
Y101200D02*
Y101600D01*
Y98700D02*
Y100200D01*
Y97300D02*
Y97700D01*
Y96800D02*
Y97100D01*
X25700Y147700D02*
Y148800D01*
Y144400D02*
Y144800D01*
Y142900D02*
Y143600D01*
Y140600D02*
Y142700D01*
Y139000D02*
Y139400D01*
Y138300D02*
Y138700D01*
Y137100D02*
Y138000D01*
Y126100D02*
Y126600D01*
Y124300D02*
Y125300D01*
Y121700D02*
Y122500D01*
Y118900D02*
Y119900D01*
Y117600D02*
Y118100D01*
Y106100D02*
Y106600D01*
Y103100D02*
Y103700D01*
Y102200D02*
Y102900D01*
Y101200D02*
Y101700D01*
Y99100D02*
Y100300D01*
Y97200D02*
Y97700D01*
Y96700D02*
Y97000D01*
X25800Y148400D02*
Y148800D01*
Y147700D02*
Y148200D01*
Y144400D02*
Y144800D01*
Y140600D02*
Y143600D01*
Y139000D02*
Y139400D01*
Y138200D02*
Y138700D01*
Y137100D02*
Y138000D01*
Y125900D02*
Y126800D01*
Y124200D02*
Y125300D01*
Y123300D02*
Y123500D01*
Y121700D02*
Y122600D01*
Y120700D02*
Y121000D01*
Y118900D02*
Y119900D01*
Y117400D02*
Y118200D01*
Y103100D02*
Y103400D01*
Y102100D02*
Y102800D01*
Y101100D02*
Y101800D01*
Y98900D02*
Y100300D01*
Y97100D02*
Y97700D01*
Y96600D02*
Y97000D01*
Y95700D02*
Y95900D01*
X25900Y148400D02*
Y148800D01*
Y147700D02*
Y148200D01*
Y144500D02*
Y144900D01*
Y140600D02*
Y143600D01*
Y138900D02*
Y139300D01*
Y137200D02*
Y138600D01*
Y125800D02*
Y126900D01*
Y124200D02*
Y125300D01*
Y123100D02*
Y123700D01*
Y121800D02*
Y122500D01*
Y120600D02*
Y121100D01*
Y118800D02*
Y120000D01*
Y117300D02*
Y118300D01*
Y101100D02*
Y102600D01*
Y98900D02*
Y100400D01*
Y97100D02*
Y97600D01*
Y96600D02*
Y96900D01*
Y95600D02*
Y96000D01*
X26000Y147700D02*
Y148800D01*
Y144500D02*
Y144900D01*
Y141200D02*
Y143400D01*
Y140600D02*
Y140800D01*
Y139600D02*
Y139900D01*
Y138900D02*
Y139300D01*
Y137700D02*
Y138600D01*
Y125700D02*
Y126900D01*
Y124200D02*
Y125400D01*
Y123000D02*
Y123700D01*
Y121900D02*
Y122400D01*
Y120500D02*
Y121200D01*
Y118700D02*
Y120000D01*
Y117300D02*
Y118400D01*
Y101200D02*
Y102600D01*
Y99000D02*
Y100400D01*
Y97000D02*
Y97500D01*
Y96500D02*
Y96800D01*
Y95600D02*
Y96200D01*
X26100Y147700D02*
Y148800D01*
Y144500D02*
Y144900D01*
Y141200D02*
Y143400D01*
Y140600D02*
Y140800D01*
Y139600D02*
Y140000D01*
Y138800D02*
Y139300D01*
Y137700D02*
Y138700D01*
Y124200D02*
Y126900D01*
Y123000D02*
Y123700D01*
Y121700D02*
Y122600D01*
Y120500D02*
Y121200D01*
Y117300D02*
Y120000D01*
Y101500D02*
Y102600D01*
Y101300D02*
Y101400D01*
Y99800D02*
Y100400D01*
Y98900D02*
Y99600D01*
Y97700D02*
Y98100D01*
Y96900D02*
Y97500D01*
Y96500D02*
Y96800D01*
Y95500D02*
Y96400D01*
X26200Y147600D02*
Y148700D01*
Y144600D02*
Y145000D01*
Y141200D02*
Y143400D01*
Y140600D02*
Y140800D01*
Y139600D02*
Y140000D01*
Y137900D02*
Y139300D01*
Y124200D02*
Y126800D01*
Y123200D02*
Y123500D01*
Y121700D02*
Y122600D01*
Y120700D02*
Y121000D01*
Y117300D02*
Y120000D01*
Y101600D02*
Y102500D01*
Y99800D02*
Y100400D01*
Y98900D02*
Y99600D01*
Y97600D02*
Y98200D01*
Y96900D02*
Y97400D01*
Y95800D02*
Y96700D01*
Y95500D02*
Y95700D01*
X26300Y147500D02*
Y148600D01*
Y144600D02*
Y145000D01*
Y140300D02*
Y140800D01*
Y139500D02*
Y139900D01*
Y138300D02*
Y139300D01*
Y124200D02*
Y126800D01*
Y123200D02*
Y123500D01*
Y122000D02*
Y122300D01*
Y120700D02*
Y121000D01*
Y117400D02*
Y120000D01*
Y102400D02*
Y102500D01*
Y101600D02*
Y102000D01*
Y101100D02*
Y101400D01*
Y99700D02*
Y100400D01*
Y99000D02*
Y99600D01*
Y97600D02*
Y98300D01*
Y96800D02*
Y97400D01*
Y95400D02*
Y96700D01*
X26400Y148000D02*
Y148500D01*
Y147300D02*
Y147900D01*
Y144600D02*
Y145000D01*
Y140200D02*
Y140900D01*
Y139400D02*
Y139900D01*
Y138400D02*
Y139300D01*
Y124200D02*
Y126800D01*
Y123200D02*
Y123500D01*
Y122000D02*
Y122300D01*
Y120700D02*
Y121000D01*
Y117400D02*
Y120000D01*
Y102100D02*
Y102500D01*
Y101000D02*
Y101500D01*
Y99000D02*
Y100400D01*
Y97500D02*
Y98400D01*
Y95500D02*
Y97300D01*
X26500Y147200D02*
Y147800D01*
Y144600D02*
Y145000D01*
Y140200D02*
Y140900D01*
Y138500D02*
Y139900D01*
Y124200D02*
Y126800D01*
Y123200D02*
Y123500D01*
Y122000D02*
Y122300D01*
Y120700D02*
Y121000D01*
Y117400D02*
Y119900D01*
Y101800D02*
Y102400D01*
Y101000D02*
Y101500D01*
Y99000D02*
Y100500D01*
Y97600D02*
Y98500D01*
Y95700D02*
Y97200D01*
X26600Y147100D02*
Y147700D01*
Y144700D02*
Y145000D01*
Y141300D02*
Y141500D01*
Y140100D02*
Y141100D01*
Y139000D02*
Y139900D01*
Y124300D02*
Y126700D01*
Y123200D02*
Y123500D01*
Y122000D02*
Y122300D01*
Y120700D02*
Y121000D01*
Y117400D02*
Y119900D01*
Y101600D02*
Y102100D01*
Y99100D02*
Y101400D01*
Y97800D02*
Y98800D01*
Y95800D02*
Y97200D01*
X26700Y147000D02*
Y147600D01*
Y144700D02*
Y145000D01*
Y140600D02*
Y141600D01*
Y139100D02*
Y140500D01*
Y124300D02*
Y126800D01*
Y122400D02*
Y123500D01*
Y122000D02*
Y122300D01*
Y120700D02*
Y121900D01*
Y117300D02*
Y119800D01*
Y99100D02*
Y101900D01*
Y97800D02*
Y98800D01*
Y96000D02*
Y97300D01*
X26800Y146800D02*
Y147500D01*
Y144700D02*
Y145000D01*
Y140700D02*
Y141800D01*
Y139600D02*
Y140400D01*
Y127400D02*
Y127800D01*
Y124300D02*
Y126900D01*
Y122400D02*
Y123500D01*
Y122000D02*
Y122300D01*
Y120700D02*
Y121900D01*
Y118800D02*
Y119900D01*
Y117300D02*
Y118700D01*
Y116400D02*
Y116700D01*
Y99300D02*
Y101600D01*
Y97900D02*
Y98800D01*
Y96000D02*
Y97500D01*
X26900Y146700D02*
Y147300D01*
Y144700D02*
Y145000D01*
Y140600D02*
Y141900D01*
Y139600D02*
Y140300D01*
Y124100D02*
Y127800D01*
Y122400D02*
Y123500D01*
Y122000D02*
Y122300D01*
Y120700D02*
Y121900D01*
Y116300D02*
Y120200D01*
Y99300D02*
Y101300D01*
Y98000D02*
Y98800D01*
Y96000D02*
Y97500D01*
X27000Y146600D02*
Y147200D01*
Y144700D02*
Y145000D01*
Y140600D02*
Y142000D01*
Y139700D02*
Y140200D01*
Y123900D02*
Y127900D01*
Y122400D02*
Y122700D01*
Y122000D02*
Y122300D01*
Y121500D02*
Y121900D01*
Y118400D02*
Y120300D01*
Y116300D02*
Y118300D01*
Y99800D02*
Y101300D01*
Y98200D02*
Y98800D01*
Y96500D02*
Y97600D01*
Y95900D02*
Y96200D01*
X27100Y146500D02*
Y147100D01*
Y144700D02*
Y145000D01*
Y142600D02*
Y143300D01*
Y140500D02*
Y142100D01*
Y125100D02*
Y127900D01*
Y123800D02*
Y124800D01*
Y122400D02*
Y122700D01*
Y122000D02*
Y122300D01*
Y121600D02*
Y121900D01*
Y118200D02*
Y120500D01*
Y116200D02*
Y118100D01*
Y99700D02*
Y101300D01*
Y98100D02*
Y98700D01*
Y97500D02*
Y97700D01*
Y96300D02*
Y97300D01*
Y95800D02*
Y96200D01*
X27200Y146400D02*
Y147000D01*
Y144700D02*
Y145000D01*
Y142600D02*
Y143400D01*
Y140900D02*
Y142200D01*
Y140400D02*
Y140800D01*
Y125500D02*
Y128000D01*
Y123700D02*
Y124500D01*
Y121200D02*
Y123000D01*
Y119800D02*
Y120600D01*
Y118100D02*
Y118900D01*
Y116200D02*
Y118000D01*
Y99500D02*
Y101400D01*
Y98100D02*
Y98600D01*
Y97500D02*
Y97800D01*
Y96200D02*
Y97300D01*
Y95800D02*
Y96100D01*
X27300Y146300D02*
Y146900D01*
Y144700D02*
Y145000D01*
Y142400D02*
Y143300D01*
Y140800D02*
Y142300D01*
Y140300D02*
Y140700D01*
Y125700D02*
Y128000D01*
Y123600D02*
Y124200D01*
Y121200D02*
Y123000D01*
Y120000D02*
Y120700D01*
Y118000D02*
Y118700D01*
Y116100D02*
Y117900D01*
Y100800D02*
Y101400D01*
Y99900D02*
Y100500D01*
Y99300D02*
Y99800D01*
Y97000D02*
Y97800D01*
Y96300D02*
Y96700D01*
Y95700D02*
Y96100D01*
X27400Y146200D02*
Y146700D01*
Y144700D02*
Y145000D01*
Y140900D02*
Y143200D01*
Y140300D02*
Y140800D01*
Y125900D02*
Y128100D01*
Y123500D02*
Y124100D01*
Y121200D02*
Y123000D01*
Y120200D02*
Y120800D01*
Y117900D02*
Y118500D01*
Y116100D02*
Y117800D01*
Y100800D02*
Y101400D01*
Y99900D02*
Y100500D01*
Y99000D02*
Y99600D01*
Y97300D02*
Y97900D01*
Y96200D02*
Y96700D01*
Y95700D02*
Y96000D01*
X27500Y146000D02*
Y146600D01*
Y144600D02*
Y145000D01*
Y141000D02*
Y143000D01*
Y140400D02*
Y140900D01*
Y126000D02*
Y128000D01*
Y123400D02*
Y124000D01*
Y121200D02*
Y123000D01*
Y120300D02*
Y120900D01*
Y117800D02*
Y118400D01*
Y116100D02*
Y117700D01*
Y99900D02*
Y101400D01*
Y98700D02*
Y99300D01*
Y96000D02*
Y96600D01*
Y95600D02*
Y95900D01*
X27600Y145900D02*
Y146500D01*
Y144600D02*
Y145000D01*
Y141100D02*
Y142700D01*
Y140500D02*
Y141000D01*
Y126100D02*
Y127900D01*
Y123400D02*
Y123800D01*
Y121200D02*
Y123000D01*
Y120500D02*
Y121000D01*
Y117700D02*
Y118300D01*
Y116300D02*
Y117600D01*
Y99900D02*
Y101300D01*
Y98500D02*
Y99000D01*
Y97700D02*
Y97900D01*
Y95600D02*
Y96500D01*
X27700Y149200D02*
Y149800D01*
Y145800D02*
Y146400D01*
Y144500D02*
Y145000D01*
Y140600D02*
Y142800D01*
Y126200D02*
Y127800D01*
Y123300D02*
Y123800D01*
Y121200D02*
Y123000D01*
Y120500D02*
Y121000D01*
Y117700D02*
Y118200D01*
Y116400D02*
Y117600D01*
Y100000D02*
Y101300D01*
Y98200D02*
Y98800D01*
Y97600D02*
Y98000D01*
Y95600D02*
Y96500D01*
Y95100D02*
Y95500D01*
X27800Y149100D02*
Y149900D01*
Y145700D02*
Y146300D01*
Y144500D02*
Y144900D01*
Y140800D02*
Y142900D01*
Y126200D02*
Y127700D01*
Y123300D02*
Y123700D01*
Y121200D02*
Y123000D01*
Y120600D02*
Y121100D01*
Y117600D02*
Y118100D01*
Y116500D02*
Y117500D01*
Y100100D02*
Y101300D01*
Y98100D02*
Y98500D01*
Y97500D02*
Y98000D01*
Y95800D02*
Y96400D01*
Y95000D02*
Y95500D01*
X27900Y149000D02*
Y150000D01*
Y145500D02*
Y146200D01*
Y144400D02*
Y144900D01*
Y141400D02*
Y142900D01*
Y140900D02*
Y141300D01*
Y126300D02*
Y127600D01*
Y123200D02*
Y123700D01*
Y121200D02*
Y123000D01*
Y120700D02*
Y121100D01*
Y117600D02*
Y118100D01*
Y116600D02*
Y117500D01*
Y100100D02*
Y101100D01*
Y98100D02*
Y98200D01*
Y97400D02*
Y98000D01*
Y96000D02*
Y96400D01*
Y94900D02*
Y95600D01*
X28000Y149000D02*
Y150000D01*
Y145400D02*
Y146000D01*
Y144400D02*
Y144800D01*
Y141500D02*
Y142900D01*
Y126300D02*
Y127500D01*
Y123200D02*
Y123600D01*
Y121200D02*
Y123000D01*
Y120700D02*
Y121100D01*
Y117600D02*
Y118000D01*
Y116600D02*
Y117500D01*
Y100300D02*
Y101000D01*
Y97300D02*
Y97900D01*
Y96100D02*
Y96300D01*
Y94800D02*
Y95600D01*
X28100Y149600D02*
Y150000D01*
Y148900D02*
Y149400D01*
Y145300D02*
Y145900D01*
Y144300D02*
Y144800D01*
Y141700D02*
Y142800D01*
Y126400D02*
Y127600D01*
Y124700D02*
Y125300D01*
Y123100D02*
Y123600D01*
Y120800D02*
Y123000D01*
Y119000D02*
Y119700D01*
Y117500D02*
Y118000D01*
Y116600D02*
Y117400D01*
Y97200D02*
Y97800D01*
Y95200D02*
Y95500D01*
Y94500D02*
Y95000D01*
X28200Y149600D02*
Y150000D01*
Y148800D02*
Y149300D01*
Y145200D02*
Y145800D01*
Y144200D02*
Y144700D01*
Y141800D02*
Y142900D01*
Y126400D02*
Y127600D01*
Y124500D02*
Y125400D01*
Y123100D02*
Y123500D01*
Y120800D02*
Y123000D01*
Y118900D02*
Y119800D01*
Y117500D02*
Y117900D01*
Y116600D02*
Y117400D01*
Y97100D02*
Y97800D01*
Y95000D02*
Y95400D01*
Y94400D02*
Y94900D01*
X28300Y149600D02*
Y150000D01*
Y148600D02*
Y149400D01*
Y145000D02*
Y145700D01*
Y144100D02*
Y144600D01*
Y141900D02*
Y143000D01*
Y126400D02*
Y127600D01*
Y124500D02*
Y125500D01*
Y123100D02*
Y123500D01*
Y120800D02*
Y123000D01*
Y118800D02*
Y119900D01*
Y117500D02*
Y117900D01*
Y116600D02*
Y117400D01*
Y97000D02*
Y97700D01*
Y95000D02*
Y95300D01*
Y94500D02*
Y94700D01*
X28400Y148200D02*
Y150000D01*
Y144800D02*
Y145600D01*
Y144000D02*
Y144500D01*
Y142000D02*
Y143100D01*
Y126500D02*
Y127900D01*
Y124400D02*
Y125500D01*
Y123100D02*
Y123500D01*
Y120800D02*
Y123000D01*
Y118800D02*
Y119900D01*
Y117500D02*
Y117900D01*
Y116300D02*
Y117400D01*
Y96900D02*
Y97500D01*
Y95800D02*
Y96000D01*
Y94800D02*
Y95200D01*
X28500Y147700D02*
Y150000D01*
Y144500D02*
Y145400D01*
Y143800D02*
Y144400D01*
Y142600D02*
Y143200D01*
Y142100D02*
Y142500D01*
Y126500D02*
Y128200D01*
Y124400D02*
Y125600D01*
Y123100D02*
Y123500D01*
Y120900D02*
Y123000D01*
Y118800D02*
Y119900D01*
Y117500D02*
Y117900D01*
Y116000D02*
Y117400D01*
Y96800D02*
Y97500D01*
Y95700D02*
Y96200D01*
Y94700D02*
Y95600D01*
X28600Y149100D02*
Y149900D01*
Y147200D02*
Y148800D01*
Y142700D02*
Y145300D01*
Y142200D02*
Y142400D01*
Y126500D02*
Y128300D01*
Y124400D02*
Y125600D01*
Y123100D02*
Y123500D01*
Y120900D02*
Y123000D01*
Y118800D02*
Y119900D01*
Y117500D02*
Y117800D01*
Y115900D02*
Y117400D01*
Y96700D02*
Y97400D01*
Y94700D02*
Y96200D01*
X28700Y149100D02*
Y149800D01*
Y146000D02*
Y148500D01*
Y142800D02*
Y145100D01*
Y126500D02*
Y128300D01*
Y124400D02*
Y125600D01*
Y123100D02*
Y123500D01*
Y120900D02*
Y123000D01*
Y118800D02*
Y119900D01*
Y117500D02*
Y117900D01*
Y115900D02*
Y117400D01*
Y96600D02*
Y97300D01*
Y94700D02*
Y96400D01*
X28800Y149400D02*
Y149500D01*
Y142900D02*
Y148100D01*
Y126500D02*
Y128300D01*
Y124400D02*
Y125500D01*
Y123100D02*
Y123500D01*
Y120900D02*
Y123000D01*
Y118800D02*
Y119900D01*
Y117500D02*
Y117900D01*
Y115900D02*
Y117400D01*
Y96500D02*
Y97200D01*
Y94700D02*
Y96400D01*
X28900Y143100D02*
Y147500D01*
Y126500D02*
Y128300D01*
Y124500D02*
Y125500D01*
Y123100D02*
Y123500D01*
Y120800D02*
Y123000D01*
Y118800D02*
Y119900D01*
Y117500D02*
Y117900D01*
Y115900D02*
Y117400D01*
Y95200D02*
Y97100D01*
X29000Y143200D02*
Y146900D01*
Y126400D02*
Y128300D01*
Y124500D02*
Y125400D01*
Y123100D02*
Y123500D01*
Y120800D02*
Y123000D01*
Y118900D02*
Y119800D01*
Y117500D02*
Y117900D01*
Y115900D02*
Y117400D01*
Y95300D02*
Y97000D01*
X29100Y143400D02*
Y144600D01*
Y126400D02*
Y128300D01*
Y124600D02*
Y125300D01*
Y123200D02*
Y123500D01*
Y122200D02*
Y123000D01*
Y120800D02*
Y122000D01*
Y119000D02*
Y119700D01*
Y117500D02*
Y117900D01*
Y115900D02*
Y117400D01*
Y95200D02*
Y96900D01*
X29200Y143500D02*
Y144900D01*
Y126400D02*
Y128200D01*
Y124700D02*
Y125200D01*
Y123200D02*
Y123600D01*
Y122300D02*
Y123000D01*
Y121200D02*
Y121900D01*
Y120700D02*
Y121100D01*
Y119100D02*
Y119600D01*
Y117600D02*
Y118000D01*
Y115900D02*
Y117500D01*
Y95100D02*
Y96900D01*
X29300Y143600D02*
Y145200D01*
Y126300D02*
Y128200D01*
Y124700D02*
Y125200D01*
Y123200D02*
Y123600D01*
Y122300D02*
Y123000D01*
Y121200D02*
Y121900D01*
Y120700D02*
Y121100D01*
Y119100D02*
Y119600D01*
Y117600D02*
Y118000D01*
Y116000D02*
Y117500D01*
Y98400D02*
Y98900D01*
Y95000D02*
Y97400D01*
X29400Y143800D02*
Y145500D01*
Y126200D02*
Y127800D01*
Y124700D02*
Y125200D01*
Y123300D02*
Y123700D01*
Y122300D02*
Y123000D01*
Y121200D02*
Y122000D01*
Y120700D02*
Y121100D01*
Y119100D02*
Y119600D01*
Y116300D02*
Y118100D01*
Y98300D02*
Y99000D01*
Y95100D02*
Y97400D01*
X29500Y143900D02*
Y145800D01*
Y126200D02*
Y127500D01*
Y124700D02*
Y125200D01*
Y123300D02*
Y123800D01*
Y121200D02*
Y123000D01*
Y120600D02*
Y121000D01*
Y119100D02*
Y119600D01*
Y117700D02*
Y118100D01*
Y116700D02*
Y117600D01*
Y98700D02*
Y99100D01*
Y98100D02*
Y98600D01*
Y95200D02*
Y97400D01*
X29600Y144800D02*
Y146100D01*
Y144000D02*
Y144700D01*
Y126100D02*
Y127400D01*
Y123400D02*
Y123800D01*
Y121200D02*
Y123000D01*
Y120500D02*
Y121000D01*
Y119100D02*
Y119600D01*
Y116700D02*
Y118200D01*
Y98900D02*
Y99100D01*
Y98100D02*
Y98600D01*
Y95300D02*
Y97300D01*
X29700Y145200D02*
Y146500D01*
Y144200D02*
Y144800D01*
Y126000D02*
Y127400D01*
Y123400D02*
Y124000D01*
Y121200D02*
Y123000D01*
Y120400D02*
Y120900D01*
Y117800D02*
Y118300D01*
Y116800D02*
Y117700D01*
Y98000D02*
Y98800D01*
Y95400D02*
Y97300D01*
X29800Y145500D02*
Y147000D01*
Y144300D02*
Y145000D01*
Y125900D02*
Y127400D01*
Y123500D02*
Y124100D01*
Y120300D02*
Y120800D01*
Y117900D02*
Y118400D01*
Y116800D02*
Y117800D01*
Y98400D02*
Y98900D01*
Y97800D02*
Y98300D01*
Y95500D02*
Y97300D01*
X29900Y145800D02*
Y147300D01*
Y144500D02*
Y145100D01*
Y125700D02*
Y127400D01*
Y123600D02*
Y124200D01*
Y120200D02*
Y120700D01*
Y118000D02*
Y118600D01*
Y116700D02*
Y117900D01*
Y98600D02*
Y98900D01*
Y97800D02*
Y98200D01*
Y95500D02*
Y97200D01*
X30000Y146100D02*
Y147800D01*
Y144600D02*
Y145200D01*
Y125500D02*
Y127500D01*
Y123700D02*
Y124400D01*
Y120000D02*
Y120600D01*
Y118100D02*
Y118800D01*
Y116600D02*
Y118000D01*
Y97600D02*
Y98100D01*
Y95400D02*
Y97100D01*
X30100Y146600D02*
Y148300D01*
Y144700D02*
Y145400D01*
Y125100D02*
Y127600D01*
Y123800D02*
Y124900D01*
Y119600D02*
Y120500D01*
Y116600D02*
Y119100D01*
Y97500D02*
Y98000D01*
Y95300D02*
Y97100D01*
X30200Y147000D02*
Y148700D01*
Y144900D02*
Y145500D01*
Y124000D02*
Y127700D01*
Y116500D02*
Y120400D01*
Y96000D02*
Y97900D01*
Y95200D02*
Y95800D01*
X30300Y150300D02*
Y150900D01*
Y147400D02*
Y149200D01*
Y145000D02*
Y145700D01*
Y125900D02*
Y127700D01*
Y124200D02*
Y125800D01*
Y121900D02*
Y122400D01*
Y118500D02*
Y120200D01*
Y116400D02*
Y118300D01*
Y96900D02*
Y97700D01*
Y96000D02*
Y96800D01*
Y95100D02*
Y95700D01*
X30400Y150200D02*
Y151000D01*
Y147900D02*
Y149700D01*
Y145100D02*
Y145800D01*
Y126000D02*
Y127800D01*
Y124500D02*
Y125500D01*
Y121800D02*
Y122500D01*
Y118700D02*
Y119900D01*
Y116400D02*
Y118100D01*
Y97100D02*
Y97600D01*
Y95900D02*
Y96700D01*
Y95000D02*
Y95600D01*
X30500Y148300D02*
Y151100D01*
Y145300D02*
Y145900D01*
Y126200D02*
Y127700D01*
Y123700D02*
Y124000D01*
Y121700D02*
Y122600D01*
Y120500D02*
Y120700D01*
Y119400D02*
Y119500D01*
Y116500D02*
Y118000D01*
Y95900D02*
Y96600D01*
Y94900D02*
Y95500D01*
X30600Y148800D02*
Y151100D01*
Y145400D02*
Y146100D01*
Y126400D02*
Y127600D01*
Y123700D02*
Y124200D01*
Y121400D02*
Y122800D01*
Y120300D02*
Y120800D01*
Y116500D02*
Y117800D01*
Y96000D02*
Y96500D01*
Y94800D02*
Y95500D01*
X30700Y150700D02*
Y151100D01*
Y149300D02*
Y150500D01*
Y145500D02*
Y146200D01*
Y126600D02*
Y127600D01*
Y123600D02*
Y124500D01*
Y122200D02*
Y122900D01*
Y121300D02*
Y122000D01*
Y120000D02*
Y120800D01*
Y116600D02*
Y117600D01*
Y94700D02*
Y95400D01*
X30800Y150700D02*
Y151100D01*
Y149700D02*
Y150500D01*
Y145700D02*
Y146400D01*
Y126800D02*
Y127500D01*
Y123600D02*
Y124700D01*
Y122600D02*
Y123000D01*
Y121300D02*
Y121700D01*
Y119700D02*
Y120900D01*
Y116700D02*
Y117400D01*
Y94600D02*
Y95300D01*
X30900Y150700D02*
Y151100D01*
Y150100D02*
Y150500D01*
Y145800D02*
Y146500D01*
Y127000D02*
Y127400D01*
Y123800D02*
Y124900D01*
Y121700D02*
Y123000D01*
Y121300D02*
Y121600D01*
Y119500D02*
Y120700D01*
Y116800D02*
Y117100D01*
Y94500D02*
Y95200D01*
X31000Y150100D02*
Y151100D01*
Y146000D02*
Y146600D01*
Y124000D02*
Y125200D01*
Y121300D02*
Y122900D01*
Y119300D02*
Y120500D01*
Y94400D02*
Y95100D01*
X31100Y150100D02*
Y151100D01*
Y146100D02*
Y146800D01*
Y124100D02*
Y125500D01*
Y122100D02*
Y123000D01*
Y121300D02*
Y122000D01*
Y119000D02*
Y120300D01*
Y94400D02*
Y95000D01*
X31200Y150200D02*
Y151000D01*
Y146200D02*
Y146900D01*
Y124400D02*
Y125700D01*
Y121700D02*
Y123000D01*
Y121200D02*
Y121600D01*
Y118800D02*
Y120100D01*
Y94400D02*
Y94900D01*
X31300Y150300D02*
Y150900D01*
Y146300D02*
Y147000D01*
Y124500D02*
Y126000D01*
Y124200D02*
Y124300D01*
Y121700D02*
Y123000D01*
Y121200D02*
Y121600D01*
Y120100D02*
Y120300D01*
Y118500D02*
Y120000D01*
Y94400D02*
Y94800D01*
X31400Y150500D02*
Y150700D01*
Y146500D02*
Y147200D01*
Y124700D02*
Y126200D01*
Y124100D02*
Y124500D01*
Y122500D02*
Y123000D01*
Y121300D02*
Y121600D01*
Y120000D02*
Y120400D01*
Y118300D02*
Y119700D01*
Y94500D02*
Y94600D01*
X31500Y146600D02*
Y147300D01*
Y124900D02*
Y126500D01*
Y124000D02*
Y124600D01*
Y121300D02*
Y123000D01*
Y119900D02*
Y120500D01*
Y118000D02*
Y119500D01*
X31600Y146800D02*
Y147400D01*
Y125100D02*
Y126700D01*
Y124000D02*
Y124700D01*
Y121200D02*
Y123000D01*
Y119800D02*
Y120500D01*
Y117800D02*
Y119400D01*
X31700Y146900D02*
Y147600D01*
Y125300D02*
Y126900D01*
Y124100D02*
Y124800D01*
Y121300D02*
Y122900D01*
Y119700D02*
Y120400D01*
Y117500D02*
Y119100D01*
X31800Y147100D02*
Y147700D01*
Y125500D02*
Y127200D01*
Y124200D02*
Y124900D01*
Y121300D02*
Y123000D01*
Y119600D02*
Y120300D01*
Y117300D02*
Y119000D01*
X31900Y147200D02*
Y147900D01*
Y125700D02*
Y127400D01*
Y124300D02*
Y125000D01*
Y121300D02*
Y123000D01*
Y119500D02*
Y120200D01*
Y117000D02*
Y118800D01*
X32000Y147300D02*
Y148000D01*
Y125900D02*
Y127700D01*
Y124300D02*
Y125100D01*
Y121300D02*
Y123000D01*
Y119400D02*
Y120100D01*
Y116800D02*
Y118600D01*
X32100Y147500D02*
Y148100D01*
Y126100D02*
Y127900D01*
Y124400D02*
Y125200D01*
Y122200D02*
Y123100D01*
Y121200D02*
Y122100D01*
Y119300D02*
Y120100D01*
Y116500D02*
Y118400D01*
X32200Y147600D02*
Y148300D01*
Y126300D02*
Y127900D01*
Y124500D02*
Y125300D01*
Y122200D02*
Y123100D01*
Y121100D02*
Y122100D01*
Y119200D02*
Y120000D01*
Y116500D02*
Y118200D01*
X32300Y147800D02*
Y148400D01*
Y126500D02*
Y127900D01*
Y124600D02*
Y125400D01*
Y122200D02*
Y123200D01*
Y121700D02*
Y122100D01*
Y121100D02*
Y121600D01*
Y119100D02*
Y119900D01*
Y116600D02*
Y118000D01*
X32400Y147900D02*
Y148500D01*
Y126700D02*
Y127800D01*
Y124600D02*
Y125500D01*
Y122700D02*
Y123300D01*
Y122200D02*
Y122500D01*
Y121800D02*
Y122100D01*
Y121000D02*
Y121600D01*
Y118900D02*
Y119900D01*
Y116600D02*
Y117800D01*
X32500Y149000D02*
Y149200D01*
Y148000D02*
Y148700D01*
Y126900D02*
Y127800D01*
Y124700D02*
Y125600D01*
Y122700D02*
Y123300D01*
Y122200D02*
Y122500D01*
Y121800D02*
Y122100D01*
Y121000D02*
Y121500D01*
Y118900D02*
Y119800D01*
Y116700D02*
Y117600D01*
X32600Y148100D02*
Y149500D01*
Y127100D02*
Y127700D01*
Y124800D02*
Y125700D01*
Y122800D02*
Y123400D01*
Y122200D02*
Y122500D01*
Y121800D02*
Y122100D01*
Y120900D02*
Y121500D01*
Y118700D02*
Y119700D01*
Y116800D02*
Y117400D01*
X32700Y148300D02*
Y149500D01*
Y127300D02*
Y127600D01*
Y124900D02*
Y125800D01*
Y122900D02*
Y123400D01*
Y122200D02*
Y122500D01*
Y121800D02*
Y122100D01*
Y120800D02*
Y121400D01*
Y118700D02*
Y119600D01*
Y116900D02*
Y117200D01*
X32800Y148400D02*
Y149600D01*
Y124900D02*
Y125900D01*
Y122900D02*
Y123500D01*
Y122200D02*
Y122600D01*
Y121700D02*
Y122100D01*
Y120800D02*
Y121400D01*
Y118500D02*
Y119500D01*
X32900Y148500D02*
Y149600D01*
Y125000D02*
Y126100D01*
Y122700D02*
Y123500D01*
Y121700D02*
Y122600D01*
Y120700D02*
Y121300D01*
Y118400D02*
Y119500D01*
X33000Y149200D02*
Y149700D01*
Y148600D02*
Y149000D01*
Y125100D02*
Y126100D01*
Y121700D02*
Y123600D01*
Y120700D02*
Y121200D01*
Y118400D02*
Y119400D01*
X33100Y149200D02*
Y149700D01*
Y148600D02*
Y149000D01*
Y125100D02*
Y126100D01*
Y123000D02*
Y123600D01*
Y121600D02*
Y122700D01*
Y120700D02*
Y121200D01*
Y118400D02*
Y119300D01*
X33200Y149200D02*
Y149600D01*
Y148600D02*
Y149000D01*
Y125200D02*
Y125800D01*
Y122900D02*
Y123700D01*
Y122500D02*
Y122700D01*
Y121600D02*
Y121800D01*
Y120600D02*
Y121100D01*
Y118700D02*
Y119200D01*
X33300Y148600D02*
Y149600D01*
Y125300D02*
Y125500D01*
Y122900D02*
Y123700D01*
Y122600D02*
Y122800D01*
Y121600D02*
Y121700D01*
Y120600D02*
Y121100D01*
Y119000D02*
Y119200D01*
X33400Y148600D02*
Y149600D01*
Y122900D02*
Y123700D01*
Y121500D02*
Y122800D01*
Y120600D02*
Y121100D01*
X33500Y148700D02*
Y149500D01*
Y122900D02*
Y123700D01*
Y122300D02*
Y122600D01*
Y121800D02*
Y122100D01*
Y120600D02*
Y121100D01*
X33600Y148900D02*
Y149300D01*
Y122900D02*
Y123700D01*
Y120600D02*
Y121100D01*
X33700Y123000D02*
Y123700D01*
Y120600D02*
Y121100D01*
X33800Y123000D02*
Y123700D01*
Y120600D02*
Y121100D01*
X33900Y123200D02*
Y123700D01*
Y123000D02*
Y123100D01*
Y120600D02*
Y121100D01*
X34000Y123100D02*
Y123600D01*
Y120600D02*
Y121200D01*
X34100Y123000D02*
Y123600D01*
Y120700D02*
Y121200D01*
X34200Y122900D02*
Y123600D01*
Y120700D02*
Y121300D01*
X34300Y122800D02*
Y123500D01*
Y120800D02*
Y121500D01*
X34400Y122500D02*
Y123400D01*
Y120800D02*
Y121800D01*
X34500Y120900D02*
Y123300D01*
X34600Y121100D02*
Y123200D01*
X34700Y121200D02*
Y123100D01*
X34800Y121400D02*
Y122800D01*
D36*
X14597Y36152D02*
X15097Y35652D01*
Y34652D01*
X14597Y34152D01*
X14097D01*
X13597Y34652D01*
Y35652D01*
X13097Y36152D01*
X12597D01*
X12098Y35652D01*
Y34652D01*
X12597Y34152D01*
X15097Y37152D02*
X12597D01*
X12098Y37651D01*
Y38651D01*
X12597Y39151D01*
X15097D01*
X12098Y40150D02*
X15097D01*
Y41650D01*
X14597Y42150D01*
X13597D01*
X13097Y41650D01*
Y40150D01*
X12098Y43150D02*
X14097D01*
X15097Y44149D01*
X14097Y45149D01*
X12098D01*
X13597D01*
Y43150D01*
X15097Y48148D02*
Y46149D01*
X12098D01*
Y48148D01*
X13597Y46149D02*
Y47148D01*
X12098Y49148D02*
X15097D01*
Y50647D01*
X14597Y51147D01*
X13597D01*
X13097Y50647D01*
Y49148D01*
Y50147D02*
X12098Y51147D01*
X15097Y53646D02*
Y52646D01*
X14597Y52147D01*
X12597D01*
X12098Y52646D01*
Y53646D01*
X12597Y54146D01*
X14597D01*
X15097Y53646D01*
X12098Y58145D02*
X15097D01*
Y59644D01*
X14597Y60144D01*
X13597D01*
X13097Y59644D01*
Y58145D01*
Y59144D02*
X12098Y60144D01*
X15097Y62643D02*
Y61644D01*
X14597Y61144D01*
X12597D01*
X12098Y61644D01*
Y62643D01*
X12597Y63143D01*
X14597D01*
X15097Y62643D01*
Y64143D02*
X12098D01*
Y65642D01*
X12597Y66142D01*
X13097D01*
X13597Y65642D01*
Y64143D01*
Y65642D01*
X14097Y66142D01*
X14597D01*
X15097Y65642D01*
Y64143D01*
Y68641D02*
Y67642D01*
X14597Y67142D01*
X12597D01*
X12098Y67642D01*
Y68641D01*
X12597Y69141D01*
X14597D01*
X15097Y68641D01*
Y70141D02*
Y72140D01*
Y71140D01*
X12098D01*
X15097Y73140D02*
Y74139D01*
Y73640D01*
X12098D01*
Y73140D01*
Y74139D01*
X15097Y75639D02*
X12098D01*
X13097D01*
X15097Y77638D01*
X13597Y76139D01*
X12098Y77638D01*
X14597Y83636D02*
X15097Y83137D01*
Y82137D01*
X14597Y81637D01*
X12597D01*
X12098Y82137D01*
Y83137D01*
X12597Y83636D01*
X15097Y84636D02*
X12098D01*
Y86636D01*
X15097Y87635D02*
X12597D01*
X12098Y88135D01*
Y89135D01*
X12597Y89635D01*
X15097D01*
Y90634D02*
X12098D01*
Y92134D01*
X12597Y92633D01*
X13097D01*
X13597Y92134D01*
Y90634D01*
Y92134D01*
X14097Y92633D01*
X14597D01*
X15097Y92134D01*
Y90634D01*
X9798Y42150D02*
X10298Y41650D01*
Y40650D01*
X9798Y40150D01*
X7799D01*
X7299Y40650D01*
Y41650D01*
X7799Y42150D01*
X7299Y43150D02*
X9298D01*
X10298Y44149D01*
X9298Y45149D01*
X7299D01*
X8798D01*
Y43150D01*
X7299Y46149D02*
X10298D01*
Y47648D01*
X9798Y48148D01*
X8798D01*
X8298Y47648D01*
Y46149D01*
Y47148D02*
X7299Y48148D01*
X10298Y49148D02*
Y51147D01*
Y50147D01*
X7299D01*
X10298Y54146D02*
Y52147D01*
X7299D01*
Y54146D01*
X8798Y52147D02*
Y53146D01*
X7299Y58145D02*
X10298D01*
Y59644D01*
X9798Y60144D01*
X8798D01*
X8298Y59644D01*
Y58145D01*
X7299Y61144D02*
X10298D01*
Y62643D01*
X9798Y63143D01*
X8798D01*
X8298Y62643D01*
Y61144D01*
Y62143D02*
X7299Y63143D01*
X10298Y65642D02*
Y64643D01*
X9798Y64143D01*
X7799D01*
X7299Y64643D01*
Y65642D01*
X7799Y66142D01*
X9798D01*
X10298Y65642D01*
X7299Y67142D02*
X10298D01*
Y68641D01*
X9798Y69141D01*
X8798D01*
X8298Y68641D01*
Y67142D01*
X10298Y70141D02*
X7799D01*
X7299Y70641D01*
Y71640D01*
X7799Y72140D01*
X10298D01*
Y73140D02*
X7299D01*
Y75139D01*
X9798Y78138D02*
X10298Y77638D01*
Y76639D01*
X9798Y76139D01*
X9298D01*
X8798Y76639D01*
Y77638D01*
X8298Y78138D01*
X7799D01*
X7299Y77638D01*
Y76639D01*
X7799Y76139D01*
X10298Y79138D02*
Y80138D01*
Y79638D01*
X7299D01*
Y79138D01*
Y80138D01*
X10298Y83137D02*
Y82137D01*
X9798Y81637D01*
X7799D01*
X7299Y82137D01*
Y83137D01*
X7799Y83636D01*
X9798D01*
X10298Y83137D01*
X7299Y84636D02*
X10298D01*
X7299Y86636D01*
X10298D01*
X2500Y38401D02*
Y39401D01*
Y38901D01*
X5499D01*
X4999Y38401D01*
X2500Y42400D02*
X5499D01*
X3999Y40900D01*
Y42900D01*
X2500Y43899D02*
X4499Y45899D01*
X2500Y46898D02*
Y47898D01*
Y47398D01*
X5499D01*
X4999Y46898D01*
X2500Y49398D02*
Y50397D01*
Y49897D01*
X5499D01*
X4999Y49398D01*
X2500Y51897D02*
X4499Y53896D01*
X2500Y56895D02*
Y54896D01*
X4499Y56895D01*
X4999D01*
X5499Y56395D01*
Y55396D01*
X4999Y54896D01*
Y57895D02*
X5499Y58395D01*
Y59394D01*
X4999Y59894D01*
X3000D01*
X2500Y59394D01*
Y58395D01*
X3000Y57895D01*
X4999D01*
X2500Y62893D02*
Y60894D01*
X4499Y62893D01*
X4999D01*
X5499Y62393D01*
Y61394D01*
X4999Y60894D01*
Y63893D02*
X5499Y64393D01*
Y65392D01*
X4999Y65892D01*
X3000D01*
X2500Y65392D01*
Y64393D01*
X3000Y63893D01*
X4999D01*
X3999Y69891D02*
Y71890D01*
X5499Y75889D02*
X3500D01*
X2500Y76889D01*
X3500Y77888D01*
X5499D01*
X4999Y81887D02*
X5499Y82387D01*
Y83386D01*
X4999Y83886D01*
X4499D01*
X3999Y83386D01*
Y82887D01*
Y83386D01*
X3500Y83886D01*
X3000D01*
X2500Y83386D01*
Y82387D01*
X3000Y81887D01*
X2500Y84886D02*
X3000D01*
Y85386D01*
X2500D01*
Y84886D01*
Y87385D02*
Y88385D01*
Y87885D01*
X5499D01*
X4999Y87385D01*
X22500Y42500D02*
Y45499D01*
X21001D01*
X20501Y44999D01*
Y43999D01*
X21001Y43500D01*
X22500D01*
X21500D02*
X20501Y42500D01*
X18001D02*
Y45499D01*
X19501Y43999D01*
X17502D01*
X60001Y110499D02*
X60501Y110999D01*
X61500D01*
X62000Y110499D01*
Y108500D01*
X61500Y108000D01*
X60501D01*
X60001Y108500D01*
X59001Y110499D02*
X58501Y110999D01*
X57501D01*
X57002Y110499D01*
Y109999D01*
X57501Y109500D01*
X58001D01*
X57501D01*
X57002Y109000D01*
Y108500D01*
X57501Y108000D01*
X58501D01*
X59001Y108500D01*
X293001Y152499D02*
X293500Y152999D01*
X294500D01*
X295000Y152499D01*
Y150500D01*
X294500Y150000D01*
X293500D01*
X293001Y150500D01*
X292001Y150000D02*
X291001D01*
X291501D01*
Y152999D01*
X292001Y152499D01*
X250501Y174999D02*
X251000Y175499D01*
X252000D01*
X252500Y174999D01*
Y173000D01*
X252000Y172500D01*
X251000D01*
X250501Y173000D01*
X247502Y172500D02*
X249501D01*
X247502Y174499D01*
Y174999D01*
X248002Y175499D01*
X249001D01*
X249501Y174999D01*
X47501Y155999D02*
X48000Y156499D01*
X49000D01*
X49500Y155999D01*
Y154000D01*
X49000Y153500D01*
X48000D01*
X47501Y154000D01*
X46501Y153500D02*
X45501D01*
X46001D01*
Y156499D01*
X46501Y155999D01*
X44002D02*
X43502Y156499D01*
X42502D01*
X42002Y155999D01*
Y154000D01*
X42502Y153500D01*
X43502D01*
X44002Y154000D01*
Y155999D01*
X48001Y25499D02*
X48500Y25999D01*
X49500D01*
X50000Y25499D01*
Y23500D01*
X49500Y23000D01*
X48500D01*
X48001Y23500D01*
X47001Y23000D02*
X46001D01*
X46501D01*
Y25999D01*
X47001Y25499D01*
X44502Y23000D02*
X43502D01*
X44002D01*
Y25999D01*
X44502Y25499D01*
X190501Y155999D02*
X191000Y156499D01*
X192000D01*
X192500Y155999D01*
Y154000D01*
X192000Y153500D01*
X191000D01*
X190501Y154000D01*
X189501Y153500D02*
X188501D01*
X189001D01*
Y156499D01*
X189501Y155999D01*
X185002Y153500D02*
X187002D01*
X185002Y155499D01*
Y155999D01*
X185502Y156499D01*
X186502D01*
X187002Y155999D01*
X192501Y25499D02*
X193000Y25999D01*
X194000D01*
X194500Y25499D01*
Y23500D01*
X194000Y23000D01*
X193000D01*
X192501Y23500D01*
X191501Y23000D02*
X190501D01*
X191001D01*
Y25999D01*
X191501Y25499D01*
X189002D02*
X188502Y25999D01*
X187502D01*
X187002Y25499D01*
Y24999D01*
X187502Y24499D01*
X188002D01*
X187502D01*
X187002Y24000D01*
Y23500D01*
X187502Y23000D01*
X188502D01*
X189002Y23500D01*
X49500Y163500D02*
Y166499D01*
X48000D01*
X47501Y165999D01*
Y164999D01*
X48000Y164500D01*
X49500D01*
X48500D02*
X47501Y163500D01*
X46501D02*
X45501D01*
X46001D01*
Y166499D01*
X46501Y165999D01*
X44002D02*
X43502Y166499D01*
X42502D01*
X42002Y165999D01*
Y164000D01*
X42502Y163500D01*
X43502D01*
X44002Y164000D01*
Y165999D01*
X50000Y13000D02*
Y15999D01*
X48500D01*
X48001Y15499D01*
Y14500D01*
X48500Y14000D01*
X50000D01*
X49000D02*
X48001Y13000D01*
X47001D02*
X46001D01*
X46501D01*
Y15999D01*
X47001Y15499D01*
X44502Y13000D02*
X43502D01*
X44002D01*
Y15999D01*
X44502Y15499D01*
X192500Y163500D02*
Y166499D01*
X191000D01*
X190501Y165999D01*
Y164999D01*
X191000Y164500D01*
X192500D01*
X191500D02*
X190501Y163500D01*
X189501D02*
X188501D01*
X189001D01*
Y166499D01*
X189501Y165999D01*
X185002Y163500D02*
X187002D01*
X185002Y165499D01*
Y165999D01*
X185502Y166499D01*
X186502D01*
X187002Y165999D01*
X194500Y13500D02*
Y16499D01*
X193000D01*
X192501Y15999D01*
Y14999D01*
X193000Y14500D01*
X194500D01*
X193500D02*
X192501Y13500D01*
X191501D02*
X190501D01*
X191001D01*
Y16499D01*
X191501Y15999D01*
X189002D02*
X188502Y16499D01*
X187502D01*
X187002Y15999D01*
Y15499D01*
X187502Y14999D01*
X188002D01*
X187502D01*
X187002Y14500D01*
Y14000D01*
X187502Y13500D01*
X188502D01*
X189002Y14000D01*
X219500Y76000D02*
Y78999D01*
X218001D01*
X217501Y78499D01*
Y77500D01*
X218001Y77000D01*
X219500D01*
X218500D02*
X217501Y76000D01*
X216501Y78499D02*
X216001Y78999D01*
X215002D01*
X214502Y78499D01*
Y77999D01*
X215002Y77500D01*
X215501D01*
X215002D01*
X214502Y77000D01*
Y76500D01*
X215002Y76000D01*
X216001D01*
X216501Y76500D01*
X202500Y131000D02*
Y133999D01*
X201000D01*
X200501Y133499D01*
Y132500D01*
X201000Y132000D01*
X202500D01*
X201500D02*
X200501Y131000D01*
X197502D02*
X199501D01*
X197502Y132999D01*
Y133499D01*
X198001Y133999D01*
X199001D01*
X199501Y133499D01*
X196502Y131000D02*
X195502D01*
X196002D01*
Y133999D01*
X196502Y133499D01*
X204146Y106129D02*
Y103630D01*
X203646Y103130D01*
X202646D01*
X202146Y103630D01*
Y106129D01*
X201147Y103130D02*
X200147D01*
X200647D01*
Y106129D01*
X201147Y105630D01*
M02*
