M48
;Layer_Color=9474304
;FILE_FORMAT=2:5
INCH,TZ
;TYPE=PLATED
T1F00S00C0.01968
T2F00S00C0.02000
T3F00S00C0.03000
T4F00S00C0.03543
T5F00S00C0.05906
T6F00S00C0.07087
T7F00S00C0.11811
;TYPE=NON_PLATED
T8F00S00C0.11811
T9F00S00C0.12598
%
T01
X40000Y14000
X27500Y35000
X15000Y55000
X240000Y17500
X282500
Y5000
X220000Y125000
X96000Y84000
X84000
X35000Y142500
T02
X245000Y60000
T03
X275000Y145000
Y155000
Y165000
X200000Y120000
X190000
X180000
X170000
X160000
X150000
X140000
X130000
X120000
X110000
X100000
X90000
X80000
X70000
Y60000
X80000
X90000
X100000
X110000
X120000
X130000
X140000
X150000
X160000
X170000
X180000
X190000
X200000
X190000Y90000
X180000
X170000
X160000
X150000
Y100000
X160000
X170000
X180000
X190000
X140000
X130000
Y90000
X140000
T04
X37500Y55000
X57657Y37500
X67500
X92972
X102815
X112657
X122500
X147972
X157815
X167657
X177500
X202658
X212500
X232500Y150000
X242500
X209842Y145000
X200000
X177028
X167185
X157343
X147500
X122028
X112185
X102342
X92500
X67343
X57500
X37500Y126870
Y117028
Y107185
Y97342
Y87500
Y64842
T05
X303976Y67500
X215000
T06
X233347Y35000
X255000
Y100965
Y117500
X233347
Y100965
T07
X260000Y67500
T08
X283740Y35000
Y109232
T09
X11811Y11811
X299213
Y169291
X11811
M30
